%TF.GenerationSoftware,KiCad,Pcbnew,(6.0.9)*%
%TF.CreationDate,2022-12-20T17:59:48-05:00*%
%TF.ProjectId,6264_FRAM_MOD,36323634-5f46-4524-914d-5f4d4f442e6b,rev?*%
%TF.SameCoordinates,Original*%
%TF.FileFunction,Copper,L2,Bot*%
%TF.FilePolarity,Positive*%
%FSLAX46Y46*%
G04 Gerber Fmt 4.6, Leading zero omitted, Abs format (unit mm)*
G04 Created by KiCad (PCBNEW (6.0.9)) date 2022-12-20 17:59:48*
%MOMM*%
%LPD*%
G01*
G04 APERTURE LIST*
G04 Aperture macros list*
%AMRoundRect*
0 Rectangle with rounded corners*
0 $1 Rounding radius*
0 $2 $3 $4 $5 $6 $7 $8 $9 X,Y pos of 4 corners*
0 Add a 4 corners polygon primitive as box body*
4,1,4,$2,$3,$4,$5,$6,$7,$8,$9,$2,$3,0*
0 Add four circle primitives for the rounded corners*
1,1,$1+$1,$2,$3*
1,1,$1+$1,$4,$5*
1,1,$1+$1,$6,$7*
1,1,$1+$1,$8,$9*
0 Add four rect primitives between the rounded corners*
20,1,$1+$1,$2,$3,$4,$5,0*
20,1,$1+$1,$4,$5,$6,$7,0*
20,1,$1+$1,$6,$7,$8,$9,0*
20,1,$1+$1,$8,$9,$2,$3,0*%
G04 Aperture macros list end*
%TA.AperFunction,ComponentPad*%
%ADD10RoundRect,0.250000X0.625000X-0.350000X0.625000X0.350000X-0.625000X0.350000X-0.625000X-0.350000X0*%
%TD*%
%TA.AperFunction,ComponentPad*%
%ADD11O,1.750000X1.200000*%
%TD*%
%TA.AperFunction,ComponentPad*%
%ADD12R,1.600000X1.600000*%
%TD*%
%TA.AperFunction,ComponentPad*%
%ADD13O,1.600000X1.600000*%
%TD*%
%TA.AperFunction,ViaPad*%
%ADD14C,0.685800*%
%TD*%
%TA.AperFunction,Conductor*%
%ADD15C,0.152400*%
%TD*%
%TA.AperFunction,Conductor*%
%ADD16C,0.914400*%
%TD*%
G04 APERTURE END LIST*
D10*
%TO.P,J1,1,Pin_1*%
%TO.N,/BATT_FAKE*%
X122682000Y-89865200D03*
D11*
%TO.P,J1,2,Pin_2*%
%TO.N,GND*%
X122682000Y-87865200D03*
%TD*%
D12*
%TO.P,U10,1,NC*%
%TO.N,unconnected-(U10-Pad1)*%
X111760000Y-58420000D03*
D13*
%TO.P,U10,2,A12*%
%TO.N,/A12*%
X111760000Y-60960000D03*
%TO.P,U10,3,A7*%
%TO.N,/A7*%
X111760000Y-63500000D03*
%TO.P,U10,4,A6*%
%TO.N,/A6*%
X111760000Y-66040000D03*
%TO.P,U10,5,A5*%
%TO.N,/A5*%
X111760000Y-68580000D03*
%TO.P,U10,6,A4*%
%TO.N,/A4*%
X111760000Y-71120000D03*
%TO.P,U10,7,A3*%
%TO.N,/A3*%
X111760000Y-73660000D03*
%TO.P,U10,8,A2*%
%TO.N,/A2*%
X111760000Y-76200000D03*
%TO.P,U10,9,A1*%
%TO.N,/A1*%
X111760000Y-78740000D03*
%TO.P,U10,10,A0*%
%TO.N,/A0*%
X111760000Y-81280000D03*
%TO.P,U10,11,D0*%
%TO.N,/D0*%
X111760000Y-83820000D03*
%TO.P,U10,12,D1*%
%TO.N,/D1*%
X111760000Y-86360000D03*
%TO.P,U10,13,D2*%
%TO.N,/D2*%
X111760000Y-88900000D03*
%TO.P,U10,14,GND*%
%TO.N,GND*%
X111760000Y-91440000D03*
%TO.P,U10,15,D3*%
%TO.N,/D3*%
X127000000Y-91440000D03*
%TO.P,U10,16,D4*%
%TO.N,/D4*%
X127000000Y-88900000D03*
%TO.P,U10,17,D5*%
%TO.N,/D5*%
X127000000Y-86360000D03*
%TO.P,U10,18,D6*%
%TO.N,/D6*%
X127000000Y-83820000D03*
%TO.P,U10,19,D7*%
%TO.N,/D7*%
X127000000Y-81280000D03*
%TO.P,U10,20,~{CE1}*%
%TO.N,/~{CE1}*%
X127000000Y-78740000D03*
%TO.P,U10,21,A10*%
%TO.N,/A10*%
X127000000Y-76200000D03*
%TO.P,U10,22,~{OE}*%
%TO.N,/~{OE}*%
X127000000Y-73660000D03*
%TO.P,U10,23,A11*%
%TO.N,/A11*%
X127000000Y-71120000D03*
%TO.P,U10,24,A9*%
%TO.N,/A9*%
X127000000Y-68580000D03*
%TO.P,U10,25,A8*%
%TO.N,/A8*%
X127000000Y-66040000D03*
%TO.P,U10,26,CE2*%
%TO.N,/CE2*%
X127000000Y-63500000D03*
%TO.P,U10,27,~{WE}*%
%TO.N,/~{WE}*%
X127000000Y-60960000D03*
%TO.P,U10,28,VCC*%
%TO.N,VCC*%
X127000000Y-58420000D03*
%TD*%
D14*
%TO.N,/D2*%
X116205000Y-82677000D03*
%TO.N,/D1*%
X116205000Y-81407000D03*
%TO.N,/A8*%
X122555000Y-71247000D03*
%TO.N,/D0*%
X116205000Y-80137000D03*
%TO.N,/A9*%
X122555000Y-72517000D03*
%TO.N,/A11*%
X122555000Y-73787000D03*
%TO.N,/A4*%
X116205000Y-73787000D03*
%TO.N,/A5*%
X116205000Y-72517000D03*
%TO.N,/D6*%
X122555000Y-80137000D03*
%TO.N,/A6*%
X116205000Y-71247000D03*
%TO.N,/D5*%
X122555000Y-81407000D03*
%TO.N,/A7*%
X116205000Y-69977000D03*
%TO.N,/D4*%
X122555000Y-82677000D03*
%TO.N,/A12*%
X116205000Y-68707000D03*
%TO.N,/CE2*%
X123825000Y-62618222D03*
%TO.N,/~{CE1}*%
X120777000Y-61849000D03*
%TO.N,/~{WE}*%
X122555000Y-68707000D03*
X124104400Y-63881000D03*
X124714000Y-61849000D03*
%TO.N,VCC*%
X125476000Y-59752900D03*
X120799466Y-91313000D03*
X122809000Y-60510022D03*
%TO.N,/BATT_FAKE*%
X120777000Y-90043000D03*
X120777000Y-88011000D03*
%TO.N,/~{CE_FM}*%
X122555000Y-77597000D03*
X120777000Y-62738000D03*
%TD*%
D15*
%TO.N,/D2*%
X113665000Y-86995000D02*
X111760000Y-88900000D01*
X116205000Y-82677000D02*
X113665000Y-85217000D01*
X113665000Y-85217000D02*
X113665000Y-86995000D01*
%TO.N,/D1*%
X116205000Y-81407000D02*
X112903000Y-84709000D01*
X112903000Y-85217000D02*
X111760000Y-86360000D01*
X112903000Y-84709000D02*
X112903000Y-85217000D01*
%TO.N,/A8*%
X125476000Y-67658689D02*
X125476000Y-68866311D01*
X123190000Y-71247000D02*
X122555000Y-71247000D01*
X125409044Y-69027956D02*
X123190000Y-71247000D01*
X127000000Y-66040000D02*
X125542955Y-67497045D01*
X125475993Y-67658689D02*
G75*
G02*
X125542955Y-67497045I228607J-11D01*
G01*
X125409059Y-69027971D02*
G75*
G03*
X125476000Y-68866311I-161759J161671D01*
G01*
%TO.N,/D0*%
X115492508Y-80138459D02*
X116203541Y-80138459D01*
X116203541Y-80138459D02*
X116205000Y-80137000D01*
X111760000Y-83820000D02*
X115376045Y-80203955D01*
X115492508Y-80138460D02*
G75*
G03*
X115376046Y-80203956I69592J-260040D01*
G01*
%TO.N,/A9*%
X127000000Y-68580000D02*
X123063000Y-72517000D01*
X123063000Y-72517000D02*
X122555000Y-72517000D01*
%TO.N,/A11*%
X123190000Y-73787000D02*
X122555000Y-73787000D01*
X125790044Y-71186956D02*
X123190000Y-73787000D01*
X127000000Y-71120000D02*
X125951689Y-71120000D01*
X125790029Y-71186941D02*
G75*
G02*
X125951689Y-71120000I161671J-161759D01*
G01*
%TO.N,/A4*%
X111760000Y-71120000D02*
X112808311Y-71120000D01*
X112969956Y-71186956D02*
X115570000Y-73787000D01*
X115570000Y-73787000D02*
X116205000Y-73787000D01*
X112969971Y-71186941D02*
G75*
G03*
X112808311Y-71120000I-161671J-161759D01*
G01*
%TO.N,/A5*%
X116205000Y-72517000D02*
X115697000Y-72517000D01*
X115697000Y-72517000D02*
X111760000Y-68580000D01*
%TO.N,/D6*%
X122556459Y-80138459D02*
X122555000Y-80137000D01*
X127000000Y-83820000D02*
X123383955Y-80203955D01*
X123267492Y-80138459D02*
X122556459Y-80138459D01*
X123267492Y-80138460D02*
G75*
G02*
X123383954Y-80203956I-69592J-260040D01*
G01*
%TO.N,/A6*%
X113157000Y-68199000D02*
X116205000Y-71247000D01*
X111760000Y-66040000D02*
X113090045Y-67370045D01*
X113157000Y-67531689D02*
X113157000Y-68199000D01*
X113157007Y-67531689D02*
G75*
G03*
X113090045Y-67370045I-228607J-11D01*
G01*
%TO.N,/D5*%
X122555000Y-81407000D02*
X125857000Y-84709000D01*
X125857000Y-85217000D02*
X127000000Y-86360000D01*
X125857000Y-84709000D02*
X125857000Y-85217000D01*
%TO.N,/A7*%
X113842810Y-65677499D02*
X113842810Y-67614810D01*
X111760000Y-63500000D02*
X113775855Y-65515855D01*
X113842810Y-67614810D02*
X116205000Y-69977000D01*
X113842807Y-65677499D02*
G75*
G03*
X113775855Y-65515855I-228607J-1D01*
G01*
%TO.N,/D4*%
X125095000Y-85217000D02*
X125095000Y-86995000D01*
X125095000Y-86995000D02*
X127000000Y-88900000D01*
X122555000Y-82677000D02*
X125095000Y-85217000D01*
%TO.N,/A12*%
X111760000Y-60960000D02*
X114681000Y-63881000D01*
X114681000Y-67183000D02*
X116205000Y-68707000D01*
X114681000Y-63881000D02*
X114681000Y-67183000D01*
%TO.N,/CE2*%
X124706778Y-63500000D02*
X127000000Y-63500000D01*
X123825000Y-62618222D02*
X124706778Y-63500000D01*
%TO.N,/~{CE1}*%
X125868630Y-78740000D02*
X121984000Y-74855370D01*
X121984000Y-63056000D02*
X120777000Y-61849000D01*
X121984000Y-74855370D02*
X121984000Y-63056000D01*
X127000000Y-78740000D02*
X125868630Y-78740000D01*
%TO.N,/~{WE}*%
X124104400Y-67157600D02*
X124104400Y-63881000D01*
X126111000Y-61849000D02*
X124714000Y-61849000D01*
X122555000Y-68707000D02*
X124104400Y-67157600D01*
X127000000Y-60960000D02*
X126111000Y-61849000D01*
D16*
%TO.N,VCC*%
X127000000Y-58420000D02*
X125857000Y-58420000D01*
D15*
%TO.N,/BATT_FAKE*%
X121412000Y-90043000D02*
X121589800Y-89865200D01*
X120777000Y-88011000D02*
X120777000Y-90043000D01*
X120777000Y-90043000D02*
X121412000Y-90043000D01*
X121589800Y-89865200D02*
X122682000Y-89865200D01*
%TO.N,/~{CE_FM}*%
X121666000Y-63627000D02*
X121666000Y-76708000D01*
X120777000Y-62738000D02*
X121666000Y-63627000D01*
X121666000Y-76708000D02*
X122555000Y-77597000D01*
%TD*%
%TA.AperFunction,Conductor*%
%TO.N,/A8*%
G36*
X127279016Y-65760661D02*
G01*
X127282604Y-65769323D01*
X127279806Y-65912456D01*
X127263047Y-66769787D01*
X127262714Y-66786799D01*
X127259126Y-66795003D01*
X127253923Y-66797903D01*
X127221190Y-66806299D01*
X127163131Y-66821191D01*
X127128483Y-66830078D01*
X127126582Y-66830402D01*
X127005067Y-66840874D01*
X127003488Y-66840903D01*
X126890836Y-66835336D01*
X126889902Y-66835251D01*
X126783474Y-66821184D01*
X126783428Y-66821178D01*
X126703060Y-66809486D01*
X126681348Y-66806328D01*
X126681345Y-66806328D01*
X126681148Y-66806299D01*
X126581088Y-66798417D01*
X126580665Y-66798446D01*
X126580661Y-66798446D01*
X126481513Y-66805243D01*
X126480901Y-66805285D01*
X126480310Y-66805454D01*
X126394220Y-66830078D01*
X126378214Y-66834656D01*
X126270657Y-66894279D01*
X126221307Y-66936247D01*
X126164078Y-66984914D01*
X126155555Y-66987663D01*
X126148225Y-66984274D01*
X126055726Y-66891775D01*
X126052299Y-66883502D01*
X126055086Y-66875923D01*
X126145343Y-66769787D01*
X126145349Y-66769778D01*
X126145720Y-66769342D01*
X126205343Y-66661785D01*
X126234714Y-66559098D01*
X126241582Y-66458911D01*
X126233700Y-66358851D01*
X126218818Y-66256547D01*
X126204748Y-66150097D01*
X126204662Y-66149152D01*
X126199096Y-66036513D01*
X126199125Y-66034931D01*
X126209597Y-65913418D01*
X126209921Y-65911516D01*
X126242097Y-65786077D01*
X126247472Y-65778915D01*
X126253200Y-65777286D01*
X126673677Y-65769066D01*
X127270677Y-65757396D01*
X127279016Y-65760661D01*
G37*
%TD.AperFunction*%
%TD*%
%TA.AperFunction,Conductor*%
%TO.N,/~{CE_FM}*%
G36*
X120908996Y-62621717D02*
G01*
X121092169Y-62625298D01*
X121100373Y-62628886D01*
X121103223Y-62633900D01*
X121115530Y-62678747D01*
X121115835Y-62680228D01*
X121122507Y-62728114D01*
X121122612Y-62729313D01*
X121124196Y-62773857D01*
X121124200Y-62774508D01*
X121123294Y-62816854D01*
X121122568Y-62857738D01*
X121124743Y-62897823D01*
X121132536Y-62938100D01*
X121148663Y-62979563D01*
X121175837Y-63023203D01*
X121202045Y-63053169D01*
X121209573Y-63061777D01*
X121212440Y-63070260D01*
X121209039Y-63077752D01*
X121116752Y-63170039D01*
X121108479Y-63173466D01*
X121100777Y-63170573D01*
X121096665Y-63166977D01*
X121062203Y-63136837D01*
X121061802Y-63136587D01*
X121019031Y-63109954D01*
X121019028Y-63109952D01*
X121018563Y-63109663D01*
X120977100Y-63093536D01*
X120936823Y-63085743D01*
X120936433Y-63085722D01*
X120936426Y-63085721D01*
X120896941Y-63083579D01*
X120896738Y-63083568D01*
X120855854Y-63084294D01*
X120813508Y-63085200D01*
X120812870Y-63085196D01*
X120786417Y-63084256D01*
X120768313Y-63083612D01*
X120767114Y-63083507D01*
X120747052Y-63080712D01*
X120719223Y-63076834D01*
X120717752Y-63076531D01*
X120672899Y-63064222D01*
X120665828Y-63058729D01*
X120664298Y-63053169D01*
X120663705Y-63022802D01*
X120659679Y-62816882D01*
X120656005Y-62628932D01*
X120659270Y-62620593D01*
X120667932Y-62617005D01*
X120908996Y-62621717D01*
G37*
%TD.AperFunction*%
%TD*%
%TA.AperFunction,Conductor*%
%TO.N,/D2*%
G36*
X112611775Y-87955726D02*
G01*
X112704274Y-88048225D01*
X112707701Y-88056498D01*
X112704914Y-88064078D01*
X112669668Y-88105525D01*
X112614279Y-88170657D01*
X112554656Y-88278214D01*
X112525285Y-88380901D01*
X112518417Y-88481088D01*
X112526299Y-88581148D01*
X112526328Y-88581345D01*
X112526328Y-88581348D01*
X112541170Y-88683374D01*
X112541191Y-88683525D01*
X112555250Y-88789891D01*
X112555337Y-88790847D01*
X112560903Y-88903486D01*
X112560874Y-88905068D01*
X112550402Y-89026581D01*
X112550078Y-89028483D01*
X112517903Y-89153923D01*
X112512528Y-89161085D01*
X112506800Y-89162714D01*
X112086323Y-89170934D01*
X111489323Y-89182604D01*
X111480984Y-89179339D01*
X111477396Y-89170677D01*
X111494842Y-88278214D01*
X111497286Y-88153201D01*
X111500874Y-88144997D01*
X111506077Y-88142097D01*
X111631516Y-88109921D01*
X111633417Y-88109597D01*
X111754932Y-88099125D01*
X111756511Y-88099096D01*
X111869163Y-88104663D01*
X111870097Y-88104748D01*
X111976525Y-88118815D01*
X111976571Y-88118821D01*
X112056939Y-88130513D01*
X112078651Y-88133671D01*
X112078654Y-88133671D01*
X112078851Y-88133700D01*
X112178911Y-88141582D01*
X112179334Y-88141553D01*
X112179338Y-88141553D01*
X112278486Y-88134756D01*
X112279098Y-88134714D01*
X112334709Y-88118808D01*
X112381149Y-88105525D01*
X112381150Y-88105525D01*
X112381785Y-88105343D01*
X112489342Y-88045720D01*
X112489778Y-88045349D01*
X112489787Y-88045343D01*
X112595923Y-87955086D01*
X112604445Y-87952337D01*
X112611775Y-87955726D01*
G37*
%TD.AperFunction*%
%TD*%
%TA.AperFunction,Conductor*%
%TO.N,/D2*%
G36*
X116322407Y-82559270D02*
G01*
X116325995Y-82567932D01*
X116321526Y-82796530D01*
X116318296Y-82961802D01*
X116317702Y-82992169D01*
X116314114Y-83000373D01*
X116309101Y-83003222D01*
X116264247Y-83015531D01*
X116262776Y-83015834D01*
X116234947Y-83019712D01*
X116214885Y-83022507D01*
X116213686Y-83022612D01*
X116195582Y-83023256D01*
X116169129Y-83024196D01*
X116168491Y-83024200D01*
X116126145Y-83023294D01*
X116085261Y-83022568D01*
X116085058Y-83022579D01*
X116045573Y-83024721D01*
X116045566Y-83024722D01*
X116045176Y-83024743D01*
X116004899Y-83032536D01*
X115963436Y-83048663D01*
X115962971Y-83048952D01*
X115962968Y-83048954D01*
X115920194Y-83075589D01*
X115919796Y-83075837D01*
X115919448Y-83076141D01*
X115919439Y-83076148D01*
X115881222Y-83109572D01*
X115872739Y-83112439D01*
X115865247Y-83109038D01*
X115772961Y-83016752D01*
X115769534Y-83008479D01*
X115772427Y-83000777D01*
X115781754Y-82990112D01*
X115806162Y-82962203D01*
X115833336Y-82918563D01*
X115849463Y-82877100D01*
X115857256Y-82836823D01*
X115859431Y-82796738D01*
X115858705Y-82755854D01*
X115857799Y-82713508D01*
X115857803Y-82712857D01*
X115859387Y-82668313D01*
X115859492Y-82667114D01*
X115866164Y-82619228D01*
X115866467Y-82617755D01*
X115878778Y-82572898D01*
X115884271Y-82565828D01*
X115889830Y-82564298D01*
X116073004Y-82560717D01*
X116314068Y-82556005D01*
X116322407Y-82559270D01*
G37*
%TD.AperFunction*%
%TD*%
%TA.AperFunction,Conductor*%
%TO.N,/D1*%
G36*
X116322407Y-81289270D02*
G01*
X116325995Y-81297932D01*
X116321526Y-81526530D01*
X116318296Y-81691802D01*
X116317702Y-81722169D01*
X116314114Y-81730373D01*
X116309101Y-81733222D01*
X116264247Y-81745531D01*
X116262776Y-81745834D01*
X116234947Y-81749712D01*
X116214885Y-81752507D01*
X116213686Y-81752612D01*
X116195582Y-81753256D01*
X116169129Y-81754196D01*
X116168491Y-81754200D01*
X116126145Y-81753294D01*
X116085261Y-81752568D01*
X116085058Y-81752579D01*
X116045573Y-81754721D01*
X116045566Y-81754722D01*
X116045176Y-81754743D01*
X116004899Y-81762536D01*
X115963436Y-81778663D01*
X115962971Y-81778952D01*
X115962968Y-81778954D01*
X115920194Y-81805589D01*
X115919796Y-81805837D01*
X115919448Y-81806141D01*
X115919439Y-81806148D01*
X115881222Y-81839572D01*
X115872739Y-81842439D01*
X115865247Y-81839038D01*
X115772961Y-81746752D01*
X115769534Y-81738479D01*
X115772427Y-81730777D01*
X115781754Y-81720112D01*
X115806162Y-81692203D01*
X115833336Y-81648563D01*
X115849463Y-81607100D01*
X115857256Y-81566823D01*
X115859431Y-81526738D01*
X115858705Y-81485854D01*
X115857799Y-81443508D01*
X115857803Y-81442857D01*
X115859387Y-81398313D01*
X115859492Y-81397114D01*
X115866164Y-81349228D01*
X115866467Y-81347755D01*
X115878778Y-81302898D01*
X115884271Y-81295828D01*
X115889830Y-81294298D01*
X116073004Y-81290717D01*
X116314068Y-81286005D01*
X116322407Y-81289270D01*
G37*
%TD.AperFunction*%
%TD*%
%TA.AperFunction,Conductor*%
%TO.N,/D1*%
G36*
X112611775Y-85415726D02*
G01*
X112704274Y-85508225D01*
X112707701Y-85516498D01*
X112704914Y-85524078D01*
X112669668Y-85565525D01*
X112614279Y-85630657D01*
X112554656Y-85738214D01*
X112525285Y-85840901D01*
X112518417Y-85941088D01*
X112526299Y-86041148D01*
X112526328Y-86041345D01*
X112526328Y-86041348D01*
X112541170Y-86143374D01*
X112541191Y-86143525D01*
X112555250Y-86249891D01*
X112555337Y-86250847D01*
X112560903Y-86363486D01*
X112560874Y-86365068D01*
X112550402Y-86486581D01*
X112550078Y-86488483D01*
X112517903Y-86613923D01*
X112512528Y-86621085D01*
X112506800Y-86622714D01*
X112086323Y-86630934D01*
X111489323Y-86642604D01*
X111480984Y-86639339D01*
X111477396Y-86630677D01*
X111494842Y-85738214D01*
X111497286Y-85613201D01*
X111500874Y-85604997D01*
X111506077Y-85602097D01*
X111631516Y-85569921D01*
X111633417Y-85569597D01*
X111754932Y-85559125D01*
X111756511Y-85559096D01*
X111869163Y-85564663D01*
X111870097Y-85564748D01*
X111976525Y-85578815D01*
X111976571Y-85578821D01*
X112056939Y-85590513D01*
X112078651Y-85593671D01*
X112078654Y-85593671D01*
X112078851Y-85593700D01*
X112178911Y-85601582D01*
X112179334Y-85601553D01*
X112179338Y-85601553D01*
X112278486Y-85594756D01*
X112279098Y-85594714D01*
X112334709Y-85578808D01*
X112381149Y-85565525D01*
X112381150Y-85565525D01*
X112381785Y-85565343D01*
X112489342Y-85505720D01*
X112489778Y-85505349D01*
X112489787Y-85505343D01*
X112595923Y-85415086D01*
X112604445Y-85412337D01*
X112611775Y-85415726D01*
G37*
%TD.AperFunction*%
%TD*%
%TA.AperFunction,Conductor*%
%TO.N,/A8*%
G36*
X122712063Y-70942715D02*
G01*
X122752480Y-70965726D01*
X122753743Y-70966558D01*
X122769966Y-70978812D01*
X122792331Y-70995707D01*
X122793237Y-70996468D01*
X122810202Y-71012266D01*
X122825856Y-71026846D01*
X122826330Y-71027314D01*
X122855625Y-71057890D01*
X122884021Y-71087313D01*
X122884173Y-71087449D01*
X122884184Y-71087460D01*
X122899890Y-71101548D01*
X122913904Y-71114119D01*
X122947895Y-71137089D01*
X122988617Y-71155005D01*
X122989143Y-71155127D01*
X122989145Y-71155128D01*
X123008856Y-71159711D01*
X123038691Y-71166648D01*
X123039162Y-71166679D01*
X123039165Y-71166680D01*
X123061548Y-71168177D01*
X123089822Y-71170069D01*
X123097847Y-71174041D01*
X123100740Y-71181743D01*
X123100740Y-71312256D01*
X123097313Y-71320529D01*
X123089821Y-71323930D01*
X123039165Y-71327319D01*
X123039161Y-71327320D01*
X123038691Y-71327351D01*
X123008856Y-71334288D01*
X122989145Y-71338871D01*
X122989143Y-71338872D01*
X122988617Y-71338994D01*
X122947895Y-71356910D01*
X122913904Y-71379880D01*
X122899890Y-71392451D01*
X122884184Y-71406539D01*
X122884173Y-71406550D01*
X122884021Y-71406686D01*
X122855625Y-71436109D01*
X122826330Y-71466685D01*
X122825856Y-71467153D01*
X122810202Y-71481733D01*
X122793237Y-71497531D01*
X122792331Y-71498292D01*
X122753738Y-71527446D01*
X122752486Y-71528270D01*
X122712062Y-71551285D01*
X122703178Y-71552400D01*
X122698164Y-71549550D01*
X122675175Y-71527442D01*
X122392319Y-71255433D01*
X122388731Y-71247229D01*
X122392319Y-71238567D01*
X122459418Y-71174041D01*
X122698165Y-70944450D01*
X122706503Y-70941185D01*
X122712063Y-70942715D01*
G37*
%TD.AperFunction*%
%TD*%
%TA.AperFunction,Conductor*%
%TO.N,/A11*%
G36*
X126441950Y-70558787D02*
G01*
X127100341Y-70944464D01*
X127386662Y-71112187D01*
X127392068Y-71119325D01*
X127390843Y-71128196D01*
X127388859Y-71130714D01*
X126726748Y-71767435D01*
X126657986Y-71833560D01*
X126649647Y-71836825D01*
X126643499Y-71834936D01*
X126641383Y-71833560D01*
X126619118Y-71819086D01*
X126539666Y-71767435D01*
X126537833Y-71765962D01*
X126442544Y-71672110D01*
X126441548Y-71670995D01*
X126357897Y-71564341D01*
X126357457Y-71563742D01*
X126282008Y-71453841D01*
X126281997Y-71453825D01*
X126211404Y-71350629D01*
X126142222Y-71264075D01*
X126141786Y-71263707D01*
X126071714Y-71204590D01*
X126071712Y-71204589D01*
X126070828Y-71203843D01*
X126069723Y-71203496D01*
X126069721Y-71203495D01*
X125995123Y-71180076D01*
X125993591Y-71179595D01*
X125992031Y-71179980D01*
X125908058Y-71200703D01*
X125908056Y-71200704D01*
X125906877Y-71200995D01*
X125905912Y-71201736D01*
X125905913Y-71201736D01*
X125815196Y-71271450D01*
X125806548Y-71273774D01*
X125799794Y-71270446D01*
X125707716Y-71178368D01*
X125704289Y-71170095D01*
X125707866Y-71161675D01*
X125793923Y-71078651D01*
X125794265Y-71078333D01*
X125824678Y-71051250D01*
X125876789Y-71004846D01*
X125877126Y-71004558D01*
X125950395Y-70944600D01*
X125950738Y-70944330D01*
X126017505Y-70893729D01*
X126017732Y-70893561D01*
X126080854Y-70848079D01*
X126080856Y-70848082D01*
X126080886Y-70848056D01*
X126142931Y-70803664D01*
X126142989Y-70803622D01*
X126206556Y-70756261D01*
X126206650Y-70756191D01*
X126206746Y-70756114D01*
X126274519Y-70701671D01*
X126274530Y-70701662D01*
X126274633Y-70701579D01*
X126296875Y-70682028D01*
X126349532Y-70635744D01*
X126349546Y-70635731D01*
X126349619Y-70635667D01*
X126349685Y-70635603D01*
X126349702Y-70635588D01*
X126427933Y-70560445D01*
X126436274Y-70557185D01*
X126441950Y-70558787D01*
G37*
%TD.AperFunction*%
%TD*%
%TA.AperFunction,Conductor*%
%TO.N,/D0*%
G36*
X116060542Y-79835063D02*
G01*
X116367642Y-80127872D01*
X116371265Y-80136061D01*
X116367714Y-80144739D01*
X116291249Y-80218903D01*
X116084919Y-80419025D01*
X116063126Y-80440162D01*
X116054801Y-80443462D01*
X116049240Y-80441958D01*
X116008511Y-80419025D01*
X116007251Y-80418205D01*
X115989421Y-80404893D01*
X115968352Y-80389161D01*
X115967444Y-80388408D01*
X115934541Y-80358137D01*
X115934070Y-80357678D01*
X115904504Y-80327206D01*
X115904489Y-80327191D01*
X115904460Y-80327161D01*
X115875986Y-80298021D01*
X115875983Y-80298018D01*
X115875849Y-80297881D01*
X115845712Y-80271163D01*
X115811465Y-80248266D01*
X115810987Y-80248058D01*
X115810984Y-80248056D01*
X115789549Y-80238715D01*
X115770483Y-80230406D01*
X115769967Y-80230287D01*
X115769964Y-80230286D01*
X115744780Y-80224480D01*
X115720137Y-80218798D01*
X115711693Y-80218237D01*
X115668726Y-80215384D01*
X115660698Y-80211417D01*
X115657801Y-80203710D01*
X115657801Y-80073203D01*
X115661228Y-80064930D01*
X115668721Y-80061529D01*
X115719923Y-80058107D01*
X115720373Y-80058002D01*
X115720376Y-80058002D01*
X115769524Y-80046587D01*
X115769526Y-80046586D01*
X115770057Y-80046463D01*
X115810825Y-80028536D01*
X115822726Y-80020493D01*
X115844514Y-80005769D01*
X115844520Y-80005765D01*
X115844849Y-80005542D01*
X115874752Y-79978691D01*
X115903155Y-79949196D01*
X115932465Y-79918496D01*
X115932906Y-79918059D01*
X115965521Y-79887529D01*
X115966434Y-79886759D01*
X116004991Y-79857431D01*
X116006245Y-79856599D01*
X116046639Y-79833387D01*
X116055519Y-79832236D01*
X116060542Y-79835063D01*
G37*
%TD.AperFunction*%
%TD*%
%TA.AperFunction,Conductor*%
%TO.N,/D0*%
G36*
X112611775Y-82875726D02*
G01*
X112704274Y-82968225D01*
X112707701Y-82976498D01*
X112704914Y-82984078D01*
X112669668Y-83025525D01*
X112614279Y-83090657D01*
X112554656Y-83198214D01*
X112525285Y-83300901D01*
X112518417Y-83401088D01*
X112526299Y-83501148D01*
X112526328Y-83501345D01*
X112526328Y-83501348D01*
X112541170Y-83603374D01*
X112541191Y-83603525D01*
X112555250Y-83709891D01*
X112555337Y-83710847D01*
X112560903Y-83823486D01*
X112560874Y-83825068D01*
X112550402Y-83946581D01*
X112550078Y-83948483D01*
X112517903Y-84073923D01*
X112512528Y-84081085D01*
X112506800Y-84082714D01*
X112086323Y-84090934D01*
X111489323Y-84102604D01*
X111480984Y-84099339D01*
X111477396Y-84090677D01*
X111494842Y-83198214D01*
X111497286Y-83073201D01*
X111500874Y-83064997D01*
X111506077Y-83062097D01*
X111631516Y-83029921D01*
X111633417Y-83029597D01*
X111754932Y-83019125D01*
X111756511Y-83019096D01*
X111869163Y-83024663D01*
X111870097Y-83024748D01*
X111976525Y-83038815D01*
X111976571Y-83038821D01*
X112056939Y-83050513D01*
X112078651Y-83053671D01*
X112078654Y-83053671D01*
X112078851Y-83053700D01*
X112178911Y-83061582D01*
X112179334Y-83061553D01*
X112179338Y-83061553D01*
X112278486Y-83054756D01*
X112279098Y-83054714D01*
X112334709Y-83038808D01*
X112381149Y-83025525D01*
X112381150Y-83025525D01*
X112381785Y-83025343D01*
X112489342Y-82965720D01*
X112489778Y-82965349D01*
X112489787Y-82965343D01*
X112595923Y-82875086D01*
X112604445Y-82872337D01*
X112611775Y-82875726D01*
G37*
%TD.AperFunction*%
%TD*%
%TA.AperFunction,Conductor*%
%TO.N,/A9*%
G36*
X127279016Y-68300661D02*
G01*
X127282604Y-68309323D01*
X127279806Y-68452456D01*
X127263047Y-69309787D01*
X127262714Y-69326799D01*
X127259126Y-69335003D01*
X127253923Y-69337903D01*
X127221190Y-69346299D01*
X127163131Y-69361191D01*
X127128483Y-69370078D01*
X127126582Y-69370402D01*
X127005067Y-69380874D01*
X127003488Y-69380903D01*
X126890836Y-69375336D01*
X126889902Y-69375251D01*
X126783474Y-69361184D01*
X126783428Y-69361178D01*
X126703060Y-69349486D01*
X126681348Y-69346328D01*
X126681345Y-69346328D01*
X126681148Y-69346299D01*
X126581088Y-69338417D01*
X126580665Y-69338446D01*
X126580661Y-69338446D01*
X126481513Y-69345243D01*
X126480901Y-69345285D01*
X126480310Y-69345454D01*
X126394220Y-69370078D01*
X126378214Y-69374656D01*
X126270657Y-69434279D01*
X126221307Y-69476247D01*
X126164078Y-69524914D01*
X126155555Y-69527663D01*
X126148225Y-69524274D01*
X126055726Y-69431775D01*
X126052299Y-69423502D01*
X126055086Y-69415923D01*
X126145343Y-69309787D01*
X126145349Y-69309778D01*
X126145720Y-69309342D01*
X126205343Y-69201785D01*
X126234714Y-69099098D01*
X126241582Y-68998911D01*
X126233700Y-68898851D01*
X126218818Y-68796547D01*
X126204748Y-68690097D01*
X126204662Y-68689152D01*
X126199096Y-68576513D01*
X126199125Y-68574931D01*
X126209597Y-68453418D01*
X126209921Y-68451516D01*
X126242097Y-68326077D01*
X126247472Y-68318915D01*
X126253200Y-68317286D01*
X126673677Y-68309066D01*
X127270677Y-68297396D01*
X127279016Y-68300661D01*
G37*
%TD.AperFunction*%
%TD*%
%TA.AperFunction,Conductor*%
%TO.N,/A9*%
G36*
X122712256Y-72213456D02*
G01*
X122747612Y-72236448D01*
X122749427Y-72237903D01*
X122786286Y-72274057D01*
X122787259Y-72275139D01*
X122820231Y-72316703D01*
X122820633Y-72317241D01*
X122850900Y-72360486D01*
X122879519Y-72401246D01*
X122907670Y-72435417D01*
X122936717Y-72459156D01*
X122968025Y-72468621D01*
X122969555Y-72468242D01*
X122969556Y-72468242D01*
X123001785Y-72460260D01*
X123002956Y-72459970D01*
X123003912Y-72459237D01*
X123003914Y-72459236D01*
X123034737Y-72435603D01*
X123043388Y-72433289D01*
X123050129Y-72436615D01*
X123141982Y-72528468D01*
X123145409Y-72536741D01*
X123141599Y-72545379D01*
X123129355Y-72556562D01*
X123108802Y-72575333D01*
X123107893Y-72576083D01*
X123070079Y-72604201D01*
X123069066Y-72604875D01*
X123034044Y-72625644D01*
X123033107Y-72626144D01*
X122999910Y-72641956D01*
X122999293Y-72642228D01*
X122966937Y-72655409D01*
X122934834Y-72668150D01*
X122934702Y-72668209D01*
X122934693Y-72668213D01*
X122906491Y-72680863D01*
X122902567Y-72682623D01*
X122885581Y-72692104D01*
X122869698Y-72700969D01*
X122869692Y-72700973D01*
X122869405Y-72701133D01*
X122834615Y-72725979D01*
X122834368Y-72726202D01*
X122803826Y-72753733D01*
X122795386Y-72756727D01*
X122790078Y-72755138D01*
X122396888Y-72524813D01*
X122391482Y-72517675D01*
X122392707Y-72508804D01*
X122394692Y-72506285D01*
X122442553Y-72460260D01*
X122697768Y-72214831D01*
X122706107Y-72211566D01*
X122712256Y-72213456D01*
G37*
%TD.AperFunction*%
%TD*%
%TA.AperFunction,Conductor*%
%TO.N,/A11*%
G36*
X122712063Y-73482715D02*
G01*
X122752480Y-73505726D01*
X122753743Y-73506558D01*
X122769966Y-73518812D01*
X122792331Y-73535707D01*
X122793237Y-73536468D01*
X122810202Y-73552266D01*
X122825856Y-73566846D01*
X122826330Y-73567314D01*
X122855625Y-73597890D01*
X122884021Y-73627313D01*
X122884173Y-73627449D01*
X122884184Y-73627460D01*
X122899890Y-73641548D01*
X122913904Y-73654119D01*
X122947895Y-73677089D01*
X122988617Y-73695005D01*
X122989143Y-73695127D01*
X122989145Y-73695128D01*
X123008856Y-73699711D01*
X123038691Y-73706648D01*
X123039162Y-73706679D01*
X123039165Y-73706680D01*
X123061548Y-73708177D01*
X123089822Y-73710069D01*
X123097847Y-73714041D01*
X123100740Y-73721743D01*
X123100740Y-73852256D01*
X123097313Y-73860529D01*
X123089821Y-73863930D01*
X123039165Y-73867319D01*
X123039161Y-73867320D01*
X123038691Y-73867351D01*
X123008856Y-73874288D01*
X122989145Y-73878871D01*
X122989143Y-73878872D01*
X122988617Y-73878994D01*
X122947895Y-73896910D01*
X122913904Y-73919880D01*
X122899890Y-73932451D01*
X122884184Y-73946539D01*
X122884173Y-73946550D01*
X122884021Y-73946686D01*
X122855625Y-73976109D01*
X122826330Y-74006685D01*
X122825856Y-74007153D01*
X122810202Y-74021733D01*
X122793237Y-74037531D01*
X122792331Y-74038292D01*
X122753738Y-74067446D01*
X122752486Y-74068270D01*
X122712062Y-74091285D01*
X122703178Y-74092400D01*
X122698164Y-74089550D01*
X122675175Y-74067442D01*
X122392319Y-73795433D01*
X122388731Y-73787229D01*
X122392319Y-73778567D01*
X122459418Y-73714041D01*
X122698165Y-73484450D01*
X122706503Y-73481185D01*
X122712063Y-73482715D01*
G37*
%TD.AperFunction*%
%TD*%
%TA.AperFunction,Conductor*%
%TO.N,/~{CE_FM}*%
G36*
X122231223Y-77164427D02*
G01*
X122269796Y-77198162D01*
X122270194Y-77198410D01*
X122270197Y-77198412D01*
X122312968Y-77225045D01*
X122312971Y-77225047D01*
X122313436Y-77225336D01*
X122354899Y-77241463D01*
X122395176Y-77249256D01*
X122395566Y-77249277D01*
X122395573Y-77249278D01*
X122434450Y-77251387D01*
X122435261Y-77251431D01*
X122476145Y-77250705D01*
X122518491Y-77249799D01*
X122519129Y-77249803D01*
X122544507Y-77250705D01*
X122563686Y-77251387D01*
X122564885Y-77251492D01*
X122584947Y-77254287D01*
X122612776Y-77258165D01*
X122614247Y-77258468D01*
X122659100Y-77270777D01*
X122666172Y-77276271D01*
X122667702Y-77281830D01*
X122669132Y-77354968D01*
X122675995Y-77706068D01*
X122672730Y-77714407D01*
X122664068Y-77717995D01*
X122423004Y-77713283D01*
X122239831Y-77709702D01*
X122231627Y-77706114D01*
X122228777Y-77701100D01*
X122216469Y-77656252D01*
X122216164Y-77654771D01*
X122209492Y-77606885D01*
X122209387Y-77605686D01*
X122207803Y-77561142D01*
X122207799Y-77560476D01*
X122208705Y-77518145D01*
X122208705Y-77518117D01*
X122208706Y-77518075D01*
X122209427Y-77477469D01*
X122209431Y-77477261D01*
X122207256Y-77437176D01*
X122199463Y-77396899D01*
X122183336Y-77355436D01*
X122156162Y-77311796D01*
X122122427Y-77273223D01*
X122119560Y-77264740D01*
X122122961Y-77257248D01*
X122215248Y-77164961D01*
X122223521Y-77161534D01*
X122231223Y-77164427D01*
G37*
%TD.AperFunction*%
%TD*%
%TA.AperFunction,Conductor*%
%TO.N,/A4*%
G36*
X112332067Y-70560445D02*
G01*
X112410297Y-70635588D01*
X112410314Y-70635603D01*
X112410380Y-70635667D01*
X112410453Y-70635731D01*
X112410467Y-70635744D01*
X112463124Y-70682028D01*
X112485366Y-70701579D01*
X112485469Y-70701662D01*
X112485480Y-70701671D01*
X112553253Y-70756114D01*
X112553349Y-70756191D01*
X112553443Y-70756261D01*
X112617010Y-70803622D01*
X112617068Y-70803664D01*
X112679113Y-70848056D01*
X112679136Y-70848092D01*
X112679145Y-70848079D01*
X112742267Y-70893561D01*
X112742494Y-70893729D01*
X112809261Y-70944330D01*
X112809604Y-70944600D01*
X112882873Y-71004558D01*
X112883210Y-71004846D01*
X112935321Y-71051250D01*
X112965734Y-71078333D01*
X112966076Y-71078651D01*
X113052134Y-71161675D01*
X113055709Y-71169885D01*
X113052284Y-71178368D01*
X112960206Y-71270446D01*
X112951933Y-71273873D01*
X112944804Y-71271450D01*
X112854086Y-71201736D01*
X112854087Y-71201736D01*
X112853122Y-71200995D01*
X112851943Y-71200704D01*
X112851941Y-71200703D01*
X112767968Y-71179980D01*
X112766408Y-71179595D01*
X112764876Y-71180076D01*
X112690278Y-71203495D01*
X112690276Y-71203496D01*
X112689171Y-71203843D01*
X112688287Y-71204589D01*
X112688285Y-71204590D01*
X112618213Y-71263707D01*
X112617777Y-71264075D01*
X112617419Y-71264523D01*
X112617418Y-71264524D01*
X112609946Y-71273873D01*
X112548595Y-71350629D01*
X112478002Y-71453825D01*
X112477991Y-71453841D01*
X112402542Y-71563742D01*
X112402102Y-71564341D01*
X112318451Y-71670995D01*
X112317455Y-71672110D01*
X112222166Y-71765962D01*
X112220333Y-71767435D01*
X112145462Y-71816108D01*
X112118618Y-71833560D01*
X112116501Y-71834936D01*
X112107697Y-71836573D01*
X112102014Y-71833560D01*
X112033252Y-71767435D01*
X111371142Y-71130715D01*
X111367554Y-71122511D01*
X111370819Y-71114172D01*
X111373338Y-71112187D01*
X111659659Y-70944464D01*
X112318049Y-70558788D01*
X112326919Y-70557563D01*
X112332067Y-70560445D01*
G37*
%TD.AperFunction*%
%TD*%
%TA.AperFunction,Conductor*%
%TO.N,/A4*%
G36*
X116061835Y-73484450D02*
G01*
X116299988Y-73713470D01*
X116367681Y-73778567D01*
X116371269Y-73786771D01*
X116367681Y-73795433D01*
X116084826Y-74067442D01*
X116061836Y-74089550D01*
X116053497Y-74092815D01*
X116047937Y-74091285D01*
X116044890Y-74089550D01*
X116007513Y-74068270D01*
X116006261Y-74067446D01*
X115967668Y-74038292D01*
X115966762Y-74037531D01*
X115949797Y-74021733D01*
X115934143Y-74007153D01*
X115933669Y-74006685D01*
X115904374Y-73976109D01*
X115875978Y-73946686D01*
X115875826Y-73946550D01*
X115875815Y-73946539D01*
X115860109Y-73932451D01*
X115846095Y-73919880D01*
X115812104Y-73896910D01*
X115771382Y-73878994D01*
X115770856Y-73878872D01*
X115770854Y-73878871D01*
X115751143Y-73874288D01*
X115721308Y-73867351D01*
X115720838Y-73867320D01*
X115720834Y-73867319D01*
X115670179Y-73863930D01*
X115662153Y-73859958D01*
X115659260Y-73852256D01*
X115659260Y-73721743D01*
X115662687Y-73713470D01*
X115670178Y-73710069D01*
X115698054Y-73708204D01*
X115720834Y-73706680D01*
X115720837Y-73706679D01*
X115721308Y-73706648D01*
X115751143Y-73699711D01*
X115770854Y-73695128D01*
X115770856Y-73695127D01*
X115771382Y-73695005D01*
X115812104Y-73677089D01*
X115846095Y-73654119D01*
X115860109Y-73641548D01*
X115875815Y-73627460D01*
X115875826Y-73627449D01*
X115875978Y-73627313D01*
X115904374Y-73597890D01*
X115933669Y-73567314D01*
X115934143Y-73566846D01*
X115949797Y-73552266D01*
X115966762Y-73536468D01*
X115967668Y-73535707D01*
X115990033Y-73518812D01*
X116006256Y-73506558D01*
X116007519Y-73505726D01*
X116047937Y-73482715D01*
X116056822Y-73481600D01*
X116061835Y-73484450D01*
G37*
%TD.AperFunction*%
%TD*%
%TA.AperFunction,Conductor*%
%TO.N,/A5*%
G36*
X116062232Y-72214831D02*
G01*
X116317448Y-72460260D01*
X116365308Y-72506285D01*
X116368896Y-72514489D01*
X116365631Y-72522828D01*
X116363112Y-72524813D01*
X115969922Y-72755138D01*
X115961051Y-72756363D01*
X115956176Y-72753735D01*
X115925384Y-72725979D01*
X115890594Y-72701133D01*
X115890307Y-72700973D01*
X115890301Y-72700969D01*
X115874418Y-72692104D01*
X115857432Y-72682623D01*
X115853508Y-72680863D01*
X115825306Y-72668213D01*
X115825297Y-72668209D01*
X115825165Y-72668150D01*
X115793062Y-72655409D01*
X115760706Y-72642228D01*
X115760089Y-72641956D01*
X115726892Y-72626144D01*
X115725955Y-72625644D01*
X115690933Y-72604875D01*
X115689920Y-72604201D01*
X115652106Y-72576083D01*
X115651197Y-72575333D01*
X115618401Y-72545380D01*
X115614603Y-72537271D01*
X115618018Y-72528468D01*
X115709871Y-72436615D01*
X115718144Y-72433188D01*
X115725263Y-72435603D01*
X115756085Y-72459236D01*
X115756087Y-72459237D01*
X115757043Y-72459970D01*
X115758214Y-72460260D01*
X115790443Y-72468242D01*
X115790444Y-72468242D01*
X115791974Y-72468621D01*
X115823282Y-72459156D01*
X115852329Y-72435417D01*
X115880480Y-72401246D01*
X115909099Y-72360486D01*
X115939366Y-72317241D01*
X115939768Y-72316703D01*
X115972740Y-72275139D01*
X115973713Y-72274057D01*
X116010572Y-72237903D01*
X116012380Y-72236453D01*
X116047746Y-72213455D01*
X116056548Y-72211818D01*
X116062232Y-72214831D01*
G37*
%TD.AperFunction*%
%TD*%
%TA.AperFunction,Conductor*%
%TO.N,/A5*%
G36*
X112086323Y-68309066D02*
G01*
X112506799Y-68317286D01*
X112515003Y-68320874D01*
X112517903Y-68326077D01*
X112550078Y-68451516D01*
X112550402Y-68453418D01*
X112560874Y-68574931D01*
X112560903Y-68576513D01*
X112555337Y-68689152D01*
X112555251Y-68690097D01*
X112541181Y-68796547D01*
X112526299Y-68898851D01*
X112518417Y-68998911D01*
X112525285Y-69099098D01*
X112554656Y-69201785D01*
X112614279Y-69309342D01*
X112644809Y-69345243D01*
X112704914Y-69415922D01*
X112707663Y-69424445D01*
X112704274Y-69431775D01*
X112611775Y-69524274D01*
X112603502Y-69527701D01*
X112595922Y-69524914D01*
X112536854Y-69474683D01*
X112489342Y-69434279D01*
X112381785Y-69374656D01*
X112365780Y-69370078D01*
X112279689Y-69345454D01*
X112279098Y-69345285D01*
X112278486Y-69345243D01*
X112179338Y-69338446D01*
X112179334Y-69338446D01*
X112178911Y-69338417D01*
X112078851Y-69346299D01*
X112078654Y-69346328D01*
X112078651Y-69346328D01*
X112056939Y-69349486D01*
X111976571Y-69361178D01*
X111976525Y-69361184D01*
X111870097Y-69375251D01*
X111869163Y-69375336D01*
X111756511Y-69380903D01*
X111754932Y-69380874D01*
X111633417Y-69370402D01*
X111631516Y-69370078D01*
X111506077Y-69337903D01*
X111498915Y-69332528D01*
X111497286Y-69326799D01*
X111494854Y-69202362D01*
X111480194Y-68452456D01*
X111477396Y-68309323D01*
X111480661Y-68300984D01*
X111489323Y-68297396D01*
X112086323Y-68309066D01*
G37*
%TD.AperFunction*%
%TD*%
%TA.AperFunction,Conductor*%
%TO.N,/D6*%
G36*
X126164078Y-82875086D02*
G01*
X126223453Y-82925578D01*
X126270657Y-82965720D01*
X126378214Y-83025343D01*
X126378849Y-83025525D01*
X126378850Y-83025525D01*
X126425290Y-83038808D01*
X126480901Y-83054714D01*
X126481513Y-83054756D01*
X126580661Y-83061553D01*
X126580665Y-83061553D01*
X126581088Y-83061582D01*
X126681148Y-83053700D01*
X126681345Y-83053671D01*
X126681348Y-83053671D01*
X126703060Y-83050513D01*
X126783428Y-83038821D01*
X126783474Y-83038815D01*
X126889902Y-83024748D01*
X126890836Y-83024663D01*
X127003488Y-83019096D01*
X127005067Y-83019125D01*
X127126582Y-83029597D01*
X127128483Y-83029921D01*
X127253923Y-83062097D01*
X127261085Y-83067472D01*
X127262714Y-83073200D01*
X127265158Y-83198214D01*
X127282604Y-84090677D01*
X127279339Y-84099016D01*
X127270677Y-84102604D01*
X126673677Y-84090934D01*
X126253201Y-84082714D01*
X126244997Y-84079126D01*
X126242097Y-84073923D01*
X126209921Y-83948483D01*
X126209597Y-83946581D01*
X126199125Y-83825068D01*
X126199096Y-83823486D01*
X126204662Y-83710847D01*
X126204749Y-83709891D01*
X126218808Y-83603525D01*
X126218829Y-83603374D01*
X126233671Y-83501348D01*
X126233671Y-83501345D01*
X126233700Y-83501148D01*
X126241582Y-83401088D01*
X126234714Y-83300901D01*
X126205343Y-83198214D01*
X126145720Y-83090657D01*
X126084889Y-83019125D01*
X126055086Y-82984078D01*
X126052337Y-82975555D01*
X126055726Y-82968225D01*
X126148225Y-82875726D01*
X126156498Y-82872299D01*
X126164078Y-82875086D01*
G37*
%TD.AperFunction*%
%TD*%
%TA.AperFunction,Conductor*%
%TO.N,/D6*%
G36*
X122713361Y-79833387D02*
G01*
X122753754Y-79856599D01*
X122755008Y-79857431D01*
X122793565Y-79886759D01*
X122794478Y-79887529D01*
X122827093Y-79918059D01*
X122827534Y-79918496D01*
X122856844Y-79949196D01*
X122885247Y-79978691D01*
X122915150Y-80005542D01*
X122915479Y-80005765D01*
X122915485Y-80005769D01*
X122937273Y-80020493D01*
X122949174Y-80028536D01*
X122989942Y-80046463D01*
X122990473Y-80046586D01*
X122990475Y-80046587D01*
X123039623Y-80058002D01*
X123039626Y-80058002D01*
X123040076Y-80058107D01*
X123091279Y-80061529D01*
X123099305Y-80065500D01*
X123102199Y-80073203D01*
X123102199Y-80203710D01*
X123098772Y-80211983D01*
X123091274Y-80215384D01*
X123041290Y-80218703D01*
X123039862Y-80218798D01*
X123015219Y-80224480D01*
X122990035Y-80230286D01*
X122990032Y-80230287D01*
X122989516Y-80230406D01*
X122970450Y-80238715D01*
X122949015Y-80248056D01*
X122949012Y-80248058D01*
X122948534Y-80248266D01*
X122914287Y-80271163D01*
X122884150Y-80297881D01*
X122884016Y-80298018D01*
X122884013Y-80298021D01*
X122855495Y-80327206D01*
X122825929Y-80357678D01*
X122825458Y-80358137D01*
X122792555Y-80388408D01*
X122791647Y-80389161D01*
X122770578Y-80404893D01*
X122752748Y-80418205D01*
X122751490Y-80419024D01*
X122710759Y-80441958D01*
X122701870Y-80443031D01*
X122696874Y-80440162D01*
X122675082Y-80419025D01*
X122468751Y-80218903D01*
X122392286Y-80144739D01*
X122388733Y-80136519D01*
X122392358Y-80127872D01*
X122699458Y-79835063D01*
X122707811Y-79831834D01*
X122713361Y-79833387D01*
G37*
%TD.AperFunction*%
%TD*%
%TA.AperFunction,Conductor*%
%TO.N,/A6*%
G36*
X115881223Y-70814427D02*
G01*
X115919796Y-70848162D01*
X115920194Y-70848410D01*
X115920197Y-70848412D01*
X115962968Y-70875045D01*
X115962971Y-70875047D01*
X115963436Y-70875336D01*
X116004899Y-70891463D01*
X116045176Y-70899256D01*
X116045566Y-70899277D01*
X116045573Y-70899278D01*
X116084450Y-70901387D01*
X116085261Y-70901431D01*
X116126145Y-70900705D01*
X116168491Y-70899799D01*
X116169129Y-70899803D01*
X116194507Y-70900705D01*
X116213686Y-70901387D01*
X116214885Y-70901492D01*
X116234947Y-70904287D01*
X116262776Y-70908165D01*
X116264247Y-70908468D01*
X116309100Y-70920777D01*
X116316172Y-70926271D01*
X116317702Y-70931830D01*
X116319132Y-71004968D01*
X116325995Y-71356068D01*
X116322730Y-71364407D01*
X116314068Y-71367995D01*
X116073004Y-71363283D01*
X115889831Y-71359702D01*
X115881627Y-71356114D01*
X115878777Y-71351100D01*
X115866469Y-71306252D01*
X115866164Y-71304771D01*
X115859492Y-71256885D01*
X115859387Y-71255686D01*
X115857803Y-71211142D01*
X115857799Y-71210476D01*
X115858705Y-71168145D01*
X115858705Y-71168117D01*
X115858706Y-71168075D01*
X115859427Y-71127469D01*
X115859431Y-71127261D01*
X115857256Y-71087176D01*
X115849463Y-71046899D01*
X115833336Y-71005436D01*
X115806162Y-70961796D01*
X115772427Y-70923223D01*
X115769560Y-70914740D01*
X115772961Y-70907248D01*
X115865248Y-70814961D01*
X115873521Y-70811534D01*
X115881223Y-70814427D01*
G37*
%TD.AperFunction*%
%TD*%
%TA.AperFunction,Conductor*%
%TO.N,/A6*%
G36*
X112086323Y-65769066D02*
G01*
X112506799Y-65777286D01*
X112515003Y-65780874D01*
X112517903Y-65786077D01*
X112550078Y-65911516D01*
X112550402Y-65913418D01*
X112560874Y-66034931D01*
X112560903Y-66036513D01*
X112555337Y-66149152D01*
X112555251Y-66150097D01*
X112541181Y-66256547D01*
X112526299Y-66358851D01*
X112518417Y-66458911D01*
X112525285Y-66559098D01*
X112554656Y-66661785D01*
X112614279Y-66769342D01*
X112644809Y-66805243D01*
X112704914Y-66875922D01*
X112707663Y-66884445D01*
X112704274Y-66891775D01*
X112611775Y-66984274D01*
X112603502Y-66987701D01*
X112595922Y-66984914D01*
X112536854Y-66934683D01*
X112489342Y-66894279D01*
X112381785Y-66834656D01*
X112365780Y-66830078D01*
X112279689Y-66805454D01*
X112279098Y-66805285D01*
X112278486Y-66805243D01*
X112179338Y-66798446D01*
X112179334Y-66798446D01*
X112178911Y-66798417D01*
X112078851Y-66806299D01*
X112078654Y-66806328D01*
X112078651Y-66806328D01*
X112056939Y-66809486D01*
X111976571Y-66821178D01*
X111976525Y-66821184D01*
X111870097Y-66835251D01*
X111869163Y-66835336D01*
X111756511Y-66840903D01*
X111754932Y-66840874D01*
X111633417Y-66830402D01*
X111631516Y-66830078D01*
X111506077Y-66797903D01*
X111498915Y-66792528D01*
X111497286Y-66786799D01*
X111494854Y-66662362D01*
X111480194Y-65912456D01*
X111477396Y-65769323D01*
X111480661Y-65760984D01*
X111489323Y-65757396D01*
X112086323Y-65769066D01*
G37*
%TD.AperFunction*%
%TD*%
%TA.AperFunction,Conductor*%
%TO.N,/D5*%
G36*
X122686996Y-81290717D02*
G01*
X122870169Y-81294298D01*
X122878373Y-81297886D01*
X122881223Y-81302900D01*
X122893530Y-81347747D01*
X122893835Y-81349228D01*
X122900507Y-81397114D01*
X122900612Y-81398313D01*
X122902196Y-81442857D01*
X122902200Y-81443508D01*
X122901294Y-81485854D01*
X122900568Y-81526738D01*
X122902743Y-81566823D01*
X122910536Y-81607100D01*
X122926663Y-81648563D01*
X122953837Y-81692203D01*
X122980045Y-81722169D01*
X122987573Y-81730777D01*
X122990440Y-81739260D01*
X122987039Y-81746752D01*
X122894752Y-81839039D01*
X122886479Y-81842466D01*
X122878777Y-81839573D01*
X122874665Y-81835977D01*
X122840203Y-81805837D01*
X122839802Y-81805587D01*
X122797031Y-81778954D01*
X122797028Y-81778952D01*
X122796563Y-81778663D01*
X122755100Y-81762536D01*
X122714823Y-81754743D01*
X122714433Y-81754722D01*
X122714426Y-81754721D01*
X122674941Y-81752579D01*
X122674738Y-81752568D01*
X122633854Y-81753294D01*
X122591508Y-81754200D01*
X122590870Y-81754196D01*
X122564417Y-81753256D01*
X122546313Y-81752612D01*
X122545114Y-81752507D01*
X122525052Y-81749712D01*
X122497223Y-81745834D01*
X122495752Y-81745531D01*
X122450899Y-81733222D01*
X122443828Y-81727729D01*
X122442298Y-81722169D01*
X122441705Y-81691802D01*
X122437679Y-81485882D01*
X122434005Y-81297932D01*
X122437270Y-81289593D01*
X122445932Y-81286005D01*
X122686996Y-81290717D01*
G37*
%TD.AperFunction*%
%TD*%
%TA.AperFunction,Conductor*%
%TO.N,/D5*%
G36*
X126164078Y-85415086D02*
G01*
X126223453Y-85465578D01*
X126270657Y-85505720D01*
X126378214Y-85565343D01*
X126378849Y-85565525D01*
X126378850Y-85565525D01*
X126425290Y-85578808D01*
X126480901Y-85594714D01*
X126481513Y-85594756D01*
X126580661Y-85601553D01*
X126580665Y-85601553D01*
X126581088Y-85601582D01*
X126681148Y-85593700D01*
X126681345Y-85593671D01*
X126681348Y-85593671D01*
X126703060Y-85590513D01*
X126783428Y-85578821D01*
X126783474Y-85578815D01*
X126889902Y-85564748D01*
X126890836Y-85564663D01*
X127003488Y-85559096D01*
X127005067Y-85559125D01*
X127126582Y-85569597D01*
X127128483Y-85569921D01*
X127253923Y-85602097D01*
X127261085Y-85607472D01*
X127262714Y-85613200D01*
X127265158Y-85738214D01*
X127282604Y-86630677D01*
X127279339Y-86639016D01*
X127270677Y-86642604D01*
X126673677Y-86630934D01*
X126253201Y-86622714D01*
X126244997Y-86619126D01*
X126242097Y-86613923D01*
X126209921Y-86488483D01*
X126209597Y-86486581D01*
X126199125Y-86365068D01*
X126199096Y-86363486D01*
X126204662Y-86250847D01*
X126204749Y-86249891D01*
X126218808Y-86143525D01*
X126218829Y-86143374D01*
X126233671Y-86041348D01*
X126233671Y-86041345D01*
X126233700Y-86041148D01*
X126241582Y-85941088D01*
X126234714Y-85840901D01*
X126205343Y-85738214D01*
X126145720Y-85630657D01*
X126084889Y-85559125D01*
X126055086Y-85524078D01*
X126052337Y-85515555D01*
X126055726Y-85508225D01*
X126148225Y-85415726D01*
X126156498Y-85412299D01*
X126164078Y-85415086D01*
G37*
%TD.AperFunction*%
%TD*%
%TA.AperFunction,Conductor*%
%TO.N,/A7*%
G36*
X112086323Y-63229066D02*
G01*
X112506799Y-63237286D01*
X112515003Y-63240874D01*
X112517903Y-63246077D01*
X112550078Y-63371516D01*
X112550402Y-63373418D01*
X112560874Y-63494931D01*
X112560903Y-63496513D01*
X112555337Y-63609152D01*
X112555251Y-63610097D01*
X112541181Y-63716547D01*
X112526299Y-63818851D01*
X112518417Y-63918911D01*
X112525285Y-64019098D01*
X112554656Y-64121785D01*
X112614279Y-64229342D01*
X112644809Y-64265243D01*
X112704914Y-64335922D01*
X112707663Y-64344445D01*
X112704274Y-64351775D01*
X112611775Y-64444274D01*
X112603502Y-64447701D01*
X112595922Y-64444914D01*
X112536854Y-64394683D01*
X112489342Y-64354279D01*
X112381785Y-64294656D01*
X112365780Y-64290078D01*
X112279689Y-64265454D01*
X112279098Y-64265285D01*
X112278486Y-64265243D01*
X112179338Y-64258446D01*
X112179334Y-64258446D01*
X112178911Y-64258417D01*
X112078851Y-64266299D01*
X112078654Y-64266328D01*
X112078651Y-64266328D01*
X112056939Y-64269486D01*
X111976571Y-64281178D01*
X111976525Y-64281184D01*
X111870097Y-64295251D01*
X111869163Y-64295336D01*
X111756511Y-64300903D01*
X111754932Y-64300874D01*
X111633417Y-64290402D01*
X111631516Y-64290078D01*
X111506077Y-64257903D01*
X111498915Y-64252528D01*
X111497286Y-64246799D01*
X111494854Y-64122362D01*
X111480194Y-63372456D01*
X111477396Y-63229323D01*
X111480661Y-63220984D01*
X111489323Y-63217396D01*
X112086323Y-63229066D01*
G37*
%TD.AperFunction*%
%TD*%
%TA.AperFunction,Conductor*%
%TO.N,/A7*%
G36*
X115881223Y-69544427D02*
G01*
X115919796Y-69578162D01*
X115920194Y-69578410D01*
X115920197Y-69578412D01*
X115962968Y-69605045D01*
X115962971Y-69605047D01*
X115963436Y-69605336D01*
X116004899Y-69621463D01*
X116045176Y-69629256D01*
X116045566Y-69629277D01*
X116045573Y-69629278D01*
X116084450Y-69631387D01*
X116085261Y-69631431D01*
X116126145Y-69630705D01*
X116168491Y-69629799D01*
X116169129Y-69629803D01*
X116194507Y-69630705D01*
X116213686Y-69631387D01*
X116214885Y-69631492D01*
X116234947Y-69634287D01*
X116262776Y-69638165D01*
X116264247Y-69638468D01*
X116309100Y-69650777D01*
X116316172Y-69656271D01*
X116317702Y-69661830D01*
X116319132Y-69734968D01*
X116325995Y-70086068D01*
X116322730Y-70094407D01*
X116314068Y-70097995D01*
X116073004Y-70093283D01*
X115889831Y-70089702D01*
X115881627Y-70086114D01*
X115878777Y-70081100D01*
X115866469Y-70036252D01*
X115866164Y-70034771D01*
X115859492Y-69986885D01*
X115859387Y-69985686D01*
X115857803Y-69941142D01*
X115857799Y-69940476D01*
X115858705Y-69898145D01*
X115858705Y-69898117D01*
X115858706Y-69898075D01*
X115859427Y-69857469D01*
X115859431Y-69857261D01*
X115857256Y-69817176D01*
X115849463Y-69776899D01*
X115833336Y-69735436D01*
X115806162Y-69691796D01*
X115772427Y-69653223D01*
X115769560Y-69644740D01*
X115772961Y-69637248D01*
X115865248Y-69544961D01*
X115873521Y-69541534D01*
X115881223Y-69544427D01*
G37*
%TD.AperFunction*%
%TD*%
%TA.AperFunction,Conductor*%
%TO.N,/D4*%
G36*
X126164078Y-87955086D02*
G01*
X126223453Y-88005578D01*
X126270657Y-88045720D01*
X126378214Y-88105343D01*
X126378849Y-88105525D01*
X126378850Y-88105525D01*
X126425290Y-88118808D01*
X126480901Y-88134714D01*
X126481513Y-88134756D01*
X126580661Y-88141553D01*
X126580665Y-88141553D01*
X126581088Y-88141582D01*
X126681148Y-88133700D01*
X126681345Y-88133671D01*
X126681348Y-88133671D01*
X126703060Y-88130513D01*
X126783428Y-88118821D01*
X126783474Y-88118815D01*
X126889902Y-88104748D01*
X126890836Y-88104663D01*
X127003488Y-88099096D01*
X127005067Y-88099125D01*
X127126582Y-88109597D01*
X127128483Y-88109921D01*
X127253923Y-88142097D01*
X127261085Y-88147472D01*
X127262714Y-88153200D01*
X127265158Y-88278214D01*
X127282604Y-89170677D01*
X127279339Y-89179016D01*
X127270677Y-89182604D01*
X126673677Y-89170934D01*
X126253201Y-89162714D01*
X126244997Y-89159126D01*
X126242097Y-89153923D01*
X126209921Y-89028483D01*
X126209597Y-89026581D01*
X126199125Y-88905068D01*
X126199096Y-88903486D01*
X126204662Y-88790847D01*
X126204749Y-88789891D01*
X126218808Y-88683525D01*
X126218829Y-88683374D01*
X126233671Y-88581348D01*
X126233671Y-88581345D01*
X126233700Y-88581148D01*
X126241582Y-88481088D01*
X126234714Y-88380901D01*
X126205343Y-88278214D01*
X126145720Y-88170657D01*
X126084889Y-88099125D01*
X126055086Y-88064078D01*
X126052337Y-88055555D01*
X126055726Y-88048225D01*
X126148225Y-87955726D01*
X126156498Y-87952299D01*
X126164078Y-87955086D01*
G37*
%TD.AperFunction*%
%TD*%
%TA.AperFunction,Conductor*%
%TO.N,/D4*%
G36*
X122686996Y-82560717D02*
G01*
X122870169Y-82564298D01*
X122878373Y-82567886D01*
X122881223Y-82572900D01*
X122893530Y-82617747D01*
X122893835Y-82619228D01*
X122900507Y-82667114D01*
X122900612Y-82668313D01*
X122902196Y-82712857D01*
X122902200Y-82713508D01*
X122901294Y-82755854D01*
X122900568Y-82796738D01*
X122902743Y-82836823D01*
X122910536Y-82877100D01*
X122926663Y-82918563D01*
X122953837Y-82962203D01*
X122980045Y-82992169D01*
X122987573Y-83000777D01*
X122990440Y-83009260D01*
X122987039Y-83016752D01*
X122894752Y-83109039D01*
X122886479Y-83112466D01*
X122878777Y-83109573D01*
X122874665Y-83105977D01*
X122840203Y-83075837D01*
X122839802Y-83075587D01*
X122797031Y-83048954D01*
X122797028Y-83048952D01*
X122796563Y-83048663D01*
X122755100Y-83032536D01*
X122714823Y-83024743D01*
X122714433Y-83024722D01*
X122714426Y-83024721D01*
X122674941Y-83022579D01*
X122674738Y-83022568D01*
X122633854Y-83023294D01*
X122591508Y-83024200D01*
X122590870Y-83024196D01*
X122564417Y-83023256D01*
X122546313Y-83022612D01*
X122545114Y-83022507D01*
X122525052Y-83019712D01*
X122497223Y-83015834D01*
X122495752Y-83015531D01*
X122450899Y-83003222D01*
X122443828Y-82997729D01*
X122442298Y-82992169D01*
X122441705Y-82961802D01*
X122437679Y-82755882D01*
X122434005Y-82567932D01*
X122437270Y-82559593D01*
X122445932Y-82556005D01*
X122686996Y-82560717D01*
G37*
%TD.AperFunction*%
%TD*%
%TA.AperFunction,Conductor*%
%TO.N,/A12*%
G36*
X112086323Y-60689066D02*
G01*
X112506799Y-60697286D01*
X112515003Y-60700874D01*
X112517903Y-60706077D01*
X112550078Y-60831516D01*
X112550402Y-60833418D01*
X112560874Y-60954931D01*
X112560903Y-60956513D01*
X112555337Y-61069152D01*
X112555251Y-61070097D01*
X112541181Y-61176547D01*
X112526299Y-61278851D01*
X112518417Y-61378911D01*
X112525285Y-61479098D01*
X112554656Y-61581785D01*
X112614279Y-61689342D01*
X112644809Y-61725243D01*
X112704914Y-61795922D01*
X112707663Y-61804445D01*
X112704274Y-61811775D01*
X112611775Y-61904274D01*
X112603502Y-61907701D01*
X112595922Y-61904914D01*
X112536854Y-61854683D01*
X112489342Y-61814279D01*
X112381785Y-61754656D01*
X112365780Y-61750078D01*
X112279689Y-61725454D01*
X112279098Y-61725285D01*
X112278486Y-61725243D01*
X112179338Y-61718446D01*
X112179334Y-61718446D01*
X112178911Y-61718417D01*
X112078851Y-61726299D01*
X112078654Y-61726328D01*
X112078651Y-61726328D01*
X112056939Y-61729486D01*
X111976571Y-61741178D01*
X111976525Y-61741184D01*
X111870097Y-61755251D01*
X111869163Y-61755336D01*
X111756511Y-61760903D01*
X111754932Y-61760874D01*
X111633417Y-61750402D01*
X111631516Y-61750078D01*
X111506077Y-61717903D01*
X111498915Y-61712528D01*
X111497286Y-61706799D01*
X111494854Y-61582362D01*
X111480194Y-60832456D01*
X111477396Y-60689323D01*
X111480661Y-60680984D01*
X111489323Y-60677396D01*
X112086323Y-60689066D01*
G37*
%TD.AperFunction*%
%TD*%
%TA.AperFunction,Conductor*%
%TO.N,/A12*%
G36*
X115881223Y-68274427D02*
G01*
X115919796Y-68308162D01*
X115920194Y-68308410D01*
X115920197Y-68308412D01*
X115962968Y-68335045D01*
X115962971Y-68335047D01*
X115963436Y-68335336D01*
X116004899Y-68351463D01*
X116045176Y-68359256D01*
X116045566Y-68359277D01*
X116045573Y-68359278D01*
X116084450Y-68361387D01*
X116085261Y-68361431D01*
X116126145Y-68360705D01*
X116168491Y-68359799D01*
X116169129Y-68359803D01*
X116194507Y-68360705D01*
X116213686Y-68361387D01*
X116214885Y-68361492D01*
X116234947Y-68364287D01*
X116262776Y-68368165D01*
X116264247Y-68368468D01*
X116309100Y-68380777D01*
X116316172Y-68386271D01*
X116317702Y-68391830D01*
X116319132Y-68464968D01*
X116325995Y-68816068D01*
X116322730Y-68824407D01*
X116314068Y-68827995D01*
X116073004Y-68823283D01*
X115889831Y-68819702D01*
X115881627Y-68816114D01*
X115878777Y-68811100D01*
X115866469Y-68766252D01*
X115866164Y-68764771D01*
X115859492Y-68716885D01*
X115859387Y-68715686D01*
X115857803Y-68671142D01*
X115857799Y-68670476D01*
X115858705Y-68628145D01*
X115858705Y-68628117D01*
X115858706Y-68628075D01*
X115859427Y-68587469D01*
X115859431Y-68587261D01*
X115857256Y-68547176D01*
X115849463Y-68506899D01*
X115833336Y-68465436D01*
X115806162Y-68421796D01*
X115772427Y-68383223D01*
X115769560Y-68374740D01*
X115772961Y-68367248D01*
X115865248Y-68274961D01*
X115873521Y-68271534D01*
X115881223Y-68274427D01*
G37*
%TD.AperFunction*%
%TD*%
%TA.AperFunction,Conductor*%
%TO.N,/CE2*%
G36*
X126657701Y-62786166D02*
G01*
X127320762Y-63423800D01*
X127391231Y-63491567D01*
X127394819Y-63499771D01*
X127391231Y-63508433D01*
X126657701Y-64213834D01*
X126649362Y-64217099D01*
X126643633Y-64215470D01*
X126532177Y-64149519D01*
X126530611Y-64148409D01*
X126437277Y-64069885D01*
X126436141Y-64068790D01*
X126360435Y-63985211D01*
X126359820Y-63984474D01*
X126294535Y-63899305D01*
X126294443Y-63899183D01*
X126232798Y-63816550D01*
X126232681Y-63816393D01*
X126167502Y-63740067D01*
X126091802Y-63674080D01*
X126091266Y-63673783D01*
X126091264Y-63673781D01*
X126046349Y-63648845D01*
X125998423Y-63622238D01*
X125880208Y-63588343D01*
X125879638Y-63588297D01*
X125879633Y-63588296D01*
X125800593Y-63581907D01*
X125740756Y-63577070D01*
X125732787Y-63572988D01*
X125730000Y-63565408D01*
X125730000Y-63434592D01*
X125733427Y-63426319D01*
X125740756Y-63422930D01*
X125799802Y-63418157D01*
X125879632Y-63411703D01*
X125879636Y-63411702D01*
X125880208Y-63411656D01*
X125998423Y-63377761D01*
X126046349Y-63351154D01*
X126091264Y-63326218D01*
X126091266Y-63326216D01*
X126091802Y-63325919D01*
X126167502Y-63259932D01*
X126232681Y-63183606D01*
X126294443Y-63100816D01*
X126294535Y-63100694D01*
X126359820Y-63015525D01*
X126360435Y-63014788D01*
X126436141Y-62931209D01*
X126437280Y-62930111D01*
X126530611Y-62851590D01*
X126532177Y-62850480D01*
X126643633Y-62784530D01*
X126652498Y-62783266D01*
X126657701Y-62786166D01*
G37*
%TD.AperFunction*%
%TD*%
%TA.AperFunction,Conductor*%
%TO.N,/CE2*%
G36*
X123956996Y-62501939D02*
G01*
X124140169Y-62505520D01*
X124148373Y-62509108D01*
X124151223Y-62514122D01*
X124163530Y-62558969D01*
X124163835Y-62560450D01*
X124170507Y-62608336D01*
X124170612Y-62609535D01*
X124172196Y-62654079D01*
X124172200Y-62654730D01*
X124171294Y-62697076D01*
X124170568Y-62737960D01*
X124172743Y-62778045D01*
X124180536Y-62818322D01*
X124196663Y-62859785D01*
X124223837Y-62903425D01*
X124250045Y-62933391D01*
X124257573Y-62941999D01*
X124260440Y-62950482D01*
X124257039Y-62957974D01*
X124164752Y-63050261D01*
X124156479Y-63053688D01*
X124148777Y-63050795D01*
X124144665Y-63047199D01*
X124110203Y-63017059D01*
X124109802Y-63016809D01*
X124067031Y-62990176D01*
X124067028Y-62990174D01*
X124066563Y-62989885D01*
X124025100Y-62973758D01*
X123984823Y-62965965D01*
X123984433Y-62965944D01*
X123984426Y-62965943D01*
X123944941Y-62963801D01*
X123944738Y-62963790D01*
X123903854Y-62964516D01*
X123861508Y-62965422D01*
X123860870Y-62965418D01*
X123834417Y-62964478D01*
X123816313Y-62963834D01*
X123815114Y-62963729D01*
X123795052Y-62960934D01*
X123767223Y-62957056D01*
X123765752Y-62956753D01*
X123720899Y-62944444D01*
X123713828Y-62938951D01*
X123712298Y-62933391D01*
X123711705Y-62903024D01*
X123707679Y-62697104D01*
X123704005Y-62509154D01*
X123707270Y-62500815D01*
X123715932Y-62497227D01*
X123956996Y-62501939D01*
G37*
%TD.AperFunction*%
%TD*%
%TA.AperFunction,Conductor*%
%TO.N,/~{CE1}*%
G36*
X120908996Y-61732717D02*
G01*
X121092169Y-61736298D01*
X121100373Y-61739886D01*
X121103223Y-61744900D01*
X121115530Y-61789747D01*
X121115835Y-61791228D01*
X121122507Y-61839114D01*
X121122612Y-61840313D01*
X121124196Y-61884857D01*
X121124200Y-61885508D01*
X121123294Y-61927854D01*
X121122568Y-61968738D01*
X121124743Y-62008823D01*
X121132536Y-62049100D01*
X121148663Y-62090563D01*
X121175837Y-62134203D01*
X121202045Y-62164169D01*
X121209573Y-62172777D01*
X121212440Y-62181260D01*
X121209039Y-62188752D01*
X121116752Y-62281039D01*
X121108479Y-62284466D01*
X121100777Y-62281573D01*
X121096665Y-62277977D01*
X121062203Y-62247837D01*
X121061802Y-62247587D01*
X121019031Y-62220954D01*
X121019028Y-62220952D01*
X121018563Y-62220663D01*
X120977100Y-62204536D01*
X120936823Y-62196743D01*
X120936433Y-62196722D01*
X120936426Y-62196721D01*
X120896941Y-62194579D01*
X120896738Y-62194568D01*
X120855854Y-62195294D01*
X120813508Y-62196200D01*
X120812870Y-62196196D01*
X120786417Y-62195256D01*
X120768313Y-62194612D01*
X120767114Y-62194507D01*
X120747052Y-62191712D01*
X120719223Y-62187834D01*
X120717752Y-62187531D01*
X120672899Y-62175222D01*
X120665828Y-62169729D01*
X120664298Y-62164169D01*
X120663705Y-62133802D01*
X120659679Y-61927882D01*
X120656005Y-61739932D01*
X120659270Y-61731593D01*
X120667932Y-61728005D01*
X120908996Y-61732717D01*
G37*
%TD.AperFunction*%
%TD*%
%TA.AperFunction,Conductor*%
%TO.N,/~{CE1}*%
G36*
X126657993Y-78026447D02*
G01*
X127337999Y-78680376D01*
X127388858Y-78729285D01*
X127392446Y-78737489D01*
X127389181Y-78745828D01*
X127386662Y-78747813D01*
X126441966Y-79301203D01*
X126433095Y-79302428D01*
X126427932Y-79299531D01*
X126350490Y-79224874D01*
X126350486Y-79224870D01*
X126350383Y-79224771D01*
X126276327Y-79158904D01*
X126209397Y-79104044D01*
X126209380Y-79104031D01*
X126209365Y-79104019D01*
X126146847Y-79056150D01*
X126085929Y-79011181D01*
X126085901Y-79011160D01*
X126023993Y-78965169D01*
X126023788Y-78965013D01*
X125958151Y-78913973D01*
X125957842Y-78913724D01*
X125885676Y-78853571D01*
X125885340Y-78853281D01*
X125803772Y-78779873D01*
X125803462Y-78779583D01*
X125762566Y-78740000D01*
X125718197Y-78697055D01*
X125714636Y-78688840D01*
X125718061Y-78680376D01*
X125810157Y-78588280D01*
X125818430Y-78584853D01*
X125825556Y-78587274D01*
X125916247Y-78656919D01*
X125917432Y-78657208D01*
X125917434Y-78657209D01*
X125955186Y-78666417D01*
X126001967Y-78677827D01*
X126003506Y-78677333D01*
X126003508Y-78677333D01*
X126077098Y-78653721D01*
X126077100Y-78653720D01*
X126078203Y-78653366D01*
X126148586Y-78593157D01*
X126148934Y-78592716D01*
X126148939Y-78592711D01*
X126216612Y-78506993D01*
X126216747Y-78506822D01*
X126286317Y-78403982D01*
X126360709Y-78294577D01*
X126361151Y-78293969D01*
X126443742Y-78187866D01*
X126444743Y-78186739D01*
X126494396Y-78137580D01*
X126538936Y-78093483D01*
X126540775Y-78091998D01*
X126643496Y-78025077D01*
X126652299Y-78023432D01*
X126657993Y-78026447D01*
G37*
%TD.AperFunction*%
%TD*%
%TA.AperFunction,Conductor*%
%TO.N,/~{WE}*%
G36*
X124112833Y-63718319D02*
G01*
X124406950Y-64024164D01*
X124410215Y-64032503D01*
X124408685Y-64038062D01*
X124385670Y-64078486D01*
X124384846Y-64079738D01*
X124355692Y-64118331D01*
X124354931Y-64119237D01*
X124339133Y-64136202D01*
X124324553Y-64151856D01*
X124324085Y-64152330D01*
X124293509Y-64181625D01*
X124264086Y-64210021D01*
X124263950Y-64210173D01*
X124263939Y-64210184D01*
X124249851Y-64225890D01*
X124237280Y-64239904D01*
X124214310Y-64273895D01*
X124196394Y-64314617D01*
X124184751Y-64364691D01*
X124184720Y-64365161D01*
X124184719Y-64365165D01*
X124181330Y-64415821D01*
X124177358Y-64423847D01*
X124169656Y-64426740D01*
X124039143Y-64426740D01*
X124030870Y-64423313D01*
X124027469Y-64415821D01*
X124024080Y-64365165D01*
X124024079Y-64365162D01*
X124024048Y-64364691D01*
X124012405Y-64314617D01*
X123994489Y-64273895D01*
X123971519Y-64239904D01*
X123958948Y-64225890D01*
X123944860Y-64210184D01*
X123944849Y-64210173D01*
X123944713Y-64210021D01*
X123915290Y-64181625D01*
X123884714Y-64152330D01*
X123884246Y-64151856D01*
X123869666Y-64136202D01*
X123853868Y-64119237D01*
X123853107Y-64118331D01*
X123823958Y-64079743D01*
X123823126Y-64078480D01*
X123800115Y-64038063D01*
X123799000Y-64029178D01*
X123801850Y-64024164D01*
X124095967Y-63718319D01*
X124104171Y-63714731D01*
X124112833Y-63718319D01*
G37*
%TD.AperFunction*%
%TD*%
%TA.AperFunction,Conductor*%
%TO.N,/~{WE}*%
G36*
X124871063Y-61544715D02*
G01*
X124911480Y-61567726D01*
X124912743Y-61568558D01*
X124928966Y-61580812D01*
X124951331Y-61597707D01*
X124952237Y-61598468D01*
X124969202Y-61614266D01*
X124984856Y-61628846D01*
X124985330Y-61629314D01*
X125014625Y-61659890D01*
X125043021Y-61689313D01*
X125043173Y-61689449D01*
X125043184Y-61689460D01*
X125058890Y-61703548D01*
X125072904Y-61716119D01*
X125106895Y-61739089D01*
X125147617Y-61757005D01*
X125148143Y-61757127D01*
X125148145Y-61757128D01*
X125167856Y-61761711D01*
X125197691Y-61768648D01*
X125198162Y-61768679D01*
X125198165Y-61768680D01*
X125220548Y-61770177D01*
X125248822Y-61772069D01*
X125256847Y-61776041D01*
X125259740Y-61783743D01*
X125259740Y-61914256D01*
X125256313Y-61922529D01*
X125248821Y-61925930D01*
X125198165Y-61929319D01*
X125198161Y-61929320D01*
X125197691Y-61929351D01*
X125167856Y-61936288D01*
X125148145Y-61940871D01*
X125148143Y-61940872D01*
X125147617Y-61940994D01*
X125106895Y-61958910D01*
X125072904Y-61981880D01*
X125058890Y-61994451D01*
X125043184Y-62008539D01*
X125043173Y-62008550D01*
X125043021Y-62008686D01*
X125014625Y-62038109D01*
X124985330Y-62068685D01*
X124984856Y-62069153D01*
X124969202Y-62083733D01*
X124952237Y-62099531D01*
X124951331Y-62100292D01*
X124912738Y-62129446D01*
X124911486Y-62130270D01*
X124871062Y-62153285D01*
X124862178Y-62154400D01*
X124857164Y-62151550D01*
X124834175Y-62129442D01*
X124551319Y-61857433D01*
X124547731Y-61849229D01*
X124551319Y-61840567D01*
X124618418Y-61776041D01*
X124857165Y-61546450D01*
X124865503Y-61543185D01*
X124871063Y-61544715D01*
G37*
%TD.AperFunction*%
%TD*%
%TA.AperFunction,Conductor*%
%TO.N,/~{WE}*%
G36*
X122894752Y-68274961D02*
G01*
X122987038Y-68367247D01*
X122990465Y-68375520D01*
X122987572Y-68383222D01*
X122954148Y-68421439D01*
X122954141Y-68421448D01*
X122953837Y-68421796D01*
X122926663Y-68465436D01*
X122910536Y-68506899D01*
X122902743Y-68547176D01*
X122900568Y-68587261D01*
X122900572Y-68587469D01*
X122901293Y-68628075D01*
X122901294Y-68628117D01*
X122901294Y-68628145D01*
X122902200Y-68670476D01*
X122902196Y-68671142D01*
X122900612Y-68715686D01*
X122900507Y-68716885D01*
X122893835Y-68764771D01*
X122893530Y-68766252D01*
X122881223Y-68811100D01*
X122875729Y-68818172D01*
X122870170Y-68819702D01*
X122686996Y-68823283D01*
X122445932Y-68827995D01*
X122437593Y-68824730D01*
X122434005Y-68816068D01*
X122440868Y-68464968D01*
X122442298Y-68391831D01*
X122445886Y-68383627D01*
X122450897Y-68380778D01*
X122495755Y-68368467D01*
X122497223Y-68368165D01*
X122525052Y-68364287D01*
X122545114Y-68361492D01*
X122546313Y-68361387D01*
X122565492Y-68360705D01*
X122590870Y-68359803D01*
X122591508Y-68359799D01*
X122633854Y-68360705D01*
X122674738Y-68361431D01*
X122675549Y-68361387D01*
X122714426Y-68359278D01*
X122714433Y-68359277D01*
X122714823Y-68359256D01*
X122755100Y-68351463D01*
X122796563Y-68335336D01*
X122797028Y-68335047D01*
X122797031Y-68335045D01*
X122839802Y-68308412D01*
X122839805Y-68308410D01*
X122840203Y-68308162D01*
X122878777Y-68274427D01*
X122887260Y-68271560D01*
X122894752Y-68274961D01*
G37*
%TD.AperFunction*%
%TD*%
%TA.AperFunction,Conductor*%
%TO.N,/~{WE}*%
G36*
X127275725Y-60680725D02*
G01*
X127279313Y-60688929D01*
X127278935Y-60692115D01*
X127202329Y-60985396D01*
X127061046Y-61526292D01*
X127002189Y-61751621D01*
X126996783Y-61758759D01*
X126991348Y-61760354D01*
X126921705Y-61763200D01*
X126887105Y-61764614D01*
X126887101Y-61764614D01*
X126886840Y-61764625D01*
X126886586Y-61764658D01*
X126886579Y-61764659D01*
X126835076Y-61771435D01*
X126791408Y-61777180D01*
X126708888Y-61795683D01*
X126634465Y-61818150D01*
X126563321Y-61842600D01*
X126563248Y-61842624D01*
X126490910Y-61866958D01*
X126490379Y-61867123D01*
X126412026Y-61889397D01*
X126411178Y-61889604D01*
X126375438Y-61896936D01*
X126321889Y-61907920D01*
X126320926Y-61908076D01*
X126278721Y-61913066D01*
X126215691Y-61920518D01*
X126214743Y-61920591D01*
X126100362Y-61924758D01*
X126091970Y-61921635D01*
X126088236Y-61913066D01*
X126088236Y-61783030D01*
X126091663Y-61774757D01*
X126098375Y-61771435D01*
X126219062Y-61755188D01*
X126219063Y-61755188D01*
X126220346Y-61755015D01*
X126297871Y-61704787D01*
X126331570Y-61626802D01*
X126332205Y-61525749D01*
X126310538Y-61406313D01*
X126277329Y-61273182D01*
X126243437Y-61131448D01*
X126243273Y-61130633D01*
X126219466Y-60985396D01*
X126219315Y-60983764D01*
X126216097Y-60839786D01*
X126216322Y-60837228D01*
X126221012Y-60813803D01*
X126242462Y-60706676D01*
X126247445Y-60699238D01*
X126253703Y-60697276D01*
X127267386Y-60677460D01*
X127275725Y-60680725D01*
G37*
%TD.AperFunction*%
%TD*%
%TA.AperFunction,Conductor*%
%TO.N,VCC*%
G36*
X126533503Y-57780011D02*
G01*
X127035862Y-58151050D01*
X127387258Y-58410589D01*
X127391877Y-58418260D01*
X127389718Y-58426951D01*
X127387258Y-58429411D01*
X126570293Y-59032817D01*
X126533504Y-59059989D01*
X126524813Y-59062148D01*
X126519836Y-59060158D01*
X126480841Y-59032817D01*
X126480835Y-59032813D01*
X126480708Y-59032724D01*
X126468150Y-59024862D01*
X126433036Y-59002880D01*
X126433027Y-59002875D01*
X126432874Y-59002779D01*
X126382246Y-58975411D01*
X126327840Y-58950872D01*
X126268673Y-58929414D01*
X126268478Y-58929360D01*
X126268467Y-58929356D01*
X126233678Y-58919644D01*
X126203761Y-58911291D01*
X126132121Y-58896755D01*
X126131922Y-58896728D01*
X126131915Y-58896727D01*
X126085536Y-58890476D01*
X126052769Y-58886059D01*
X125964723Y-58879457D01*
X125964568Y-58879453D01*
X125964560Y-58879453D01*
X125883245Y-58877575D01*
X125878430Y-58877464D01*
X125870238Y-58873847D01*
X125867000Y-58865767D01*
X125867000Y-57974233D01*
X125870427Y-57965960D01*
X125878430Y-57962536D01*
X125964560Y-57960546D01*
X125964568Y-57960546D01*
X125964723Y-57960542D01*
X126052769Y-57953940D01*
X126085536Y-57949523D01*
X126131915Y-57943272D01*
X126131922Y-57943271D01*
X126132121Y-57943244D01*
X126203761Y-57928708D01*
X126233678Y-57920355D01*
X126268467Y-57910643D01*
X126268478Y-57910639D01*
X126268673Y-57910585D01*
X126327840Y-57889127D01*
X126382246Y-57864588D01*
X126432874Y-57837220D01*
X126433027Y-57837124D01*
X126433036Y-57837119D01*
X126480564Y-57807365D01*
X126480708Y-57807275D01*
X126480841Y-57807182D01*
X126519836Y-57779842D01*
X126528578Y-57777899D01*
X126533503Y-57780011D01*
G37*
%TD.AperFunction*%
%TD*%
%TA.AperFunction,Conductor*%
%TO.N,/BATT_FAKE*%
G36*
X120850529Y-89500687D02*
G01*
X120853930Y-89508179D01*
X120857351Y-89559308D01*
X120868994Y-89609382D01*
X120886910Y-89650104D01*
X120909880Y-89684095D01*
X120922451Y-89698109D01*
X120936539Y-89713815D01*
X120936550Y-89713826D01*
X120936686Y-89713978D01*
X120966109Y-89742374D01*
X120996685Y-89771669D01*
X120997153Y-89772143D01*
X121021467Y-89798250D01*
X121027935Y-89805195D01*
X121057900Y-89844863D01*
X121085610Y-89893534D01*
X120780285Y-90211034D01*
X120779617Y-90211729D01*
X120776761Y-90210611D01*
X120774834Y-90210649D01*
X120770667Y-90207864D01*
X120693026Y-90127127D01*
X120693021Y-90127122D01*
X120608966Y-90039715D01*
X120474450Y-89899835D01*
X120471185Y-89891497D01*
X120472715Y-89885937D01*
X120495726Y-89845519D01*
X120496558Y-89844256D01*
X120512377Y-89823314D01*
X120525707Y-89805668D01*
X120526468Y-89804762D01*
X120542266Y-89787797D01*
X120556846Y-89772143D01*
X120557314Y-89771669D01*
X120587890Y-89742374D01*
X120617313Y-89713978D01*
X120617449Y-89713826D01*
X120617460Y-89713815D01*
X120631548Y-89698109D01*
X120644119Y-89684095D01*
X120667089Y-89650104D01*
X120685005Y-89609382D01*
X120696648Y-89559308D01*
X120700069Y-89508178D01*
X120704041Y-89500153D01*
X120711743Y-89497260D01*
X120842256Y-89497260D01*
X120850529Y-89500687D01*
G37*
%TD.AperFunction*%
%TD*%
%TA.AperFunction,Conductor*%
%TO.N,/BATT_FAKE*%
G36*
X120785433Y-87848319D02*
G01*
X121079550Y-88154164D01*
X121082815Y-88162503D01*
X121081285Y-88168062D01*
X121058270Y-88208486D01*
X121057446Y-88209738D01*
X121028292Y-88248331D01*
X121027531Y-88249237D01*
X121011733Y-88266202D01*
X120997153Y-88281856D01*
X120996685Y-88282330D01*
X120966109Y-88311625D01*
X120936686Y-88340021D01*
X120936550Y-88340173D01*
X120936539Y-88340184D01*
X120922451Y-88355890D01*
X120909880Y-88369904D01*
X120886910Y-88403895D01*
X120868994Y-88444617D01*
X120857351Y-88494691D01*
X120857320Y-88495161D01*
X120857319Y-88495165D01*
X120853930Y-88545821D01*
X120849958Y-88553847D01*
X120842256Y-88556740D01*
X120711743Y-88556740D01*
X120703470Y-88553313D01*
X120700069Y-88545821D01*
X120696680Y-88495165D01*
X120696679Y-88495162D01*
X120696648Y-88494691D01*
X120685005Y-88444617D01*
X120667089Y-88403895D01*
X120644119Y-88369904D01*
X120631548Y-88355890D01*
X120617460Y-88340184D01*
X120617449Y-88340173D01*
X120617313Y-88340021D01*
X120587890Y-88311625D01*
X120557314Y-88282330D01*
X120556846Y-88281856D01*
X120542266Y-88266202D01*
X120526468Y-88249237D01*
X120525707Y-88248331D01*
X120496558Y-88209743D01*
X120495726Y-88208480D01*
X120472715Y-88168063D01*
X120471600Y-88159178D01*
X120474450Y-88154164D01*
X120768567Y-87848319D01*
X120776771Y-87844731D01*
X120785433Y-87848319D01*
G37*
%TD.AperFunction*%
%TD*%
%TA.AperFunction,Conductor*%
%TO.N,/BATT_FAKE*%
G36*
X120975136Y-89762099D02*
G01*
X121014804Y-89792064D01*
X121021602Y-89798395D01*
X121021603Y-89798396D01*
X121021749Y-89798532D01*
X121047856Y-89822846D01*
X121048330Y-89823314D01*
X121077625Y-89853890D01*
X121106021Y-89883313D01*
X121106173Y-89883449D01*
X121106184Y-89883460D01*
X121121890Y-89897548D01*
X121135904Y-89910119D01*
X121169895Y-89933089D01*
X121210617Y-89951005D01*
X121211143Y-89951127D01*
X121211145Y-89951128D01*
X121230856Y-89955711D01*
X121260691Y-89962648D01*
X121261162Y-89962679D01*
X121261165Y-89962680D01*
X121283548Y-89964177D01*
X121311822Y-89966069D01*
X121319847Y-89970041D01*
X121322740Y-89977743D01*
X121322740Y-90108256D01*
X121319313Y-90116529D01*
X121311821Y-90119930D01*
X121261165Y-90123319D01*
X121261161Y-90123320D01*
X121260691Y-90123351D01*
X121230856Y-90130288D01*
X121211145Y-90134871D01*
X121211143Y-90134872D01*
X121210617Y-90134994D01*
X121169895Y-90152910D01*
X121135904Y-90175880D01*
X121121890Y-90188451D01*
X121106184Y-90202539D01*
X121106173Y-90202550D01*
X121106021Y-90202686D01*
X121096407Y-90212648D01*
X121077625Y-90232109D01*
X121048330Y-90262685D01*
X121047856Y-90263153D01*
X121032202Y-90277733D01*
X121015237Y-90293531D01*
X121014331Y-90294292D01*
X120975738Y-90323446D01*
X120974486Y-90324270D01*
X120934062Y-90347285D01*
X120925178Y-90348400D01*
X120920164Y-90345550D01*
X120781963Y-90212648D01*
X120781964Y-90212648D01*
X120780285Y-90211034D01*
X120689106Y-90123351D01*
X120612136Y-90049333D01*
X120609877Y-90044168D01*
X120609769Y-90044210D01*
X120608688Y-90041450D01*
X120608548Y-90041129D01*
X120608553Y-90041104D01*
X120608271Y-90040383D01*
X120608966Y-90039715D01*
X120926466Y-89734390D01*
X120975136Y-89762099D01*
G37*
%TD.AperFunction*%
%TD*%
%TA.AperFunction,Conductor*%
%TO.N,/BATT_FAKE*%
G36*
X122426855Y-89331343D02*
G01*
X122902762Y-89789000D01*
X122973231Y-89856767D01*
X122976819Y-89864971D01*
X122973231Y-89873633D01*
X122830361Y-90011024D01*
X122426856Y-90399056D01*
X122418517Y-90402321D01*
X122412824Y-90400713D01*
X122332815Y-90353752D01*
X122331305Y-90352698D01*
X122262284Y-90295931D01*
X122261187Y-90294905D01*
X122204642Y-90234696D01*
X122204053Y-90234018D01*
X122154773Y-90172737D01*
X122154704Y-90172650D01*
X122107974Y-90113391D01*
X122107844Y-90113226D01*
X122058386Y-90058521D01*
X122001235Y-90011303D01*
X122000708Y-90011024D01*
X121931790Y-89974552D01*
X121931787Y-89974551D01*
X121931230Y-89974256D01*
X121868014Y-89956880D01*
X121843744Y-89950209D01*
X121843742Y-89950209D01*
X121843205Y-89950061D01*
X121742791Y-89942240D01*
X121734809Y-89938182D01*
X121732000Y-89930576D01*
X121732000Y-89799824D01*
X121735427Y-89791551D01*
X121742790Y-89788160D01*
X121802345Y-89783521D01*
X121842657Y-89780381D01*
X121842660Y-89780380D01*
X121843205Y-89780338D01*
X121931230Y-89756143D01*
X121931787Y-89755848D01*
X121931790Y-89755847D01*
X122000708Y-89719375D01*
X122000709Y-89719374D01*
X122001235Y-89719096D01*
X122058386Y-89671878D01*
X122107844Y-89617173D01*
X122154773Y-89557662D01*
X122204053Y-89496381D01*
X122204642Y-89495703D01*
X122261187Y-89435494D01*
X122262284Y-89434468D01*
X122331308Y-89377699D01*
X122332817Y-89376645D01*
X122412825Y-89329686D01*
X122421692Y-89328453D01*
X122426855Y-89331343D01*
G37*
%TD.AperFunction*%
%TD*%
%TA.AperFunction,Conductor*%
%TO.N,VCC*%
G36*
X125252284Y-57531643D02*
G01*
X125395361Y-57550480D01*
X125414323Y-57555561D01*
X125543055Y-57608883D01*
X125560055Y-57618699D01*
X125670600Y-57703523D01*
X125684479Y-57717402D01*
X125769301Y-57827944D01*
X125779117Y-57844945D01*
X125832439Y-57973677D01*
X125837520Y-57992639D01*
X125856357Y-58135716D01*
X125857000Y-58145532D01*
X125857000Y-61468500D01*
X125839407Y-61516838D01*
X125794858Y-61542558D01*
X125781800Y-61543700D01*
X125293735Y-61543700D01*
X125274169Y-61541110D01*
X125264450Y-61538491D01*
X125260762Y-61538244D01*
X125260760Y-61538244D01*
X125248875Y-61537449D01*
X125199786Y-61514640D01*
X125183442Y-61497706D01*
X125154367Y-61467359D01*
X125151938Y-61464893D01*
X125149916Y-61462840D01*
X125149882Y-61462806D01*
X125149806Y-61462729D01*
X125149332Y-61462261D01*
X125144400Y-61457532D01*
X125111781Y-61427154D01*
X125102804Y-61419213D01*
X125101898Y-61418452D01*
X125092435Y-61410911D01*
X125091707Y-61410361D01*
X125054319Y-61382118D01*
X125054297Y-61382102D01*
X125053847Y-61381762D01*
X125051497Y-61380103D01*
X125042003Y-61373401D01*
X125041986Y-61373389D01*
X125041525Y-61373064D01*
X125040262Y-61372232D01*
X125039771Y-61371931D01*
X125039757Y-61371922D01*
X125035106Y-61369070D01*
X125027306Y-61364287D01*
X125008223Y-61353422D01*
X125007832Y-61353198D01*
X125006376Y-61352358D01*
X125002468Y-61349359D01*
X124997915Y-61347473D01*
X124994643Y-61345584D01*
X124993313Y-61344934D01*
X124986889Y-61341276D01*
X124933174Y-61319005D01*
X124927614Y-61317475D01*
X124927652Y-61317336D01*
X124917523Y-61314173D01*
X124863322Y-61291723D01*
X124858444Y-61291081D01*
X124858441Y-61291080D01*
X124718884Y-61272707D01*
X124714000Y-61272064D01*
X124709116Y-61272707D01*
X124569559Y-61291080D01*
X124569556Y-61291081D01*
X124564678Y-61291723D01*
X124560131Y-61293607D01*
X124560129Y-61293607D01*
X124532808Y-61304924D01*
X124425532Y-61349359D01*
X124420529Y-61353198D01*
X124324589Y-61426816D01*
X124306045Y-61441045D01*
X124214359Y-61560532D01*
X124212475Y-61565081D01*
X124160701Y-61690075D01*
X124156723Y-61699678D01*
X124156081Y-61704556D01*
X124156080Y-61704559D01*
X124137707Y-61844116D01*
X124137064Y-61849000D01*
X124156723Y-61998322D01*
X124158609Y-62002876D01*
X124159651Y-62006764D01*
X124155167Y-62058008D01*
X124118794Y-62094381D01*
X124067550Y-62098865D01*
X124058235Y-62095703D01*
X124055044Y-62094381D01*
X123974322Y-62060945D01*
X123969444Y-62060303D01*
X123969441Y-62060302D01*
X123829884Y-62041929D01*
X123825000Y-62041286D01*
X123820116Y-62041929D01*
X123680559Y-62060302D01*
X123680556Y-62060303D01*
X123675678Y-62060945D01*
X123671131Y-62062829D01*
X123671129Y-62062829D01*
X123621831Y-62083249D01*
X123536532Y-62118581D01*
X123417045Y-62210267D01*
X123325359Y-62329754D01*
X123307511Y-62372844D01*
X123285786Y-62425293D01*
X123267723Y-62468900D01*
X123267081Y-62473778D01*
X123267080Y-62473781D01*
X123248707Y-62613338D01*
X123248064Y-62618222D01*
X123248707Y-62623106D01*
X123266937Y-62761572D01*
X123267723Y-62767544D01*
X123269607Y-62772091D01*
X123269607Y-62772093D01*
X123296541Y-62837117D01*
X123325359Y-62906690D01*
X123417045Y-63026177D01*
X123536532Y-63117863D01*
X123637629Y-63159739D01*
X123642484Y-63161957D01*
X123658946Y-63170197D01*
X123666065Y-63172150D01*
X123667474Y-63172634D01*
X123671123Y-63173612D01*
X123675678Y-63175499D01*
X123680566Y-63176143D01*
X123682318Y-63176612D01*
X123682656Y-63176704D01*
X123703799Y-63182506D01*
X123704386Y-63182647D01*
X123704406Y-63182652D01*
X123717893Y-63185888D01*
X123717903Y-63185890D01*
X123718523Y-63186039D01*
X123719132Y-63186165D01*
X123719139Y-63186166D01*
X123719211Y-63186181D01*
X123719994Y-63186342D01*
X123720555Y-63186439D01*
X123720572Y-63186442D01*
X123729101Y-63187913D01*
X123734916Y-63188916D01*
X123763986Y-63192966D01*
X123782310Y-63195520D01*
X123782330Y-63195523D01*
X123782807Y-63195589D01*
X123783250Y-63195639D01*
X123783272Y-63195642D01*
X123793101Y-63196756D01*
X123794691Y-63196936D01*
X123795890Y-63197041D01*
X123800829Y-63197345D01*
X123807490Y-63197755D01*
X123807501Y-63197756D01*
X123807996Y-63197786D01*
X123828786Y-63198525D01*
X123852374Y-63199364D01*
X123852419Y-63199365D01*
X123852553Y-63199370D01*
X123852713Y-63199373D01*
X123852737Y-63199374D01*
X123854419Y-63199409D01*
X123859402Y-63199513D01*
X123859726Y-63199515D01*
X123859830Y-63199516D01*
X123859867Y-63199516D01*
X123860040Y-63199517D01*
X123862606Y-63199498D01*
X123866305Y-63199470D01*
X123866351Y-63199469D01*
X123866515Y-63199468D01*
X123872731Y-63199335D01*
X123875919Y-63199267D01*
X123924621Y-63215823D01*
X123951288Y-63259812D01*
X123943440Y-63310649D01*
X123906304Y-63343926D01*
X123815932Y-63381359D01*
X123696445Y-63473045D01*
X123604759Y-63592532D01*
X123547123Y-63731678D01*
X123546481Y-63736556D01*
X123546480Y-63736559D01*
X123532107Y-63845735D01*
X123527464Y-63881000D01*
X123547123Y-64030322D01*
X123549007Y-64034871D01*
X123549008Y-64034874D01*
X123588992Y-64131405D01*
X123590870Y-64136440D01*
X123592844Y-64142371D01*
X123596676Y-64153889D01*
X123600331Y-64160308D01*
X123600984Y-64161643D01*
X123602873Y-64164915D01*
X123604759Y-64169468D01*
X123607758Y-64173376D01*
X123608598Y-64174832D01*
X123608822Y-64175223D01*
X123619687Y-64194306D01*
X123627632Y-64207262D01*
X123628464Y-64208525D01*
X123637162Y-64220847D01*
X123637502Y-64221297D01*
X123637518Y-64221319D01*
X123660222Y-64251374D01*
X123666311Y-64259435D01*
X123673852Y-64268898D01*
X123674613Y-64269804D01*
X123682554Y-64278781D01*
X123712932Y-64311400D01*
X123717661Y-64316332D01*
X123718129Y-64316806D01*
X123718206Y-64316882D01*
X123718240Y-64316916D01*
X123720293Y-64318938D01*
X123722759Y-64321367D01*
X123753106Y-64350442D01*
X123770040Y-64366786D01*
X123792849Y-64415875D01*
X123793891Y-64431449D01*
X123794716Y-64434727D01*
X123794716Y-64434729D01*
X123796827Y-64443119D01*
X123799100Y-64461466D01*
X123799100Y-66999993D01*
X123781507Y-67048331D01*
X123777074Y-67053167D01*
X123260802Y-67569438D01*
X122749056Y-68081184D01*
X122733394Y-68093186D01*
X122727867Y-68096367D01*
X122727862Y-68096370D01*
X122724666Y-68098210D01*
X122712914Y-68108488D01*
X122662075Y-68127069D01*
X122638583Y-68126652D01*
X122638310Y-68126647D01*
X122596725Y-68125757D01*
X122596656Y-68125756D01*
X122596515Y-68125753D01*
X122596366Y-68125752D01*
X122596305Y-68125751D01*
X122592606Y-68125723D01*
X122590040Y-68125704D01*
X122589867Y-68125705D01*
X122589830Y-68125705D01*
X122589726Y-68125706D01*
X122589402Y-68125708D01*
X122584419Y-68125812D01*
X122582737Y-68125847D01*
X122582713Y-68125848D01*
X122582553Y-68125851D01*
X122582419Y-68125856D01*
X122582374Y-68125857D01*
X122560021Y-68126652D01*
X122537996Y-68127435D01*
X122537501Y-68127465D01*
X122537490Y-68127466D01*
X122530829Y-68127876D01*
X122525890Y-68128180D01*
X122524691Y-68128285D01*
X122524256Y-68128334D01*
X122524259Y-68128334D01*
X122513272Y-68129579D01*
X122513250Y-68129582D01*
X122512807Y-68129632D01*
X122512330Y-68129698D01*
X122512310Y-68129701D01*
X122494450Y-68132190D01*
X122464916Y-68136305D01*
X122456909Y-68137685D01*
X122450687Y-68138757D01*
X122450664Y-68138761D01*
X122450051Y-68138867D01*
X122449325Y-68139016D01*
X122449136Y-68139055D01*
X122449122Y-68139058D01*
X122448583Y-68139169D01*
X122448033Y-68139301D01*
X122448019Y-68139304D01*
X122442499Y-68140628D01*
X122433799Y-68142714D01*
X122433214Y-68142875D01*
X122433185Y-68142882D01*
X122412385Y-68148591D01*
X122411941Y-68148712D01*
X122410569Y-68149079D01*
X122405678Y-68149723D01*
X122401121Y-68151610D01*
X122397483Y-68152585D01*
X122396084Y-68153065D01*
X122388941Y-68155025D01*
X122388532Y-68155194D01*
X122337446Y-68154227D01*
X122298674Y-68120422D01*
X122289300Y-68084062D01*
X122289300Y-63111440D01*
X122289708Y-63105881D01*
X122291256Y-63101372D01*
X122289353Y-63050684D01*
X122289300Y-63047864D01*
X122289300Y-63027607D01*
X122288666Y-63024203D01*
X122288347Y-63020751D01*
X122288519Y-63020735D01*
X122288074Y-63016617D01*
X122287250Y-62994657D01*
X122287249Y-62994654D01*
X122286989Y-62987718D01*
X122284248Y-62981337D01*
X122281258Y-62974377D01*
X122276424Y-62958465D01*
X122275036Y-62951016D01*
X122275035Y-62951014D01*
X122273764Y-62944189D01*
X122270122Y-62938280D01*
X122270121Y-62938278D01*
X122258587Y-62919566D01*
X122253509Y-62909790D01*
X122244191Y-62888100D01*
X122244188Y-62888095D01*
X122242094Y-62883221D01*
X122238016Y-62878256D01*
X122231482Y-62871722D01*
X122220640Y-62858007D01*
X122214085Y-62847372D01*
X122189117Y-62828386D01*
X122181461Y-62821701D01*
X121402814Y-62043054D01*
X121390812Y-62027392D01*
X121387631Y-62021865D01*
X121387631Y-62021864D01*
X121385788Y-62018663D01*
X121383358Y-62015885D01*
X121383352Y-62015876D01*
X121375512Y-62006912D01*
X121356930Y-61956074D01*
X121357346Y-61932618D01*
X121357351Y-61932342D01*
X121358241Y-61890743D01*
X121358246Y-61890515D01*
X121358296Y-61884070D01*
X121358292Y-61883419D01*
X121358148Y-61876538D01*
X121356564Y-61831994D01*
X121355819Y-61819890D01*
X121355714Y-61818691D01*
X121354367Y-61806809D01*
X121347695Y-61758923D01*
X121345123Y-61744008D01*
X121345007Y-61743443D01*
X121345001Y-61743413D01*
X121344939Y-61743113D01*
X121344935Y-61743095D01*
X121344818Y-61742527D01*
X121341284Y-61727795D01*
X121335425Y-61706445D01*
X121335332Y-61706100D01*
X121334921Y-61704565D01*
X121334277Y-61699678D01*
X121332391Y-61695125D01*
X121331411Y-61691470D01*
X121330933Y-61690075D01*
X121329597Y-61685206D01*
X121329595Y-61685199D01*
X121328977Y-61682948D01*
X121312971Y-61644267D01*
X121307638Y-61631380D01*
X121307636Y-61631375D01*
X121306743Y-61629218D01*
X121303893Y-61624204D01*
X121304018Y-61624133D01*
X121299091Y-61614730D01*
X121278525Y-61565081D01*
X121276641Y-61560532D01*
X121184955Y-61441045D01*
X121166412Y-61426816D01*
X121070471Y-61353198D01*
X121065468Y-61349359D01*
X120958192Y-61304924D01*
X120930871Y-61293607D01*
X120930869Y-61293607D01*
X120926322Y-61291723D01*
X120921444Y-61291081D01*
X120921441Y-61291080D01*
X120781884Y-61272707D01*
X120777000Y-61272064D01*
X120772116Y-61272707D01*
X120632559Y-61291080D01*
X120632556Y-61291081D01*
X120627678Y-61291723D01*
X120623131Y-61293607D01*
X120623129Y-61293607D01*
X120595808Y-61304924D01*
X120488532Y-61349359D01*
X120483529Y-61353198D01*
X120387589Y-61426816D01*
X120369045Y-61441045D01*
X120277359Y-61560532D01*
X120275475Y-61565081D01*
X120223701Y-61690075D01*
X120219723Y-61699678D01*
X120219081Y-61704556D01*
X120219080Y-61704559D01*
X120200707Y-61844116D01*
X120200064Y-61849000D01*
X120200707Y-61853884D01*
X120219080Y-61993436D01*
X120219723Y-61998322D01*
X120221607Y-62002869D01*
X120221607Y-62002871D01*
X120244446Y-62058008D01*
X120277359Y-62137468D01*
X120280357Y-62141375D01*
X120361959Y-62247721D01*
X120377427Y-62296780D01*
X120361959Y-62339279D01*
X120336204Y-62372844D01*
X120277359Y-62449532D01*
X120250726Y-62513830D01*
X120224962Y-62576031D01*
X120219723Y-62588678D01*
X120219081Y-62593556D01*
X120219080Y-62593559D01*
X120209284Y-62667969D01*
X120200064Y-62738000D01*
X120200707Y-62742884D01*
X120218358Y-62876952D01*
X120219723Y-62887322D01*
X120221607Y-62891869D01*
X120221607Y-62891871D01*
X120229364Y-62910597D01*
X120277359Y-63026468D01*
X120369045Y-63145955D01*
X120488532Y-63237641D01*
X120589629Y-63279517D01*
X120594484Y-63281735D01*
X120610946Y-63289975D01*
X120618065Y-63291928D01*
X120619474Y-63292412D01*
X120623123Y-63293390D01*
X120627678Y-63295277D01*
X120632566Y-63295921D01*
X120634318Y-63296390D01*
X120634656Y-63296482D01*
X120655799Y-63302284D01*
X120656386Y-63302425D01*
X120656406Y-63302430D01*
X120669893Y-63305666D01*
X120669903Y-63305668D01*
X120670523Y-63305817D01*
X120671132Y-63305943D01*
X120671139Y-63305944D01*
X120671211Y-63305959D01*
X120671994Y-63306120D01*
X120672555Y-63306217D01*
X120672572Y-63306220D01*
X120684198Y-63308225D01*
X120686916Y-63308694D01*
X120715986Y-63312744D01*
X120734310Y-63315298D01*
X120734330Y-63315301D01*
X120734807Y-63315367D01*
X120735250Y-63315417D01*
X120735272Y-63315420D01*
X120745101Y-63316534D01*
X120746691Y-63316714D01*
X120747890Y-63316819D01*
X120752829Y-63317123D01*
X120759490Y-63317533D01*
X120759501Y-63317534D01*
X120759996Y-63317564D01*
X120780786Y-63318303D01*
X120804374Y-63319142D01*
X120804419Y-63319143D01*
X120804553Y-63319148D01*
X120804713Y-63319151D01*
X120804737Y-63319152D01*
X120806419Y-63319187D01*
X120811402Y-63319291D01*
X120811726Y-63319293D01*
X120811830Y-63319294D01*
X120811867Y-63319294D01*
X120812040Y-63319295D01*
X120814606Y-63319276D01*
X120818305Y-63319248D01*
X120818366Y-63319247D01*
X120818515Y-63319246D01*
X120818656Y-63319243D01*
X120818725Y-63319242D01*
X120860310Y-63318352D01*
X120860583Y-63318347D01*
X120884072Y-63317930D01*
X120934912Y-63336512D01*
X120944116Y-63344561D01*
X120944119Y-63344564D01*
X120946663Y-63346788D01*
X120949561Y-63348521D01*
X120949565Y-63348524D01*
X120956993Y-63352966D01*
X120971572Y-63364332D01*
X121338674Y-63731434D01*
X121360414Y-63778054D01*
X121360700Y-63784608D01*
X121360700Y-76652560D01*
X121360292Y-76658119D01*
X121358744Y-76662628D01*
X121359005Y-76669568D01*
X121360647Y-76713315D01*
X121360700Y-76716136D01*
X121360700Y-76736393D01*
X121361334Y-76739797D01*
X121361653Y-76743249D01*
X121361481Y-76743265D01*
X121361926Y-76747383D01*
X121362750Y-76769343D01*
X121362751Y-76769346D01*
X121363011Y-76776282D01*
X121365752Y-76782661D01*
X121365752Y-76782663D01*
X121368742Y-76789623D01*
X121373576Y-76805535D01*
X121374964Y-76812984D01*
X121376236Y-76819811D01*
X121379878Y-76825720D01*
X121379879Y-76825722D01*
X121391413Y-76844434D01*
X121396491Y-76854210D01*
X121405808Y-76875897D01*
X121405810Y-76875900D01*
X121407906Y-76880779D01*
X121411985Y-76885744D01*
X121418516Y-76892275D01*
X121429357Y-76905989D01*
X121435915Y-76916628D01*
X121460896Y-76935624D01*
X121468543Y-76942302D01*
X121929186Y-77402946D01*
X121941186Y-77418606D01*
X121944365Y-77424130D01*
X121944371Y-77424138D01*
X121946212Y-77427337D01*
X121956489Y-77439088D01*
X121975069Y-77489924D01*
X121974649Y-77513603D01*
X121973753Y-77555470D01*
X121973703Y-77561882D01*
X121973707Y-77562548D01*
X121973851Y-77569461D01*
X121973865Y-77569849D01*
X121973865Y-77569856D01*
X121974657Y-77592116D01*
X121975435Y-77614005D01*
X121976180Y-77626109D01*
X121976285Y-77627308D01*
X121977632Y-77639190D01*
X121984304Y-77687076D01*
X121986876Y-77701991D01*
X121986992Y-77702556D01*
X121986998Y-77702586D01*
X121987045Y-77702810D01*
X121987181Y-77703472D01*
X121990716Y-77718207D01*
X121990862Y-77718738D01*
X121996536Y-77739415D01*
X121996651Y-77739840D01*
X121997080Y-77741439D01*
X121997723Y-77746322D01*
X121999608Y-77750871D01*
X122000591Y-77754536D01*
X122001068Y-77755925D01*
X122003024Y-77763055D01*
X122025257Y-77816782D01*
X122026412Y-77818814D01*
X122026413Y-77818816D01*
X122028107Y-77821796D01*
X122027982Y-77821867D01*
X122032909Y-77831270D01*
X122055359Y-77885468D01*
X122147045Y-78004955D01*
X122266532Y-78096641D01*
X122311007Y-78115063D01*
X122401129Y-78152393D01*
X122401131Y-78152393D01*
X122405678Y-78154277D01*
X122410556Y-78154919D01*
X122410559Y-78154920D01*
X122550116Y-78173293D01*
X122555000Y-78173936D01*
X122559884Y-78173293D01*
X122699441Y-78154920D01*
X122699444Y-78154919D01*
X122704322Y-78154277D01*
X122708869Y-78152393D01*
X122708871Y-78152393D01*
X122798993Y-78115063D01*
X122843468Y-78096641D01*
X122962955Y-78004955D01*
X123054641Y-77885468D01*
X123105346Y-77763055D01*
X123110393Y-77750871D01*
X123110393Y-77750869D01*
X123112277Y-77746322D01*
X123113131Y-77739840D01*
X123131293Y-77601884D01*
X123131936Y-77597000D01*
X123127372Y-77562334D01*
X123112920Y-77452559D01*
X123112919Y-77452556D01*
X123112277Y-77447678D01*
X123093749Y-77402946D01*
X123056525Y-77313081D01*
X123054641Y-77308532D01*
X122962955Y-77189045D01*
X122843468Y-77097359D01*
X122838923Y-77095476D01*
X122838917Y-77095473D01*
X122742391Y-77055492D01*
X122737502Y-77053259D01*
X122724352Y-77046675D01*
X122724347Y-77046673D01*
X122721053Y-77045024D01*
X122713923Y-77043067D01*
X122712510Y-77042583D01*
X122708879Y-77041610D01*
X122704322Y-77039723D01*
X122699438Y-77039080D01*
X122697907Y-77038670D01*
X122697469Y-77038551D01*
X122676819Y-77032884D01*
X122676769Y-77032871D01*
X122676200Y-77032715D01*
X122675610Y-77032574D01*
X122675585Y-77032567D01*
X122662106Y-77029333D01*
X122662096Y-77029331D01*
X122661476Y-77029182D01*
X122660867Y-77029056D01*
X122660860Y-77029055D01*
X122660788Y-77029040D01*
X122660005Y-77028879D01*
X122659444Y-77028782D01*
X122659427Y-77028779D01*
X122645674Y-77026407D01*
X122645677Y-77026407D01*
X122645083Y-77026305D01*
X122616013Y-77022255D01*
X122597689Y-77019701D01*
X122597669Y-77019698D01*
X122597192Y-77019632D01*
X122596749Y-77019582D01*
X122596727Y-77019579D01*
X122585740Y-77018334D01*
X122585743Y-77018334D01*
X122585308Y-77018285D01*
X122584109Y-77018180D01*
X122579170Y-77017876D01*
X122572509Y-77017466D01*
X122572498Y-77017465D01*
X122572003Y-77017435D01*
X122549978Y-77016652D01*
X122527625Y-77015857D01*
X122527580Y-77015856D01*
X122527446Y-77015851D01*
X122527286Y-77015848D01*
X122527262Y-77015847D01*
X122525580Y-77015812D01*
X122520597Y-77015708D01*
X122520273Y-77015706D01*
X122520169Y-77015705D01*
X122520132Y-77015705D01*
X122519959Y-77015704D01*
X122517393Y-77015723D01*
X122513694Y-77015751D01*
X122513633Y-77015752D01*
X122513484Y-77015753D01*
X122513343Y-77015756D01*
X122513274Y-77015757D01*
X122471689Y-77016647D01*
X122471416Y-77016652D01*
X122447926Y-77017069D01*
X122397088Y-76998489D01*
X122385337Y-76988212D01*
X122382443Y-76986481D01*
X122382437Y-76986477D01*
X122375007Y-76982034D01*
X122360428Y-76970668D01*
X121993326Y-76603566D01*
X121971586Y-76556946D01*
X121971300Y-76550392D01*
X121971300Y-75455977D01*
X121988893Y-75407639D01*
X122033442Y-75381919D01*
X122084100Y-75390852D01*
X122099674Y-75402803D01*
X125535410Y-78838539D01*
X125544072Y-78848919D01*
X125555385Y-78865266D01*
X125558036Y-78867831D01*
X125558036Y-78867832D01*
X125624007Y-78931685D01*
X125640650Y-78947794D01*
X125643535Y-78950540D01*
X125643845Y-78950830D01*
X125647171Y-78953882D01*
X125647227Y-78953932D01*
X125647277Y-78953978D01*
X125701429Y-79002712D01*
X125728739Y-79027290D01*
X125728774Y-79027321D01*
X125728821Y-79027363D01*
X125732334Y-79030458D01*
X125732383Y-79030501D01*
X125732719Y-79030791D01*
X125735787Y-79033394D01*
X125807953Y-79093547D01*
X125810954Y-79096006D01*
X125811036Y-79096072D01*
X125811085Y-79096112D01*
X125811181Y-79096189D01*
X125811263Y-79096255D01*
X125814447Y-79098775D01*
X125826991Y-79108529D01*
X125827964Y-79109286D01*
X125855321Y-79152848D01*
X125857000Y-79168649D01*
X125857000Y-82063692D01*
X125839407Y-82112030D01*
X125794858Y-82137750D01*
X125744200Y-82128817D01*
X125728626Y-82116866D01*
X123620355Y-80008595D01*
X123612906Y-79999917D01*
X123602117Y-79985217D01*
X123602115Y-79985215D01*
X123598222Y-79979911D01*
X123576027Y-79965096D01*
X123570540Y-79961061D01*
X123523880Y-79923368D01*
X123523876Y-79923366D01*
X123521437Y-79921395D01*
X123437524Y-79874204D01*
X123378127Y-79852853D01*
X123371823Y-79850258D01*
X123347636Y-79838988D01*
X123341080Y-79838417D01*
X123340353Y-79838222D01*
X123333369Y-79835903D01*
X123332743Y-79835751D01*
X123327819Y-79833786D01*
X123321424Y-79833159D01*
X123284048Y-79833159D01*
X123277517Y-79832875D01*
X123246930Y-79830208D01*
X123246928Y-79830208D01*
X123240377Y-79829637D01*
X123234025Y-79831341D01*
X123227467Y-79831917D01*
X123227459Y-79831825D01*
X123217335Y-79833159D01*
X123136178Y-79833159D01*
X123116622Y-79830571D01*
X123106890Y-79827950D01*
X123091206Y-79826902D01*
X123042053Y-79804033D01*
X123025880Y-79787239D01*
X123025810Y-79787166D01*
X122996857Y-79756840D01*
X122992312Y-79752210D01*
X122991871Y-79751773D01*
X122991688Y-79751597D01*
X122991630Y-79751540D01*
X122989221Y-79749221D01*
X122987074Y-79747153D01*
X122954459Y-79716623D01*
X122945403Y-79708575D01*
X122944490Y-79707805D01*
X122935291Y-79700435D01*
X122896734Y-79671107D01*
X122896306Y-79670803D01*
X122896286Y-79670788D01*
X122884909Y-79662700D01*
X122884904Y-79662697D01*
X122884432Y-79662361D01*
X122883959Y-79662047D01*
X122883934Y-79662030D01*
X122883676Y-79661859D01*
X122883659Y-79661848D01*
X122883178Y-79661529D01*
X122877015Y-79657720D01*
X122870905Y-79653942D01*
X122870883Y-79653929D01*
X122870393Y-79653626D01*
X122851927Y-79643015D01*
X122851611Y-79642804D01*
X122847379Y-79640360D01*
X122843468Y-79637359D01*
X122838917Y-79635474D01*
X122835197Y-79633326D01*
X122834304Y-79632887D01*
X122830000Y-79630414D01*
X122776444Y-79607947D01*
X122770894Y-79606394D01*
X122770922Y-79606295D01*
X122760731Y-79603088D01*
X122708874Y-79581608D01*
X122708871Y-79581607D01*
X122704322Y-79579723D01*
X122699440Y-79579080D01*
X122699439Y-79579080D01*
X122559884Y-79560707D01*
X122555000Y-79560064D01*
X122550116Y-79560707D01*
X122410559Y-79579080D01*
X122410556Y-79579081D01*
X122405678Y-79579723D01*
X122401131Y-79581607D01*
X122401129Y-79581607D01*
X122401127Y-79581608D01*
X122266532Y-79637359D01*
X122147045Y-79729045D01*
X122055359Y-79848532D01*
X122044087Y-79875746D01*
X122013355Y-79949940D01*
X121997723Y-79987678D01*
X121997081Y-79992556D01*
X121997080Y-79992559D01*
X121978707Y-80132116D01*
X121978064Y-80137000D01*
X121997723Y-80286322D01*
X122055359Y-80425468D01*
X122147045Y-80544955D01*
X122150952Y-80547953D01*
X122167550Y-80560689D01*
X122266532Y-80636641D01*
X122309042Y-80654249D01*
X122401129Y-80692393D01*
X122401131Y-80692393D01*
X122405678Y-80694277D01*
X122410556Y-80694919D01*
X122410559Y-80694920D01*
X122429726Y-80697443D01*
X122475353Y-80721196D01*
X122495038Y-80768720D01*
X122479570Y-80817779D01*
X122436186Y-80845417D01*
X122429726Y-80846557D01*
X122410559Y-80849080D01*
X122410556Y-80849081D01*
X122405678Y-80849723D01*
X122401131Y-80851607D01*
X122401129Y-80851607D01*
X122336105Y-80878541D01*
X122266532Y-80907359D01*
X122147045Y-80999045D01*
X122055359Y-81118532D01*
X122053475Y-81123081D01*
X122001122Y-81249473D01*
X121997723Y-81257678D01*
X121997081Y-81262556D01*
X121997080Y-81262559D01*
X121978707Y-81402116D01*
X121978064Y-81407000D01*
X121978707Y-81411884D01*
X121996016Y-81543354D01*
X121997723Y-81556322D01*
X121999607Y-81560869D01*
X121999607Y-81560871D01*
X122016467Y-81601574D01*
X122055359Y-81695468D01*
X122147045Y-81814955D01*
X122266532Y-81906641D01*
X122367629Y-81948517D01*
X122372484Y-81950735D01*
X122388946Y-81958975D01*
X122396065Y-81960928D01*
X122397474Y-81961412D01*
X122401123Y-81962390D01*
X122405678Y-81964277D01*
X122410566Y-81964921D01*
X122412318Y-81965390D01*
X122412751Y-81965508D01*
X122431307Y-81970600D01*
X122473266Y-82000358D01*
X122486280Y-82050124D01*
X122464260Y-82096613D01*
X122421225Y-82117675D01*
X122410565Y-82119079D01*
X122410561Y-82119080D01*
X122405678Y-82119723D01*
X122401131Y-82121607D01*
X122401129Y-82121607D01*
X122392233Y-82125292D01*
X122266532Y-82177359D01*
X122147045Y-82269045D01*
X122055359Y-82388532D01*
X122053475Y-82393081D01*
X122000506Y-82520960D01*
X121997723Y-82527678D01*
X121997081Y-82532556D01*
X121997080Y-82532559D01*
X121978707Y-82672116D01*
X121978064Y-82677000D01*
X121978707Y-82681884D01*
X121996016Y-82813354D01*
X121997723Y-82826322D01*
X121999607Y-82830869D01*
X121999607Y-82830871D01*
X122016467Y-82871574D01*
X122055359Y-82965468D01*
X122147045Y-83084955D01*
X122266532Y-83176641D01*
X122367629Y-83218517D01*
X122372484Y-83220735D01*
X122388946Y-83228975D01*
X122396065Y-83230928D01*
X122397474Y-83231412D01*
X122401123Y-83232390D01*
X122405678Y-83234277D01*
X122410566Y-83234921D01*
X122412318Y-83235390D01*
X122412656Y-83235482D01*
X122433799Y-83241284D01*
X122434386Y-83241425D01*
X122434406Y-83241430D01*
X122447893Y-83244666D01*
X122447903Y-83244668D01*
X122448523Y-83244817D01*
X122449132Y-83244943D01*
X122449139Y-83244944D01*
X122449211Y-83244959D01*
X122449994Y-83245120D01*
X122450555Y-83245217D01*
X122450572Y-83245220D01*
X122462198Y-83247225D01*
X122464916Y-83247694D01*
X122493986Y-83251744D01*
X122512310Y-83254298D01*
X122512330Y-83254301D01*
X122512807Y-83254367D01*
X122513250Y-83254417D01*
X122513272Y-83254420D01*
X122523101Y-83255534D01*
X122524691Y-83255714D01*
X122525890Y-83255819D01*
X122530829Y-83256123D01*
X122537490Y-83256533D01*
X122537501Y-83256534D01*
X122537996Y-83256564D01*
X122558786Y-83257303D01*
X122582374Y-83258142D01*
X122582419Y-83258143D01*
X122582553Y-83258148D01*
X122582713Y-83258151D01*
X122582737Y-83258152D01*
X122584419Y-83258187D01*
X122589402Y-83258291D01*
X122589726Y-83258293D01*
X122589830Y-83258294D01*
X122589867Y-83258294D01*
X122590040Y-83258295D01*
X122592606Y-83258276D01*
X122596305Y-83258248D01*
X122596366Y-83258247D01*
X122596515Y-83258246D01*
X122596656Y-83258243D01*
X122596725Y-83258242D01*
X122638310Y-83257352D01*
X122638583Y-83257347D01*
X122662072Y-83256930D01*
X122712912Y-83275512D01*
X122722111Y-83283557D01*
X122722117Y-83283561D01*
X122724663Y-83285788D01*
X122727562Y-83287522D01*
X122727564Y-83287523D01*
X122734996Y-83291967D01*
X122749575Y-83303334D01*
X124767674Y-85321433D01*
X124789414Y-85368053D01*
X124789700Y-85374607D01*
X124789700Y-86939560D01*
X124789292Y-86945119D01*
X124787744Y-86949628D01*
X124788661Y-86974043D01*
X124789647Y-87000315D01*
X124789700Y-87003136D01*
X124789700Y-87023393D01*
X124790334Y-87026797D01*
X124790653Y-87030249D01*
X124790481Y-87030265D01*
X124790926Y-87034383D01*
X124791750Y-87056343D01*
X124791751Y-87056346D01*
X124792011Y-87063282D01*
X124794752Y-87069661D01*
X124794752Y-87069663D01*
X124797742Y-87076623D01*
X124802576Y-87092535D01*
X124803964Y-87099984D01*
X124805236Y-87106811D01*
X124808878Y-87112720D01*
X124808879Y-87112722D01*
X124820413Y-87131434D01*
X124825491Y-87141210D01*
X124834808Y-87162897D01*
X124834810Y-87162900D01*
X124836906Y-87167779D01*
X124840985Y-87172744D01*
X124847516Y-87179275D01*
X124858357Y-87192989D01*
X124864915Y-87203628D01*
X124889896Y-87222624D01*
X124897543Y-87229302D01*
X125834974Y-88166733D01*
X125856714Y-88213353D01*
X125857000Y-88219907D01*
X125857000Y-91714468D01*
X125856357Y-91724284D01*
X125837520Y-91867361D01*
X125832439Y-91886323D01*
X125779117Y-92015055D01*
X125769301Y-92032056D01*
X125684479Y-92142598D01*
X125670600Y-92156477D01*
X125560056Y-92241301D01*
X125543055Y-92251117D01*
X125414323Y-92304439D01*
X125395361Y-92309520D01*
X125252284Y-92328357D01*
X125242468Y-92329000D01*
X113517532Y-92329000D01*
X113507716Y-92328357D01*
X113364639Y-92309520D01*
X113345677Y-92304439D01*
X113216945Y-92251117D01*
X113199944Y-92241301D01*
X113089400Y-92156477D01*
X113075521Y-92142598D01*
X112990699Y-92032056D01*
X112980883Y-92015055D01*
X112927561Y-91886323D01*
X112922480Y-91867361D01*
X112903643Y-91724284D01*
X112903000Y-91714468D01*
X112903000Y-90043000D01*
X120200064Y-90043000D01*
X120219723Y-90192322D01*
X120277359Y-90331468D01*
X120369045Y-90450955D01*
X120488532Y-90542641D01*
X120524101Y-90557374D01*
X120623129Y-90598393D01*
X120623131Y-90598393D01*
X120627678Y-90600277D01*
X120632556Y-90600919D01*
X120632559Y-90600920D01*
X120772116Y-90619293D01*
X120777000Y-90619936D01*
X120781884Y-90619293D01*
X120921441Y-90600920D01*
X120921444Y-90600919D01*
X120926322Y-90600277D01*
X120930873Y-90598392D01*
X121027417Y-90558403D01*
X121032451Y-90556526D01*
X121046372Y-90551894D01*
X121046382Y-90551890D01*
X121049888Y-90550723D01*
X121056305Y-90547070D01*
X121057664Y-90546404D01*
X121060917Y-90544526D01*
X121065468Y-90542641D01*
X121069376Y-90539643D01*
X121070987Y-90538713D01*
X121071375Y-90538490D01*
X121089789Y-90528006D01*
X121089800Y-90528000D01*
X121090312Y-90527708D01*
X121090805Y-90527406D01*
X121090820Y-90527397D01*
X121102690Y-90520122D01*
X121102691Y-90520121D01*
X121103186Y-90519818D01*
X121103667Y-90519501D01*
X121103685Y-90519490D01*
X121103903Y-90519346D01*
X121104438Y-90518994D01*
X121116845Y-90510239D01*
X121155438Y-90481085D01*
X121164898Y-90473547D01*
X121165804Y-90472786D01*
X121174781Y-90464845D01*
X121207400Y-90434467D01*
X121212332Y-90429738D01*
X121212806Y-90429270D01*
X121212872Y-90429203D01*
X121212916Y-90429159D01*
X121214938Y-90427106D01*
X121217367Y-90424640D01*
X121246442Y-90394293D01*
X121262785Y-90377359D01*
X121311875Y-90354550D01*
X121324075Y-90353734D01*
X121324078Y-90353734D01*
X121327449Y-90353508D01*
X121338786Y-90350656D01*
X121364106Y-90349390D01*
X121366628Y-90350256D01*
X121417316Y-90348353D01*
X121420136Y-90348300D01*
X121440393Y-90348300D01*
X121443797Y-90347666D01*
X121447249Y-90347347D01*
X121447265Y-90347519D01*
X121451383Y-90347074D01*
X121473343Y-90346250D01*
X121473346Y-90346249D01*
X121480282Y-90345989D01*
X121486661Y-90343248D01*
X121486663Y-90343248D01*
X121493623Y-90340258D01*
X121509535Y-90335424D01*
X121523058Y-90332905D01*
X121573800Y-90341349D01*
X121607244Y-90380436D01*
X121632438Y-90447641D01*
X121635648Y-90451924D01*
X121635649Y-90451926D01*
X121705213Y-90544746D01*
X121714741Y-90557459D01*
X121719024Y-90560669D01*
X121820274Y-90636551D01*
X121820276Y-90636552D01*
X121824559Y-90639762D01*
X121829571Y-90641641D01*
X121829573Y-90641642D01*
X121948646Y-90686281D01*
X121948650Y-90686282D01*
X121953062Y-90687936D01*
X121957748Y-90688445D01*
X121957752Y-90688446D01*
X122009617Y-90694080D01*
X122009623Y-90694080D01*
X122011645Y-90694300D01*
X122681835Y-90694300D01*
X123352354Y-90694299D01*
X123354375Y-90694079D01*
X123354384Y-90694079D01*
X123386939Y-90690543D01*
X123410938Y-90687936D01*
X123415353Y-90686281D01*
X123534427Y-90641642D01*
X123534429Y-90641641D01*
X123539441Y-90639762D01*
X123543724Y-90636552D01*
X123543726Y-90636551D01*
X123644976Y-90560669D01*
X123649259Y-90557459D01*
X123658787Y-90544746D01*
X123728351Y-90451926D01*
X123728352Y-90451924D01*
X123731562Y-90447641D01*
X123733442Y-90442627D01*
X123778081Y-90323554D01*
X123778082Y-90323550D01*
X123779736Y-90319138D01*
X123780245Y-90314452D01*
X123780246Y-90314448D01*
X123785880Y-90262583D01*
X123785880Y-90262577D01*
X123786100Y-90260555D01*
X123786099Y-89469846D01*
X123785385Y-89463265D01*
X123780245Y-89415951D01*
X123779736Y-89411262D01*
X123755139Y-89345650D01*
X123733442Y-89287773D01*
X123733441Y-89287771D01*
X123731562Y-89282759D01*
X123724323Y-89273099D01*
X123652469Y-89177224D01*
X123649259Y-89172941D01*
X123640134Y-89166102D01*
X123543726Y-89093849D01*
X123543724Y-89093848D01*
X123539441Y-89090638D01*
X123534429Y-89088759D01*
X123534427Y-89088758D01*
X123415354Y-89044119D01*
X123415350Y-89044118D01*
X123410938Y-89042464D01*
X123406252Y-89041955D01*
X123406248Y-89041954D01*
X123354383Y-89036320D01*
X123354377Y-89036320D01*
X123352355Y-89036100D01*
X122682165Y-89036100D01*
X122011646Y-89036101D01*
X122009625Y-89036321D01*
X122009616Y-89036321D01*
X121977061Y-89039857D01*
X121953062Y-89042464D01*
X121948648Y-89044119D01*
X121948647Y-89044119D01*
X121829573Y-89088758D01*
X121829571Y-89088759D01*
X121824559Y-89090638D01*
X121820276Y-89093848D01*
X121820274Y-89093849D01*
X121723866Y-89166102D01*
X121714741Y-89172941D01*
X121711531Y-89177224D01*
X121639678Y-89273099D01*
X121632438Y-89282759D01*
X121630559Y-89287771D01*
X121630558Y-89287773D01*
X121588905Y-89398883D01*
X121584264Y-89411262D01*
X121583755Y-89415948D01*
X121583754Y-89415952D01*
X121578120Y-89467816D01*
X121577900Y-89469845D01*
X121577900Y-89490669D01*
X121560307Y-89539007D01*
X121522260Y-89562183D01*
X121521518Y-89562211D01*
X121515143Y-89564950D01*
X121515138Y-89564951D01*
X121508177Y-89567942D01*
X121492265Y-89572776D01*
X121484816Y-89574164D01*
X121484814Y-89574165D01*
X121477989Y-89575436D01*
X121472080Y-89579078D01*
X121472078Y-89579079D01*
X121453366Y-89590613D01*
X121443590Y-89595691D01*
X121421903Y-89605008D01*
X121421900Y-89605010D01*
X121417021Y-89607106D01*
X121412056Y-89611185D01*
X121405525Y-89617716D01*
X121391811Y-89628557D01*
X121381172Y-89635115D01*
X121376972Y-89640638D01*
X121362180Y-89660090D01*
X121355495Y-89667745D01*
X121342402Y-89680838D01*
X121295782Y-89702578D01*
X121246095Y-89689264D01*
X121234932Y-89679692D01*
X121217367Y-89661359D01*
X121214938Y-89658893D01*
X121212916Y-89656840D01*
X121212882Y-89656806D01*
X121212806Y-89656729D01*
X121212332Y-89656261D01*
X121207402Y-89651534D01*
X121189192Y-89634575D01*
X121185424Y-89630807D01*
X121168465Y-89612597D01*
X121163738Y-89607667D01*
X121163270Y-89607193D01*
X121163182Y-89607106D01*
X121163159Y-89607083D01*
X121161052Y-89605008D01*
X121158640Y-89602632D01*
X121128398Y-89573658D01*
X121128246Y-89573511D01*
X121111360Y-89557214D01*
X121088550Y-89508124D01*
X121087734Y-89495925D01*
X121087734Y-89495922D01*
X121087508Y-89492551D01*
X121084573Y-89480884D01*
X121082300Y-89462538D01*
X121082300Y-88590729D01*
X121084890Y-88571164D01*
X121086547Y-88565014D01*
X121087508Y-88561449D01*
X121087935Y-88555077D01*
X121088550Y-88545875D01*
X121111359Y-88496786D01*
X121128293Y-88480442D01*
X121158640Y-88451367D01*
X121161106Y-88448938D01*
X121163159Y-88446916D01*
X121163193Y-88446882D01*
X121163270Y-88446806D01*
X121163738Y-88446332D01*
X121168467Y-88441400D01*
X121198845Y-88408781D01*
X121206786Y-88399804D01*
X121207547Y-88398898D01*
X121215085Y-88389438D01*
X121244239Y-88350845D01*
X121252994Y-88338438D01*
X121253818Y-88337186D01*
X121255357Y-88334675D01*
X121261397Y-88324820D01*
X121261406Y-88324805D01*
X121261708Y-88324312D01*
X121262036Y-88323737D01*
X121272490Y-88305375D01*
X121272713Y-88304987D01*
X121273644Y-88303375D01*
X121276641Y-88299468D01*
X121278526Y-88294917D01*
X121280404Y-88291664D01*
X121281071Y-88290302D01*
X121284723Y-88283888D01*
X121306992Y-88230183D01*
X121308522Y-88224624D01*
X121308661Y-88224662D01*
X121311827Y-88214522D01*
X121332391Y-88164877D01*
X121332392Y-88164872D01*
X121334277Y-88160322D01*
X121343107Y-88093258D01*
X121353293Y-88015884D01*
X121353936Y-88011000D01*
X121344656Y-87940515D01*
X121334920Y-87866559D01*
X121334919Y-87866556D01*
X121334277Y-87861678D01*
X121316452Y-87818645D01*
X121574311Y-87818645D01*
X121574524Y-87822712D01*
X121574524Y-87822715D01*
X121576328Y-87857129D01*
X121583739Y-87998539D01*
X121584821Y-88002466D01*
X121584821Y-88002468D01*
X121593390Y-88033577D01*
X121631577Y-88172212D01*
X121715592Y-88331561D01*
X121718221Y-88334672D01*
X121718223Y-88334675D01*
X121780628Y-88408521D01*
X121831865Y-88469151D01*
X121835097Y-88471622D01*
X121835098Y-88471623D01*
X121956876Y-88564729D01*
X121974971Y-88578564D01*
X122106934Y-88640099D01*
X122127795Y-88649827D01*
X122138234Y-88654695D01*
X122142205Y-88655583D01*
X122142206Y-88655583D01*
X122311029Y-88693320D01*
X122311031Y-88693320D01*
X122314036Y-88693992D01*
X122317111Y-88694164D01*
X122317112Y-88694164D01*
X122317328Y-88694176D01*
X122319546Y-88694300D01*
X123002004Y-88694300D01*
X123004027Y-88694080D01*
X123004031Y-88694080D01*
X123070633Y-88686845D01*
X123136087Y-88679734D01*
X123139950Y-88678434D01*
X123302960Y-88623575D01*
X123302965Y-88623573D01*
X123306818Y-88622276D01*
X123310304Y-88620181D01*
X123310307Y-88620180D01*
X123457743Y-88531592D01*
X123457746Y-88531590D01*
X123461229Y-88529497D01*
X123592115Y-88405725D01*
X123597029Y-88398495D01*
X123673533Y-88285922D01*
X123693369Y-88256734D01*
X123710253Y-88214522D01*
X123728747Y-88168283D01*
X123760267Y-88089476D01*
X123789689Y-87911755D01*
X123789223Y-87902850D01*
X123782614Y-87776751D01*
X123780261Y-87731861D01*
X123778945Y-87727081D01*
X123733505Y-87562117D01*
X123732423Y-87558188D01*
X123648408Y-87398839D01*
X123645779Y-87395728D01*
X123645777Y-87395725D01*
X123534762Y-87264358D01*
X123532135Y-87261249D01*
X123462264Y-87207828D01*
X123392261Y-87154307D01*
X123389029Y-87151836D01*
X123250666Y-87087316D01*
X123229457Y-87077426D01*
X123229456Y-87077426D01*
X123225766Y-87075705D01*
X123221795Y-87074817D01*
X123221794Y-87074817D01*
X123052971Y-87037080D01*
X123052969Y-87037080D01*
X123049964Y-87036408D01*
X123046889Y-87036236D01*
X123046888Y-87036236D01*
X123046672Y-87036224D01*
X123044454Y-87036100D01*
X122361996Y-87036100D01*
X122359973Y-87036320D01*
X122359969Y-87036320D01*
X122293367Y-87043555D01*
X122227913Y-87050666D01*
X122224050Y-87051966D01*
X122061040Y-87106825D01*
X122061035Y-87106827D01*
X122057182Y-87108124D01*
X122053696Y-87110219D01*
X122053693Y-87110220D01*
X121906257Y-87198808D01*
X121906254Y-87198810D01*
X121902771Y-87200903D01*
X121771885Y-87324675D01*
X121670631Y-87473666D01*
X121669119Y-87477445D01*
X121669119Y-87477446D01*
X121655555Y-87511359D01*
X121603733Y-87640924D01*
X121574311Y-87818645D01*
X121316452Y-87818645D01*
X121276641Y-87722532D01*
X121184955Y-87603045D01*
X121065468Y-87511359D01*
X120966338Y-87470298D01*
X120930871Y-87455607D01*
X120930869Y-87455607D01*
X120926322Y-87453723D01*
X120921444Y-87453081D01*
X120921441Y-87453080D01*
X120781884Y-87434707D01*
X120777000Y-87434064D01*
X120772116Y-87434707D01*
X120632559Y-87453080D01*
X120632556Y-87453081D01*
X120627678Y-87453723D01*
X120623131Y-87455607D01*
X120623129Y-87455607D01*
X120587662Y-87470298D01*
X120488532Y-87511359D01*
X120369045Y-87603045D01*
X120277359Y-87722532D01*
X120219723Y-87861678D01*
X120219081Y-87866556D01*
X120219080Y-87866559D01*
X120209344Y-87940515D01*
X120200064Y-88011000D01*
X120200707Y-88015884D01*
X120210894Y-88093258D01*
X120219723Y-88160322D01*
X120221607Y-88164871D01*
X120221608Y-88164874D01*
X120261592Y-88261405D01*
X120263470Y-88266440D01*
X120269276Y-88283889D01*
X120272931Y-88290308D01*
X120273584Y-88291643D01*
X120275473Y-88294915D01*
X120277359Y-88299468D01*
X120280358Y-88303376D01*
X120281198Y-88304832D01*
X120281422Y-88305223D01*
X120292287Y-88324306D01*
X120296736Y-88331561D01*
X120298646Y-88334675D01*
X120300232Y-88337262D01*
X120301064Y-88338525D01*
X120309762Y-88350847D01*
X120310102Y-88351297D01*
X120310118Y-88351319D01*
X120322957Y-88368315D01*
X120338911Y-88389435D01*
X120346452Y-88398898D01*
X120347213Y-88399804D01*
X120355154Y-88408781D01*
X120385532Y-88441400D01*
X120390261Y-88446332D01*
X120390729Y-88446806D01*
X120390806Y-88446882D01*
X120390840Y-88446916D01*
X120392893Y-88448938D01*
X120395359Y-88451367D01*
X120425706Y-88480442D01*
X120442640Y-88496786D01*
X120465449Y-88545875D01*
X120466065Y-88555077D01*
X120466491Y-88561449D01*
X120467316Y-88564727D01*
X120467316Y-88564729D01*
X120469427Y-88573119D01*
X120471700Y-88591466D01*
X120471700Y-89463265D01*
X120469110Y-89482830D01*
X120466491Y-89492550D01*
X120466244Y-89496240D01*
X120466244Y-89496241D01*
X120465449Y-89508124D01*
X120442639Y-89557214D01*
X120425753Y-89573511D01*
X120425601Y-89573658D01*
X120395359Y-89602632D01*
X120392947Y-89605008D01*
X120390840Y-89607083D01*
X120390817Y-89607106D01*
X120390729Y-89607193D01*
X120390261Y-89607667D01*
X120390130Y-89607804D01*
X120390116Y-89607818D01*
X120387660Y-89610380D01*
X120385532Y-89612599D01*
X120385329Y-89612817D01*
X120385312Y-89612835D01*
X120367955Y-89631473D01*
X120355154Y-89645218D01*
X120347213Y-89654195D01*
X120346452Y-89655101D01*
X120338911Y-89664564D01*
X120338630Y-89664936D01*
X120310118Y-89702680D01*
X120310102Y-89702702D01*
X120309762Y-89703152D01*
X120309431Y-89703620D01*
X120309428Y-89703625D01*
X120301627Y-89714677D01*
X120301064Y-89715474D01*
X120300232Y-89716737D01*
X120292286Y-89729696D01*
X120291989Y-89730218D01*
X120281375Y-89748861D01*
X120281150Y-89749254D01*
X120280363Y-89750617D01*
X120277359Y-89754532D01*
X120275470Y-89759094D01*
X120273580Y-89762367D01*
X120272933Y-89763689D01*
X120269275Y-89770114D01*
X120247005Y-89823826D01*
X120245475Y-89829386D01*
X120245336Y-89829348D01*
X120242173Y-89839477D01*
X120219723Y-89893678D01*
X120200064Y-90043000D01*
X112903000Y-90043000D01*
X112903000Y-88219907D01*
X112920593Y-88171569D01*
X112925026Y-88166733D01*
X113369228Y-87722532D01*
X113841681Y-87250079D01*
X113845899Y-87246438D01*
X113850180Y-87244345D01*
X113884676Y-87207158D01*
X113886633Y-87205127D01*
X113900957Y-87190803D01*
X113902918Y-87187945D01*
X113905133Y-87185279D01*
X113905278Y-87185399D01*
X113907863Y-87182162D01*
X113922808Y-87166052D01*
X113922810Y-87166049D01*
X113927528Y-87160963D01*
X113932908Y-87147479D01*
X113940742Y-87132807D01*
X113945029Y-87126558D01*
X113948957Y-87120832D01*
X113950560Y-87114078D01*
X113950561Y-87114075D01*
X113955634Y-87092693D01*
X113958953Y-87082195D01*
X113969673Y-87055327D01*
X113970300Y-87048932D01*
X113970300Y-87039692D01*
X113972332Y-87022328D01*
X113973614Y-87016925D01*
X113975217Y-87010172D01*
X113974260Y-87003136D01*
X113970987Y-86979091D01*
X113970300Y-86968950D01*
X113970300Y-85374607D01*
X113987893Y-85326269D01*
X113992326Y-85321433D01*
X116010947Y-83302812D01*
X116026610Y-83290810D01*
X116032130Y-83287633D01*
X116032134Y-83287630D01*
X116035333Y-83285789D01*
X116047085Y-83275511D01*
X116097924Y-83256930D01*
X116121416Y-83257347D01*
X116121689Y-83257352D01*
X116163274Y-83258242D01*
X116163343Y-83258243D01*
X116163484Y-83258246D01*
X116163633Y-83258247D01*
X116163694Y-83258248D01*
X116167393Y-83258276D01*
X116169959Y-83258295D01*
X116170132Y-83258294D01*
X116170169Y-83258294D01*
X116170273Y-83258293D01*
X116170597Y-83258291D01*
X116175580Y-83258187D01*
X116177262Y-83258152D01*
X116177286Y-83258151D01*
X116177446Y-83258148D01*
X116177580Y-83258143D01*
X116177625Y-83258142D01*
X116201213Y-83257303D01*
X116222003Y-83256564D01*
X116222498Y-83256534D01*
X116222509Y-83256533D01*
X116229170Y-83256123D01*
X116234109Y-83255819D01*
X116235308Y-83255714D01*
X116236898Y-83255534D01*
X116246727Y-83254420D01*
X116246749Y-83254417D01*
X116247192Y-83254367D01*
X116247669Y-83254301D01*
X116247689Y-83254298D01*
X116266013Y-83251744D01*
X116295083Y-83247694D01*
X116297801Y-83247225D01*
X116309427Y-83245220D01*
X116309444Y-83245217D01*
X116310005Y-83245120D01*
X116311476Y-83244817D01*
X116325595Y-83241430D01*
X116325621Y-83241424D01*
X116326199Y-83241285D01*
X116326746Y-83241135D01*
X116326804Y-83241120D01*
X116347516Y-83235436D01*
X116347952Y-83235318D01*
X116349439Y-83234920D01*
X116354322Y-83234277D01*
X116358870Y-83232393D01*
X116362523Y-83231414D01*
X116363934Y-83230929D01*
X116371053Y-83228976D01*
X116424770Y-83206749D01*
X116429783Y-83203900D01*
X116429854Y-83204025D01*
X116439254Y-83199098D01*
X116493468Y-83176641D01*
X116612955Y-83084955D01*
X116704641Y-82965468D01*
X116743533Y-82871574D01*
X116760393Y-82830871D01*
X116760393Y-82830869D01*
X116762277Y-82826322D01*
X116763985Y-82813354D01*
X116781293Y-82681884D01*
X116781936Y-82677000D01*
X116781293Y-82672116D01*
X116762920Y-82532559D01*
X116762919Y-82532556D01*
X116762277Y-82527678D01*
X116759495Y-82520960D01*
X116706525Y-82393081D01*
X116704641Y-82388532D01*
X116612955Y-82269045D01*
X116493468Y-82177359D01*
X116367767Y-82125292D01*
X116358871Y-82121607D01*
X116358869Y-82121607D01*
X116354322Y-82119723D01*
X116349442Y-82119081D01*
X116349440Y-82119080D01*
X116338781Y-82117677D01*
X116293153Y-82093925D01*
X116273467Y-82046401D01*
X116288934Y-81997342D01*
X116328694Y-81970601D01*
X116347515Y-81965436D01*
X116347952Y-81965318D01*
X116349439Y-81964920D01*
X116354322Y-81964277D01*
X116358870Y-81962393D01*
X116362523Y-81961414D01*
X116363934Y-81960929D01*
X116371053Y-81958976D01*
X116424770Y-81936749D01*
X116429783Y-81933900D01*
X116429854Y-81934025D01*
X116439254Y-81929098D01*
X116493468Y-81906641D01*
X116612955Y-81814955D01*
X116704641Y-81695468D01*
X116743533Y-81601574D01*
X116760393Y-81560871D01*
X116760393Y-81560869D01*
X116762277Y-81556322D01*
X116763985Y-81543354D01*
X116781293Y-81411884D01*
X116781936Y-81407000D01*
X116781293Y-81402116D01*
X116762920Y-81262559D01*
X116762919Y-81262556D01*
X116762277Y-81257678D01*
X116758879Y-81249473D01*
X116706525Y-81123081D01*
X116704641Y-81118532D01*
X116612955Y-80999045D01*
X116493468Y-80907359D01*
X116423895Y-80878541D01*
X116358871Y-80851607D01*
X116358869Y-80851607D01*
X116354322Y-80849723D01*
X116349444Y-80849081D01*
X116349441Y-80849080D01*
X116330274Y-80846557D01*
X116284647Y-80822804D01*
X116264962Y-80775280D01*
X116280430Y-80726221D01*
X116323814Y-80698583D01*
X116330274Y-80697443D01*
X116349441Y-80694920D01*
X116349444Y-80694919D01*
X116354322Y-80694277D01*
X116358869Y-80692393D01*
X116358871Y-80692393D01*
X116450958Y-80654249D01*
X116493468Y-80636641D01*
X116592450Y-80560689D01*
X116609048Y-80547953D01*
X116612955Y-80544955D01*
X116704641Y-80425468D01*
X116762277Y-80286322D01*
X116781936Y-80137000D01*
X116781293Y-80132116D01*
X116762920Y-79992559D01*
X116762919Y-79992556D01*
X116762277Y-79987678D01*
X116746646Y-79949940D01*
X116715913Y-79875746D01*
X116704641Y-79848532D01*
X116612955Y-79729045D01*
X116493468Y-79637359D01*
X116358873Y-79581608D01*
X116358871Y-79581607D01*
X116358869Y-79581607D01*
X116354322Y-79579723D01*
X116349444Y-79579081D01*
X116349441Y-79579080D01*
X116209884Y-79560707D01*
X116205000Y-79560064D01*
X116200116Y-79560707D01*
X116060561Y-79579080D01*
X116060560Y-79579080D01*
X116055678Y-79579723D01*
X115950076Y-79623464D01*
X115945347Y-79625238D01*
X115930002Y-79630413D01*
X115926804Y-79632251D01*
X115926799Y-79632253D01*
X115925690Y-79632890D01*
X115924796Y-79633330D01*
X115921079Y-79635476D01*
X115916532Y-79637359D01*
X115912627Y-79640355D01*
X115908398Y-79642796D01*
X115908074Y-79643012D01*
X115890174Y-79653299D01*
X115890140Y-79653319D01*
X115889608Y-79653625D01*
X115876821Y-79661529D01*
X115876324Y-79661859D01*
X115876315Y-79661865D01*
X115876065Y-79662030D01*
X115876040Y-79662047D01*
X115875567Y-79662361D01*
X115875095Y-79662697D01*
X115875090Y-79662700D01*
X115863713Y-79670788D01*
X115863693Y-79670803D01*
X115863265Y-79671107D01*
X115824708Y-79700435D01*
X115815509Y-79707805D01*
X115814596Y-79708575D01*
X115805540Y-79716623D01*
X115772925Y-79747153D01*
X115770778Y-79749221D01*
X115768369Y-79751540D01*
X115768311Y-79751597D01*
X115768128Y-79751773D01*
X115767687Y-79752210D01*
X115763142Y-79756840D01*
X115734189Y-79787166D01*
X115734119Y-79787239D01*
X115717946Y-79804033D01*
X115668793Y-79826902D01*
X115653110Y-79827950D01*
X115649838Y-79828773D01*
X115641429Y-79830888D01*
X115623086Y-79833159D01*
X115542665Y-79833159D01*
X115532541Y-79831825D01*
X115532533Y-79831917D01*
X115525975Y-79831341D01*
X115519623Y-79829637D01*
X115513072Y-79830208D01*
X115513070Y-79830208D01*
X115482483Y-79832875D01*
X115475952Y-79833159D01*
X115464115Y-79833159D01*
X115454408Y-79834967D01*
X115447178Y-79835953D01*
X115435794Y-79836946D01*
X115412364Y-79838988D01*
X115406399Y-79841768D01*
X115403707Y-79842488D01*
X115389385Y-79847077D01*
X115380697Y-79848695D01*
X115373582Y-79853081D01*
X115369531Y-79855578D01*
X115355509Y-79862330D01*
X115322476Y-79874204D01*
X115238563Y-79921395D01*
X115236124Y-79923366D01*
X115236120Y-79923368D01*
X115222023Y-79934756D01*
X115212404Y-79940556D01*
X115212678Y-79941006D01*
X115208146Y-79943764D01*
X115203266Y-79945861D01*
X115198301Y-79949940D01*
X115186734Y-79961507D01*
X115175314Y-79970876D01*
X115161778Y-79979911D01*
X115157885Y-79985215D01*
X115157883Y-79985217D01*
X115147091Y-79999921D01*
X115139642Y-80008599D01*
X113031374Y-82116866D01*
X112984754Y-82138606D01*
X112935067Y-82125292D01*
X112905562Y-82083155D01*
X112903000Y-82063692D01*
X112903000Y-71733307D01*
X112920593Y-71684969D01*
X112965142Y-71659249D01*
X113015800Y-71668182D01*
X113031374Y-71680133D01*
X115314918Y-73963677D01*
X115318562Y-73967898D01*
X115320655Y-73972180D01*
X115325744Y-73976901D01*
X115325745Y-73976902D01*
X115357855Y-74006688D01*
X115359887Y-74008646D01*
X115374197Y-74022956D01*
X115377058Y-74024918D01*
X115379723Y-74027133D01*
X115379605Y-74027275D01*
X115382835Y-74029860D01*
X115404037Y-74049528D01*
X115410484Y-74052100D01*
X115410487Y-74052102D01*
X115417524Y-74054909D01*
X115432194Y-74062742D01*
X115444168Y-74070956D01*
X115450921Y-74072559D01*
X115450922Y-74072559D01*
X115472311Y-74077635D01*
X115482802Y-74080953D01*
X115509673Y-74091673D01*
X115516068Y-74092300D01*
X115525306Y-74092300D01*
X115542671Y-74094332D01*
X115554827Y-74097217D01*
X115585908Y-74092987D01*
X115596047Y-74092300D01*
X115625271Y-74092300D01*
X115644833Y-74094890D01*
X115654551Y-74097508D01*
X115658233Y-74097754D01*
X115658237Y-74097755D01*
X115670124Y-74098550D01*
X115719214Y-74121359D01*
X115735557Y-74138293D01*
X115764632Y-74168640D01*
X115767061Y-74171106D01*
X115769083Y-74173159D01*
X115769127Y-74173203D01*
X115769193Y-74173270D01*
X115769667Y-74173738D01*
X115774599Y-74178467D01*
X115807218Y-74208845D01*
X115816195Y-74216786D01*
X115817101Y-74217547D01*
X115826561Y-74225085D01*
X115865154Y-74254239D01*
X115877561Y-74262994D01*
X115878096Y-74263346D01*
X115878314Y-74263490D01*
X115878332Y-74263501D01*
X115878813Y-74263818D01*
X115891687Y-74271708D01*
X115910813Y-74282598D01*
X115911018Y-74282715D01*
X115912622Y-74283641D01*
X115916532Y-74286641D01*
X115921084Y-74288526D01*
X115924354Y-74290414D01*
X115925697Y-74291071D01*
X115932111Y-74294723D01*
X115958969Y-74305859D01*
X115983657Y-74316096D01*
X115983662Y-74316098D01*
X115985826Y-74316995D01*
X115988085Y-74317617D01*
X115988086Y-74317617D01*
X115991386Y-74318525D01*
X115991348Y-74318662D01*
X116001482Y-74321829D01*
X116051126Y-74342392D01*
X116051130Y-74342393D01*
X116055678Y-74344277D01*
X116060556Y-74344919D01*
X116060559Y-74344920D01*
X116200116Y-74363293D01*
X116205000Y-74363936D01*
X116209884Y-74363293D01*
X116349441Y-74344920D01*
X116349444Y-74344919D01*
X116354322Y-74344277D01*
X116358869Y-74342393D01*
X116358871Y-74342393D01*
X116457899Y-74301374D01*
X116493468Y-74286641D01*
X116612955Y-74194955D01*
X116704641Y-74075468D01*
X116739168Y-73992113D01*
X116760393Y-73940871D01*
X116760393Y-73940869D01*
X116762277Y-73936322D01*
X116781936Y-73787000D01*
X116762277Y-73637678D01*
X116704641Y-73498532D01*
X116612955Y-73379045D01*
X116594412Y-73364816D01*
X116498471Y-73291198D01*
X116493468Y-73287359D01*
X116358873Y-73231608D01*
X116358871Y-73231607D01*
X116358869Y-73231607D01*
X116354322Y-73229723D01*
X116349444Y-73229081D01*
X116349441Y-73229080D01*
X116330274Y-73226557D01*
X116284647Y-73202804D01*
X116264962Y-73155280D01*
X116280430Y-73106221D01*
X116323814Y-73078583D01*
X116330274Y-73077443D01*
X116349441Y-73074920D01*
X116349444Y-73074919D01*
X116354322Y-73074277D01*
X116358869Y-73072393D01*
X116358871Y-73072393D01*
X116470699Y-73026072D01*
X116493468Y-73016641D01*
X116605742Y-72930490D01*
X116609048Y-72927953D01*
X116612955Y-72924955D01*
X116704641Y-72805468D01*
X116742005Y-72715263D01*
X116760393Y-72670871D01*
X116760393Y-72670869D01*
X116762277Y-72666322D01*
X116781936Y-72517000D01*
X116762277Y-72367678D01*
X116704641Y-72228532D01*
X116612955Y-72109045D01*
X116493468Y-72017359D01*
X116420090Y-71986965D01*
X116358871Y-71961607D01*
X116358869Y-71961607D01*
X116354322Y-71959723D01*
X116349444Y-71959081D01*
X116349441Y-71959080D01*
X116330274Y-71956557D01*
X116284647Y-71932804D01*
X116264962Y-71885280D01*
X116280430Y-71836221D01*
X116323814Y-71808583D01*
X116330274Y-71807443D01*
X116349441Y-71804920D01*
X116349444Y-71804919D01*
X116354322Y-71804277D01*
X116358869Y-71802393D01*
X116358871Y-71802393D01*
X116457899Y-71761374D01*
X116493468Y-71746641D01*
X116612955Y-71654955D01*
X116704641Y-71535468D01*
X116739168Y-71452113D01*
X116760393Y-71400871D01*
X116760393Y-71400869D01*
X116762277Y-71396322D01*
X116763131Y-71389840D01*
X116781293Y-71251884D01*
X116781936Y-71247000D01*
X116777372Y-71212334D01*
X116762920Y-71102559D01*
X116762919Y-71102556D01*
X116762277Y-71097678D01*
X116743749Y-71052946D01*
X116725558Y-71009031D01*
X116704641Y-70958532D01*
X116612955Y-70839045D01*
X116594412Y-70824816D01*
X116498471Y-70751198D01*
X116493468Y-70747359D01*
X116488923Y-70745476D01*
X116488917Y-70745473D01*
X116396411Y-70707157D01*
X116392389Y-70705491D01*
X116387502Y-70703259D01*
X116374352Y-70696675D01*
X116374347Y-70696673D01*
X116371053Y-70695024D01*
X116363923Y-70693067D01*
X116362510Y-70692583D01*
X116358879Y-70691610D01*
X116354322Y-70689723D01*
X116349438Y-70689080D01*
X116347907Y-70688670D01*
X116347468Y-70688551D01*
X116328694Y-70683399D01*
X116286736Y-70653641D01*
X116273722Y-70603874D01*
X116295742Y-70557386D01*
X116338781Y-70536323D01*
X116349440Y-70534920D01*
X116349442Y-70534919D01*
X116354322Y-70534277D01*
X116358869Y-70532393D01*
X116358871Y-70532393D01*
X116423895Y-70505459D01*
X116493468Y-70476641D01*
X116604278Y-70391613D01*
X116609048Y-70387953D01*
X116612955Y-70384955D01*
X116704641Y-70265468D01*
X116762277Y-70126322D01*
X116765979Y-70098207D01*
X116781293Y-69981884D01*
X116781936Y-69977000D01*
X116777372Y-69942334D01*
X116762920Y-69832559D01*
X116762919Y-69832556D01*
X116762277Y-69827678D01*
X116750236Y-69798607D01*
X116706525Y-69693081D01*
X116704641Y-69688532D01*
X116630855Y-69592372D01*
X116615953Y-69572952D01*
X116612955Y-69569045D01*
X116493468Y-69477359D01*
X116488923Y-69475476D01*
X116488917Y-69475473D01*
X116392391Y-69435492D01*
X116387502Y-69433259D01*
X116374352Y-69426675D01*
X116374347Y-69426673D01*
X116371053Y-69425024D01*
X116363923Y-69423067D01*
X116362510Y-69422583D01*
X116358879Y-69421610D01*
X116354322Y-69419723D01*
X116349438Y-69419080D01*
X116347907Y-69418670D01*
X116347468Y-69418551D01*
X116328694Y-69413399D01*
X116286736Y-69383641D01*
X116273722Y-69333874D01*
X116295742Y-69287386D01*
X116338781Y-69266323D01*
X116349440Y-69264920D01*
X116349442Y-69264919D01*
X116354322Y-69264277D01*
X116358869Y-69262393D01*
X116358871Y-69262393D01*
X116445531Y-69226497D01*
X116493468Y-69206641D01*
X116612955Y-69114955D01*
X116704641Y-68995468D01*
X116747537Y-68891907D01*
X116760393Y-68860871D01*
X116760393Y-68860869D01*
X116762277Y-68856322D01*
X116763134Y-68849819D01*
X116781293Y-68711884D01*
X116781936Y-68707000D01*
X116777372Y-68672334D01*
X116762920Y-68562559D01*
X116762919Y-68562556D01*
X116762277Y-68557678D01*
X116750236Y-68528607D01*
X116731862Y-68484249D01*
X116704641Y-68418532D01*
X116612955Y-68299045D01*
X116493468Y-68207359D01*
X116488923Y-68205476D01*
X116488917Y-68205473D01*
X116392391Y-68165492D01*
X116387502Y-68163259D01*
X116387157Y-68163086D01*
X116386861Y-68162938D01*
X116374352Y-68156675D01*
X116374347Y-68156673D01*
X116371053Y-68155024D01*
X116363923Y-68153067D01*
X116362510Y-68152583D01*
X116358879Y-68151610D01*
X116354322Y-68149723D01*
X116349438Y-68149080D01*
X116347907Y-68148670D01*
X116347469Y-68148551D01*
X116326819Y-68142884D01*
X116326769Y-68142871D01*
X116326200Y-68142715D01*
X116325610Y-68142574D01*
X116325585Y-68142567D01*
X116312106Y-68139333D01*
X116312096Y-68139331D01*
X116311476Y-68139182D01*
X116310867Y-68139056D01*
X116310860Y-68139055D01*
X116310788Y-68139040D01*
X116310005Y-68138879D01*
X116309444Y-68138782D01*
X116309427Y-68138779D01*
X116295674Y-68136407D01*
X116295677Y-68136407D01*
X116295083Y-68136305D01*
X116266013Y-68132255D01*
X116247689Y-68129701D01*
X116247669Y-68129698D01*
X116247192Y-68129632D01*
X116246749Y-68129582D01*
X116246727Y-68129579D01*
X116235740Y-68128334D01*
X116235743Y-68128334D01*
X116235308Y-68128285D01*
X116234109Y-68128180D01*
X116229170Y-68127876D01*
X116222509Y-68127466D01*
X116222498Y-68127465D01*
X116222003Y-68127435D01*
X116199978Y-68126652D01*
X116177625Y-68125857D01*
X116177580Y-68125856D01*
X116177446Y-68125851D01*
X116177286Y-68125848D01*
X116177262Y-68125847D01*
X116175580Y-68125812D01*
X116170597Y-68125708D01*
X116170273Y-68125706D01*
X116170169Y-68125705D01*
X116170132Y-68125705D01*
X116169959Y-68125704D01*
X116167393Y-68125723D01*
X116163694Y-68125751D01*
X116163633Y-68125752D01*
X116163484Y-68125753D01*
X116163343Y-68125756D01*
X116163274Y-68125757D01*
X116121689Y-68126647D01*
X116121416Y-68126652D01*
X116097926Y-68127069D01*
X116047088Y-68108489D01*
X116035337Y-68098212D01*
X116025004Y-68092033D01*
X116010425Y-68080666D01*
X115008326Y-67078566D01*
X114986586Y-67031946D01*
X114986300Y-67025392D01*
X114986300Y-63936440D01*
X114986708Y-63930881D01*
X114988256Y-63926372D01*
X114986353Y-63875684D01*
X114986300Y-63872864D01*
X114986300Y-63852607D01*
X114985666Y-63849203D01*
X114985347Y-63845751D01*
X114985519Y-63845735D01*
X114985074Y-63841617D01*
X114984250Y-63819657D01*
X114984249Y-63819654D01*
X114983989Y-63812718D01*
X114981248Y-63806337D01*
X114978258Y-63799377D01*
X114973424Y-63783465D01*
X114972036Y-63776016D01*
X114972035Y-63776014D01*
X114970764Y-63769189D01*
X114967122Y-63763280D01*
X114967121Y-63763278D01*
X114955587Y-63744566D01*
X114950509Y-63734790D01*
X114941191Y-63713100D01*
X114941188Y-63713095D01*
X114939094Y-63708221D01*
X114935016Y-63703256D01*
X114928482Y-63696722D01*
X114917640Y-63683007D01*
X114911085Y-63672372D01*
X114886117Y-63653386D01*
X114878461Y-63646701D01*
X112925026Y-61693266D01*
X112903286Y-61646646D01*
X112903000Y-61640092D01*
X112903000Y-58145532D01*
X112903643Y-58135716D01*
X112922480Y-57992639D01*
X112927561Y-57973677D01*
X112980883Y-57844945D01*
X112990699Y-57827944D01*
X113075521Y-57717402D01*
X113089400Y-57703523D01*
X113199945Y-57618699D01*
X113216945Y-57608883D01*
X113345677Y-57555561D01*
X113364639Y-57550480D01*
X113507716Y-57531643D01*
X113517532Y-57531000D01*
X125242468Y-57531000D01*
X125252284Y-57531643D01*
G37*
%TD.AperFunction*%
%TD*%
M02*
