%TF.GenerationSoftware,KiCad,Pcbnew,(6.0.9)*%
%TF.CreationDate,2022-12-20T17:59:48-05:00*%
%TF.ProjectId,6264_FRAM_MOD,36323634-5f46-4524-914d-5f4d4f442e6b,rev?*%
%TF.SameCoordinates,Original*%
%TF.FileFunction,Soldermask,Top*%
%TF.FilePolarity,Negative*%
%FSLAX46Y46*%
G04 Gerber Fmt 4.6, Leading zero omitted, Abs format (unit mm)*
G04 Created by KiCad (PCBNEW (6.0.9)) date 2022-12-20 17:59:48*
%MOMM*%
%LPD*%
G01*
G04 APERTURE LIST*
G04 Aperture macros list*
%AMRoundRect*
0 Rectangle with rounded corners*
0 $1 Rounding radius*
0 $2 $3 $4 $5 $6 $7 $8 $9 X,Y pos of 4 corners*
0 Add a 4 corners polygon primitive as box body*
4,1,4,$2,$3,$4,$5,$6,$7,$8,$9,$2,$3,0*
0 Add four circle primitives for the rounded corners*
1,1,$1+$1,$2,$3*
1,1,$1+$1,$4,$5*
1,1,$1+$1,$6,$7*
1,1,$1+$1,$8,$9*
0 Add four rect primitives between the rounded corners*
20,1,$1+$1,$2,$3,$4,$5,0*
20,1,$1+$1,$4,$5,$6,$7,0*
20,1,$1+$1,$6,$7,$8,$9,0*
20,1,$1+$1,$8,$9,$2,$3,0*%
G04 Aperture macros list end*
%ADD10RoundRect,0.200800X-0.875000X-0.150000X0.875000X-0.150000X0.875000X0.150000X-0.875000X0.150000X0*%
%ADD11RoundRect,0.050800X-0.550000X-0.200000X0.550000X-0.200000X0.550000X0.200000X-0.550000X0.200000X0*%
%ADD12RoundRect,0.210800X0.160000X-0.197500X0.160000X0.197500X-0.160000X0.197500X-0.160000X-0.197500X0*%
%ADD13RoundRect,0.300800X0.625000X-0.350000X0.625000X0.350000X-0.625000X0.350000X-0.625000X-0.350000X0*%
%ADD14O,1.851600X1.301600*%
%ADD15RoundRect,0.275800X0.225000X0.250000X-0.225000X0.250000X-0.225000X-0.250000X0.225000X-0.250000X0*%
%ADD16RoundRect,0.200800X0.587500X0.150000X-0.587500X0.150000X-0.587500X-0.150000X0.587500X-0.150000X0*%
%ADD17RoundRect,0.050800X-0.800000X-0.800000X0.800000X-0.800000X0.800000X0.800000X-0.800000X0.800000X0*%
%ADD18O,1.701600X1.701600*%
%ADD19RoundRect,0.210800X-0.160000X0.197500X-0.160000X-0.197500X0.160000X-0.197500X0.160000X0.197500X0*%
%ADD20RoundRect,0.275800X0.250000X-0.225000X0.250000X0.225000X-0.250000X0.225000X-0.250000X-0.225000X0*%
G04 APERTURE END LIST*
D10*
%TO.C,U3*%
X114730000Y-67437000D03*
X114730000Y-68707000D03*
X114730000Y-69977000D03*
X114730000Y-71247000D03*
X114730000Y-72517000D03*
X114730000Y-73787000D03*
X114730000Y-75057000D03*
X114730000Y-76327000D03*
X114730000Y-77597000D03*
X114730000Y-78867000D03*
X114730000Y-80137000D03*
X114730000Y-81407000D03*
X114730000Y-82677000D03*
X114730000Y-83947000D03*
X124030000Y-83947000D03*
X124030000Y-82677000D03*
X124030000Y-81407000D03*
X124030000Y-80137000D03*
X124030000Y-78867000D03*
X124030000Y-77597000D03*
X124030000Y-76327000D03*
X124030000Y-75057000D03*
X124030000Y-73787000D03*
X124030000Y-72517000D03*
X124030000Y-71247000D03*
X124030000Y-69977000D03*
X124030000Y-68707000D03*
X124030000Y-67437000D03*
%TD*%
D11*
%TO.C,U2*%
X118500000Y-61313022D03*
X118500000Y-61963022D03*
X118500000Y-62613022D03*
X118500000Y-63263022D03*
X122800000Y-63263022D03*
X122800000Y-62613022D03*
X122800000Y-61963022D03*
X122800000Y-61313022D03*
%TD*%
D12*
%TO.C,R2*%
X119808866Y-91275500D03*
X119808866Y-90080500D03*
%TD*%
D13*
%TO.C,J1*%
X122682000Y-89865200D03*
D14*
X122682000Y-87865200D03*
%TD*%
D15*
%TO.C,C1*%
X122822000Y-59494022D03*
X121272000Y-59494022D03*
%TD*%
D12*
%TO.C,R3*%
X119808866Y-87973500D03*
X119808866Y-86778500D03*
%TD*%
D16*
%TO.C,U1*%
X115999500Y-91374000D03*
X115999500Y-89474000D03*
X114124500Y-90424000D03*
%TD*%
D12*
%TO.C,R4*%
X118364000Y-87973500D03*
X118364000Y-86778500D03*
%TD*%
D17*
%TO.C,U10*%
X111760000Y-58420000D03*
D18*
X111760000Y-60960000D03*
X111760000Y-63500000D03*
X111760000Y-66040000D03*
X111760000Y-68580000D03*
X111760000Y-71120000D03*
X111760000Y-73660000D03*
X111760000Y-76200000D03*
X111760000Y-78740000D03*
X111760000Y-81280000D03*
X111760000Y-83820000D03*
X111760000Y-86360000D03*
X111760000Y-88900000D03*
X111760000Y-91440000D03*
X127000000Y-91440000D03*
X127000000Y-88900000D03*
X127000000Y-86360000D03*
X127000000Y-83820000D03*
X127000000Y-81280000D03*
X127000000Y-78740000D03*
X127000000Y-76200000D03*
X127000000Y-73660000D03*
X127000000Y-71120000D03*
X127000000Y-68580000D03*
X127000000Y-66040000D03*
X127000000Y-63500000D03*
X127000000Y-60960000D03*
X127000000Y-58420000D03*
%TD*%
D19*
%TO.C,R1*%
X124714000Y-59727500D03*
X124714000Y-60922500D03*
%TD*%
D15*
%TO.C,C3*%
X124092000Y-65405000D03*
X122542000Y-65405000D03*
%TD*%
D12*
%TO.C,R6*%
X116967000Y-87973500D03*
X116967000Y-86778500D03*
%TD*%
D20*
%TO.C,C4*%
X118110000Y-91453000D03*
X118110000Y-89903000D03*
%TD*%
M02*
