M48
; DRILL file {KiCad (6.0.9)} date Sat Nov 12 15:20:31 2022
; FORMAT={-:-/ absolute / metric / decimal}
; #@! TF.CreationDate,2022-11-12T15:20:31-05:00
; #@! TF.GenerationSoftware,Kicad,Pcbnew,(6.0.9)
; #@! TF.FileFunction,MixedPlating,1,2
FMAT,2
METRIC
; #@! TA.AperFunction,Plated,PTH,ViaDrill
T1C0.330
; #@! TA.AperFunction,Plated,PTH,ComponentDrill
T2C0.750
; #@! TA.AperFunction,Plated,PTH,ComponentDrill
T3C0.800
%
G90
G05
T1
X116.332Y-64.77
X116.332Y-77.47
X120.777Y-82.931
X120.777Y-84.963
X120.799Y-86.233
X122.428Y-77.47
X124.03Y-60.454
X124.03Y-61.263
X125.857Y-64.77
X125.857Y-67.31
T2
X122.682Y-82.785
X122.682Y-84.785
T3
X111.76Y-58.42
X111.76Y-60.96
X111.76Y-63.5
X111.76Y-66.04
X111.76Y-68.58
X111.76Y-71.12
X111.76Y-73.66
X111.76Y-76.2
X111.76Y-78.74
X111.76Y-81.28
X111.76Y-83.82
X111.76Y-86.36
X127.0Y-58.42
X127.0Y-60.96
X127.0Y-63.5
X127.0Y-66.04
X127.0Y-68.58
X127.0Y-71.12
X127.0Y-73.66
X127.0Y-76.2
X127.0Y-78.74
X127.0Y-81.28
X127.0Y-83.82
X127.0Y-86.36
T0
M30
