%TF.GenerationSoftware,KiCad,Pcbnew,(6.0.9)*%
%TF.CreationDate,2022-11-12T15:20:29-05:00*%
%TF.ProjectId,6116_FRAM_MOD,36313136-5f46-4524-914d-5f4d4f442e6b,rev?*%
%TF.SameCoordinates,Original*%
%TF.FileFunction,Copper,L1,Top*%
%TF.FilePolarity,Positive*%
%FSLAX46Y46*%
G04 Gerber Fmt 4.6, Leading zero omitted, Abs format (unit mm)*
G04 Created by KiCad (PCBNEW (6.0.9)) date 2022-11-12 15:20:29*
%MOMM*%
%LPD*%
G01*
G04 APERTURE LIST*
G04 Aperture macros list*
%AMRoundRect*
0 Rectangle with rounded corners*
0 $1 Rounding radius*
0 $2 $3 $4 $5 $6 $7 $8 $9 X,Y pos of 4 corners*
0 Add a 4 corners polygon primitive as box body*
4,1,4,$2,$3,$4,$5,$6,$7,$8,$9,$2,$3,0*
0 Add four circle primitives for the rounded corners*
1,1,$1+$1,$2,$3*
1,1,$1+$1,$4,$5*
1,1,$1+$1,$6,$7*
1,1,$1+$1,$8,$9*
0 Add four rect primitives between the rounded corners*
20,1,$1+$1,$2,$3,$4,$5,0*
20,1,$1+$1,$4,$5,$6,$7,0*
20,1,$1+$1,$6,$7,$8,$9,0*
20,1,$1+$1,$8,$9,$2,$3,0*%
G04 Aperture macros list end*
%TA.AperFunction,SMDPad,CuDef*%
%ADD10RoundRect,0.150000X-0.875000X-0.150000X0.875000X-0.150000X0.875000X0.150000X-0.875000X0.150000X0*%
%TD*%
%TA.AperFunction,SMDPad,CuDef*%
%ADD11RoundRect,0.160000X-0.160000X0.197500X-0.160000X-0.197500X0.160000X-0.197500X0.160000X0.197500X0*%
%TD*%
%TA.AperFunction,SMDPad,CuDef*%
%ADD12RoundRect,0.160000X0.160000X-0.197500X0.160000X0.197500X-0.160000X0.197500X-0.160000X-0.197500X0*%
%TD*%
%TA.AperFunction,ComponentPad*%
%ADD13RoundRect,0.250000X0.625000X-0.350000X0.625000X0.350000X-0.625000X0.350000X-0.625000X-0.350000X0*%
%TD*%
%TA.AperFunction,ComponentPad*%
%ADD14O,1.750000X1.200000*%
%TD*%
%TA.AperFunction,SMDPad,CuDef*%
%ADD15RoundRect,0.150000X0.587500X0.150000X-0.587500X0.150000X-0.587500X-0.150000X0.587500X-0.150000X0*%
%TD*%
%TA.AperFunction,ComponentPad*%
%ADD16R,1.600000X1.600000*%
%TD*%
%TA.AperFunction,ComponentPad*%
%ADD17O,1.600000X1.600000*%
%TD*%
%TA.AperFunction,SMDPad,CuDef*%
%ADD18RoundRect,0.225000X0.225000X0.250000X-0.225000X0.250000X-0.225000X-0.250000X0.225000X-0.250000X0*%
%TD*%
%TA.AperFunction,SMDPad,CuDef*%
%ADD19RoundRect,0.225000X0.250000X-0.225000X0.250000X0.225000X-0.250000X0.225000X-0.250000X-0.225000X0*%
%TD*%
%TA.AperFunction,ViaPad*%
%ADD20C,0.685800*%
%TD*%
%TA.AperFunction,Conductor*%
%ADD21C,0.152400*%
%TD*%
%TA.AperFunction,Conductor*%
%ADD22C,0.914400*%
%TD*%
%TA.AperFunction,Conductor*%
%ADD23C,0.304800*%
%TD*%
G04 APERTURE END LIST*
D10*
%TO.P,U2,1*%
%TO.N,N/C*%
X114730000Y-62230000D03*
%TO.P,U2,2,A12*%
%TO.N,GND*%
X114730000Y-63500000D03*
%TO.P,U2,3,A7*%
%TO.N,/A7*%
X114730000Y-64770000D03*
%TO.P,U2,4,A6*%
%TO.N,/A6*%
X114730000Y-66040000D03*
%TO.P,U2,5,A5*%
%TO.N,/A5*%
X114730000Y-67310000D03*
%TO.P,U2,6,A4*%
%TO.N,/A4*%
X114730000Y-68580000D03*
%TO.P,U2,7,A3*%
%TO.N,/A3*%
X114730000Y-69850000D03*
%TO.P,U2,8,A2*%
%TO.N,/A2*%
X114730000Y-71120000D03*
%TO.P,U2,9,A1*%
%TO.N,/A1*%
X114730000Y-72390000D03*
%TO.P,U2,10,A0*%
%TO.N,/A0*%
X114730000Y-73660000D03*
%TO.P,U2,11,DQ0*%
%TO.N,/D0*%
X114730000Y-74930000D03*
%TO.P,U2,12,DQ1*%
%TO.N,/D1*%
X114730000Y-76200000D03*
%TO.P,U2,13,DQ2*%
%TO.N,/D2*%
X114730000Y-77470000D03*
%TO.P,U2,14,VSS*%
%TO.N,GND*%
X114730000Y-78740000D03*
%TO.P,U2,15,DQ3*%
%TO.N,/D3*%
X124030000Y-78740000D03*
%TO.P,U2,16,DQ4*%
%TO.N,/D4*%
X124030000Y-77470000D03*
%TO.P,U2,17,DQ5*%
%TO.N,/D5*%
X124030000Y-76200000D03*
%TO.P,U2,18,DQ6*%
%TO.N,/D6*%
X124030000Y-74930000D03*
%TO.P,U2,19,DQ7*%
%TO.N,/D7*%
X124030000Y-73660000D03*
%TO.P,U2,20,~{CE}*%
%TO.N,/~{CE}*%
X124030000Y-72390000D03*
%TO.P,U2,21,A10*%
%TO.N,/A10*%
X124030000Y-71120000D03*
%TO.P,U2,22,~{OE}*%
%TO.N,/~{OE}*%
X124030000Y-69850000D03*
%TO.P,U2,23,A11*%
%TO.N,GND*%
X124030000Y-68580000D03*
%TO.P,U2,24,A9*%
%TO.N,/A9*%
X124030000Y-67310000D03*
%TO.P,U2,25,A8*%
%TO.N,/A8*%
X124030000Y-66040000D03*
%TO.P,U2,26*%
%TO.N,N/C*%
X124030000Y-64770000D03*
%TO.P,U2,27,~{WE}*%
%TO.N,/~{WE}*%
X124030000Y-63500000D03*
%TO.P,U2,28,VDD*%
%TO.N,VCC*%
X124030000Y-62230000D03*
%TD*%
D11*
%TO.P,R1,1*%
%TO.N,VCC*%
X125222000Y-59219500D03*
%TO.P,R1,2*%
%TO.N,/~{WE}*%
X125222000Y-60414500D03*
%TD*%
D12*
%TO.P,R2,1*%
%TO.N,VCC*%
X119808866Y-86195500D03*
%TO.P,R2,2*%
%TO.N,/BATT_FAKE*%
X119808866Y-85000500D03*
%TD*%
D13*
%TO.P,J1,1,Pin_1*%
%TO.N,/BATT_FAKE*%
X122682000Y-84785200D03*
D14*
%TO.P,J1,2,Pin_2*%
%TO.N,GND*%
X122682000Y-82785200D03*
%TD*%
D12*
%TO.P,R3,1*%
%TO.N,/BATT_FAKE*%
X119808866Y-82893500D03*
%TO.P,R3,2*%
%TO.N,Net-(R3-Pad2)*%
X119808866Y-81698500D03*
%TD*%
D15*
%TO.P,U1,1,K*%
%TO.N,/BATT_FAKE*%
X115999500Y-86294000D03*
%TO.P,U1,2,REF*%
%TO.N,Net-(R3-Pad2)*%
X115999500Y-84394000D03*
%TO.P,U1,3,A*%
%TO.N,GND*%
X114124500Y-85344000D03*
%TD*%
D12*
%TO.P,R4,1*%
%TO.N,Net-(R3-Pad2)*%
X118364000Y-82893500D03*
%TO.P,R4,2*%
%TO.N,GND*%
X118364000Y-81698500D03*
%TD*%
D16*
%TO.P,U10,1,A7*%
%TO.N,/A7*%
X111760000Y-58420000D03*
D17*
%TO.P,U10,2,A6*%
%TO.N,/A6*%
X111760000Y-60960000D03*
%TO.P,U10,3,A5*%
%TO.N,/A5*%
X111760000Y-63500000D03*
%TO.P,U10,4,A4*%
%TO.N,/A4*%
X111760000Y-66040000D03*
%TO.P,U10,5,A3*%
%TO.N,/A3*%
X111760000Y-68580000D03*
%TO.P,U10,6,A2*%
%TO.N,/A2*%
X111760000Y-71120000D03*
%TO.P,U10,7,A1*%
%TO.N,/A1*%
X111760000Y-73660000D03*
%TO.P,U10,8,A0*%
%TO.N,/A0*%
X111760000Y-76200000D03*
%TO.P,U10,9,D0*%
%TO.N,/D0*%
X111760000Y-78740000D03*
%TO.P,U10,10,D1*%
%TO.N,/D1*%
X111760000Y-81280000D03*
%TO.P,U10,11,D2*%
%TO.N,/D2*%
X111760000Y-83820000D03*
%TO.P,U10,12,GND*%
%TO.N,GND*%
X111760000Y-86360000D03*
%TO.P,U10,13,D3*%
%TO.N,/D3*%
X127000000Y-86360000D03*
%TO.P,U10,14,D4*%
%TO.N,/D4*%
X127000000Y-83820000D03*
%TO.P,U10,15,D5*%
%TO.N,/D5*%
X127000000Y-81280000D03*
%TO.P,U10,16,D6*%
%TO.N,/D6*%
X127000000Y-78740000D03*
%TO.P,U10,17,D7*%
%TO.N,/D7*%
X127000000Y-76200000D03*
%TO.P,U10,18,~{CE}*%
%TO.N,/~{CE}*%
X127000000Y-73660000D03*
%TO.P,U10,19,A10*%
%TO.N,/A10*%
X127000000Y-71120000D03*
%TO.P,U10,20,~{OE}*%
%TO.N,/~{OE}*%
X127000000Y-68580000D03*
%TO.P,U10,21,~{WE}*%
%TO.N,/~{WE}*%
X127000000Y-66040000D03*
%TO.P,U10,22,A9*%
%TO.N,/A9*%
X127000000Y-63500000D03*
%TO.P,U10,23,A8*%
%TO.N,/A8*%
X127000000Y-60960000D03*
%TO.P,U10,24,VCC*%
%TO.N,VCC*%
X127000000Y-58420000D03*
%TD*%
D18*
%TO.P,C3,1*%
%TO.N,VCC*%
X122949000Y-60452000D03*
%TO.P,C3,2*%
%TO.N,GND*%
X121399000Y-60452000D03*
%TD*%
D12*
%TO.P,R6,1*%
%TO.N,Net-(R3-Pad2)*%
X116967000Y-82893500D03*
%TO.P,R6,2*%
%TO.N,GND*%
X116967000Y-81698500D03*
%TD*%
D19*
%TO.P,C4,1*%
%TO.N,/BATT_FAKE*%
X118110000Y-86373000D03*
%TO.P,C4,2*%
%TO.N,GND*%
X118110000Y-84823000D03*
%TD*%
D20*
%TO.N,/D2*%
X116332000Y-77470000D03*
%TO.N,/A8*%
X125857000Y-64770000D03*
%TO.N,/A9*%
X125857000Y-67310000D03*
%TO.N,/A7*%
X116332000Y-64770000D03*
%TO.N,/D4*%
X122428000Y-77470000D03*
%TO.N,VCC*%
X120799466Y-86233000D03*
X124030000Y-61263000D03*
X124030000Y-60453800D03*
%TO.N,/BATT_FAKE*%
X120777000Y-84963000D03*
X120777000Y-82931000D03*
%TD*%
D21*
%TO.N,/D2*%
X114730000Y-77470000D02*
X116332000Y-77470000D01*
%TO.N,/D1*%
X112903000Y-80137000D02*
X111760000Y-81280000D01*
X114730000Y-76200000D02*
X114730000Y-76659000D01*
X113538000Y-76835000D02*
X112903000Y-77470000D01*
X114554000Y-76835000D02*
X113538000Y-76835000D01*
X112903000Y-77470000D02*
X112903000Y-80137000D01*
X114730000Y-76659000D02*
X114554000Y-76835000D01*
%TO.N,/A8*%
X125857000Y-64770000D02*
X125222000Y-65405000D01*
X124206000Y-65405000D02*
X124030000Y-65581000D01*
X124030000Y-65581000D02*
X124030000Y-66040000D01*
X125222000Y-65405000D02*
X124206000Y-65405000D01*
%TO.N,/D0*%
X113411000Y-74930000D02*
X113157000Y-75184000D01*
X113157000Y-75184000D02*
X113157000Y-76454000D01*
X114730000Y-74930000D02*
X113411000Y-74930000D01*
X113157000Y-76454000D02*
X111760000Y-77851000D01*
X111760000Y-77851000D02*
X111760000Y-78740000D01*
%TO.N,/A9*%
X124030000Y-67310000D02*
X125857000Y-67310000D01*
%TO.N,/A0*%
X113284000Y-73660000D02*
X111760000Y-75184000D01*
X111760000Y-75184000D02*
X111760000Y-76200000D01*
X114730000Y-73660000D02*
X113284000Y-73660000D01*
%TO.N,/A1*%
X114730000Y-72390000D02*
X113030000Y-72390000D01*
X113030000Y-72390000D02*
X111760000Y-73660000D01*
%TO.N,/A2*%
X114730000Y-71120000D02*
X111760000Y-71120000D01*
%TO.N,/A10*%
X124030000Y-71120000D02*
X127000000Y-71120000D01*
%TO.N,/A3*%
X114730000Y-69850000D02*
X113030000Y-69850000D01*
X113030000Y-69850000D02*
X111760000Y-68580000D01*
%TO.N,/A4*%
X114730000Y-68580000D02*
X113284000Y-68580000D01*
X113284000Y-68580000D02*
X111760000Y-67056000D01*
X111760000Y-67056000D02*
X111760000Y-66040000D01*
%TO.N,/D7*%
X125476000Y-73660000D02*
X127000000Y-75184000D01*
X124030000Y-73660000D02*
X125476000Y-73660000D01*
X127000000Y-75184000D02*
X127000000Y-76200000D01*
%TO.N,/A5*%
X113538000Y-67310000D02*
X113157000Y-66929000D01*
X111760000Y-64516000D02*
X111760000Y-63500000D01*
X113157000Y-65913000D02*
X111760000Y-64516000D01*
X113157000Y-66929000D02*
X113157000Y-65913000D01*
X114730000Y-67310000D02*
X113538000Y-67310000D01*
%TO.N,/D6*%
X125349000Y-74930000D02*
X125603000Y-75184000D01*
X125603000Y-75184000D02*
X125603000Y-76454000D01*
X127000000Y-77851000D02*
X127000000Y-78740000D01*
X124030000Y-74930000D02*
X125349000Y-74930000D01*
X125603000Y-76454000D02*
X127000000Y-77851000D01*
%TO.N,/A6*%
X113157000Y-65151000D02*
X113157000Y-62357000D01*
X113157000Y-62357000D02*
X111760000Y-60960000D01*
X114730000Y-65581000D02*
X114554000Y-65405000D01*
X114730000Y-66040000D02*
X114730000Y-65581000D01*
X114554000Y-65405000D02*
X113411000Y-65405000D01*
X113411000Y-65405000D02*
X113157000Y-65151000D01*
%TO.N,/D5*%
X125857000Y-80137000D02*
X127000000Y-81280000D01*
X124030000Y-76200000D02*
X124030000Y-76659000D01*
X125857000Y-77470000D02*
X125857000Y-80137000D01*
X125222000Y-76835000D02*
X125857000Y-77470000D01*
X124206000Y-76835000D02*
X125222000Y-76835000D01*
X124030000Y-76659000D02*
X124206000Y-76835000D01*
%TO.N,/A7*%
X114730000Y-64770000D02*
X116332000Y-64770000D01*
%TO.N,/D4*%
X124030000Y-77470000D02*
X122428000Y-77470000D01*
%TO.N,/D3*%
X125095000Y-84455000D02*
X127000000Y-86360000D01*
X124030000Y-79326000D02*
X125095000Y-80391000D01*
X124030000Y-78740000D02*
X124030000Y-79326000D01*
X125095000Y-80391000D02*
X125095000Y-84455000D01*
D22*
%TO.N,GND*%
X111760000Y-86360000D02*
X113030000Y-86360000D01*
D21*
%TO.N,/~{WE}*%
X127000000Y-65024000D02*
X125476000Y-63500000D01*
X127000000Y-66040000D02*
X127000000Y-65024000D01*
X125222000Y-60414500D02*
X125222000Y-60960000D01*
X125222000Y-60960000D02*
X125476000Y-61214000D01*
X125476000Y-61214000D02*
X125476000Y-63500000D01*
X125476000Y-63500000D02*
X124030000Y-63500000D01*
%TO.N,/~{OE}*%
X125730000Y-69850000D02*
X127000000Y-68580000D01*
X124030000Y-69850000D02*
X125730000Y-69850000D01*
D23*
%TO.N,VCC*%
X126200500Y-59219500D02*
X127000000Y-58420000D01*
X124030000Y-62230000D02*
X124030000Y-61263000D01*
X119846366Y-86233000D02*
X119808866Y-86195500D01*
X124030000Y-60453800D02*
X124028200Y-59848450D01*
X124657150Y-59219500D02*
X125222000Y-59219500D01*
X122949000Y-60452000D02*
X124030000Y-60453800D01*
X120799466Y-86233000D02*
X119846366Y-86233000D01*
X124028200Y-59848450D02*
X124657150Y-59219500D01*
X124030000Y-60453800D02*
X124030000Y-61263000D01*
X125222000Y-59219500D02*
X126200500Y-59219500D01*
D21*
%TO.N,Net-(R3-Pad2)*%
X119100600Y-81940400D02*
X119342500Y-81698500D01*
X118833300Y-82893500D02*
X119100600Y-82626200D01*
X118364000Y-82893500D02*
X118833300Y-82893500D01*
X116967000Y-82893500D02*
X118364000Y-82893500D01*
X115999500Y-83861000D02*
X116967000Y-82893500D01*
X119342500Y-81698500D02*
X119808866Y-81698500D01*
X119100600Y-82626200D02*
X119100600Y-81940400D01*
X115999500Y-84394000D02*
X115999500Y-83861000D01*
%TO.N,/BATT_FAKE*%
X119126000Y-85683366D02*
X119808866Y-85000500D01*
X120739500Y-85000500D02*
X119808866Y-85000500D01*
X118031000Y-86294000D02*
X118110000Y-86373000D01*
X115999500Y-86294000D02*
X118031000Y-86294000D01*
X120777000Y-82931000D02*
X119846366Y-82931000D01*
X120777000Y-84963000D02*
X120739500Y-85000500D01*
X119846366Y-82931000D02*
X119808866Y-82893500D01*
X119126000Y-85979000D02*
X119126000Y-85683366D01*
X118732000Y-86373000D02*
X119126000Y-85979000D01*
X118110000Y-86373000D02*
X118732000Y-86373000D01*
%TO.N,/~{CE}*%
X124030000Y-72390000D02*
X125730000Y-72390000D01*
X125730000Y-72390000D02*
X127000000Y-73660000D01*
%TD*%
%TA.AperFunction,Conductor*%
%TO.N,GND*%
G36*
X125252284Y-58420643D02*
G01*
X125395361Y-58439480D01*
X125414323Y-58444561D01*
X125543055Y-58497883D01*
X125560057Y-58507700D01*
X125572037Y-58516893D01*
X125599675Y-58560277D01*
X125592959Y-58611277D01*
X125555033Y-58646028D01*
X125505034Y-58647992D01*
X125503737Y-58647331D01*
X125497892Y-58646405D01*
X125497891Y-58646405D01*
X125415540Y-58633362D01*
X125415538Y-58633362D01*
X125412622Y-58632900D01*
X125031378Y-58632900D01*
X125028462Y-58633362D01*
X125028460Y-58633362D01*
X124968924Y-58642792D01*
X124940263Y-58647331D01*
X124830442Y-58703288D01*
X124743288Y-58790442D01*
X124740599Y-58795719D01*
X124737121Y-58800506D01*
X124735335Y-58799208D01*
X124704357Y-58828095D01*
X124675702Y-58833226D01*
X124675370Y-58833154D01*
X124638828Y-58837479D01*
X124629989Y-58838000D01*
X124625458Y-58838000D01*
X124619088Y-58839060D01*
X124605144Y-58841381D01*
X124601636Y-58841881D01*
X124582998Y-58844087D01*
X124549243Y-58848082D01*
X124543640Y-58850772D01*
X124541077Y-58851517D01*
X124540791Y-58851582D01*
X124540508Y-58851698D01*
X124537998Y-58852557D01*
X124531867Y-58853578D01*
X124485451Y-58878623D01*
X124482321Y-58880218D01*
X124439012Y-58901014D01*
X124439009Y-58901016D01*
X124434752Y-58903060D01*
X124430458Y-58906669D01*
X124429675Y-58907452D01*
X124425517Y-58910962D01*
X124420093Y-58913888D01*
X124415874Y-58918453D01*
X124415873Y-58918453D01*
X124382623Y-58954423D01*
X124380576Y-58956551D01*
X123819323Y-59517804D01*
X123813177Y-59523310D01*
X123808396Y-59527142D01*
X123794906Y-59537953D01*
X123792530Y-59540781D01*
X123788975Y-59545012D01*
X123772378Y-59559689D01*
X123767047Y-59563154D01*
X123763213Y-59568047D01*
X123763210Y-59568050D01*
X123744779Y-59591574D01*
X123738759Y-59598368D01*
X123736029Y-59601098D01*
X123734227Y-59603620D01*
X123734220Y-59603628D01*
X123723643Y-59618429D01*
X123721654Y-59621087D01*
X123692548Y-59658234D01*
X123688713Y-59663129D01*
X123686670Y-59669002D01*
X123686146Y-59669962D01*
X123685723Y-59670636D01*
X123685265Y-59671521D01*
X123684956Y-59672263D01*
X123684479Y-59673237D01*
X123680866Y-59678293D01*
X123679086Y-59684245D01*
X123679085Y-59684247D01*
X123665563Y-59729460D01*
X123664544Y-59732611D01*
X123646988Y-59783085D01*
X123646521Y-59788676D01*
X123646524Y-59789856D01*
X123646149Y-59794377D01*
X123644475Y-59799974D01*
X123644719Y-59806186D01*
X123644719Y-59806187D01*
X123646108Y-59841545D01*
X123645283Y-59855987D01*
X123644770Y-59859305D01*
X123619997Y-59904387D01*
X123572042Y-59922998D01*
X123523344Y-59906430D01*
X123509965Y-59892494D01*
X123502063Y-59881796D01*
X123502061Y-59881794D01*
X123498724Y-59877276D01*
X123388887Y-59796149D01*
X123383585Y-59794287D01*
X123383583Y-59794286D01*
X123290674Y-59761659D01*
X123260051Y-59750905D01*
X123241903Y-59749190D01*
X123230021Y-59748066D01*
X123230013Y-59748066D01*
X123228261Y-59747900D01*
X122949632Y-59747900D01*
X122669740Y-59747901D01*
X122667986Y-59748067D01*
X122667980Y-59748067D01*
X122654261Y-59749364D01*
X122637949Y-59750905D01*
X122566993Y-59775823D01*
X122514417Y-59794286D01*
X122514415Y-59794287D01*
X122509113Y-59796149D01*
X122399276Y-59877276D01*
X122318149Y-59987113D01*
X122316287Y-59992415D01*
X122316286Y-59992417D01*
X122304043Y-60027281D01*
X122272905Y-60115949D01*
X122269900Y-60147739D01*
X122269901Y-60756260D01*
X122272905Y-60788051D01*
X122292398Y-60843558D01*
X122316203Y-60911345D01*
X122318149Y-60916887D01*
X122321489Y-60921409D01*
X122384097Y-61006173D01*
X122399276Y-61026724D01*
X122509113Y-61107851D01*
X122514415Y-61109713D01*
X122514417Y-61109714D01*
X122582555Y-61133642D01*
X122637949Y-61153095D01*
X122656097Y-61154810D01*
X122667979Y-61155934D01*
X122667987Y-61155934D01*
X122669739Y-61156100D01*
X122948368Y-61156100D01*
X123228260Y-61156099D01*
X123230014Y-61155933D01*
X123230020Y-61155933D01*
X123243739Y-61154636D01*
X123260051Y-61153095D01*
X123264377Y-61151576D01*
X123264381Y-61151575D01*
X123362147Y-61117242D01*
X123413583Y-61117825D01*
X123452611Y-61151335D01*
X123461620Y-61198009D01*
X123453064Y-61263000D01*
X123453707Y-61267884D01*
X123467793Y-61374874D01*
X123472723Y-61412322D01*
X123474607Y-61416869D01*
X123474607Y-61416871D01*
X123506864Y-61494746D01*
X123509951Y-61503786D01*
X123515497Y-61524176D01*
X123517144Y-61527484D01*
X123540333Y-61574063D01*
X123540335Y-61574068D01*
X123541645Y-61576656D01*
X123541788Y-61576937D01*
X123549174Y-61591289D01*
X123555651Y-61642319D01*
X123527810Y-61685574D01*
X123482310Y-61700901D01*
X123119068Y-61700901D01*
X123044555Y-61711869D01*
X122997485Y-61734979D01*
X122936842Y-61764753D01*
X122936841Y-61764754D01*
X122931266Y-61767491D01*
X122926879Y-61771885D01*
X122926877Y-61771887D01*
X122889292Y-61809538D01*
X122842101Y-61856811D01*
X122839372Y-61862395D01*
X122839370Y-61862397D01*
X122820468Y-61901067D01*
X122786676Y-61970198D01*
X122775900Y-62044067D01*
X122775901Y-62415932D01*
X122786869Y-62490445D01*
X122842491Y-62603734D01*
X122846885Y-62608121D01*
X122846887Y-62608123D01*
X122869754Y-62630950D01*
X122931811Y-62692899D01*
X122937395Y-62695628D01*
X122937397Y-62695630D01*
X122997683Y-62725098D01*
X123045198Y-62748324D01*
X123119067Y-62759100D01*
X124027173Y-62759100D01*
X124940932Y-62759099D01*
X125015445Y-62748131D01*
X125062358Y-62725098D01*
X125113502Y-62719587D01*
X125156222Y-62748241D01*
X125170700Y-62792601D01*
X125170700Y-62937419D01*
X125153107Y-62985757D01*
X125108558Y-63011477D01*
X125062475Y-63004979D01*
X125020044Y-62984238D01*
X125020042Y-62984237D01*
X125014802Y-62981676D01*
X124940933Y-62970900D01*
X124032827Y-62970900D01*
X123119068Y-62970901D01*
X123044555Y-62981869D01*
X122997485Y-63004979D01*
X122936842Y-63034753D01*
X122936841Y-63034754D01*
X122931266Y-63037491D01*
X122926879Y-63041885D01*
X122926877Y-63041887D01*
X122926466Y-63042299D01*
X122842101Y-63126811D01*
X122786676Y-63240198D01*
X122775900Y-63314067D01*
X122775901Y-63685932D01*
X122776302Y-63688653D01*
X122785903Y-63753879D01*
X122786869Y-63760445D01*
X122789444Y-63765689D01*
X122829599Y-63847475D01*
X122842491Y-63873734D01*
X122846885Y-63878121D01*
X122846887Y-63878123D01*
X122886928Y-63918094D01*
X122931811Y-63962899D01*
X122937395Y-63965628D01*
X122937397Y-63965630D01*
X123021162Y-64006575D01*
X123045198Y-64018324D01*
X123119067Y-64029100D01*
X124027173Y-64029100D01*
X124940932Y-64029099D01*
X125015445Y-64018131D01*
X125072197Y-63990267D01*
X125123158Y-63965247D01*
X125123159Y-63965246D01*
X125128734Y-63962509D01*
X125133121Y-63958115D01*
X125133123Y-63958113D01*
X125190891Y-63900244D01*
X125217899Y-63873189D01*
X125220773Y-63867310D01*
X125230469Y-63847475D01*
X125267503Y-63811775D01*
X125298029Y-63805300D01*
X125318393Y-63805300D01*
X125366731Y-63822893D01*
X125371567Y-63827326D01*
X125662947Y-64118706D01*
X125684687Y-64165326D01*
X125671373Y-64215013D01*
X125638551Y-64241356D01*
X125615225Y-64251018D01*
X125568532Y-64270359D01*
X125449045Y-64362045D01*
X125371367Y-64463277D01*
X125327984Y-64490914D01*
X125276985Y-64484200D01*
X125244205Y-64450639D01*
X125220247Y-64401843D01*
X125217509Y-64396266D01*
X125213115Y-64391879D01*
X125213113Y-64391877D01*
X125154357Y-64333224D01*
X125128189Y-64307101D01*
X125122605Y-64304372D01*
X125122603Y-64304370D01*
X125027283Y-64257777D01*
X125014802Y-64251676D01*
X124940933Y-64240900D01*
X124032827Y-64240900D01*
X123119068Y-64240901D01*
X123057790Y-64249921D01*
X123056227Y-64250151D01*
X123044555Y-64251869D01*
X123006895Y-64270359D01*
X122936842Y-64304753D01*
X122936841Y-64304754D01*
X122931266Y-64307491D01*
X122926879Y-64311885D01*
X122926877Y-64311887D01*
X122905237Y-64333565D01*
X122842101Y-64396811D01*
X122786676Y-64510198D01*
X122775900Y-64584067D01*
X122775901Y-64955932D01*
X122786869Y-65030445D01*
X122842491Y-65143734D01*
X122846885Y-65148121D01*
X122846887Y-65148123D01*
X122874754Y-65175941D01*
X122931811Y-65232899D01*
X122937395Y-65235628D01*
X122937397Y-65235630D01*
X123006977Y-65269641D01*
X123045198Y-65288324D01*
X123119067Y-65299100D01*
X123705762Y-65299100D01*
X123754100Y-65316693D01*
X123779820Y-65361242D01*
X123769688Y-65412649D01*
X123767472Y-65415037D01*
X123764900Y-65421484D01*
X123764898Y-65421487D01*
X123762092Y-65428521D01*
X123754259Y-65443193D01*
X123746044Y-65455168D01*
X123744441Y-65461921D01*
X123742560Y-65466167D01*
X123706892Y-65503233D01*
X123673808Y-65510901D01*
X123119068Y-65510901D01*
X123044555Y-65521869D01*
X122987803Y-65549733D01*
X122936842Y-65574753D01*
X122936841Y-65574754D01*
X122931266Y-65577491D01*
X122926879Y-65581885D01*
X122926877Y-65581887D01*
X122886906Y-65621928D01*
X122842101Y-65666811D01*
X122839372Y-65672395D01*
X122839370Y-65672397D01*
X122814879Y-65722501D01*
X122786676Y-65780198D01*
X122775900Y-65854067D01*
X122775901Y-66225932D01*
X122786869Y-66300445D01*
X122842491Y-66413734D01*
X122846885Y-66418121D01*
X122846887Y-66418123D01*
X122869754Y-66440950D01*
X122931811Y-66502899D01*
X122937395Y-66505628D01*
X122937397Y-66505630D01*
X123021162Y-66546575D01*
X123045198Y-66558324D01*
X123119067Y-66569100D01*
X124027173Y-66569100D01*
X124940932Y-66569099D01*
X125015445Y-66558131D01*
X125072197Y-66530267D01*
X125123158Y-66505247D01*
X125123159Y-66505246D01*
X125128734Y-66502509D01*
X125133121Y-66498115D01*
X125133123Y-66498113D01*
X125190186Y-66440950D01*
X125217899Y-66413189D01*
X125273324Y-66299802D01*
X125284100Y-66225933D01*
X125284099Y-65854068D01*
X125273145Y-65779651D01*
X125283511Y-65729267D01*
X125320933Y-65699635D01*
X125320509Y-65698535D01*
X125326988Y-65696035D01*
X125333811Y-65694764D01*
X125339720Y-65691122D01*
X125339722Y-65691121D01*
X125358434Y-65679587D01*
X125368210Y-65674509D01*
X125389897Y-65665192D01*
X125389900Y-65665190D01*
X125394779Y-65663094D01*
X125399744Y-65659015D01*
X125406275Y-65652484D01*
X125419989Y-65641643D01*
X125424717Y-65638729D01*
X125424718Y-65638728D01*
X125430628Y-65635085D01*
X125449624Y-65610104D01*
X125456302Y-65602457D01*
X125568969Y-65489790D01*
X125583172Y-65478650D01*
X125591140Y-65473822D01*
X125591142Y-65473821D01*
X125594295Y-65471910D01*
X125597013Y-65469423D01*
X125597018Y-65469419D01*
X125632494Y-65436954D01*
X125638713Y-65431846D01*
X125643235Y-65428521D01*
X125663160Y-65413870D01*
X125671180Y-65408724D01*
X125686061Y-65400458D01*
X125695113Y-65396193D01*
X125707250Y-65391433D01*
X125715548Y-65388723D01*
X125734195Y-65383810D01*
X125739864Y-65382548D01*
X125768310Y-65377361D01*
X125819020Y-65385998D01*
X125852314Y-65425209D01*
X125857000Y-65451341D01*
X125857000Y-66667115D01*
X125839407Y-66715453D01*
X125791616Y-66741672D01*
X125712559Y-66752080D01*
X125712556Y-66752081D01*
X125707678Y-66752723D01*
X125703129Y-66754607D01*
X125703130Y-66754607D01*
X125617319Y-66790151D01*
X125610315Y-66792654D01*
X125589843Y-66798847D01*
X125535181Y-66828011D01*
X125527677Y-66832194D01*
X125527371Y-66832372D01*
X125527262Y-66832435D01*
X125527232Y-66832453D01*
X125526936Y-66832625D01*
X125519631Y-66837054D01*
X125519390Y-66837206D01*
X125519379Y-66837213D01*
X125489180Y-66856286D01*
X125467622Y-66869901D01*
X125462509Y-66873224D01*
X125462330Y-66873344D01*
X125462296Y-66873366D01*
X125462226Y-66873413D01*
X125461999Y-66873565D01*
X125456902Y-66877071D01*
X125411388Y-66909275D01*
X125408050Y-66911681D01*
X125407896Y-66911794D01*
X125407852Y-66911826D01*
X125385866Y-66927970D01*
X125373826Y-66936811D01*
X125369951Y-66939656D01*
X125368215Y-66940893D01*
X125341026Y-66959695D01*
X125336140Y-66962803D01*
X125323813Y-66969989D01*
X125273192Y-66979131D01*
X125228537Y-66953596D01*
X125224064Y-66946758D01*
X125223867Y-66946899D01*
X125220246Y-66941842D01*
X125217509Y-66936266D01*
X125213115Y-66931879D01*
X125213113Y-66931877D01*
X125159207Y-66878065D01*
X125128189Y-66847101D01*
X125122605Y-66844372D01*
X125122603Y-66844370D01*
X125027283Y-66797777D01*
X125014802Y-66791676D01*
X124940933Y-66780900D01*
X124032827Y-66780900D01*
X123119068Y-66780901D01*
X123057790Y-66789921D01*
X123056227Y-66790151D01*
X123044555Y-66791869D01*
X123022821Y-66802540D01*
X122936842Y-66844753D01*
X122936841Y-66844754D01*
X122931266Y-66847491D01*
X122926879Y-66851885D01*
X122926877Y-66851887D01*
X122900879Y-66877931D01*
X122842101Y-66936811D01*
X122839372Y-66942395D01*
X122839370Y-66942397D01*
X122812542Y-66997282D01*
X122786676Y-67050198D01*
X122775900Y-67124067D01*
X122775901Y-67495932D01*
X122786869Y-67570445D01*
X122800628Y-67598468D01*
X122829458Y-67657188D01*
X122842491Y-67683734D01*
X122846885Y-67688121D01*
X122846887Y-67688123D01*
X122869528Y-67710724D01*
X122931811Y-67772899D01*
X122937395Y-67775628D01*
X122937397Y-67775630D01*
X123006977Y-67809641D01*
X123045198Y-67828324D01*
X123119067Y-67839100D01*
X124027173Y-67839100D01*
X124940932Y-67839099D01*
X125015445Y-67828131D01*
X125072197Y-67800267D01*
X125123158Y-67775247D01*
X125123159Y-67775246D01*
X125128734Y-67772509D01*
X125133121Y-67768115D01*
X125133123Y-67768113D01*
X125192671Y-67708461D01*
X125217899Y-67683189D01*
X125220630Y-67677602D01*
X125224238Y-67672544D01*
X125226568Y-67674206D01*
X125255520Y-67646304D01*
X125306838Y-67642767D01*
X125323905Y-67650064D01*
X125336139Y-67657195D01*
X125341026Y-67660304D01*
X125368215Y-67679106D01*
X125369951Y-67680343D01*
X125407852Y-67708173D01*
X125407896Y-67708205D01*
X125408050Y-67708318D01*
X125411388Y-67710724D01*
X125456902Y-67742928D01*
X125461999Y-67746434D01*
X125462226Y-67746586D01*
X125462296Y-67746633D01*
X125462330Y-67746655D01*
X125462509Y-67746775D01*
X125467622Y-67750098D01*
X125467836Y-67750233D01*
X125467856Y-67750246D01*
X125519341Y-67782762D01*
X125519631Y-67782945D01*
X125526817Y-67787305D01*
X125527081Y-67787459D01*
X125527115Y-67787479D01*
X125527251Y-67787558D01*
X125527557Y-67787736D01*
X125535179Y-67791987D01*
X125589842Y-67821152D01*
X125601644Y-67825763D01*
X125638973Y-67840348D01*
X125638977Y-67840349D01*
X125641034Y-67841153D01*
X125643175Y-67841711D01*
X125643176Y-67841711D01*
X125645641Y-67842353D01*
X125655465Y-67845649D01*
X125707678Y-67867277D01*
X125712556Y-67867919D01*
X125712559Y-67867920D01*
X125791616Y-67878328D01*
X125837243Y-67902081D01*
X125857000Y-67952885D01*
X125857000Y-69190859D01*
X125850116Y-69222290D01*
X125833749Y-69257864D01*
X125827840Y-69268389D01*
X125783424Y-69334444D01*
X125765845Y-69360588D01*
X125759539Y-69368706D01*
X125654578Y-69486237D01*
X125652794Y-69489168D01*
X125652792Y-69489171D01*
X125647718Y-69497508D01*
X125636654Y-69511586D01*
X125625566Y-69522674D01*
X125578946Y-69544414D01*
X125572392Y-69544700D01*
X125297962Y-69544700D01*
X125249624Y-69527107D01*
X125230459Y-69502642D01*
X125220247Y-69481842D01*
X125220246Y-69481840D01*
X125217509Y-69476266D01*
X125213115Y-69471879D01*
X125213113Y-69471877D01*
X125162021Y-69420874D01*
X125128189Y-69387101D01*
X125122605Y-69384372D01*
X125122603Y-69384370D01*
X125038838Y-69343425D01*
X125014802Y-69331676D01*
X124940933Y-69320900D01*
X124032827Y-69320900D01*
X123119068Y-69320901D01*
X123044555Y-69331869D01*
X122987803Y-69359733D01*
X122936842Y-69384753D01*
X122936841Y-69384754D01*
X122931266Y-69387491D01*
X122926879Y-69391885D01*
X122926877Y-69391887D01*
X122897941Y-69420874D01*
X122842101Y-69476811D01*
X122839372Y-69482395D01*
X122839370Y-69482397D01*
X122812173Y-69538036D01*
X122786676Y-69590198D01*
X122775900Y-69664067D01*
X122775901Y-70035932D01*
X122782400Y-70080085D01*
X122785923Y-70104015D01*
X122786869Y-70110445D01*
X122801264Y-70139764D01*
X122832417Y-70203215D01*
X122842491Y-70223734D01*
X122846885Y-70228121D01*
X122846887Y-70228123D01*
X122856020Y-70237240D01*
X122931811Y-70312899D01*
X122937395Y-70315628D01*
X122937397Y-70315630D01*
X123021162Y-70356575D01*
X123045198Y-70368324D01*
X123119067Y-70379100D01*
X124027173Y-70379100D01*
X124940932Y-70379099D01*
X125015445Y-70368131D01*
X125072197Y-70340267D01*
X125123158Y-70315247D01*
X125123159Y-70315246D01*
X125128734Y-70312509D01*
X125133121Y-70308115D01*
X125133123Y-70308113D01*
X125203872Y-70237240D01*
X125217899Y-70223189D01*
X125220631Y-70217600D01*
X125230469Y-70197475D01*
X125267503Y-70161775D01*
X125298029Y-70155300D01*
X125674560Y-70155300D01*
X125680119Y-70155708D01*
X125684628Y-70157256D01*
X125735316Y-70155353D01*
X125738136Y-70155300D01*
X125758393Y-70155300D01*
X125761797Y-70154666D01*
X125765249Y-70154347D01*
X125765265Y-70154519D01*
X125769385Y-70154074D01*
X125778981Y-70153714D01*
X125827944Y-70169483D01*
X125855316Y-70213035D01*
X125857000Y-70228861D01*
X125857000Y-70656475D01*
X125839407Y-70704813D01*
X125818890Y-70721891D01*
X125786990Y-70739975D01*
X125775994Y-70745083D01*
X125696021Y-70774655D01*
X125684395Y-70777921D01*
X125575354Y-70799280D01*
X125565141Y-70800562D01*
X125411262Y-70809255D01*
X125411258Y-70809256D01*
X125407835Y-70809449D01*
X125395016Y-70812568D01*
X125377238Y-70814700D01*
X125297962Y-70814700D01*
X125249624Y-70797107D01*
X125230459Y-70772642D01*
X125220247Y-70751842D01*
X125220246Y-70751840D01*
X125217509Y-70746266D01*
X125213115Y-70741879D01*
X125213113Y-70741877D01*
X125170273Y-70699112D01*
X125128189Y-70657101D01*
X125122605Y-70654372D01*
X125122603Y-70654370D01*
X125038838Y-70613425D01*
X125014802Y-70601676D01*
X124940933Y-70590900D01*
X124032827Y-70590900D01*
X123119068Y-70590901D01*
X123044555Y-70601869D01*
X122987803Y-70629733D01*
X122936842Y-70654753D01*
X122936841Y-70654754D01*
X122931266Y-70657491D01*
X122926879Y-70661885D01*
X122926877Y-70661887D01*
X122906050Y-70682751D01*
X122842101Y-70746811D01*
X122839372Y-70752395D01*
X122839370Y-70752397D01*
X122810084Y-70812310D01*
X122786676Y-70860198D01*
X122775900Y-70934067D01*
X122775901Y-71305932D01*
X122786869Y-71380445D01*
X122789444Y-71385689D01*
X122829599Y-71467475D01*
X122842491Y-71493734D01*
X122846885Y-71498121D01*
X122846887Y-71498123D01*
X122866903Y-71518104D01*
X122931811Y-71582899D01*
X122937395Y-71585628D01*
X122937397Y-71585630D01*
X122963064Y-71598176D01*
X123045198Y-71638324D01*
X123119067Y-71649100D01*
X124027173Y-71649100D01*
X124940932Y-71649099D01*
X125015445Y-71638131D01*
X125096824Y-71598176D01*
X125123158Y-71585247D01*
X125123159Y-71585246D01*
X125128734Y-71582509D01*
X125133121Y-71578115D01*
X125133123Y-71578113D01*
X125193027Y-71518104D01*
X125217899Y-71493189D01*
X125220631Y-71487600D01*
X125230469Y-71467475D01*
X125267503Y-71431775D01*
X125298029Y-71425300D01*
X125377952Y-71425300D01*
X125396759Y-71427690D01*
X125404257Y-71429627D01*
X125404262Y-71429628D01*
X125407836Y-71430551D01*
X125490397Y-71435215D01*
X125565139Y-71439437D01*
X125575353Y-71440719D01*
X125684395Y-71462078D01*
X125696021Y-71465344D01*
X125775994Y-71494916D01*
X125786990Y-71500024D01*
X125818887Y-71518107D01*
X125852260Y-71557247D01*
X125857000Y-71583524D01*
X125857000Y-72009500D01*
X125839407Y-72057838D01*
X125794858Y-72083558D01*
X125781800Y-72084700D01*
X125774692Y-72084700D01*
X125757330Y-72082668D01*
X125745172Y-72079783D01*
X125738294Y-72080719D01*
X125738293Y-72080719D01*
X125714091Y-72084013D01*
X125703950Y-72084700D01*
X125297962Y-72084700D01*
X125249624Y-72067107D01*
X125230459Y-72042642D01*
X125220247Y-72021842D01*
X125220246Y-72021840D01*
X125217509Y-72016266D01*
X125213115Y-72011879D01*
X125213113Y-72011877D01*
X125156334Y-71955197D01*
X125128189Y-71927101D01*
X125122605Y-71924372D01*
X125122603Y-71924370D01*
X125038838Y-71883425D01*
X125014802Y-71871676D01*
X124940933Y-71860900D01*
X124032827Y-71860900D01*
X123119068Y-71860901D01*
X123044555Y-71871869D01*
X122987803Y-71899733D01*
X122936842Y-71924753D01*
X122936841Y-71924754D01*
X122931266Y-71927491D01*
X122926879Y-71931885D01*
X122926877Y-71931887D01*
X122910995Y-71947797D01*
X122842101Y-72016811D01*
X122839372Y-72022395D01*
X122839370Y-72022397D01*
X122808537Y-72085476D01*
X122786676Y-72130198D01*
X122775900Y-72204067D01*
X122775901Y-72575932D01*
X122786869Y-72650445D01*
X122808892Y-72695300D01*
X122838949Y-72756519D01*
X122842491Y-72763734D01*
X122846885Y-72768121D01*
X122846887Y-72768123D01*
X122886928Y-72808094D01*
X122931811Y-72852899D01*
X122937395Y-72855628D01*
X122937397Y-72855630D01*
X123021162Y-72896575D01*
X123045198Y-72908324D01*
X123119067Y-72919100D01*
X124027173Y-72919100D01*
X124940932Y-72919099D01*
X125015445Y-72908131D01*
X125090498Y-72871282D01*
X125123158Y-72855247D01*
X125123159Y-72855246D01*
X125128734Y-72852509D01*
X125133121Y-72848115D01*
X125133123Y-72848113D01*
X125181426Y-72799725D01*
X125217899Y-72763189D01*
X125224067Y-72750571D01*
X125230469Y-72737475D01*
X125267503Y-72701775D01*
X125298029Y-72695300D01*
X125572393Y-72695300D01*
X125620731Y-72712893D01*
X125625567Y-72717326D01*
X125637160Y-72728919D01*
X125648771Y-72743911D01*
X125652696Y-72750571D01*
X125652700Y-72750576D01*
X125654578Y-72753763D01*
X125759539Y-72871294D01*
X125765842Y-72879408D01*
X125827840Y-72971610D01*
X125833749Y-72982135D01*
X125850116Y-73017709D01*
X125857000Y-73049140D01*
X125857000Y-73426842D01*
X125839407Y-73475180D01*
X125794858Y-73500900D01*
X125744200Y-73491967D01*
X125725646Y-73475436D01*
X125725345Y-73474820D01*
X125712111Y-73462543D01*
X125688159Y-73440325D01*
X125686127Y-73438367D01*
X125671803Y-73424043D01*
X125668945Y-73422082D01*
X125666279Y-73419867D01*
X125666399Y-73419722D01*
X125663162Y-73417137D01*
X125641963Y-73397472D01*
X125634040Y-73394311D01*
X125628479Y-73392092D01*
X125613806Y-73384258D01*
X125607555Y-73379970D01*
X125607556Y-73379970D01*
X125601832Y-73376044D01*
X125595081Y-73374442D01*
X125595079Y-73374441D01*
X125573693Y-73369366D01*
X125563194Y-73366046D01*
X125536327Y-73355327D01*
X125529932Y-73354700D01*
X125520692Y-73354700D01*
X125503330Y-73352668D01*
X125491172Y-73349783D01*
X125484294Y-73350719D01*
X125484293Y-73350719D01*
X125460091Y-73354013D01*
X125449950Y-73354700D01*
X125297962Y-73354700D01*
X125249624Y-73337107D01*
X125230459Y-73312642D01*
X125220247Y-73291842D01*
X125220246Y-73291840D01*
X125217509Y-73286266D01*
X125213115Y-73281879D01*
X125213113Y-73281877D01*
X125132983Y-73201887D01*
X125128189Y-73197101D01*
X125122605Y-73194372D01*
X125122603Y-73194370D01*
X125033590Y-73150860D01*
X125014802Y-73141676D01*
X124940933Y-73130900D01*
X124032827Y-73130900D01*
X123119068Y-73130901D01*
X123044555Y-73141869D01*
X122987803Y-73169733D01*
X122936842Y-73194753D01*
X122936841Y-73194754D01*
X122931266Y-73197491D01*
X122926879Y-73201885D01*
X122926877Y-73201887D01*
X122886906Y-73241928D01*
X122842101Y-73286811D01*
X122839372Y-73292395D01*
X122839370Y-73292397D01*
X122804985Y-73362742D01*
X122786676Y-73400198D01*
X122775900Y-73474067D01*
X122775901Y-73845932D01*
X122786869Y-73920445D01*
X122808892Y-73965300D01*
X122829599Y-74007475D01*
X122842491Y-74033734D01*
X122846885Y-74038121D01*
X122846887Y-74038123D01*
X122886928Y-74078094D01*
X122931811Y-74122899D01*
X122937395Y-74125628D01*
X122937397Y-74125630D01*
X123008920Y-74160591D01*
X123045198Y-74178324D01*
X123119067Y-74189100D01*
X124027173Y-74189100D01*
X124940932Y-74189099D01*
X125015445Y-74178131D01*
X125072197Y-74150267D01*
X125123158Y-74125247D01*
X125123159Y-74125246D01*
X125128734Y-74122509D01*
X125133121Y-74118115D01*
X125133123Y-74118113D01*
X125173094Y-74078072D01*
X125217899Y-74033189D01*
X125222212Y-74024365D01*
X125230469Y-74007475D01*
X125267503Y-73971775D01*
X125298029Y-73965300D01*
X125318393Y-73965300D01*
X125366731Y-73982893D01*
X125371567Y-73987326D01*
X125834974Y-74450733D01*
X125856714Y-74497353D01*
X125857000Y-74503907D01*
X125857000Y-74824692D01*
X125839407Y-74873030D01*
X125794858Y-74898750D01*
X125744200Y-74889817D01*
X125728625Y-74877866D01*
X125694914Y-74844154D01*
X125604075Y-74753315D01*
X125600438Y-74749101D01*
X125598345Y-74744820D01*
X125561158Y-74710324D01*
X125559127Y-74708367D01*
X125544803Y-74694043D01*
X125541945Y-74692082D01*
X125539279Y-74689867D01*
X125539399Y-74689722D01*
X125536162Y-74687137D01*
X125514963Y-74667472D01*
X125507040Y-74664311D01*
X125501479Y-74662092D01*
X125486806Y-74654258D01*
X125480555Y-74649970D01*
X125480556Y-74649970D01*
X125474832Y-74646044D01*
X125468081Y-74644442D01*
X125468079Y-74644441D01*
X125446693Y-74639366D01*
X125436194Y-74636046D01*
X125409327Y-74625327D01*
X125402932Y-74624700D01*
X125393692Y-74624700D01*
X125376330Y-74622668D01*
X125364172Y-74619783D01*
X125357294Y-74620719D01*
X125357293Y-74620719D01*
X125333091Y-74624013D01*
X125322950Y-74624700D01*
X125297962Y-74624700D01*
X125249624Y-74607107D01*
X125230459Y-74582642D01*
X125220247Y-74561842D01*
X125220246Y-74561840D01*
X125217509Y-74556266D01*
X125213115Y-74551879D01*
X125213113Y-74551877D01*
X125165059Y-74503907D01*
X125128189Y-74467101D01*
X125122605Y-74464372D01*
X125122603Y-74464370D01*
X125038838Y-74423425D01*
X125014802Y-74411676D01*
X124940933Y-74400900D01*
X124032827Y-74400900D01*
X123119068Y-74400901D01*
X123044555Y-74411869D01*
X122987803Y-74439733D01*
X122936842Y-74464753D01*
X122936841Y-74464754D01*
X122931266Y-74467491D01*
X122926879Y-74471885D01*
X122926877Y-74471887D01*
X122901456Y-74497353D01*
X122842101Y-74556811D01*
X122839372Y-74562395D01*
X122839370Y-74562397D01*
X122804985Y-74632742D01*
X122786676Y-74670198D01*
X122775900Y-74744067D01*
X122775901Y-75115932D01*
X122786869Y-75190445D01*
X122842491Y-75303734D01*
X122846885Y-75308121D01*
X122846887Y-75308123D01*
X122868917Y-75330114D01*
X122931811Y-75392899D01*
X122937395Y-75395628D01*
X122937397Y-75395630D01*
X123021162Y-75436575D01*
X123045198Y-75448324D01*
X123119067Y-75459100D01*
X124027173Y-75459100D01*
X124940932Y-75459099D01*
X125015445Y-75448131D01*
X125103248Y-75405022D01*
X125123158Y-75395247D01*
X125123159Y-75395246D01*
X125128734Y-75392509D01*
X125169279Y-75351893D01*
X125215881Y-75330114D01*
X125265580Y-75343385D01*
X125295121Y-75385496D01*
X125297700Y-75405022D01*
X125297700Y-75724992D01*
X125280107Y-75773330D01*
X125235558Y-75799050D01*
X125184900Y-75790117D01*
X125169371Y-75778212D01*
X125169266Y-75778107D01*
X125128189Y-75737101D01*
X125122605Y-75734372D01*
X125122603Y-75734370D01*
X125038838Y-75693425D01*
X125014802Y-75681676D01*
X124940933Y-75670900D01*
X124032827Y-75670900D01*
X123119068Y-75670901D01*
X123044555Y-75681869D01*
X122987803Y-75709733D01*
X122936842Y-75734753D01*
X122936841Y-75734754D01*
X122931266Y-75737491D01*
X122926879Y-75741885D01*
X122926877Y-75741887D01*
X122924265Y-75744504D01*
X122842101Y-75826811D01*
X122786676Y-75940198D01*
X122775900Y-76014067D01*
X122775901Y-76385932D01*
X122786869Y-76460445D01*
X122842491Y-76573734D01*
X122846885Y-76578121D01*
X122846887Y-76578123D01*
X122886928Y-76618094D01*
X122931811Y-76662899D01*
X122937395Y-76665628D01*
X122937397Y-76665630D01*
X123021162Y-76706575D01*
X123045198Y-76718324D01*
X123119067Y-76729100D01*
X123673916Y-76729100D01*
X123722254Y-76746693D01*
X123739717Y-76771130D01*
X123740235Y-76770811D01*
X123755413Y-76795434D01*
X123760491Y-76805210D01*
X123771906Y-76831780D01*
X123770764Y-76832271D01*
X123779732Y-76877039D01*
X123755052Y-76922172D01*
X123705392Y-76940901D01*
X123119068Y-76940901D01*
X123057790Y-76949921D01*
X123056227Y-76950151D01*
X123044555Y-76951869D01*
X122931266Y-77007491D01*
X122915957Y-77022826D01*
X122869359Y-77044605D01*
X122821759Y-77032749D01*
X122817377Y-77029901D01*
X122806381Y-77022956D01*
X122765658Y-76997237D01*
X122765646Y-76997230D01*
X122765368Y-76997054D01*
X122758182Y-76992694D01*
X122757918Y-76992540D01*
X122757884Y-76992520D01*
X122757748Y-76992441D01*
X122757731Y-76992431D01*
X122757442Y-76992263D01*
X122749820Y-76988012D01*
X122695159Y-76958848D01*
X122650233Y-76941295D01*
X122646028Y-76939652D01*
X122646024Y-76939651D01*
X122643967Y-76938847D01*
X122639360Y-76937647D01*
X122629537Y-76934351D01*
X122581871Y-76914607D01*
X122581869Y-76914607D01*
X122577322Y-76912723D01*
X122572444Y-76912081D01*
X122572441Y-76912080D01*
X122432884Y-76893707D01*
X122428000Y-76893064D01*
X122423116Y-76893707D01*
X122283559Y-76912080D01*
X122283556Y-76912081D01*
X122278678Y-76912723D01*
X122274131Y-76914607D01*
X122274129Y-76914607D01*
X122226463Y-76934351D01*
X122139532Y-76970359D01*
X122020045Y-77062045D01*
X121928359Y-77181532D01*
X121870723Y-77320678D01*
X121851064Y-77470000D01*
X121870723Y-77619322D01*
X121872607Y-77623869D01*
X121872607Y-77623871D01*
X121885583Y-77655197D01*
X121928359Y-77758468D01*
X122020045Y-77877955D01*
X122139532Y-77969641D01*
X122186670Y-77989166D01*
X122274129Y-78025393D01*
X122274131Y-78025393D01*
X122278678Y-78027277D01*
X122283556Y-78027919D01*
X122283559Y-78027920D01*
X122423116Y-78046293D01*
X122428000Y-78046936D01*
X122432884Y-78046293D01*
X122572439Y-78027920D01*
X122572440Y-78027920D01*
X122577322Y-78027277D01*
X122581871Y-78025393D01*
X122581874Y-78025392D01*
X122667692Y-77989845D01*
X122674693Y-77987343D01*
X122691624Y-77982221D01*
X122691626Y-77982220D01*
X122695160Y-77981151D01*
X122698415Y-77979414D01*
X122698418Y-77979413D01*
X122749537Y-77952138D01*
X122749822Y-77951986D01*
X122757442Y-77947736D01*
X122757748Y-77947558D01*
X122757884Y-77947479D01*
X122757918Y-77947459D01*
X122758182Y-77947305D01*
X122765368Y-77942945D01*
X122765658Y-77942762D01*
X122817143Y-77910246D01*
X122817164Y-77910233D01*
X122817377Y-77910098D01*
X122821819Y-77907211D01*
X122871932Y-77895620D01*
X122915927Y-77917043D01*
X122916060Y-77917175D01*
X122927017Y-77928113D01*
X122931811Y-77932899D01*
X122937395Y-77935628D01*
X122937397Y-77935630D01*
X123006977Y-77969641D01*
X123045198Y-77988324D01*
X123119067Y-77999100D01*
X124027173Y-77999100D01*
X124940932Y-77999099D01*
X125015445Y-77988131D01*
X125072197Y-77960267D01*
X125123158Y-77935247D01*
X125123159Y-77935246D01*
X125128734Y-77932509D01*
X125133121Y-77928115D01*
X125133123Y-77928113D01*
X125173094Y-77888072D01*
X125217899Y-77843189D01*
X125221498Y-77835828D01*
X125270763Y-77735041D01*
X125273324Y-77729802D01*
X125284100Y-77655933D01*
X125284100Y-77510408D01*
X125301693Y-77462070D01*
X125346242Y-77436350D01*
X125396900Y-77445283D01*
X125412474Y-77457234D01*
X125529674Y-77574434D01*
X125551414Y-77621054D01*
X125551700Y-77627608D01*
X125551700Y-80081560D01*
X125551292Y-80087119D01*
X125549744Y-80091628D01*
X125550661Y-80116043D01*
X125551647Y-80142315D01*
X125551700Y-80145136D01*
X125551700Y-80165393D01*
X125552334Y-80168797D01*
X125552653Y-80172249D01*
X125552481Y-80172265D01*
X125552926Y-80176383D01*
X125553750Y-80198343D01*
X125553751Y-80198346D01*
X125554011Y-80205282D01*
X125556752Y-80211661D01*
X125556752Y-80211663D01*
X125559742Y-80218623D01*
X125564576Y-80234535D01*
X125565964Y-80241984D01*
X125567236Y-80248811D01*
X125570878Y-80254720D01*
X125570879Y-80254722D01*
X125582413Y-80273434D01*
X125587491Y-80283210D01*
X125596808Y-80304897D01*
X125596810Y-80304900D01*
X125598906Y-80309779D01*
X125602985Y-80314744D01*
X125609516Y-80321275D01*
X125620357Y-80334989D01*
X125626915Y-80345628D01*
X125632439Y-80349829D01*
X125632444Y-80349834D01*
X125635235Y-80351956D01*
X125649710Y-80368187D01*
X125650522Y-80367594D01*
X125652699Y-80370575D01*
X125654578Y-80373763D01*
X125759539Y-80491294D01*
X125765842Y-80499408D01*
X125827840Y-80591610D01*
X125833749Y-80602135D01*
X125850116Y-80637709D01*
X125857000Y-80669140D01*
X125857000Y-84603693D01*
X125839407Y-84652031D01*
X125794858Y-84677751D01*
X125744200Y-84668818D01*
X125728632Y-84656872D01*
X125422324Y-84350564D01*
X125400586Y-84303946D01*
X125400300Y-84297392D01*
X125400300Y-80446432D01*
X125400708Y-80440876D01*
X125402255Y-80436371D01*
X125400353Y-80385699D01*
X125400300Y-80382878D01*
X125400300Y-80362607D01*
X125399665Y-80359197D01*
X125399347Y-80355753D01*
X125399524Y-80355737D01*
X125399074Y-80351617D01*
X125398250Y-80329657D01*
X125398249Y-80329654D01*
X125397989Y-80322718D01*
X125395123Y-80316047D01*
X125392258Y-80309377D01*
X125387424Y-80293465D01*
X125386036Y-80286016D01*
X125386035Y-80286014D01*
X125384764Y-80279189D01*
X125381122Y-80273280D01*
X125381121Y-80273278D01*
X125369587Y-80254566D01*
X125364509Y-80244790D01*
X125355192Y-80223103D01*
X125355190Y-80223100D01*
X125353094Y-80218221D01*
X125349015Y-80213256D01*
X125342484Y-80206725D01*
X125331643Y-80193011D01*
X125328729Y-80188283D01*
X125328728Y-80188282D01*
X125325085Y-80182372D01*
X125300104Y-80163376D01*
X125292457Y-80156698D01*
X124533233Y-79397473D01*
X124511493Y-79350853D01*
X124524807Y-79301166D01*
X124566944Y-79271661D01*
X124586407Y-79269099D01*
X124940932Y-79269099D01*
X125015445Y-79258131D01*
X125072197Y-79230267D01*
X125123158Y-79205247D01*
X125123159Y-79205246D01*
X125128734Y-79202509D01*
X125133121Y-79198115D01*
X125133123Y-79198113D01*
X125173094Y-79158072D01*
X125217899Y-79113189D01*
X125273324Y-78999802D01*
X125284100Y-78925933D01*
X125284099Y-78554068D01*
X125275079Y-78492790D01*
X125273982Y-78485336D01*
X125273131Y-78479555D01*
X125217509Y-78366266D01*
X125213115Y-78361879D01*
X125213113Y-78361877D01*
X125173072Y-78321906D01*
X125128189Y-78277101D01*
X125122605Y-78274372D01*
X125122603Y-78274370D01*
X125021457Y-78224929D01*
X125014802Y-78221676D01*
X124940933Y-78210900D01*
X124032827Y-78210900D01*
X123119068Y-78210901D01*
X123044555Y-78221869D01*
X122987803Y-78249733D01*
X122936842Y-78274753D01*
X122936841Y-78274754D01*
X122931266Y-78277491D01*
X122926879Y-78281885D01*
X122926877Y-78281887D01*
X122926466Y-78282299D01*
X122842101Y-78366811D01*
X122786676Y-78480198D01*
X122775900Y-78554067D01*
X122775901Y-78925932D01*
X122776302Y-78928653D01*
X122785903Y-78993879D01*
X122786869Y-79000445D01*
X122842491Y-79113734D01*
X122846885Y-79118121D01*
X122846887Y-79118123D01*
X122886928Y-79158094D01*
X122931811Y-79202899D01*
X122937395Y-79205628D01*
X122937397Y-79205630D01*
X123021162Y-79246575D01*
X123045198Y-79258324D01*
X123119067Y-79269100D01*
X123649500Y-79269100D01*
X123697838Y-79286693D01*
X123723558Y-79331242D01*
X123724700Y-79344300D01*
X123724700Y-79354393D01*
X123725334Y-79357797D01*
X123725653Y-79361249D01*
X123725481Y-79361265D01*
X123725926Y-79365383D01*
X123726750Y-79387343D01*
X123726751Y-79387346D01*
X123727011Y-79394282D01*
X123729752Y-79400661D01*
X123729752Y-79400663D01*
X123732742Y-79407623D01*
X123737576Y-79423535D01*
X123738964Y-79430984D01*
X123740236Y-79437811D01*
X123743878Y-79443720D01*
X123743879Y-79443722D01*
X123755413Y-79462434D01*
X123760491Y-79472210D01*
X123769808Y-79493897D01*
X123769810Y-79493900D01*
X123771906Y-79498779D01*
X123775985Y-79503744D01*
X123782516Y-79510275D01*
X123793357Y-79523989D01*
X123799915Y-79534628D01*
X123824896Y-79553624D01*
X123832543Y-79560302D01*
X124767674Y-80495433D01*
X124789414Y-80542053D01*
X124789700Y-80548607D01*
X124789700Y-84399560D01*
X124789292Y-84405119D01*
X124787744Y-84409628D01*
X124788547Y-84431018D01*
X124789647Y-84460315D01*
X124789700Y-84463136D01*
X124789700Y-84483393D01*
X124790334Y-84486797D01*
X124790653Y-84490249D01*
X124790481Y-84490265D01*
X124790926Y-84494383D01*
X124791750Y-84516343D01*
X124791751Y-84516346D01*
X124792011Y-84523282D01*
X124794752Y-84529661D01*
X124794752Y-84529663D01*
X124797742Y-84536623D01*
X124802576Y-84552535D01*
X124803044Y-84555045D01*
X124805236Y-84566811D01*
X124808878Y-84572720D01*
X124808879Y-84572722D01*
X124820413Y-84591434D01*
X124825491Y-84601210D01*
X124834808Y-84622897D01*
X124834810Y-84622900D01*
X124836906Y-84627779D01*
X124840985Y-84632744D01*
X124847516Y-84639275D01*
X124858357Y-84652989D01*
X124861040Y-84657341D01*
X124864915Y-84663628D01*
X124889896Y-84682624D01*
X124897543Y-84689302D01*
X125637160Y-85428920D01*
X125648770Y-85443910D01*
X125652702Y-85450581D01*
X125654578Y-85453763D01*
X125759539Y-85571294D01*
X125765842Y-85579408D01*
X125827840Y-85671610D01*
X125833749Y-85682135D01*
X125850116Y-85717709D01*
X125857000Y-85749140D01*
X125857000Y-86634468D01*
X125856357Y-86644284D01*
X125837520Y-86787361D01*
X125832439Y-86806323D01*
X125779117Y-86935055D01*
X125769301Y-86952055D01*
X125692662Y-87051934D01*
X125684479Y-87062598D01*
X125670600Y-87076477D01*
X125560056Y-87161301D01*
X125543055Y-87171117D01*
X125414323Y-87224439D01*
X125395361Y-87229520D01*
X125252284Y-87248357D01*
X125242468Y-87249000D01*
X113517532Y-87249000D01*
X113507716Y-87248357D01*
X113364639Y-87229520D01*
X113345677Y-87224439D01*
X113216945Y-87171117D01*
X113199944Y-87161301D01*
X113089400Y-87076477D01*
X113075521Y-87062598D01*
X113067339Y-87051934D01*
X112990699Y-86952055D01*
X112980883Y-86935055D01*
X112932510Y-86818271D01*
X113020000Y-86817200D01*
X113020000Y-86108067D01*
X115032900Y-86108067D01*
X115032901Y-86479932D01*
X115043869Y-86554445D01*
X115065037Y-86597560D01*
X115096402Y-86661442D01*
X115099491Y-86667734D01*
X115103885Y-86672121D01*
X115103887Y-86672123D01*
X115127632Y-86695826D01*
X115188811Y-86756899D01*
X115194395Y-86759628D01*
X115194397Y-86759630D01*
X115257095Y-86790277D01*
X115302198Y-86812324D01*
X115376067Y-86823100D01*
X115997565Y-86823100D01*
X116622932Y-86823099D01*
X116697445Y-86812131D01*
X116769200Y-86776901D01*
X116805158Y-86759247D01*
X116805159Y-86759246D01*
X116810734Y-86756509D01*
X116815121Y-86752115D01*
X116815123Y-86752113D01*
X116861953Y-86705201D01*
X116899899Y-86667189D01*
X116903842Y-86659122D01*
X116912469Y-86641475D01*
X116949503Y-86605775D01*
X116980029Y-86599300D01*
X117332467Y-86599300D01*
X117380805Y-86616893D01*
X117406525Y-86661442D01*
X117407333Y-86667425D01*
X117408472Y-86679479D01*
X117408474Y-86679487D01*
X117408905Y-86684051D01*
X117430859Y-86746568D01*
X117451608Y-86805650D01*
X117454149Y-86812887D01*
X117535276Y-86922724D01*
X117645113Y-87003851D01*
X117650415Y-87005713D01*
X117650417Y-87005714D01*
X117732268Y-87034458D01*
X117773949Y-87049095D01*
X117792097Y-87050810D01*
X117803979Y-87051934D01*
X117803987Y-87051934D01*
X117805739Y-87052100D01*
X118109312Y-87052100D01*
X118414260Y-87052099D01*
X118416014Y-87051933D01*
X118416020Y-87051933D01*
X118429739Y-87050636D01*
X118446051Y-87049095D01*
X118517007Y-87024177D01*
X118569583Y-87005714D01*
X118569585Y-87005713D01*
X118574887Y-87003851D01*
X118684724Y-86922724D01*
X118765851Y-86812887D01*
X118776825Y-86781638D01*
X118803668Y-86705201D01*
X118836284Y-86665424D01*
X118840495Y-86663382D01*
X118843811Y-86662764D01*
X118849717Y-86659124D01*
X118849721Y-86659122D01*
X118868434Y-86647587D01*
X118878210Y-86642509D01*
X118899897Y-86633192D01*
X118899900Y-86633190D01*
X118904779Y-86631094D01*
X118909744Y-86627015D01*
X118916275Y-86620484D01*
X118929989Y-86609643D01*
X118934717Y-86606729D01*
X118934718Y-86606728D01*
X118940628Y-86603085D01*
X118959624Y-86578104D01*
X118966302Y-86570457D01*
X119135357Y-86401402D01*
X119181977Y-86379662D01*
X119231664Y-86392976D01*
X119261169Y-86435113D01*
X119262805Y-86442812D01*
X119269115Y-86482653D01*
X119274197Y-86514737D01*
X119291484Y-86548664D01*
X119321070Y-86606729D01*
X119330154Y-86624558D01*
X119417308Y-86711712D01*
X119422584Y-86714400D01*
X119422585Y-86714401D01*
X119452499Y-86729643D01*
X119527129Y-86767669D01*
X119532976Y-86768595D01*
X119615326Y-86781638D01*
X119615328Y-86781638D01*
X119618244Y-86782100D01*
X119999488Y-86782100D01*
X120002404Y-86781638D01*
X120002406Y-86781638D01*
X120084756Y-86768595D01*
X120090603Y-86767669D01*
X120165233Y-86729643D01*
X120195147Y-86714401D01*
X120195148Y-86714400D01*
X120200424Y-86711712D01*
X120248997Y-86663139D01*
X120295617Y-86641399D01*
X120325096Y-86644693D01*
X120328167Y-86645676D01*
X120333484Y-86647601D01*
X120357826Y-86657465D01*
X120361637Y-86659133D01*
X120392877Y-86673853D01*
X120394882Y-86674834D01*
X120435850Y-86695645D01*
X120436203Y-86695826D01*
X120485490Y-86721191D01*
X120485526Y-86721209D01*
X120488312Y-86722620D01*
X120538284Y-86747500D01*
X120540245Y-86748219D01*
X120540248Y-86748220D01*
X120550870Y-86752113D01*
X120586821Y-86765289D01*
X120588842Y-86765785D01*
X120590829Y-86766391D01*
X120590811Y-86766449D01*
X120599457Y-86769282D01*
X120650144Y-86790277D01*
X120655026Y-86790920D01*
X120655027Y-86790920D01*
X120794582Y-86809293D01*
X120799466Y-86809936D01*
X120804350Y-86809293D01*
X120943907Y-86790920D01*
X120943910Y-86790919D01*
X120948788Y-86790277D01*
X120953335Y-86788393D01*
X120953337Y-86788393D01*
X121030311Y-86756509D01*
X121087934Y-86732641D01*
X121200148Y-86646536D01*
X121203514Y-86643953D01*
X121207421Y-86640955D01*
X121299107Y-86521468D01*
X121356743Y-86382322D01*
X121362707Y-86337027D01*
X121375759Y-86237884D01*
X121376402Y-86233000D01*
X121369561Y-86181036D01*
X121357386Y-86088559D01*
X121357385Y-86088556D01*
X121356743Y-86083678D01*
X121299107Y-85944532D01*
X121207421Y-85825045D01*
X121087934Y-85733359D01*
X120999926Y-85696905D01*
X120953337Y-85677607D01*
X120953335Y-85677607D01*
X120948788Y-85675723D01*
X120943910Y-85675081D01*
X120943907Y-85675080D01*
X120913507Y-85671078D01*
X120867880Y-85647325D01*
X120848195Y-85599801D01*
X120863663Y-85550742D01*
X120907047Y-85523103D01*
X120913508Y-85521964D01*
X120921441Y-85520920D01*
X120921444Y-85520919D01*
X120926322Y-85520277D01*
X120930869Y-85518393D01*
X120930871Y-85518393D01*
X120995895Y-85491459D01*
X121065468Y-85462641D01*
X121184955Y-85370955D01*
X121276641Y-85251468D01*
X121314178Y-85160846D01*
X121332393Y-85116871D01*
X121332393Y-85116869D01*
X121334277Y-85112322D01*
X121337652Y-85086692D01*
X121353293Y-84967884D01*
X121353936Y-84963000D01*
X121340327Y-84859630D01*
X121334920Y-84818559D01*
X121334919Y-84818556D01*
X121334277Y-84813678D01*
X121317065Y-84772123D01*
X121281851Y-84687110D01*
X121276641Y-84674532D01*
X121184955Y-84555045D01*
X121065468Y-84463359D01*
X120978667Y-84427405D01*
X120930871Y-84407607D01*
X120930869Y-84407607D01*
X120926322Y-84405723D01*
X120921444Y-84405081D01*
X120921441Y-84405080D01*
X120805720Y-84389845D01*
X121577900Y-84389845D01*
X121577901Y-85180554D01*
X121578121Y-85182575D01*
X121578121Y-85182584D01*
X121581657Y-85215139D01*
X121584264Y-85239138D01*
X121585919Y-85243552D01*
X121585919Y-85243553D01*
X121591090Y-85257345D01*
X121632438Y-85367641D01*
X121635648Y-85371924D01*
X121635649Y-85371926D01*
X121711531Y-85473176D01*
X121714741Y-85477459D01*
X121719024Y-85480669D01*
X121820274Y-85556551D01*
X121820276Y-85556552D01*
X121824559Y-85559762D01*
X121829571Y-85561641D01*
X121829573Y-85561642D01*
X121948646Y-85606281D01*
X121948650Y-85606282D01*
X121953062Y-85607936D01*
X121957748Y-85608445D01*
X121957752Y-85608446D01*
X122009617Y-85614080D01*
X122009623Y-85614080D01*
X122011645Y-85614300D01*
X122681835Y-85614300D01*
X123352354Y-85614299D01*
X123354375Y-85614079D01*
X123354384Y-85614079D01*
X123386939Y-85610543D01*
X123410938Y-85607936D01*
X123432638Y-85599801D01*
X123534427Y-85561642D01*
X123534429Y-85561641D01*
X123539441Y-85559762D01*
X123543724Y-85556552D01*
X123543726Y-85556551D01*
X123644976Y-85480669D01*
X123649259Y-85477459D01*
X123652469Y-85473176D01*
X123728351Y-85371926D01*
X123728352Y-85371924D01*
X123731562Y-85367641D01*
X123745124Y-85331466D01*
X123778081Y-85243554D01*
X123778082Y-85243550D01*
X123779736Y-85239138D01*
X123780245Y-85234452D01*
X123780246Y-85234448D01*
X123785880Y-85182583D01*
X123785880Y-85182577D01*
X123786100Y-85180555D01*
X123786099Y-84389846D01*
X123785759Y-84386707D01*
X123780245Y-84335951D01*
X123779736Y-84331262D01*
X123767039Y-84297392D01*
X123733442Y-84207773D01*
X123733441Y-84207771D01*
X123731562Y-84202759D01*
X123722549Y-84190732D01*
X123652469Y-84097224D01*
X123649259Y-84092941D01*
X123644976Y-84089731D01*
X123543726Y-84013849D01*
X123543724Y-84013848D01*
X123539441Y-84010638D01*
X123534429Y-84008759D01*
X123534427Y-84008758D01*
X123415354Y-83964119D01*
X123415350Y-83964118D01*
X123410938Y-83962464D01*
X123406252Y-83961955D01*
X123406248Y-83961954D01*
X123354383Y-83956320D01*
X123354377Y-83956320D01*
X123352355Y-83956100D01*
X122682165Y-83956100D01*
X122011646Y-83956101D01*
X122009625Y-83956321D01*
X122009616Y-83956321D01*
X121977061Y-83959857D01*
X121953062Y-83962464D01*
X121948648Y-83964119D01*
X121948647Y-83964119D01*
X121829573Y-84008758D01*
X121829571Y-84008759D01*
X121824559Y-84010638D01*
X121820276Y-84013848D01*
X121820274Y-84013849D01*
X121719024Y-84089731D01*
X121714741Y-84092941D01*
X121711531Y-84097224D01*
X121641452Y-84190732D01*
X121632438Y-84202759D01*
X121630559Y-84207771D01*
X121630558Y-84207773D01*
X121604175Y-84278151D01*
X121584264Y-84331262D01*
X121583755Y-84335948D01*
X121583754Y-84335952D01*
X121578241Y-84386707D01*
X121577900Y-84389845D01*
X120805720Y-84389845D01*
X120781884Y-84386707D01*
X120777000Y-84386064D01*
X120772116Y-84386707D01*
X120632559Y-84405080D01*
X120632556Y-84405081D01*
X120627678Y-84405723D01*
X120623131Y-84407607D01*
X120623129Y-84407607D01*
X120575333Y-84427405D01*
X120488532Y-84463359D01*
X120477589Y-84471756D01*
X120463781Y-84479777D01*
X120463807Y-84479825D01*
X120462198Y-84480696D01*
X120460966Y-84481412D01*
X120457154Y-84483015D01*
X120454093Y-84485084D01*
X120454092Y-84485085D01*
X120440340Y-84494383D01*
X120406927Y-84516973D01*
X120400856Y-84521219D01*
X120400249Y-84521658D01*
X120394183Y-84526196D01*
X120360942Y-84551915D01*
X120311946Y-84567581D01*
X120261750Y-84545614D01*
X120200424Y-84484288D01*
X120195114Y-84481582D01*
X120095876Y-84431018D01*
X120095877Y-84431018D01*
X120090603Y-84428331D01*
X120061942Y-84423792D01*
X120002406Y-84414362D01*
X120002404Y-84414362D01*
X119999488Y-84413900D01*
X119618244Y-84413900D01*
X119615328Y-84414362D01*
X119615326Y-84414362D01*
X119555790Y-84423792D01*
X119527129Y-84428331D01*
X119521855Y-84431018D01*
X119521856Y-84431018D01*
X119422619Y-84481582D01*
X119417308Y-84484288D01*
X119330154Y-84571442D01*
X119327466Y-84576718D01*
X119327465Y-84576719D01*
X119319967Y-84591434D01*
X119274197Y-84681263D01*
X119273271Y-84687110D01*
X119260502Y-84767734D01*
X119259766Y-84772378D01*
X119259766Y-85086692D01*
X119242173Y-85135030D01*
X119237740Y-85139866D01*
X118949319Y-85428287D01*
X118945101Y-85431928D01*
X118940820Y-85434021D01*
X118909435Y-85467854D01*
X118906325Y-85471207D01*
X118904367Y-85473239D01*
X118890043Y-85487563D01*
X118888082Y-85490421D01*
X118885867Y-85493087D01*
X118885722Y-85492967D01*
X118883137Y-85496204D01*
X118863472Y-85517403D01*
X118860899Y-85523852D01*
X118858092Y-85530887D01*
X118850259Y-85545559D01*
X118842044Y-85557534D01*
X118840442Y-85564285D01*
X118840441Y-85564287D01*
X118835366Y-85585673D01*
X118832046Y-85596172D01*
X118821327Y-85623039D01*
X118820700Y-85629434D01*
X118820700Y-85638674D01*
X118818668Y-85656036D01*
X118815783Y-85668194D01*
X118816719Y-85675072D01*
X118816719Y-85675073D01*
X118820013Y-85699275D01*
X118820700Y-85709416D01*
X118820700Y-85778987D01*
X118803107Y-85827325D01*
X118758558Y-85853045D01*
X118707900Y-85844112D01*
X118693009Y-85830802D01*
X118692039Y-85831772D01*
X118688061Y-85827794D01*
X118684724Y-85823276D01*
X118574887Y-85742149D01*
X118569585Y-85740287D01*
X118569583Y-85740286D01*
X118467174Y-85704323D01*
X118446051Y-85696905D01*
X118427903Y-85695190D01*
X118416021Y-85694066D01*
X118416013Y-85694066D01*
X118414261Y-85693900D01*
X118110688Y-85693900D01*
X117805740Y-85693901D01*
X117803986Y-85694067D01*
X117803980Y-85694067D01*
X117790261Y-85695364D01*
X117773949Y-85696905D01*
X117714708Y-85717709D01*
X117650417Y-85740286D01*
X117650415Y-85740287D01*
X117645113Y-85742149D01*
X117535276Y-85823276D01*
X117454149Y-85933113D01*
X117452287Y-85938415D01*
X117452286Y-85938417D01*
X117452285Y-85938421D01*
X117452283Y-85938423D01*
X117449656Y-85943385D01*
X117448651Y-85942853D01*
X117419666Y-85978197D01*
X117381334Y-85988700D01*
X116979962Y-85988700D01*
X116931624Y-85971107D01*
X116912459Y-85946642D01*
X116902247Y-85925842D01*
X116902246Y-85925840D01*
X116899509Y-85920266D01*
X116895115Y-85915879D01*
X116895113Y-85915877D01*
X116841824Y-85862681D01*
X116810189Y-85831101D01*
X116804605Y-85828372D01*
X116804603Y-85828370D01*
X116720838Y-85787425D01*
X116696802Y-85775676D01*
X116622933Y-85764900D01*
X116001435Y-85764900D01*
X115376068Y-85764901D01*
X115301555Y-85775869D01*
X115250139Y-85801113D01*
X115193842Y-85828753D01*
X115193841Y-85828754D01*
X115188266Y-85831491D01*
X115183879Y-85835885D01*
X115183877Y-85835887D01*
X115150919Y-85868903D01*
X115099101Y-85920811D01*
X115096372Y-85926395D01*
X115096370Y-85926397D01*
X115071050Y-85978197D01*
X115043676Y-86034198D01*
X115032900Y-86108067D01*
X113020000Y-86108067D01*
X113020000Y-85902800D01*
X112910335Y-85901456D01*
X112903000Y-85901157D01*
X112903000Y-85527136D01*
X113158401Y-85527136D01*
X113158802Y-85532606D01*
X113168503Y-85598518D01*
X113171929Y-85609543D01*
X113222165Y-85711863D01*
X113229299Y-85721828D01*
X113309708Y-85802095D01*
X113319690Y-85809216D01*
X113422097Y-85859274D01*
X113433121Y-85862681D01*
X113498410Y-85872205D01*
X113503846Y-85872600D01*
X113958841Y-85872600D01*
X113968998Y-85868903D01*
X113972100Y-85863531D01*
X113972100Y-85859340D01*
X114276900Y-85859340D01*
X114280597Y-85869497D01*
X114285969Y-85872599D01*
X114745136Y-85872599D01*
X114750606Y-85872198D01*
X114816518Y-85862497D01*
X114827543Y-85859071D01*
X114929863Y-85808835D01*
X114939828Y-85801701D01*
X115020095Y-85721292D01*
X115027216Y-85711310D01*
X115077274Y-85608903D01*
X115080681Y-85597879D01*
X115090205Y-85532590D01*
X115090600Y-85527154D01*
X115090600Y-85509659D01*
X115086903Y-85499502D01*
X115081531Y-85496400D01*
X114290159Y-85496400D01*
X114280002Y-85500097D01*
X114276900Y-85505469D01*
X114276900Y-85859340D01*
X113972100Y-85859340D01*
X113972100Y-85509659D01*
X113968403Y-85499502D01*
X113963031Y-85496400D01*
X113171660Y-85496400D01*
X113161503Y-85500097D01*
X113158401Y-85505469D01*
X113158401Y-85527136D01*
X112903000Y-85527136D01*
X112903000Y-85178341D01*
X113158400Y-85178341D01*
X113162097Y-85188498D01*
X113167469Y-85191600D01*
X113958841Y-85191600D01*
X113968998Y-85187903D01*
X113972100Y-85182531D01*
X113972100Y-85178341D01*
X114276900Y-85178341D01*
X114280597Y-85188498D01*
X114285969Y-85191600D01*
X115077340Y-85191600D01*
X115087497Y-85187903D01*
X115090599Y-85182531D01*
X115090599Y-85160864D01*
X115090198Y-85155394D01*
X115082110Y-85100443D01*
X117406400Y-85100443D01*
X117406566Y-85103968D01*
X117408969Y-85129390D01*
X117410921Y-85138284D01*
X117452732Y-85257345D01*
X117457936Y-85267174D01*
X117532296Y-85367849D01*
X117540151Y-85375704D01*
X117640826Y-85450064D01*
X117650655Y-85455268D01*
X117769716Y-85497079D01*
X117778610Y-85499031D01*
X117804032Y-85501434D01*
X117807557Y-85501600D01*
X117944341Y-85501600D01*
X117954498Y-85497903D01*
X117957600Y-85492531D01*
X117957600Y-85488341D01*
X118262400Y-85488341D01*
X118266097Y-85498498D01*
X118271469Y-85501600D01*
X118412443Y-85501600D01*
X118415968Y-85501434D01*
X118441390Y-85499031D01*
X118450284Y-85497079D01*
X118569345Y-85455268D01*
X118579174Y-85450064D01*
X118679849Y-85375704D01*
X118687704Y-85367849D01*
X118762064Y-85267174D01*
X118767268Y-85257345D01*
X118809079Y-85138284D01*
X118811031Y-85129390D01*
X118813434Y-85103968D01*
X118813600Y-85100443D01*
X118813600Y-84988659D01*
X118809903Y-84978502D01*
X118804531Y-84975400D01*
X118275659Y-84975400D01*
X118265502Y-84979097D01*
X118262400Y-84984469D01*
X118262400Y-85488341D01*
X117957600Y-85488341D01*
X117957600Y-84988659D01*
X117953903Y-84978502D01*
X117948531Y-84975400D01*
X117419659Y-84975400D01*
X117409502Y-84979097D01*
X117406400Y-84984469D01*
X117406400Y-85100443D01*
X115082110Y-85100443D01*
X115080497Y-85089482D01*
X115077071Y-85078457D01*
X115026835Y-84976137D01*
X115019701Y-84966172D01*
X114939292Y-84885905D01*
X114929310Y-84878784D01*
X114826903Y-84828726D01*
X114815879Y-84825319D01*
X114750590Y-84815795D01*
X114745154Y-84815400D01*
X114290159Y-84815400D01*
X114280002Y-84819097D01*
X114276900Y-84824469D01*
X114276900Y-85178341D01*
X113972100Y-85178341D01*
X113972100Y-84828660D01*
X113968403Y-84818503D01*
X113963031Y-84815401D01*
X113503864Y-84815401D01*
X113498394Y-84815802D01*
X113432482Y-84825503D01*
X113421457Y-84828929D01*
X113319137Y-84879165D01*
X113309172Y-84886299D01*
X113228905Y-84966708D01*
X113221784Y-84976690D01*
X113171726Y-85079097D01*
X113168319Y-85090121D01*
X113158795Y-85155410D01*
X113158400Y-85160846D01*
X113158400Y-85178341D01*
X112903000Y-85178341D01*
X112903000Y-84208067D01*
X115032900Y-84208067D01*
X115032901Y-84579932D01*
X115043869Y-84654445D01*
X115099491Y-84767734D01*
X115103885Y-84772121D01*
X115103887Y-84772123D01*
X115107102Y-84775332D01*
X115188811Y-84856899D01*
X115194395Y-84859628D01*
X115194397Y-84859630D01*
X115278162Y-84900575D01*
X115302198Y-84912324D01*
X115376067Y-84923100D01*
X115997565Y-84923100D01*
X116622932Y-84923099D01*
X116697445Y-84912131D01*
X116765365Y-84878784D01*
X116805158Y-84859247D01*
X116805159Y-84859246D01*
X116810734Y-84856509D01*
X116815121Y-84852115D01*
X116815123Y-84852113D01*
X116891770Y-84775332D01*
X116899899Y-84767189D01*
X116953594Y-84657341D01*
X117406400Y-84657341D01*
X117410097Y-84667498D01*
X117415469Y-84670600D01*
X117944341Y-84670600D01*
X117954498Y-84666903D01*
X117957600Y-84661531D01*
X117957600Y-84657341D01*
X118262400Y-84657341D01*
X118266097Y-84667498D01*
X118271469Y-84670600D01*
X118800341Y-84670600D01*
X118810498Y-84666903D01*
X118813600Y-84661531D01*
X118813600Y-84545557D01*
X118813434Y-84542032D01*
X118811031Y-84516610D01*
X118809079Y-84507716D01*
X118767268Y-84388655D01*
X118762064Y-84378826D01*
X118687704Y-84278151D01*
X118679849Y-84270296D01*
X118579174Y-84195936D01*
X118569345Y-84190732D01*
X118450284Y-84148921D01*
X118441390Y-84146969D01*
X118415968Y-84144566D01*
X118412443Y-84144400D01*
X118275659Y-84144400D01*
X118265502Y-84148097D01*
X118262400Y-84153469D01*
X118262400Y-84657341D01*
X117957600Y-84657341D01*
X117957600Y-84157659D01*
X117953903Y-84147502D01*
X117948531Y-84144400D01*
X117807557Y-84144400D01*
X117804032Y-84144566D01*
X117778610Y-84146969D01*
X117769716Y-84148921D01*
X117650655Y-84190732D01*
X117640826Y-84195936D01*
X117540151Y-84270296D01*
X117532296Y-84278151D01*
X117457936Y-84378826D01*
X117452732Y-84388655D01*
X117410921Y-84507716D01*
X117408969Y-84516610D01*
X117406566Y-84542032D01*
X117406400Y-84545557D01*
X117406400Y-84657341D01*
X116953594Y-84657341D01*
X116955324Y-84653802D01*
X116966100Y-84579933D01*
X116966099Y-84208068D01*
X116955131Y-84133555D01*
X116899509Y-84020266D01*
X116895115Y-84015879D01*
X116895113Y-84015877D01*
X116843264Y-83964119D01*
X116810189Y-83931101D01*
X116804605Y-83928372D01*
X116804603Y-83928370D01*
X116720838Y-83887425D01*
X116696802Y-83875676D01*
X116622933Y-83864900D01*
X116608907Y-83864900D01*
X116560569Y-83847307D01*
X116534849Y-83802758D01*
X116543782Y-83752100D01*
X116555729Y-83736531D01*
X116790136Y-83502124D01*
X116836754Y-83480386D01*
X116843308Y-83480100D01*
X117157622Y-83480100D01*
X117160538Y-83479638D01*
X117160540Y-83479638D01*
X117242890Y-83466595D01*
X117248737Y-83465669D01*
X117351785Y-83413163D01*
X117353281Y-83412401D01*
X117353282Y-83412400D01*
X117358558Y-83409712D01*
X117445712Y-83322558D01*
X117487849Y-83239860D01*
X117525470Y-83204778D01*
X117554853Y-83198800D01*
X117776147Y-83198800D01*
X117824485Y-83216393D01*
X117843151Y-83239860D01*
X117885288Y-83322558D01*
X117972442Y-83409712D01*
X117977718Y-83412400D01*
X117977719Y-83412401D01*
X117979215Y-83413163D01*
X118082263Y-83465669D01*
X118088110Y-83466595D01*
X118170460Y-83479638D01*
X118170462Y-83479638D01*
X118173378Y-83480100D01*
X118554622Y-83480100D01*
X118557538Y-83479638D01*
X118557540Y-83479638D01*
X118639890Y-83466595D01*
X118645737Y-83465669D01*
X118748785Y-83413163D01*
X118750281Y-83412401D01*
X118750282Y-83412400D01*
X118755558Y-83409712D01*
X118842712Y-83322558D01*
X118893789Y-83222315D01*
X118933722Y-83186297D01*
X118938290Y-83184535D01*
X118945111Y-83183264D01*
X118951017Y-83179624D01*
X118951021Y-83179622D01*
X118969734Y-83168087D01*
X118979510Y-83163009D01*
X119001197Y-83153692D01*
X119001200Y-83153690D01*
X119006079Y-83151594D01*
X119011044Y-83147515D01*
X119017575Y-83140984D01*
X119031289Y-83130143D01*
X119036017Y-83127229D01*
X119036018Y-83127228D01*
X119041928Y-83123585D01*
X119060924Y-83098604D01*
X119067602Y-83090957D01*
X119131392Y-83027167D01*
X119178012Y-83005427D01*
X119227699Y-83018741D01*
X119257204Y-83060878D01*
X119259766Y-83080341D01*
X119259766Y-83121622D01*
X119260228Y-83124538D01*
X119260228Y-83124540D01*
X119263661Y-83146212D01*
X119274197Y-83212737D01*
X119330154Y-83322558D01*
X119417308Y-83409712D01*
X119422584Y-83412400D01*
X119422585Y-83412401D01*
X119424081Y-83413163D01*
X119527129Y-83465669D01*
X119532976Y-83466595D01*
X119615326Y-83479638D01*
X119615328Y-83479638D01*
X119618244Y-83480100D01*
X119999488Y-83480100D01*
X120002404Y-83479638D01*
X120002406Y-83479638D01*
X120084756Y-83466595D01*
X120090603Y-83465669D01*
X120193651Y-83413163D01*
X120195147Y-83412401D01*
X120195148Y-83412400D01*
X120200424Y-83409712D01*
X120255522Y-83354614D01*
X120302142Y-83332874D01*
X120352131Y-83346401D01*
X120376902Y-83363928D01*
X120381999Y-83367434D01*
X120382226Y-83367586D01*
X120382296Y-83367633D01*
X120382330Y-83367655D01*
X120382509Y-83367775D01*
X120387622Y-83371098D01*
X120387836Y-83371233D01*
X120387856Y-83371246D01*
X120419544Y-83391259D01*
X120439631Y-83403945D01*
X120446817Y-83408305D01*
X120447081Y-83408459D01*
X120447115Y-83408479D01*
X120447251Y-83408558D01*
X120447557Y-83408736D01*
X120455179Y-83412987D01*
X120509842Y-83442152D01*
X120520454Y-83446298D01*
X120558973Y-83461348D01*
X120558977Y-83461349D01*
X120561034Y-83462153D01*
X120563175Y-83462711D01*
X120563176Y-83462711D01*
X120565641Y-83463353D01*
X120575465Y-83466649D01*
X120627678Y-83488277D01*
X120632556Y-83488919D01*
X120632559Y-83488920D01*
X120772116Y-83507293D01*
X120777000Y-83507936D01*
X120781884Y-83507293D01*
X120921441Y-83488920D01*
X120921444Y-83488919D01*
X120926322Y-83488277D01*
X120930869Y-83486393D01*
X120930871Y-83486393D01*
X120995895Y-83459459D01*
X121065468Y-83430641D01*
X121184955Y-83338955D01*
X121276641Y-83219468D01*
X121318394Y-83118668D01*
X121332393Y-83084871D01*
X121332393Y-83084869D01*
X121334277Y-83080322D01*
X121342385Y-83018741D01*
X121352351Y-82943036D01*
X121591606Y-82943036D01*
X121591730Y-82945665D01*
X121630962Y-83088099D01*
X121633945Y-83095632D01*
X121714111Y-83247680D01*
X121718634Y-83254386D01*
X121829585Y-83385678D01*
X121835445Y-83391259D01*
X121972000Y-83495663D01*
X121978922Y-83499854D01*
X122134702Y-83572496D01*
X122142373Y-83575108D01*
X122311083Y-83612819D01*
X122317169Y-83613664D01*
X122318553Y-83613741D01*
X122320655Y-83613800D01*
X122516341Y-83613800D01*
X122526498Y-83610103D01*
X122529600Y-83604731D01*
X122529600Y-83600541D01*
X122834400Y-83600541D01*
X122838097Y-83610698D01*
X122843469Y-83613800D01*
X122999939Y-83613800D01*
X123004005Y-83613580D01*
X123131928Y-83599683D01*
X123139840Y-83597944D01*
X123302749Y-83543118D01*
X123310096Y-83539724D01*
X123457435Y-83451194D01*
X123463885Y-83446298D01*
X123588773Y-83328197D01*
X123594020Y-83322032D01*
X123690637Y-83179864D01*
X123694436Y-83172719D01*
X123758271Y-83013121D01*
X123760448Y-83005322D01*
X123769493Y-82950684D01*
X123767504Y-82940056D01*
X123764514Y-82937600D01*
X122847659Y-82937600D01*
X122837502Y-82941297D01*
X122834400Y-82946669D01*
X122834400Y-83600541D01*
X122529600Y-83600541D01*
X122529600Y-82950859D01*
X122525903Y-82940702D01*
X122520531Y-82937600D01*
X121602767Y-82937600D01*
X121592610Y-82941297D01*
X121591606Y-82943036D01*
X121352351Y-82943036D01*
X121353293Y-82935884D01*
X121353936Y-82931000D01*
X121334277Y-82781678D01*
X121276641Y-82642532D01*
X121259134Y-82619716D01*
X121594507Y-82619716D01*
X121596496Y-82630344D01*
X121599486Y-82632800D01*
X122516341Y-82632800D01*
X122526498Y-82629103D01*
X122529600Y-82623731D01*
X122529600Y-82619541D01*
X122834400Y-82619541D01*
X122838097Y-82629698D01*
X122843469Y-82632800D01*
X123761233Y-82632800D01*
X123771390Y-82629103D01*
X123772394Y-82627364D01*
X123772270Y-82624735D01*
X123733038Y-82482301D01*
X123730055Y-82474768D01*
X123649889Y-82322720D01*
X123645366Y-82316014D01*
X123534415Y-82184722D01*
X123528555Y-82179141D01*
X123392000Y-82074737D01*
X123385078Y-82070546D01*
X123229298Y-81997904D01*
X123221627Y-81995292D01*
X123052917Y-81957581D01*
X123046831Y-81956736D01*
X123045447Y-81956659D01*
X123043345Y-81956600D01*
X122847659Y-81956600D01*
X122837502Y-81960297D01*
X122834400Y-81965669D01*
X122834400Y-82619541D01*
X122529600Y-82619541D01*
X122529600Y-81969859D01*
X122525903Y-81959702D01*
X122520531Y-81956600D01*
X122364061Y-81956600D01*
X122359995Y-81956820D01*
X122232072Y-81970717D01*
X122224160Y-81972456D01*
X122061251Y-82027282D01*
X122053904Y-82030676D01*
X121906565Y-82119206D01*
X121900115Y-82124102D01*
X121775227Y-82242203D01*
X121769980Y-82248368D01*
X121673363Y-82390536D01*
X121669564Y-82397681D01*
X121605729Y-82557279D01*
X121603552Y-82565078D01*
X121594507Y-82619716D01*
X121259134Y-82619716D01*
X121184955Y-82523045D01*
X121065468Y-82431359D01*
X120984162Y-82397681D01*
X120930871Y-82375607D01*
X120930869Y-82375607D01*
X120926322Y-82373723D01*
X120921444Y-82373081D01*
X120921441Y-82373080D01*
X120781884Y-82354707D01*
X120777000Y-82354064D01*
X120772116Y-82354707D01*
X120632559Y-82373080D01*
X120632556Y-82373081D01*
X120627678Y-82373723D01*
X120608956Y-82381478D01*
X120537319Y-82411151D01*
X120530315Y-82413654D01*
X120509843Y-82419847D01*
X120455181Y-82449011D01*
X120447677Y-82453194D01*
X120447371Y-82453372D01*
X120447262Y-82453435D01*
X120447232Y-82453453D01*
X120446936Y-82453625D01*
X120439631Y-82458054D01*
X120439366Y-82458221D01*
X120439331Y-82458243D01*
X120391014Y-82488758D01*
X120340751Y-82499695D01*
X120295217Y-82475763D01*
X120290215Y-82469618D01*
X120287578Y-82464442D01*
X120200424Y-82377288D01*
X120193428Y-82373723D01*
X120172390Y-82363004D01*
X120137308Y-82325383D01*
X120134616Y-82274014D01*
X120165573Y-82232932D01*
X120172390Y-82228996D01*
X120195147Y-82217401D01*
X120195148Y-82217400D01*
X120200424Y-82214712D01*
X120287578Y-82127558D01*
X120343535Y-82017737D01*
X120352465Y-81961357D01*
X120357504Y-81929540D01*
X120357504Y-81929538D01*
X120357966Y-81926622D01*
X120357966Y-81470378D01*
X120356617Y-81461857D01*
X120344461Y-81385110D01*
X120343535Y-81379263D01*
X120290418Y-81275016D01*
X120290267Y-81274719D01*
X120290266Y-81274718D01*
X120287578Y-81269442D01*
X120200424Y-81182288D01*
X120090603Y-81126331D01*
X120059905Y-81121469D01*
X120002406Y-81112362D01*
X120002404Y-81112362D01*
X119999488Y-81111900D01*
X119618244Y-81111900D01*
X119615328Y-81112362D01*
X119615326Y-81112362D01*
X119557827Y-81121469D01*
X119527129Y-81126331D01*
X119417308Y-81182288D01*
X119330154Y-81269442D01*
X119327464Y-81274721D01*
X119327462Y-81274724D01*
X119278358Y-81371094D01*
X119238427Y-81407112D01*
X119237512Y-81407465D01*
X119230689Y-81408736D01*
X119224780Y-81412378D01*
X119224778Y-81412379D01*
X119206066Y-81423913D01*
X119196290Y-81428991D01*
X119174603Y-81438308D01*
X119174600Y-81438310D01*
X119169721Y-81440406D01*
X119164756Y-81444485D01*
X119158225Y-81451016D01*
X119144511Y-81461857D01*
X119139783Y-81464771D01*
X119139782Y-81464772D01*
X119133872Y-81468415D01*
X119114886Y-81493383D01*
X119108201Y-81501039D01*
X119040973Y-81568267D01*
X118994353Y-81590007D01*
X118944666Y-81576693D01*
X118915161Y-81534556D01*
X118912599Y-81515093D01*
X118912599Y-81473373D01*
X118912136Y-81467498D01*
X118899113Y-81385265D01*
X118895501Y-81374147D01*
X118844992Y-81275016D01*
X118838113Y-81265549D01*
X118759451Y-81186887D01*
X118749984Y-81180008D01*
X118650855Y-81129500D01*
X118639734Y-81125887D01*
X118557501Y-81112862D01*
X118551629Y-81112400D01*
X118529659Y-81112400D01*
X118519502Y-81116097D01*
X118516400Y-81121469D01*
X118516400Y-81775700D01*
X118498807Y-81824038D01*
X118454258Y-81849758D01*
X118441200Y-81850900D01*
X117828660Y-81850900D01*
X117818503Y-81854597D01*
X117815401Y-81859969D01*
X117815401Y-81923627D01*
X117815864Y-81929502D01*
X117828887Y-82011735D01*
X117832499Y-82022853D01*
X117883008Y-82121984D01*
X117889887Y-82131451D01*
X117968549Y-82210113D01*
X117978016Y-82216992D01*
X118001026Y-82228716D01*
X118036108Y-82266337D01*
X118038800Y-82317706D01*
X118007843Y-82358788D01*
X118001032Y-82362721D01*
X118000476Y-82363004D01*
X117979439Y-82373723D01*
X117972442Y-82377288D01*
X117885288Y-82464442D01*
X117882600Y-82469718D01*
X117882599Y-82469719D01*
X117843151Y-82547140D01*
X117805530Y-82582222D01*
X117776147Y-82588200D01*
X117554853Y-82588200D01*
X117506515Y-82570607D01*
X117487849Y-82547140D01*
X117448401Y-82469719D01*
X117448400Y-82469718D01*
X117445712Y-82464442D01*
X117358558Y-82377288D01*
X117351562Y-82373723D01*
X117330524Y-82363004D01*
X117329973Y-82362723D01*
X117294892Y-82325104D01*
X117292200Y-82273734D01*
X117323157Y-82232652D01*
X117329974Y-82228716D01*
X117352984Y-82216992D01*
X117362451Y-82210113D01*
X117441113Y-82131451D01*
X117447992Y-82121984D01*
X117498500Y-82022855D01*
X117502113Y-82011734D01*
X117515138Y-81929501D01*
X117515600Y-81923629D01*
X117515600Y-81864159D01*
X117511903Y-81854002D01*
X117506531Y-81850900D01*
X116431660Y-81850900D01*
X116421503Y-81854597D01*
X116418401Y-81859969D01*
X116418401Y-81923627D01*
X116418864Y-81929502D01*
X116431887Y-82011735D01*
X116435499Y-82022853D01*
X116486008Y-82121984D01*
X116492887Y-82131451D01*
X116571549Y-82210113D01*
X116581016Y-82216992D01*
X116604026Y-82228716D01*
X116639108Y-82266337D01*
X116641800Y-82317706D01*
X116610843Y-82358788D01*
X116604032Y-82362721D01*
X116603476Y-82363004D01*
X116582439Y-82373723D01*
X116575442Y-82377288D01*
X116488288Y-82464442D01*
X116485600Y-82469718D01*
X116485599Y-82469719D01*
X116462370Y-82515308D01*
X116432331Y-82574263D01*
X116417900Y-82665378D01*
X116417900Y-82979692D01*
X116400307Y-83028030D01*
X116395874Y-83032866D01*
X115822819Y-83605921D01*
X115818601Y-83609562D01*
X115814320Y-83611655D01*
X115779825Y-83648841D01*
X115777867Y-83650873D01*
X115763543Y-83665197D01*
X115761582Y-83668055D01*
X115759367Y-83670721D01*
X115759222Y-83670601D01*
X115756637Y-83673838D01*
X115736972Y-83695037D01*
X115734399Y-83701486D01*
X115731592Y-83708521D01*
X115723759Y-83723193D01*
X115715544Y-83735168D01*
X115713942Y-83741919D01*
X115713941Y-83741921D01*
X115708866Y-83763307D01*
X115705546Y-83773806D01*
X115694827Y-83800673D01*
X115694309Y-83805958D01*
X115693939Y-83807478D01*
X115665417Y-83850287D01*
X115620870Y-83864901D01*
X115376068Y-83864901D01*
X115301555Y-83875869D01*
X115244803Y-83903733D01*
X115193842Y-83928753D01*
X115193841Y-83928754D01*
X115188266Y-83931491D01*
X115183879Y-83935885D01*
X115183877Y-83935887D01*
X115143906Y-83975928D01*
X115099101Y-84020811D01*
X115043676Y-84134198D01*
X115032900Y-84208067D01*
X112903000Y-84208067D01*
X112903000Y-81532841D01*
X116418400Y-81532841D01*
X116422097Y-81542998D01*
X116427469Y-81546100D01*
X116801341Y-81546100D01*
X116811498Y-81542403D01*
X116814600Y-81537031D01*
X116814600Y-81532841D01*
X117119400Y-81532841D01*
X117123097Y-81542998D01*
X117128469Y-81546100D01*
X117502340Y-81546100D01*
X117512497Y-81542403D01*
X117515599Y-81537031D01*
X117515599Y-81532841D01*
X117815400Y-81532841D01*
X117819097Y-81542998D01*
X117824469Y-81546100D01*
X118198341Y-81546100D01*
X118208498Y-81542403D01*
X118211600Y-81537031D01*
X118211600Y-81125660D01*
X118207903Y-81115503D01*
X118202531Y-81112401D01*
X118176373Y-81112401D01*
X118170498Y-81112864D01*
X118088265Y-81125887D01*
X118077147Y-81129499D01*
X117978016Y-81180008D01*
X117968549Y-81186887D01*
X117889887Y-81265549D01*
X117883008Y-81275016D01*
X117832500Y-81374145D01*
X117828887Y-81385266D01*
X117815862Y-81467499D01*
X117815400Y-81473371D01*
X117815400Y-81532841D01*
X117515599Y-81532841D01*
X117515599Y-81473373D01*
X117515136Y-81467498D01*
X117502113Y-81385265D01*
X117498501Y-81374147D01*
X117447992Y-81275016D01*
X117441113Y-81265549D01*
X117362451Y-81186887D01*
X117352984Y-81180008D01*
X117253855Y-81129500D01*
X117242734Y-81125887D01*
X117160501Y-81112862D01*
X117154629Y-81112400D01*
X117132659Y-81112400D01*
X117122502Y-81116097D01*
X117119400Y-81121469D01*
X117119400Y-81532841D01*
X116814600Y-81532841D01*
X116814600Y-81125660D01*
X116810903Y-81115503D01*
X116805531Y-81112401D01*
X116779373Y-81112401D01*
X116773498Y-81112864D01*
X116691265Y-81125887D01*
X116680147Y-81129499D01*
X116581016Y-81180008D01*
X116571549Y-81186887D01*
X116492887Y-81265549D01*
X116486008Y-81275016D01*
X116435500Y-81374145D01*
X116431887Y-81385266D01*
X116418862Y-81467499D01*
X116418400Y-81473371D01*
X116418400Y-81532841D01*
X112903000Y-81532841D01*
X112903000Y-80669137D01*
X112909883Y-80637707D01*
X112926252Y-80602130D01*
X112932162Y-80591606D01*
X112982019Y-80517459D01*
X112994156Y-80499409D01*
X113000461Y-80491293D01*
X113105421Y-80373764D01*
X113107200Y-80370841D01*
X113107208Y-80370830D01*
X113112104Y-80362785D01*
X113121199Y-80350751D01*
X113122665Y-80349170D01*
X113124633Y-80347127D01*
X113138957Y-80332803D01*
X113140918Y-80329945D01*
X113143133Y-80327279D01*
X113143278Y-80327399D01*
X113145863Y-80324162D01*
X113165528Y-80302963D01*
X113168101Y-80296514D01*
X113170908Y-80289479D01*
X113178742Y-80274806D01*
X113183030Y-80268555D01*
X113186956Y-80262832D01*
X113189654Y-80251466D01*
X113193634Y-80234693D01*
X113196956Y-80224189D01*
X113197390Y-80223103D01*
X113207673Y-80197327D01*
X113208300Y-80190932D01*
X113208300Y-80181692D01*
X113210332Y-80164328D01*
X113211614Y-80158925D01*
X113213217Y-80152172D01*
X113212260Y-80145136D01*
X113208987Y-80121091D01*
X113208300Y-80110950D01*
X113208300Y-78923136D01*
X113476401Y-78923136D01*
X113476802Y-78928606D01*
X113486503Y-78994518D01*
X113489929Y-79005543D01*
X113540165Y-79107863D01*
X113547299Y-79117828D01*
X113627708Y-79198095D01*
X113637690Y-79205216D01*
X113740097Y-79255274D01*
X113751121Y-79258681D01*
X113816410Y-79268205D01*
X113821846Y-79268600D01*
X114564341Y-79268600D01*
X114574498Y-79264903D01*
X114577600Y-79259531D01*
X114577600Y-79255340D01*
X114882400Y-79255340D01*
X114886097Y-79265497D01*
X114891469Y-79268599D01*
X115638136Y-79268599D01*
X115643606Y-79268198D01*
X115709518Y-79258497D01*
X115720543Y-79255071D01*
X115822863Y-79204835D01*
X115832828Y-79197701D01*
X115913095Y-79117292D01*
X115920216Y-79107310D01*
X115970274Y-79004903D01*
X115973681Y-78993879D01*
X115983205Y-78928590D01*
X115983600Y-78923154D01*
X115983600Y-78905659D01*
X115979903Y-78895502D01*
X115974531Y-78892400D01*
X114895659Y-78892400D01*
X114885502Y-78896097D01*
X114882400Y-78901469D01*
X114882400Y-79255340D01*
X114577600Y-79255340D01*
X114577600Y-78905659D01*
X114573903Y-78895502D01*
X114568531Y-78892400D01*
X113489660Y-78892400D01*
X113479503Y-78896097D01*
X113476401Y-78901469D01*
X113476401Y-78923136D01*
X113208300Y-78923136D01*
X113208300Y-78574341D01*
X113476400Y-78574341D01*
X113480097Y-78584498D01*
X113485469Y-78587600D01*
X114564341Y-78587600D01*
X114574498Y-78583903D01*
X114577600Y-78578531D01*
X114577600Y-78574341D01*
X114882400Y-78574341D01*
X114886097Y-78584498D01*
X114891469Y-78587600D01*
X115970340Y-78587600D01*
X115980497Y-78583903D01*
X115983599Y-78578531D01*
X115983599Y-78556864D01*
X115983198Y-78551394D01*
X115973497Y-78485482D01*
X115970071Y-78474457D01*
X115919835Y-78372137D01*
X115912701Y-78362172D01*
X115832292Y-78281905D01*
X115822310Y-78274784D01*
X115719903Y-78224726D01*
X115708879Y-78221319D01*
X115643590Y-78211795D01*
X115638154Y-78211400D01*
X114895659Y-78211400D01*
X114885502Y-78215097D01*
X114882400Y-78220469D01*
X114882400Y-78574341D01*
X114577600Y-78574341D01*
X114577600Y-78224660D01*
X114573903Y-78214503D01*
X114568531Y-78211401D01*
X113821864Y-78211401D01*
X113816394Y-78211802D01*
X113750482Y-78221503D01*
X113739457Y-78224929D01*
X113637137Y-78275165D01*
X113627172Y-78282299D01*
X113546905Y-78362708D01*
X113539784Y-78372690D01*
X113489726Y-78475097D01*
X113486319Y-78486121D01*
X113476795Y-78551410D01*
X113476400Y-78556846D01*
X113476400Y-78574341D01*
X113208300Y-78574341D01*
X113208300Y-77627607D01*
X113225893Y-77579269D01*
X113230326Y-77574433D01*
X113347527Y-77457232D01*
X113394147Y-77435492D01*
X113443834Y-77448806D01*
X113473339Y-77490943D01*
X113475901Y-77510403D01*
X113475901Y-77655932D01*
X113486869Y-77730445D01*
X113542491Y-77843734D01*
X113546885Y-77848121D01*
X113546887Y-77848123D01*
X113576771Y-77877955D01*
X113631811Y-77932899D01*
X113637395Y-77935628D01*
X113637397Y-77935630D01*
X113706977Y-77969641D01*
X113745198Y-77988324D01*
X113819067Y-77999100D01*
X114727173Y-77999100D01*
X115640932Y-77999099D01*
X115715445Y-77988131D01*
X115828734Y-77932509D01*
X115844043Y-77917174D01*
X115890641Y-77895395D01*
X115938239Y-77907250D01*
X115942622Y-77910098D01*
X115942836Y-77910233D01*
X115942856Y-77910246D01*
X115994341Y-77942762D01*
X115994631Y-77942945D01*
X116001817Y-77947305D01*
X116002081Y-77947459D01*
X116002115Y-77947479D01*
X116002251Y-77947558D01*
X116002557Y-77947736D01*
X116010179Y-77951987D01*
X116010509Y-77952163D01*
X116061583Y-77979413D01*
X116064842Y-77981152D01*
X116096572Y-77993549D01*
X116113973Y-78000348D01*
X116113977Y-78000349D01*
X116116034Y-78001153D01*
X116118175Y-78001711D01*
X116118176Y-78001711D01*
X116120641Y-78002353D01*
X116130465Y-78005649D01*
X116182678Y-78027277D01*
X116187556Y-78027919D01*
X116187559Y-78027920D01*
X116327116Y-78046293D01*
X116332000Y-78046936D01*
X116336884Y-78046293D01*
X116476441Y-78027920D01*
X116476444Y-78027919D01*
X116481322Y-78027277D01*
X116485869Y-78025393D01*
X116485871Y-78025393D01*
X116573330Y-77989166D01*
X116620468Y-77969641D01*
X116739955Y-77877955D01*
X116831641Y-77758468D01*
X116874417Y-77655197D01*
X116887393Y-77623871D01*
X116887393Y-77623869D01*
X116889277Y-77619322D01*
X116908936Y-77470000D01*
X116889277Y-77320678D01*
X116831641Y-77181532D01*
X116739955Y-77062045D01*
X116620468Y-76970359D01*
X116533537Y-76934351D01*
X116485871Y-76914607D01*
X116485869Y-76914607D01*
X116481322Y-76912723D01*
X116476444Y-76912081D01*
X116476441Y-76912080D01*
X116336884Y-76893707D01*
X116332000Y-76893064D01*
X116327116Y-76893707D01*
X116187559Y-76912080D01*
X116187556Y-76912081D01*
X116182678Y-76912723D01*
X116178129Y-76914607D01*
X116178130Y-76914607D01*
X116092319Y-76950151D01*
X116085315Y-76952654D01*
X116064843Y-76958847D01*
X116010181Y-76988011D01*
X116002677Y-76992194D01*
X116002397Y-76992357D01*
X116002262Y-76992435D01*
X116002252Y-76992441D01*
X116001936Y-76992625D01*
X115994631Y-76997054D01*
X115994390Y-76997206D01*
X115994379Y-76997213D01*
X115953619Y-77022956D01*
X115942622Y-77029901D01*
X115938180Y-77032788D01*
X115888067Y-77044379D01*
X115844072Y-77022956D01*
X115837378Y-77016274D01*
X115832589Y-77011493D01*
X115832588Y-77011492D01*
X115828189Y-77007101D01*
X115822605Y-77004372D01*
X115822603Y-77004370D01*
X115727283Y-76957777D01*
X115714802Y-76951676D01*
X115640933Y-76940900D01*
X115054238Y-76940900D01*
X115005900Y-76923307D01*
X114980180Y-76878758D01*
X114990314Y-76827349D01*
X114992528Y-76824963D01*
X114995099Y-76818519D01*
X114995101Y-76818516D01*
X114997908Y-76811480D01*
X115005742Y-76796807D01*
X115010030Y-76790556D01*
X115013957Y-76784831D01*
X115015560Y-76778075D01*
X115017439Y-76773835D01*
X115053106Y-76736769D01*
X115086192Y-76729099D01*
X115640932Y-76729099D01*
X115715445Y-76718131D01*
X115772197Y-76690267D01*
X115823158Y-76665247D01*
X115823159Y-76665246D01*
X115828734Y-76662509D01*
X115833121Y-76658115D01*
X115833123Y-76658113D01*
X115873094Y-76618072D01*
X115917899Y-76573189D01*
X115938028Y-76532011D01*
X115970763Y-76465041D01*
X115973324Y-76459802D01*
X115984100Y-76385933D01*
X115984099Y-76014068D01*
X115973131Y-75939555D01*
X115917509Y-75826266D01*
X115913115Y-75821879D01*
X115913113Y-75821877D01*
X115864481Y-75773330D01*
X115828189Y-75737101D01*
X115822605Y-75734372D01*
X115822603Y-75734370D01*
X115738838Y-75693425D01*
X115714802Y-75681676D01*
X115640933Y-75670900D01*
X114732827Y-75670900D01*
X113819068Y-75670901D01*
X113744555Y-75681869D01*
X113687803Y-75709733D01*
X113636842Y-75734753D01*
X113636841Y-75734754D01*
X113631266Y-75737491D01*
X113626878Y-75741887D01*
X113626877Y-75741888D01*
X113590720Y-75778107D01*
X113544119Y-75799886D01*
X113494420Y-75786615D01*
X113464879Y-75744504D01*
X113462300Y-75724978D01*
X113462300Y-75405008D01*
X113479893Y-75356670D01*
X113524442Y-75330950D01*
X113575100Y-75339883D01*
X113590627Y-75351786D01*
X113631811Y-75392899D01*
X113637395Y-75395628D01*
X113637397Y-75395630D01*
X113721162Y-75436575D01*
X113745198Y-75448324D01*
X113819067Y-75459100D01*
X114727173Y-75459100D01*
X115640932Y-75459099D01*
X115715445Y-75448131D01*
X115803248Y-75405022D01*
X115823158Y-75395247D01*
X115823159Y-75395246D01*
X115828734Y-75392509D01*
X115833121Y-75388115D01*
X115833123Y-75388113D01*
X115881269Y-75339883D01*
X115917899Y-75303189D01*
X115928491Y-75281522D01*
X115970763Y-75195041D01*
X115973324Y-75189802D01*
X115984100Y-75115933D01*
X115984099Y-74744068D01*
X115974269Y-74677288D01*
X115973982Y-74675336D01*
X115973131Y-74669555D01*
X115917509Y-74556266D01*
X115913115Y-74551879D01*
X115913113Y-74551877D01*
X115865059Y-74503907D01*
X115828189Y-74467101D01*
X115822605Y-74464372D01*
X115822603Y-74464370D01*
X115738838Y-74423425D01*
X115714802Y-74411676D01*
X115640933Y-74400900D01*
X114732827Y-74400900D01*
X113819068Y-74400901D01*
X113744555Y-74411869D01*
X113687803Y-74439733D01*
X113636842Y-74464753D01*
X113636841Y-74464754D01*
X113631266Y-74467491D01*
X113626879Y-74471885D01*
X113626877Y-74471887D01*
X113601456Y-74497353D01*
X113542101Y-74556811D01*
X113539369Y-74562400D01*
X113529831Y-74581911D01*
X113492797Y-74617612D01*
X113456365Y-74622585D01*
X113456371Y-74622745D01*
X113449434Y-74623005D01*
X113449432Y-74623005D01*
X113405699Y-74624647D01*
X113402878Y-74624700D01*
X113382607Y-74624700D01*
X113379197Y-74625335D01*
X113375753Y-74625653D01*
X113375737Y-74625476D01*
X113371617Y-74625926D01*
X113349657Y-74626750D01*
X113349654Y-74626751D01*
X113342718Y-74627011D01*
X113336339Y-74629752D01*
X113336337Y-74629752D01*
X113329377Y-74632742D01*
X113313465Y-74637576D01*
X113306016Y-74638964D01*
X113306014Y-74638965D01*
X113299189Y-74640236D01*
X113293280Y-74643878D01*
X113293278Y-74643879D01*
X113274566Y-74655413D01*
X113264790Y-74660491D01*
X113243103Y-74669808D01*
X113243100Y-74669810D01*
X113238221Y-74671906D01*
X113233256Y-74675985D01*
X113226725Y-74682516D01*
X113213011Y-74693357D01*
X113208283Y-74696271D01*
X113208282Y-74696272D01*
X113202372Y-74699915D01*
X113183386Y-74724883D01*
X113176701Y-74732540D01*
X113031374Y-74877866D01*
X112984754Y-74899605D01*
X112935067Y-74886291D01*
X112905562Y-74844154D01*
X112903000Y-74824691D01*
X112903000Y-74503907D01*
X112920593Y-74455569D01*
X112925026Y-74450733D01*
X113388433Y-73987326D01*
X113435053Y-73965586D01*
X113441607Y-73965300D01*
X113462038Y-73965300D01*
X113510376Y-73982893D01*
X113529541Y-74007358D01*
X113529599Y-74007475D01*
X113542491Y-74033734D01*
X113546885Y-74038121D01*
X113546887Y-74038123D01*
X113586928Y-74078094D01*
X113631811Y-74122899D01*
X113637395Y-74125628D01*
X113637397Y-74125630D01*
X113708920Y-74160591D01*
X113745198Y-74178324D01*
X113819067Y-74189100D01*
X114727173Y-74189100D01*
X115640932Y-74189099D01*
X115715445Y-74178131D01*
X115772197Y-74150267D01*
X115823158Y-74125247D01*
X115823159Y-74125246D01*
X115828734Y-74122509D01*
X115833121Y-74118115D01*
X115833123Y-74118113D01*
X115873094Y-74078072D01*
X115917899Y-74033189D01*
X115922213Y-74024365D01*
X115970763Y-73925041D01*
X115973324Y-73919802D01*
X115984100Y-73845933D01*
X115984099Y-73474068D01*
X115974269Y-73407288D01*
X115973982Y-73405336D01*
X115973131Y-73399555D01*
X115930459Y-73312642D01*
X115920247Y-73291842D01*
X115920246Y-73291841D01*
X115917509Y-73286266D01*
X115913115Y-73281879D01*
X115913113Y-73281877D01*
X115832983Y-73201887D01*
X115828189Y-73197101D01*
X115822605Y-73194372D01*
X115822603Y-73194370D01*
X115733590Y-73150860D01*
X115714802Y-73141676D01*
X115640933Y-73130900D01*
X114732827Y-73130900D01*
X113819068Y-73130901D01*
X113744555Y-73141869D01*
X113687803Y-73169733D01*
X113636842Y-73194753D01*
X113636841Y-73194754D01*
X113631266Y-73197491D01*
X113626879Y-73201885D01*
X113626877Y-73201887D01*
X113586906Y-73241928D01*
X113542101Y-73286811D01*
X113539369Y-73292400D01*
X113529531Y-73312525D01*
X113492497Y-73348225D01*
X113461971Y-73354700D01*
X113339432Y-73354700D01*
X113333876Y-73354292D01*
X113329371Y-73352745D01*
X113322438Y-73353005D01*
X113322436Y-73353005D01*
X113278699Y-73354647D01*
X113275878Y-73354700D01*
X113255607Y-73354700D01*
X113252197Y-73355335D01*
X113248753Y-73355653D01*
X113248737Y-73355476D01*
X113244617Y-73355926D01*
X113222657Y-73356750D01*
X113222654Y-73356751D01*
X113215718Y-73357011D01*
X113209339Y-73359752D01*
X113209337Y-73359752D01*
X113202377Y-73362742D01*
X113186465Y-73367576D01*
X113179016Y-73368964D01*
X113179014Y-73368965D01*
X113172189Y-73370236D01*
X113166280Y-73373878D01*
X113166278Y-73373879D01*
X113147566Y-73385413D01*
X113137790Y-73390491D01*
X113116103Y-73399808D01*
X113116100Y-73399810D01*
X113111221Y-73401906D01*
X113106256Y-73405985D01*
X113099725Y-73412516D01*
X113086011Y-73423357D01*
X113081283Y-73426271D01*
X113081282Y-73426272D01*
X113075372Y-73429915D01*
X113056376Y-73454896D01*
X113049698Y-73462543D01*
X113031374Y-73480867D01*
X112984754Y-73502607D01*
X112935067Y-73489293D01*
X112905562Y-73447156D01*
X112903000Y-73427693D01*
X112903000Y-73049137D01*
X112909883Y-73017707D01*
X112926252Y-72982130D01*
X112932162Y-72971606D01*
X112940125Y-72959763D01*
X112994156Y-72879409D01*
X113000461Y-72871293D01*
X113105421Y-72753764D01*
X113112281Y-72742492D01*
X113123346Y-72728413D01*
X113134433Y-72717326D01*
X113181053Y-72695586D01*
X113187607Y-72695300D01*
X113462038Y-72695300D01*
X113510376Y-72712893D01*
X113529541Y-72737358D01*
X113538949Y-72756519D01*
X113542491Y-72763734D01*
X113546885Y-72768121D01*
X113546887Y-72768123D01*
X113586928Y-72808094D01*
X113631811Y-72852899D01*
X113637395Y-72855628D01*
X113637397Y-72855630D01*
X113721162Y-72896575D01*
X113745198Y-72908324D01*
X113819067Y-72919100D01*
X114727173Y-72919100D01*
X115640932Y-72919099D01*
X115715445Y-72908131D01*
X115790498Y-72871282D01*
X115823158Y-72855247D01*
X115823159Y-72855246D01*
X115828734Y-72852509D01*
X115833121Y-72848115D01*
X115833123Y-72848113D01*
X115881426Y-72799725D01*
X115917899Y-72763189D01*
X115921160Y-72756519D01*
X115970763Y-72655041D01*
X115973324Y-72649802D01*
X115984100Y-72575933D01*
X115984099Y-72204068D01*
X115975079Y-72142790D01*
X115973982Y-72135336D01*
X115973131Y-72129555D01*
X115930459Y-72042642D01*
X115920247Y-72021842D01*
X115920246Y-72021841D01*
X115917509Y-72016266D01*
X115913115Y-72011879D01*
X115913113Y-72011877D01*
X115856334Y-71955197D01*
X115828189Y-71927101D01*
X115822605Y-71924372D01*
X115822603Y-71924370D01*
X115738838Y-71883425D01*
X115714802Y-71871676D01*
X115640933Y-71860900D01*
X114732827Y-71860900D01*
X113819068Y-71860901D01*
X113744555Y-71871869D01*
X113687803Y-71899733D01*
X113636842Y-71924753D01*
X113636841Y-71924754D01*
X113631266Y-71927491D01*
X113626879Y-71931885D01*
X113626877Y-71931887D01*
X113610995Y-71947797D01*
X113542101Y-72016811D01*
X113539369Y-72022400D01*
X113529531Y-72042525D01*
X113492497Y-72078225D01*
X113461971Y-72084700D01*
X113085432Y-72084700D01*
X113079876Y-72084292D01*
X113075371Y-72082745D01*
X113068438Y-72083005D01*
X113068436Y-72083005D01*
X113024699Y-72084647D01*
X113021878Y-72084700D01*
X113001607Y-72084700D01*
X112998197Y-72085335D01*
X112994753Y-72085653D01*
X112994737Y-72085476D01*
X112990615Y-72085926D01*
X112981019Y-72086286D01*
X112932056Y-72070517D01*
X112904684Y-72026965D01*
X112903000Y-72011139D01*
X112903000Y-71583524D01*
X112920593Y-71535186D01*
X112941112Y-71518106D01*
X112973010Y-71500023D01*
X112983996Y-71494919D01*
X113063988Y-71465340D01*
X113075604Y-71462078D01*
X113184646Y-71440719D01*
X113194860Y-71439437D01*
X113348737Y-71430745D01*
X113348742Y-71430744D01*
X113352164Y-71430551D01*
X113364983Y-71427432D01*
X113382761Y-71425300D01*
X113462038Y-71425300D01*
X113510376Y-71442893D01*
X113529541Y-71467358D01*
X113529599Y-71467475D01*
X113542491Y-71493734D01*
X113546885Y-71498121D01*
X113546887Y-71498123D01*
X113566903Y-71518104D01*
X113631811Y-71582899D01*
X113637395Y-71585628D01*
X113637397Y-71585630D01*
X113663064Y-71598176D01*
X113745198Y-71638324D01*
X113819067Y-71649100D01*
X114727173Y-71649100D01*
X115640932Y-71649099D01*
X115715445Y-71638131D01*
X115796824Y-71598176D01*
X115823158Y-71585247D01*
X115823159Y-71585246D01*
X115828734Y-71582509D01*
X115833121Y-71578115D01*
X115833123Y-71578113D01*
X115893027Y-71518104D01*
X115917899Y-71493189D01*
X115930469Y-71467475D01*
X115970763Y-71385041D01*
X115973324Y-71379802D01*
X115984100Y-71305933D01*
X115984099Y-70934068D01*
X115973131Y-70859555D01*
X115930459Y-70772642D01*
X115920247Y-70751842D01*
X115920246Y-70751841D01*
X115917509Y-70746266D01*
X115913115Y-70741879D01*
X115913113Y-70741877D01*
X115870273Y-70699112D01*
X115828189Y-70657101D01*
X115822605Y-70654372D01*
X115822603Y-70654370D01*
X115738838Y-70613425D01*
X115714802Y-70601676D01*
X115640933Y-70590900D01*
X114732827Y-70590900D01*
X113819068Y-70590901D01*
X113744555Y-70601869D01*
X113687803Y-70629733D01*
X113636842Y-70654753D01*
X113636841Y-70654754D01*
X113631266Y-70657491D01*
X113626879Y-70661885D01*
X113626877Y-70661887D01*
X113606050Y-70682751D01*
X113542101Y-70746811D01*
X113539369Y-70752400D01*
X113529531Y-70772525D01*
X113492497Y-70808225D01*
X113461971Y-70814700D01*
X113382049Y-70814700D01*
X113363242Y-70812310D01*
X113358823Y-70811169D01*
X113352165Y-70809449D01*
X113252726Y-70803831D01*
X113194858Y-70800562D01*
X113184645Y-70799280D01*
X113075604Y-70777921D01*
X113063988Y-70774659D01*
X112983996Y-70745080D01*
X112973010Y-70739976D01*
X112941114Y-70721894D01*
X112907740Y-70682751D01*
X112903000Y-70656475D01*
X112903000Y-70230500D01*
X112920593Y-70182162D01*
X112965142Y-70156442D01*
X112978200Y-70155300D01*
X112985306Y-70155300D01*
X113002671Y-70157332D01*
X113014827Y-70160217D01*
X113021705Y-70159281D01*
X113021706Y-70159281D01*
X113045909Y-70155987D01*
X113056050Y-70155300D01*
X113462038Y-70155300D01*
X113510376Y-70172893D01*
X113529541Y-70197358D01*
X113530472Y-70199253D01*
X113542491Y-70223734D01*
X113546885Y-70228121D01*
X113546887Y-70228123D01*
X113556020Y-70237240D01*
X113631811Y-70312899D01*
X113637395Y-70315628D01*
X113637397Y-70315630D01*
X113721162Y-70356575D01*
X113745198Y-70368324D01*
X113819067Y-70379100D01*
X114727173Y-70379100D01*
X115640932Y-70379099D01*
X115715445Y-70368131D01*
X115772197Y-70340267D01*
X115823158Y-70315247D01*
X115823159Y-70315246D01*
X115828734Y-70312509D01*
X115833121Y-70308115D01*
X115833123Y-70308113D01*
X115903872Y-70237240D01*
X115917899Y-70223189D01*
X115922863Y-70213035D01*
X115961575Y-70133838D01*
X115973324Y-70109802D01*
X115984100Y-70035933D01*
X115984099Y-69664068D01*
X115973131Y-69589555D01*
X115930459Y-69502642D01*
X115920247Y-69481842D01*
X115920246Y-69481841D01*
X115917509Y-69476266D01*
X115913115Y-69471879D01*
X115913113Y-69471877D01*
X115862021Y-69420874D01*
X115828189Y-69387101D01*
X115822605Y-69384372D01*
X115822603Y-69384370D01*
X115738838Y-69343425D01*
X115714802Y-69331676D01*
X115640933Y-69320900D01*
X114732827Y-69320900D01*
X113819068Y-69320901D01*
X113744555Y-69331869D01*
X113687803Y-69359733D01*
X113636842Y-69384753D01*
X113636841Y-69384754D01*
X113631266Y-69387491D01*
X113626879Y-69391885D01*
X113626877Y-69391887D01*
X113597941Y-69420874D01*
X113542101Y-69476811D01*
X113539369Y-69482400D01*
X113529531Y-69502525D01*
X113492497Y-69538225D01*
X113461971Y-69544700D01*
X113187607Y-69544700D01*
X113139269Y-69527107D01*
X113134433Y-69522674D01*
X113122842Y-69511083D01*
X113111231Y-69496092D01*
X113107296Y-69489415D01*
X113107294Y-69489412D01*
X113105422Y-69486236D01*
X113000458Y-69368702D01*
X112994160Y-69360595D01*
X112932157Y-69268385D01*
X112926250Y-69257865D01*
X112926250Y-69257864D01*
X112909883Y-69222292D01*
X112903000Y-69190862D01*
X112903000Y-68813158D01*
X112920593Y-68764820D01*
X112965142Y-68739100D01*
X113015800Y-68748033D01*
X113034354Y-68764564D01*
X113034655Y-68765180D01*
X113039744Y-68769901D01*
X113039745Y-68769902D01*
X113071855Y-68799688D01*
X113073887Y-68801646D01*
X113088197Y-68815956D01*
X113091058Y-68817918D01*
X113093723Y-68820133D01*
X113093605Y-68820275D01*
X113096835Y-68822860D01*
X113118037Y-68842528D01*
X113124484Y-68845100D01*
X113124487Y-68845102D01*
X113131524Y-68847909D01*
X113146194Y-68855742D01*
X113158168Y-68863956D01*
X113164921Y-68865559D01*
X113164922Y-68865559D01*
X113186311Y-68870635D01*
X113196802Y-68873953D01*
X113223673Y-68884673D01*
X113230068Y-68885300D01*
X113239306Y-68885300D01*
X113256671Y-68887332D01*
X113268827Y-68890217D01*
X113299908Y-68885987D01*
X113310047Y-68885300D01*
X113462038Y-68885300D01*
X113510376Y-68902893D01*
X113529541Y-68927358D01*
X113539609Y-68947863D01*
X113542491Y-68953734D01*
X113546885Y-68958121D01*
X113546887Y-68958123D01*
X113586928Y-68998094D01*
X113631811Y-69042899D01*
X113637395Y-69045628D01*
X113637397Y-69045630D01*
X113721162Y-69086575D01*
X113745198Y-69098324D01*
X113819067Y-69109100D01*
X114727173Y-69109100D01*
X115640932Y-69109099D01*
X115715445Y-69098131D01*
X115772197Y-69070267D01*
X115823158Y-69045247D01*
X115823159Y-69045246D01*
X115828734Y-69042509D01*
X115833121Y-69038115D01*
X115833123Y-69038113D01*
X115876286Y-68994874D01*
X115917899Y-68953189D01*
X115942485Y-68902893D01*
X115970763Y-68845041D01*
X115973324Y-68839802D01*
X115984100Y-68765933D01*
X115984100Y-68763136D01*
X122776401Y-68763136D01*
X122776802Y-68768606D01*
X122786503Y-68834518D01*
X122789929Y-68845543D01*
X122840165Y-68947863D01*
X122847299Y-68957828D01*
X122927708Y-69038095D01*
X122937690Y-69045216D01*
X123040097Y-69095274D01*
X123051121Y-69098681D01*
X123116410Y-69108205D01*
X123121846Y-69108600D01*
X123864341Y-69108600D01*
X123874498Y-69104903D01*
X123877600Y-69099531D01*
X123877600Y-69095340D01*
X124182400Y-69095340D01*
X124186097Y-69105497D01*
X124191469Y-69108599D01*
X124938136Y-69108599D01*
X124943606Y-69108198D01*
X125009518Y-69098497D01*
X125020543Y-69095071D01*
X125122863Y-69044835D01*
X125132828Y-69037701D01*
X125213095Y-68957292D01*
X125220216Y-68947310D01*
X125270274Y-68844903D01*
X125273681Y-68833879D01*
X125283205Y-68768590D01*
X125283600Y-68763154D01*
X125283600Y-68745659D01*
X125279903Y-68735502D01*
X125274531Y-68732400D01*
X124195659Y-68732400D01*
X124185502Y-68736097D01*
X124182400Y-68741469D01*
X124182400Y-69095340D01*
X123877600Y-69095340D01*
X123877600Y-68745659D01*
X123873903Y-68735502D01*
X123868531Y-68732400D01*
X122789660Y-68732400D01*
X122779503Y-68736097D01*
X122776401Y-68741469D01*
X122776401Y-68763136D01*
X115984100Y-68763136D01*
X115984099Y-68414341D01*
X122776400Y-68414341D01*
X122780097Y-68424498D01*
X122785469Y-68427600D01*
X123864341Y-68427600D01*
X123874498Y-68423903D01*
X123877600Y-68418531D01*
X123877600Y-68414341D01*
X124182400Y-68414341D01*
X124186097Y-68424498D01*
X124191469Y-68427600D01*
X125270340Y-68427600D01*
X125280497Y-68423903D01*
X125283599Y-68418531D01*
X125283599Y-68396864D01*
X125283198Y-68391394D01*
X125273497Y-68325482D01*
X125270071Y-68314457D01*
X125219835Y-68212137D01*
X125212701Y-68202172D01*
X125132292Y-68121905D01*
X125122310Y-68114784D01*
X125019903Y-68064726D01*
X125008879Y-68061319D01*
X124943590Y-68051795D01*
X124938154Y-68051400D01*
X124195659Y-68051400D01*
X124185502Y-68055097D01*
X124182400Y-68060469D01*
X124182400Y-68414341D01*
X123877600Y-68414341D01*
X123877600Y-68064660D01*
X123873903Y-68054503D01*
X123868531Y-68051401D01*
X123121864Y-68051401D01*
X123116394Y-68051802D01*
X123050482Y-68061503D01*
X123039457Y-68064929D01*
X122937137Y-68115165D01*
X122927172Y-68122299D01*
X122846905Y-68202708D01*
X122839784Y-68212690D01*
X122789726Y-68315097D01*
X122786319Y-68326121D01*
X122776795Y-68391410D01*
X122776400Y-68396846D01*
X122776400Y-68414341D01*
X115984099Y-68414341D01*
X115984099Y-68394068D01*
X115975079Y-68332790D01*
X115973982Y-68325336D01*
X115973131Y-68319555D01*
X115940294Y-68252674D01*
X115920247Y-68211842D01*
X115920246Y-68211841D01*
X115917509Y-68206266D01*
X115913115Y-68201879D01*
X115913113Y-68201877D01*
X115845468Y-68134350D01*
X115828189Y-68117101D01*
X115822605Y-68114372D01*
X115822603Y-68114370D01*
X115721457Y-68064929D01*
X115714802Y-68061676D01*
X115640933Y-68050900D01*
X114732827Y-68050900D01*
X113819068Y-68050901D01*
X113744555Y-68061869D01*
X113687803Y-68089733D01*
X113636842Y-68114753D01*
X113636841Y-68114754D01*
X113631266Y-68117491D01*
X113626879Y-68121885D01*
X113626877Y-68121887D01*
X113586906Y-68161928D01*
X113542101Y-68206811D01*
X113539369Y-68212400D01*
X113529531Y-68232525D01*
X113492497Y-68268225D01*
X113461971Y-68274700D01*
X113441607Y-68274700D01*
X113393269Y-68257107D01*
X113388433Y-68252674D01*
X112925026Y-67789267D01*
X112903286Y-67742647D01*
X112903000Y-67736093D01*
X112903000Y-67288307D01*
X112920593Y-67239969D01*
X112965142Y-67214249D01*
X113015800Y-67223182D01*
X113031374Y-67235133D01*
X113282918Y-67486677D01*
X113286562Y-67490898D01*
X113288655Y-67495180D01*
X113293744Y-67499901D01*
X113293745Y-67499902D01*
X113325855Y-67529688D01*
X113327887Y-67531646D01*
X113342197Y-67545956D01*
X113345058Y-67547918D01*
X113347723Y-67550133D01*
X113347605Y-67550275D01*
X113350835Y-67552860D01*
X113372037Y-67572528D01*
X113378484Y-67575100D01*
X113378487Y-67575102D01*
X113385524Y-67577909D01*
X113400194Y-67585742D01*
X113412168Y-67593956D01*
X113418921Y-67595559D01*
X113418922Y-67595559D01*
X113440311Y-67600635D01*
X113450802Y-67603953D01*
X113477673Y-67614673D01*
X113479372Y-67614840D01*
X113520948Y-67642540D01*
X113527864Y-67653942D01*
X113542491Y-67683734D01*
X113546885Y-67688121D01*
X113546887Y-67688123D01*
X113569528Y-67710724D01*
X113631811Y-67772899D01*
X113637395Y-67775628D01*
X113637397Y-67775630D01*
X113706977Y-67809641D01*
X113745198Y-67828324D01*
X113819067Y-67839100D01*
X114727173Y-67839100D01*
X115640932Y-67839099D01*
X115715445Y-67828131D01*
X115772197Y-67800267D01*
X115823158Y-67775247D01*
X115823159Y-67775246D01*
X115828734Y-67772509D01*
X115833121Y-67768115D01*
X115833123Y-67768113D01*
X115892671Y-67708461D01*
X115917899Y-67683189D01*
X115923103Y-67672544D01*
X115970763Y-67575041D01*
X115973324Y-67569802D01*
X115984100Y-67495933D01*
X115984099Y-67124068D01*
X115973131Y-67049555D01*
X115934066Y-66969989D01*
X115920247Y-66941842D01*
X115920246Y-66941841D01*
X115917509Y-66936266D01*
X115913115Y-66931879D01*
X115913113Y-66931877D01*
X115859207Y-66878065D01*
X115828189Y-66847101D01*
X115822605Y-66844372D01*
X115822603Y-66844370D01*
X115727283Y-66797777D01*
X115714802Y-66791676D01*
X115640933Y-66780900D01*
X114732827Y-66780900D01*
X113819068Y-66780901D01*
X113757790Y-66789921D01*
X113756227Y-66790151D01*
X113744555Y-66791869D01*
X113722821Y-66802540D01*
X113636842Y-66844753D01*
X113636841Y-66844754D01*
X113631266Y-66847491D01*
X113626878Y-66851887D01*
X113626877Y-66851888D01*
X113622486Y-66856286D01*
X113575884Y-66878065D01*
X113526186Y-66864794D01*
X113516092Y-66856331D01*
X113484326Y-66824565D01*
X113462586Y-66777945D01*
X113462300Y-66771391D01*
X113462300Y-66515008D01*
X113479893Y-66466670D01*
X113524442Y-66440950D01*
X113575100Y-66449883D01*
X113590627Y-66461786D01*
X113631811Y-66502899D01*
X113637395Y-66505628D01*
X113637397Y-66505630D01*
X113721162Y-66546575D01*
X113745198Y-66558324D01*
X113819067Y-66569100D01*
X114727173Y-66569100D01*
X115640932Y-66569099D01*
X115715445Y-66558131D01*
X115772197Y-66530267D01*
X115823158Y-66505247D01*
X115823159Y-66505246D01*
X115828734Y-66502509D01*
X115833121Y-66498115D01*
X115833123Y-66498113D01*
X115890186Y-66440950D01*
X115917899Y-66413189D01*
X115973324Y-66299802D01*
X115984100Y-66225933D01*
X115984099Y-65854068D01*
X115973131Y-65779555D01*
X115933892Y-65699635D01*
X115920247Y-65671842D01*
X115920246Y-65671841D01*
X115917509Y-65666266D01*
X115913115Y-65661879D01*
X115913113Y-65661877D01*
X115832983Y-65581887D01*
X115828189Y-65577101D01*
X115822605Y-65574372D01*
X115822603Y-65574370D01*
X115738838Y-65533425D01*
X115714802Y-65521676D01*
X115640933Y-65510900D01*
X115086084Y-65510900D01*
X115037746Y-65493307D01*
X115020282Y-65468870D01*
X115019764Y-65469189D01*
X115011121Y-65455168D01*
X115004587Y-65444566D01*
X114999510Y-65434793D01*
X114988094Y-65408222D01*
X114989235Y-65407732D01*
X114980269Y-65362953D01*
X115004954Y-65317823D01*
X115054608Y-65299099D01*
X115640932Y-65299099D01*
X115715445Y-65288131D01*
X115828734Y-65232509D01*
X115844043Y-65217174D01*
X115890641Y-65195395D01*
X115938239Y-65207250D01*
X115942622Y-65210098D01*
X115942836Y-65210233D01*
X115942856Y-65210246D01*
X115994341Y-65242762D01*
X115994631Y-65242945D01*
X116001817Y-65247305D01*
X116002081Y-65247459D01*
X116002115Y-65247479D01*
X116002251Y-65247558D01*
X116002557Y-65247736D01*
X116010179Y-65251987D01*
X116064842Y-65281152D01*
X116076644Y-65285763D01*
X116113973Y-65300348D01*
X116113977Y-65300349D01*
X116116034Y-65301153D01*
X116118175Y-65301711D01*
X116118176Y-65301711D01*
X116120641Y-65302353D01*
X116130465Y-65305649D01*
X116182678Y-65327277D01*
X116187556Y-65327919D01*
X116187559Y-65327920D01*
X116327116Y-65346293D01*
X116332000Y-65346936D01*
X116336884Y-65346293D01*
X116476441Y-65327920D01*
X116476444Y-65327919D01*
X116481322Y-65327277D01*
X116485869Y-65325393D01*
X116485871Y-65325393D01*
X116573330Y-65289166D01*
X116620468Y-65269641D01*
X116739955Y-65177955D01*
X116831641Y-65058468D01*
X116889277Y-64919322D01*
X116908936Y-64770000D01*
X116895113Y-64665004D01*
X116889920Y-64625559D01*
X116889919Y-64625556D01*
X116889277Y-64620678D01*
X116875244Y-64586798D01*
X116833525Y-64486081D01*
X116831641Y-64481532D01*
X116739955Y-64362045D01*
X116620468Y-64270359D01*
X116527967Y-64232044D01*
X116485871Y-64214607D01*
X116485869Y-64214607D01*
X116481322Y-64212723D01*
X116476444Y-64212081D01*
X116476441Y-64212080D01*
X116336884Y-64193707D01*
X116332000Y-64193064D01*
X116327116Y-64193707D01*
X116187559Y-64212080D01*
X116187556Y-64212081D01*
X116182678Y-64212723D01*
X116162406Y-64221120D01*
X116092319Y-64250151D01*
X116085315Y-64252654D01*
X116064843Y-64258847D01*
X116010181Y-64288011D01*
X116002677Y-64292194D01*
X116002371Y-64292372D01*
X116002262Y-64292435D01*
X116002232Y-64292453D01*
X116001936Y-64292625D01*
X115994631Y-64297054D01*
X115994390Y-64297206D01*
X115994379Y-64297213D01*
X115953619Y-64322956D01*
X115942622Y-64329901D01*
X115938180Y-64332788D01*
X115888067Y-64344379D01*
X115844072Y-64322956D01*
X115835605Y-64314504D01*
X115832589Y-64311493D01*
X115832588Y-64311492D01*
X115828189Y-64307101D01*
X115822605Y-64304372D01*
X115822603Y-64304370D01*
X115727283Y-64257777D01*
X115714802Y-64251676D01*
X115640933Y-64240900D01*
X114732827Y-64240900D01*
X113819068Y-64240901D01*
X113757790Y-64249921D01*
X113756227Y-64250151D01*
X113744555Y-64251869D01*
X113706895Y-64270359D01*
X113636842Y-64304753D01*
X113636841Y-64304754D01*
X113631266Y-64307491D01*
X113626878Y-64311887D01*
X113626877Y-64311888D01*
X113590720Y-64348107D01*
X113544119Y-64369886D01*
X113494420Y-64356615D01*
X113464879Y-64314504D01*
X113462300Y-64294978D01*
X113462300Y-63974302D01*
X113479893Y-63925964D01*
X113524442Y-63900244D01*
X113575100Y-63909177D01*
X113590628Y-63921081D01*
X113627708Y-63958095D01*
X113637690Y-63965216D01*
X113740097Y-64015274D01*
X113751121Y-64018681D01*
X113816410Y-64028205D01*
X113821846Y-64028600D01*
X114564341Y-64028600D01*
X114574498Y-64024903D01*
X114577600Y-64019531D01*
X114577600Y-64015340D01*
X114882400Y-64015340D01*
X114886097Y-64025497D01*
X114891469Y-64028599D01*
X115638136Y-64028599D01*
X115643606Y-64028198D01*
X115709518Y-64018497D01*
X115720543Y-64015071D01*
X115822863Y-63964835D01*
X115832828Y-63957701D01*
X115913095Y-63877292D01*
X115920216Y-63867310D01*
X115970274Y-63764903D01*
X115973681Y-63753879D01*
X115983205Y-63688590D01*
X115983600Y-63683154D01*
X115983600Y-63665659D01*
X115979903Y-63655502D01*
X115974531Y-63652400D01*
X114895659Y-63652400D01*
X114885502Y-63656097D01*
X114882400Y-63661469D01*
X114882400Y-64015340D01*
X114577600Y-64015340D01*
X114577600Y-63334341D01*
X114882400Y-63334341D01*
X114886097Y-63344498D01*
X114891469Y-63347600D01*
X115970340Y-63347600D01*
X115980497Y-63343903D01*
X115983599Y-63338531D01*
X115983599Y-63316864D01*
X115983198Y-63311394D01*
X115973497Y-63245482D01*
X115970071Y-63234457D01*
X115919835Y-63132137D01*
X115912701Y-63122172D01*
X115832292Y-63041905D01*
X115822310Y-63034784D01*
X115719903Y-62984726D01*
X115708879Y-62981319D01*
X115643590Y-62971795D01*
X115638154Y-62971400D01*
X114895659Y-62971400D01*
X114885502Y-62975097D01*
X114882400Y-62980469D01*
X114882400Y-63334341D01*
X114577600Y-63334341D01*
X114577600Y-62984660D01*
X114573903Y-62974503D01*
X114568531Y-62971401D01*
X113821864Y-62971401D01*
X113816394Y-62971802D01*
X113750482Y-62981503D01*
X113739457Y-62984929D01*
X113637137Y-63035165D01*
X113627173Y-63042299D01*
X113590721Y-63078815D01*
X113544120Y-63100595D01*
X113494421Y-63087325D01*
X113464880Y-63045214D01*
X113462300Y-63025687D01*
X113462300Y-62705008D01*
X113479893Y-62656670D01*
X113524442Y-62630950D01*
X113575100Y-62639883D01*
X113590627Y-62651786D01*
X113631811Y-62692899D01*
X113637395Y-62695628D01*
X113637397Y-62695630D01*
X113697683Y-62725098D01*
X113745198Y-62748324D01*
X113819067Y-62759100D01*
X114727173Y-62759100D01*
X115640932Y-62759099D01*
X115715445Y-62748131D01*
X115773582Y-62719587D01*
X115823158Y-62695247D01*
X115823159Y-62695246D01*
X115828734Y-62692509D01*
X115833121Y-62688115D01*
X115833123Y-62688113D01*
X115890186Y-62630950D01*
X115917899Y-62603189D01*
X115973324Y-62489802D01*
X115984100Y-62415933D01*
X115984099Y-62044068D01*
X115973131Y-61969555D01*
X115922404Y-61866236D01*
X115920247Y-61861842D01*
X115920246Y-61861841D01*
X115917509Y-61856266D01*
X115913115Y-61851879D01*
X115913113Y-61851877D01*
X115870700Y-61809538D01*
X115828189Y-61767101D01*
X115822605Y-61764372D01*
X115822603Y-61764370D01*
X115723151Y-61715757D01*
X115714802Y-61711676D01*
X115640933Y-61700900D01*
X114732827Y-61700900D01*
X113819068Y-61700901D01*
X113744555Y-61711869D01*
X113697485Y-61734979D01*
X113636842Y-61764753D01*
X113636841Y-61764754D01*
X113631266Y-61767491D01*
X113626879Y-61771885D01*
X113626877Y-61771887D01*
X113589292Y-61809538D01*
X113542101Y-61856811D01*
X113539372Y-61862395D01*
X113539370Y-61862397D01*
X113520468Y-61901067D01*
X113486676Y-61970198D01*
X113475900Y-62044067D01*
X113475900Y-62062593D01*
X113458307Y-62110931D01*
X113413758Y-62136651D01*
X113363100Y-62127718D01*
X113347526Y-62115767D01*
X113122842Y-61891083D01*
X113111231Y-61876092D01*
X113107296Y-61869415D01*
X113107294Y-61869412D01*
X113105422Y-61866236D01*
X113000458Y-61748702D01*
X112994160Y-61740595D01*
X112932157Y-61648385D01*
X112926250Y-61637865D01*
X112909883Y-61602292D01*
X112903000Y-61570862D01*
X112903000Y-60754443D01*
X120720400Y-60754443D01*
X120720566Y-60757968D01*
X120722969Y-60783390D01*
X120724921Y-60792284D01*
X120766732Y-60911345D01*
X120771936Y-60921174D01*
X120846296Y-61021849D01*
X120854151Y-61029704D01*
X120954826Y-61104064D01*
X120964655Y-61109268D01*
X121083716Y-61151079D01*
X121092610Y-61153031D01*
X121118032Y-61155434D01*
X121121557Y-61155600D01*
X121233341Y-61155600D01*
X121243498Y-61151903D01*
X121246600Y-61146531D01*
X121246600Y-61142341D01*
X121551400Y-61142341D01*
X121555097Y-61152498D01*
X121560469Y-61155600D01*
X121676443Y-61155600D01*
X121679968Y-61155434D01*
X121705390Y-61153031D01*
X121714284Y-61151079D01*
X121833345Y-61109268D01*
X121843174Y-61104064D01*
X121943849Y-61029704D01*
X121951704Y-61021849D01*
X122026064Y-60921174D01*
X122031268Y-60911345D01*
X122073079Y-60792284D01*
X122075031Y-60783390D01*
X122077434Y-60757968D01*
X122077600Y-60754443D01*
X122077600Y-60617659D01*
X122073903Y-60607502D01*
X122068531Y-60604400D01*
X121564659Y-60604400D01*
X121554502Y-60608097D01*
X121551400Y-60613469D01*
X121551400Y-61142341D01*
X121246600Y-61142341D01*
X121246600Y-60617659D01*
X121242903Y-60607502D01*
X121237531Y-60604400D01*
X120733659Y-60604400D01*
X120723502Y-60608097D01*
X120720400Y-60613469D01*
X120720400Y-60754443D01*
X112903000Y-60754443D01*
X112903000Y-60286341D01*
X120720400Y-60286341D01*
X120724097Y-60296498D01*
X120729469Y-60299600D01*
X121233341Y-60299600D01*
X121243498Y-60295903D01*
X121246600Y-60290531D01*
X121246600Y-60286341D01*
X121551400Y-60286341D01*
X121555097Y-60296498D01*
X121560469Y-60299600D01*
X122064341Y-60299600D01*
X122074498Y-60295903D01*
X122077600Y-60290531D01*
X122077600Y-60149557D01*
X122077434Y-60146032D01*
X122075031Y-60120610D01*
X122073079Y-60111716D01*
X122031268Y-59992655D01*
X122026064Y-59982826D01*
X121951704Y-59882151D01*
X121943849Y-59874296D01*
X121843174Y-59799936D01*
X121833345Y-59794732D01*
X121714284Y-59752921D01*
X121705390Y-59750969D01*
X121679968Y-59748566D01*
X121676443Y-59748400D01*
X121564659Y-59748400D01*
X121554502Y-59752097D01*
X121551400Y-59757469D01*
X121551400Y-60286341D01*
X121246600Y-60286341D01*
X121246600Y-59761659D01*
X121242903Y-59751502D01*
X121237531Y-59748400D01*
X121121557Y-59748400D01*
X121118032Y-59748566D01*
X121092610Y-59750969D01*
X121083716Y-59752921D01*
X120964655Y-59794732D01*
X120954826Y-59799936D01*
X120854151Y-59874296D01*
X120846296Y-59882151D01*
X120771936Y-59982826D01*
X120766732Y-59992655D01*
X120724921Y-60111716D01*
X120722969Y-60120610D01*
X120720566Y-60146032D01*
X120720400Y-60149557D01*
X120720400Y-60286341D01*
X112903000Y-60286341D01*
X112903000Y-59034532D01*
X112903643Y-59024716D01*
X112922480Y-58881639D01*
X112927561Y-58862677D01*
X112980883Y-58733945D01*
X112990699Y-58716944D01*
X113003241Y-58700599D01*
X113075523Y-58606400D01*
X113089400Y-58592523D01*
X113199945Y-58507699D01*
X113216945Y-58497883D01*
X113345677Y-58444561D01*
X113364639Y-58439480D01*
X113507716Y-58420643D01*
X113517532Y-58420000D01*
X125242468Y-58420000D01*
X125252284Y-58420643D01*
G37*
%TD.AperFunction*%
%TD*%
%TA.AperFunction,Conductor*%
%TO.N,/A4*%
G36*
X111768196Y-65649157D02*
G01*
X111770715Y-65651142D01*
X112474025Y-66382498D01*
X112477290Y-66390837D01*
X112475838Y-66396258D01*
X112413242Y-66509778D01*
X112412757Y-66510578D01*
X112351156Y-66603805D01*
X112339226Y-66621859D01*
X112338984Y-66622211D01*
X112264303Y-66726364D01*
X112194715Y-66825139D01*
X112136411Y-66920405D01*
X112095467Y-67014191D01*
X112077960Y-67108522D01*
X112078071Y-67109416D01*
X112089180Y-67199067D01*
X112089968Y-67205427D01*
X112137565Y-67306933D01*
X112138035Y-67307502D01*
X112220061Y-67406867D01*
X112222685Y-67415428D01*
X112219311Y-67422588D01*
X112127334Y-67514565D01*
X112119061Y-67517992D01*
X112110795Y-67514572D01*
X111992337Y-67396313D01*
X111885389Y-67289943D01*
X111793661Y-67199067D01*
X111712587Y-67119028D01*
X111637605Y-67045172D01*
X111564149Y-66972842D01*
X111564141Y-66972834D01*
X111487657Y-66897384D01*
X111487643Y-66897370D01*
X111403563Y-66814141D01*
X111403546Y-66814124D01*
X111307303Y-66718460D01*
X111307286Y-66718443D01*
X111210713Y-66622052D01*
X111200717Y-66612075D01*
X111197282Y-66603805D01*
X111198887Y-66597880D01*
X111752187Y-65653338D01*
X111759325Y-65647932D01*
X111768196Y-65649157D01*
G37*
%TD.AperFunction*%
%TD*%
%TA.AperFunction,Conductor*%
%TO.N,VCC*%
G36*
X127275725Y-58140725D02*
G01*
X127279313Y-58148929D01*
X127278935Y-58152115D01*
X127002219Y-59211503D01*
X126996813Y-59218641D01*
X126991221Y-59220242D01*
X126845640Y-59224253D01*
X126783215Y-59229741D01*
X126714511Y-59235781D01*
X126714500Y-59235782D01*
X126714333Y-59235797D01*
X126599725Y-59252810D01*
X126599615Y-59252832D01*
X126599602Y-59252834D01*
X126553414Y-59261986D01*
X126495459Y-59273468D01*
X126495412Y-59273479D01*
X126495400Y-59273481D01*
X126395181Y-59295950D01*
X126395124Y-59295962D01*
X126292730Y-59318388D01*
X126292361Y-59318463D01*
X126181455Y-59339035D01*
X126180881Y-59339127D01*
X126055042Y-59356058D01*
X126054393Y-59356127D01*
X125987961Y-59361313D01*
X125907134Y-59367623D01*
X125906532Y-59367653D01*
X125743147Y-59371610D01*
X125734794Y-59368384D01*
X125731164Y-59359913D01*
X125731164Y-59077682D01*
X125734591Y-59069409D01*
X125741692Y-59066041D01*
X125868370Y-59053303D01*
X125970635Y-59014002D01*
X126043903Y-58952330D01*
X126094121Y-58871420D01*
X126127233Y-58774407D01*
X126149186Y-58664424D01*
X126165924Y-58544604D01*
X126183356Y-58418346D01*
X126183440Y-58417826D01*
X126207442Y-58288510D01*
X126207684Y-58287473D01*
X126241953Y-58165816D01*
X126247495Y-58158782D01*
X126252985Y-58157290D01*
X127267386Y-58137460D01*
X127275725Y-58140725D01*
G37*
%TD.AperFunction*%
%TD*%
%TA.AperFunction,Conductor*%
%TO.N,/D5*%
G36*
X125937830Y-80109185D02*
G01*
X126071178Y-80228272D01*
X126201657Y-80316007D01*
X126202090Y-80316206D01*
X126324067Y-80372328D01*
X126324071Y-80372329D01*
X126324496Y-80372525D01*
X126324948Y-80372650D01*
X126324951Y-80372651D01*
X126356881Y-80381477D01*
X126443172Y-80405329D01*
X126443556Y-80405383D01*
X126560942Y-80421892D01*
X126560948Y-80421893D01*
X126561164Y-80421923D01*
X126561383Y-80421937D01*
X126561390Y-80421938D01*
X126681947Y-80429807D01*
X126808748Y-80436472D01*
X126809239Y-80436508D01*
X126945321Y-80449414D01*
X126946272Y-80449544D01*
X127095218Y-80476125D01*
X127096404Y-80476401D01*
X127254254Y-80521918D01*
X127261252Y-80527502D01*
X127262709Y-80532928D01*
X127276519Y-81239412D01*
X127282604Y-81550677D01*
X127279339Y-81559016D01*
X127270677Y-81562604D01*
X126959412Y-81556519D01*
X126252929Y-81542709D01*
X126244726Y-81539121D01*
X126241917Y-81534253D01*
X126196401Y-81376404D01*
X126196125Y-81375218D01*
X126169544Y-81226272D01*
X126169414Y-81225321D01*
X126156508Y-81089239D01*
X126156472Y-81088748D01*
X126149807Y-80961947D01*
X126141938Y-80841390D01*
X126141937Y-80841383D01*
X126141923Y-80841164D01*
X126125329Y-80723172D01*
X126092525Y-80604496D01*
X126036007Y-80481657D01*
X125962626Y-80372525D01*
X125948492Y-80351505D01*
X125948491Y-80351504D01*
X125948272Y-80351178D01*
X125829185Y-80217830D01*
X125826231Y-80209377D01*
X125829639Y-80201764D01*
X125921764Y-80109639D01*
X125930037Y-80106212D01*
X125937830Y-80109185D01*
G37*
%TD.AperFunction*%
%TD*%
%TA.AperFunction,Conductor*%
%TO.N,VCC*%
G36*
X124332895Y-61406523D02*
G01*
X124336160Y-61414862D01*
X124334937Y-61419843D01*
X124310128Y-61469676D01*
X124310057Y-61469815D01*
X124296297Y-61496554D01*
X124284219Y-61520022D01*
X124261061Y-61565611D01*
X124261029Y-61565678D01*
X124261026Y-61565685D01*
X124240782Y-61608647D01*
X124240775Y-61608664D01*
X124240711Y-61608799D01*
X124223254Y-61651877D01*
X124208777Y-61697140D01*
X124197366Y-61746881D01*
X124189109Y-61803392D01*
X124184091Y-61868967D01*
X124184088Y-61869126D01*
X124182652Y-61934457D01*
X124179044Y-61942653D01*
X124170955Y-61945900D01*
X123889045Y-61945900D01*
X123880772Y-61942473D01*
X123877348Y-61934457D01*
X123875911Y-61869126D01*
X123875908Y-61868967D01*
X123870890Y-61803392D01*
X123862633Y-61746881D01*
X123851222Y-61697140D01*
X123836745Y-61651877D01*
X123819288Y-61608799D01*
X123819224Y-61608664D01*
X123819217Y-61608647D01*
X123798973Y-61565685D01*
X123798970Y-61565678D01*
X123798938Y-61565611D01*
X123775780Y-61520022D01*
X123749902Y-61469738D01*
X123725064Y-61419846D01*
X123724445Y-61410914D01*
X123727105Y-61406523D01*
X123863510Y-61264679D01*
X124030000Y-61091550D01*
X124332895Y-61406523D01*
G37*
%TD.AperFunction*%
%TD*%
%TA.AperFunction,Conductor*%
%TO.N,/A9*%
G36*
X125713657Y-67007279D02*
G01*
X126019681Y-67301567D01*
X126023269Y-67309771D01*
X126019681Y-67318433D01*
X125713658Y-67612721D01*
X125705319Y-67615986D01*
X125700040Y-67614611D01*
X125645377Y-67585446D01*
X125644637Y-67585015D01*
X125592628Y-67552168D01*
X125592118Y-67551827D01*
X125546771Y-67519743D01*
X125546604Y-67519623D01*
X125505020Y-67489089D01*
X125504982Y-67489061D01*
X125464351Y-67460964D01*
X125464172Y-67460860D01*
X125464160Y-67460852D01*
X125422135Y-67436354D01*
X125422126Y-67436349D01*
X125421837Y-67436181D01*
X125421529Y-67436047D01*
X125421524Y-67436044D01*
X125399578Y-67426463D01*
X125374497Y-67415514D01*
X125319390Y-67399761D01*
X125273269Y-67392727D01*
X125253874Y-67389769D01*
X125253870Y-67389769D01*
X125253571Y-67389723D01*
X125185281Y-67386696D01*
X125177169Y-67382906D01*
X125174100Y-67375007D01*
X125174100Y-67244993D01*
X125177527Y-67236720D01*
X125185282Y-67233304D01*
X125253571Y-67230276D01*
X125253870Y-67230230D01*
X125253874Y-67230230D01*
X125273269Y-67227272D01*
X125319390Y-67220238D01*
X125374497Y-67204485D01*
X125399578Y-67193536D01*
X125421524Y-67183955D01*
X125421529Y-67183952D01*
X125421837Y-67183818D01*
X125422126Y-67183650D01*
X125422135Y-67183645D01*
X125464160Y-67159147D01*
X125464172Y-67159139D01*
X125464351Y-67159035D01*
X125504982Y-67130938D01*
X125546604Y-67100376D01*
X125546771Y-67100256D01*
X125592118Y-67068172D01*
X125592628Y-67067831D01*
X125644637Y-67034984D01*
X125645378Y-67034553D01*
X125700040Y-67005389D01*
X125708952Y-67004518D01*
X125713657Y-67007279D01*
G37*
%TD.AperFunction*%
%TD*%
%TA.AperFunction,Conductor*%
%TO.N,/A8*%
G36*
X125974407Y-64652270D02*
G01*
X125977995Y-64660932D01*
X125969697Y-65085416D01*
X125966109Y-65093620D01*
X125961404Y-65096381D01*
X125902126Y-65114411D01*
X125901318Y-65114624D01*
X125841278Y-65128182D01*
X125840699Y-65128296D01*
X125827189Y-65130611D01*
X125785923Y-65137679D01*
X125785720Y-65137712D01*
X125734796Y-65145514D01*
X125734767Y-65145519D01*
X125734701Y-65145529D01*
X125734630Y-65145542D01*
X125734600Y-65145547D01*
X125702262Y-65151444D01*
X125686103Y-65154391D01*
X125638517Y-65166930D01*
X125590429Y-65185789D01*
X125590084Y-65185981D01*
X125590079Y-65185983D01*
X125540645Y-65213439D01*
X125540637Y-65213444D01*
X125540324Y-65213618D01*
X125540035Y-65213830D01*
X125540028Y-65213835D01*
X125486947Y-65252867D01*
X125486685Y-65253060D01*
X125486445Y-65253280D01*
X125436256Y-65299207D01*
X125427839Y-65302265D01*
X125420084Y-65298849D01*
X125328151Y-65206916D01*
X125324724Y-65198643D01*
X125327792Y-65190745D01*
X125373727Y-65140546D01*
X125373730Y-65140543D01*
X125373939Y-65140314D01*
X125374116Y-65140073D01*
X125374122Y-65140066D01*
X125413164Y-65086971D01*
X125413169Y-65086964D01*
X125413381Y-65086675D01*
X125413555Y-65086362D01*
X125413560Y-65086354D01*
X125441016Y-65036920D01*
X125441018Y-65036915D01*
X125441210Y-65036570D01*
X125460069Y-64988482D01*
X125472608Y-64940896D01*
X125481470Y-64892298D01*
X125481485Y-64892203D01*
X125489287Y-64841279D01*
X125489320Y-64841076D01*
X125498701Y-64786309D01*
X125498820Y-64785707D01*
X125512372Y-64725691D01*
X125512591Y-64724863D01*
X125530619Y-64665596D01*
X125536306Y-64658678D01*
X125541584Y-64657303D01*
X125966068Y-64649005D01*
X125974407Y-64652270D01*
G37*
%TD.AperFunction*%
%TD*%
%TA.AperFunction,Conductor*%
%TO.N,/D4*%
G36*
X122584961Y-77165389D02*
G01*
X122639622Y-77194553D01*
X122640362Y-77194984D01*
X122692371Y-77227831D01*
X122692881Y-77228172D01*
X122738228Y-77260256D01*
X122738395Y-77260376D01*
X122780017Y-77290938D01*
X122820648Y-77319035D01*
X122820827Y-77319139D01*
X122820839Y-77319147D01*
X122862864Y-77343645D01*
X122862873Y-77343650D01*
X122863162Y-77343818D01*
X122863470Y-77343952D01*
X122863475Y-77343955D01*
X122885421Y-77353536D01*
X122910502Y-77364485D01*
X122965609Y-77380238D01*
X123011730Y-77387272D01*
X123031125Y-77390230D01*
X123031129Y-77390230D01*
X123031428Y-77390276D01*
X123099718Y-77393304D01*
X123107832Y-77397094D01*
X123110900Y-77404993D01*
X123110900Y-77535007D01*
X123107473Y-77543280D01*
X123099719Y-77546696D01*
X123031428Y-77549723D01*
X123031129Y-77549769D01*
X123031125Y-77549769D01*
X123011730Y-77552727D01*
X122965609Y-77559761D01*
X122910502Y-77575514D01*
X122885421Y-77586463D01*
X122863475Y-77596044D01*
X122863470Y-77596047D01*
X122863162Y-77596181D01*
X122862873Y-77596349D01*
X122862864Y-77596354D01*
X122820839Y-77620852D01*
X122820827Y-77620860D01*
X122820648Y-77620964D01*
X122780017Y-77649061D01*
X122779979Y-77649089D01*
X122738395Y-77679623D01*
X122738228Y-77679743D01*
X122692881Y-77711827D01*
X122692371Y-77712168D01*
X122640362Y-77745015D01*
X122639622Y-77745446D01*
X122584960Y-77774611D01*
X122576047Y-77775482D01*
X122571342Y-77772721D01*
X122265319Y-77478433D01*
X122261731Y-77470229D01*
X122265319Y-77461567D01*
X122571343Y-77167279D01*
X122579682Y-77164014D01*
X122584961Y-77165389D01*
G37*
%TD.AperFunction*%
%TD*%
%TA.AperFunction,Conductor*%
%TO.N,/D7*%
G36*
X126649205Y-74725428D02*
G01*
X126767662Y-74843686D01*
X126874610Y-74950056D01*
X126966338Y-75040932D01*
X127047412Y-75120971D01*
X127122394Y-75194827D01*
X127195850Y-75267157D01*
X127272342Y-75342615D01*
X127356436Y-75425858D01*
X127452696Y-75521539D01*
X127549480Y-75618140D01*
X127559283Y-75627925D01*
X127562718Y-75636195D01*
X127561113Y-75642120D01*
X127007813Y-76586662D01*
X127000675Y-76592068D01*
X126991804Y-76590843D01*
X126989285Y-76588858D01*
X126285974Y-75857501D01*
X126282709Y-75849162D01*
X126284160Y-75843744D01*
X126346757Y-75730222D01*
X126347239Y-75729426D01*
X126410085Y-75634315D01*
X126420785Y-75618122D01*
X126421026Y-75617772D01*
X126495696Y-75513635D01*
X126495732Y-75513584D01*
X126504177Y-75501596D01*
X126565284Y-75414860D01*
X126623588Y-75319594D01*
X126664532Y-75225808D01*
X126682039Y-75131477D01*
X126678298Y-75101285D01*
X126670145Y-75035488D01*
X126670144Y-75035485D01*
X126670031Y-75034572D01*
X126622434Y-74933066D01*
X126551104Y-74846658D01*
X126539939Y-74833133D01*
X126537315Y-74824572D01*
X126540689Y-74817412D01*
X126632666Y-74725435D01*
X126640939Y-74722008D01*
X126649205Y-74725428D01*
G37*
%TD.AperFunction*%
%TD*%
%TA.AperFunction,Conductor*%
%TO.N,VCC*%
G36*
X123990620Y-59687120D02*
G01*
X123991366Y-59687805D01*
X124190475Y-59886914D01*
X124193902Y-59895187D01*
X124191350Y-59902481D01*
X124164978Y-59935557D01*
X124162539Y-59938616D01*
X124162218Y-59939439D01*
X124146666Y-59979270D01*
X124146665Y-59979273D01*
X124146275Y-59980273D01*
X124146040Y-60019989D01*
X124158797Y-60058475D01*
X124181511Y-60096443D01*
X124211145Y-60134605D01*
X124211232Y-60134706D01*
X124211239Y-60134715D01*
X124244605Y-60173602D01*
X124244664Y-60173671D01*
X124278810Y-60214094D01*
X124279240Y-60214635D01*
X124310815Y-60256839D01*
X124311535Y-60257923D01*
X124333707Y-60295804D01*
X124334928Y-60304673D01*
X124332066Y-60309797D01*
X124197643Y-60450413D01*
X124030509Y-60625249D01*
X123787534Y-60211334D01*
X123827524Y-60161886D01*
X123851676Y-60112066D01*
X123864220Y-60061694D01*
X123869386Y-60010595D01*
X123871402Y-59958665D01*
X123871411Y-59958481D01*
X123874474Y-59906058D01*
X123874592Y-59904950D01*
X123882778Y-59852071D01*
X123883203Y-59850276D01*
X123900528Y-59796457D01*
X123901425Y-59794381D01*
X123932058Y-59738968D01*
X123933340Y-59737102D01*
X123974135Y-59688551D01*
X123982081Y-59684422D01*
X123990620Y-59687120D01*
G37*
%TD.AperFunction*%
%TD*%
%TA.AperFunction,Conductor*%
%TO.N,/~{OE}*%
G36*
X127279016Y-68300661D02*
G01*
X127282604Y-68309323D01*
X127264100Y-69255932D01*
X127262709Y-69327070D01*
X127259121Y-69335274D01*
X127254255Y-69338082D01*
X127116134Y-69377909D01*
X127096404Y-69383598D01*
X127095218Y-69383874D01*
X126946272Y-69410455D01*
X126945321Y-69410585D01*
X126809239Y-69423491D01*
X126808748Y-69423527D01*
X126681947Y-69430192D01*
X126561390Y-69438061D01*
X126561383Y-69438062D01*
X126561164Y-69438076D01*
X126560948Y-69438106D01*
X126560942Y-69438107D01*
X126445882Y-69454289D01*
X126443172Y-69454670D01*
X126356881Y-69478522D01*
X126324951Y-69487348D01*
X126324948Y-69487349D01*
X126324496Y-69487474D01*
X126324071Y-69487670D01*
X126324067Y-69487671D01*
X126278810Y-69508494D01*
X126201657Y-69543992D01*
X126071178Y-69631727D01*
X126050250Y-69650417D01*
X125937830Y-69750815D01*
X125929377Y-69753769D01*
X125921764Y-69750361D01*
X125829639Y-69658236D01*
X125826212Y-69649963D01*
X125829185Y-69642170D01*
X125948009Y-69509116D01*
X125948012Y-69509112D01*
X125948272Y-69508821D01*
X125962494Y-69487671D01*
X126035742Y-69378736D01*
X126036007Y-69378342D01*
X126092525Y-69255503D01*
X126125329Y-69136827D01*
X126141923Y-69018835D01*
X126149807Y-68898052D01*
X126156472Y-68771251D01*
X126156508Y-68770760D01*
X126169414Y-68634678D01*
X126169544Y-68633727D01*
X126196125Y-68484781D01*
X126196401Y-68483595D01*
X126241917Y-68325747D01*
X126247502Y-68318748D01*
X126252928Y-68317291D01*
X126959412Y-68303481D01*
X127270677Y-68297396D01*
X127279016Y-68300661D01*
G37*
%TD.AperFunction*%
%TD*%
%TA.AperFunction,Conductor*%
%TO.N,VCC*%
G36*
X124199787Y-60458907D02*
G01*
X124199787Y-60458908D01*
X124313371Y-60577021D01*
X124329120Y-60593397D01*
X124332895Y-60597323D01*
X124336160Y-60605662D01*
X124334937Y-60610643D01*
X124310128Y-60660476D01*
X124310057Y-60660615D01*
X124304083Y-60672223D01*
X124284219Y-60710822D01*
X124261061Y-60756411D01*
X124261029Y-60756478D01*
X124261026Y-60756485D01*
X124240782Y-60799447D01*
X124240775Y-60799464D01*
X124240711Y-60799599D01*
X124223254Y-60842677D01*
X124208777Y-60887940D01*
X124197366Y-60937681D01*
X124189109Y-60994192D01*
X124184091Y-61059767D01*
X124182400Y-61136700D01*
X123877600Y-61136700D01*
X123875908Y-61059767D01*
X123870890Y-60994192D01*
X123862633Y-60937681D01*
X123851222Y-60887940D01*
X123836745Y-60842677D01*
X123819288Y-60799599D01*
X123819224Y-60799464D01*
X123819217Y-60799447D01*
X123798973Y-60756485D01*
X123798970Y-60756478D01*
X123798938Y-60756411D01*
X123775780Y-60710822D01*
X123749902Y-60660538D01*
X123721390Y-60603266D01*
X124030000Y-60282350D01*
X124199787Y-60458907D01*
G37*
%TD.AperFunction*%
%TD*%
%TA.AperFunction,Conductor*%
%TO.N,/A3*%
G36*
X111800588Y-68303481D02*
G01*
X112507071Y-68317291D01*
X112515274Y-68320879D01*
X112518083Y-68325747D01*
X112563598Y-68483595D01*
X112563874Y-68484781D01*
X112590455Y-68633727D01*
X112590585Y-68634678D01*
X112603491Y-68770760D01*
X112603527Y-68771251D01*
X112610192Y-68898052D01*
X112618076Y-69018835D01*
X112634670Y-69136827D01*
X112667474Y-69255503D01*
X112723992Y-69378342D01*
X112724257Y-69378736D01*
X112797506Y-69487671D01*
X112811727Y-69508821D01*
X112921292Y-69631507D01*
X112930815Y-69642170D01*
X112933769Y-69650623D01*
X112930361Y-69658236D01*
X112838236Y-69750361D01*
X112829963Y-69753788D01*
X112822170Y-69750815D01*
X112821662Y-69750361D01*
X112688821Y-69631727D01*
X112558342Y-69543992D01*
X112481189Y-69508494D01*
X112435932Y-69487671D01*
X112435928Y-69487670D01*
X112435503Y-69487474D01*
X112435051Y-69487349D01*
X112435048Y-69487348D01*
X112403118Y-69478522D01*
X112316827Y-69454670D01*
X112314117Y-69454289D01*
X112199057Y-69438107D01*
X112199051Y-69438106D01*
X112198835Y-69438076D01*
X112198616Y-69438062D01*
X112198609Y-69438061D01*
X112078052Y-69430192D01*
X111951251Y-69423527D01*
X111950760Y-69423491D01*
X111814678Y-69410585D01*
X111813727Y-69410455D01*
X111664781Y-69383874D01*
X111663595Y-69383598D01*
X111643865Y-69377909D01*
X111505746Y-69338082D01*
X111498748Y-69332498D01*
X111497291Y-69327070D01*
X111495901Y-69255932D01*
X111477396Y-68309323D01*
X111480661Y-68300984D01*
X111489323Y-68297396D01*
X111800588Y-68303481D01*
G37*
%TD.AperFunction*%
%TD*%
%TA.AperFunction,Conductor*%
%TO.N,VCC*%
G36*
X124184091Y-60657032D02*
G01*
X124189109Y-60722607D01*
X124197366Y-60779118D01*
X124208777Y-60828859D01*
X124223254Y-60874122D01*
X124240711Y-60917200D01*
X124240775Y-60917335D01*
X124240782Y-60917352D01*
X124261026Y-60960314D01*
X124261061Y-60960388D01*
X124284219Y-61005977D01*
X124310097Y-61056261D01*
X124334936Y-61106154D01*
X124335555Y-61115086D01*
X124332895Y-61119477D01*
X124030000Y-61434450D01*
X123727105Y-61119477D01*
X123723840Y-61111138D01*
X123725064Y-61106153D01*
X123749871Y-61056323D01*
X123749942Y-61056183D01*
X123775756Y-61006023D01*
X123775780Y-61005977D01*
X123798938Y-60960388D01*
X123798973Y-60960314D01*
X123819217Y-60917352D01*
X123819224Y-60917335D01*
X123819288Y-60917200D01*
X123836745Y-60874122D01*
X123851222Y-60828859D01*
X123862633Y-60779118D01*
X123870890Y-60722607D01*
X123875908Y-60657032D01*
X123877600Y-60580100D01*
X124182400Y-60580100D01*
X124184091Y-60657032D01*
G37*
%TD.AperFunction*%
%TD*%
%TA.AperFunction,Conductor*%
%TO.N,/D0*%
G36*
X112217026Y-77302521D02*
G01*
X112309037Y-77394532D01*
X112312464Y-77402805D01*
X112309711Y-77410344D01*
X112229827Y-77505124D01*
X112178854Y-77602590D01*
X112158872Y-77696260D01*
X112165039Y-77787868D01*
X112192513Y-77879148D01*
X112236451Y-77971832D01*
X112292011Y-78067655D01*
X112292063Y-78067739D01*
X112354302Y-78168273D01*
X112354391Y-78168419D01*
X112418471Y-78275390D01*
X112418769Y-78275918D01*
X112476027Y-78383803D01*
X112476878Y-78392717D01*
X112474125Y-78397398D01*
X111770715Y-79128858D01*
X111762511Y-79132446D01*
X111754172Y-79129181D01*
X111752187Y-79126662D01*
X111198960Y-78182244D01*
X111197735Y-78173373D01*
X111200917Y-78167924D01*
X111304400Y-78067739D01*
X111312388Y-78060005D01*
X111312685Y-78059728D01*
X111416288Y-77966326D01*
X111416563Y-77966088D01*
X111465644Y-77924917D01*
X111509829Y-77887853D01*
X111510095Y-77887636D01*
X111557058Y-77850535D01*
X111597104Y-77818899D01*
X111597175Y-77818843D01*
X111681912Y-77754020D01*
X111768190Y-77687649D01*
X111768221Y-77687624D01*
X111768258Y-77687596D01*
X111860153Y-77614008D01*
X111961570Y-77527667D01*
X112076485Y-77422982D01*
X112076552Y-77422917D01*
X112200600Y-77302402D01*
X112208922Y-77299095D01*
X112217026Y-77302521D01*
G37*
%TD.AperFunction*%
%TD*%
%TA.AperFunction,Conductor*%
%TO.N,/A6*%
G36*
X111800588Y-60683481D02*
G01*
X112507071Y-60697291D01*
X112515274Y-60700879D01*
X112518083Y-60705747D01*
X112563598Y-60863595D01*
X112563874Y-60864781D01*
X112590455Y-61013727D01*
X112590585Y-61014678D01*
X112603491Y-61150760D01*
X112603527Y-61151251D01*
X112610192Y-61278052D01*
X112618076Y-61398835D01*
X112634670Y-61516827D01*
X112667474Y-61635503D01*
X112723992Y-61758342D01*
X112724257Y-61758736D01*
X112797506Y-61867671D01*
X112811727Y-61888821D01*
X112921292Y-62011507D01*
X112930815Y-62022170D01*
X112933769Y-62030623D01*
X112930361Y-62038236D01*
X112838236Y-62130361D01*
X112829963Y-62133788D01*
X112822170Y-62130815D01*
X112821662Y-62130361D01*
X112688821Y-62011727D01*
X112558342Y-61923992D01*
X112481189Y-61888494D01*
X112435932Y-61867671D01*
X112435928Y-61867670D01*
X112435503Y-61867474D01*
X112435051Y-61867349D01*
X112435048Y-61867348D01*
X112403118Y-61858522D01*
X112316827Y-61834670D01*
X112314117Y-61834289D01*
X112199057Y-61818107D01*
X112199051Y-61818106D01*
X112198835Y-61818076D01*
X112198616Y-61818062D01*
X112198609Y-61818061D01*
X112078052Y-61810192D01*
X111951251Y-61803527D01*
X111950760Y-61803491D01*
X111814678Y-61790585D01*
X111813727Y-61790455D01*
X111664781Y-61763874D01*
X111663595Y-61763598D01*
X111643865Y-61757909D01*
X111505746Y-61718082D01*
X111498748Y-61712498D01*
X111497291Y-61707070D01*
X111495901Y-61635932D01*
X111477396Y-60689323D01*
X111480661Y-60680984D01*
X111489323Y-60677396D01*
X111800588Y-60683481D01*
G37*
%TD.AperFunction*%
%TD*%
%TA.AperFunction,Conductor*%
%TO.N,/~{WE}*%
G36*
X126649205Y-64565428D02*
G01*
X126767662Y-64683686D01*
X126874610Y-64790056D01*
X126966338Y-64880932D01*
X127047412Y-64960971D01*
X127122394Y-65034827D01*
X127195850Y-65107157D01*
X127272342Y-65182615D01*
X127356436Y-65265858D01*
X127452696Y-65361539D01*
X127549480Y-65458140D01*
X127559283Y-65467925D01*
X127562718Y-65476195D01*
X127561113Y-65482120D01*
X127007813Y-66426662D01*
X127000675Y-66432068D01*
X126991804Y-66430843D01*
X126989285Y-66428858D01*
X126285974Y-65697501D01*
X126282709Y-65689162D01*
X126284160Y-65683744D01*
X126346757Y-65570222D01*
X126347239Y-65569426D01*
X126410085Y-65474315D01*
X126420785Y-65458122D01*
X126421026Y-65457772D01*
X126495696Y-65353635D01*
X126495732Y-65353584D01*
X126504177Y-65341596D01*
X126565284Y-65254860D01*
X126623588Y-65159594D01*
X126664532Y-65065808D01*
X126682039Y-64971477D01*
X126678298Y-64941285D01*
X126670145Y-64875488D01*
X126670144Y-64875485D01*
X126670031Y-64874572D01*
X126622434Y-64773066D01*
X126551104Y-64686658D01*
X126539939Y-64673133D01*
X126537315Y-64664572D01*
X126540689Y-64657412D01*
X126632666Y-64565435D01*
X126640939Y-64562008D01*
X126649205Y-64565428D01*
G37*
%TD.AperFunction*%
%TD*%
%TA.AperFunction,Conductor*%
%TO.N,VCC*%
G36*
X124198338Y-60451084D02*
G01*
X124198309Y-60451159D01*
X124198307Y-60455118D01*
X124198869Y-60456558D01*
X123880020Y-60762160D01*
X123822795Y-60733552D01*
X123772554Y-60707590D01*
X123727004Y-60684356D01*
X123683850Y-60663934D01*
X123640801Y-60646405D01*
X123595562Y-60631853D01*
X123545841Y-60620360D01*
X123489344Y-60612008D01*
X123489160Y-60611994D01*
X123489146Y-60611992D01*
X123423935Y-60606893D01*
X123423921Y-60606892D01*
X123423777Y-60606881D01*
X123423648Y-60606878D01*
X123423630Y-60606877D01*
X123387669Y-60606027D01*
X123358290Y-60605333D01*
X123350101Y-60601711D01*
X123346867Y-60593616D01*
X123347337Y-60311709D01*
X123350778Y-60303442D01*
X123358798Y-60300031D01*
X123424290Y-60298700D01*
X123424444Y-60298688D01*
X123424454Y-60298688D01*
X123489674Y-60293806D01*
X123489675Y-60293806D01*
X123489874Y-60293791D01*
X123546399Y-60285628D01*
X123596158Y-60274300D01*
X123596377Y-60274230D01*
X123596382Y-60274229D01*
X123612412Y-60269131D01*
X123641445Y-60259899D01*
X123684552Y-60242513D01*
X123684697Y-60242445D01*
X123727665Y-60222286D01*
X123727681Y-60222278D01*
X123727773Y-60222235D01*
X123773401Y-60199153D01*
X123823728Y-60173359D01*
X123881048Y-60144942D01*
X124198338Y-60451084D01*
G37*
%TD.AperFunction*%
%TD*%
%TA.AperFunction,Conductor*%
%TO.N,/~{CE}*%
G36*
X125937830Y-72489185D02*
G01*
X126071178Y-72608272D01*
X126201657Y-72696007D01*
X126202090Y-72696206D01*
X126324067Y-72752328D01*
X126324071Y-72752329D01*
X126324496Y-72752525D01*
X126324948Y-72752650D01*
X126324951Y-72752651D01*
X126356881Y-72761477D01*
X126443172Y-72785329D01*
X126443556Y-72785383D01*
X126560942Y-72801892D01*
X126560948Y-72801893D01*
X126561164Y-72801923D01*
X126561383Y-72801937D01*
X126561390Y-72801938D01*
X126681947Y-72809807D01*
X126808748Y-72816472D01*
X126809239Y-72816508D01*
X126945321Y-72829414D01*
X126946272Y-72829544D01*
X127095218Y-72856125D01*
X127096404Y-72856401D01*
X127254254Y-72901918D01*
X127261252Y-72907502D01*
X127262709Y-72912928D01*
X127276519Y-73619412D01*
X127282604Y-73930677D01*
X127279339Y-73939016D01*
X127270677Y-73942604D01*
X126959412Y-73936519D01*
X126252929Y-73922709D01*
X126244726Y-73919121D01*
X126241917Y-73914253D01*
X126196401Y-73756404D01*
X126196125Y-73755218D01*
X126169544Y-73606272D01*
X126169414Y-73605321D01*
X126156508Y-73469239D01*
X126156472Y-73468748D01*
X126149807Y-73341947D01*
X126141938Y-73221390D01*
X126141937Y-73221383D01*
X126141923Y-73221164D01*
X126125329Y-73103172D01*
X126092525Y-72984496D01*
X126036007Y-72861657D01*
X125962626Y-72752525D01*
X125948492Y-72731505D01*
X125948491Y-72731504D01*
X125948272Y-72731178D01*
X125829185Y-72597830D01*
X125826231Y-72589377D01*
X125829639Y-72581764D01*
X125921764Y-72489639D01*
X125930037Y-72486212D01*
X125937830Y-72489185D01*
G37*
%TD.AperFunction*%
%TD*%
%TA.AperFunction,Conductor*%
%TO.N,/BATT_FAKE*%
G36*
X120633657Y-82628279D02*
G01*
X120939681Y-82922567D01*
X120943269Y-82930771D01*
X120939681Y-82939433D01*
X120633658Y-83233721D01*
X120625319Y-83236986D01*
X120620040Y-83235611D01*
X120565377Y-83206446D01*
X120564637Y-83206015D01*
X120512628Y-83173168D01*
X120512118Y-83172827D01*
X120466771Y-83140743D01*
X120466604Y-83140623D01*
X120425020Y-83110089D01*
X120424982Y-83110061D01*
X120384351Y-83081964D01*
X120384172Y-83081860D01*
X120384160Y-83081852D01*
X120342135Y-83057354D01*
X120342126Y-83057349D01*
X120341837Y-83057181D01*
X120341529Y-83057047D01*
X120341524Y-83057044D01*
X120319578Y-83047463D01*
X120294497Y-83036514D01*
X120239390Y-83020761D01*
X120193269Y-83013727D01*
X120173874Y-83010769D01*
X120173870Y-83010769D01*
X120173571Y-83010723D01*
X120105281Y-83007696D01*
X120097169Y-83003906D01*
X120094100Y-82996007D01*
X120094100Y-82865993D01*
X120097527Y-82857720D01*
X120105282Y-82854304D01*
X120173571Y-82851276D01*
X120173870Y-82851230D01*
X120173874Y-82851230D01*
X120193269Y-82848272D01*
X120239390Y-82841238D01*
X120294497Y-82825485D01*
X120319578Y-82814536D01*
X120341524Y-82804955D01*
X120341529Y-82804952D01*
X120341837Y-82804818D01*
X120342126Y-82804650D01*
X120342135Y-82804645D01*
X120384160Y-82780147D01*
X120384172Y-82780139D01*
X120384351Y-82780035D01*
X120424982Y-82751938D01*
X120466604Y-82721376D01*
X120466771Y-82721256D01*
X120512118Y-82689172D01*
X120512628Y-82688831D01*
X120564637Y-82655984D01*
X120565378Y-82655553D01*
X120620040Y-82626389D01*
X120628952Y-82625518D01*
X120633657Y-82628279D01*
G37*
%TD.AperFunction*%
%TD*%
%TA.AperFunction,Conductor*%
%TO.N,/A2*%
G36*
X112116260Y-70404170D02*
G01*
X112215237Y-70458842D01*
X112260057Y-70483599D01*
X112261091Y-70484242D01*
X112385216Y-70570774D01*
X112385980Y-70571355D01*
X112491312Y-70658436D01*
X112491685Y-70658757D01*
X112586074Y-70743720D01*
X112677056Y-70823551D01*
X112772222Y-70895250D01*
X112879335Y-70955971D01*
X112879772Y-70956133D01*
X112879775Y-70956134D01*
X112963819Y-70987210D01*
X113006160Y-71002867D01*
X113160460Y-71033092D01*
X113160852Y-71033114D01*
X113160859Y-71033115D01*
X113268696Y-71039207D01*
X113338961Y-71043176D01*
X113347027Y-71047064D01*
X113350000Y-71054857D01*
X113350000Y-71185143D01*
X113346573Y-71193416D01*
X113338961Y-71196824D01*
X113261197Y-71201216D01*
X113160859Y-71206884D01*
X113160852Y-71206885D01*
X113160460Y-71206907D01*
X113006160Y-71237132D01*
X113005723Y-71237293D01*
X113005725Y-71237293D01*
X112879775Y-71283865D01*
X112879772Y-71283866D01*
X112879335Y-71284028D01*
X112772222Y-71344749D01*
X112677056Y-71416448D01*
X112676906Y-71416580D01*
X112586074Y-71496279D01*
X112586034Y-71496315D01*
X112491685Y-71581242D01*
X112491312Y-71581563D01*
X112385980Y-71668644D01*
X112385216Y-71669225D01*
X112261091Y-71755757D01*
X112260057Y-71756400D01*
X112116260Y-71835830D01*
X112107362Y-71836831D01*
X112102496Y-71834023D01*
X111368769Y-71128433D01*
X111365181Y-71120229D01*
X111368769Y-71111567D01*
X112102495Y-70405978D01*
X112110833Y-70402713D01*
X112116260Y-70404170D01*
G37*
%TD.AperFunction*%
%TD*%
%TA.AperFunction,Conductor*%
%TO.N,/A0*%
G36*
X112127334Y-74725435D02*
G01*
X112219311Y-74817412D01*
X112222738Y-74825685D01*
X112220061Y-74833133D01*
X112137565Y-74933066D01*
X112089968Y-75034572D01*
X112089855Y-75035485D01*
X112089854Y-75035488D01*
X112081701Y-75101285D01*
X112077960Y-75131477D01*
X112095467Y-75225808D01*
X112136411Y-75319594D01*
X112194715Y-75414860D01*
X112255822Y-75501596D01*
X112264267Y-75513584D01*
X112264303Y-75513635D01*
X112338973Y-75617772D01*
X112339214Y-75618122D01*
X112349914Y-75634315D01*
X112412757Y-75729421D01*
X112413242Y-75730222D01*
X112475838Y-75843743D01*
X112476832Y-75852642D01*
X112474025Y-75857502D01*
X111770715Y-76588858D01*
X111762511Y-76592446D01*
X111754172Y-76589181D01*
X111752187Y-76586662D01*
X111198887Y-75642120D01*
X111197662Y-75633249D01*
X111200717Y-75627925D01*
X111307286Y-75521556D01*
X111307303Y-75521539D01*
X111403546Y-75425875D01*
X111403563Y-75425858D01*
X111487643Y-75342629D01*
X111487657Y-75342615D01*
X111564141Y-75267165D01*
X111564149Y-75267157D01*
X111637605Y-75194827D01*
X111712587Y-75120971D01*
X111793661Y-75040932D01*
X111885389Y-74950056D01*
X111992337Y-74843686D01*
X112110795Y-74725428D01*
X112119071Y-74722008D01*
X112127334Y-74725435D01*
G37*
%TD.AperFunction*%
%TD*%
%TA.AperFunction,Conductor*%
%TO.N,VCC*%
G36*
X120655943Y-85930105D02*
G01*
X120824341Y-86092045D01*
X120962147Y-86224567D01*
X120965735Y-86232771D01*
X120962147Y-86241433D01*
X120751803Y-86443711D01*
X120655943Y-86535895D01*
X120647604Y-86539160D01*
X120642621Y-86537937D01*
X120592775Y-86513121D01*
X120592649Y-86513057D01*
X120542443Y-86487219D01*
X120496854Y-86464061D01*
X120496780Y-86464026D01*
X120453818Y-86443782D01*
X120453801Y-86443775D01*
X120453666Y-86443711D01*
X120410588Y-86426254D01*
X120365325Y-86411777D01*
X120315584Y-86400366D01*
X120259073Y-86392109D01*
X120258883Y-86392094D01*
X120258879Y-86392094D01*
X120236305Y-86390367D01*
X120193498Y-86387091D01*
X120128008Y-86385651D01*
X120119813Y-86382044D01*
X120116566Y-86373955D01*
X120116566Y-86092045D01*
X120119993Y-86083772D01*
X120128008Y-86080348D01*
X120193498Y-86078908D01*
X120236305Y-86075632D01*
X120258879Y-86073905D01*
X120258883Y-86073905D01*
X120259073Y-86073890D01*
X120315584Y-86065633D01*
X120365325Y-86054222D01*
X120410588Y-86039745D01*
X120453666Y-86022288D01*
X120453801Y-86022224D01*
X120453818Y-86022217D01*
X120496780Y-86001973D01*
X120496787Y-86001970D01*
X120496854Y-86001938D01*
X120542443Y-85978780D01*
X120592668Y-85952932D01*
X120592789Y-85952871D01*
X120642620Y-85928064D01*
X120651552Y-85927445D01*
X120655943Y-85930105D01*
G37*
%TD.AperFunction*%
%TD*%
%TA.AperFunction,Conductor*%
%TO.N,/A5*%
G36*
X111768196Y-63109157D02*
G01*
X111770715Y-63111142D01*
X112474025Y-63842498D01*
X112477290Y-63850837D01*
X112475838Y-63856258D01*
X112413242Y-63969778D01*
X112412757Y-63970578D01*
X112351156Y-64063805D01*
X112339226Y-64081859D01*
X112338984Y-64082211D01*
X112264303Y-64186364D01*
X112194715Y-64285139D01*
X112136411Y-64380405D01*
X112095467Y-64474191D01*
X112077960Y-64568522D01*
X112078071Y-64569416D01*
X112089180Y-64659067D01*
X112089968Y-64665427D01*
X112137565Y-64766933D01*
X112138035Y-64767502D01*
X112220061Y-64866867D01*
X112222685Y-64875428D01*
X112219311Y-64882588D01*
X112127334Y-64974565D01*
X112119061Y-64977992D01*
X112110795Y-64974572D01*
X111992337Y-64856313D01*
X111885389Y-64749943D01*
X111793661Y-64659067D01*
X111712587Y-64579028D01*
X111637605Y-64505172D01*
X111564149Y-64432842D01*
X111564141Y-64432834D01*
X111487657Y-64357384D01*
X111487643Y-64357370D01*
X111403563Y-64274141D01*
X111403546Y-64274124D01*
X111307303Y-64178460D01*
X111307286Y-64178443D01*
X111210713Y-64082052D01*
X111200717Y-64072075D01*
X111197282Y-64063805D01*
X111198887Y-64057880D01*
X111752187Y-63113338D01*
X111759325Y-63107932D01*
X111768196Y-63109157D01*
G37*
%TD.AperFunction*%
%TD*%
%TA.AperFunction,Conductor*%
%TO.N,/A10*%
G36*
X126657504Y-70405977D02*
G01*
X127391231Y-71111567D01*
X127394819Y-71119771D01*
X127391231Y-71128433D01*
X126657505Y-71834022D01*
X126649167Y-71837287D01*
X126643740Y-71835830D01*
X126499942Y-71756400D01*
X126498908Y-71755757D01*
X126374783Y-71669225D01*
X126374019Y-71668644D01*
X126268687Y-71581563D01*
X126268314Y-71581242D01*
X126173925Y-71496279D01*
X126083093Y-71416580D01*
X126082943Y-71416448D01*
X125987777Y-71344749D01*
X125880664Y-71284028D01*
X125880227Y-71283866D01*
X125880224Y-71283865D01*
X125754274Y-71237293D01*
X125754276Y-71237293D01*
X125753839Y-71237132D01*
X125599539Y-71206907D01*
X125599147Y-71206885D01*
X125599140Y-71206884D01*
X125498409Y-71201194D01*
X125421039Y-71196824D01*
X125412973Y-71192936D01*
X125410000Y-71185143D01*
X125410000Y-71054857D01*
X125413427Y-71046584D01*
X125421039Y-71043176D01*
X125490844Y-71039233D01*
X125599140Y-71033115D01*
X125599147Y-71033114D01*
X125599539Y-71033092D01*
X125753839Y-71002867D01*
X125796180Y-70987210D01*
X125880224Y-70956134D01*
X125880227Y-70956133D01*
X125880664Y-70955971D01*
X125987777Y-70895250D01*
X126082943Y-70823551D01*
X126173925Y-70743720D01*
X126268314Y-70658757D01*
X126268687Y-70658436D01*
X126374019Y-70571355D01*
X126374783Y-70570774D01*
X126498908Y-70484242D01*
X126499942Y-70483599D01*
X126640466Y-70405978D01*
X126643740Y-70404170D01*
X126652638Y-70403169D01*
X126657504Y-70405977D01*
G37*
%TD.AperFunction*%
%TD*%
%TA.AperFunction,Conductor*%
%TO.N,/D2*%
G36*
X116188657Y-77167279D02*
G01*
X116494681Y-77461567D01*
X116498269Y-77469771D01*
X116494681Y-77478433D01*
X116188658Y-77772721D01*
X116180319Y-77775986D01*
X116175040Y-77774611D01*
X116120377Y-77745446D01*
X116119637Y-77745015D01*
X116067628Y-77712168D01*
X116067118Y-77711827D01*
X116021771Y-77679743D01*
X116021604Y-77679623D01*
X115980020Y-77649089D01*
X115979982Y-77649061D01*
X115939351Y-77620964D01*
X115939172Y-77620860D01*
X115939160Y-77620852D01*
X115897135Y-77596354D01*
X115897126Y-77596349D01*
X115896837Y-77596181D01*
X115896529Y-77596047D01*
X115896524Y-77596044D01*
X115874578Y-77586463D01*
X115849497Y-77575514D01*
X115794390Y-77559761D01*
X115748269Y-77552727D01*
X115728874Y-77549769D01*
X115728870Y-77549769D01*
X115728571Y-77549723D01*
X115660281Y-77546696D01*
X115652169Y-77542906D01*
X115649100Y-77535007D01*
X115649100Y-77404993D01*
X115652527Y-77396720D01*
X115660282Y-77393304D01*
X115728571Y-77390276D01*
X115728870Y-77390230D01*
X115728874Y-77390230D01*
X115748269Y-77387272D01*
X115794390Y-77380238D01*
X115849497Y-77364485D01*
X115874578Y-77353536D01*
X115896524Y-77343955D01*
X115896529Y-77343952D01*
X115896837Y-77343818D01*
X115897126Y-77343650D01*
X115897135Y-77343645D01*
X115939160Y-77319147D01*
X115939172Y-77319139D01*
X115939351Y-77319035D01*
X115979982Y-77290938D01*
X116021604Y-77260376D01*
X116021771Y-77260256D01*
X116067118Y-77228172D01*
X116067628Y-77227831D01*
X116119637Y-77194984D01*
X116120378Y-77194553D01*
X116175040Y-77165389D01*
X116183952Y-77164518D01*
X116188657Y-77167279D01*
G37*
%TD.AperFunction*%
%TD*%
%TA.AperFunction,Conductor*%
%TO.N,/A1*%
G36*
X112838236Y-72489639D02*
G01*
X112930361Y-72581764D01*
X112933788Y-72590037D01*
X112930815Y-72597830D01*
X112811727Y-72731178D01*
X112811508Y-72731504D01*
X112811507Y-72731505D01*
X112797373Y-72752525D01*
X112723992Y-72861657D01*
X112667474Y-72984496D01*
X112634670Y-73103172D01*
X112618076Y-73221164D01*
X112618062Y-73221383D01*
X112618061Y-73221390D01*
X112610192Y-73341947D01*
X112603527Y-73468748D01*
X112603491Y-73469239D01*
X112590585Y-73605321D01*
X112590455Y-73606272D01*
X112563874Y-73755218D01*
X112563598Y-73756404D01*
X112518083Y-73914253D01*
X112512498Y-73921252D01*
X112507072Y-73922709D01*
X111800588Y-73936519D01*
X111489323Y-73942604D01*
X111480984Y-73939339D01*
X111477396Y-73930677D01*
X111483481Y-73619412D01*
X111497291Y-72912929D01*
X111500879Y-72904726D01*
X111505746Y-72901918D01*
X111663595Y-72856401D01*
X111664781Y-72856125D01*
X111813727Y-72829544D01*
X111814678Y-72829414D01*
X111950760Y-72816508D01*
X111951251Y-72816472D01*
X112078052Y-72809807D01*
X112198609Y-72801938D01*
X112198616Y-72801937D01*
X112198835Y-72801923D01*
X112199051Y-72801893D01*
X112199057Y-72801892D01*
X112316443Y-72785383D01*
X112316827Y-72785329D01*
X112403118Y-72761477D01*
X112435048Y-72752651D01*
X112435051Y-72752650D01*
X112435503Y-72752525D01*
X112435928Y-72752329D01*
X112435932Y-72752328D01*
X112557909Y-72696206D01*
X112558342Y-72696007D01*
X112688821Y-72608272D01*
X112689112Y-72608012D01*
X112689116Y-72608009D01*
X112822170Y-72489185D01*
X112830623Y-72486231D01*
X112838236Y-72489639D01*
G37*
%TD.AperFunction*%
%TD*%
%TA.AperFunction,Conductor*%
%TO.N,/BATT_FAKE*%
G36*
X120601983Y-84677388D02*
G01*
X120903662Y-84910728D01*
X120937836Y-84937161D01*
X120942284Y-84944934D01*
X120939646Y-84953930D01*
X120666962Y-85279355D01*
X120659022Y-85283496D01*
X120653629Y-85282696D01*
X120645319Y-85279355D01*
X120593082Y-85258352D01*
X120592301Y-85258004D01*
X120535001Y-85229781D01*
X120534399Y-85229462D01*
X120484593Y-85201169D01*
X120484312Y-85201004D01*
X120438810Y-85173453D01*
X120394642Y-85147614D01*
X120394506Y-85147545D01*
X120394500Y-85147542D01*
X120349090Y-85124602D01*
X120348827Y-85124469D01*
X120298240Y-85104911D01*
X120297923Y-85104829D01*
X120297919Y-85104828D01*
X120240080Y-85089917D01*
X120240071Y-85089915D01*
X120239756Y-85089834D01*
X120193844Y-85083425D01*
X120170525Y-85080170D01*
X120170520Y-85080170D01*
X120170251Y-85080132D01*
X120169980Y-85080121D01*
X120169970Y-85080120D01*
X120097820Y-85077160D01*
X120089695Y-85073397D01*
X120086600Y-85065470D01*
X120086600Y-84935481D01*
X120090027Y-84927208D01*
X120097770Y-84923793D01*
X120103208Y-84923546D01*
X120163836Y-84920795D01*
X120163844Y-84920794D01*
X120164157Y-84920780D01*
X120164463Y-84920732D01*
X120164471Y-84920731D01*
X120227977Y-84910728D01*
X120227983Y-84910727D01*
X120228368Y-84910666D01*
X120282011Y-84894623D01*
X120282390Y-84894447D01*
X120282395Y-84894445D01*
X120327536Y-84873471D01*
X120327870Y-84873316D01*
X120368725Y-84847411D01*
X120407357Y-84817574D01*
X120446548Y-84784469D01*
X120488895Y-84748918D01*
X120489258Y-84748625D01*
X120537438Y-84711347D01*
X120538045Y-84710908D01*
X120588272Y-84676950D01*
X120597045Y-84675156D01*
X120601983Y-84677388D01*
G37*
%TD.AperFunction*%
%TD*%
%TA.AperFunction,Conductor*%
%TO.N,/D3*%
G36*
X125937830Y-85189185D02*
G01*
X126071178Y-85308272D01*
X126201657Y-85396007D01*
X126202090Y-85396206D01*
X126324067Y-85452328D01*
X126324071Y-85452329D01*
X126324496Y-85452525D01*
X126324948Y-85452650D01*
X126324951Y-85452651D01*
X126356881Y-85461477D01*
X126443172Y-85485329D01*
X126443556Y-85485383D01*
X126560942Y-85501892D01*
X126560948Y-85501893D01*
X126561164Y-85501923D01*
X126561383Y-85501937D01*
X126561390Y-85501938D01*
X126681947Y-85509807D01*
X126808748Y-85516472D01*
X126809239Y-85516508D01*
X126945321Y-85529414D01*
X126946272Y-85529544D01*
X127095218Y-85556125D01*
X127096404Y-85556401D01*
X127254254Y-85601918D01*
X127261252Y-85607502D01*
X127262709Y-85612928D01*
X127276519Y-86319412D01*
X127282604Y-86630677D01*
X127279339Y-86639016D01*
X127270677Y-86642604D01*
X126959412Y-86636519D01*
X126252929Y-86622709D01*
X126244726Y-86619121D01*
X126241917Y-86614253D01*
X126196401Y-86456404D01*
X126196125Y-86455218D01*
X126169544Y-86306272D01*
X126169414Y-86305321D01*
X126156508Y-86169239D01*
X126156472Y-86168748D01*
X126149807Y-86041947D01*
X126141938Y-85921390D01*
X126141937Y-85921383D01*
X126141923Y-85921164D01*
X126125329Y-85803172D01*
X126092525Y-85684496D01*
X126036007Y-85561657D01*
X125962626Y-85452525D01*
X125948492Y-85431505D01*
X125948491Y-85431504D01*
X125948272Y-85431178D01*
X125829185Y-85297830D01*
X125826231Y-85289377D01*
X125829639Y-85281764D01*
X125921764Y-85189639D01*
X125930037Y-85186212D01*
X125937830Y-85189185D01*
G37*
%TD.AperFunction*%
%TD*%
%TA.AperFunction,Conductor*%
%TO.N,/D1*%
G36*
X112838236Y-80109639D02*
G01*
X112930361Y-80201764D01*
X112933788Y-80210037D01*
X112930815Y-80217830D01*
X112811727Y-80351178D01*
X112811508Y-80351504D01*
X112811507Y-80351505D01*
X112797373Y-80372525D01*
X112723992Y-80481657D01*
X112667474Y-80604496D01*
X112634670Y-80723172D01*
X112618076Y-80841164D01*
X112618062Y-80841383D01*
X112618061Y-80841390D01*
X112610192Y-80961947D01*
X112603527Y-81088748D01*
X112603491Y-81089239D01*
X112590585Y-81225321D01*
X112590455Y-81226272D01*
X112563874Y-81375218D01*
X112563598Y-81376404D01*
X112518083Y-81534253D01*
X112512498Y-81541252D01*
X112507072Y-81542709D01*
X111800588Y-81556519D01*
X111489323Y-81562604D01*
X111480984Y-81559339D01*
X111477396Y-81550677D01*
X111483481Y-81239412D01*
X111497291Y-80532929D01*
X111500879Y-80524726D01*
X111505746Y-80521918D01*
X111663595Y-80476401D01*
X111664781Y-80476125D01*
X111813727Y-80449544D01*
X111814678Y-80449414D01*
X111950760Y-80436508D01*
X111951251Y-80436472D01*
X112078052Y-80429807D01*
X112198609Y-80421938D01*
X112198616Y-80421937D01*
X112198835Y-80421923D01*
X112199051Y-80421893D01*
X112199057Y-80421892D01*
X112316443Y-80405383D01*
X112316827Y-80405329D01*
X112403118Y-80381477D01*
X112435048Y-80372651D01*
X112435051Y-80372650D01*
X112435503Y-80372525D01*
X112435928Y-80372329D01*
X112435932Y-80372328D01*
X112557909Y-80316206D01*
X112558342Y-80316007D01*
X112688821Y-80228272D01*
X112689112Y-80228012D01*
X112689116Y-80228009D01*
X112822170Y-80109185D01*
X112830623Y-80106231D01*
X112838236Y-80109639D01*
G37*
%TD.AperFunction*%
%TD*%
%TA.AperFunction,Conductor*%
%TO.N,/A7*%
G36*
X116188657Y-64467279D02*
G01*
X116494681Y-64761567D01*
X116498269Y-64769771D01*
X116494681Y-64778433D01*
X116188658Y-65072721D01*
X116180319Y-65075986D01*
X116175040Y-65074611D01*
X116120377Y-65045446D01*
X116119637Y-65045015D01*
X116067628Y-65012168D01*
X116067118Y-65011827D01*
X116021771Y-64979743D01*
X116021604Y-64979623D01*
X115980020Y-64949089D01*
X115979982Y-64949061D01*
X115939351Y-64920964D01*
X115939172Y-64920860D01*
X115939160Y-64920852D01*
X115897135Y-64896354D01*
X115897126Y-64896349D01*
X115896837Y-64896181D01*
X115896529Y-64896047D01*
X115896524Y-64896044D01*
X115874578Y-64886463D01*
X115849497Y-64875514D01*
X115794390Y-64859761D01*
X115748269Y-64852727D01*
X115728874Y-64849769D01*
X115728870Y-64849769D01*
X115728571Y-64849723D01*
X115660281Y-64846696D01*
X115652169Y-64842906D01*
X115649100Y-64835007D01*
X115649100Y-64704993D01*
X115652527Y-64696720D01*
X115660282Y-64693304D01*
X115728571Y-64690276D01*
X115728870Y-64690230D01*
X115728874Y-64690230D01*
X115748269Y-64687272D01*
X115794390Y-64680238D01*
X115849497Y-64664485D01*
X115874578Y-64653536D01*
X115896524Y-64643955D01*
X115896529Y-64643952D01*
X115896837Y-64643818D01*
X115897126Y-64643650D01*
X115897135Y-64643645D01*
X115939160Y-64619147D01*
X115939172Y-64619139D01*
X115939351Y-64619035D01*
X115979982Y-64590938D01*
X116021604Y-64560376D01*
X116021771Y-64560256D01*
X116067118Y-64528172D01*
X116067628Y-64527831D01*
X116119637Y-64494984D01*
X116120378Y-64494553D01*
X116175040Y-64465389D01*
X116183952Y-64464518D01*
X116188657Y-64467279D01*
G37*
%TD.AperFunction*%
%TD*%
%TA.AperFunction,Conductor*%
%TO.N,GND*%
G36*
X112282308Y-85753257D02*
G01*
X112318083Y-85779542D01*
X112366876Y-85806835D01*
X112388595Y-85816068D01*
X112422096Y-85830310D01*
X112422104Y-85830313D01*
X112422351Y-85830418D01*
X112422601Y-85830498D01*
X112422606Y-85830500D01*
X112484564Y-85850356D01*
X112484770Y-85850422D01*
X112554400Y-85866983D01*
X112554573Y-85867013D01*
X112554584Y-85867015D01*
X112631343Y-85880205D01*
X112631350Y-85880206D01*
X112631507Y-85880233D01*
X112631668Y-85880252D01*
X112631681Y-85880254D01*
X112716235Y-85890292D01*
X112716242Y-85890293D01*
X112716354Y-85890306D01*
X112716448Y-85890313D01*
X112716457Y-85890314D01*
X112744176Y-85892412D01*
X112809209Y-85897336D01*
X112809280Y-85897339D01*
X112809298Y-85897340D01*
X112853524Y-85899141D01*
X112910335Y-85901456D01*
X113020000Y-85902800D01*
X113020000Y-86817200D01*
X112910335Y-86818543D01*
X112854113Y-86820834D01*
X112809298Y-86822659D01*
X112809280Y-86822660D01*
X112809209Y-86822663D01*
X112744176Y-86827587D01*
X112716457Y-86829685D01*
X112716448Y-86829686D01*
X112716354Y-86829693D01*
X112716242Y-86829706D01*
X112716235Y-86829707D01*
X112631681Y-86839745D01*
X112631668Y-86839747D01*
X112631507Y-86839766D01*
X112631350Y-86839793D01*
X112631343Y-86839794D01*
X112554584Y-86852984D01*
X112554573Y-86852986D01*
X112554400Y-86853016D01*
X112484770Y-86869577D01*
X112484564Y-86869643D01*
X112422606Y-86889499D01*
X112422601Y-86889501D01*
X112422351Y-86889581D01*
X112422104Y-86889686D01*
X112422096Y-86889689D01*
X112388595Y-86903931D01*
X112366876Y-86913164D01*
X112366598Y-86913319D01*
X112366599Y-86913319D01*
X112318395Y-86940282D01*
X112318389Y-86940286D01*
X112318083Y-86940457D01*
X112317792Y-86940671D01*
X112317787Y-86940674D01*
X112282311Y-86966740D01*
X112273615Y-86968878D01*
X112268886Y-86967042D01*
X111374567Y-86369729D01*
X111369590Y-86362285D01*
X111371336Y-86353502D01*
X111374567Y-86350271D01*
X112268886Y-85752959D01*
X112277669Y-85751213D01*
X112282308Y-85753257D01*
G37*
%TD.AperFunction*%
%TD*%
%TA.AperFunction,Conductor*%
%TO.N,/D6*%
G36*
X126559400Y-77302402D02*
G01*
X126662050Y-77402129D01*
X126683514Y-77422982D01*
X126798429Y-77527667D01*
X126899846Y-77614008D01*
X126991741Y-77687596D01*
X126991778Y-77687624D01*
X126991809Y-77687649D01*
X127078087Y-77754020D01*
X127162824Y-77818843D01*
X127162895Y-77818899D01*
X127202941Y-77850535D01*
X127249904Y-77887636D01*
X127250170Y-77887853D01*
X127294355Y-77924917D01*
X127343436Y-77966088D01*
X127343711Y-77966326D01*
X127447314Y-78059728D01*
X127447611Y-78060005D01*
X127455599Y-78067739D01*
X127559083Y-78167924D01*
X127562643Y-78176141D01*
X127561040Y-78182244D01*
X127007813Y-79126662D01*
X127000675Y-79132068D01*
X126991804Y-79130843D01*
X126989285Y-79128858D01*
X126285875Y-78397398D01*
X126282610Y-78389059D01*
X126283973Y-78383803D01*
X126341230Y-78275918D01*
X126341528Y-78275390D01*
X126405608Y-78168419D01*
X126405697Y-78168273D01*
X126467936Y-78067739D01*
X126467988Y-78067655D01*
X126523548Y-77971832D01*
X126567486Y-77879148D01*
X126594960Y-77787868D01*
X126601127Y-77696260D01*
X126581145Y-77602590D01*
X126530172Y-77505124D01*
X126450290Y-77410344D01*
X126447578Y-77401811D01*
X126450963Y-77394532D01*
X126542974Y-77302521D01*
X126551247Y-77299094D01*
X126559400Y-77302402D01*
G37*
%TD.AperFunction*%
%TD*%
M02*
