%TF.GenerationSoftware,KiCad,Pcbnew,(6.0.9)*%
%TF.CreationDate,2022-11-12T15:20:29-05:00*%
%TF.ProjectId,6116_FRAM_MOD,36313136-5f46-4524-914d-5f4d4f442e6b,rev?*%
%TF.SameCoordinates,Original*%
%TF.FileFunction,Legend,Top*%
%TF.FilePolarity,Positive*%
%FSLAX46Y46*%
G04 Gerber Fmt 4.6, Leading zero omitted, Abs format (unit mm)*
G04 Created by KiCad (PCBNEW (6.0.9)) date 2022-11-12 15:20:29*
%MOMM*%
%LPD*%
G01*
G04 APERTURE LIST*
%ADD10C,0.127000*%
%ADD11C,0.120000*%
G04 APERTURE END LIST*
D10*
X115951000Y-83058000D02*
X115951000Y-80518000D01*
X115951000Y-80518000D02*
X113030000Y-80518000D01*
X112979502Y-58141809D02*
X112979502Y-57633809D01*
X113148835Y-57996666D01*
X113318169Y-57633809D01*
X113318169Y-58141809D01*
X113560073Y-58093428D02*
X113584264Y-58117619D01*
X113560073Y-58141809D01*
X113535883Y-58117619D01*
X113560073Y-58093428D01*
X113560073Y-58141809D01*
X113777788Y-57996666D02*
X114019692Y-57996666D01*
X113729407Y-58141809D02*
X113898740Y-57633809D01*
X114068073Y-58141809D01*
X114237407Y-58093428D02*
X114261597Y-58117619D01*
X114237407Y-58141809D01*
X114213216Y-58117619D01*
X114237407Y-58093428D01*
X114237407Y-58141809D01*
X114842169Y-58117619D02*
X114914740Y-58141809D01*
X115035692Y-58141809D01*
X115084073Y-58117619D01*
X115108264Y-58093428D01*
X115132454Y-58045047D01*
X115132454Y-57996666D01*
X115108264Y-57948285D01*
X115084073Y-57924095D01*
X115035692Y-57899904D01*
X114938930Y-57875714D01*
X114890550Y-57851523D01*
X114866359Y-57827333D01*
X114842169Y-57778952D01*
X114842169Y-57730571D01*
X114866359Y-57682190D01*
X114890550Y-57658000D01*
X114938930Y-57633809D01*
X115059883Y-57633809D01*
X115132454Y-57658000D01*
X115301788Y-57633809D02*
X115422740Y-58141809D01*
X115519502Y-57778952D01*
X115616264Y-58141809D01*
X115737216Y-57633809D01*
X115906550Y-57996666D02*
X116148454Y-57996666D01*
X115858169Y-58141809D02*
X116027502Y-57633809D01*
X116196835Y-58141809D01*
X116535502Y-57875714D02*
X116608073Y-57899904D01*
X116632264Y-57924095D01*
X116656454Y-57972476D01*
X116656454Y-58045047D01*
X116632264Y-58093428D01*
X116608073Y-58117619D01*
X116559692Y-58141809D01*
X116366169Y-58141809D01*
X116366169Y-57633809D01*
X116535502Y-57633809D01*
X116583883Y-57658000D01*
X116608073Y-57682190D01*
X116632264Y-57730571D01*
X116632264Y-57778952D01*
X116608073Y-57827333D01*
X116583883Y-57851523D01*
X116535502Y-57875714D01*
X116366169Y-57875714D01*
X116874169Y-57875714D02*
X117043502Y-57875714D01*
X117116073Y-58141809D02*
X116874169Y-58141809D01*
X116874169Y-57633809D01*
X117116073Y-57633809D01*
X117430550Y-57899904D02*
X117430550Y-58141809D01*
X117261216Y-57633809D02*
X117430550Y-57899904D01*
X117599883Y-57633809D01*
X118373978Y-57633809D02*
X118277216Y-57633809D01*
X118228835Y-57658000D01*
X118204645Y-57682190D01*
X118156264Y-57754761D01*
X118132073Y-57851523D01*
X118132073Y-58045047D01*
X118156264Y-58093428D01*
X118180454Y-58117619D01*
X118228835Y-58141809D01*
X118325597Y-58141809D01*
X118373978Y-58117619D01*
X118398169Y-58093428D01*
X118422359Y-58045047D01*
X118422359Y-57924095D01*
X118398169Y-57875714D01*
X118373978Y-57851523D01*
X118325597Y-57827333D01*
X118228835Y-57827333D01*
X118180454Y-57851523D01*
X118156264Y-57875714D01*
X118132073Y-57924095D01*
X118906169Y-58141809D02*
X118615883Y-58141809D01*
X118761026Y-58141809D02*
X118761026Y-57633809D01*
X118712645Y-57706380D01*
X118664264Y-57754761D01*
X118615883Y-57778952D01*
X119389978Y-58141809D02*
X119099692Y-58141809D01*
X119244835Y-58141809D02*
X119244835Y-57633809D01*
X119196454Y-57706380D01*
X119148073Y-57754761D01*
X119099692Y-57778952D01*
X119825407Y-57633809D02*
X119728645Y-57633809D01*
X119680264Y-57658000D01*
X119656073Y-57682190D01*
X119607692Y-57754761D01*
X119583502Y-57851523D01*
X119583502Y-58045047D01*
X119607692Y-58093428D01*
X119631883Y-58117619D01*
X119680264Y-58141809D01*
X119777026Y-58141809D01*
X119825407Y-58117619D01*
X119849597Y-58093428D01*
X119873788Y-58045047D01*
X119873788Y-57924095D01*
X119849597Y-57875714D01*
X119825407Y-57851523D01*
X119777026Y-57827333D01*
X119680264Y-57827333D01*
X119631883Y-57851523D01*
X119607692Y-57875714D01*
X119583502Y-57924095D01*
X120647883Y-57875714D02*
X120478550Y-57875714D01*
X120478550Y-58141809D02*
X120478550Y-57633809D01*
X120720454Y-57633809D01*
X121204264Y-58141809D02*
X121034930Y-57899904D01*
X120913978Y-58141809D02*
X120913978Y-57633809D01*
X121107502Y-57633809D01*
X121155883Y-57658000D01*
X121180073Y-57682190D01*
X121204264Y-57730571D01*
X121204264Y-57803142D01*
X121180073Y-57851523D01*
X121155883Y-57875714D01*
X121107502Y-57899904D01*
X120913978Y-57899904D01*
X121397788Y-57996666D02*
X121639692Y-57996666D01*
X121349407Y-58141809D02*
X121518740Y-57633809D01*
X121688073Y-58141809D01*
X121857407Y-58141809D02*
X121857407Y-57633809D01*
X122026740Y-57996666D01*
X122196073Y-57633809D01*
X122196073Y-58141809D01*
X125064761Y-57633809D02*
X125234095Y-58141809D01*
X125403428Y-57633809D01*
X125838857Y-58141809D02*
X125548571Y-58141809D01*
X125693714Y-58141809D02*
X125693714Y-57633809D01*
X125645333Y-57706380D01*
X125596952Y-57754761D01*
X125548571Y-57778952D01*
%TO.C,U2*%
X114293952Y-60935809D02*
X114293952Y-61347047D01*
X114318142Y-61395428D01*
X114342333Y-61419619D01*
X114390714Y-61443809D01*
X114487476Y-61443809D01*
X114535857Y-61419619D01*
X114560047Y-61395428D01*
X114584238Y-61347047D01*
X114584238Y-60935809D01*
X114801952Y-60984190D02*
X114826142Y-60960000D01*
X114874523Y-60935809D01*
X114995476Y-60935809D01*
X115043857Y-60960000D01*
X115068047Y-60984190D01*
X115092238Y-61032571D01*
X115092238Y-61080952D01*
X115068047Y-61153523D01*
X114777761Y-61443809D01*
X115092238Y-61443809D01*
%TO.C,R1*%
X124121333Y-59411809D02*
X123952000Y-59169904D01*
X123831047Y-59411809D02*
X123831047Y-58903809D01*
X124024571Y-58903809D01*
X124072952Y-58928000D01*
X124097142Y-58952190D01*
X124121333Y-59000571D01*
X124121333Y-59073142D01*
X124097142Y-59121523D01*
X124072952Y-59145714D01*
X124024571Y-59169904D01*
X123831047Y-59169904D01*
X124605142Y-59411809D02*
X124314857Y-59411809D01*
X124460000Y-59411809D02*
X124460000Y-58903809D01*
X124411619Y-58976380D01*
X124363238Y-59024761D01*
X124314857Y-59048952D01*
%TO.C,R2*%
X115545809Y-82507666D02*
X115303904Y-82677000D01*
X115545809Y-82797952D02*
X115037809Y-82797952D01*
X115037809Y-82604428D01*
X115062000Y-82556047D01*
X115086190Y-82531857D01*
X115134571Y-82507666D01*
X115207142Y-82507666D01*
X115255523Y-82531857D01*
X115279714Y-82556047D01*
X115303904Y-82604428D01*
X115303904Y-82797952D01*
X115086190Y-82314142D02*
X115062000Y-82289952D01*
X115037809Y-82241571D01*
X115037809Y-82120619D01*
X115062000Y-82072238D01*
X115086190Y-82048047D01*
X115134571Y-82023857D01*
X115182952Y-82023857D01*
X115255523Y-82048047D01*
X115545809Y-82338333D01*
X115545809Y-82023857D01*
%TO.C,J1*%
X125052666Y-79858809D02*
X125052666Y-80221666D01*
X125028476Y-80294238D01*
X124980095Y-80342619D01*
X124907523Y-80366809D01*
X124859142Y-80366809D01*
X125560666Y-80366809D02*
X125270380Y-80366809D01*
X125415523Y-80366809D02*
X125415523Y-79858809D01*
X125367142Y-79931380D01*
X125318761Y-79979761D01*
X125270380Y-80003952D01*
%TO.C,R3*%
X115545809Y-81364666D02*
X115303904Y-81534000D01*
X115545809Y-81654952D02*
X115037809Y-81654952D01*
X115037809Y-81461428D01*
X115062000Y-81413047D01*
X115086190Y-81388857D01*
X115134571Y-81364666D01*
X115207142Y-81364666D01*
X115255523Y-81388857D01*
X115279714Y-81413047D01*
X115303904Y-81461428D01*
X115303904Y-81654952D01*
X115037809Y-81195333D02*
X115037809Y-80880857D01*
X115231333Y-81050190D01*
X115231333Y-80977619D01*
X115255523Y-80929238D01*
X115279714Y-80905047D01*
X115328095Y-80880857D01*
X115449047Y-80880857D01*
X115497428Y-80905047D01*
X115521619Y-80929238D01*
X115545809Y-80977619D01*
X115545809Y-81122761D01*
X115521619Y-81171142D01*
X115497428Y-81195333D01*
%TO.C,U1*%
X113386809Y-86747047D02*
X113798047Y-86747047D01*
X113846428Y-86722857D01*
X113870619Y-86698666D01*
X113894809Y-86650285D01*
X113894809Y-86553523D01*
X113870619Y-86505142D01*
X113846428Y-86480952D01*
X113798047Y-86456761D01*
X113386809Y-86456761D01*
X113894809Y-85948761D02*
X113894809Y-86239047D01*
X113894809Y-86093904D02*
X113386809Y-86093904D01*
X113459380Y-86142285D01*
X113507761Y-86190666D01*
X113531952Y-86239047D01*
%TO.C,R4*%
X114656809Y-81364666D02*
X114414904Y-81534000D01*
X114656809Y-81654952D02*
X114148809Y-81654952D01*
X114148809Y-81461428D01*
X114173000Y-81413047D01*
X114197190Y-81388857D01*
X114245571Y-81364666D01*
X114318142Y-81364666D01*
X114366523Y-81388857D01*
X114390714Y-81413047D01*
X114414904Y-81461428D01*
X114414904Y-81654952D01*
X114318142Y-80929238D02*
X114656809Y-80929238D01*
X114124619Y-81050190D02*
X114487476Y-81171142D01*
X114487476Y-80856666D01*
%TO.C,C3*%
X120184333Y-60633428D02*
X120160142Y-60657619D01*
X120087571Y-60681809D01*
X120039190Y-60681809D01*
X119966619Y-60657619D01*
X119918238Y-60609238D01*
X119894047Y-60560857D01*
X119869857Y-60464095D01*
X119869857Y-60391523D01*
X119894047Y-60294761D01*
X119918238Y-60246380D01*
X119966619Y-60198000D01*
X120039190Y-60173809D01*
X120087571Y-60173809D01*
X120160142Y-60198000D01*
X120184333Y-60222190D01*
X120353666Y-60173809D02*
X120668142Y-60173809D01*
X120498809Y-60367333D01*
X120571380Y-60367333D01*
X120619761Y-60391523D01*
X120643952Y-60415714D01*
X120668142Y-60464095D01*
X120668142Y-60585047D01*
X120643952Y-60633428D01*
X120619761Y-60657619D01*
X120571380Y-60681809D01*
X120426238Y-60681809D01*
X120377857Y-60657619D01*
X120353666Y-60633428D01*
%TO.C,R6*%
X113767809Y-81364666D02*
X113525904Y-81534000D01*
X113767809Y-81654952D02*
X113259809Y-81654952D01*
X113259809Y-81461428D01*
X113284000Y-81413047D01*
X113308190Y-81388857D01*
X113356571Y-81364666D01*
X113429142Y-81364666D01*
X113477523Y-81388857D01*
X113501714Y-81413047D01*
X113525904Y-81461428D01*
X113525904Y-81654952D01*
X113259809Y-80929238D02*
X113259809Y-81026000D01*
X113284000Y-81074380D01*
X113308190Y-81098571D01*
X113380761Y-81146952D01*
X113477523Y-81171142D01*
X113671047Y-81171142D01*
X113719428Y-81146952D01*
X113743619Y-81122761D01*
X113767809Y-81074380D01*
X113767809Y-80977619D01*
X113743619Y-80929238D01*
X113719428Y-80905047D01*
X113671047Y-80880857D01*
X113550095Y-80880857D01*
X113501714Y-80905047D01*
X113477523Y-80929238D01*
X113453333Y-80977619D01*
X113453333Y-81074380D01*
X113477523Y-81122761D01*
X113501714Y-81146952D01*
X113550095Y-81171142D01*
%TO.C,C4*%
X114481428Y-82507666D02*
X114505619Y-82531857D01*
X114529809Y-82604428D01*
X114529809Y-82652809D01*
X114505619Y-82725380D01*
X114457238Y-82773761D01*
X114408857Y-82797952D01*
X114312095Y-82822142D01*
X114239523Y-82822142D01*
X114142761Y-82797952D01*
X114094380Y-82773761D01*
X114046000Y-82725380D01*
X114021809Y-82652809D01*
X114021809Y-82604428D01*
X114046000Y-82531857D01*
X114070190Y-82507666D01*
X114191142Y-82072238D02*
X114529809Y-82072238D01*
X113997619Y-82193190D02*
X114360476Y-82314142D01*
X114360476Y-81999666D01*
D11*
%TO.C,U2*%
X119380000Y-79545000D02*
X123240000Y-79545000D01*
X119380000Y-61425000D02*
X123240000Y-61425000D01*
X123240000Y-61425000D02*
X123240000Y-61670000D01*
X123240000Y-79545000D02*
X123240000Y-79300000D01*
X119380000Y-79545000D02*
X115520000Y-79545000D01*
X115520000Y-79545000D02*
X115520000Y-79300000D01*
X119380000Y-61425000D02*
X115520000Y-61425000D01*
X115520000Y-61670000D02*
X113705000Y-61670000D01*
X115520000Y-61425000D02*
X115520000Y-61670000D01*
%TO.C,R1*%
X125602000Y-59649379D02*
X125602000Y-59984621D01*
X124842000Y-59649379D02*
X124842000Y-59984621D01*
%TO.C,R2*%
X120188866Y-85765621D02*
X120188866Y-85430379D01*
X119428866Y-85765621D02*
X119428866Y-85430379D01*
%TO.C,J1*%
X124982000Y-86235200D02*
X124982000Y-81335200D01*
X120872000Y-85085200D02*
X120672000Y-85085200D01*
X120672000Y-85085200D02*
X120672000Y-85385200D01*
X123482000Y-80725200D02*
X123482000Y-81335200D01*
X124982000Y-81335200D02*
X121482000Y-81335200D01*
X124482000Y-83685200D02*
X124982000Y-83685200D01*
X120572000Y-85895200D02*
X120572000Y-87145200D01*
X123482000Y-86845200D02*
X123482000Y-86235200D01*
X121482000Y-84285200D02*
X121482000Y-86235200D01*
X124982000Y-83885200D02*
X124482000Y-83885200D01*
X121482000Y-86235200D02*
X124982000Y-86235200D01*
X122182000Y-86845200D02*
X122182000Y-86235200D01*
X124482000Y-83885200D02*
X124482000Y-83685200D01*
X125592000Y-86845200D02*
X125592000Y-80725200D01*
X120572000Y-87145200D02*
X121822000Y-87145200D01*
X120872000Y-84285200D02*
X121482000Y-84285200D01*
X125592000Y-80725200D02*
X120872000Y-80725200D01*
X120672000Y-85385200D02*
X120872000Y-85385200D01*
X124982000Y-83785200D02*
X124482000Y-83785200D01*
X120772000Y-85085200D02*
X120772000Y-85385200D01*
X121482000Y-83285200D02*
X120872000Y-83285200D01*
X122182000Y-80725200D02*
X122182000Y-81335200D01*
X120872000Y-86845200D02*
X125592000Y-86845200D01*
X121482000Y-81335200D02*
X121482000Y-83285200D01*
X120872000Y-80725200D02*
X120872000Y-86845200D01*
%TO.C,R3*%
X119428866Y-82463621D02*
X119428866Y-82128379D01*
X120188866Y-82463621D02*
X120188866Y-82128379D01*
%TO.C,U1*%
X115062000Y-86904000D02*
X114412000Y-86904000D01*
X115062000Y-86904000D02*
X116737000Y-86904000D01*
X115062000Y-83784000D02*
X115712000Y-83784000D01*
X115062000Y-83784000D02*
X114412000Y-83784000D01*
%TO.C,R4*%
X118744000Y-82463621D02*
X118744000Y-82128379D01*
X117984000Y-82463621D02*
X117984000Y-82128379D01*
%TO.C,C3*%
X122314580Y-60962000D02*
X122033420Y-60962000D01*
X122314580Y-59942000D02*
X122033420Y-59942000D01*
%TO.C,R6*%
X116587000Y-82463621D02*
X116587000Y-82128379D01*
X117347000Y-82463621D02*
X117347000Y-82128379D01*
%TO.C,C4*%
X118620000Y-85738580D02*
X118620000Y-85457420D01*
X117600000Y-85738580D02*
X117600000Y-85457420D01*
%TD*%
M02*
