%TF.GenerationSoftware,KiCad,Pcbnew,(6.0.8)*%
%TF.CreationDate,2022-10-29T15:55:06-04:00*%
%TF.ProjectId,HP3457A_NVSRAM_MOD,48503334-3537-4415-9f4e-565352414d5f,rev?*%
%TF.SameCoordinates,Original*%
%TF.FileFunction,Copper,L2,Bot*%
%TF.FilePolarity,Positive*%
%FSLAX46Y46*%
G04 Gerber Fmt 4.6, Leading zero omitted, Abs format (unit mm)*
G04 Created by KiCad (PCBNEW (6.0.8)) date 2022-10-29 15:55:06*
%MOMM*%
%LPD*%
G01*
G04 APERTURE LIST*
G04 Aperture macros list*
%AMRoundRect*
0 Rectangle with rounded corners*
0 $1 Rounding radius*
0 $2 $3 $4 $5 $6 $7 $8 $9 X,Y pos of 4 corners*
0 Add a 4 corners polygon primitive as box body*
4,1,4,$2,$3,$4,$5,$6,$7,$8,$9,$2,$3,0*
0 Add four circle primitives for the rounded corners*
1,1,$1+$1,$2,$3*
1,1,$1+$1,$4,$5*
1,1,$1+$1,$6,$7*
1,1,$1+$1,$8,$9*
0 Add four rect primitives between the rounded corners*
20,1,$1+$1,$2,$3,$4,$5,0*
20,1,$1+$1,$4,$5,$6,$7,0*
20,1,$1+$1,$6,$7,$8,$9,0*
20,1,$1+$1,$8,$9,$2,$3,0*%
G04 Aperture macros list end*
%TA.AperFunction,ComponentPad*%
%ADD10RoundRect,0.250000X0.625000X-0.350000X0.625000X0.350000X-0.625000X0.350000X-0.625000X-0.350000X0*%
%TD*%
%TA.AperFunction,ComponentPad*%
%ADD11O,1.750000X1.200000*%
%TD*%
%TA.AperFunction,ComponentPad*%
%ADD12R,1.600000X1.600000*%
%TD*%
%TA.AperFunction,ComponentPad*%
%ADD13O,1.600000X1.600000*%
%TD*%
%TA.AperFunction,ViaPad*%
%ADD14C,0.685800*%
%TD*%
%TA.AperFunction,Conductor*%
%ADD15C,0.152400*%
%TD*%
%TA.AperFunction,Conductor*%
%ADD16C,0.914400*%
%TD*%
G04 APERTURE END LIST*
D10*
%TO.P,J1,1,Pin_1*%
%TO.N,/BATT_FAKE*%
X122682000Y-89865200D03*
D11*
%TO.P,J1,2,Pin_2*%
%TO.N,GND*%
X122682000Y-87865200D03*
%TD*%
D12*
%TO.P,U10,1,NC*%
%TO.N,unconnected-(U10-Pad1)*%
X111760000Y-58420000D03*
D13*
%TO.P,U10,2,A12*%
%TO.N,/A12*%
X111760000Y-60960000D03*
%TO.P,U10,3,A7*%
%TO.N,/A7*%
X111760000Y-63500000D03*
%TO.P,U10,4,A6*%
%TO.N,/A6*%
X111760000Y-66040000D03*
%TO.P,U10,5,A5*%
%TO.N,/A5*%
X111760000Y-68580000D03*
%TO.P,U10,6,A4*%
%TO.N,/A4*%
X111760000Y-71120000D03*
%TO.P,U10,7,A3*%
%TO.N,/A3*%
X111760000Y-73660000D03*
%TO.P,U10,8,A2*%
%TO.N,/A2*%
X111760000Y-76200000D03*
%TO.P,U10,9,A1*%
%TO.N,/A1*%
X111760000Y-78740000D03*
%TO.P,U10,10,A0*%
%TO.N,/A0*%
X111760000Y-81280000D03*
%TO.P,U10,11,D0*%
%TO.N,/D0*%
X111760000Y-83820000D03*
%TO.P,U10,12,D1*%
%TO.N,/D1*%
X111760000Y-86360000D03*
%TO.P,U10,13,D2*%
%TO.N,/D2*%
X111760000Y-88900000D03*
%TO.P,U10,14,GND*%
%TO.N,GND*%
X111760000Y-91440000D03*
%TO.P,U10,15,D3*%
%TO.N,/D3*%
X127000000Y-91440000D03*
%TO.P,U10,16,D4*%
%TO.N,/D4*%
X127000000Y-88900000D03*
%TO.P,U10,17,D5*%
%TO.N,/D5*%
X127000000Y-86360000D03*
%TO.P,U10,18,D6*%
%TO.N,/D6*%
X127000000Y-83820000D03*
%TO.P,U10,19,D7*%
%TO.N,/D7*%
X127000000Y-81280000D03*
%TO.P,U10,20,~{CE1}*%
%TO.N,/~{CE1}*%
X127000000Y-78740000D03*
%TO.P,U10,21,A10*%
%TO.N,/A10*%
X127000000Y-76200000D03*
%TO.P,U10,22,~{OE}*%
%TO.N,/~{OE}*%
X127000000Y-73660000D03*
%TO.P,U10,23,A11*%
%TO.N,/A11*%
X127000000Y-71120000D03*
%TO.P,U10,24,A9*%
%TO.N,/A9*%
X127000000Y-68580000D03*
%TO.P,U10,25,A8*%
%TO.N,/A8*%
X127000000Y-66040000D03*
%TO.P,U10,26,CE2*%
%TO.N,/CE2*%
X127000000Y-63500000D03*
%TO.P,U10,27,~{WE}*%
%TO.N,/~{WE}*%
X127000000Y-60960000D03*
%TO.P,U10,28,VCC*%
%TO.N,+5V*%
X127000000Y-58420000D03*
%TD*%
D14*
%TO.N,/D2*%
X115570000Y-82677000D03*
%TO.N,/D1*%
X115582215Y-81407000D03*
%TO.N,/A8*%
X123190000Y-71247000D03*
%TO.N,/D0*%
X115570000Y-80137000D03*
%TO.N,/A9*%
X123190000Y-72517000D03*
%TO.N,/A11*%
X123190000Y-73787000D03*
%TO.N,/A4*%
X115570000Y-73787000D03*
%TO.N,/A5*%
X115570000Y-72517000D03*
%TO.N,/D6*%
X123190000Y-80137000D03*
%TO.N,/A6*%
X115570000Y-71247000D03*
%TO.N,/D5*%
X123190000Y-81407000D03*
%TO.N,/A7*%
X115570000Y-69977000D03*
%TO.N,/D4*%
X123190000Y-82677000D03*
%TO.N,/A12*%
X115570000Y-68707000D03*
%TO.N,/CE2*%
X123825000Y-62618222D03*
%TO.N,/~{CE1}*%
X120777000Y-61849000D03*
%TO.N,/~{WE}*%
X123190000Y-68707000D03*
X124104400Y-63881000D03*
X124714000Y-61849000D03*
%TO.N,+5V*%
X125476000Y-59752900D03*
X120799466Y-91313000D03*
X122809000Y-60510022D03*
%TO.N,/BATT_FAKE*%
X120777000Y-90043000D03*
X120777000Y-88011000D03*
%TO.N,/~{CE_STK}*%
X123190000Y-77597000D03*
X120777000Y-62738000D03*
%TO.N,Net-(R5-Pad2)*%
X125476000Y-66548000D03*
X123190000Y-69977000D03*
%TD*%
D15*
%TO.N,/D2*%
X111760000Y-88900000D02*
X115503045Y-85156955D01*
X115570000Y-84995311D02*
X115570000Y-82677000D01*
X115503040Y-85156950D02*
G75*
G03*
X115570000Y-84995311I-161640J161650D01*
G01*
%TO.N,/D1*%
X114112956Y-83118044D02*
X115515260Y-81715740D01*
X111760000Y-86360000D02*
X113979045Y-84140955D01*
X114046000Y-83979311D02*
X114046000Y-83279689D01*
X115582215Y-81554096D02*
X115582215Y-81407000D01*
X115515265Y-81715745D02*
G75*
G03*
X115582215Y-81554096I-161665J161645D01*
G01*
X113979040Y-84140950D02*
G75*
G03*
X114046000Y-83979311I-161640J161650D01*
G01*
X114045993Y-83279689D02*
G75*
G02*
X114112956Y-83118044I228607J-11D01*
G01*
%TO.N,/A8*%
X125476000Y-67658689D02*
X125476000Y-68866311D01*
X125409044Y-69027956D02*
X123190000Y-71247000D01*
X127000000Y-66040000D02*
X125542955Y-67497045D01*
X125475993Y-67658689D02*
G75*
G02*
X125542955Y-67497045I228607J-11D01*
G01*
X125409039Y-69027951D02*
G75*
G03*
X125476000Y-68866311I-161639J161651D01*
G01*
%TO.N,/D0*%
X115537689Y-80137000D02*
X115570000Y-80137000D01*
X111760000Y-83820000D02*
X115376045Y-80203955D01*
X115537689Y-80136993D02*
G75*
G03*
X115376045Y-80203955I11J-228607D01*
G01*
%TO.N,/A9*%
X123190000Y-72484689D02*
X123190000Y-72517000D01*
X127000000Y-68580000D02*
X123256955Y-72323045D01*
X123256960Y-72323050D02*
G75*
G03*
X123190000Y-72484689I161640J-161650D01*
G01*
%TO.N,/A11*%
X125790044Y-71186956D02*
X123190000Y-73787000D01*
X127000000Y-71120000D02*
X125951689Y-71120000D01*
X125790049Y-71186961D02*
G75*
G02*
X125951689Y-71120000I161651J-161639D01*
G01*
%TO.N,/A4*%
X112969956Y-71186956D02*
X115570000Y-73787000D01*
X111760000Y-71120000D02*
X112808311Y-71120000D01*
X112969951Y-71186961D02*
G75*
G03*
X112808311Y-71120000I-161651J-161639D01*
G01*
%TO.N,/A5*%
X115570000Y-72484689D02*
X115570000Y-72517000D01*
X111760000Y-68580000D02*
X115503045Y-72323045D01*
X115503040Y-72323050D02*
G75*
G02*
X115570000Y-72484689I-161640J-161650D01*
G01*
%TO.N,/D6*%
X123222311Y-80137000D02*
X123190000Y-80137000D01*
X127000000Y-83820000D02*
X123383955Y-80203955D01*
X123383950Y-80203960D02*
G75*
G03*
X123222311Y-80137000I-161650J-161640D01*
G01*
%TO.N,/A6*%
X113223956Y-68900956D02*
X115570000Y-71247000D01*
X111760000Y-66040000D02*
X113090045Y-67370045D01*
X113157000Y-67531689D02*
X113157000Y-68739311D01*
X113090040Y-67370050D02*
G75*
G02*
X113157000Y-67531689I-161640J-161650D01*
G01*
X113223961Y-68900951D02*
G75*
G02*
X113157000Y-68739311I161639J161651D01*
G01*
%TO.N,/D5*%
X125095000Y-84360311D02*
X125095000Y-83406689D01*
X127000000Y-86360000D02*
X125161955Y-84521955D01*
X125028044Y-83245044D02*
X123190000Y-81407000D01*
X125028039Y-83245049D02*
G75*
G02*
X125095000Y-83406689I-161639J-161651D01*
G01*
X125161960Y-84521950D02*
G75*
G02*
X125095000Y-84360311I161640J161650D01*
G01*
%TO.N,/A7*%
X111760000Y-63500000D02*
X113775855Y-65515855D01*
X113909766Y-68316766D02*
X115570000Y-69977000D01*
X113842810Y-65677499D02*
X113842810Y-68155121D01*
X113842793Y-68155121D02*
G75*
G03*
X113909766Y-68316766I228607J21D01*
G01*
X113842807Y-65677499D02*
G75*
G03*
X113775855Y-65515855I-228607J-1D01*
G01*
%TO.N,/D4*%
X123190000Y-84995311D02*
X123190000Y-82677000D01*
X127000000Y-88900000D02*
X123256955Y-85156955D01*
X123256960Y-85156950D02*
G75*
G02*
X123190000Y-84995311I161640J161650D01*
G01*
%TO.N,/A12*%
X115570000Y-64864689D02*
X115570000Y-68707000D01*
X111760000Y-60960000D02*
X115503045Y-64703045D01*
X115503040Y-64703050D02*
G75*
G02*
X115570000Y-64864689I-161640J-161650D01*
G01*
%TO.N,/CE2*%
X124706778Y-63500000D02*
X127000000Y-63500000D01*
X123825000Y-62618222D02*
X124706778Y-63500000D01*
%TO.N,/~{CE1}*%
X123698000Y-67088311D02*
X123698000Y-64864689D01*
X122621956Y-68259044D02*
X123631045Y-67249955D01*
X123631044Y-64703044D02*
X120777000Y-61849000D01*
X127000000Y-78740000D02*
X122621955Y-74361955D01*
X122555000Y-74200311D02*
X122555000Y-68420689D01*
X123698007Y-64864689D02*
G75*
G03*
X123631044Y-64703044I-228607J-11D01*
G01*
X122554993Y-68420689D02*
G75*
G02*
X122621956Y-68259044I228607J-11D01*
G01*
X123631040Y-67249950D02*
G75*
G03*
X123698000Y-67088311I-161640J161650D01*
G01*
X122554993Y-74200311D02*
G75*
G03*
X122621955Y-74361955I228607J11D01*
G01*
%TO.N,/~{WE}*%
X124104400Y-63881000D02*
X124104400Y-67697911D01*
X126111000Y-61849000D02*
X124714000Y-61849000D01*
X127000000Y-60960000D02*
X126111000Y-61849000D01*
X124037445Y-67859555D02*
X123190000Y-68707000D01*
X124037440Y-67859550D02*
G75*
G03*
X124104400Y-67697911I-161640J161650D01*
G01*
D16*
%TO.N,+5V*%
X127000000Y-58420000D02*
X125857000Y-58420000D01*
D15*
%TO.N,/BATT_FAKE*%
X121412000Y-90043000D02*
X121589800Y-89865200D01*
X120777000Y-88011000D02*
X120777000Y-90043000D01*
X120777000Y-90043000D02*
X121412000Y-90043000D01*
X121589800Y-89865200D02*
X122682000Y-89865200D01*
%TO.N,/~{CE_STK}*%
X122240956Y-68005044D02*
X123250045Y-66995955D01*
X123190000Y-77597000D02*
X122240955Y-76647955D01*
X123250044Y-65211044D02*
X120777000Y-62738000D01*
X123317000Y-66834311D02*
X123317000Y-65372689D01*
X122174000Y-76486311D02*
X122174000Y-68166689D01*
X123317007Y-65372689D02*
G75*
G03*
X123250044Y-65211044I-228607J-11D01*
G01*
X123317007Y-66834311D02*
G75*
G02*
X123250045Y-66995955I-228607J11D01*
G01*
X122173993Y-76486311D02*
G75*
G03*
X122240955Y-76647955I228607J11D01*
G01*
X122173993Y-68166689D02*
G75*
G02*
X122240956Y-68005044I228607J-11D01*
G01*
%TO.N,Net-(R5-Pad2)*%
X125171200Y-66852800D02*
X125171200Y-67995800D01*
X125476000Y-66548000D02*
X125171200Y-66852800D01*
X125171200Y-67995800D02*
X123190000Y-69977000D01*
%TD*%
%TA.AperFunction,Conductor*%
%TO.N,+5V*%
G36*
X125254494Y-57531640D02*
G01*
X125397246Y-57550390D01*
X125416168Y-57555448D01*
X125544650Y-57608530D01*
X125561623Y-57618302D01*
X125672042Y-57702762D01*
X125685916Y-57716586D01*
X125770776Y-57826691D01*
X125780611Y-57843629D01*
X125834163Y-57971922D01*
X125839289Y-57990825D01*
X125858559Y-58133503D01*
X125859235Y-58143293D01*
X125871329Y-61456893D01*
X125871370Y-61468226D01*
X125853954Y-61516627D01*
X125809500Y-61542509D01*
X125796171Y-61543700D01*
X125359975Y-61543700D01*
X125341321Y-61541350D01*
X125333539Y-61539357D01*
X125333535Y-61539356D01*
X125329968Y-61538443D01*
X125290606Y-61536302D01*
X125280854Y-61535128D01*
X125266157Y-61532374D01*
X125255066Y-61529403D01*
X125252035Y-61528337D01*
X125241437Y-61523664D01*
X125239019Y-61522367D01*
X125230963Y-61517366D01*
X125220139Y-61509661D01*
X125215647Y-61506202D01*
X125192090Y-61486599D01*
X125191112Y-61485771D01*
X125157588Y-61456893D01*
X125154889Y-61454604D01*
X125154860Y-61454580D01*
X125154726Y-61454466D01*
X125154419Y-61454210D01*
X125150858Y-61451300D01*
X125111837Y-61420040D01*
X125104994Y-61414762D01*
X125104288Y-61414238D01*
X125101158Y-61412007D01*
X125097356Y-61409296D01*
X125097315Y-61409267D01*
X125097003Y-61409045D01*
X125096638Y-61408795D01*
X125096612Y-61408777D01*
X125052086Y-61378297D01*
X125052068Y-61378285D01*
X125051694Y-61378029D01*
X125041967Y-61371718D01*
X125040990Y-61371118D01*
X125040648Y-61370919D01*
X125031573Y-61365644D01*
X125031548Y-61365630D01*
X125031168Y-61365409D01*
X125030787Y-61365200D01*
X125030752Y-61365180D01*
X125006847Y-61352053D01*
X125006845Y-61352052D01*
X125003791Y-61350375D01*
X125002468Y-61349359D01*
X125000329Y-61348473D01*
X124983693Y-61339337D01*
X124963678Y-61331305D01*
X124933523Y-61319204D01*
X124933516Y-61319202D01*
X124931421Y-61318361D01*
X124929241Y-61317779D01*
X124929239Y-61317778D01*
X124926019Y-61316918D01*
X124926079Y-61316693D01*
X124916301Y-61313668D01*
X124867870Y-61293607D01*
X124867871Y-61293607D01*
X124863322Y-61291723D01*
X124858444Y-61291081D01*
X124858441Y-61291080D01*
X124718884Y-61272707D01*
X124714000Y-61272064D01*
X124709116Y-61272707D01*
X124569559Y-61291080D01*
X124569556Y-61291081D01*
X124564678Y-61291723D01*
X124560131Y-61293607D01*
X124560129Y-61293607D01*
X124511698Y-61313668D01*
X124425532Y-61349359D01*
X124421625Y-61352357D01*
X124340298Y-61414762D01*
X124306045Y-61441045D01*
X124214359Y-61560532D01*
X124212475Y-61565081D01*
X124165156Y-61679320D01*
X124156723Y-61699678D01*
X124156081Y-61704556D01*
X124156080Y-61704559D01*
X124147157Y-61772338D01*
X124137064Y-61849000D01*
X124156723Y-61998322D01*
X124158609Y-62002876D01*
X124159651Y-62006764D01*
X124155167Y-62058008D01*
X124118794Y-62094381D01*
X124067550Y-62098865D01*
X124058235Y-62095703D01*
X124055044Y-62094381D01*
X123974322Y-62060945D01*
X123969444Y-62060303D01*
X123969441Y-62060302D01*
X123829884Y-62041929D01*
X123825000Y-62041286D01*
X123820116Y-62041929D01*
X123680559Y-62060302D01*
X123680556Y-62060303D01*
X123675678Y-62060945D01*
X123671131Y-62062829D01*
X123671129Y-62062829D01*
X123641647Y-62075041D01*
X123536532Y-62118581D01*
X123417045Y-62210267D01*
X123325359Y-62329754D01*
X123312924Y-62359774D01*
X123276156Y-62448542D01*
X123267723Y-62468900D01*
X123267081Y-62473778D01*
X123267080Y-62473781D01*
X123252265Y-62586310D01*
X123248064Y-62618222D01*
X123248707Y-62623106D01*
X123265934Y-62753954D01*
X123267723Y-62767544D01*
X123269607Y-62772091D01*
X123269607Y-62772093D01*
X123294185Y-62831429D01*
X123325359Y-62906690D01*
X123417045Y-63026177D01*
X123536532Y-63117863D01*
X123625221Y-63154599D01*
X123631088Y-63157029D01*
X123636994Y-63159781D01*
X123655319Y-63169311D01*
X123658873Y-63170345D01*
X123658875Y-63170346D01*
X123662215Y-63171318D01*
X123673540Y-63174613D01*
X123675678Y-63175499D01*
X123677021Y-63175676D01*
X123677288Y-63175863D01*
X123677331Y-63175717D01*
X123707335Y-63184448D01*
X123707794Y-63184569D01*
X123707811Y-63184574D01*
X123718174Y-63187312D01*
X123718598Y-63187424D01*
X123719141Y-63187553D01*
X123719278Y-63187586D01*
X123719302Y-63187591D01*
X123719700Y-63187686D01*
X123727100Y-63189257D01*
X123728220Y-63189495D01*
X123730758Y-63190034D01*
X123731213Y-63190119D01*
X123731222Y-63190121D01*
X123784342Y-63200069D01*
X123784383Y-63200076D01*
X123784734Y-63200142D01*
X123785113Y-63200206D01*
X123785126Y-63200208D01*
X123793010Y-63201533D01*
X123793025Y-63201535D01*
X123793350Y-63201590D01*
X123793647Y-63201634D01*
X123793696Y-63201642D01*
X123793799Y-63201657D01*
X123793814Y-63201659D01*
X123794203Y-63201717D01*
X123802990Y-63202855D01*
X123803340Y-63202894D01*
X123803376Y-63202898D01*
X123852599Y-63208332D01*
X123852635Y-63208336D01*
X123852657Y-63208338D01*
X123856441Y-63208725D01*
X123856856Y-63208764D01*
X123857769Y-63208841D01*
X123860730Y-63209091D01*
X123907418Y-63230685D01*
X123929303Y-63277237D01*
X123916144Y-63326966D01*
X123883187Y-63353501D01*
X123820483Y-63379473D01*
X123820477Y-63379476D01*
X123815932Y-63381359D01*
X123696445Y-63473045D01*
X123604759Y-63592532D01*
X123547123Y-63731678D01*
X123546481Y-63736556D01*
X123546480Y-63736559D01*
X123532151Y-63845402D01*
X123527464Y-63881000D01*
X123539591Y-63973106D01*
X123542017Y-63991536D01*
X123530883Y-64041757D01*
X123490073Y-64073071D01*
X123438683Y-64070828D01*
X123414286Y-64054526D01*
X121449653Y-62089893D01*
X121438124Y-62075041D01*
X121434037Y-62068140D01*
X121434032Y-62068133D01*
X121432152Y-62064959D01*
X121405834Y-62035612D01*
X121399774Y-62027894D01*
X121391319Y-62015541D01*
X121385581Y-62005604D01*
X121384270Y-62002871D01*
X121384192Y-62002707D01*
X121380006Y-61991926D01*
X121379209Y-61989284D01*
X121377047Y-61980047D01*
X121374841Y-61966941D01*
X121374111Y-61961318D01*
X121371304Y-61930673D01*
X121371203Y-61929440D01*
X121370806Y-61924096D01*
X121367923Y-61885380D01*
X121367542Y-61880856D01*
X121367503Y-61880441D01*
X121367116Y-61876657D01*
X121361634Y-61826998D01*
X121361595Y-61826697D01*
X121361589Y-61826646D01*
X121360549Y-61818607D01*
X121360516Y-61818349D01*
X121360387Y-61817479D01*
X121358919Y-61808725D01*
X121352105Y-61772338D01*
X121348896Y-61755201D01*
X121348891Y-61755174D01*
X121348814Y-61754765D01*
X121346424Y-61743531D01*
X121346299Y-61743008D01*
X121346279Y-61742921D01*
X121346269Y-61742880D01*
X121346158Y-61742416D01*
X121343224Y-61731330D01*
X121334495Y-61701333D01*
X121334277Y-61699678D01*
X121333390Y-61697537D01*
X121328089Y-61679320D01*
X121305940Y-61627490D01*
X121303139Y-61622649D01*
X121303345Y-61622530D01*
X121298582Y-61613503D01*
X121278527Y-61565086D01*
X121276641Y-61560532D01*
X121263726Y-61543700D01*
X121187953Y-61444952D01*
X121184955Y-61441045D01*
X121150703Y-61414762D01*
X121069375Y-61352357D01*
X121065468Y-61349359D01*
X120979302Y-61313668D01*
X120930871Y-61293607D01*
X120930869Y-61293607D01*
X120926322Y-61291723D01*
X120921444Y-61291081D01*
X120921441Y-61291080D01*
X120781884Y-61272707D01*
X120777000Y-61272064D01*
X120772116Y-61272707D01*
X120632559Y-61291080D01*
X120632556Y-61291081D01*
X120627678Y-61291723D01*
X120623131Y-61293607D01*
X120623129Y-61293607D01*
X120574698Y-61313668D01*
X120488532Y-61349359D01*
X120484625Y-61352357D01*
X120403298Y-61414762D01*
X120369045Y-61441045D01*
X120277359Y-61560532D01*
X120275475Y-61565081D01*
X120228156Y-61679320D01*
X120219723Y-61699678D01*
X120219081Y-61704556D01*
X120219080Y-61704559D01*
X120210157Y-61772338D01*
X120200064Y-61849000D01*
X120200707Y-61853884D01*
X120219080Y-61993436D01*
X120219723Y-61998322D01*
X120221607Y-62002869D01*
X120221607Y-62002871D01*
X120238638Y-62043986D01*
X120277359Y-62137468D01*
X120280357Y-62141375D01*
X120361959Y-62247721D01*
X120377427Y-62296780D01*
X120361959Y-62339279D01*
X120310550Y-62406277D01*
X120277359Y-62449532D01*
X120251634Y-62511638D01*
X120224013Y-62578322D01*
X120219723Y-62588678D01*
X120219081Y-62593556D01*
X120219080Y-62593559D01*
X120209284Y-62667969D01*
X120200064Y-62738000D01*
X120200707Y-62742884D01*
X120216010Y-62859116D01*
X120219723Y-62887322D01*
X120277359Y-63026468D01*
X120369045Y-63145955D01*
X120488532Y-63237641D01*
X120574800Y-63273374D01*
X120583088Y-63276807D01*
X120588994Y-63279559D01*
X120607319Y-63289089D01*
X120610873Y-63290123D01*
X120610875Y-63290124D01*
X120614215Y-63291096D01*
X120625540Y-63294391D01*
X120627678Y-63295277D01*
X120629021Y-63295454D01*
X120629288Y-63295641D01*
X120629331Y-63295495D01*
X120659335Y-63304226D01*
X120659794Y-63304347D01*
X120659811Y-63304352D01*
X120670174Y-63307090D01*
X120670598Y-63307202D01*
X120671141Y-63307331D01*
X120671278Y-63307364D01*
X120671302Y-63307369D01*
X120671700Y-63307464D01*
X120682758Y-63309812D01*
X120683213Y-63309897D01*
X120683222Y-63309899D01*
X120736342Y-63319847D01*
X120736383Y-63319854D01*
X120736734Y-63319920D01*
X120737113Y-63319984D01*
X120737126Y-63319986D01*
X120745010Y-63321311D01*
X120745025Y-63321313D01*
X120745350Y-63321368D01*
X120745647Y-63321412D01*
X120745696Y-63321420D01*
X120745799Y-63321435D01*
X120745814Y-63321437D01*
X120746203Y-63321495D01*
X120754990Y-63322633D01*
X120755340Y-63322672D01*
X120755376Y-63322676D01*
X120804599Y-63328110D01*
X120804635Y-63328114D01*
X120804657Y-63328116D01*
X120808441Y-63328503D01*
X120808856Y-63328542D01*
X120809055Y-63328559D01*
X120809080Y-63328561D01*
X120811278Y-63328746D01*
X120813380Y-63328923D01*
X120857492Y-63332207D01*
X120858673Y-63332304D01*
X120889327Y-63335112D01*
X120894937Y-63335840D01*
X120908052Y-63338048D01*
X120917284Y-63340209D01*
X120919926Y-63341006D01*
X120930707Y-63345192D01*
X120933607Y-63346583D01*
X120943541Y-63352319D01*
X120955894Y-63360774D01*
X120963612Y-63366834D01*
X120992959Y-63393152D01*
X120995887Y-63394941D01*
X120995892Y-63394944D01*
X121004416Y-63400150D01*
X121018394Y-63411153D01*
X122989674Y-65382433D01*
X123011414Y-65429053D01*
X123011700Y-65435607D01*
X123011700Y-66771393D01*
X122994107Y-66819731D01*
X122989674Y-66824567D01*
X122510657Y-67303583D01*
X122048622Y-67765618D01*
X122038579Y-67774046D01*
X122027142Y-67782053D01*
X122027140Y-67782055D01*
X122021754Y-67785826D01*
X122017981Y-67791214D01*
X122017980Y-67791215D01*
X122007104Y-67806746D01*
X122002226Y-67810161D01*
X122003596Y-67811286D01*
X121956537Y-67868624D01*
X121906957Y-67961373D01*
X121905886Y-67964903D01*
X121877702Y-68057798D01*
X121876423Y-68062012D01*
X121876061Y-68065682D01*
X121876061Y-68065684D01*
X121875586Y-68070502D01*
X121873916Y-68087461D01*
X121873905Y-68087569D01*
X121872135Y-68097974D01*
X121871293Y-68101433D01*
X121869327Y-68106362D01*
X121868700Y-68112757D01*
X121868700Y-68133389D01*
X121867557Y-68146452D01*
X121863990Y-68166674D01*
X121865132Y-68173152D01*
X121865132Y-68173154D01*
X121867558Y-68186915D01*
X121868700Y-68199970D01*
X121868700Y-76453030D01*
X121867558Y-76466085D01*
X121863990Y-76486326D01*
X121868407Y-76511366D01*
X121867373Y-76517233D01*
X121869139Y-76517059D01*
X121876423Y-76590987D01*
X121906956Y-76691625D01*
X121956535Y-76784374D01*
X121958879Y-76787230D01*
X121972789Y-76804178D01*
X121978896Y-76812787D01*
X121980768Y-76815862D01*
X121982861Y-76820734D01*
X121986940Y-76825699D01*
X122001540Y-76840299D01*
X122009959Y-76850331D01*
X122021752Y-76867172D01*
X122027144Y-76870947D01*
X122038578Y-76878953D01*
X122048621Y-76887380D01*
X122517348Y-77356107D01*
X122528875Y-77370956D01*
X122534848Y-77381041D01*
X122561164Y-77410385D01*
X122567226Y-77418107D01*
X122575677Y-77430454D01*
X122581416Y-77440392D01*
X122582807Y-77443292D01*
X122586993Y-77454073D01*
X122587790Y-77456715D01*
X122589952Y-77465952D01*
X122592158Y-77479058D01*
X122592887Y-77484672D01*
X122593827Y-77494929D01*
X122595691Y-77515283D01*
X122595792Y-77516507D01*
X122599076Y-77560619D01*
X122599457Y-77565143D01*
X122599496Y-77565558D01*
X122599883Y-77569342D01*
X122605365Y-77619001D01*
X122605404Y-77619302D01*
X122605410Y-77619353D01*
X122606022Y-77624085D01*
X122606483Y-77627650D01*
X122606612Y-77628520D01*
X122608080Y-77637274D01*
X122608147Y-77637630D01*
X122618011Y-77690303D01*
X122618185Y-77691234D01*
X122620575Y-77702468D01*
X122620841Y-77703583D01*
X122623776Y-77714672D01*
X122632505Y-77744668D01*
X122632723Y-77746322D01*
X122633609Y-77748462D01*
X122638912Y-77766683D01*
X122661060Y-77818510D01*
X122662194Y-77820469D01*
X122662195Y-77820472D01*
X122663861Y-77823351D01*
X122663655Y-77823470D01*
X122668418Y-77832497D01*
X122690359Y-77885468D01*
X122693357Y-77889375D01*
X122693359Y-77889378D01*
X122733557Y-77941765D01*
X122782045Y-78004955D01*
X122901532Y-78096641D01*
X122971105Y-78125459D01*
X123036129Y-78152393D01*
X123036131Y-78152393D01*
X123040678Y-78154277D01*
X123045556Y-78154919D01*
X123045559Y-78154920D01*
X123185116Y-78173293D01*
X123190000Y-78173936D01*
X123194884Y-78173293D01*
X123334441Y-78154920D01*
X123334444Y-78154919D01*
X123339322Y-78154277D01*
X123343869Y-78152393D01*
X123343871Y-78152393D01*
X123408895Y-78125459D01*
X123478468Y-78096641D01*
X123597955Y-78004955D01*
X123689641Y-77885468D01*
X123737975Y-77768780D01*
X123745393Y-77750871D01*
X123745393Y-77750869D01*
X123747277Y-77746322D01*
X123747931Y-77741361D01*
X123766293Y-77601884D01*
X123766936Y-77597000D01*
X123762146Y-77560619D01*
X123747920Y-77452559D01*
X123747919Y-77452556D01*
X123747277Y-77447678D01*
X123744261Y-77440395D01*
X123691525Y-77313081D01*
X123689641Y-77308532D01*
X123597955Y-77189045D01*
X123478468Y-77097359D01*
X123383915Y-77058194D01*
X123377999Y-77055437D01*
X123362958Y-77047615D01*
X123362957Y-77047615D01*
X123359683Y-77045912D01*
X123341462Y-77040609D01*
X123339322Y-77039723D01*
X123337994Y-77039548D01*
X123337713Y-77039351D01*
X123337668Y-77039505D01*
X123307665Y-77030774D01*
X123307184Y-77030647D01*
X123307163Y-77030641D01*
X123303705Y-77029727D01*
X123296446Y-77027808D01*
X123296043Y-77027712D01*
X123296003Y-77027702D01*
X123295855Y-77027667D01*
X123295345Y-77027546D01*
X123284241Y-77025187D01*
X123266339Y-77021835D01*
X123230657Y-77015152D01*
X123230616Y-77015145D01*
X123230265Y-77015079D01*
X123229886Y-77015015D01*
X123229873Y-77015013D01*
X123221989Y-77013688D01*
X123221974Y-77013686D01*
X123221649Y-77013631D01*
X123221352Y-77013587D01*
X123221303Y-77013579D01*
X123221200Y-77013564D01*
X123221185Y-77013562D01*
X123220796Y-77013504D01*
X123212009Y-77012366D01*
X123211659Y-77012327D01*
X123211623Y-77012323D01*
X123162400Y-77006889D01*
X123162364Y-77006885D01*
X123162342Y-77006883D01*
X123158558Y-77006496D01*
X123158143Y-77006457D01*
X123157944Y-77006440D01*
X123157919Y-77006438D01*
X123155721Y-77006253D01*
X123153619Y-77006076D01*
X123109507Y-77002792D01*
X123108326Y-77002695D01*
X123077672Y-76999887D01*
X123072062Y-76999159D01*
X123058947Y-76996951D01*
X123049715Y-76994790D01*
X123047073Y-76993993D01*
X123036292Y-76989807D01*
X123033392Y-76988416D01*
X123023458Y-76982680D01*
X123011107Y-76974226D01*
X123003385Y-76968164D01*
X122974041Y-76941848D01*
X122962580Y-76934848D01*
X122948608Y-76923848D01*
X122501326Y-76476566D01*
X122479586Y-76429946D01*
X122479300Y-76423392D01*
X122479300Y-74832607D01*
X122496893Y-74784269D01*
X122541442Y-74758549D01*
X122592100Y-74767482D01*
X122607674Y-74779433D01*
X125748848Y-77920608D01*
X125760870Y-77936306D01*
X125764008Y-77941765D01*
X125765853Y-77944974D01*
X125768283Y-77947755D01*
X125768284Y-77947757D01*
X125853738Y-78045574D01*
X125861060Y-78055492D01*
X125902541Y-78122566D01*
X125905720Y-78127706D01*
X125912046Y-78140515D01*
X125927548Y-78181254D01*
X125932463Y-78207722D01*
X125939138Y-80036703D01*
X125946862Y-82153282D01*
X125929446Y-82201683D01*
X125884992Y-82227565D01*
X125834301Y-82218818D01*
X125818489Y-82206730D01*
X125050616Y-81438856D01*
X123921020Y-80309260D01*
X123909847Y-80295002D01*
X123905084Y-80287126D01*
X123905080Y-80287121D01*
X123903171Y-80283964D01*
X123868959Y-80246513D01*
X123863978Y-80240453D01*
X123845290Y-80215132D01*
X123840554Y-80207874D01*
X123829802Y-80189117D01*
X123826091Y-80181729D01*
X123817715Y-80162484D01*
X123815467Y-80156675D01*
X123808780Y-80137000D01*
X123806008Y-80128843D01*
X123805161Y-80126185D01*
X123793264Y-80086283D01*
X123792390Y-80083425D01*
X123792384Y-80083405D01*
X123792330Y-80083229D01*
X123777712Y-80036539D01*
X123777455Y-80035757D01*
X123775678Y-80030355D01*
X123775663Y-80030312D01*
X123775596Y-80030107D01*
X123775492Y-80029806D01*
X123775462Y-80029717D01*
X123775440Y-80029656D01*
X123775372Y-80029458D01*
X123773000Y-80022904D01*
X123754509Y-79974092D01*
X123750668Y-79964586D01*
X123750264Y-79963646D01*
X123745971Y-79954236D01*
X123720585Y-79901697D01*
X123715285Y-79891388D01*
X123714731Y-79890373D01*
X123708955Y-79880383D01*
X123708706Y-79879975D01*
X123706723Y-79876734D01*
X123689991Y-79849377D01*
X123689641Y-79848532D01*
X123688819Y-79847461D01*
X123687085Y-79844625D01*
X123684449Y-79840315D01*
X123677832Y-79829497D01*
X123643130Y-79785583D01*
X123639191Y-79781669D01*
X123639400Y-79781459D01*
X123632519Y-79774090D01*
X123600953Y-79732952D01*
X123597955Y-79729045D01*
X123478468Y-79637359D01*
X123362040Y-79589133D01*
X123343871Y-79581607D01*
X123343869Y-79581607D01*
X123339322Y-79579723D01*
X123334444Y-79579081D01*
X123334441Y-79579080D01*
X123194884Y-79560707D01*
X123190000Y-79560064D01*
X123185116Y-79560707D01*
X123045559Y-79579080D01*
X123045556Y-79579081D01*
X123040678Y-79579723D01*
X123036131Y-79581607D01*
X123036129Y-79581607D01*
X123017960Y-79589133D01*
X122901532Y-79637359D01*
X122782045Y-79729045D01*
X122690359Y-79848532D01*
X122632723Y-79987678D01*
X122632081Y-79992556D01*
X122632080Y-79992559D01*
X122626266Y-80036722D01*
X122613064Y-80137000D01*
X122613707Y-80141884D01*
X122630185Y-80267042D01*
X122632723Y-80286322D01*
X122634607Y-80290869D01*
X122634607Y-80290871D01*
X122647178Y-80321219D01*
X122690359Y-80425468D01*
X122782045Y-80544955D01*
X122901532Y-80636641D01*
X122963075Y-80662133D01*
X123036124Y-80692391D01*
X123036126Y-80692392D01*
X123040678Y-80694277D01*
X123064727Y-80697443D01*
X123110354Y-80721196D01*
X123130039Y-80768720D01*
X123114571Y-80817779D01*
X123071187Y-80845417D01*
X123064726Y-80846557D01*
X123045559Y-80849080D01*
X123045556Y-80849081D01*
X123040678Y-80849723D01*
X123036131Y-80851607D01*
X123036129Y-80851607D01*
X122997760Y-80867500D01*
X122901532Y-80907359D01*
X122782045Y-80999045D01*
X122690359Y-81118532D01*
X122688475Y-81123081D01*
X122641156Y-81237320D01*
X122632723Y-81257678D01*
X122632081Y-81262556D01*
X122632080Y-81262559D01*
X122625413Y-81313201D01*
X122613064Y-81407000D01*
X122613707Y-81411884D01*
X122630934Y-81542732D01*
X122632723Y-81556322D01*
X122634607Y-81560869D01*
X122634607Y-81560871D01*
X122659187Y-81620211D01*
X122690359Y-81695468D01*
X122782045Y-81814955D01*
X122785952Y-81817953D01*
X122790500Y-81821443D01*
X122901532Y-81906641D01*
X122959319Y-81930577D01*
X122996088Y-81945807D01*
X123001994Y-81948559D01*
X123020319Y-81958089D01*
X123023873Y-81959123D01*
X123023875Y-81959124D01*
X123024288Y-81959244D01*
X123038540Y-81963391D01*
X123040678Y-81964277D01*
X123042021Y-81964454D01*
X123042289Y-81964642D01*
X123042332Y-81964495D01*
X123065335Y-81971189D01*
X123106831Y-82001588D01*
X123119080Y-82051549D01*
X123096348Y-82097693D01*
X123054138Y-82117951D01*
X123052722Y-82118137D01*
X123045559Y-82119080D01*
X123045556Y-82119081D01*
X123040678Y-82119723D01*
X123036131Y-82121607D01*
X123036129Y-82121607D01*
X122995090Y-82138606D01*
X122901532Y-82177359D01*
X122782045Y-82269045D01*
X122690359Y-82388532D01*
X122632723Y-82527678D01*
X122632081Y-82532556D01*
X122632080Y-82532559D01*
X122614172Y-82668587D01*
X122613064Y-82677000D01*
X122613707Y-82681884D01*
X122628923Y-82797457D01*
X122632723Y-82826322D01*
X122634607Y-82830869D01*
X122634607Y-82830871D01*
X122671885Y-82920868D01*
X122674118Y-82927000D01*
X122680338Y-82946696D01*
X122689474Y-82963332D01*
X122690359Y-82965468D01*
X122691179Y-82966537D01*
X122691237Y-82966865D01*
X122691373Y-82966790D01*
X122706410Y-82994170D01*
X122712118Y-83003990D01*
X122712718Y-83004967D01*
X122719029Y-83014694D01*
X122719285Y-83015068D01*
X122719297Y-83015086D01*
X122730338Y-83031214D01*
X122750045Y-83060003D01*
X122750267Y-83060315D01*
X122750296Y-83060356D01*
X122753007Y-83064158D01*
X122755238Y-83067288D01*
X122755762Y-83067994D01*
X122761041Y-83074838D01*
X122761282Y-83075139D01*
X122761290Y-83075149D01*
X122790723Y-83111889D01*
X122792290Y-83113845D01*
X122795014Y-83117182D01*
X122795281Y-83117503D01*
X122795444Y-83117695D01*
X122797892Y-83120588D01*
X122797989Y-83120702D01*
X122826740Y-83154076D01*
X122827570Y-83155055D01*
X122847203Y-83178648D01*
X122850655Y-83183130D01*
X122858367Y-83193963D01*
X122863363Y-83202012D01*
X122864669Y-83204445D01*
X122869337Y-83215035D01*
X122870403Y-83218066D01*
X122873374Y-83229157D01*
X122876128Y-83243854D01*
X122877303Y-83253612D01*
X122879251Y-83289433D01*
X122879443Y-83292968D01*
X122880250Y-83296306D01*
X122880250Y-83296308D01*
X122882596Y-83306015D01*
X122884700Y-83323680D01*
X122884700Y-84962030D01*
X122883558Y-84975085D01*
X122879990Y-84995326D01*
X122881133Y-85001804D01*
X122884421Y-85020446D01*
X122883387Y-85026314D01*
X122885154Y-85026140D01*
X122887250Y-85047408D01*
X122892430Y-85099986D01*
X122893501Y-85103516D01*
X122893502Y-85103521D01*
X122909180Y-85155194D01*
X122922962Y-85200623D01*
X122972541Y-85293370D01*
X122986439Y-85310303D01*
X122988767Y-85313140D01*
X122994876Y-85321752D01*
X122996766Y-85324858D01*
X122998861Y-85329734D01*
X123002940Y-85334699D01*
X123017536Y-85349295D01*
X123025960Y-85359333D01*
X123033977Y-85370781D01*
X123037752Y-85376172D01*
X123043142Y-85379946D01*
X123043143Y-85379947D01*
X123054578Y-85387953D01*
X123064621Y-85396380D01*
X125748848Y-88080608D01*
X125760870Y-88096306D01*
X125764008Y-88101765D01*
X125765853Y-88104974D01*
X125768283Y-88107755D01*
X125768284Y-88107757D01*
X125853738Y-88205574D01*
X125861060Y-88215492D01*
X125874687Y-88237526D01*
X125905720Y-88287706D01*
X125912046Y-88300515D01*
X125934328Y-88359072D01*
X125938034Y-88372382D01*
X125948981Y-88432696D01*
X125950126Y-88443054D01*
X125953048Y-88514828D01*
X125953249Y-88519763D01*
X125953276Y-88525094D01*
X125952291Y-88557500D01*
X125950221Y-88625615D01*
X125950220Y-88625660D01*
X125948097Y-88694164D01*
X125946602Y-88742385D01*
X125946490Y-88749309D01*
X125946489Y-88750020D01*
X125946593Y-88757325D01*
X125950302Y-88881733D01*
X125951003Y-88894151D01*
X125951106Y-88895390D01*
X125952468Y-88907775D01*
X125952533Y-88908249D01*
X125970051Y-89036100D01*
X125970989Y-89042947D01*
X125971089Y-89043536D01*
X125971180Y-89044124D01*
X125972052Y-89055275D01*
X125980224Y-91294461D01*
X125979756Y-91303117D01*
X125966022Y-91425562D01*
X125966330Y-91429230D01*
X125966330Y-91429233D01*
X125981118Y-91605339D01*
X125981381Y-91611357D01*
X125981749Y-91712232D01*
X125981139Y-91722072D01*
X125962739Y-91865542D01*
X125957704Y-91884564D01*
X125904612Y-92013737D01*
X125894815Y-92030801D01*
X125810033Y-92141779D01*
X125796146Y-92155717D01*
X125685479Y-92240903D01*
X125668450Y-92250763D01*
X125539469Y-92304326D01*
X125520467Y-92309430D01*
X125415475Y-92323285D01*
X125377066Y-92328354D01*
X125367228Y-92329000D01*
X113517532Y-92329000D01*
X113507716Y-92328357D01*
X113364639Y-92309520D01*
X113345677Y-92304439D01*
X113216945Y-92251117D01*
X113199944Y-92241301D01*
X113089400Y-92156477D01*
X113075521Y-92142598D01*
X112990699Y-92032056D01*
X112980883Y-92015055D01*
X112927561Y-91886323D01*
X112922480Y-91867361D01*
X112903643Y-91724284D01*
X112903000Y-91714468D01*
X112903000Y-90043000D01*
X120200064Y-90043000D01*
X120219723Y-90192322D01*
X120277359Y-90331468D01*
X120369045Y-90450955D01*
X120488532Y-90542641D01*
X120530110Y-90559863D01*
X120623129Y-90598393D01*
X120623131Y-90598393D01*
X120627678Y-90600277D01*
X120632556Y-90600919D01*
X120632559Y-90600920D01*
X120772116Y-90619293D01*
X120777000Y-90619936D01*
X120781884Y-90619293D01*
X120921441Y-90600920D01*
X120921444Y-90600919D01*
X120926322Y-90600277D01*
X120930869Y-90598393D01*
X120930871Y-90598393D01*
X121020880Y-90561110D01*
X121027012Y-90558877D01*
X121046696Y-90552661D01*
X121063323Y-90543529D01*
X121065468Y-90542641D01*
X121066548Y-90541812D01*
X121066868Y-90541756D01*
X121066795Y-90541623D01*
X121093760Y-90526814D01*
X121093778Y-90526804D01*
X121094171Y-90526588D01*
X121094544Y-90526371D01*
X121094578Y-90526352D01*
X121103620Y-90521096D01*
X121103990Y-90520881D01*
X121104967Y-90520281D01*
X121114694Y-90513970D01*
X121115086Y-90513702D01*
X121159612Y-90483222D01*
X121159638Y-90483204D01*
X121160003Y-90482954D01*
X121160315Y-90482732D01*
X121160356Y-90482703D01*
X121164158Y-90479992D01*
X121167288Y-90477761D01*
X121167994Y-90477237D01*
X121174837Y-90471959D01*
X121213858Y-90440699D01*
X121217419Y-90437789D01*
X121217726Y-90437533D01*
X121220596Y-90435100D01*
X121220715Y-90434998D01*
X121220821Y-90434907D01*
X121254076Y-90406259D01*
X121255055Y-90405429D01*
X121278648Y-90385796D01*
X121283136Y-90382339D01*
X121293967Y-90374629D01*
X121302012Y-90369636D01*
X121304445Y-90368330D01*
X121315035Y-90363662D01*
X121318066Y-90362596D01*
X121329157Y-90359625D01*
X121343854Y-90356871D01*
X121353606Y-90355697D01*
X121387245Y-90353868D01*
X121389526Y-90353744D01*
X121392965Y-90353557D01*
X121396311Y-90352748D01*
X121396313Y-90352748D01*
X121406006Y-90350405D01*
X121423673Y-90348300D01*
X121440393Y-90348300D01*
X121443797Y-90347666D01*
X121447249Y-90347347D01*
X121447265Y-90347519D01*
X121451383Y-90347074D01*
X121473343Y-90346250D01*
X121473346Y-90346249D01*
X121480282Y-90345989D01*
X121486661Y-90343248D01*
X121486663Y-90343248D01*
X121493623Y-90340258D01*
X121509535Y-90335424D01*
X121523058Y-90332905D01*
X121573800Y-90341349D01*
X121607244Y-90380436D01*
X121632438Y-90447641D01*
X121635648Y-90451924D01*
X121635649Y-90451926D01*
X121706008Y-90545806D01*
X121714741Y-90557459D01*
X121719024Y-90560669D01*
X121820274Y-90636551D01*
X121820276Y-90636552D01*
X121824559Y-90639762D01*
X121829571Y-90641641D01*
X121829573Y-90641642D01*
X121948646Y-90686281D01*
X121948650Y-90686282D01*
X121953062Y-90687936D01*
X121957748Y-90688445D01*
X121957752Y-90688446D01*
X122009617Y-90694080D01*
X122009623Y-90694080D01*
X122011645Y-90694300D01*
X122681835Y-90694300D01*
X123352354Y-90694299D01*
X123354375Y-90694079D01*
X123354384Y-90694079D01*
X123386939Y-90690543D01*
X123410938Y-90687936D01*
X123415353Y-90686281D01*
X123534427Y-90641642D01*
X123534429Y-90641641D01*
X123539441Y-90639762D01*
X123543724Y-90636552D01*
X123543726Y-90636551D01*
X123644976Y-90560669D01*
X123649259Y-90557459D01*
X123657992Y-90545806D01*
X123728351Y-90451926D01*
X123728352Y-90451924D01*
X123731562Y-90447641D01*
X123734135Y-90440778D01*
X123778081Y-90323554D01*
X123778082Y-90323550D01*
X123779736Y-90319138D01*
X123780245Y-90314452D01*
X123780246Y-90314448D01*
X123785880Y-90262583D01*
X123785880Y-90262577D01*
X123786100Y-90260555D01*
X123786099Y-89469846D01*
X123785724Y-89466387D01*
X123780245Y-89415951D01*
X123779736Y-89411262D01*
X123771169Y-89388409D01*
X123733442Y-89287773D01*
X123733441Y-89287771D01*
X123731562Y-89282759D01*
X123649259Y-89172941D01*
X123590760Y-89129099D01*
X123543726Y-89093849D01*
X123543724Y-89093848D01*
X123539441Y-89090638D01*
X123534429Y-89088759D01*
X123534427Y-89088758D01*
X123415354Y-89044119D01*
X123415350Y-89044118D01*
X123410938Y-89042464D01*
X123406252Y-89041955D01*
X123406248Y-89041954D01*
X123354383Y-89036320D01*
X123354377Y-89036320D01*
X123352355Y-89036100D01*
X122682165Y-89036100D01*
X122011646Y-89036101D01*
X122009625Y-89036321D01*
X122009616Y-89036321D01*
X121977061Y-89039857D01*
X121953062Y-89042464D01*
X121948648Y-89044119D01*
X121948647Y-89044119D01*
X121829573Y-89088758D01*
X121829571Y-89088759D01*
X121824559Y-89090638D01*
X121820276Y-89093848D01*
X121820274Y-89093849D01*
X121773240Y-89129099D01*
X121714741Y-89172941D01*
X121632438Y-89282759D01*
X121630559Y-89287771D01*
X121630558Y-89287773D01*
X121593406Y-89386877D01*
X121584264Y-89411262D01*
X121583755Y-89415948D01*
X121583754Y-89415952D01*
X121578120Y-89467816D01*
X121577900Y-89469845D01*
X121577900Y-89490669D01*
X121560307Y-89539007D01*
X121522260Y-89562183D01*
X121521518Y-89562211D01*
X121515143Y-89564950D01*
X121515138Y-89564951D01*
X121508177Y-89567942D01*
X121492265Y-89572776D01*
X121484816Y-89574164D01*
X121484814Y-89574165D01*
X121477989Y-89575436D01*
X121472080Y-89579078D01*
X121472078Y-89579079D01*
X121453366Y-89590613D01*
X121443590Y-89595691D01*
X121421903Y-89605008D01*
X121421900Y-89605010D01*
X121417021Y-89607106D01*
X121412056Y-89611185D01*
X121405525Y-89617716D01*
X121391811Y-89628557D01*
X121381172Y-89635115D01*
X121376972Y-89640638D01*
X121362180Y-89660090D01*
X121355495Y-89667745D01*
X121351480Y-89671760D01*
X121304860Y-89693500D01*
X121255173Y-89680186D01*
X121249227Y-89675562D01*
X121220734Y-89651018D01*
X121220588Y-89650893D01*
X121217889Y-89648604D01*
X121217853Y-89648573D01*
X121217726Y-89648466D01*
X121217627Y-89648383D01*
X121217535Y-89648306D01*
X121217468Y-89648251D01*
X121217419Y-89648210D01*
X121217209Y-89648038D01*
X121214033Y-89645442D01*
X121213992Y-89645409D01*
X121213860Y-89645301D01*
X121208040Y-89640638D01*
X121198594Y-89633071D01*
X121186922Y-89621399D01*
X121174770Y-89606230D01*
X121174708Y-89606153D01*
X121172092Y-89602948D01*
X121172085Y-89602940D01*
X121171985Y-89602817D01*
X121171718Y-89602496D01*
X121169100Y-89599403D01*
X121168922Y-89599195D01*
X121140259Y-89565923D01*
X121139429Y-89564944D01*
X121119796Y-89541351D01*
X121116339Y-89536863D01*
X121108629Y-89526032D01*
X121103636Y-89517987D01*
X121102330Y-89515554D01*
X121097662Y-89504964D01*
X121096596Y-89501933D01*
X121093625Y-89490842D01*
X121090871Y-89476145D01*
X121089697Y-89466393D01*
X121087557Y-89427035D01*
X121084404Y-89413989D01*
X121082300Y-89396323D01*
X121082300Y-88656970D01*
X121084650Y-88638316D01*
X121087557Y-88626964D01*
X121089697Y-88587606D01*
X121090871Y-88577854D01*
X121093625Y-88563157D01*
X121096596Y-88552066D01*
X121097662Y-88549035D01*
X121102336Y-88538434D01*
X121103630Y-88536022D01*
X121108633Y-88527963D01*
X121116338Y-88517139D01*
X121119797Y-88512647D01*
X121139400Y-88489090D01*
X121140228Y-88488112D01*
X121169099Y-88454596D01*
X121169183Y-88454497D01*
X121171717Y-88451504D01*
X121171767Y-88451445D01*
X121171985Y-88451182D01*
X121172009Y-88451153D01*
X121174587Y-88447994D01*
X121174709Y-88447845D01*
X121182727Y-88437837D01*
X121205709Y-88409149D01*
X121205717Y-88409139D01*
X121205958Y-88408838D01*
X121211237Y-88401994D01*
X121211761Y-88401288D01*
X121213992Y-88398158D01*
X121216703Y-88394356D01*
X121216732Y-88394315D01*
X121216954Y-88394003D01*
X121236428Y-88365556D01*
X121247702Y-88349086D01*
X121247714Y-88349068D01*
X121247970Y-88348694D01*
X121254281Y-88338967D01*
X121254881Y-88337990D01*
X121258618Y-88331561D01*
X121260340Y-88328599D01*
X121260361Y-88328562D01*
X121260587Y-88328173D01*
X121275624Y-88300793D01*
X121276641Y-88299468D01*
X121277528Y-88297327D01*
X121286660Y-88280699D01*
X121307642Y-88228412D01*
X121309085Y-88223009D01*
X121309311Y-88223069D01*
X121312332Y-88213303D01*
X121332392Y-88164874D01*
X121332393Y-88164871D01*
X121334277Y-88160322D01*
X121341198Y-88107757D01*
X121353293Y-88015884D01*
X121353936Y-88011000D01*
X121348790Y-87971913D01*
X121334920Y-87866559D01*
X121334919Y-87866556D01*
X121334277Y-87861678D01*
X121330831Y-87853357D01*
X121316452Y-87818645D01*
X121574311Y-87818645D01*
X121574524Y-87822712D01*
X121574524Y-87822715D01*
X121576130Y-87853357D01*
X121583739Y-87998539D01*
X121584821Y-88002466D01*
X121584821Y-88002468D01*
X121595906Y-88042710D01*
X121631577Y-88172212D01*
X121715592Y-88331561D01*
X121718221Y-88334672D01*
X121718223Y-88334675D01*
X121744320Y-88365556D01*
X121831865Y-88469151D01*
X121835097Y-88471622D01*
X121835098Y-88471623D01*
X121901546Y-88522426D01*
X121974971Y-88578564D01*
X122085936Y-88630308D01*
X122122794Y-88647495D01*
X122138234Y-88654695D01*
X122142205Y-88655583D01*
X122142206Y-88655583D01*
X122311029Y-88693320D01*
X122311031Y-88693320D01*
X122314036Y-88693992D01*
X122317111Y-88694164D01*
X122317112Y-88694164D01*
X122317328Y-88694176D01*
X122319546Y-88694300D01*
X123002004Y-88694300D01*
X123004027Y-88694080D01*
X123004031Y-88694080D01*
X123070633Y-88686845D01*
X123136087Y-88679734D01*
X123139950Y-88678434D01*
X123302960Y-88623575D01*
X123302965Y-88623573D01*
X123306818Y-88622276D01*
X123310304Y-88620181D01*
X123310307Y-88620180D01*
X123457743Y-88531592D01*
X123457746Y-88531590D01*
X123461229Y-88529497D01*
X123592115Y-88405725D01*
X123594872Y-88401669D01*
X123663429Y-88300790D01*
X123693369Y-88256734D01*
X123760267Y-88089476D01*
X123789689Y-87911755D01*
X123787892Y-87877457D01*
X123780474Y-87735930D01*
X123780261Y-87731861D01*
X123778945Y-87727081D01*
X123733505Y-87562117D01*
X123732423Y-87558188D01*
X123648408Y-87398839D01*
X123645779Y-87395728D01*
X123645777Y-87395725D01*
X123534762Y-87264358D01*
X123532135Y-87261249D01*
X123495321Y-87233102D01*
X123392261Y-87154307D01*
X123389029Y-87151836D01*
X123225766Y-87075705D01*
X123221795Y-87074817D01*
X123221794Y-87074817D01*
X123052971Y-87037080D01*
X123052969Y-87037080D01*
X123049964Y-87036408D01*
X123046889Y-87036236D01*
X123046888Y-87036236D01*
X123046672Y-87036224D01*
X123044454Y-87036100D01*
X122361996Y-87036100D01*
X122359973Y-87036320D01*
X122359969Y-87036320D01*
X122293367Y-87043555D01*
X122227913Y-87050666D01*
X122224050Y-87051966D01*
X122061040Y-87106825D01*
X122061035Y-87106827D01*
X122057182Y-87108124D01*
X122053696Y-87110219D01*
X122053693Y-87110220D01*
X121906257Y-87198808D01*
X121906254Y-87198810D01*
X121902771Y-87200903D01*
X121771885Y-87324675D01*
X121670631Y-87473666D01*
X121669119Y-87477445D01*
X121669119Y-87477446D01*
X121655555Y-87511359D01*
X121603733Y-87640924D01*
X121574311Y-87818645D01*
X121316452Y-87818645D01*
X121291252Y-87757807D01*
X121276641Y-87722532D01*
X121184955Y-87603045D01*
X121065468Y-87511359D01*
X120966338Y-87470298D01*
X120930871Y-87455607D01*
X120930869Y-87455607D01*
X120926322Y-87453723D01*
X120921444Y-87453081D01*
X120921441Y-87453080D01*
X120781884Y-87434707D01*
X120777000Y-87434064D01*
X120772116Y-87434707D01*
X120632559Y-87453080D01*
X120632556Y-87453081D01*
X120627678Y-87453723D01*
X120623131Y-87455607D01*
X120623129Y-87455607D01*
X120587662Y-87470298D01*
X120488532Y-87511359D01*
X120369045Y-87603045D01*
X120277359Y-87722532D01*
X120262748Y-87757807D01*
X120223170Y-87853357D01*
X120219723Y-87861678D01*
X120219081Y-87866556D01*
X120219080Y-87866559D01*
X120205210Y-87971913D01*
X120200064Y-88011000D01*
X120200707Y-88015884D01*
X120212803Y-88107757D01*
X120219723Y-88160322D01*
X120221607Y-88164869D01*
X120221607Y-88164871D01*
X120258885Y-88254868D01*
X120261118Y-88261000D01*
X120267338Y-88280696D01*
X120276474Y-88297332D01*
X120277359Y-88299468D01*
X120278179Y-88300537D01*
X120278237Y-88300865D01*
X120278373Y-88300790D01*
X120293410Y-88328170D01*
X120299118Y-88337990D01*
X120299718Y-88338967D01*
X120306029Y-88348694D01*
X120306285Y-88349068D01*
X120306297Y-88349086D01*
X120317572Y-88365556D01*
X120337045Y-88394003D01*
X120337267Y-88394315D01*
X120337296Y-88394356D01*
X120340007Y-88398158D01*
X120342238Y-88401288D01*
X120342762Y-88401994D01*
X120348041Y-88408838D01*
X120348282Y-88409139D01*
X120348290Y-88409149D01*
X120371272Y-88437837D01*
X120379290Y-88447845D01*
X120382014Y-88451182D01*
X120382281Y-88451503D01*
X120382444Y-88451695D01*
X120384892Y-88454588D01*
X120384989Y-88454702D01*
X120413740Y-88488076D01*
X120414570Y-88489055D01*
X120434203Y-88512648D01*
X120437655Y-88517130D01*
X120445367Y-88527963D01*
X120450363Y-88536012D01*
X120451669Y-88538445D01*
X120456337Y-88549035D01*
X120457403Y-88552066D01*
X120460374Y-88563157D01*
X120463128Y-88577854D01*
X120464302Y-88587606D01*
X120466443Y-88626968D01*
X120467250Y-88630306D01*
X120467250Y-88630308D01*
X120469596Y-88640015D01*
X120471700Y-88657680D01*
X120471700Y-89397025D01*
X120469350Y-89415679D01*
X120466443Y-89427032D01*
X120466243Y-89430715D01*
X120464303Y-89466387D01*
X120463128Y-89476145D01*
X120460374Y-89490842D01*
X120457403Y-89501933D01*
X120456337Y-89504964D01*
X120451663Y-89515565D01*
X120450369Y-89517977D01*
X120445367Y-89526035D01*
X120437658Y-89536865D01*
X120434198Y-89541357D01*
X120414566Y-89564949D01*
X120413736Y-89565930D01*
X120392472Y-89590613D01*
X120384898Y-89599405D01*
X120382281Y-89602496D01*
X120382014Y-89602817D01*
X120379290Y-89606154D01*
X120379099Y-89606392D01*
X120379088Y-89606406D01*
X120359007Y-89631473D01*
X120348041Y-89645161D01*
X120342762Y-89652005D01*
X120342238Y-89652711D01*
X120342051Y-89652974D01*
X120337296Y-89659643D01*
X120337267Y-89659684D01*
X120337045Y-89659996D01*
X120336795Y-89660361D01*
X120336777Y-89660387D01*
X120306297Y-89704913D01*
X120306029Y-89705305D01*
X120299718Y-89715032D01*
X120299118Y-89716009D01*
X120298927Y-89716338D01*
X120298919Y-89716351D01*
X120297925Y-89718062D01*
X120293409Y-89725831D01*
X120278373Y-89753211D01*
X120277359Y-89754532D01*
X120276475Y-89756667D01*
X120267337Y-89773306D01*
X120246358Y-89825588D01*
X120244915Y-89830991D01*
X120244689Y-89830931D01*
X120241668Y-89840697D01*
X120238813Y-89847591D01*
X120219723Y-89893678D01*
X120200064Y-90043000D01*
X112903000Y-90043000D01*
X112903000Y-88237526D01*
X112921568Y-88188051D01*
X112932258Y-88175815D01*
X112994146Y-88104974D01*
X112995876Y-88102078D01*
X112995880Y-88102073D01*
X113000288Y-88094695D01*
X113011669Y-88080091D01*
X115695379Y-85396381D01*
X115705422Y-85387954D01*
X115716856Y-85379948D01*
X115716858Y-85379946D01*
X115722248Y-85376172D01*
X115726023Y-85370782D01*
X115726024Y-85370781D01*
X115736943Y-85355189D01*
X115741820Y-85351774D01*
X115740449Y-85350649D01*
X115771233Y-85313140D01*
X115787459Y-85293370D01*
X115837038Y-85200623D01*
X115867570Y-85099986D01*
X115870083Y-85074480D01*
X115871853Y-85064077D01*
X115872708Y-85060563D01*
X115874673Y-85055638D01*
X115875300Y-85049243D01*
X115875300Y-85028611D01*
X115876443Y-85015548D01*
X115878867Y-85001804D01*
X115880010Y-84995326D01*
X115876442Y-84975085D01*
X115875300Y-84962030D01*
X115875300Y-83322970D01*
X115877650Y-83304316D01*
X115879144Y-83298482D01*
X115880557Y-83292964D01*
X115882697Y-83253606D01*
X115883871Y-83243854D01*
X115886625Y-83229157D01*
X115889596Y-83218066D01*
X115890662Y-83215035D01*
X115895336Y-83204434D01*
X115896630Y-83202022D01*
X115901633Y-83193963D01*
X115909338Y-83183139D01*
X115912797Y-83178647D01*
X115932400Y-83155090D01*
X115933228Y-83154112D01*
X115949264Y-83135496D01*
X115962106Y-83120588D01*
X115964718Y-83117503D01*
X115964726Y-83117493D01*
X115964767Y-83117445D01*
X115964985Y-83117182D01*
X115965009Y-83117153D01*
X115965850Y-83116122D01*
X115967709Y-83113845D01*
X115969276Y-83111889D01*
X115998709Y-83075149D01*
X115998717Y-83075139D01*
X115998958Y-83074838D01*
X116004237Y-83067994D01*
X116004761Y-83067288D01*
X116006992Y-83064158D01*
X116009703Y-83060356D01*
X116009732Y-83060315D01*
X116009954Y-83060003D01*
X116029662Y-83031214D01*
X116040702Y-83015086D01*
X116040714Y-83015068D01*
X116040970Y-83014694D01*
X116047281Y-83004967D01*
X116047881Y-83003990D01*
X116050147Y-83000091D01*
X116053340Y-82994599D01*
X116053361Y-82994562D01*
X116053587Y-82994173D01*
X116062049Y-82978765D01*
X116066937Y-82969865D01*
X116066938Y-82969864D01*
X116068624Y-82966793D01*
X116069641Y-82965468D01*
X116070528Y-82963327D01*
X116079660Y-82946699D01*
X116100642Y-82894412D01*
X116102085Y-82889009D01*
X116102311Y-82889069D01*
X116105332Y-82879303D01*
X116125392Y-82830874D01*
X116125393Y-82830871D01*
X116127277Y-82826322D01*
X116134562Y-82770992D01*
X116146293Y-82681884D01*
X116146936Y-82677000D01*
X116145828Y-82668587D01*
X116127920Y-82532559D01*
X116127919Y-82532556D01*
X116127277Y-82527678D01*
X116069641Y-82388532D01*
X115977955Y-82269045D01*
X115858468Y-82177359D01*
X115853920Y-82175475D01*
X115853917Y-82175473D01*
X115750972Y-82132833D01*
X115713046Y-82098081D01*
X115706331Y-82047081D01*
X115733970Y-82003697D01*
X115744713Y-81996818D01*
X115746711Y-81995766D01*
X115746854Y-81995690D01*
X115746977Y-81995625D01*
X115748312Y-81994908D01*
X115750119Y-81993939D01*
X115750182Y-81993905D01*
X115750275Y-81993855D01*
X115750344Y-81993817D01*
X115750411Y-81993781D01*
X115750460Y-81993754D01*
X115750499Y-81993732D01*
X115750615Y-81993669D01*
X115754121Y-81991711D01*
X115786576Y-81973226D01*
X115796124Y-81967788D01*
X115796136Y-81967781D01*
X115796424Y-81967617D01*
X115803034Y-81963708D01*
X115803684Y-81963309D01*
X115803915Y-81963162D01*
X115803947Y-81963142D01*
X115809851Y-81959384D01*
X115810071Y-81959244D01*
X115810226Y-81959142D01*
X115810283Y-81959105D01*
X115853552Y-81930577D01*
X115853851Y-81930380D01*
X115861665Y-81924999D01*
X115862441Y-81924441D01*
X115870145Y-81918656D01*
X115893683Y-81900215D01*
X115916549Y-81882301D01*
X115916574Y-81882281D01*
X115916902Y-81882024D01*
X115924500Y-81875811D01*
X115925237Y-81875182D01*
X115932391Y-81868818D01*
X115977475Y-81827036D01*
X115978952Y-81825290D01*
X115980530Y-81823638D01*
X115980730Y-81823829D01*
X115982997Y-81821667D01*
X115982773Y-81821443D01*
X115986264Y-81817952D01*
X115990170Y-81814955D01*
X116081856Y-81695468D01*
X116113028Y-81620211D01*
X116137608Y-81560871D01*
X116137608Y-81560869D01*
X116139492Y-81556322D01*
X116141282Y-81542732D01*
X116158508Y-81411884D01*
X116159151Y-81407000D01*
X116146802Y-81313201D01*
X116140135Y-81262559D01*
X116140134Y-81262556D01*
X116139492Y-81257678D01*
X116131060Y-81237320D01*
X116083740Y-81123081D01*
X116081856Y-81118532D01*
X115990170Y-80999045D01*
X115870683Y-80907359D01*
X115774455Y-80867500D01*
X115736086Y-80851607D01*
X115736084Y-80851607D01*
X115731537Y-80849723D01*
X115726659Y-80849081D01*
X115726656Y-80849080D01*
X115701382Y-80845753D01*
X115655754Y-80822001D01*
X115636069Y-80774476D01*
X115651537Y-80725417D01*
X115694920Y-80697779D01*
X115701381Y-80696639D01*
X115704522Y-80696225D01*
X115719322Y-80694277D01*
X115723874Y-80692392D01*
X115723876Y-80692391D01*
X115796925Y-80662133D01*
X115858468Y-80636641D01*
X115977955Y-80544955D01*
X116069641Y-80425468D01*
X116112822Y-80321219D01*
X116125393Y-80290871D01*
X116125393Y-80290869D01*
X116127277Y-80286322D01*
X116129816Y-80267042D01*
X116146293Y-80141884D01*
X116146936Y-80137000D01*
X116133734Y-80036722D01*
X116127920Y-79992559D01*
X116127919Y-79992556D01*
X116127277Y-79987678D01*
X116069641Y-79848532D01*
X115977955Y-79729045D01*
X115858468Y-79637359D01*
X115742040Y-79589133D01*
X115723871Y-79581607D01*
X115723869Y-79581607D01*
X115719322Y-79579723D01*
X115714444Y-79579081D01*
X115714441Y-79579080D01*
X115574884Y-79560707D01*
X115570000Y-79560064D01*
X115565116Y-79560707D01*
X115425559Y-79579080D01*
X115425556Y-79579081D01*
X115420678Y-79579723D01*
X115416131Y-79581607D01*
X115416129Y-79581607D01*
X115397960Y-79589133D01*
X115281532Y-79637359D01*
X115162045Y-79729045D01*
X115159047Y-79732952D01*
X115100850Y-79808795D01*
X115096453Y-79814016D01*
X115084677Y-79826776D01*
X115084671Y-79826784D01*
X115082169Y-79829495D01*
X115071179Y-79847463D01*
X115070359Y-79848532D01*
X115070148Y-79849042D01*
X115069860Y-79849284D01*
X115070010Y-79849375D01*
X115051045Y-79880382D01*
X115050821Y-79880770D01*
X115050800Y-79880805D01*
X115045512Y-79889950D01*
X115045505Y-79889963D01*
X115045268Y-79890373D01*
X115044714Y-79891388D01*
X115039414Y-79901697D01*
X115014028Y-79954236D01*
X115009735Y-79963646D01*
X115009331Y-79964586D01*
X115005490Y-79974092D01*
X114986999Y-80022904D01*
X114984627Y-80029458D01*
X114984559Y-80029656D01*
X114984537Y-80029717D01*
X114984506Y-80029808D01*
X114984403Y-80030107D01*
X114982288Y-80036535D01*
X114982244Y-80036677D01*
X114982229Y-80036722D01*
X114967717Y-80083072D01*
X114966784Y-80086124D01*
X114954843Y-80126168D01*
X114953979Y-80128879D01*
X114944532Y-80156674D01*
X114942284Y-80162484D01*
X114933908Y-80181729D01*
X114930197Y-80189117D01*
X114919445Y-80207874D01*
X114914709Y-80215132D01*
X114896017Y-80240458D01*
X114891033Y-80246521D01*
X114856827Y-80283966D01*
X114849242Y-80296194D01*
X114838514Y-80309727D01*
X113031374Y-82116866D01*
X112984754Y-82138606D01*
X112935067Y-82125292D01*
X112905562Y-82083155D01*
X112903000Y-82063692D01*
X112903000Y-71733307D01*
X112920593Y-71684969D01*
X112965142Y-71659249D01*
X113015800Y-71668182D01*
X113031374Y-71680133D01*
X114897348Y-73546107D01*
X114908875Y-73560956D01*
X114914848Y-73571041D01*
X114941164Y-73600385D01*
X114947226Y-73608107D01*
X114955677Y-73620454D01*
X114961416Y-73630392D01*
X114962807Y-73633292D01*
X114966993Y-73644073D01*
X114967790Y-73646715D01*
X114969952Y-73655952D01*
X114972158Y-73669058D01*
X114972888Y-73674681D01*
X114975691Y-73705283D01*
X114975792Y-73706507D01*
X114979076Y-73750619D01*
X114979457Y-73755143D01*
X114979496Y-73755558D01*
X114979883Y-73759342D01*
X114985365Y-73809001D01*
X114985404Y-73809302D01*
X114985410Y-73809353D01*
X114986022Y-73814085D01*
X114986483Y-73817650D01*
X114986612Y-73818520D01*
X114988080Y-73827274D01*
X114998185Y-73881234D01*
X115000575Y-73892468D01*
X115000841Y-73893583D01*
X115003776Y-73904672D01*
X115012505Y-73934668D01*
X115012723Y-73936322D01*
X115013609Y-73938462D01*
X115018912Y-73956683D01*
X115019807Y-73958778D01*
X115019808Y-73958780D01*
X115026732Y-73974981D01*
X115041060Y-74008510D01*
X115042194Y-74010469D01*
X115042195Y-74010472D01*
X115043861Y-74013351D01*
X115043655Y-74013470D01*
X115048418Y-74022497D01*
X115070359Y-74075468D01*
X115162045Y-74194955D01*
X115281532Y-74286641D01*
X115351105Y-74315459D01*
X115416129Y-74342393D01*
X115416131Y-74342393D01*
X115420678Y-74344277D01*
X115425556Y-74344919D01*
X115425559Y-74344920D01*
X115565116Y-74363293D01*
X115570000Y-74363936D01*
X115574884Y-74363293D01*
X115714441Y-74344920D01*
X115714444Y-74344919D01*
X115719322Y-74344277D01*
X115723869Y-74342393D01*
X115723871Y-74342393D01*
X115788895Y-74315459D01*
X115858468Y-74286641D01*
X115977955Y-74194955D01*
X116069641Y-74075468D01*
X116111264Y-73974981D01*
X116125393Y-73940871D01*
X116125393Y-73940869D01*
X116127277Y-73936322D01*
X116127931Y-73931361D01*
X116146293Y-73791884D01*
X116146936Y-73787000D01*
X116142146Y-73750619D01*
X116127920Y-73642559D01*
X116127919Y-73642556D01*
X116127277Y-73637678D01*
X116124261Y-73630395D01*
X116071525Y-73503081D01*
X116069641Y-73498532D01*
X115977955Y-73379045D01*
X115858468Y-73287359D01*
X115763915Y-73248194D01*
X115757999Y-73245437D01*
X115742958Y-73237615D01*
X115742957Y-73237615D01*
X115739683Y-73235912D01*
X115721462Y-73230609D01*
X115719322Y-73229723D01*
X115717994Y-73229548D01*
X115717713Y-73229351D01*
X115717668Y-73229505D01*
X115694665Y-73222811D01*
X115653169Y-73192412D01*
X115640920Y-73142451D01*
X115663652Y-73096307D01*
X115705862Y-73076049D01*
X115707278Y-73075863D01*
X115714441Y-73074920D01*
X115714444Y-73074919D01*
X115719322Y-73074277D01*
X115723869Y-73072393D01*
X115723871Y-73072393D01*
X115806784Y-73038049D01*
X115858468Y-73016641D01*
X115977955Y-72924955D01*
X116069641Y-72805468D01*
X116120363Y-72683015D01*
X116125393Y-72670871D01*
X116125393Y-72670869D01*
X116127277Y-72666322D01*
X116127942Y-72661275D01*
X116146293Y-72521884D01*
X116146936Y-72517000D01*
X116146247Y-72511763D01*
X116127920Y-72372559D01*
X116127919Y-72372556D01*
X116127277Y-72367678D01*
X116121769Y-72354379D01*
X116094019Y-72287387D01*
X116069641Y-72228532D01*
X115977955Y-72109045D01*
X115898195Y-72047842D01*
X115892976Y-72043447D01*
X115880219Y-72031674D01*
X115880216Y-72031672D01*
X115877504Y-72029169D01*
X115872627Y-72026186D01*
X115864739Y-72021361D01*
X115864736Y-72021360D01*
X115859541Y-72018182D01*
X115858468Y-72017359D01*
X115857927Y-72017135D01*
X115857706Y-72016872D01*
X115857622Y-72017009D01*
X115827024Y-71998294D01*
X115826617Y-71998045D01*
X115826218Y-71997814D01*
X115826194Y-71997800D01*
X115817049Y-71992512D01*
X115817016Y-71992493D01*
X115816626Y-71992268D01*
X115815611Y-71991714D01*
X115811875Y-71989793D01*
X115805710Y-71986623D01*
X115805692Y-71986614D01*
X115805301Y-71986413D01*
X115752757Y-71961025D01*
X115743377Y-71956745D01*
X115742941Y-71956558D01*
X115742880Y-71956531D01*
X115742857Y-71956521D01*
X115742442Y-71956343D01*
X115732907Y-71952490D01*
X115715155Y-71945765D01*
X115676184Y-71912188D01*
X115667914Y-71861418D01*
X115694214Y-71817209D01*
X115719346Y-71804335D01*
X115719322Y-71804277D01*
X115858468Y-71746641D01*
X115960717Y-71668182D01*
X115974048Y-71657953D01*
X115977955Y-71654955D01*
X116069641Y-71535468D01*
X116127277Y-71396322D01*
X116131445Y-71364668D01*
X116146293Y-71251884D01*
X116146936Y-71247000D01*
X116136346Y-71166559D01*
X116127920Y-71102559D01*
X116127919Y-71102556D01*
X116127277Y-71097678D01*
X116124261Y-71090395D01*
X116090203Y-71008173D01*
X116069641Y-70958532D01*
X115977955Y-70839045D01*
X115971227Y-70833882D01*
X115862375Y-70750357D01*
X115858468Y-70747359D01*
X115763915Y-70708194D01*
X115757999Y-70705437D01*
X115742958Y-70697615D01*
X115742957Y-70697615D01*
X115739683Y-70695912D01*
X115721462Y-70690609D01*
X115719322Y-70689723D01*
X115717994Y-70689548D01*
X115717713Y-70689351D01*
X115717668Y-70689505D01*
X115694665Y-70682811D01*
X115653169Y-70652412D01*
X115640920Y-70602451D01*
X115663652Y-70556307D01*
X115705862Y-70536049D01*
X115707278Y-70535863D01*
X115714441Y-70534920D01*
X115714444Y-70534919D01*
X115719322Y-70534277D01*
X115723869Y-70532393D01*
X115723871Y-70532393D01*
X115806784Y-70498049D01*
X115858468Y-70476641D01*
X115977955Y-70384955D01*
X116069641Y-70265468D01*
X116118845Y-70146679D01*
X116125393Y-70130871D01*
X116125393Y-70130869D01*
X116127277Y-70126322D01*
X116129257Y-70111288D01*
X116146293Y-69981884D01*
X116146936Y-69977000D01*
X116142146Y-69940619D01*
X116127920Y-69832559D01*
X116127919Y-69832556D01*
X116127277Y-69827678D01*
X116124261Y-69820395D01*
X116071525Y-69693081D01*
X116069641Y-69688532D01*
X115977955Y-69569045D01*
X115858468Y-69477359D01*
X115763915Y-69438194D01*
X115757999Y-69435437D01*
X115742958Y-69427615D01*
X115742957Y-69427615D01*
X115739683Y-69425912D01*
X115721462Y-69420609D01*
X115719322Y-69419723D01*
X115717994Y-69419548D01*
X115717713Y-69419351D01*
X115717668Y-69419505D01*
X115694665Y-69412811D01*
X115653169Y-69382412D01*
X115640920Y-69332451D01*
X115663652Y-69286307D01*
X115705862Y-69266049D01*
X115707278Y-69265863D01*
X115714441Y-69264920D01*
X115714444Y-69264919D01*
X115719322Y-69264277D01*
X115723869Y-69262393D01*
X115723871Y-69262393D01*
X115811265Y-69226193D01*
X115858468Y-69206641D01*
X115960620Y-69128257D01*
X115974048Y-69117953D01*
X115977955Y-69114955D01*
X116069641Y-68995468D01*
X116123133Y-68866326D01*
X116125393Y-68860871D01*
X116125393Y-68860869D01*
X116127277Y-68856322D01*
X116127942Y-68851275D01*
X116146293Y-68711884D01*
X116146936Y-68707000D01*
X116142146Y-68670619D01*
X116127920Y-68562559D01*
X116127919Y-68562556D01*
X116127277Y-68557678D01*
X116123174Y-68547771D01*
X116101311Y-68494991D01*
X116088112Y-68463125D01*
X116085881Y-68456998D01*
X116080774Y-68440826D01*
X116080772Y-68440822D01*
X116079661Y-68437303D01*
X116070528Y-68420672D01*
X116069641Y-68418532D01*
X116068820Y-68417461D01*
X116068762Y-68417132D01*
X116068625Y-68417207D01*
X116066269Y-68412918D01*
X116053588Y-68389828D01*
X116047881Y-68380009D01*
X116047281Y-68379032D01*
X116040970Y-68369305D01*
X116040702Y-68368913D01*
X116010222Y-68324387D01*
X116010205Y-68324363D01*
X116009954Y-68323996D01*
X116004761Y-68316711D01*
X116004237Y-68316005D01*
X115998958Y-68309161D01*
X115967709Y-68270154D01*
X115964985Y-68266817D01*
X115964718Y-68266496D01*
X115962100Y-68263403D01*
X115961922Y-68263195D01*
X115933259Y-68229923D01*
X115932429Y-68228944D01*
X115912796Y-68205351D01*
X115909339Y-68200863D01*
X115901629Y-68190032D01*
X115896636Y-68181987D01*
X115895330Y-68179554D01*
X115890662Y-68168964D01*
X115889596Y-68165933D01*
X115886625Y-68154842D01*
X115883871Y-68140145D01*
X115882697Y-68130393D01*
X115880557Y-68091035D01*
X115877404Y-68077989D01*
X115875300Y-68060323D01*
X115875300Y-64897970D01*
X115876442Y-64884915D01*
X115878868Y-64871154D01*
X115878868Y-64871152D01*
X115880010Y-64864674D01*
X115875579Y-64839554D01*
X115876613Y-64833686D01*
X115874846Y-64833860D01*
X115867932Y-64763687D01*
X115867932Y-64763686D01*
X115867570Y-64760014D01*
X115859723Y-64734147D01*
X115838111Y-64662915D01*
X115837038Y-64659377D01*
X115787459Y-64566630D01*
X115771233Y-64546860D01*
X115765124Y-64538248D01*
X115763234Y-64535142D01*
X115761139Y-64530266D01*
X115757060Y-64525301D01*
X115742464Y-64510705D01*
X115734040Y-64500667D01*
X115726023Y-64489218D01*
X115726021Y-64489216D01*
X115722248Y-64483828D01*
X115716858Y-64480054D01*
X115716857Y-64480053D01*
X115705422Y-64472047D01*
X115695379Y-64463620D01*
X113011152Y-61779392D01*
X112999130Y-61763694D01*
X112995992Y-61758235D01*
X112995990Y-61758232D01*
X112994147Y-61755026D01*
X112921567Y-61671945D01*
X112903000Y-61622470D01*
X112903000Y-58145532D01*
X112903643Y-58135716D01*
X112922480Y-57992639D01*
X112927561Y-57973677D01*
X112980883Y-57844945D01*
X112990699Y-57827944D01*
X113075523Y-57717400D01*
X113089400Y-57703523D01*
X113199945Y-57618699D01*
X113216945Y-57608883D01*
X113345677Y-57555561D01*
X113364639Y-57550480D01*
X113507716Y-57531643D01*
X113517532Y-57531000D01*
X125244701Y-57531000D01*
X125254494Y-57531640D01*
G37*
%TD.AperFunction*%
%TD*%
%TA.AperFunction,Conductor*%
%TO.N,/CE2*%
G36*
X124140308Y-62505523D02*
G01*
X124148512Y-62509111D01*
X124151313Y-62513952D01*
X124166448Y-62565962D01*
X124166714Y-62567077D01*
X124176819Y-62621037D01*
X124176948Y-62621907D01*
X124182430Y-62671566D01*
X124182469Y-62671981D01*
X124185949Y-62718728D01*
X124190052Y-62763519D01*
X124197439Y-62807405D01*
X124210782Y-62851628D01*
X124232752Y-62897429D01*
X124266025Y-62946049D01*
X124266284Y-62946338D01*
X124266285Y-62946339D01*
X124305872Y-62990480D01*
X124308845Y-62998927D01*
X124305435Y-63006565D01*
X124213343Y-63098657D01*
X124205070Y-63102084D01*
X124197258Y-63099094D01*
X124153117Y-63059507D01*
X124153116Y-63059506D01*
X124152827Y-63059247D01*
X124104207Y-63025974D01*
X124058406Y-63004004D01*
X124014183Y-62990661D01*
X123970297Y-62983274D01*
X123944180Y-62980882D01*
X123925564Y-62979176D01*
X123925536Y-62979174D01*
X123925506Y-62979171D01*
X123900950Y-62977343D01*
X123878759Y-62975691D01*
X123878344Y-62975652D01*
X123861567Y-62973800D01*
X123828677Y-62970169D01*
X123827824Y-62970042D01*
X123773848Y-62959934D01*
X123772746Y-62959672D01*
X123720730Y-62944535D01*
X123713744Y-62938933D01*
X123712301Y-62933530D01*
X123704005Y-62509154D01*
X123707270Y-62500815D01*
X123715932Y-62497227D01*
X124140308Y-62505523D01*
G37*
%TD.AperFunction*%
%TD*%
%TA.AperFunction,Conductor*%
%TO.N,/D2*%
G36*
X115578433Y-82514319D02*
G01*
X115872647Y-82820265D01*
X115875912Y-82828604D01*
X115874469Y-82834007D01*
X115848396Y-82881481D01*
X115847796Y-82882458D01*
X115816780Y-82927767D01*
X115816256Y-82928473D01*
X115785007Y-82967480D01*
X115784740Y-82967801D01*
X115754187Y-83003266D01*
X115754160Y-83003298D01*
X115754107Y-83003362D01*
X115725525Y-83037709D01*
X115725518Y-83037719D01*
X115725390Y-83037872D01*
X115699581Y-83074128D01*
X115677745Y-83114833D01*
X115660894Y-83162754D01*
X115650042Y-83220661D01*
X115650022Y-83221032D01*
X115650021Y-83221039D01*
X115646802Y-83280255D01*
X115642931Y-83288330D01*
X115635119Y-83291320D01*
X115504881Y-83291320D01*
X115496608Y-83287893D01*
X115493198Y-83280255D01*
X115489978Y-83221039D01*
X115489977Y-83221032D01*
X115489957Y-83220661D01*
X115479105Y-83162754D01*
X115462254Y-83114833D01*
X115440418Y-83074128D01*
X115414609Y-83037872D01*
X115414481Y-83037719D01*
X115414474Y-83037709D01*
X115385892Y-83003362D01*
X115385839Y-83003298D01*
X115385812Y-83003266D01*
X115355259Y-82967801D01*
X115354992Y-82967480D01*
X115323743Y-82928473D01*
X115323219Y-82927767D01*
X115292203Y-82882458D01*
X115291603Y-82881481D01*
X115265531Y-82834007D01*
X115264552Y-82825106D01*
X115267353Y-82820265D01*
X115561567Y-82514319D01*
X115569771Y-82510731D01*
X115578433Y-82514319D01*
G37*
%TD.AperFunction*%
%TD*%
%TA.AperFunction,Conductor*%
%TO.N,/A7*%
G36*
X115197742Y-69496128D02*
G01*
X115241882Y-69535714D01*
X115242172Y-69535974D01*
X115290792Y-69569247D01*
X115336593Y-69591217D01*
X115380816Y-69604560D01*
X115424702Y-69611947D01*
X115450819Y-69614339D01*
X115469435Y-69616045D01*
X115469463Y-69616047D01*
X115469493Y-69616050D01*
X115494049Y-69617878D01*
X115516240Y-69619530D01*
X115516655Y-69619569D01*
X115533432Y-69621421D01*
X115566322Y-69625052D01*
X115567175Y-69625179D01*
X115621151Y-69635287D01*
X115622252Y-69635549D01*
X115669064Y-69649172D01*
X115674270Y-69650687D01*
X115681256Y-69656289D01*
X115682699Y-69661692D01*
X115690995Y-70086068D01*
X115687730Y-70094407D01*
X115679068Y-70097995D01*
X115254692Y-70089699D01*
X115246488Y-70086111D01*
X115243687Y-70081270D01*
X115228551Y-70029259D01*
X115228285Y-70028144D01*
X115218180Y-69974184D01*
X115218051Y-69973314D01*
X115212569Y-69923655D01*
X115212530Y-69923240D01*
X115209050Y-69876493D01*
X115204968Y-69831936D01*
X115204947Y-69831702D01*
X115197560Y-69787816D01*
X115184217Y-69743593D01*
X115162247Y-69697792D01*
X115128974Y-69649172D01*
X115116615Y-69635391D01*
X115089128Y-69604742D01*
X115086155Y-69596295D01*
X115089565Y-69588657D01*
X115181657Y-69496565D01*
X115189930Y-69493138D01*
X115197742Y-69496128D01*
G37*
%TD.AperFunction*%
%TD*%
%TA.AperFunction,Conductor*%
%TO.N,/A11*%
G36*
X126441974Y-70558802D02*
G01*
X127386662Y-71112187D01*
X127392068Y-71119325D01*
X127390843Y-71128196D01*
X127388858Y-71130715D01*
X126657772Y-71833765D01*
X126649433Y-71837030D01*
X126643597Y-71835337D01*
X126532471Y-71767968D01*
X126531047Y-71766952D01*
X126425488Y-71679017D01*
X126424696Y-71678293D01*
X126328648Y-71582067D01*
X126328355Y-71581763D01*
X126298597Y-71549716D01*
X126239115Y-71485659D01*
X126154078Y-71398342D01*
X126070523Y-71328392D01*
X126069962Y-71328100D01*
X126069960Y-71328099D01*
X125986547Y-71284736D01*
X125985589Y-71284238D01*
X125984517Y-71284119D01*
X125984515Y-71284118D01*
X125897697Y-71274451D01*
X125897695Y-71274451D01*
X125896417Y-71274309D01*
X125800145Y-71307036D01*
X125702079Y-71384407D01*
X125693462Y-71386841D01*
X125686560Y-71383495D01*
X125594552Y-71291487D01*
X125591125Y-71283214D01*
X125594680Y-71274815D01*
X125594774Y-71274724D01*
X125696342Y-71176233D01*
X125696619Y-71175973D01*
X125792266Y-71089373D01*
X125792581Y-71089098D01*
X125877105Y-71017898D01*
X125877396Y-71017661D01*
X125954136Y-70957109D01*
X125954328Y-70956961D01*
X125971602Y-70943903D01*
X126026594Y-70902333D01*
X126026628Y-70902324D01*
X126026620Y-70902313D01*
X126097706Y-70848896D01*
X126170693Y-70792134D01*
X126170751Y-70792089D01*
X126249021Y-70727191D01*
X126335786Y-70649499D01*
X126427931Y-70560482D01*
X126436262Y-70557199D01*
X126441974Y-70558802D01*
G37*
%TD.AperFunction*%
%TD*%
%TA.AperFunction,Conductor*%
%TO.N,/A9*%
G36*
X127279016Y-68300661D02*
G01*
X127282604Y-68309323D01*
X127272092Y-68847086D01*
X127265623Y-69178010D01*
X127262711Y-69326950D01*
X127259123Y-69335154D01*
X127254107Y-69338004D01*
X127182474Y-69357638D01*
X127112673Y-69376769D01*
X127111168Y-69377077D01*
X127043265Y-69386381D01*
X126975989Y-69395599D01*
X126974765Y-69395700D01*
X126850339Y-69399410D01*
X126849649Y-69399409D01*
X126732913Y-69395791D01*
X126621431Y-69392403D01*
X126621422Y-69392403D01*
X126621223Y-69392397D01*
X126512045Y-69396841D01*
X126402493Y-69416725D01*
X126360251Y-69432799D01*
X126290201Y-69459453D01*
X126290198Y-69459455D01*
X126289679Y-69459652D01*
X126170717Y-69533223D01*
X126059743Y-69630171D01*
X126050957Y-69637847D01*
X126042472Y-69640709D01*
X126034986Y-69637309D01*
X125942691Y-69545014D01*
X125939264Y-69536741D01*
X125942153Y-69529043D01*
X126002773Y-69459652D01*
X126046776Y-69409282D01*
X126090857Y-69338005D01*
X126120054Y-69290794D01*
X126120055Y-69290793D01*
X126120347Y-69290320D01*
X126163274Y-69177506D01*
X126183158Y-69067954D01*
X126187602Y-68958776D01*
X126184208Y-68847086D01*
X126180590Y-68730351D01*
X126180589Y-68729647D01*
X126184298Y-68605242D01*
X126184401Y-68604003D01*
X126202922Y-68468831D01*
X126203230Y-68467326D01*
X126241995Y-68325894D01*
X126247487Y-68318821D01*
X126253050Y-68317289D01*
X126569414Y-68311105D01*
X127270677Y-68297396D01*
X127279016Y-68300661D01*
G37*
%TD.AperFunction*%
%TD*%
%TA.AperFunction,Conductor*%
%TO.N,/D5*%
G36*
X126050957Y-85302153D02*
G01*
X126170717Y-85406776D01*
X126289679Y-85480347D01*
X126290198Y-85480544D01*
X126290201Y-85480546D01*
X126360251Y-85507200D01*
X126402493Y-85523274D01*
X126512045Y-85543158D01*
X126621223Y-85547602D01*
X126621422Y-85547596D01*
X126621431Y-85547596D01*
X126732913Y-85544208D01*
X126849649Y-85540590D01*
X126850339Y-85540589D01*
X126974765Y-85544299D01*
X126975989Y-85544400D01*
X127043265Y-85553618D01*
X127111168Y-85562922D01*
X127112673Y-85563230D01*
X127187882Y-85583844D01*
X127254107Y-85601995D01*
X127261179Y-85607487D01*
X127262711Y-85613050D01*
X127265632Y-85762493D01*
X127282604Y-86630677D01*
X127279339Y-86639016D01*
X127270677Y-86642604D01*
X126569414Y-86628895D01*
X126253050Y-86622711D01*
X126244846Y-86619123D01*
X126241995Y-86614106D01*
X126203230Y-86472673D01*
X126202922Y-86471168D01*
X126184401Y-86335996D01*
X126184298Y-86334757D01*
X126180589Y-86210349D01*
X126180590Y-86209638D01*
X126184208Y-86092913D01*
X126187596Y-85981431D01*
X126187596Y-85981422D01*
X126187602Y-85981223D01*
X126183158Y-85872045D01*
X126163274Y-85762493D01*
X126120347Y-85649679D01*
X126046776Y-85530717D01*
X125942153Y-85410957D01*
X125939291Y-85402472D01*
X125942691Y-85394986D01*
X126034986Y-85302691D01*
X126043259Y-85299264D01*
X126050957Y-85302153D01*
G37*
%TD.AperFunction*%
%TD*%
%TA.AperFunction,Conductor*%
%TO.N,/~{WE}*%
G36*
X124112833Y-63718319D02*
G01*
X124407047Y-64024265D01*
X124410312Y-64032604D01*
X124408869Y-64038007D01*
X124382796Y-64085481D01*
X124382196Y-64086458D01*
X124351180Y-64131767D01*
X124350656Y-64132473D01*
X124319407Y-64171480D01*
X124319140Y-64171801D01*
X124288587Y-64207266D01*
X124288560Y-64207298D01*
X124288507Y-64207362D01*
X124259925Y-64241709D01*
X124259918Y-64241719D01*
X124259790Y-64241872D01*
X124233981Y-64278128D01*
X124212145Y-64318833D01*
X124195294Y-64366754D01*
X124184442Y-64424661D01*
X124184422Y-64425032D01*
X124184421Y-64425039D01*
X124181202Y-64484255D01*
X124177331Y-64492330D01*
X124169519Y-64495320D01*
X124039281Y-64495320D01*
X124031008Y-64491893D01*
X124027598Y-64484255D01*
X124024378Y-64425039D01*
X124024377Y-64425032D01*
X124024357Y-64424661D01*
X124013505Y-64366754D01*
X123996654Y-64318833D01*
X123974818Y-64278128D01*
X123949009Y-64241872D01*
X123948881Y-64241719D01*
X123948874Y-64241709D01*
X123920292Y-64207362D01*
X123920239Y-64207298D01*
X123920212Y-64207266D01*
X123889659Y-64171801D01*
X123889392Y-64171480D01*
X123858143Y-64132473D01*
X123857619Y-64131767D01*
X123826603Y-64086458D01*
X123826003Y-64085481D01*
X123799931Y-64038007D01*
X123798952Y-64029106D01*
X123801753Y-64024265D01*
X124095967Y-63718319D01*
X124104171Y-63714731D01*
X124112833Y-63718319D01*
G37*
%TD.AperFunction*%
%TD*%
%TA.AperFunction,Conductor*%
%TO.N,/D5*%
G36*
X123505308Y-81294301D02*
G01*
X123513512Y-81297889D01*
X123516313Y-81302730D01*
X123531448Y-81354740D01*
X123531714Y-81355855D01*
X123541819Y-81409815D01*
X123541948Y-81410685D01*
X123547430Y-81460344D01*
X123547469Y-81460759D01*
X123550949Y-81507506D01*
X123555052Y-81552297D01*
X123562439Y-81596183D01*
X123575782Y-81640406D01*
X123597752Y-81686207D01*
X123631025Y-81734827D01*
X123631284Y-81735116D01*
X123631285Y-81735117D01*
X123670872Y-81779258D01*
X123673845Y-81787705D01*
X123670435Y-81795343D01*
X123578343Y-81887435D01*
X123570070Y-81890862D01*
X123562258Y-81887872D01*
X123518117Y-81848285D01*
X123518116Y-81848284D01*
X123517827Y-81848025D01*
X123469207Y-81814752D01*
X123423406Y-81792782D01*
X123379183Y-81779439D01*
X123335297Y-81772052D01*
X123309180Y-81769660D01*
X123290564Y-81767954D01*
X123290536Y-81767952D01*
X123290506Y-81767949D01*
X123265950Y-81766121D01*
X123243759Y-81764469D01*
X123243344Y-81764430D01*
X123226567Y-81762578D01*
X123193677Y-81758947D01*
X123192824Y-81758820D01*
X123138848Y-81748712D01*
X123137746Y-81748450D01*
X123085730Y-81733313D01*
X123078744Y-81727711D01*
X123077301Y-81722308D01*
X123069005Y-81297932D01*
X123072270Y-81289593D01*
X123080932Y-81286005D01*
X123505308Y-81294301D01*
G37*
%TD.AperFunction*%
%TD*%
%TA.AperFunction,Conductor*%
%TO.N,/D2*%
G36*
X112725014Y-87842691D02*
G01*
X112817309Y-87934986D01*
X112820736Y-87943259D01*
X112817847Y-87950957D01*
X112713223Y-88070717D01*
X112639652Y-88189679D01*
X112596725Y-88302493D01*
X112576841Y-88412045D01*
X112572397Y-88521223D01*
X112572403Y-88521422D01*
X112572403Y-88521431D01*
X112575791Y-88632913D01*
X112579409Y-88749638D01*
X112579410Y-88750349D01*
X112575701Y-88874757D01*
X112575598Y-88875996D01*
X112557077Y-89011168D01*
X112556769Y-89012673D01*
X112518005Y-89154106D01*
X112512513Y-89161179D01*
X112506950Y-89162711D01*
X112190586Y-89168895D01*
X111489323Y-89182604D01*
X111480984Y-89179339D01*
X111477396Y-89170677D01*
X111494368Y-88302493D01*
X111497289Y-88153050D01*
X111500877Y-88144846D01*
X111505893Y-88141996D01*
X111570456Y-88124299D01*
X111647326Y-88103230D01*
X111648831Y-88102922D01*
X111716734Y-88093618D01*
X111784010Y-88084400D01*
X111785234Y-88084299D01*
X111909660Y-88080589D01*
X111910350Y-88080590D01*
X112027086Y-88084208D01*
X112138568Y-88087596D01*
X112138577Y-88087596D01*
X112138776Y-88087602D01*
X112247954Y-88083158D01*
X112357506Y-88063274D01*
X112399748Y-88047200D01*
X112469798Y-88020546D01*
X112469801Y-88020544D01*
X112470320Y-88020347D01*
X112589282Y-87946776D01*
X112709043Y-87842153D01*
X112717529Y-87839291D01*
X112725014Y-87842691D01*
G37*
%TD.AperFunction*%
%TD*%
%TA.AperFunction,Conductor*%
%TO.N,/A5*%
G36*
X112190586Y-68311105D02*
G01*
X112506950Y-68317289D01*
X112515154Y-68320877D01*
X112518005Y-68325894D01*
X112556769Y-68467326D01*
X112557077Y-68468831D01*
X112575598Y-68604003D01*
X112575701Y-68605242D01*
X112579410Y-68729647D01*
X112579409Y-68730351D01*
X112575791Y-68847086D01*
X112572397Y-68958776D01*
X112576841Y-69067954D01*
X112596725Y-69177506D01*
X112639652Y-69290320D01*
X112639944Y-69290793D01*
X112639945Y-69290794D01*
X112669142Y-69338005D01*
X112713223Y-69409282D01*
X112719893Y-69416917D01*
X112817847Y-69529043D01*
X112820709Y-69537528D01*
X112817309Y-69545014D01*
X112725014Y-69637309D01*
X112716741Y-69640736D01*
X112709043Y-69637847D01*
X112689880Y-69621106D01*
X112589282Y-69533223D01*
X112470320Y-69459652D01*
X112469801Y-69459455D01*
X112469798Y-69459453D01*
X112399748Y-69432799D01*
X112357506Y-69416725D01*
X112247954Y-69396841D01*
X112138776Y-69392397D01*
X112138577Y-69392403D01*
X112138568Y-69392403D01*
X112027086Y-69395791D01*
X111910350Y-69399409D01*
X111909660Y-69399410D01*
X111785234Y-69395700D01*
X111784010Y-69395599D01*
X111716734Y-69386381D01*
X111648831Y-69377077D01*
X111647326Y-69376769D01*
X111576136Y-69357257D01*
X111505893Y-69338004D01*
X111498821Y-69332513D01*
X111497289Y-69326950D01*
X111494378Y-69178010D01*
X111487908Y-68847086D01*
X111477396Y-68309323D01*
X111480661Y-68300984D01*
X111489323Y-68297396D01*
X112190586Y-68311105D01*
G37*
%TD.AperFunction*%
%TD*%
%TA.AperFunction,Conductor*%
%TO.N,/A11*%
G36*
X123578342Y-73306564D02*
G01*
X123670435Y-73398657D01*
X123673862Y-73406930D01*
X123670872Y-73414742D01*
X123643241Y-73445551D01*
X123631025Y-73459172D01*
X123597752Y-73507792D01*
X123575782Y-73553593D01*
X123562439Y-73597816D01*
X123555052Y-73641702D01*
X123555031Y-73641936D01*
X123550949Y-73686493D01*
X123547469Y-73733240D01*
X123547430Y-73733655D01*
X123541948Y-73783314D01*
X123541819Y-73784184D01*
X123531714Y-73838144D01*
X123531448Y-73839259D01*
X123516313Y-73891270D01*
X123510711Y-73898256D01*
X123505308Y-73899699D01*
X123080932Y-73907995D01*
X123072593Y-73904730D01*
X123069005Y-73896068D01*
X123077301Y-73471692D01*
X123080889Y-73463488D01*
X123085730Y-73460687D01*
X123093307Y-73458482D01*
X123137747Y-73445549D01*
X123138848Y-73445287D01*
X123192824Y-73435179D01*
X123193677Y-73435052D01*
X123226567Y-73431421D01*
X123243344Y-73429569D01*
X123243759Y-73429530D01*
X123265950Y-73427878D01*
X123290506Y-73426050D01*
X123290536Y-73426047D01*
X123290564Y-73426045D01*
X123309180Y-73424339D01*
X123335297Y-73421947D01*
X123379183Y-73414560D01*
X123423406Y-73401217D01*
X123469207Y-73379247D01*
X123517827Y-73345974D01*
X123562259Y-73306126D01*
X123570704Y-73303154D01*
X123578342Y-73306564D01*
G37*
%TD.AperFunction*%
%TD*%
%TA.AperFunction,Conductor*%
%TO.N,/CE2*%
G36*
X126657592Y-62786062D02*
G01*
X127320762Y-63423800D01*
X127391231Y-63491567D01*
X127394819Y-63499771D01*
X127391231Y-63508433D01*
X126731680Y-64142692D01*
X126657593Y-64213938D01*
X126649254Y-64217203D01*
X126643691Y-64215671D01*
X126516272Y-64143074D01*
X126514990Y-64142228D01*
X126406309Y-64059739D01*
X126405360Y-64058935D01*
X126314782Y-63973604D01*
X126314279Y-63973101D01*
X126234289Y-63887993D01*
X126157849Y-63806761D01*
X126157841Y-63806753D01*
X126157712Y-63806616D01*
X126077369Y-63732558D01*
X125985843Y-63669153D01*
X125953247Y-63654526D01*
X125876229Y-63619964D01*
X125876226Y-63619963D01*
X125875718Y-63619735D01*
X125875181Y-63619608D01*
X125875177Y-63619607D01*
X125740039Y-63587748D01*
X125740037Y-63587748D01*
X125739576Y-63587639D01*
X125632900Y-63580443D01*
X125580913Y-63576936D01*
X125572889Y-63572961D01*
X125570000Y-63565263D01*
X125570000Y-63434737D01*
X125573427Y-63426464D01*
X125580912Y-63423064D01*
X125625401Y-63420062D01*
X125739576Y-63412360D01*
X125800889Y-63397905D01*
X125875177Y-63380392D01*
X125875181Y-63380391D01*
X125875718Y-63380264D01*
X125876226Y-63380036D01*
X125876229Y-63380035D01*
X125985348Y-63331068D01*
X125985843Y-63330846D01*
X126077369Y-63267441D01*
X126157712Y-63193383D01*
X126157841Y-63193246D01*
X126157849Y-63193238D01*
X126234289Y-63112006D01*
X126314279Y-63026898D01*
X126314782Y-63026395D01*
X126405360Y-62941064D01*
X126406309Y-62940260D01*
X126514990Y-62857771D01*
X126516272Y-62856925D01*
X126643691Y-62784329D01*
X126652576Y-62783211D01*
X126657592Y-62786062D01*
G37*
%TD.AperFunction*%
%TD*%
%TA.AperFunction,Conductor*%
%TO.N,/A5*%
G36*
X115265144Y-71976667D02*
G01*
X115265544Y-71977032D01*
X115314522Y-72021775D01*
X115367216Y-72060664D01*
X115381964Y-72069118D01*
X115415958Y-72088605D01*
X115415963Y-72088608D01*
X115416236Y-72088764D01*
X115416522Y-72088889D01*
X115416531Y-72088893D01*
X115462640Y-72108963D01*
X115462645Y-72108965D01*
X115462845Y-72109052D01*
X115481864Y-72115516D01*
X115508223Y-72124475D01*
X115508245Y-72124482D01*
X115508307Y-72124503D01*
X115508399Y-72124531D01*
X115508404Y-72124532D01*
X115553825Y-72138075D01*
X115553978Y-72138122D01*
X115600515Y-72152693D01*
X115601164Y-72152917D01*
X115626543Y-72162531D01*
X115649976Y-72171408D01*
X115650911Y-72171810D01*
X115677677Y-72184742D01*
X115703455Y-72197198D01*
X115704470Y-72197752D01*
X115755357Y-72228876D01*
X115760626Y-72236116D01*
X115760609Y-72241667D01*
X115713721Y-72431019D01*
X115658576Y-72653712D01*
X115653261Y-72660919D01*
X115643965Y-72662138D01*
X115236242Y-72544084D01*
X115229248Y-72538492D01*
X115227799Y-72533107D01*
X115226699Y-72483900D01*
X115226721Y-72482881D01*
X115230087Y-72431019D01*
X115230146Y-72430374D01*
X115235934Y-72382445D01*
X115235950Y-72382320D01*
X115241828Y-72337694D01*
X115241830Y-72337678D01*
X115241843Y-72337577D01*
X115245515Y-72294966D01*
X115244631Y-72253500D01*
X115236870Y-72212070D01*
X115227772Y-72189267D01*
X115220116Y-72170076D01*
X115220115Y-72170075D01*
X115219912Y-72169565D01*
X115191436Y-72124874D01*
X115172759Y-72103693D01*
X115156391Y-72085129D01*
X115153490Y-72076657D01*
X115156894Y-72069118D01*
X115248980Y-71977032D01*
X115257253Y-71973605D01*
X115265144Y-71976667D01*
G37*
%TD.AperFunction*%
%TD*%
%TA.AperFunction,Conductor*%
%TO.N,/D4*%
G36*
X126050957Y-87842153D02*
G01*
X126170717Y-87946776D01*
X126289679Y-88020347D01*
X126290198Y-88020544D01*
X126290201Y-88020546D01*
X126360251Y-88047200D01*
X126402493Y-88063274D01*
X126512045Y-88083158D01*
X126621223Y-88087602D01*
X126621422Y-88087596D01*
X126621431Y-88087596D01*
X126732913Y-88084208D01*
X126849649Y-88080590D01*
X126850339Y-88080589D01*
X126974765Y-88084299D01*
X126975989Y-88084400D01*
X127043265Y-88093618D01*
X127111168Y-88102922D01*
X127112673Y-88103230D01*
X127187882Y-88123844D01*
X127254107Y-88141995D01*
X127261179Y-88147487D01*
X127262711Y-88153050D01*
X127265632Y-88302493D01*
X127282604Y-89170677D01*
X127279339Y-89179016D01*
X127270677Y-89182604D01*
X126569414Y-89168895D01*
X126253050Y-89162711D01*
X126244846Y-89159123D01*
X126241995Y-89154106D01*
X126203230Y-89012673D01*
X126202922Y-89011168D01*
X126184401Y-88875996D01*
X126184298Y-88874757D01*
X126180589Y-88750349D01*
X126180590Y-88749638D01*
X126184208Y-88632913D01*
X126187596Y-88521431D01*
X126187596Y-88521422D01*
X126187602Y-88521223D01*
X126183158Y-88412045D01*
X126163274Y-88302493D01*
X126120347Y-88189679D01*
X126046776Y-88070717D01*
X125942153Y-87950957D01*
X125939291Y-87942472D01*
X125942691Y-87934986D01*
X126034986Y-87842691D01*
X126043259Y-87839264D01*
X126050957Y-87842153D01*
G37*
%TD.AperFunction*%
%TD*%
%TA.AperFunction,Conductor*%
%TO.N,/A6*%
G36*
X115197742Y-70766128D02*
G01*
X115241882Y-70805714D01*
X115242172Y-70805974D01*
X115290792Y-70839247D01*
X115336593Y-70861217D01*
X115380816Y-70874560D01*
X115424702Y-70881947D01*
X115450819Y-70884339D01*
X115469435Y-70886045D01*
X115469463Y-70886047D01*
X115469493Y-70886050D01*
X115494049Y-70887878D01*
X115516240Y-70889530D01*
X115516655Y-70889569D01*
X115533432Y-70891421D01*
X115566322Y-70895052D01*
X115567175Y-70895179D01*
X115621151Y-70905287D01*
X115622252Y-70905549D01*
X115669064Y-70919172D01*
X115674270Y-70920687D01*
X115681256Y-70926289D01*
X115682699Y-70931692D01*
X115690995Y-71356068D01*
X115687730Y-71364407D01*
X115679068Y-71367995D01*
X115254692Y-71359699D01*
X115246488Y-71356111D01*
X115243687Y-71351270D01*
X115228551Y-71299259D01*
X115228285Y-71298144D01*
X115218180Y-71244184D01*
X115218051Y-71243314D01*
X115212569Y-71193655D01*
X115212530Y-71193240D01*
X115209050Y-71146493D01*
X115204968Y-71101936D01*
X115204947Y-71101702D01*
X115197560Y-71057816D01*
X115184217Y-71013593D01*
X115162247Y-70967792D01*
X115128974Y-70919172D01*
X115116615Y-70905391D01*
X115089128Y-70874742D01*
X115086155Y-70866295D01*
X115089565Y-70858657D01*
X115181657Y-70766565D01*
X115189930Y-70763138D01*
X115197742Y-70766128D01*
G37*
%TD.AperFunction*%
%TD*%
%TA.AperFunction,Conductor*%
%TO.N,/D6*%
G36*
X123474185Y-79947729D02*
G01*
X123478124Y-79951643D01*
X123509247Y-80002529D01*
X123509801Y-80003544D01*
X123535187Y-80056083D01*
X123535591Y-80057023D01*
X123544468Y-80080456D01*
X123554082Y-80105835D01*
X123554306Y-80106484D01*
X123568877Y-80153021D01*
X123568924Y-80153174D01*
X123582496Y-80198692D01*
X123582517Y-80198754D01*
X123582524Y-80198776D01*
X123591483Y-80225135D01*
X123597947Y-80244154D01*
X123598034Y-80244354D01*
X123598036Y-80244359D01*
X123618106Y-80290468D01*
X123618110Y-80290477D01*
X123618235Y-80290763D01*
X123646335Y-80339783D01*
X123685224Y-80392477D01*
X123685425Y-80392697D01*
X123730333Y-80441856D01*
X123733383Y-80450275D01*
X123729968Y-80458020D01*
X123637882Y-80550106D01*
X123629609Y-80553533D01*
X123621871Y-80550609D01*
X123603755Y-80534635D01*
X123582125Y-80515563D01*
X123537434Y-80487087D01*
X123520423Y-80480300D01*
X123508617Y-80475590D01*
X123494929Y-80470129D01*
X123453499Y-80462368D01*
X123412033Y-80461484D01*
X123369422Y-80465156D01*
X123369321Y-80465169D01*
X123369305Y-80465171D01*
X123324637Y-80471054D01*
X123324512Y-80471070D01*
X123300818Y-80473931D01*
X123276622Y-80476853D01*
X123275982Y-80476912D01*
X123224111Y-80480278D01*
X123223106Y-80480300D01*
X123173893Y-80479201D01*
X123165698Y-80475590D01*
X123162916Y-80470758D01*
X123044862Y-80063035D01*
X123045852Y-80054135D01*
X123053288Y-80048424D01*
X123251139Y-79999431D01*
X123465332Y-79946391D01*
X123474185Y-79947729D01*
G37*
%TD.AperFunction*%
%TD*%
%TA.AperFunction,Conductor*%
%TO.N,/~{WE}*%
G36*
X123578342Y-68226564D02*
G01*
X123670435Y-68318657D01*
X123673862Y-68326930D01*
X123670872Y-68334742D01*
X123643241Y-68365551D01*
X123631025Y-68379172D01*
X123597752Y-68427792D01*
X123575782Y-68473593D01*
X123562439Y-68517816D01*
X123555052Y-68561702D01*
X123555031Y-68561936D01*
X123550949Y-68606493D01*
X123547469Y-68653240D01*
X123547430Y-68653655D01*
X123541948Y-68703314D01*
X123541819Y-68704184D01*
X123531714Y-68758144D01*
X123531448Y-68759259D01*
X123516313Y-68811270D01*
X123510711Y-68818256D01*
X123505308Y-68819699D01*
X123080932Y-68827995D01*
X123072593Y-68824730D01*
X123069005Y-68816068D01*
X123077301Y-68391692D01*
X123080889Y-68383488D01*
X123085730Y-68380687D01*
X123093307Y-68378482D01*
X123137747Y-68365549D01*
X123138848Y-68365287D01*
X123192824Y-68355179D01*
X123193677Y-68355052D01*
X123226567Y-68351421D01*
X123243344Y-68349569D01*
X123243759Y-68349530D01*
X123265950Y-68347878D01*
X123290506Y-68346050D01*
X123290536Y-68346047D01*
X123290564Y-68346045D01*
X123309180Y-68344339D01*
X123335297Y-68341947D01*
X123379183Y-68334560D01*
X123423406Y-68321217D01*
X123469207Y-68299247D01*
X123517827Y-68265974D01*
X123562259Y-68226126D01*
X123570704Y-68223154D01*
X123578342Y-68226564D01*
G37*
%TD.AperFunction*%
%TD*%
%TA.AperFunction,Conductor*%
%TO.N,/~{CE1}*%
G36*
X121092308Y-61736301D02*
G01*
X121100512Y-61739889D01*
X121103313Y-61744730D01*
X121118448Y-61796740D01*
X121118714Y-61797855D01*
X121128819Y-61851815D01*
X121128948Y-61852685D01*
X121134430Y-61902344D01*
X121134469Y-61902759D01*
X121137949Y-61949506D01*
X121142052Y-61994297D01*
X121149439Y-62038183D01*
X121162782Y-62082406D01*
X121184752Y-62128207D01*
X121218025Y-62176827D01*
X121218284Y-62177116D01*
X121218285Y-62177117D01*
X121257872Y-62221258D01*
X121260845Y-62229705D01*
X121257435Y-62237343D01*
X121165343Y-62329435D01*
X121157070Y-62332862D01*
X121149258Y-62329872D01*
X121105117Y-62290285D01*
X121105116Y-62290284D01*
X121104827Y-62290025D01*
X121056207Y-62256752D01*
X121010406Y-62234782D01*
X120966183Y-62221439D01*
X120922297Y-62214052D01*
X120896180Y-62211660D01*
X120877564Y-62209954D01*
X120877536Y-62209952D01*
X120877506Y-62209949D01*
X120852950Y-62208121D01*
X120830759Y-62206469D01*
X120830344Y-62206430D01*
X120813567Y-62204578D01*
X120780677Y-62200947D01*
X120779824Y-62200820D01*
X120725848Y-62190712D01*
X120724746Y-62190450D01*
X120672730Y-62175313D01*
X120665744Y-62169711D01*
X120664301Y-62164308D01*
X120656005Y-61739932D01*
X120659270Y-61731593D01*
X120667932Y-61728005D01*
X121092308Y-61736301D01*
G37*
%TD.AperFunction*%
%TD*%
%TA.AperFunction,Conductor*%
%TO.N,/~{WE}*%
G36*
X124871006Y-61544531D02*
G01*
X124918481Y-61570603D01*
X124919458Y-61571203D01*
X124964767Y-61602219D01*
X124965473Y-61602743D01*
X124984585Y-61618054D01*
X125004494Y-61634003D01*
X125004801Y-61634259D01*
X125040266Y-61664812D01*
X125040298Y-61664839D01*
X125040362Y-61664892D01*
X125074709Y-61693474D01*
X125074719Y-61693481D01*
X125074872Y-61693609D01*
X125111128Y-61719418D01*
X125151833Y-61741254D01*
X125152259Y-61741404D01*
X125152264Y-61741406D01*
X125179921Y-61751131D01*
X125199754Y-61758105D01*
X125257661Y-61768957D01*
X125258032Y-61768977D01*
X125258039Y-61768978D01*
X125298977Y-61771204D01*
X125317255Y-61772198D01*
X125325330Y-61776069D01*
X125328320Y-61783881D01*
X125328320Y-61914119D01*
X125324893Y-61922392D01*
X125317256Y-61925802D01*
X125291089Y-61927224D01*
X125258039Y-61929021D01*
X125258032Y-61929022D01*
X125257661Y-61929042D01*
X125199754Y-61939894D01*
X125179921Y-61946868D01*
X125152264Y-61956593D01*
X125152259Y-61956595D01*
X125151833Y-61956745D01*
X125111128Y-61978581D01*
X125074872Y-62004390D01*
X125074719Y-62004518D01*
X125074709Y-62004525D01*
X125050215Y-62024908D01*
X125040298Y-62033160D01*
X125040266Y-62033187D01*
X125004801Y-62063740D01*
X125004494Y-62063996D01*
X124984585Y-62079945D01*
X124965473Y-62095256D01*
X124964767Y-62095780D01*
X124919458Y-62126796D01*
X124918481Y-62127396D01*
X124871006Y-62153469D01*
X124862106Y-62154448D01*
X124857265Y-62151647D01*
X124798917Y-62095536D01*
X124551319Y-61857433D01*
X124547731Y-61849229D01*
X124551319Y-61840567D01*
X124610266Y-61783881D01*
X124857265Y-61546353D01*
X124865604Y-61543088D01*
X124871006Y-61544531D01*
G37*
%TD.AperFunction*%
%TD*%
%TA.AperFunction,Conductor*%
%TO.N,/BATT_FAKE*%
G36*
X120981989Y-89764882D02*
G01*
X121025399Y-89794598D01*
X121025400Y-89794599D01*
X121026296Y-89795212D01*
X121027763Y-89796216D01*
X121028471Y-89796741D01*
X121067494Y-89828003D01*
X121067801Y-89828259D01*
X121103266Y-89858812D01*
X121103298Y-89858839D01*
X121103362Y-89858892D01*
X121137709Y-89887474D01*
X121137719Y-89887481D01*
X121137872Y-89887609D01*
X121174128Y-89913418D01*
X121214833Y-89935254D01*
X121215259Y-89935404D01*
X121215264Y-89935406D01*
X121242921Y-89945131D01*
X121262754Y-89952105D01*
X121320661Y-89962957D01*
X121321032Y-89962977D01*
X121321039Y-89962978D01*
X121361977Y-89965204D01*
X121380255Y-89966198D01*
X121388330Y-89970069D01*
X121391320Y-89977881D01*
X121391320Y-90108119D01*
X121387893Y-90116392D01*
X121380256Y-90119802D01*
X121354089Y-90121224D01*
X121321039Y-90123021D01*
X121321032Y-90123022D01*
X121320661Y-90123042D01*
X121262754Y-90133894D01*
X121242921Y-90140868D01*
X121215264Y-90150593D01*
X121215259Y-90150595D01*
X121214833Y-90150745D01*
X121174128Y-90172581D01*
X121137872Y-90198390D01*
X121137719Y-90198518D01*
X121137709Y-90198525D01*
X121113215Y-90218908D01*
X121103298Y-90227160D01*
X121103266Y-90227187D01*
X121067801Y-90257740D01*
X121067494Y-90257996D01*
X121047585Y-90273945D01*
X121028473Y-90289256D01*
X121027767Y-90289780D01*
X120982458Y-90320796D01*
X120981481Y-90321396D01*
X120934006Y-90347469D01*
X120925106Y-90348448D01*
X120920265Y-90345647D01*
X120894423Y-90320796D01*
X120780285Y-90211034D01*
X120612136Y-90049333D01*
X120609877Y-90044168D01*
X120609769Y-90044210D01*
X120608688Y-90041450D01*
X120608548Y-90041129D01*
X120608553Y-90041104D01*
X120608271Y-90040383D01*
X120926466Y-89734390D01*
X120981989Y-89764882D01*
G37*
%TD.AperFunction*%
%TD*%
%TA.AperFunction,Conductor*%
%TO.N,/A7*%
G36*
X112190586Y-63231105D02*
G01*
X112506950Y-63237289D01*
X112515154Y-63240877D01*
X112518005Y-63245894D01*
X112556769Y-63387326D01*
X112557077Y-63388831D01*
X112575598Y-63524003D01*
X112575701Y-63525242D01*
X112579410Y-63649647D01*
X112579409Y-63650351D01*
X112575791Y-63767086D01*
X112572397Y-63878776D01*
X112576841Y-63987954D01*
X112596725Y-64097506D01*
X112639652Y-64210320D01*
X112639944Y-64210793D01*
X112639945Y-64210794D01*
X112669142Y-64258005D01*
X112713223Y-64329282D01*
X112719893Y-64336917D01*
X112817847Y-64449043D01*
X112820709Y-64457528D01*
X112817309Y-64465014D01*
X112725014Y-64557309D01*
X112716741Y-64560736D01*
X112709043Y-64557847D01*
X112689880Y-64541106D01*
X112589282Y-64453223D01*
X112470320Y-64379652D01*
X112469801Y-64379455D01*
X112469798Y-64379453D01*
X112399748Y-64352799D01*
X112357506Y-64336725D01*
X112247954Y-64316841D01*
X112138776Y-64312397D01*
X112138577Y-64312403D01*
X112138568Y-64312403D01*
X112027086Y-64315791D01*
X111910350Y-64319409D01*
X111909660Y-64319410D01*
X111785234Y-64315700D01*
X111784010Y-64315599D01*
X111716734Y-64306381D01*
X111648831Y-64297077D01*
X111647326Y-64296769D01*
X111576136Y-64277257D01*
X111505893Y-64258004D01*
X111498821Y-64252513D01*
X111497289Y-64246950D01*
X111494378Y-64098010D01*
X111487908Y-63767086D01*
X111477396Y-63229323D01*
X111480661Y-63220984D01*
X111489323Y-63217396D01*
X112190586Y-63231105D01*
G37*
%TD.AperFunction*%
%TD*%
%TA.AperFunction,Conductor*%
%TO.N,/BATT_FAKE*%
G36*
X120785433Y-87848319D02*
G01*
X121079647Y-88154265D01*
X121082912Y-88162604D01*
X121081469Y-88168007D01*
X121055396Y-88215481D01*
X121054796Y-88216458D01*
X121023780Y-88261767D01*
X121023256Y-88262473D01*
X120992007Y-88301480D01*
X120991740Y-88301801D01*
X120961187Y-88337266D01*
X120961160Y-88337298D01*
X120961107Y-88337362D01*
X120932525Y-88371709D01*
X120932518Y-88371719D01*
X120932390Y-88371872D01*
X120906581Y-88408128D01*
X120884745Y-88448833D01*
X120867894Y-88496754D01*
X120857042Y-88554661D01*
X120857022Y-88555032D01*
X120857021Y-88555039D01*
X120853802Y-88614255D01*
X120849931Y-88622330D01*
X120842119Y-88625320D01*
X120711881Y-88625320D01*
X120703608Y-88621893D01*
X120700198Y-88614255D01*
X120696978Y-88555039D01*
X120696977Y-88555032D01*
X120696957Y-88554661D01*
X120686105Y-88496754D01*
X120669254Y-88448833D01*
X120647418Y-88408128D01*
X120621609Y-88371872D01*
X120621481Y-88371719D01*
X120621474Y-88371709D01*
X120592892Y-88337362D01*
X120592839Y-88337298D01*
X120592812Y-88337266D01*
X120562259Y-88301801D01*
X120561992Y-88301480D01*
X120530743Y-88262473D01*
X120530219Y-88261767D01*
X120499203Y-88216458D01*
X120498603Y-88215481D01*
X120472531Y-88168007D01*
X120471552Y-88159106D01*
X120474353Y-88154265D01*
X120768567Y-87848319D01*
X120776771Y-87844731D01*
X120785433Y-87848319D01*
G37*
%TD.AperFunction*%
%TD*%
%TA.AperFunction,Conductor*%
%TO.N,/BATT_FAKE*%
G36*
X122426748Y-89331240D02*
G01*
X122902762Y-89789000D01*
X122973231Y-89856767D01*
X122976819Y-89864971D01*
X122973231Y-89873633D01*
X122542450Y-90287895D01*
X122426748Y-90399160D01*
X122418409Y-90402425D01*
X122412881Y-90400912D01*
X122320804Y-90348865D01*
X122319590Y-90348077D01*
X122238979Y-90288240D01*
X122238080Y-90287500D01*
X122170378Y-90225915D01*
X122169911Y-90225466D01*
X122109666Y-90164239D01*
X122051726Y-90105849D01*
X121990946Y-90052855D01*
X121921956Y-90007585D01*
X121921479Y-90007381D01*
X121921476Y-90007380D01*
X121839874Y-89972577D01*
X121839382Y-89972367D01*
X121737854Y-89949529D01*
X121737403Y-89949500D01*
X121737397Y-89949499D01*
X121622946Y-89942107D01*
X121614911Y-89938154D01*
X121612000Y-89930431D01*
X121612000Y-89799969D01*
X121615427Y-89791696D01*
X121622946Y-89788293D01*
X121737397Y-89780900D01*
X121737403Y-89780899D01*
X121737854Y-89780870D01*
X121839382Y-89758032D01*
X121869725Y-89745091D01*
X121921476Y-89723019D01*
X121921479Y-89723018D01*
X121921956Y-89722814D01*
X121990946Y-89677544D01*
X122051726Y-89624550D01*
X122109666Y-89566160D01*
X122169911Y-89504933D01*
X122170378Y-89504484D01*
X122238080Y-89442899D01*
X122238979Y-89442159D01*
X122319590Y-89382322D01*
X122320807Y-89381532D01*
X122412881Y-89329488D01*
X122421769Y-89328400D01*
X122426748Y-89331240D01*
G37*
%TD.AperFunction*%
%TD*%
%TA.AperFunction,Conductor*%
%TO.N,/~{CE_STK}*%
G36*
X121092308Y-62625301D02*
G01*
X121100512Y-62628889D01*
X121103313Y-62633730D01*
X121118448Y-62685740D01*
X121118714Y-62686855D01*
X121128819Y-62740815D01*
X121128948Y-62741685D01*
X121134430Y-62791344D01*
X121134469Y-62791759D01*
X121137949Y-62838506D01*
X121142052Y-62883297D01*
X121149439Y-62927183D01*
X121162782Y-62971406D01*
X121184752Y-63017207D01*
X121218025Y-63065827D01*
X121218284Y-63066116D01*
X121218285Y-63066117D01*
X121257872Y-63110258D01*
X121260845Y-63118705D01*
X121257435Y-63126343D01*
X121165343Y-63218435D01*
X121157070Y-63221862D01*
X121149258Y-63218872D01*
X121105117Y-63179285D01*
X121105116Y-63179284D01*
X121104827Y-63179025D01*
X121056207Y-63145752D01*
X121010406Y-63123782D01*
X120966183Y-63110439D01*
X120922297Y-63103052D01*
X120896180Y-63100660D01*
X120877564Y-63098954D01*
X120877536Y-63098952D01*
X120877506Y-63098949D01*
X120852950Y-63097121D01*
X120830759Y-63095469D01*
X120830344Y-63095430D01*
X120813567Y-63093578D01*
X120780677Y-63089947D01*
X120779824Y-63089820D01*
X120725848Y-63079712D01*
X120724746Y-63079450D01*
X120672730Y-63064313D01*
X120665744Y-63058711D01*
X120664301Y-63053308D01*
X120656005Y-62628932D01*
X120659270Y-62620593D01*
X120667932Y-62617005D01*
X121092308Y-62625301D01*
G37*
%TD.AperFunction*%
%TD*%
%TA.AperFunction,Conductor*%
%TO.N,/A6*%
G36*
X112190586Y-65771105D02*
G01*
X112506950Y-65777289D01*
X112515154Y-65780877D01*
X112518005Y-65785894D01*
X112556769Y-65927326D01*
X112557077Y-65928831D01*
X112575598Y-66064003D01*
X112575701Y-66065242D01*
X112579410Y-66189647D01*
X112579409Y-66190351D01*
X112575791Y-66307086D01*
X112572397Y-66418776D01*
X112576841Y-66527954D01*
X112596725Y-66637506D01*
X112639652Y-66750320D01*
X112639944Y-66750793D01*
X112639945Y-66750794D01*
X112669142Y-66798005D01*
X112713223Y-66869282D01*
X112719893Y-66876917D01*
X112817847Y-66989043D01*
X112820709Y-66997528D01*
X112817309Y-67005014D01*
X112725014Y-67097309D01*
X112716741Y-67100736D01*
X112709043Y-67097847D01*
X112689880Y-67081106D01*
X112589282Y-66993223D01*
X112470320Y-66919652D01*
X112469801Y-66919455D01*
X112469798Y-66919453D01*
X112399748Y-66892799D01*
X112357506Y-66876725D01*
X112247954Y-66856841D01*
X112138776Y-66852397D01*
X112138577Y-66852403D01*
X112138568Y-66852403D01*
X112027086Y-66855791D01*
X111910350Y-66859409D01*
X111909660Y-66859410D01*
X111785234Y-66855700D01*
X111784010Y-66855599D01*
X111716734Y-66846381D01*
X111648831Y-66837077D01*
X111647326Y-66836769D01*
X111576136Y-66817257D01*
X111505893Y-66798004D01*
X111498821Y-66792513D01*
X111497289Y-66786950D01*
X111494378Y-66638010D01*
X111487908Y-66307086D01*
X111477396Y-65769323D01*
X111480661Y-65760984D01*
X111489323Y-65757396D01*
X112190586Y-65771105D01*
G37*
%TD.AperFunction*%
%TD*%
%TA.AperFunction,Conductor*%
%TO.N,/D1*%
G36*
X112725014Y-85302691D02*
G01*
X112817309Y-85394986D01*
X112820736Y-85403259D01*
X112817847Y-85410957D01*
X112713223Y-85530717D01*
X112639652Y-85649679D01*
X112596725Y-85762493D01*
X112576841Y-85872045D01*
X112572397Y-85981223D01*
X112572403Y-85981422D01*
X112572403Y-85981431D01*
X112575791Y-86092913D01*
X112579409Y-86209638D01*
X112579410Y-86210349D01*
X112575701Y-86334757D01*
X112575598Y-86335996D01*
X112557077Y-86471168D01*
X112556769Y-86472673D01*
X112518005Y-86614106D01*
X112512513Y-86621179D01*
X112506950Y-86622711D01*
X112190586Y-86628895D01*
X111489323Y-86642604D01*
X111480984Y-86639339D01*
X111477396Y-86630677D01*
X111494368Y-85762493D01*
X111497289Y-85613050D01*
X111500877Y-85604846D01*
X111505893Y-85601996D01*
X111570456Y-85584299D01*
X111647326Y-85563230D01*
X111648831Y-85562922D01*
X111716734Y-85553618D01*
X111784010Y-85544400D01*
X111785234Y-85544299D01*
X111909660Y-85540589D01*
X111910350Y-85540590D01*
X112027086Y-85544208D01*
X112138568Y-85547596D01*
X112138577Y-85547596D01*
X112138776Y-85547602D01*
X112247954Y-85543158D01*
X112357506Y-85523274D01*
X112399748Y-85507200D01*
X112469798Y-85480546D01*
X112469801Y-85480544D01*
X112470320Y-85480347D01*
X112589282Y-85406776D01*
X112709043Y-85302153D01*
X112717529Y-85299291D01*
X112725014Y-85302691D01*
G37*
%TD.AperFunction*%
%TD*%
%TA.AperFunction,Conductor*%
%TO.N,/~{CE1}*%
G36*
X126050957Y-77682153D02*
G01*
X126170717Y-77786776D01*
X126289679Y-77860347D01*
X126290198Y-77860544D01*
X126290201Y-77860546D01*
X126360251Y-77887200D01*
X126402493Y-77903274D01*
X126512045Y-77923158D01*
X126621223Y-77927602D01*
X126621422Y-77927596D01*
X126621431Y-77927596D01*
X126732913Y-77924208D01*
X126849649Y-77920590D01*
X126850339Y-77920589D01*
X126974765Y-77924299D01*
X126975989Y-77924400D01*
X127043265Y-77933618D01*
X127111168Y-77942922D01*
X127112673Y-77943230D01*
X127187882Y-77963844D01*
X127254107Y-77981995D01*
X127261179Y-77987487D01*
X127262711Y-77993050D01*
X127265632Y-78142493D01*
X127282604Y-79010677D01*
X127279339Y-79019016D01*
X127270677Y-79022604D01*
X126569414Y-79008895D01*
X126253050Y-79002711D01*
X126244846Y-78999123D01*
X126241995Y-78994106D01*
X126203230Y-78852673D01*
X126202922Y-78851168D01*
X126184401Y-78715996D01*
X126184298Y-78714757D01*
X126180589Y-78590349D01*
X126180590Y-78589638D01*
X126184208Y-78472913D01*
X126187596Y-78361431D01*
X126187596Y-78361422D01*
X126187602Y-78361223D01*
X126183158Y-78252045D01*
X126163274Y-78142493D01*
X126120347Y-78029679D01*
X126046776Y-77910717D01*
X125942153Y-77790957D01*
X125939291Y-77782472D01*
X125942691Y-77774986D01*
X126034986Y-77682691D01*
X126043259Y-77679264D01*
X126050957Y-77682153D01*
G37*
%TD.AperFunction*%
%TD*%
%TA.AperFunction,Conductor*%
%TO.N,/A4*%
G36*
X112332068Y-70560482D02*
G01*
X112381645Y-70608376D01*
X112424213Y-70649499D01*
X112510978Y-70727191D01*
X112589248Y-70792089D01*
X112589306Y-70792134D01*
X112662293Y-70848896D01*
X112733379Y-70902313D01*
X112733372Y-70902322D01*
X112733405Y-70902333D01*
X112788397Y-70943903D01*
X112805671Y-70956961D01*
X112805863Y-70957109D01*
X112882603Y-71017661D01*
X112882894Y-71017898D01*
X112967418Y-71089098D01*
X112967733Y-71089373D01*
X113063380Y-71175973D01*
X113063657Y-71176233D01*
X113165226Y-71274724D01*
X113165320Y-71274815D01*
X113168874Y-71283034D01*
X113165448Y-71291487D01*
X113073440Y-71383495D01*
X113065167Y-71386922D01*
X113057921Y-71384408D01*
X112959854Y-71307036D01*
X112863582Y-71274309D01*
X112862304Y-71274451D01*
X112862302Y-71274451D01*
X112775484Y-71284118D01*
X112775482Y-71284119D01*
X112774410Y-71284238D01*
X112773452Y-71284736D01*
X112690039Y-71328099D01*
X112690037Y-71328100D01*
X112689476Y-71328392D01*
X112605921Y-71398342D01*
X112520884Y-71485659D01*
X112461402Y-71549716D01*
X112431644Y-71581763D01*
X112431351Y-71582067D01*
X112335303Y-71678293D01*
X112334511Y-71679017D01*
X112228952Y-71766952D01*
X112227528Y-71767968D01*
X112116402Y-71835337D01*
X112107551Y-71836696D01*
X112102227Y-71833765D01*
X112033807Y-71767968D01*
X111371142Y-71130715D01*
X111367554Y-71122511D01*
X111370819Y-71114172D01*
X111373338Y-71112187D01*
X112318025Y-70558802D01*
X112326896Y-70557577D01*
X112332068Y-70560482D01*
G37*
%TD.AperFunction*%
%TD*%
%TA.AperFunction,Conductor*%
%TO.N,+5V*%
G36*
X126475591Y-57826419D02*
G01*
X126692984Y-57966011D01*
X127384668Y-58410155D01*
X127389778Y-58417509D01*
X127388191Y-58426322D01*
X127384668Y-58429845D01*
X126475592Y-59013580D01*
X126466779Y-59015167D01*
X126462108Y-59012987D01*
X126437355Y-58993827D01*
X126437353Y-58993826D01*
X126437077Y-58993612D01*
X126436780Y-58993435D01*
X126436775Y-58993431D01*
X126399544Y-58971172D01*
X126399290Y-58971020D01*
X126399027Y-58970897D01*
X126399023Y-58970895D01*
X126375304Y-58959816D01*
X126355230Y-58950440D01*
X126355004Y-58950357D01*
X126354998Y-58950355D01*
X126305048Y-58932117D01*
X126305047Y-58932117D01*
X126304848Y-58932044D01*
X126248093Y-58916004D01*
X126184916Y-58902495D01*
X126184545Y-58902437D01*
X126115400Y-58891707D01*
X126115382Y-58891705D01*
X126115268Y-58891687D01*
X126115145Y-58891674D01*
X126115128Y-58891672D01*
X126049213Y-58884807D01*
X126039099Y-58883753D01*
X125956359Y-58878867D01*
X125956240Y-58878865D01*
X125956221Y-58878864D01*
X125878482Y-58877414D01*
X125870274Y-58873833D01*
X125867000Y-58865716D01*
X125867000Y-57974284D01*
X125870427Y-57966011D01*
X125878482Y-57962586D01*
X125956221Y-57961135D01*
X125956240Y-57961134D01*
X125956359Y-57961132D01*
X126039099Y-57956246D01*
X126049213Y-57955192D01*
X126115128Y-57948327D01*
X126115145Y-57948325D01*
X126115268Y-57948312D01*
X126115382Y-57948294D01*
X126115400Y-57948292D01*
X126184742Y-57937531D01*
X126184916Y-57937504D01*
X126248093Y-57923995D01*
X126304848Y-57907955D01*
X126305048Y-57907882D01*
X126354998Y-57889644D01*
X126355004Y-57889642D01*
X126355230Y-57889559D01*
X126375304Y-57880183D01*
X126399023Y-57869104D01*
X126399027Y-57869102D01*
X126399290Y-57868979D01*
X126437077Y-57846387D01*
X126462109Y-57827012D01*
X126470749Y-57824658D01*
X126475591Y-57826419D01*
G37*
%TD.AperFunction*%
%TD*%
%TA.AperFunction,Conductor*%
%TO.N,Net-(R5-Pad2)*%
G36*
X125591147Y-66431899D02*
G01*
X125596553Y-66439037D01*
X125596931Y-66442223D01*
X125588702Y-66863148D01*
X125585114Y-66871352D01*
X125580075Y-66874208D01*
X125541272Y-66884760D01*
X125540068Y-66885020D01*
X125519418Y-66888341D01*
X125492852Y-66892613D01*
X125492182Y-66892701D01*
X125471944Y-66894767D01*
X125445326Y-66897484D01*
X125419788Y-66899888D01*
X125400486Y-66901704D01*
X125400474Y-66901705D01*
X125400351Y-66901717D01*
X125400225Y-66901735D01*
X125400210Y-66901737D01*
X125359209Y-66907658D01*
X125358849Y-66907710D01*
X125322076Y-66917804D01*
X125291289Y-66934344D01*
X125290634Y-66935048D01*
X125290632Y-66935050D01*
X125272000Y-66955093D01*
X125267743Y-66959673D01*
X125252695Y-66996132D01*
X125252607Y-66996960D01*
X125252607Y-66996961D01*
X125248510Y-67035601D01*
X125244230Y-67043466D01*
X125236875Y-67046067D01*
X125106883Y-67046067D01*
X125098610Y-67042640D01*
X125095184Y-67034186D01*
X125096063Y-66977481D01*
X125096077Y-66977079D01*
X125096897Y-66960643D01*
X125098952Y-66919449D01*
X125098979Y-66919052D01*
X125099060Y-66918114D01*
X125101246Y-66892613D01*
X125103214Y-66869654D01*
X125103252Y-66869283D01*
X125108396Y-66825659D01*
X125108427Y-66825417D01*
X125114045Y-66785029D01*
X125114050Y-66784991D01*
X125119676Y-66745495D01*
X125119688Y-66745412D01*
X125124870Y-66704360D01*
X125129137Y-66659399D01*
X125132033Y-66608091D01*
X125132943Y-66556870D01*
X125136516Y-66548659D01*
X125141684Y-66545758D01*
X125582276Y-66430674D01*
X125591147Y-66431899D01*
G37*
%TD.AperFunction*%
%TD*%
%TA.AperFunction,Conductor*%
%TO.N,/A4*%
G36*
X115197742Y-73306128D02*
G01*
X115241882Y-73345714D01*
X115242172Y-73345974D01*
X115290792Y-73379247D01*
X115336593Y-73401217D01*
X115380816Y-73414560D01*
X115424702Y-73421947D01*
X115450819Y-73424339D01*
X115469435Y-73426045D01*
X115469463Y-73426047D01*
X115469493Y-73426050D01*
X115494049Y-73427878D01*
X115516240Y-73429530D01*
X115516655Y-73429569D01*
X115533432Y-73431421D01*
X115566322Y-73435052D01*
X115567175Y-73435179D01*
X115621151Y-73445287D01*
X115622252Y-73445549D01*
X115669064Y-73459172D01*
X115674270Y-73460687D01*
X115681256Y-73466289D01*
X115682699Y-73471692D01*
X115690995Y-73896068D01*
X115687730Y-73904407D01*
X115679068Y-73907995D01*
X115254692Y-73899699D01*
X115246488Y-73896111D01*
X115243687Y-73891270D01*
X115228551Y-73839259D01*
X115228285Y-73838144D01*
X115218180Y-73784184D01*
X115218051Y-73783314D01*
X115212569Y-73733655D01*
X115212530Y-73733240D01*
X115209050Y-73686493D01*
X115204968Y-73641936D01*
X115204947Y-73641702D01*
X115197560Y-73597816D01*
X115184217Y-73553593D01*
X115162247Y-73507792D01*
X115128974Y-73459172D01*
X115116615Y-73445391D01*
X115089128Y-73414742D01*
X115086155Y-73406295D01*
X115089565Y-73398657D01*
X115181657Y-73306565D01*
X115189930Y-73303138D01*
X115197742Y-73306128D01*
G37*
%TD.AperFunction*%
%TD*%
%TA.AperFunction,Conductor*%
%TO.N,/D0*%
G36*
X112725014Y-82762691D02*
G01*
X112817309Y-82854986D01*
X112820736Y-82863259D01*
X112817847Y-82870957D01*
X112713223Y-82990717D01*
X112639652Y-83109679D01*
X112596725Y-83222493D01*
X112576841Y-83332045D01*
X112572397Y-83441223D01*
X112572403Y-83441422D01*
X112572403Y-83441431D01*
X112575791Y-83552913D01*
X112579409Y-83669638D01*
X112579410Y-83670349D01*
X112575701Y-83794757D01*
X112575598Y-83795996D01*
X112557077Y-83931168D01*
X112556769Y-83932673D01*
X112518005Y-84074106D01*
X112512513Y-84081179D01*
X112506950Y-84082711D01*
X112190586Y-84088895D01*
X111489323Y-84102604D01*
X111480984Y-84099339D01*
X111477396Y-84090677D01*
X111494368Y-83222493D01*
X111497289Y-83073050D01*
X111500877Y-83064846D01*
X111505893Y-83061996D01*
X111570456Y-83044299D01*
X111647326Y-83023230D01*
X111648831Y-83022922D01*
X111716734Y-83013618D01*
X111784010Y-83004400D01*
X111785234Y-83004299D01*
X111909660Y-83000589D01*
X111910350Y-83000590D01*
X112027086Y-83004208D01*
X112138568Y-83007596D01*
X112138577Y-83007596D01*
X112138776Y-83007602D01*
X112247954Y-83003158D01*
X112357506Y-82983274D01*
X112399748Y-82967200D01*
X112469798Y-82940546D01*
X112469801Y-82940544D01*
X112470320Y-82940347D01*
X112589282Y-82866776D01*
X112709043Y-82762153D01*
X112717529Y-82759291D01*
X112725014Y-82762691D01*
G37*
%TD.AperFunction*%
%TD*%
%TA.AperFunction,Conductor*%
%TO.N,/A9*%
G36*
X123511020Y-71977032D02*
G01*
X123603106Y-72069118D01*
X123606533Y-72077391D01*
X123603609Y-72085129D01*
X123568563Y-72124874D01*
X123540087Y-72169565D01*
X123539884Y-72170075D01*
X123539883Y-72170076D01*
X123532227Y-72189267D01*
X123523129Y-72212070D01*
X123515368Y-72253500D01*
X123514484Y-72294966D01*
X123518156Y-72337577D01*
X123518169Y-72337678D01*
X123518171Y-72337694D01*
X123524049Y-72382320D01*
X123524065Y-72382445D01*
X123529853Y-72430374D01*
X123529912Y-72431019D01*
X123533278Y-72482881D01*
X123533300Y-72483900D01*
X123532201Y-72533107D01*
X123528590Y-72541302D01*
X123523758Y-72544084D01*
X123116035Y-72662138D01*
X123107135Y-72661148D01*
X123101424Y-72653712D01*
X122999391Y-72241668D01*
X123000729Y-72232814D01*
X123004641Y-72228877D01*
X123055529Y-72197752D01*
X123056544Y-72197198D01*
X123082322Y-72184742D01*
X123109088Y-72171810D01*
X123110023Y-72171408D01*
X123133456Y-72162531D01*
X123158835Y-72152917D01*
X123159484Y-72152693D01*
X123206021Y-72138122D01*
X123206174Y-72138075D01*
X123251595Y-72124532D01*
X123251600Y-72124531D01*
X123251692Y-72124503D01*
X123251754Y-72124482D01*
X123251776Y-72124475D01*
X123278135Y-72115516D01*
X123297154Y-72109052D01*
X123297354Y-72108965D01*
X123297359Y-72108963D01*
X123343468Y-72088893D01*
X123343477Y-72088889D01*
X123343763Y-72088764D01*
X123344036Y-72088608D01*
X123344041Y-72088605D01*
X123378035Y-72069118D01*
X123392783Y-72060664D01*
X123445477Y-72021775D01*
X123446949Y-72020430D01*
X123494856Y-71976667D01*
X123503275Y-71973617D01*
X123511020Y-71977032D01*
G37*
%TD.AperFunction*%
%TD*%
%TA.AperFunction,Conductor*%
%TO.N,/~{CE_STK}*%
G36*
X122817742Y-77116128D02*
G01*
X122861882Y-77155714D01*
X122862172Y-77155974D01*
X122910792Y-77189247D01*
X122956593Y-77211217D01*
X123000816Y-77224560D01*
X123044702Y-77231947D01*
X123070819Y-77234339D01*
X123089435Y-77236045D01*
X123089463Y-77236047D01*
X123089493Y-77236050D01*
X123114049Y-77237878D01*
X123136240Y-77239530D01*
X123136655Y-77239569D01*
X123153432Y-77241421D01*
X123186322Y-77245052D01*
X123187175Y-77245179D01*
X123241151Y-77255287D01*
X123242252Y-77255549D01*
X123289064Y-77269172D01*
X123294270Y-77270687D01*
X123301256Y-77276289D01*
X123302699Y-77281692D01*
X123310995Y-77706068D01*
X123307730Y-77714407D01*
X123299068Y-77717995D01*
X122874692Y-77709699D01*
X122866488Y-77706111D01*
X122863687Y-77701270D01*
X122848551Y-77649259D01*
X122848285Y-77648144D01*
X122838180Y-77594184D01*
X122838051Y-77593314D01*
X122832569Y-77543655D01*
X122832530Y-77543240D01*
X122829050Y-77496493D01*
X122824968Y-77451936D01*
X122824947Y-77451702D01*
X122817560Y-77407816D01*
X122804217Y-77363593D01*
X122782247Y-77317792D01*
X122748974Y-77269172D01*
X122736615Y-77255391D01*
X122709128Y-77224742D01*
X122706155Y-77216295D01*
X122709565Y-77208657D01*
X122801657Y-77116565D01*
X122809930Y-77113138D01*
X122817742Y-77116128D01*
G37*
%TD.AperFunction*%
%TD*%
%TA.AperFunction,Conductor*%
%TO.N,Net-(R5-Pad2)*%
G36*
X123578342Y-69496564D02*
G01*
X123670435Y-69588657D01*
X123673862Y-69596930D01*
X123670872Y-69604742D01*
X123643241Y-69635551D01*
X123631025Y-69649172D01*
X123597752Y-69697792D01*
X123575782Y-69743593D01*
X123562439Y-69787816D01*
X123555052Y-69831702D01*
X123555031Y-69831936D01*
X123550949Y-69876493D01*
X123547469Y-69923240D01*
X123547430Y-69923655D01*
X123541948Y-69973314D01*
X123541819Y-69974184D01*
X123531714Y-70028144D01*
X123531448Y-70029259D01*
X123516313Y-70081270D01*
X123510711Y-70088256D01*
X123505308Y-70089699D01*
X123080932Y-70097995D01*
X123072593Y-70094730D01*
X123069005Y-70086068D01*
X123077301Y-69661692D01*
X123080889Y-69653488D01*
X123085730Y-69650687D01*
X123093307Y-69648482D01*
X123137747Y-69635549D01*
X123138848Y-69635287D01*
X123192824Y-69625179D01*
X123193677Y-69625052D01*
X123226567Y-69621421D01*
X123243344Y-69619569D01*
X123243759Y-69619530D01*
X123265950Y-69617878D01*
X123290506Y-69616050D01*
X123290536Y-69616047D01*
X123290564Y-69616045D01*
X123309180Y-69614339D01*
X123335297Y-69611947D01*
X123379183Y-69604560D01*
X123423406Y-69591217D01*
X123469207Y-69569247D01*
X123517827Y-69535974D01*
X123562259Y-69496126D01*
X123570704Y-69493154D01*
X123578342Y-69496564D01*
G37*
%TD.AperFunction*%
%TD*%
%TA.AperFunction,Conductor*%
%TO.N,/D0*%
G36*
X115294667Y-79946391D02*
G01*
X115315877Y-79951643D01*
X115706712Y-80048424D01*
X115713919Y-80053739D01*
X115715138Y-80063035D01*
X115597084Y-80470758D01*
X115591492Y-80477752D01*
X115586108Y-80479201D01*
X115536893Y-80480300D01*
X115535888Y-80480278D01*
X115484017Y-80476912D01*
X115483377Y-80476853D01*
X115459181Y-80473931D01*
X115435487Y-80471070D01*
X115435362Y-80471054D01*
X115390694Y-80465171D01*
X115390678Y-80465169D01*
X115390577Y-80465156D01*
X115347966Y-80461484D01*
X115306500Y-80462368D01*
X115265070Y-80470129D01*
X115248216Y-80476853D01*
X115239577Y-80480300D01*
X115222565Y-80487087D01*
X115177874Y-80515563D01*
X115152113Y-80538279D01*
X115138129Y-80550609D01*
X115129657Y-80553510D01*
X115122118Y-80550106D01*
X115030032Y-80458020D01*
X115026605Y-80449747D01*
X115029667Y-80441856D01*
X115074574Y-80392697D01*
X115074775Y-80392477D01*
X115113664Y-80339783D01*
X115141764Y-80290763D01*
X115141889Y-80290477D01*
X115141893Y-80290468D01*
X115161963Y-80244359D01*
X115161965Y-80244354D01*
X115162052Y-80244154D01*
X115168516Y-80225135D01*
X115177475Y-80198776D01*
X115177482Y-80198754D01*
X115177503Y-80198692D01*
X115191075Y-80153174D01*
X115191122Y-80153021D01*
X115205693Y-80106484D01*
X115205917Y-80105835D01*
X115215531Y-80080456D01*
X115224408Y-80057023D01*
X115224812Y-80056083D01*
X115250198Y-80003544D01*
X115250752Y-80002529D01*
X115258765Y-79989428D01*
X115281876Y-79951642D01*
X115289115Y-79946374D01*
X115294667Y-79946391D01*
G37*
%TD.AperFunction*%
%TD*%
%TA.AperFunction,Conductor*%
%TO.N,/A12*%
G36*
X115643392Y-68096107D02*
G01*
X115646802Y-68103744D01*
X115650042Y-68163338D01*
X115660894Y-68221245D01*
X115677745Y-68269166D01*
X115699581Y-68309871D01*
X115725390Y-68346127D01*
X115725518Y-68346280D01*
X115725525Y-68346290D01*
X115745908Y-68370784D01*
X115754160Y-68380701D01*
X115754187Y-68380733D01*
X115784740Y-68416198D01*
X115785007Y-68416519D01*
X115816256Y-68455526D01*
X115816780Y-68456232D01*
X115847796Y-68501541D01*
X115848396Y-68502518D01*
X115874469Y-68549993D01*
X115875448Y-68558894D01*
X115872647Y-68563735D01*
X115578433Y-68869681D01*
X115570229Y-68873269D01*
X115561567Y-68869681D01*
X115267353Y-68563735D01*
X115264088Y-68555396D01*
X115265531Y-68549993D01*
X115291603Y-68502518D01*
X115292203Y-68501541D01*
X115323219Y-68456232D01*
X115323743Y-68455526D01*
X115354992Y-68416519D01*
X115355259Y-68416198D01*
X115385812Y-68380733D01*
X115385839Y-68380701D01*
X115394091Y-68370784D01*
X115414474Y-68346290D01*
X115414481Y-68346280D01*
X115414609Y-68346127D01*
X115440418Y-68309871D01*
X115462254Y-68269166D01*
X115479105Y-68221245D01*
X115489957Y-68163338D01*
X115493198Y-68103745D01*
X115497069Y-68095670D01*
X115504881Y-68092680D01*
X115635119Y-68092680D01*
X115643392Y-68096107D01*
G37*
%TD.AperFunction*%
%TD*%
%TA.AperFunction,Conductor*%
%TO.N,/~{WE}*%
G36*
X127275725Y-60680725D02*
G01*
X127279313Y-60688929D01*
X127278935Y-60692115D01*
X127240043Y-60841012D01*
X127002202Y-61751569D01*
X126996797Y-61758706D01*
X126991292Y-61760304D01*
X126867435Y-61764625D01*
X126867226Y-61764648D01*
X126867218Y-61764649D01*
X126820885Y-61769841D01*
X126755392Y-61777180D01*
X126658290Y-61795683D01*
X126658093Y-61795733D01*
X126658095Y-61795733D01*
X126570674Y-61818118D01*
X126570659Y-61818122D01*
X126570550Y-61818150D01*
X126570447Y-61818180D01*
X126570425Y-61818186D01*
X126525447Y-61831285D01*
X126486653Y-61842582D01*
X126486584Y-61842574D01*
X126486591Y-61842600D01*
X126401038Y-61866991D01*
X126400625Y-61867099D01*
X126346813Y-61880081D01*
X126308059Y-61889429D01*
X126307325Y-61889581D01*
X126202025Y-61907946D01*
X126201188Y-61908061D01*
X126129165Y-61915317D01*
X126077372Y-61920535D01*
X126076579Y-61920586D01*
X125940300Y-61924825D01*
X125931924Y-61921657D01*
X125928236Y-61913131D01*
X125928236Y-61783141D01*
X125931663Y-61774868D01*
X125938498Y-61771530D01*
X126068849Y-61755403D01*
X126069804Y-61754891D01*
X126069806Y-61754890D01*
X126159356Y-61706836D01*
X126159357Y-61706835D01*
X126160602Y-61706167D01*
X126212732Y-61629520D01*
X126234479Y-61529889D01*
X126235081Y-61411704D01*
X126223780Y-61279393D01*
X126209839Y-61137655D01*
X126209798Y-61137097D01*
X126202449Y-60990734D01*
X126202453Y-60989483D01*
X126210779Y-60842988D01*
X126211062Y-60841012D01*
X126242251Y-60706340D01*
X126247456Y-60699054D01*
X126253420Y-60697282D01*
X126765010Y-60687281D01*
X127267386Y-60677460D01*
X127275725Y-60680725D01*
G37*
%TD.AperFunction*%
%TD*%
%TA.AperFunction,Conductor*%
%TO.N,/D6*%
G36*
X126050957Y-82762153D02*
G01*
X126170717Y-82866776D01*
X126289679Y-82940347D01*
X126290198Y-82940544D01*
X126290201Y-82940546D01*
X126360251Y-82967200D01*
X126402493Y-82983274D01*
X126512045Y-83003158D01*
X126621223Y-83007602D01*
X126621422Y-83007596D01*
X126621431Y-83007596D01*
X126732913Y-83004208D01*
X126849649Y-83000590D01*
X126850339Y-83000589D01*
X126974765Y-83004299D01*
X126975989Y-83004400D01*
X127043265Y-83013618D01*
X127111168Y-83022922D01*
X127112673Y-83023230D01*
X127187882Y-83043844D01*
X127254107Y-83061995D01*
X127261179Y-83067487D01*
X127262711Y-83073050D01*
X127265632Y-83222493D01*
X127282604Y-84090677D01*
X127279339Y-84099016D01*
X127270677Y-84102604D01*
X126569414Y-84088895D01*
X126253050Y-84082711D01*
X126244846Y-84079123D01*
X126241995Y-84074106D01*
X126203230Y-83932673D01*
X126202922Y-83931168D01*
X126184401Y-83795996D01*
X126184298Y-83794757D01*
X126180589Y-83670349D01*
X126180590Y-83669638D01*
X126184208Y-83552913D01*
X126187596Y-83441431D01*
X126187596Y-83441422D01*
X126187602Y-83441223D01*
X126183158Y-83332045D01*
X126163274Y-83222493D01*
X126120347Y-83109679D01*
X126046776Y-82990717D01*
X125942153Y-82870957D01*
X125939291Y-82862472D01*
X125942691Y-82854986D01*
X126034986Y-82762691D01*
X126043259Y-82759264D01*
X126050957Y-82762153D01*
G37*
%TD.AperFunction*%
%TD*%
%TA.AperFunction,Conductor*%
%TO.N,/A8*%
G36*
X123578342Y-70766564D02*
G01*
X123670435Y-70858657D01*
X123673862Y-70866930D01*
X123670872Y-70874742D01*
X123643241Y-70905551D01*
X123631025Y-70919172D01*
X123597752Y-70967792D01*
X123575782Y-71013593D01*
X123562439Y-71057816D01*
X123555052Y-71101702D01*
X123555031Y-71101936D01*
X123550949Y-71146493D01*
X123547469Y-71193240D01*
X123547430Y-71193655D01*
X123541948Y-71243314D01*
X123541819Y-71244184D01*
X123531714Y-71298144D01*
X123531448Y-71299259D01*
X123516313Y-71351270D01*
X123510711Y-71358256D01*
X123505308Y-71359699D01*
X123080932Y-71367995D01*
X123072593Y-71364730D01*
X123069005Y-71356068D01*
X123077301Y-70931692D01*
X123080889Y-70923488D01*
X123085730Y-70920687D01*
X123093307Y-70918482D01*
X123137747Y-70905549D01*
X123138848Y-70905287D01*
X123192824Y-70895179D01*
X123193677Y-70895052D01*
X123226567Y-70891421D01*
X123243344Y-70889569D01*
X123243759Y-70889530D01*
X123265950Y-70887878D01*
X123290506Y-70886050D01*
X123290536Y-70886047D01*
X123290564Y-70886045D01*
X123309180Y-70884339D01*
X123335297Y-70881947D01*
X123379183Y-70874560D01*
X123423406Y-70861217D01*
X123469207Y-70839247D01*
X123517827Y-70805974D01*
X123562259Y-70766126D01*
X123570704Y-70763154D01*
X123578342Y-70766564D01*
G37*
%TD.AperFunction*%
%TD*%
%TA.AperFunction,Conductor*%
%TO.N,/A12*%
G36*
X112190586Y-60691105D02*
G01*
X112506950Y-60697289D01*
X112515154Y-60700877D01*
X112518005Y-60705894D01*
X112556769Y-60847326D01*
X112557077Y-60848831D01*
X112575598Y-60984003D01*
X112575701Y-60985242D01*
X112579410Y-61109647D01*
X112579409Y-61110351D01*
X112575791Y-61227086D01*
X112572397Y-61338776D01*
X112576841Y-61447954D01*
X112596725Y-61557506D01*
X112639652Y-61670320D01*
X112639944Y-61670793D01*
X112639945Y-61670794D01*
X112669142Y-61718005D01*
X112713223Y-61789282D01*
X112719893Y-61796917D01*
X112817847Y-61909043D01*
X112820709Y-61917528D01*
X112817309Y-61925014D01*
X112725014Y-62017309D01*
X112716741Y-62020736D01*
X112709043Y-62017847D01*
X112689880Y-62001106D01*
X112589282Y-61913223D01*
X112470320Y-61839652D01*
X112469801Y-61839455D01*
X112469798Y-61839453D01*
X112399748Y-61812799D01*
X112357506Y-61796725D01*
X112247954Y-61776841D01*
X112138776Y-61772397D01*
X112138577Y-61772403D01*
X112138568Y-61772403D01*
X112027086Y-61775791D01*
X111910350Y-61779409D01*
X111909660Y-61779410D01*
X111785234Y-61775700D01*
X111784010Y-61775599D01*
X111716734Y-61766381D01*
X111648831Y-61757077D01*
X111647326Y-61756769D01*
X111576136Y-61737257D01*
X111505893Y-61718004D01*
X111498821Y-61712513D01*
X111497289Y-61706950D01*
X111494378Y-61558010D01*
X111487908Y-61227086D01*
X111477396Y-60689323D01*
X111480661Y-60680984D01*
X111489323Y-60677396D01*
X112190586Y-60691105D01*
G37*
%TD.AperFunction*%
%TD*%
%TA.AperFunction,Conductor*%
%TO.N,/BATT_FAKE*%
G36*
X120850392Y-89432107D02*
G01*
X120853802Y-89439744D01*
X120857042Y-89499338D01*
X120867894Y-89557245D01*
X120884745Y-89605166D01*
X120906581Y-89645871D01*
X120932390Y-89682127D01*
X120932518Y-89682280D01*
X120932525Y-89682290D01*
X120952908Y-89706784D01*
X120961160Y-89716701D01*
X120961187Y-89716733D01*
X120991740Y-89752198D01*
X120992007Y-89752519D01*
X121023258Y-89791528D01*
X121023780Y-89792232D01*
X121025400Y-89794599D01*
X121025401Y-89794600D01*
X121055117Y-89838010D01*
X121085610Y-89893534D01*
X120780285Y-90211034D01*
X120779617Y-90211729D01*
X120776761Y-90210611D01*
X120774834Y-90210649D01*
X120770667Y-90207864D01*
X120693026Y-90127127D01*
X120693021Y-90127122D01*
X120608966Y-90039715D01*
X120474353Y-89899735D01*
X120471088Y-89891396D01*
X120472531Y-89885993D01*
X120472882Y-89885355D01*
X120498603Y-89838518D01*
X120499203Y-89837541D01*
X120530219Y-89792232D01*
X120530743Y-89791526D01*
X120561992Y-89752519D01*
X120562259Y-89752198D01*
X120592812Y-89716733D01*
X120592839Y-89716701D01*
X120601091Y-89706784D01*
X120621474Y-89682290D01*
X120621481Y-89682280D01*
X120621609Y-89682127D01*
X120647418Y-89645871D01*
X120669254Y-89605166D01*
X120686105Y-89557245D01*
X120696957Y-89499338D01*
X120700198Y-89439745D01*
X120704069Y-89431670D01*
X120711881Y-89428680D01*
X120842119Y-89428680D01*
X120850392Y-89432107D01*
G37*
%TD.AperFunction*%
%TD*%
%TA.AperFunction,Conductor*%
%TO.N,/D4*%
G36*
X123198433Y-82514319D02*
G01*
X123492647Y-82820265D01*
X123495912Y-82828604D01*
X123494469Y-82834007D01*
X123468396Y-82881481D01*
X123467796Y-82882458D01*
X123436780Y-82927767D01*
X123436256Y-82928473D01*
X123405007Y-82967480D01*
X123404740Y-82967801D01*
X123374187Y-83003266D01*
X123374160Y-83003298D01*
X123374107Y-83003362D01*
X123345525Y-83037709D01*
X123345518Y-83037719D01*
X123345390Y-83037872D01*
X123319581Y-83074128D01*
X123297745Y-83114833D01*
X123280894Y-83162754D01*
X123270042Y-83220661D01*
X123270022Y-83221032D01*
X123270021Y-83221039D01*
X123266802Y-83280255D01*
X123262931Y-83288330D01*
X123255119Y-83291320D01*
X123124881Y-83291320D01*
X123116608Y-83287893D01*
X123113198Y-83280255D01*
X123109978Y-83221039D01*
X123109977Y-83221032D01*
X123109957Y-83220661D01*
X123099105Y-83162754D01*
X123082254Y-83114833D01*
X123060418Y-83074128D01*
X123034609Y-83037872D01*
X123034481Y-83037719D01*
X123034474Y-83037709D01*
X123005892Y-83003362D01*
X123005839Y-83003298D01*
X123005812Y-83003266D01*
X122975259Y-82967801D01*
X122974992Y-82967480D01*
X122943743Y-82928473D01*
X122943219Y-82927767D01*
X122912203Y-82882458D01*
X122911603Y-82881481D01*
X122885531Y-82834007D01*
X122884552Y-82825106D01*
X122887353Y-82820265D01*
X123181567Y-82514319D01*
X123189771Y-82510731D01*
X123198433Y-82514319D01*
G37*
%TD.AperFunction*%
%TD*%
%TA.AperFunction,Conductor*%
%TO.N,/A8*%
G36*
X127279016Y-65760661D02*
G01*
X127282604Y-65769323D01*
X127272092Y-66307086D01*
X127265623Y-66638010D01*
X127262711Y-66786950D01*
X127259123Y-66795154D01*
X127254107Y-66798004D01*
X127182474Y-66817638D01*
X127112673Y-66836769D01*
X127111168Y-66837077D01*
X127043265Y-66846381D01*
X126975989Y-66855599D01*
X126974765Y-66855700D01*
X126850339Y-66859410D01*
X126849649Y-66859409D01*
X126732913Y-66855791D01*
X126621431Y-66852403D01*
X126621422Y-66852403D01*
X126621223Y-66852397D01*
X126512045Y-66856841D01*
X126402493Y-66876725D01*
X126360251Y-66892799D01*
X126290201Y-66919453D01*
X126290198Y-66919455D01*
X126289679Y-66919652D01*
X126170717Y-66993223D01*
X126059743Y-67090171D01*
X126050957Y-67097847D01*
X126042472Y-67100709D01*
X126034986Y-67097309D01*
X125942691Y-67005014D01*
X125939264Y-66996741D01*
X125942153Y-66989043D01*
X126002773Y-66919652D01*
X126046776Y-66869282D01*
X126090857Y-66798005D01*
X126120054Y-66750794D01*
X126120055Y-66750793D01*
X126120347Y-66750320D01*
X126163274Y-66637506D01*
X126183158Y-66527954D01*
X126187602Y-66418776D01*
X126184208Y-66307086D01*
X126180590Y-66190351D01*
X126180589Y-66189647D01*
X126184298Y-66065242D01*
X126184401Y-66064003D01*
X126202922Y-65928831D01*
X126203230Y-65927326D01*
X126241995Y-65785894D01*
X126247487Y-65778821D01*
X126253050Y-65777289D01*
X126569414Y-65771105D01*
X127270677Y-65757396D01*
X127279016Y-65760661D01*
G37*
%TD.AperFunction*%
%TD*%
%TA.AperFunction,Conductor*%
%TO.N,/D1*%
G36*
X115633890Y-81252612D02*
G01*
X115634337Y-81253453D01*
X115804792Y-81608085D01*
X115820941Y-81641684D01*
X115821437Y-81650626D01*
X115818349Y-81655334D01*
X115773265Y-81697116D01*
X115772528Y-81697745D01*
X115725771Y-81734377D01*
X115724995Y-81734935D01*
X115681215Y-81763799D01*
X115680565Y-81764198D01*
X115638262Y-81788292D01*
X115637922Y-81788478D01*
X115595803Y-81810652D01*
X115552691Y-81833726D01*
X115507511Y-81860495D01*
X115507358Y-81860600D01*
X115507352Y-81860604D01*
X115459179Y-81893721D01*
X115459170Y-81893727D01*
X115458995Y-81893848D01*
X115458826Y-81893984D01*
X115458825Y-81893985D01*
X115406043Y-81936543D01*
X115406035Y-81936550D01*
X115405875Y-81936679D01*
X115355149Y-81984146D01*
X115346767Y-81987297D01*
X115338882Y-81983876D01*
X115246809Y-81891803D01*
X115243382Y-81883530D01*
X115246226Y-81875885D01*
X115275621Y-81841834D01*
X115275627Y-81841826D01*
X115275978Y-81841419D01*
X115299385Y-81801263D01*
X115311360Y-81762774D01*
X115313921Y-81725083D01*
X115313848Y-81724512D01*
X115309134Y-81687698D01*
X115309133Y-81687691D01*
X115309085Y-81687319D01*
X115298871Y-81648609D01*
X115285296Y-81608085D01*
X115270447Y-81565072D01*
X115270315Y-81564664D01*
X115256261Y-81518510D01*
X115256041Y-81517676D01*
X115246473Y-81475259D01*
X115247995Y-81466435D01*
X115251976Y-81462587D01*
X115617883Y-81248424D01*
X115626753Y-81247203D01*
X115633890Y-81252612D01*
G37*
%TD.AperFunction*%
%TD*%
M02*
