%TF.GenerationSoftware,KiCad,Pcbnew,(6.0.8)*%
%TF.CreationDate,2022-10-28T11:52:04-04:00*%
%TF.ProjectId,HP3457A_NVSRAM_MOD,48503334-3537-4415-9f4e-565352414d5f,rev?*%
%TF.SameCoordinates,Original*%
%TF.FileFunction,Legend,Top*%
%TF.FilePolarity,Positive*%
%FSLAX46Y46*%
G04 Gerber Fmt 4.6, Leading zero omitted, Abs format (unit mm)*
G04 Created by KiCad (PCBNEW (6.0.8)) date 2022-10-28 11:52:04*
%MOMM*%
%LPD*%
G01*
G04 APERTURE LIST*
%ADD10C,0.127000*%
%ADD11C,0.120000*%
G04 APERTURE END LIST*
D10*
X115951000Y-88138000D02*
X115951000Y-85598000D01*
X115951000Y-85598000D02*
X113030000Y-85598000D01*
X116936761Y-58141809D02*
X116936761Y-57633809D01*
X117106095Y-57996666D01*
X117275428Y-57633809D01*
X117275428Y-58141809D01*
X117517333Y-58093428D02*
X117541523Y-58117619D01*
X117517333Y-58141809D01*
X117493142Y-58117619D01*
X117517333Y-58093428D01*
X117517333Y-58141809D01*
X117735047Y-57996666D02*
X117976952Y-57996666D01*
X117686666Y-58141809D02*
X117856000Y-57633809D01*
X118025333Y-58141809D01*
X118194666Y-58093428D02*
X118218857Y-58117619D01*
X118194666Y-58141809D01*
X118170476Y-58117619D01*
X118194666Y-58093428D01*
X118194666Y-58141809D01*
X118799428Y-58117619D02*
X118872000Y-58141809D01*
X118992952Y-58141809D01*
X119041333Y-58117619D01*
X119065523Y-58093428D01*
X119089714Y-58045047D01*
X119089714Y-57996666D01*
X119065523Y-57948285D01*
X119041333Y-57924095D01*
X118992952Y-57899904D01*
X118896190Y-57875714D01*
X118847809Y-57851523D01*
X118823619Y-57827333D01*
X118799428Y-57778952D01*
X118799428Y-57730571D01*
X118823619Y-57682190D01*
X118847809Y-57658000D01*
X118896190Y-57633809D01*
X119017142Y-57633809D01*
X119089714Y-57658000D01*
X119259047Y-57633809D02*
X119380000Y-58141809D01*
X119476761Y-57778952D01*
X119573523Y-58141809D01*
X119694476Y-57633809D01*
X119863809Y-57996666D02*
X120105714Y-57996666D01*
X119815428Y-58141809D02*
X119984761Y-57633809D01*
X120154095Y-58141809D01*
X120492761Y-57875714D02*
X120565333Y-57899904D01*
X120589523Y-57924095D01*
X120613714Y-57972476D01*
X120613714Y-58045047D01*
X120589523Y-58093428D01*
X120565333Y-58117619D01*
X120516952Y-58141809D01*
X120323428Y-58141809D01*
X120323428Y-57633809D01*
X120492761Y-57633809D01*
X120541142Y-57658000D01*
X120565333Y-57682190D01*
X120589523Y-57730571D01*
X120589523Y-57778952D01*
X120565333Y-57827333D01*
X120541142Y-57851523D01*
X120492761Y-57875714D01*
X120323428Y-57875714D01*
X120831428Y-57875714D02*
X121000761Y-57875714D01*
X121073333Y-58141809D02*
X120831428Y-58141809D01*
X120831428Y-57633809D01*
X121073333Y-57633809D01*
X121387809Y-57899904D02*
X121387809Y-58141809D01*
X121218476Y-57633809D02*
X121387809Y-57899904D01*
X121557142Y-57633809D01*
X122113523Y-58141809D02*
X122113523Y-57633809D01*
X122403809Y-58141809D01*
X122403809Y-57633809D01*
X122573142Y-57633809D02*
X122742476Y-58141809D01*
X122911809Y-57633809D01*
X123371428Y-58141809D02*
X123202095Y-57899904D01*
X123081142Y-58141809D02*
X123081142Y-57633809D01*
X123274666Y-57633809D01*
X123323047Y-57658000D01*
X123347238Y-57682190D01*
X123371428Y-57730571D01*
X123371428Y-57803142D01*
X123347238Y-57851523D01*
X123323047Y-57875714D01*
X123274666Y-57899904D01*
X123081142Y-57899904D01*
X123564952Y-57996666D02*
X123806857Y-57996666D01*
X123516571Y-58141809D02*
X123685904Y-57633809D01*
X123855238Y-58141809D01*
X124024571Y-58141809D02*
X124024571Y-57633809D01*
X124193904Y-57996666D01*
X124363238Y-57633809D01*
X124363238Y-58141809D01*
X124810761Y-57633809D02*
X124980095Y-58141809D01*
X125149428Y-57633809D01*
X125584857Y-58141809D02*
X125294571Y-58141809D01*
X125439714Y-58141809D02*
X125439714Y-57633809D01*
X125391333Y-57706380D01*
X125342952Y-57754761D01*
X125294571Y-57778952D01*
%TO.C,U3*%
X113404952Y-66015809D02*
X113404952Y-66427047D01*
X113429142Y-66475428D01*
X113453333Y-66499619D01*
X113501714Y-66523809D01*
X113598476Y-66523809D01*
X113646857Y-66499619D01*
X113671047Y-66475428D01*
X113695238Y-66427047D01*
X113695238Y-66015809D01*
X113888761Y-66015809D02*
X114203238Y-66015809D01*
X114033904Y-66209333D01*
X114106476Y-66209333D01*
X114154857Y-66233523D01*
X114179047Y-66257714D01*
X114203238Y-66306095D01*
X114203238Y-66427047D01*
X114179047Y-66475428D01*
X114154857Y-66499619D01*
X114106476Y-66523809D01*
X113961333Y-66523809D01*
X113912952Y-66499619D01*
X113888761Y-66475428D01*
%TO.C,U2*%
X117976952Y-59665809D02*
X117976952Y-60077047D01*
X118001142Y-60125428D01*
X118025333Y-60149619D01*
X118073714Y-60173809D01*
X118170476Y-60173809D01*
X118218857Y-60149619D01*
X118243047Y-60125428D01*
X118267238Y-60077047D01*
X118267238Y-59665809D01*
X118484952Y-59714190D02*
X118509142Y-59690000D01*
X118557523Y-59665809D01*
X118678476Y-59665809D01*
X118726857Y-59690000D01*
X118751047Y-59714190D01*
X118775238Y-59762571D01*
X118775238Y-59810952D01*
X118751047Y-59883523D01*
X118460761Y-60173809D01*
X118775238Y-60173809D01*
%TO.C,R1*%
X124943809Y-62060666D02*
X124701904Y-62230000D01*
X124943809Y-62350952D02*
X124435809Y-62350952D01*
X124435809Y-62157428D01*
X124460000Y-62109047D01*
X124484190Y-62084857D01*
X124532571Y-62060666D01*
X124605142Y-62060666D01*
X124653523Y-62084857D01*
X124677714Y-62109047D01*
X124701904Y-62157428D01*
X124701904Y-62350952D01*
X124943809Y-61576857D02*
X124943809Y-61867142D01*
X124943809Y-61722000D02*
X124435809Y-61722000D01*
X124508380Y-61770380D01*
X124556761Y-61818761D01*
X124580952Y-61867142D01*
%TO.C,R2*%
X115545809Y-87587666D02*
X115303904Y-87757000D01*
X115545809Y-87877952D02*
X115037809Y-87877952D01*
X115037809Y-87684428D01*
X115062000Y-87636047D01*
X115086190Y-87611857D01*
X115134571Y-87587666D01*
X115207142Y-87587666D01*
X115255523Y-87611857D01*
X115279714Y-87636047D01*
X115303904Y-87684428D01*
X115303904Y-87877952D01*
X115086190Y-87394142D02*
X115062000Y-87369952D01*
X115037809Y-87321571D01*
X115037809Y-87200619D01*
X115062000Y-87152238D01*
X115086190Y-87128047D01*
X115134571Y-87103857D01*
X115182952Y-87103857D01*
X115255523Y-87128047D01*
X115545809Y-87418333D01*
X115545809Y-87103857D01*
%TO.C,J1*%
X124671666Y-84938809D02*
X124671666Y-85301666D01*
X124647476Y-85374238D01*
X124599095Y-85422619D01*
X124526523Y-85446809D01*
X124478142Y-85446809D01*
X125179666Y-85446809D02*
X124889380Y-85446809D01*
X125034523Y-85446809D02*
X125034523Y-84938809D01*
X124986142Y-85011380D01*
X124937761Y-85059761D01*
X124889380Y-85083952D01*
%TO.C,C1*%
X120057333Y-59363428D02*
X120033142Y-59387619D01*
X119960571Y-59411809D01*
X119912190Y-59411809D01*
X119839619Y-59387619D01*
X119791238Y-59339238D01*
X119767047Y-59290857D01*
X119742857Y-59194095D01*
X119742857Y-59121523D01*
X119767047Y-59024761D01*
X119791238Y-58976380D01*
X119839619Y-58928000D01*
X119912190Y-58903809D01*
X119960571Y-58903809D01*
X120033142Y-58928000D01*
X120057333Y-58952190D01*
X120541142Y-59411809D02*
X120250857Y-59411809D01*
X120396000Y-59411809D02*
X120396000Y-58903809D01*
X120347619Y-58976380D01*
X120299238Y-59024761D01*
X120250857Y-59048952D01*
%TO.C,R3*%
X115545809Y-86444666D02*
X115303904Y-86614000D01*
X115545809Y-86734952D02*
X115037809Y-86734952D01*
X115037809Y-86541428D01*
X115062000Y-86493047D01*
X115086190Y-86468857D01*
X115134571Y-86444666D01*
X115207142Y-86444666D01*
X115255523Y-86468857D01*
X115279714Y-86493047D01*
X115303904Y-86541428D01*
X115303904Y-86734952D01*
X115037809Y-86275333D02*
X115037809Y-85960857D01*
X115231333Y-86130190D01*
X115231333Y-86057619D01*
X115255523Y-86009238D01*
X115279714Y-85985047D01*
X115328095Y-85960857D01*
X115449047Y-85960857D01*
X115497428Y-85985047D01*
X115521619Y-86009238D01*
X115545809Y-86057619D01*
X115545809Y-86202761D01*
X115521619Y-86251142D01*
X115497428Y-86275333D01*
%TO.C,U1*%
X113386809Y-91827047D02*
X113798047Y-91827047D01*
X113846428Y-91802857D01*
X113870619Y-91778666D01*
X113894809Y-91730285D01*
X113894809Y-91633523D01*
X113870619Y-91585142D01*
X113846428Y-91560952D01*
X113798047Y-91536761D01*
X113386809Y-91536761D01*
X113894809Y-91028761D02*
X113894809Y-91319047D01*
X113894809Y-91173904D02*
X113386809Y-91173904D01*
X113459380Y-91222285D01*
X113507761Y-91270666D01*
X113531952Y-91319047D01*
%TO.C,R4*%
X114656809Y-86444666D02*
X114414904Y-86614000D01*
X114656809Y-86734952D02*
X114148809Y-86734952D01*
X114148809Y-86541428D01*
X114173000Y-86493047D01*
X114197190Y-86468857D01*
X114245571Y-86444666D01*
X114318142Y-86444666D01*
X114366523Y-86468857D01*
X114390714Y-86493047D01*
X114414904Y-86541428D01*
X114414904Y-86734952D01*
X114318142Y-86009238D02*
X114656809Y-86009238D01*
X114124619Y-86130190D02*
X114487476Y-86251142D01*
X114487476Y-85936666D01*
%TO.C,C2*%
X117275428Y-65235666D02*
X117299619Y-65259857D01*
X117323809Y-65332428D01*
X117323809Y-65380809D01*
X117299619Y-65453380D01*
X117251238Y-65501761D01*
X117202857Y-65525952D01*
X117106095Y-65550142D01*
X117033523Y-65550142D01*
X116936761Y-65525952D01*
X116888380Y-65501761D01*
X116840000Y-65453380D01*
X116815809Y-65380809D01*
X116815809Y-65332428D01*
X116840000Y-65259857D01*
X116864190Y-65235666D01*
X116864190Y-65042142D02*
X116840000Y-65017952D01*
X116815809Y-64969571D01*
X116815809Y-64848619D01*
X116840000Y-64800238D01*
X116864190Y-64776047D01*
X116912571Y-64751857D01*
X116960952Y-64751857D01*
X117033523Y-64776047D01*
X117323809Y-65066333D01*
X117323809Y-64751857D01*
%TO.C,C3*%
X118914333Y-65332428D02*
X118890142Y-65356619D01*
X118817571Y-65380809D01*
X118769190Y-65380809D01*
X118696619Y-65356619D01*
X118648238Y-65308238D01*
X118624047Y-65259857D01*
X118599857Y-65163095D01*
X118599857Y-65090523D01*
X118624047Y-64993761D01*
X118648238Y-64945380D01*
X118696619Y-64897000D01*
X118769190Y-64872809D01*
X118817571Y-64872809D01*
X118890142Y-64897000D01*
X118914333Y-64921190D01*
X119083666Y-64872809D02*
X119398142Y-64872809D01*
X119228809Y-65066333D01*
X119301380Y-65066333D01*
X119349761Y-65090523D01*
X119373952Y-65114714D01*
X119398142Y-65163095D01*
X119398142Y-65284047D01*
X119373952Y-65332428D01*
X119349761Y-65356619D01*
X119301380Y-65380809D01*
X119156238Y-65380809D01*
X119107857Y-65356619D01*
X119083666Y-65332428D01*
%TO.C,R6*%
X113767809Y-86444666D02*
X113525904Y-86614000D01*
X113767809Y-86734952D02*
X113259809Y-86734952D01*
X113259809Y-86541428D01*
X113284000Y-86493047D01*
X113308190Y-86468857D01*
X113356571Y-86444666D01*
X113429142Y-86444666D01*
X113477523Y-86468857D01*
X113501714Y-86493047D01*
X113525904Y-86541428D01*
X113525904Y-86734952D01*
X113259809Y-86009238D02*
X113259809Y-86106000D01*
X113284000Y-86154380D01*
X113308190Y-86178571D01*
X113380761Y-86226952D01*
X113477523Y-86251142D01*
X113671047Y-86251142D01*
X113719428Y-86226952D01*
X113743619Y-86202761D01*
X113767809Y-86154380D01*
X113767809Y-86057619D01*
X113743619Y-86009238D01*
X113719428Y-85985047D01*
X113671047Y-85960857D01*
X113550095Y-85960857D01*
X113501714Y-85985047D01*
X113477523Y-86009238D01*
X113453333Y-86057619D01*
X113453333Y-86154380D01*
X113477523Y-86202761D01*
X113501714Y-86226952D01*
X113550095Y-86251142D01*
%TO.C,C4*%
X114481428Y-87587666D02*
X114505619Y-87611857D01*
X114529809Y-87684428D01*
X114529809Y-87732809D01*
X114505619Y-87805380D01*
X114457238Y-87853761D01*
X114408857Y-87877952D01*
X114312095Y-87902142D01*
X114239523Y-87902142D01*
X114142761Y-87877952D01*
X114094380Y-87853761D01*
X114046000Y-87805380D01*
X114021809Y-87732809D01*
X114021809Y-87684428D01*
X114046000Y-87611857D01*
X114070190Y-87587666D01*
X114191142Y-87152238D02*
X114529809Y-87152238D01*
X113997619Y-87273190D02*
X114360476Y-87394142D01*
X114360476Y-87079666D01*
%TO.C,R5*%
X124756333Y-64491809D02*
X124587000Y-64249904D01*
X124466047Y-64491809D02*
X124466047Y-63983809D01*
X124659571Y-63983809D01*
X124707952Y-64008000D01*
X124732142Y-64032190D01*
X124756333Y-64080571D01*
X124756333Y-64153142D01*
X124732142Y-64201523D01*
X124707952Y-64225714D01*
X124659571Y-64249904D01*
X124466047Y-64249904D01*
X125215952Y-63983809D02*
X124974047Y-63983809D01*
X124949857Y-64225714D01*
X124974047Y-64201523D01*
X125022428Y-64177333D01*
X125143380Y-64177333D01*
X125191761Y-64201523D01*
X125215952Y-64225714D01*
X125240142Y-64274095D01*
X125240142Y-64395047D01*
X125215952Y-64443428D01*
X125191761Y-64467619D01*
X125143380Y-64491809D01*
X125022428Y-64491809D01*
X124974047Y-64467619D01*
X124949857Y-64443428D01*
%TO.C,U3*%
X123833250Y-66387250D02*
X123833250Y-66877000D01*
X114926750Y-66877000D02*
X112930000Y-66877000D01*
X114926750Y-66387250D02*
X114926750Y-66877000D01*
X119380000Y-84996750D02*
X123833250Y-84996750D01*
X119380000Y-66387250D02*
X114926750Y-66387250D01*
X123833250Y-84996750D02*
X123833250Y-84507000D01*
X114926750Y-84996750D02*
X114926750Y-84507000D01*
X119380000Y-84996750D02*
X114926750Y-84996750D01*
X119380000Y-66387250D02*
X123833250Y-66387250D01*
%TO.C,U2*%
X119025000Y-60476000D02*
X117950000Y-60476000D01*
X122275000Y-63601000D02*
X122275000Y-63376000D01*
X122275000Y-60351000D02*
X122275000Y-60576000D01*
X119025000Y-60351000D02*
X119025000Y-60476000D01*
X119025000Y-63601000D02*
X119025000Y-63376000D01*
X119025000Y-63601000D02*
X122275000Y-63601000D01*
X119025000Y-60351000D02*
X122275000Y-60351000D01*
D11*
%TO.C,R1*%
X124334000Y-60182779D02*
X124334000Y-60518021D01*
X125094000Y-60182779D02*
X125094000Y-60518021D01*
%TO.C,R2*%
X119428866Y-90845621D02*
X119428866Y-90510379D01*
X120188866Y-90845621D02*
X120188866Y-90510379D01*
D10*
%TO.C,J1*%
X125592000Y-85805200D02*
X120872000Y-85805200D01*
X124482000Y-88765200D02*
X124982000Y-88765200D01*
X120872000Y-91925200D02*
X125592000Y-91925200D01*
X121482000Y-91315200D02*
X124982000Y-91315200D01*
X124982000Y-86415200D02*
X121482000Y-86415200D01*
X120572000Y-92225200D02*
X121822000Y-92225200D01*
X124982000Y-88965200D02*
X124482000Y-88965200D01*
X120872000Y-85805200D02*
X120872000Y-91925200D01*
X121482000Y-86415200D02*
X121482000Y-88365200D01*
X121482000Y-89365200D02*
X121482000Y-91315200D01*
X123482000Y-85805200D02*
X123482000Y-86415200D01*
X122182000Y-85805200D02*
X122182000Y-86415200D01*
X120872000Y-89365200D02*
X121482000Y-89365200D01*
X121482000Y-88365200D02*
X120872000Y-88365200D01*
X120572000Y-90975200D02*
X120572000Y-92225200D01*
X120772000Y-90165200D02*
X120772000Y-90465200D01*
X125592000Y-91925200D02*
X125592000Y-85805200D01*
X120672000Y-90465200D02*
X120872000Y-90465200D01*
X120872000Y-90165200D02*
X120672000Y-90165200D01*
X122182000Y-91925200D02*
X122182000Y-91315200D01*
X124982000Y-88865200D02*
X124482000Y-88865200D01*
X120672000Y-90165200D02*
X120672000Y-90465200D01*
X123482000Y-91925200D02*
X123482000Y-91315200D01*
X124482000Y-88965200D02*
X124482000Y-88765200D01*
X124982000Y-91315200D02*
X124982000Y-86415200D01*
%TO.C,C1*%
X122187580Y-58672000D02*
X121906420Y-58672000D01*
X122187580Y-59692000D02*
X121906420Y-59692000D01*
D11*
%TO.C,R3*%
X120188866Y-87543621D02*
X120188866Y-87208379D01*
X119428866Y-87543621D02*
X119428866Y-87208379D01*
D10*
%TO.C,U1*%
X115062000Y-91984000D02*
X116737000Y-91984000D01*
X115062000Y-88864000D02*
X114412000Y-88864000D01*
X115062000Y-88864000D02*
X115712000Y-88864000D01*
X115062000Y-91984000D02*
X114412000Y-91984000D01*
D11*
%TO.C,R4*%
X117984000Y-87543621D02*
X117984000Y-87208379D01*
X118744000Y-87543621D02*
X118744000Y-87208379D01*
D10*
%TO.C,C2*%
X116518000Y-65736000D02*
X116518000Y-58976000D01*
X113098000Y-65736000D02*
X116518000Y-65736000D01*
X113098000Y-58976000D02*
X113098000Y-65736000D01*
%TO.C,C3*%
X121171580Y-65661000D02*
X120890420Y-65661000D01*
X121171580Y-64641000D02*
X120890420Y-64641000D01*
D11*
%TO.C,R6*%
X117347000Y-87543621D02*
X117347000Y-87208379D01*
X116587000Y-87543621D02*
X116587000Y-87208379D01*
D10*
%TO.C,C4*%
X118620000Y-90818580D02*
X118620000Y-90537420D01*
X117600000Y-90818580D02*
X117600000Y-90537420D01*
D11*
%TO.C,R5*%
X124038379Y-64771000D02*
X124373621Y-64771000D01*
X124038379Y-65531000D02*
X124373621Y-65531000D01*
%TD*%
M02*
