%TF.GenerationSoftware,KiCad,Pcbnew,(6.0.8)*%
%TF.CreationDate,2022-10-29T15:55:06-04:00*%
%TF.ProjectId,HP3457A_NVSRAM_MOD,48503334-3537-4415-9f4e-565352414d5f,rev?*%
%TF.SameCoordinates,Original*%
%TF.FileFunction,Paste,Top*%
%TF.FilePolarity,Positive*%
%FSLAX46Y46*%
G04 Gerber Fmt 4.6, Leading zero omitted, Abs format (unit mm)*
G04 Created by KiCad (PCBNEW (6.0.8)) date 2022-10-29 15:55:06*
%MOMM*%
%LPD*%
G01*
G04 APERTURE LIST*
G04 Aperture macros list*
%AMRoundRect*
0 Rectangle with rounded corners*
0 $1 Rounding radius*
0 $2 $3 $4 $5 $6 $7 $8 $9 X,Y pos of 4 corners*
0 Add a 4 corners polygon primitive as box body*
4,1,4,$2,$3,$4,$5,$6,$7,$8,$9,$2,$3,0*
0 Add four circle primitives for the rounded corners*
1,1,$1+$1,$2,$3*
1,1,$1+$1,$4,$5*
1,1,$1+$1,$6,$7*
1,1,$1+$1,$8,$9*
0 Add four rect primitives between the rounded corners*
20,1,$1+$1,$2,$3,$4,$5,0*
20,1,$1+$1,$4,$5,$6,$7,0*
20,1,$1+$1,$6,$7,$8,$9,0*
20,1,$1+$1,$8,$9,$2,$3,0*%
G04 Aperture macros list end*
%ADD10RoundRect,0.150000X-0.887500X-0.150000X0.887500X-0.150000X0.887500X0.150000X-0.887500X0.150000X0*%
%ADD11R,1.100000X0.400000*%
%ADD12RoundRect,0.160000X-0.160000X0.197500X-0.160000X-0.197500X0.160000X-0.197500X0.160000X0.197500X0*%
%ADD13RoundRect,0.160000X0.160000X-0.197500X0.160000X0.197500X-0.160000X0.197500X-0.160000X-0.197500X0*%
%ADD14RoundRect,0.225000X0.225000X0.250000X-0.225000X0.250000X-0.225000X-0.250000X0.225000X-0.250000X0*%
%ADD15RoundRect,0.150000X0.587500X0.150000X-0.587500X0.150000X-0.587500X-0.150000X0.587500X-0.150000X0*%
%ADD16RoundRect,0.225000X-0.225000X-0.250000X0.225000X-0.250000X0.225000X0.250000X-0.225000X0.250000X0*%
%ADD17RoundRect,0.225000X0.250000X-0.225000X0.250000X0.225000X-0.250000X0.225000X-0.250000X-0.225000X0*%
G04 APERTURE END LIST*
D10*
%TO.C,U3*%
X113967500Y-67437000D03*
X113967500Y-68707000D03*
X113967500Y-69977000D03*
X113967500Y-71247000D03*
X113967500Y-72517000D03*
X113967500Y-73787000D03*
X113967500Y-75057000D03*
X113967500Y-76327000D03*
X113967500Y-77597000D03*
X113967500Y-78867000D03*
X113967500Y-80137000D03*
X113967500Y-81407000D03*
X113967500Y-82677000D03*
X113967500Y-83947000D03*
X124792500Y-83947000D03*
X124792500Y-82677000D03*
X124792500Y-81407000D03*
X124792500Y-80137000D03*
X124792500Y-78867000D03*
X124792500Y-77597000D03*
X124792500Y-76327000D03*
X124792500Y-75057000D03*
X124792500Y-73787000D03*
X124792500Y-72517000D03*
X124792500Y-71247000D03*
X124792500Y-69977000D03*
X124792500Y-68707000D03*
X124792500Y-67437000D03*
%TD*%
D11*
%TO.C,U2*%
X118500000Y-61313022D03*
X118500000Y-61963022D03*
X118500000Y-62613022D03*
X118500000Y-63263022D03*
X122800000Y-63263022D03*
X122800000Y-62613022D03*
X122800000Y-61963022D03*
X122800000Y-61313022D03*
%TD*%
D12*
%TO.C,R1*%
X124714000Y-59752900D03*
X124714000Y-60947900D03*
%TD*%
D13*
%TO.C,R2*%
X119808866Y-91275500D03*
X119808866Y-90080500D03*
%TD*%
D14*
%TO.C,C1*%
X122822000Y-59494022D03*
X121272000Y-59494022D03*
%TD*%
D13*
%TO.C,R3*%
X119808866Y-87973500D03*
X119808866Y-86778500D03*
%TD*%
D15*
%TO.C,U1*%
X115999500Y-91374000D03*
X115999500Y-89474000D03*
X114124500Y-90424000D03*
%TD*%
D13*
%TO.C,R4*%
X118364000Y-87973500D03*
X118364000Y-86778500D03*
%TD*%
D16*
%TO.C,C6*%
X114033000Y-62992000D03*
X115583000Y-62992000D03*
%TD*%
%TO.C,C2*%
X114033000Y-64897000D03*
X115583000Y-64897000D03*
%TD*%
%TO.C,C5*%
X114033000Y-61214000D03*
X115583000Y-61214000D03*
%TD*%
D14*
%TO.C,C3*%
X124092000Y-65405000D03*
X122542000Y-65405000D03*
%TD*%
D16*
%TO.C,C7*%
X114033000Y-59436000D03*
X115583000Y-59436000D03*
%TD*%
D13*
%TO.C,R6*%
X116967000Y-87973500D03*
X116967000Y-86778500D03*
%TD*%
D17*
%TO.C,C4*%
X118110000Y-91453000D03*
X118110000Y-89903000D03*
%TD*%
D12*
%TO.C,R5*%
X125476000Y-64045500D03*
X125476000Y-65240500D03*
%TD*%
M02*
