%TF.GenerationSoftware,KiCad,Pcbnew,(6.0.8)*%
%TF.CreationDate,2022-10-28T11:52:04-04:00*%
%TF.ProjectId,HP3457A_NVSRAM_MOD,48503334-3537-4415-9f4e-565352414d5f,rev?*%
%TF.SameCoordinates,Original*%
%TF.FileFunction,Copper,L2,Bot*%
%TF.FilePolarity,Positive*%
%FSLAX46Y46*%
G04 Gerber Fmt 4.6, Leading zero omitted, Abs format (unit mm)*
G04 Created by KiCad (PCBNEW (6.0.8)) date 2022-10-28 11:52:04*
%MOMM*%
%LPD*%
G01*
G04 APERTURE LIST*
G04 Aperture macros list*
%AMRoundRect*
0 Rectangle with rounded corners*
0 $1 Rounding radius*
0 $2 $3 $4 $5 $6 $7 $8 $9 X,Y pos of 4 corners*
0 Add a 4 corners polygon primitive as box body*
4,1,4,$2,$3,$4,$5,$6,$7,$8,$9,$2,$3,0*
0 Add four circle primitives for the rounded corners*
1,1,$1+$1,$2,$3*
1,1,$1+$1,$4,$5*
1,1,$1+$1,$6,$7*
1,1,$1+$1,$8,$9*
0 Add four rect primitives between the rounded corners*
20,1,$1+$1,$2,$3,$4,$5,0*
20,1,$1+$1,$4,$5,$6,$7,0*
20,1,$1+$1,$6,$7,$8,$9,0*
20,1,$1+$1,$8,$9,$2,$3,0*%
G04 Aperture macros list end*
%TA.AperFunction,ComponentPad*%
%ADD10RoundRect,0.250000X0.625000X-0.350000X0.625000X0.350000X-0.625000X0.350000X-0.625000X-0.350000X0*%
%TD*%
%TA.AperFunction,ComponentPad*%
%ADD11O,1.750000X1.200000*%
%TD*%
%TA.AperFunction,ComponentPad*%
%ADD12R,1.600000X1.600000*%
%TD*%
%TA.AperFunction,ComponentPad*%
%ADD13O,1.600000X1.600000*%
%TD*%
%TA.AperFunction,ViaPad*%
%ADD14C,0.685800*%
%TD*%
%TA.AperFunction,Conductor*%
%ADD15C,0.152400*%
%TD*%
G04 APERTURE END LIST*
D10*
%TO.P,J1,1,Pin_1*%
%TO.N,/BATT_FAKE*%
X122682000Y-89865200D03*
D11*
%TO.P,J1,2,Pin_2*%
%TO.N,GND*%
X122682000Y-87865200D03*
%TD*%
D12*
%TO.P,U10,1,NC*%
%TO.N,unconnected-(U10-Pad1)*%
X111760000Y-58420000D03*
D13*
%TO.P,U10,2,A12*%
%TO.N,/A12*%
X111760000Y-60960000D03*
%TO.P,U10,3,A7*%
%TO.N,/A7*%
X111760000Y-63500000D03*
%TO.P,U10,4,A6*%
%TO.N,/A6*%
X111760000Y-66040000D03*
%TO.P,U10,5,A5*%
%TO.N,/A5*%
X111760000Y-68580000D03*
%TO.P,U10,6,A4*%
%TO.N,/A4*%
X111760000Y-71120000D03*
%TO.P,U10,7,A3*%
%TO.N,/A3*%
X111760000Y-73660000D03*
%TO.P,U10,8,A2*%
%TO.N,/A2*%
X111760000Y-76200000D03*
%TO.P,U10,9,A1*%
%TO.N,/A1*%
X111760000Y-78740000D03*
%TO.P,U10,10,A0*%
%TO.N,/A0*%
X111760000Y-81280000D03*
%TO.P,U10,11,D0*%
%TO.N,/D0*%
X111760000Y-83820000D03*
%TO.P,U10,12,D1*%
%TO.N,/D1*%
X111760000Y-86360000D03*
%TO.P,U10,13,D2*%
%TO.N,/D2*%
X111760000Y-88900000D03*
%TO.P,U10,14,GND*%
%TO.N,GND*%
X111760000Y-91440000D03*
%TO.P,U10,15,D3*%
%TO.N,/D3*%
X127000000Y-91440000D03*
%TO.P,U10,16,D4*%
%TO.N,/D4*%
X127000000Y-88900000D03*
%TO.P,U10,17,D5*%
%TO.N,/D5*%
X127000000Y-86360000D03*
%TO.P,U10,18,D6*%
%TO.N,/D6*%
X127000000Y-83820000D03*
%TO.P,U10,19,D7*%
%TO.N,/D7*%
X127000000Y-81280000D03*
%TO.P,U10,20,~{CE1}*%
%TO.N,/~{CE1}*%
X127000000Y-78740000D03*
%TO.P,U10,21,A10*%
%TO.N,/A10*%
X127000000Y-76200000D03*
%TO.P,U10,22,~{OE}*%
%TO.N,/~{OE}*%
X127000000Y-73660000D03*
%TO.P,U10,23,A11*%
%TO.N,/A11*%
X127000000Y-71120000D03*
%TO.P,U10,24,A9*%
%TO.N,/A9*%
X127000000Y-68580000D03*
%TO.P,U10,25,A8*%
%TO.N,/A8*%
X127000000Y-66040000D03*
%TO.P,U10,26,CE2*%
%TO.N,/CE2*%
X127000000Y-63500000D03*
%TO.P,U10,27,~{WE}*%
%TO.N,/~{WE}*%
X127000000Y-60960000D03*
%TO.P,U10,28,VCC*%
%TO.N,+5V*%
X127000000Y-58420000D03*
%TD*%
D14*
%TO.N,/D2*%
X115570000Y-82677000D03*
%TO.N,/D1*%
X115582215Y-81407000D03*
%TO.N,/A8*%
X123190000Y-71247000D03*
%TO.N,/D0*%
X115570000Y-80137000D03*
%TO.N,/A9*%
X123190000Y-72517000D03*
%TO.N,/A11*%
X123190000Y-73787000D03*
%TO.N,/A4*%
X115570000Y-73787000D03*
%TO.N,/A5*%
X115570000Y-72517000D03*
%TO.N,/D6*%
X123190000Y-80137000D03*
%TO.N,/A6*%
X115570000Y-71247000D03*
%TO.N,/D5*%
X123190000Y-81407000D03*
%TO.N,/A7*%
X115570000Y-69977000D03*
%TO.N,/D4*%
X123190000Y-82677000D03*
%TO.N,/A12*%
X115570000Y-68707000D03*
%TO.N,/CE2*%
X123825000Y-62306200D03*
%TO.N,/~{CE1}*%
X120777000Y-61849000D03*
%TO.N,/~{WE}*%
X123190000Y-68707000D03*
X124104400Y-63804800D03*
%TO.N,+5V*%
X122555000Y-66675000D03*
X120799466Y-91313000D03*
X122809000Y-60198000D03*
%TO.N,/BATT_FAKE*%
X120777000Y-90043000D03*
X120777000Y-88011000D03*
%TO.N,/~{CE_STK}*%
X123190000Y-77597000D03*
X120777000Y-62738000D03*
%TO.N,Net-(R5-Pad2)*%
X124841000Y-66294000D03*
X123190000Y-69977000D03*
%TD*%
D15*
%TO.N,/BATT_FAKE*%
X121462800Y-89865200D02*
X122682000Y-89865200D01*
X121285000Y-90043000D02*
X121462800Y-89865200D01*
X120777000Y-90043000D02*
X121285000Y-90043000D01*
X120777000Y-88011000D02*
X120777000Y-90043000D01*
%TO.N,/D2*%
X111760000Y-88900000D02*
X115503045Y-85156955D01*
X115570000Y-84995311D02*
X115570000Y-82677000D01*
X115503040Y-85156950D02*
G75*
G03*
X115570000Y-84995311I-161640J161650D01*
G01*
%TO.N,/D1*%
X114112956Y-83118044D02*
X115515260Y-81715740D01*
X111760000Y-86360000D02*
X113979045Y-84140955D01*
X114046000Y-83979311D02*
X114046000Y-83279689D01*
X115582215Y-81554096D02*
X115582215Y-81407000D01*
X115515265Y-81715745D02*
G75*
G03*
X115582215Y-81554096I-161665J161645D01*
G01*
X113979040Y-84140950D02*
G75*
G03*
X114046000Y-83979311I-161640J161650D01*
G01*
X114045993Y-83279689D02*
G75*
G02*
X114112956Y-83118044I228607J-11D01*
G01*
%TO.N,/A8*%
X125476000Y-67658689D02*
X125476000Y-68866311D01*
X125409044Y-69027956D02*
X123190000Y-71247000D01*
X127000000Y-66040000D02*
X125542955Y-67497045D01*
X125475993Y-67658689D02*
G75*
G02*
X125542955Y-67497045I228607J-11D01*
G01*
X125409039Y-69027951D02*
G75*
G03*
X125476000Y-68866311I-161639J161651D01*
G01*
%TO.N,/D0*%
X115537689Y-80137000D02*
X115570000Y-80137000D01*
X111760000Y-83820000D02*
X115376045Y-80203955D01*
X115537689Y-80136993D02*
G75*
G03*
X115376045Y-80203955I11J-228607D01*
G01*
%TO.N,/A9*%
X123190000Y-72484689D02*
X123190000Y-72517000D01*
X127000000Y-68580000D02*
X123256955Y-72323045D01*
X123256960Y-72323050D02*
G75*
G03*
X123190000Y-72484689I161640J-161650D01*
G01*
%TO.N,/A11*%
X125790044Y-71186956D02*
X123190000Y-73787000D01*
X127000000Y-71120000D02*
X125951689Y-71120000D01*
X125790049Y-71186961D02*
G75*
G02*
X125951689Y-71120000I161651J-161639D01*
G01*
%TO.N,/A4*%
X112969956Y-71186956D02*
X115570000Y-73787000D01*
X111760000Y-71120000D02*
X112808311Y-71120000D01*
X112969951Y-71186961D02*
G75*
G03*
X112808311Y-71120000I-161651J-161639D01*
G01*
%TO.N,/A5*%
X115570000Y-72484689D02*
X115570000Y-72517000D01*
X111760000Y-68580000D02*
X115503045Y-72323045D01*
X115503040Y-72323050D02*
G75*
G02*
X115570000Y-72484689I-161640J-161650D01*
G01*
%TO.N,/D6*%
X123222311Y-80137000D02*
X123190000Y-80137000D01*
X127000000Y-83820000D02*
X123383955Y-80203955D01*
X123383950Y-80203960D02*
G75*
G03*
X123222311Y-80137000I-161650J-161640D01*
G01*
%TO.N,/A6*%
X113223956Y-68900956D02*
X115570000Y-71247000D01*
X111760000Y-66040000D02*
X113090045Y-67370045D01*
X113157000Y-67531689D02*
X113157000Y-68739311D01*
X113090040Y-67370050D02*
G75*
G02*
X113157000Y-67531689I-161640J-161650D01*
G01*
X113223961Y-68900951D02*
G75*
G02*
X113157000Y-68739311I161639J161651D01*
G01*
%TO.N,/D5*%
X125095000Y-84360311D02*
X125095000Y-83406689D01*
X127000000Y-86360000D02*
X125161955Y-84521955D01*
X125028044Y-83245044D02*
X123190000Y-81407000D01*
X125028039Y-83245049D02*
G75*
G02*
X125095000Y-83406689I-161639J-161651D01*
G01*
X125161960Y-84521950D02*
G75*
G02*
X125095000Y-84360311I161640J161650D01*
G01*
%TO.N,/A7*%
X111760000Y-63500000D02*
X113775855Y-65515855D01*
X113909766Y-68316766D02*
X115570000Y-69977000D01*
X113842810Y-65677499D02*
X113842810Y-68155121D01*
X113842793Y-68155121D02*
G75*
G03*
X113909766Y-68316766I228607J21D01*
G01*
X113842807Y-65677499D02*
G75*
G03*
X113775855Y-65515855I-228607J-1D01*
G01*
%TO.N,/D4*%
X123190000Y-84995311D02*
X123190000Y-82677000D01*
X127000000Y-88900000D02*
X123256955Y-85156955D01*
X123256960Y-85156950D02*
G75*
G02*
X123190000Y-84995311I161640J161650D01*
G01*
%TO.N,/A12*%
X115570000Y-64864689D02*
X115570000Y-68707000D01*
X111760000Y-60960000D02*
X115503045Y-64703045D01*
X115503040Y-64703050D02*
G75*
G02*
X115570000Y-64864689I-161640J-161650D01*
G01*
%TO.N,/CE2*%
X127000000Y-63500000D02*
X125113489Y-63500000D01*
X124951844Y-63433044D02*
X123825000Y-62306200D01*
X124951849Y-63433039D02*
G75*
G03*
X125113489Y-63500000I161651J161639D01*
G01*
%TO.N,/~{CE1}*%
X123698000Y-67088311D02*
X123698000Y-64864689D01*
X122621956Y-68259044D02*
X123631045Y-67249955D01*
X123631044Y-64703044D02*
X120777000Y-61849000D01*
X127000000Y-78740000D02*
X122621955Y-74361955D01*
X122555000Y-74200311D02*
X122555000Y-68420689D01*
X123698007Y-64864689D02*
G75*
G03*
X123631044Y-64703044I-228607J-11D01*
G01*
X122554993Y-68420689D02*
G75*
G02*
X122621956Y-68259044I228607J-11D01*
G01*
X123631040Y-67249950D02*
G75*
G03*
X123698000Y-67088311I-161640J161650D01*
G01*
X122554993Y-74200311D02*
G75*
G03*
X122621955Y-74361955I228607J11D01*
G01*
%TO.N,/~{WE}*%
X124104400Y-67697911D02*
X124104400Y-63804800D01*
X123190000Y-68707000D02*
X124037445Y-67859555D01*
X124104407Y-67697911D02*
G75*
G02*
X124037445Y-67859555I-228607J11D01*
G01*
%TO.N,/~{CE_STK}*%
X122240956Y-68005044D02*
X123250045Y-66995955D01*
X123190000Y-77597000D02*
X122240955Y-76647955D01*
X123250044Y-65211044D02*
X120777000Y-62738000D01*
X123317000Y-66834311D02*
X123317000Y-65372689D01*
X122174000Y-76486311D02*
X122174000Y-68166689D01*
X123317007Y-65372689D02*
G75*
G03*
X123250044Y-65211044I-228607J-11D01*
G01*
X123317007Y-66834311D02*
G75*
G02*
X123250045Y-66995955I-228607J11D01*
G01*
X122173993Y-76486311D02*
G75*
G03*
X122240955Y-76647955I228607J11D01*
G01*
X122173993Y-68166689D02*
G75*
G02*
X122240956Y-68005044I228607J-11D01*
G01*
%TO.N,Net-(R5-Pad2)*%
X124841000Y-66294000D02*
X124841000Y-68326000D01*
X124841000Y-68326000D02*
X123190000Y-69977000D01*
%TD*%
%TA.AperFunction,Conductor*%
%TO.N,/D2*%
G36*
X112611775Y-87955726D02*
G01*
X112704274Y-88048225D01*
X112707701Y-88056498D01*
X112704914Y-88064078D01*
X112669668Y-88105525D01*
X112614279Y-88170657D01*
X112554656Y-88278214D01*
X112525285Y-88380901D01*
X112518417Y-88481088D01*
X112526299Y-88581148D01*
X112526328Y-88581345D01*
X112526328Y-88581348D01*
X112541170Y-88683374D01*
X112541191Y-88683525D01*
X112555250Y-88789891D01*
X112555337Y-88790847D01*
X112560903Y-88903486D01*
X112560874Y-88905068D01*
X112550402Y-89026581D01*
X112550078Y-89028483D01*
X112517903Y-89153923D01*
X112512528Y-89161085D01*
X112506800Y-89162714D01*
X112086323Y-89170934D01*
X111489323Y-89182604D01*
X111480984Y-89179339D01*
X111477396Y-89170677D01*
X111494842Y-88278214D01*
X111497286Y-88153201D01*
X111500874Y-88144997D01*
X111506077Y-88142097D01*
X111631516Y-88109921D01*
X111633417Y-88109597D01*
X111754932Y-88099125D01*
X111756511Y-88099096D01*
X111869163Y-88104663D01*
X111870097Y-88104748D01*
X111976525Y-88118815D01*
X111976571Y-88118821D01*
X112056939Y-88130513D01*
X112078651Y-88133671D01*
X112078654Y-88133671D01*
X112078851Y-88133700D01*
X112178911Y-88141582D01*
X112179334Y-88141553D01*
X112179338Y-88141553D01*
X112278486Y-88134756D01*
X112279098Y-88134714D01*
X112334709Y-88118808D01*
X112381149Y-88105525D01*
X112381150Y-88105525D01*
X112381785Y-88105343D01*
X112489342Y-88045720D01*
X112489778Y-88045349D01*
X112489787Y-88045343D01*
X112595923Y-87955086D01*
X112604445Y-87952337D01*
X112611775Y-87955726D01*
G37*
%TD.AperFunction*%
%TD*%
%TA.AperFunction,Conductor*%
%TO.N,Net-(R5-Pad2)*%
G36*
X124849433Y-66131319D02*
G01*
X125143550Y-66437164D01*
X125146815Y-66445503D01*
X125145285Y-66451062D01*
X125122270Y-66491486D01*
X125121446Y-66492738D01*
X125092292Y-66531331D01*
X125091531Y-66532237D01*
X125075733Y-66549202D01*
X125061153Y-66564856D01*
X125060685Y-66565330D01*
X125030109Y-66594625D01*
X125000686Y-66623021D01*
X125000550Y-66623173D01*
X125000539Y-66623184D01*
X124986451Y-66638890D01*
X124973880Y-66652904D01*
X124950910Y-66686895D01*
X124932994Y-66727617D01*
X124921351Y-66777691D01*
X124921320Y-66778161D01*
X124921319Y-66778165D01*
X124917930Y-66828821D01*
X124913958Y-66836847D01*
X124906256Y-66839740D01*
X124775743Y-66839740D01*
X124767470Y-66836313D01*
X124764069Y-66828821D01*
X124760680Y-66778165D01*
X124760679Y-66778162D01*
X124760648Y-66777691D01*
X124749005Y-66727617D01*
X124731089Y-66686895D01*
X124708119Y-66652904D01*
X124695548Y-66638890D01*
X124681460Y-66623184D01*
X124681449Y-66623173D01*
X124681313Y-66623021D01*
X124651890Y-66594625D01*
X124621314Y-66565330D01*
X124620846Y-66564856D01*
X124606266Y-66549202D01*
X124590468Y-66532237D01*
X124589707Y-66531331D01*
X124560558Y-66492743D01*
X124559726Y-66491480D01*
X124536715Y-66451063D01*
X124535600Y-66442178D01*
X124538450Y-66437164D01*
X124832567Y-66131319D01*
X124840771Y-66127731D01*
X124849433Y-66131319D01*
G37*
%TD.AperFunction*%
%TD*%
%TA.AperFunction,Conductor*%
%TO.N,/BATT_FAKE*%
G36*
X122426855Y-89331343D02*
G01*
X122902762Y-89789000D01*
X122973231Y-89856767D01*
X122976819Y-89864971D01*
X122973231Y-89873633D01*
X122830361Y-90011024D01*
X122426856Y-90399056D01*
X122418517Y-90402321D01*
X122412824Y-90400713D01*
X122332815Y-90353752D01*
X122331305Y-90352698D01*
X122262284Y-90295931D01*
X122261187Y-90294905D01*
X122204642Y-90234696D01*
X122204053Y-90234018D01*
X122154773Y-90172737D01*
X122154704Y-90172650D01*
X122107974Y-90113391D01*
X122107844Y-90113226D01*
X122058386Y-90058521D01*
X122001235Y-90011303D01*
X122000708Y-90011024D01*
X121931790Y-89974552D01*
X121931787Y-89974551D01*
X121931230Y-89974256D01*
X121868014Y-89956880D01*
X121843744Y-89950209D01*
X121843742Y-89950209D01*
X121843205Y-89950061D01*
X121742791Y-89942240D01*
X121734809Y-89938182D01*
X121732000Y-89930576D01*
X121732000Y-89799824D01*
X121735427Y-89791551D01*
X121742790Y-89788160D01*
X121802345Y-89783521D01*
X121842657Y-89780381D01*
X121842660Y-89780380D01*
X121843205Y-89780338D01*
X121931230Y-89756143D01*
X121931787Y-89755848D01*
X121931790Y-89755847D01*
X122000708Y-89719375D01*
X122000709Y-89719374D01*
X122001235Y-89719096D01*
X122058386Y-89671878D01*
X122107844Y-89617173D01*
X122154773Y-89557662D01*
X122204053Y-89496381D01*
X122204642Y-89495703D01*
X122261187Y-89435494D01*
X122262284Y-89434468D01*
X122331308Y-89377699D01*
X122332817Y-89376645D01*
X122412825Y-89329686D01*
X122421692Y-89328453D01*
X122426855Y-89331343D01*
G37*
%TD.AperFunction*%
%TD*%
%TA.AperFunction,Conductor*%
%TO.N,/BATT_FAKE*%
G36*
X120970596Y-89763088D02*
G01*
X121008803Y-89800564D01*
X121042449Y-89842978D01*
X121072900Y-89886486D01*
X121081124Y-89898199D01*
X121101519Y-89927246D01*
X121129670Y-89961417D01*
X121158717Y-89985156D01*
X121190025Y-89994621D01*
X121191555Y-89994242D01*
X121191556Y-89994242D01*
X121223785Y-89986260D01*
X121224956Y-89985970D01*
X121225912Y-89985237D01*
X121225914Y-89985236D01*
X121256737Y-89961603D01*
X121265388Y-89959289D01*
X121272129Y-89962615D01*
X121363982Y-90054468D01*
X121367409Y-90062741D01*
X121363599Y-90071379D01*
X121351355Y-90082562D01*
X121330802Y-90101333D01*
X121329893Y-90102083D01*
X121292079Y-90130201D01*
X121291066Y-90130875D01*
X121256044Y-90151644D01*
X121255107Y-90152144D01*
X121221910Y-90167956D01*
X121221293Y-90168228D01*
X121189433Y-90181207D01*
X121188937Y-90181409D01*
X121156834Y-90194150D01*
X121156702Y-90194209D01*
X121156693Y-90194213D01*
X121128491Y-90206863D01*
X121124567Y-90208623D01*
X121107581Y-90218104D01*
X121091698Y-90226969D01*
X121091692Y-90226973D01*
X121091405Y-90227133D01*
X121056615Y-90251979D01*
X121056368Y-90252202D01*
X121025826Y-90279733D01*
X121017386Y-90282727D01*
X121012078Y-90281138D01*
X120863687Y-90194213D01*
X120620607Y-90051820D01*
X120620606Y-90051819D01*
X120613912Y-90047898D01*
X120608930Y-90042067D01*
X120608271Y-90040384D01*
X120608966Y-90039715D01*
X120926466Y-89734390D01*
X120970596Y-89763088D01*
G37*
%TD.AperFunction*%
%TD*%
%TA.AperFunction,Conductor*%
%TO.N,/BATT_FAKE*%
G36*
X120850529Y-89500687D02*
G01*
X120853930Y-89508179D01*
X120857351Y-89559308D01*
X120868994Y-89609382D01*
X120886910Y-89650104D01*
X120909880Y-89684095D01*
X120922451Y-89698109D01*
X120936539Y-89713815D01*
X120936550Y-89713826D01*
X120936686Y-89713978D01*
X120966109Y-89742374D01*
X120996685Y-89771669D01*
X120997153Y-89772143D01*
X121011733Y-89787797D01*
X121027531Y-89804762D01*
X121028292Y-89805668D01*
X121057446Y-89844261D01*
X121058270Y-89845513D01*
X121081285Y-89885937D01*
X121082400Y-89894822D01*
X121079550Y-89899836D01*
X120785433Y-90205681D01*
X120777229Y-90209269D01*
X120768567Y-90205681D01*
X120474450Y-89899836D01*
X120471185Y-89891497D01*
X120472715Y-89885937D01*
X120495726Y-89845519D01*
X120496558Y-89844256D01*
X120508812Y-89828033D01*
X120525707Y-89805668D01*
X120526468Y-89804762D01*
X120542266Y-89787797D01*
X120556846Y-89772143D01*
X120557314Y-89771669D01*
X120587890Y-89742374D01*
X120617313Y-89713978D01*
X120617449Y-89713826D01*
X120617460Y-89713815D01*
X120631548Y-89698109D01*
X120644119Y-89684095D01*
X120667089Y-89650104D01*
X120685005Y-89609382D01*
X120696648Y-89559308D01*
X120700069Y-89508178D01*
X120704041Y-89500153D01*
X120711743Y-89497260D01*
X120842256Y-89497260D01*
X120850529Y-89500687D01*
G37*
%TD.AperFunction*%
%TD*%
%TA.AperFunction,Conductor*%
%TO.N,/BATT_FAKE*%
G36*
X120785433Y-87848319D02*
G01*
X121079550Y-88154164D01*
X121082815Y-88162503D01*
X121081285Y-88168062D01*
X121058270Y-88208486D01*
X121057446Y-88209738D01*
X121028292Y-88248331D01*
X121027531Y-88249237D01*
X121011733Y-88266202D01*
X120997153Y-88281856D01*
X120996685Y-88282330D01*
X120966109Y-88311625D01*
X120936686Y-88340021D01*
X120936550Y-88340173D01*
X120936539Y-88340184D01*
X120922451Y-88355890D01*
X120909880Y-88369904D01*
X120886910Y-88403895D01*
X120868994Y-88444617D01*
X120857351Y-88494691D01*
X120857320Y-88495161D01*
X120857319Y-88495165D01*
X120853930Y-88545821D01*
X120849958Y-88553847D01*
X120842256Y-88556740D01*
X120711743Y-88556740D01*
X120703470Y-88553313D01*
X120700069Y-88545821D01*
X120696680Y-88495165D01*
X120696679Y-88495162D01*
X120696648Y-88494691D01*
X120685005Y-88444617D01*
X120667089Y-88403895D01*
X120644119Y-88369904D01*
X120631548Y-88355890D01*
X120617460Y-88340184D01*
X120617449Y-88340173D01*
X120617313Y-88340021D01*
X120587890Y-88311625D01*
X120557314Y-88282330D01*
X120556846Y-88281856D01*
X120542266Y-88266202D01*
X120526468Y-88249237D01*
X120525707Y-88248331D01*
X120496558Y-88209743D01*
X120495726Y-88208480D01*
X120472715Y-88168063D01*
X120471600Y-88159178D01*
X120474450Y-88154164D01*
X120768567Y-87848319D01*
X120776771Y-87844731D01*
X120785433Y-87848319D01*
G37*
%TD.AperFunction*%
%TD*%
%TA.AperFunction,Conductor*%
%TO.N,/D0*%
G36*
X112611775Y-82875726D02*
G01*
X112704274Y-82968225D01*
X112707701Y-82976498D01*
X112704914Y-82984078D01*
X112669668Y-83025525D01*
X112614279Y-83090657D01*
X112554656Y-83198214D01*
X112525285Y-83300901D01*
X112518417Y-83401088D01*
X112526299Y-83501148D01*
X112526328Y-83501345D01*
X112526328Y-83501348D01*
X112541170Y-83603374D01*
X112541191Y-83603525D01*
X112555250Y-83709891D01*
X112555337Y-83710847D01*
X112560903Y-83823486D01*
X112560874Y-83825068D01*
X112550402Y-83946581D01*
X112550078Y-83948483D01*
X112517903Y-84073923D01*
X112512528Y-84081085D01*
X112506800Y-84082714D01*
X112086323Y-84090934D01*
X111489323Y-84102604D01*
X111480984Y-84099339D01*
X111477396Y-84090677D01*
X111494842Y-83198214D01*
X111497286Y-83073201D01*
X111500874Y-83064997D01*
X111506077Y-83062097D01*
X111631516Y-83029921D01*
X111633417Y-83029597D01*
X111754932Y-83019125D01*
X111756511Y-83019096D01*
X111869163Y-83024663D01*
X111870097Y-83024748D01*
X111976525Y-83038815D01*
X111976571Y-83038821D01*
X112056939Y-83050513D01*
X112078651Y-83053671D01*
X112078654Y-83053671D01*
X112078851Y-83053700D01*
X112178911Y-83061582D01*
X112179334Y-83061553D01*
X112179338Y-83061553D01*
X112278486Y-83054756D01*
X112279098Y-83054714D01*
X112334709Y-83038808D01*
X112381149Y-83025525D01*
X112381150Y-83025525D01*
X112381785Y-83025343D01*
X112489342Y-82965720D01*
X112489778Y-82965349D01*
X112489787Y-82965343D01*
X112595923Y-82875086D01*
X112604445Y-82872337D01*
X112611775Y-82875726D01*
G37*
%TD.AperFunction*%
%TD*%
%TA.AperFunction,Conductor*%
%TO.N,/D2*%
G36*
X115578433Y-82514319D02*
G01*
X115872550Y-82820164D01*
X115875815Y-82828503D01*
X115874285Y-82834062D01*
X115851270Y-82874486D01*
X115850446Y-82875738D01*
X115821292Y-82914331D01*
X115820531Y-82915237D01*
X115804733Y-82932202D01*
X115790153Y-82947856D01*
X115789685Y-82948330D01*
X115759109Y-82977625D01*
X115729686Y-83006021D01*
X115729550Y-83006173D01*
X115729539Y-83006184D01*
X115715451Y-83021890D01*
X115702880Y-83035904D01*
X115679910Y-83069895D01*
X115661994Y-83110617D01*
X115650351Y-83160691D01*
X115650320Y-83161161D01*
X115650319Y-83161165D01*
X115646930Y-83211821D01*
X115642958Y-83219847D01*
X115635256Y-83222740D01*
X115504743Y-83222740D01*
X115496470Y-83219313D01*
X115493069Y-83211821D01*
X115489680Y-83161165D01*
X115489679Y-83161162D01*
X115489648Y-83160691D01*
X115478005Y-83110617D01*
X115460089Y-83069895D01*
X115437119Y-83035904D01*
X115424548Y-83021890D01*
X115410460Y-83006184D01*
X115410449Y-83006173D01*
X115410313Y-83006021D01*
X115380890Y-82977625D01*
X115350314Y-82948330D01*
X115349846Y-82947856D01*
X115335266Y-82932202D01*
X115319468Y-82915237D01*
X115318707Y-82914331D01*
X115289558Y-82875743D01*
X115288726Y-82874480D01*
X115265715Y-82834063D01*
X115264600Y-82825178D01*
X115267450Y-82820164D01*
X115561567Y-82514319D01*
X115569771Y-82510731D01*
X115578433Y-82514319D01*
G37*
%TD.AperFunction*%
%TD*%
%TA.AperFunction,Conductor*%
%TO.N,/D1*%
G36*
X115633890Y-81252612D02*
G01*
X115634337Y-81253453D01*
X115820921Y-81641644D01*
X115821417Y-81650586D01*
X115818286Y-81655334D01*
X115779075Y-81691313D01*
X115778245Y-81692006D01*
X115736555Y-81723612D01*
X115735686Y-81724209D01*
X115696391Y-81748649D01*
X115695663Y-81749067D01*
X115657467Y-81769106D01*
X115657090Y-81769294D01*
X115618898Y-81787556D01*
X115618846Y-81787581D01*
X115605148Y-81794261D01*
X115579792Y-81806625D01*
X115538931Y-81829074D01*
X115495272Y-81857570D01*
X115495078Y-81857722D01*
X115495071Y-81857727D01*
X115450907Y-81892326D01*
X115447769Y-81894784D01*
X115447596Y-81894945D01*
X115447586Y-81894953D01*
X115403639Y-81935721D01*
X115395243Y-81938835D01*
X115387409Y-81935416D01*
X115295152Y-81843159D01*
X115291725Y-81834886D01*
X115294419Y-81827419D01*
X115319065Y-81797705D01*
X115336250Y-81762166D01*
X115341541Y-81728200D01*
X115337306Y-81695003D01*
X115325916Y-81661770D01*
X115309740Y-81627696D01*
X115291209Y-81592092D01*
X115291089Y-81591854D01*
X115272716Y-81554222D01*
X115272344Y-81553376D01*
X115256474Y-81513072D01*
X115256024Y-81511680D01*
X115246771Y-81475451D01*
X115248044Y-81466587D01*
X115252197Y-81462458D01*
X115401372Y-81375147D01*
X115617883Y-81248424D01*
X115626753Y-81247203D01*
X115633890Y-81252612D01*
G37*
%TD.AperFunction*%
%TD*%
%TA.AperFunction,Conductor*%
%TO.N,/D1*%
G36*
X112611775Y-85415726D02*
G01*
X112704274Y-85508225D01*
X112707701Y-85516498D01*
X112704914Y-85524078D01*
X112669668Y-85565525D01*
X112614279Y-85630657D01*
X112554656Y-85738214D01*
X112525285Y-85840901D01*
X112518417Y-85941088D01*
X112526299Y-86041148D01*
X112526328Y-86041345D01*
X112526328Y-86041348D01*
X112541170Y-86143374D01*
X112541191Y-86143525D01*
X112555250Y-86249891D01*
X112555337Y-86250847D01*
X112560903Y-86363486D01*
X112560874Y-86365068D01*
X112550402Y-86486581D01*
X112550078Y-86488483D01*
X112517903Y-86613923D01*
X112512528Y-86621085D01*
X112506800Y-86622714D01*
X112086323Y-86630934D01*
X111489323Y-86642604D01*
X111480984Y-86639339D01*
X111477396Y-86630677D01*
X111494842Y-85738214D01*
X111497286Y-85613201D01*
X111500874Y-85604997D01*
X111506077Y-85602097D01*
X111631516Y-85569921D01*
X111633417Y-85569597D01*
X111754932Y-85559125D01*
X111756511Y-85559096D01*
X111869163Y-85564663D01*
X111870097Y-85564748D01*
X111976525Y-85578815D01*
X111976571Y-85578821D01*
X112056939Y-85590513D01*
X112078651Y-85593671D01*
X112078654Y-85593671D01*
X112078851Y-85593700D01*
X112178911Y-85601582D01*
X112179334Y-85601553D01*
X112179338Y-85601553D01*
X112278486Y-85594756D01*
X112279098Y-85594714D01*
X112334709Y-85578808D01*
X112381149Y-85565525D01*
X112381150Y-85565525D01*
X112381785Y-85565343D01*
X112489342Y-85505720D01*
X112489778Y-85505349D01*
X112489787Y-85505343D01*
X112595923Y-85415086D01*
X112604445Y-85412337D01*
X112611775Y-85415726D01*
G37*
%TD.AperFunction*%
%TD*%
%TA.AperFunction,Conductor*%
%TO.N,/A8*%
G36*
X123529752Y-70814961D02*
G01*
X123622038Y-70907247D01*
X123625465Y-70915520D01*
X123622572Y-70923222D01*
X123589148Y-70961439D01*
X123589141Y-70961448D01*
X123588837Y-70961796D01*
X123561663Y-71005436D01*
X123545536Y-71046899D01*
X123537743Y-71087176D01*
X123535568Y-71127261D01*
X123535572Y-71127469D01*
X123536293Y-71168075D01*
X123536294Y-71168117D01*
X123536294Y-71168145D01*
X123537200Y-71210476D01*
X123537196Y-71211142D01*
X123535612Y-71255686D01*
X123535507Y-71256885D01*
X123528835Y-71304771D01*
X123528530Y-71306252D01*
X123516223Y-71351100D01*
X123510729Y-71358172D01*
X123505170Y-71359702D01*
X123321996Y-71363283D01*
X123080932Y-71367995D01*
X123072593Y-71364730D01*
X123069005Y-71356068D01*
X123075868Y-71004968D01*
X123077298Y-70931831D01*
X123080886Y-70923627D01*
X123085897Y-70920778D01*
X123130755Y-70908467D01*
X123132223Y-70908165D01*
X123160052Y-70904287D01*
X123180114Y-70901492D01*
X123181313Y-70901387D01*
X123200492Y-70900705D01*
X123225870Y-70899803D01*
X123226508Y-70899799D01*
X123268854Y-70900705D01*
X123309738Y-70901431D01*
X123310549Y-70901387D01*
X123349426Y-70899278D01*
X123349433Y-70899277D01*
X123349823Y-70899256D01*
X123390100Y-70891463D01*
X123431563Y-70875336D01*
X123432028Y-70875047D01*
X123432031Y-70875045D01*
X123474802Y-70848412D01*
X123474805Y-70848410D01*
X123475203Y-70848162D01*
X123513777Y-70814427D01*
X123522260Y-70811560D01*
X123529752Y-70814961D01*
G37*
%TD.AperFunction*%
%TD*%
%TA.AperFunction,Conductor*%
%TO.N,/A8*%
G36*
X127279016Y-65760661D02*
G01*
X127282604Y-65769323D01*
X127279806Y-65912456D01*
X127263047Y-66769787D01*
X127262714Y-66786799D01*
X127259126Y-66795003D01*
X127253923Y-66797903D01*
X127221190Y-66806299D01*
X127163131Y-66821191D01*
X127128483Y-66830078D01*
X127126582Y-66830402D01*
X127005067Y-66840874D01*
X127003488Y-66840903D01*
X126890836Y-66835336D01*
X126889902Y-66835251D01*
X126783474Y-66821184D01*
X126783428Y-66821178D01*
X126703060Y-66809486D01*
X126681348Y-66806328D01*
X126681345Y-66806328D01*
X126681148Y-66806299D01*
X126581088Y-66798417D01*
X126580665Y-66798446D01*
X126580661Y-66798446D01*
X126481513Y-66805243D01*
X126480901Y-66805285D01*
X126480310Y-66805454D01*
X126394220Y-66830078D01*
X126378214Y-66834656D01*
X126270657Y-66894279D01*
X126221307Y-66936247D01*
X126164078Y-66984914D01*
X126155555Y-66987663D01*
X126148225Y-66984274D01*
X126055726Y-66891775D01*
X126052299Y-66883502D01*
X126055086Y-66875923D01*
X126145343Y-66769787D01*
X126145349Y-66769778D01*
X126145720Y-66769342D01*
X126205343Y-66661785D01*
X126234714Y-66559098D01*
X126241582Y-66458911D01*
X126233700Y-66358851D01*
X126218818Y-66256547D01*
X126204748Y-66150097D01*
X126204662Y-66149152D01*
X126199096Y-66036513D01*
X126199125Y-66034931D01*
X126209597Y-65913418D01*
X126209921Y-65911516D01*
X126242097Y-65786077D01*
X126247472Y-65778915D01*
X126253200Y-65777286D01*
X126673677Y-65769066D01*
X127270677Y-65757396D01*
X127279016Y-65760661D01*
G37*
%TD.AperFunction*%
%TD*%
%TA.AperFunction,Conductor*%
%TO.N,/D0*%
G36*
X115706712Y-80048424D02*
G01*
X115713919Y-80053739D01*
X115715138Y-80063035D01*
X115597138Y-80470571D01*
X115591546Y-80477565D01*
X115585911Y-80479017D01*
X115543692Y-80479056D01*
X115542194Y-80478961D01*
X115496432Y-80473096D01*
X115495389Y-80472914D01*
X115452895Y-80463504D01*
X115452455Y-80463398D01*
X115412336Y-80452867D01*
X115412314Y-80452861D01*
X115412289Y-80452855D01*
X115412255Y-80452847D01*
X115412239Y-80452843D01*
X115374137Y-80443831D01*
X115374138Y-80443831D01*
X115373854Y-80443764D01*
X115373575Y-80443726D01*
X115373568Y-80443725D01*
X115348912Y-80440394D01*
X115336434Y-80438708D01*
X115299102Y-80440214D01*
X115298454Y-80440394D01*
X115298453Y-80440394D01*
X115261598Y-80450624D01*
X115261595Y-80450625D01*
X115260933Y-80450809D01*
X115221001Y-80473023D01*
X115213928Y-80479057D01*
X115186604Y-80502367D01*
X115178086Y-80505129D01*
X115170738Y-80501739D01*
X115078463Y-80409464D01*
X115075036Y-80401191D01*
X115078035Y-80393369D01*
X115116518Y-80350559D01*
X115116520Y-80350556D01*
X115116755Y-80350295D01*
X115149815Y-80302910D01*
X115158123Y-80286739D01*
X115172482Y-80258789D01*
X115172485Y-80258781D01*
X115172654Y-80258453D01*
X115188130Y-80215912D01*
X115199099Y-80174278D01*
X115208397Y-80132639D01*
X115208454Y-80132398D01*
X115218845Y-80090101D01*
X115219078Y-80089282D01*
X115233345Y-80045305D01*
X115233793Y-80044139D01*
X115234277Y-80043057D01*
X115254773Y-79997220D01*
X115255407Y-79996002D01*
X115281900Y-79951758D01*
X115289092Y-79946421D01*
X115294751Y-79946412D01*
X115706712Y-80048424D01*
G37*
%TD.AperFunction*%
%TD*%
%TA.AperFunction,Conductor*%
%TO.N,Net-(R5-Pad2)*%
G36*
X123529752Y-69544961D02*
G01*
X123622038Y-69637247D01*
X123625465Y-69645520D01*
X123622572Y-69653222D01*
X123589148Y-69691439D01*
X123589141Y-69691448D01*
X123588837Y-69691796D01*
X123561663Y-69735436D01*
X123545536Y-69776899D01*
X123537743Y-69817176D01*
X123535568Y-69857261D01*
X123535572Y-69857469D01*
X123536293Y-69898075D01*
X123536294Y-69898117D01*
X123536294Y-69898145D01*
X123537200Y-69940476D01*
X123537196Y-69941142D01*
X123535612Y-69985686D01*
X123535507Y-69986885D01*
X123528835Y-70034771D01*
X123528530Y-70036252D01*
X123516223Y-70081100D01*
X123510729Y-70088172D01*
X123505170Y-70089702D01*
X123321996Y-70093283D01*
X123080932Y-70097995D01*
X123072593Y-70094730D01*
X123069005Y-70086068D01*
X123075868Y-69734968D01*
X123077298Y-69661831D01*
X123080886Y-69653627D01*
X123085897Y-69650778D01*
X123130755Y-69638467D01*
X123132223Y-69638165D01*
X123160052Y-69634287D01*
X123180114Y-69631492D01*
X123181313Y-69631387D01*
X123200492Y-69630705D01*
X123225870Y-69629803D01*
X123226508Y-69629799D01*
X123268854Y-69630705D01*
X123309738Y-69631431D01*
X123310549Y-69631387D01*
X123349426Y-69629278D01*
X123349433Y-69629277D01*
X123349823Y-69629256D01*
X123390100Y-69621463D01*
X123431563Y-69605336D01*
X123432028Y-69605047D01*
X123432031Y-69605045D01*
X123474802Y-69578412D01*
X123474805Y-69578410D01*
X123475203Y-69578162D01*
X123513777Y-69544427D01*
X123522260Y-69541560D01*
X123529752Y-69544961D01*
G37*
%TD.AperFunction*%
%TD*%
%TA.AperFunction,Conductor*%
%TO.N,/A9*%
G36*
X123462464Y-72025463D02*
G01*
X123554739Y-72117738D01*
X123558166Y-72126011D01*
X123555367Y-72133604D01*
X123526023Y-72168001D01*
X123503809Y-72207933D01*
X123503625Y-72208595D01*
X123503624Y-72208598D01*
X123496879Y-72232897D01*
X123493214Y-72246102D01*
X123491708Y-72283434D01*
X123496764Y-72320854D01*
X123496831Y-72321137D01*
X123505843Y-72359239D01*
X123505867Y-72359336D01*
X123516398Y-72399455D01*
X123516504Y-72399895D01*
X123525914Y-72442389D01*
X123526096Y-72443432D01*
X123531961Y-72489194D01*
X123532056Y-72490692D01*
X123532017Y-72532911D01*
X123528583Y-72541181D01*
X123523571Y-72544138D01*
X123116035Y-72662138D01*
X123107135Y-72661148D01*
X123101424Y-72653712D01*
X122999412Y-72241751D01*
X123000750Y-72232897D01*
X123004758Y-72228901D01*
X123018380Y-72220744D01*
X123049002Y-72202407D01*
X123050220Y-72201773D01*
X123097139Y-72180793D01*
X123098305Y-72180345D01*
X123134776Y-72168513D01*
X123142284Y-72166078D01*
X123143101Y-72165845D01*
X123185398Y-72155454D01*
X123185639Y-72155397D01*
X123227162Y-72146125D01*
X123227167Y-72146124D01*
X123227278Y-72146099D01*
X123227380Y-72146072D01*
X123227397Y-72146068D01*
X123268652Y-72135199D01*
X123268662Y-72135196D01*
X123268912Y-72135130D01*
X123311453Y-72119654D01*
X123311781Y-72119485D01*
X123311789Y-72119482D01*
X123339739Y-72105123D01*
X123355910Y-72096815D01*
X123403295Y-72063755D01*
X123403559Y-72063518D01*
X123446369Y-72025035D01*
X123454813Y-72022053D01*
X123462464Y-72025463D01*
G37*
%TD.AperFunction*%
%TD*%
%TA.AperFunction,Conductor*%
%TO.N,/A9*%
G36*
X127279016Y-68300661D02*
G01*
X127282604Y-68309323D01*
X127279806Y-68452456D01*
X127263047Y-69309787D01*
X127262714Y-69326799D01*
X127259126Y-69335003D01*
X127253923Y-69337903D01*
X127221190Y-69346299D01*
X127163131Y-69361191D01*
X127128483Y-69370078D01*
X127126582Y-69370402D01*
X127005067Y-69380874D01*
X127003488Y-69380903D01*
X126890836Y-69375336D01*
X126889902Y-69375251D01*
X126783474Y-69361184D01*
X126783428Y-69361178D01*
X126703060Y-69349486D01*
X126681348Y-69346328D01*
X126681345Y-69346328D01*
X126681148Y-69346299D01*
X126581088Y-69338417D01*
X126580665Y-69338446D01*
X126580661Y-69338446D01*
X126481513Y-69345243D01*
X126480901Y-69345285D01*
X126480310Y-69345454D01*
X126394220Y-69370078D01*
X126378214Y-69374656D01*
X126270657Y-69434279D01*
X126221307Y-69476247D01*
X126164078Y-69524914D01*
X126155555Y-69527663D01*
X126148225Y-69524274D01*
X126055726Y-69431775D01*
X126052299Y-69423502D01*
X126055086Y-69415923D01*
X126145343Y-69309787D01*
X126145349Y-69309778D01*
X126145720Y-69309342D01*
X126205343Y-69201785D01*
X126234714Y-69099098D01*
X126241582Y-68998911D01*
X126233700Y-68898851D01*
X126218818Y-68796547D01*
X126204748Y-68690097D01*
X126204662Y-68689152D01*
X126199096Y-68576513D01*
X126199125Y-68574931D01*
X126209597Y-68453418D01*
X126209921Y-68451516D01*
X126242097Y-68326077D01*
X126247472Y-68318915D01*
X126253200Y-68317286D01*
X126673677Y-68309066D01*
X127270677Y-68297396D01*
X127279016Y-68300661D01*
G37*
%TD.AperFunction*%
%TD*%
%TA.AperFunction,Conductor*%
%TO.N,/A11*%
G36*
X123529752Y-73354961D02*
G01*
X123622038Y-73447247D01*
X123625465Y-73455520D01*
X123622572Y-73463222D01*
X123589148Y-73501439D01*
X123589141Y-73501448D01*
X123588837Y-73501796D01*
X123561663Y-73545436D01*
X123545536Y-73586899D01*
X123537743Y-73627176D01*
X123535568Y-73667261D01*
X123535572Y-73667469D01*
X123536293Y-73708075D01*
X123536294Y-73708117D01*
X123536294Y-73708145D01*
X123537200Y-73750476D01*
X123537196Y-73751142D01*
X123535612Y-73795686D01*
X123535507Y-73796885D01*
X123528835Y-73844771D01*
X123528530Y-73846252D01*
X123516223Y-73891100D01*
X123510729Y-73898172D01*
X123505170Y-73899702D01*
X123321996Y-73903283D01*
X123080932Y-73907995D01*
X123072593Y-73904730D01*
X123069005Y-73896068D01*
X123075868Y-73544968D01*
X123077298Y-73471831D01*
X123080886Y-73463627D01*
X123085897Y-73460778D01*
X123130755Y-73448467D01*
X123132223Y-73448165D01*
X123160052Y-73444287D01*
X123180114Y-73441492D01*
X123181313Y-73441387D01*
X123200492Y-73440705D01*
X123225870Y-73439803D01*
X123226508Y-73439799D01*
X123268854Y-73440705D01*
X123309738Y-73441431D01*
X123310549Y-73441387D01*
X123349426Y-73439278D01*
X123349433Y-73439277D01*
X123349823Y-73439256D01*
X123390100Y-73431463D01*
X123431563Y-73415336D01*
X123432028Y-73415047D01*
X123432031Y-73415045D01*
X123474802Y-73388412D01*
X123474805Y-73388410D01*
X123475203Y-73388162D01*
X123513777Y-73354427D01*
X123522260Y-73351560D01*
X123529752Y-73354961D01*
G37*
%TD.AperFunction*%
%TD*%
%TA.AperFunction,Conductor*%
%TO.N,/A11*%
G36*
X126441950Y-70558787D02*
G01*
X127013583Y-70893642D01*
X127386662Y-71112187D01*
X127392068Y-71119325D01*
X127390843Y-71128196D01*
X127388859Y-71130714D01*
X126726748Y-71767435D01*
X126657986Y-71833560D01*
X126649647Y-71836825D01*
X126643499Y-71834936D01*
X126641383Y-71833560D01*
X126619118Y-71819086D01*
X126539666Y-71767435D01*
X126537833Y-71765962D01*
X126442543Y-71672111D01*
X126441547Y-71670996D01*
X126357896Y-71564342D01*
X126357456Y-71563743D01*
X126282006Y-71453842D01*
X126281995Y-71453826D01*
X126211402Y-71350631D01*
X126142219Y-71264078D01*
X126130057Y-71253818D01*
X126071715Y-71204598D01*
X126071713Y-71204597D01*
X126070824Y-71203847D01*
X125993587Y-71179599D01*
X125992027Y-71179984D01*
X125908053Y-71200708D01*
X125908051Y-71200709D01*
X125906872Y-71201000D01*
X125902190Y-71204598D01*
X125815191Y-71271455D01*
X125806543Y-71273779D01*
X125799789Y-71270451D01*
X125707711Y-71178373D01*
X125704284Y-71170100D01*
X125707861Y-71161680D01*
X125793919Y-71078655D01*
X125794261Y-71078337D01*
X125824674Y-71051254D01*
X125876785Y-71004850D01*
X125877122Y-71004562D01*
X125950392Y-70944604D01*
X125950735Y-70944334D01*
X126017502Y-70893732D01*
X126017729Y-70893564D01*
X126080851Y-70848082D01*
X126080853Y-70848085D01*
X126080883Y-70848059D01*
X126142929Y-70803666D01*
X126142987Y-70803624D01*
X126206554Y-70756262D01*
X126206648Y-70756192D01*
X126206744Y-70756115D01*
X126274518Y-70701672D01*
X126274529Y-70701663D01*
X126274632Y-70701580D01*
X126296874Y-70682029D01*
X126349531Y-70635745D01*
X126349545Y-70635732D01*
X126349618Y-70635668D01*
X126349684Y-70635604D01*
X126349701Y-70635589D01*
X126427933Y-70560445D01*
X126436274Y-70557185D01*
X126441950Y-70558787D01*
G37*
%TD.AperFunction*%
%TD*%
%TA.AperFunction,Conductor*%
%TO.N,/A4*%
G36*
X115246223Y-73354427D02*
G01*
X115284796Y-73388162D01*
X115285194Y-73388410D01*
X115285197Y-73388412D01*
X115327968Y-73415045D01*
X115327971Y-73415047D01*
X115328436Y-73415336D01*
X115369899Y-73431463D01*
X115410176Y-73439256D01*
X115410566Y-73439277D01*
X115410573Y-73439278D01*
X115449450Y-73441387D01*
X115450261Y-73441431D01*
X115491145Y-73440705D01*
X115533491Y-73439799D01*
X115534129Y-73439803D01*
X115559507Y-73440705D01*
X115578686Y-73441387D01*
X115579885Y-73441492D01*
X115599947Y-73444287D01*
X115627776Y-73448165D01*
X115629247Y-73448468D01*
X115674100Y-73460777D01*
X115681172Y-73466271D01*
X115682702Y-73471830D01*
X115684132Y-73544968D01*
X115690995Y-73896068D01*
X115687730Y-73904407D01*
X115679068Y-73907995D01*
X115438004Y-73903283D01*
X115254831Y-73899702D01*
X115246627Y-73896114D01*
X115243777Y-73891100D01*
X115231469Y-73846252D01*
X115231164Y-73844771D01*
X115224492Y-73796885D01*
X115224387Y-73795686D01*
X115222803Y-73751142D01*
X115222799Y-73750476D01*
X115223705Y-73708145D01*
X115223705Y-73708117D01*
X115223706Y-73708075D01*
X115224427Y-73667469D01*
X115224431Y-73667261D01*
X115222256Y-73627176D01*
X115214463Y-73586899D01*
X115198336Y-73545436D01*
X115171162Y-73501796D01*
X115137427Y-73463223D01*
X115134560Y-73454740D01*
X115137961Y-73447248D01*
X115230248Y-73354961D01*
X115238521Y-73351534D01*
X115246223Y-73354427D01*
G37*
%TD.AperFunction*%
%TD*%
%TA.AperFunction,Conductor*%
%TO.N,/A4*%
G36*
X112332067Y-70560445D02*
G01*
X112410298Y-70635589D01*
X112410315Y-70635604D01*
X112410381Y-70635668D01*
X112410454Y-70635732D01*
X112410468Y-70635745D01*
X112463125Y-70682029D01*
X112485367Y-70701580D01*
X112485470Y-70701663D01*
X112485481Y-70701672D01*
X112553255Y-70756115D01*
X112553351Y-70756192D01*
X112553445Y-70756262D01*
X112617012Y-70803624D01*
X112617070Y-70803666D01*
X112679116Y-70848059D01*
X112679139Y-70848095D01*
X112679148Y-70848082D01*
X112742270Y-70893564D01*
X112742497Y-70893732D01*
X112809264Y-70944334D01*
X112809607Y-70944604D01*
X112882877Y-71004562D01*
X112883214Y-71004850D01*
X112935325Y-71051254D01*
X112965738Y-71078337D01*
X112966080Y-71078655D01*
X113052139Y-71161680D01*
X113055714Y-71169890D01*
X113052289Y-71178373D01*
X112960211Y-71270451D01*
X112951938Y-71273878D01*
X112944809Y-71271455D01*
X112856832Y-71203847D01*
X112853127Y-71201000D01*
X112851948Y-71200709D01*
X112851946Y-71200708D01*
X112767972Y-71179984D01*
X112766412Y-71179599D01*
X112689175Y-71203847D01*
X112688286Y-71204597D01*
X112688284Y-71204598D01*
X112629942Y-71253818D01*
X112617780Y-71264078D01*
X112548597Y-71350631D01*
X112478004Y-71453826D01*
X112477993Y-71453842D01*
X112402543Y-71563743D01*
X112402103Y-71564342D01*
X112318452Y-71670996D01*
X112317456Y-71672111D01*
X112222166Y-71765962D01*
X112220333Y-71767435D01*
X112145462Y-71816108D01*
X112118618Y-71833560D01*
X112116501Y-71834936D01*
X112107697Y-71836573D01*
X112102014Y-71833560D01*
X112033252Y-71767435D01*
X111371142Y-71130715D01*
X111367554Y-71122511D01*
X111370819Y-71114172D01*
X111373338Y-71112187D01*
X111746417Y-70893642D01*
X112318049Y-70558788D01*
X112326919Y-70557563D01*
X112332067Y-70560445D01*
G37*
%TD.AperFunction*%
%TD*%
%TA.AperFunction,Conductor*%
%TO.N,/A5*%
G36*
X115313631Y-72025035D02*
G01*
X115356440Y-72063518D01*
X115356704Y-72063755D01*
X115404089Y-72096815D01*
X115420260Y-72105123D01*
X115448210Y-72119482D01*
X115448218Y-72119485D01*
X115448546Y-72119654D01*
X115491087Y-72135130D01*
X115491337Y-72135196D01*
X115491347Y-72135199D01*
X115532602Y-72146068D01*
X115532619Y-72146072D01*
X115532721Y-72146099D01*
X115532832Y-72146124D01*
X115532837Y-72146125D01*
X115574360Y-72155397D01*
X115574601Y-72155454D01*
X115616898Y-72165845D01*
X115617715Y-72166078D01*
X115625223Y-72168513D01*
X115661694Y-72180345D01*
X115662860Y-72180793D01*
X115709779Y-72201773D01*
X115710997Y-72202407D01*
X115721336Y-72208598D01*
X115755242Y-72228901D01*
X115760579Y-72236091D01*
X115760588Y-72241751D01*
X115658576Y-72653712D01*
X115653261Y-72660919D01*
X115643965Y-72662138D01*
X115236429Y-72544138D01*
X115229435Y-72538546D01*
X115227983Y-72532911D01*
X115227943Y-72490692D01*
X115228038Y-72489194D01*
X115233903Y-72443432D01*
X115234085Y-72442389D01*
X115243495Y-72399895D01*
X115243601Y-72399455D01*
X115254132Y-72359336D01*
X115254156Y-72359239D01*
X115263168Y-72321137D01*
X115263235Y-72320854D01*
X115268291Y-72283434D01*
X115266785Y-72246102D01*
X115263245Y-72233348D01*
X115256375Y-72208598D01*
X115256374Y-72208595D01*
X115256190Y-72207933D01*
X115233976Y-72168001D01*
X115211836Y-72142048D01*
X115204633Y-72133604D01*
X115201871Y-72125086D01*
X115205261Y-72117738D01*
X115297536Y-72025463D01*
X115305809Y-72022036D01*
X115313631Y-72025035D01*
G37*
%TD.AperFunction*%
%TD*%
%TA.AperFunction,Conductor*%
%TO.N,/A5*%
G36*
X112086323Y-68309066D02*
G01*
X112506799Y-68317286D01*
X112515003Y-68320874D01*
X112517903Y-68326077D01*
X112550078Y-68451516D01*
X112550402Y-68453418D01*
X112560874Y-68574931D01*
X112560903Y-68576513D01*
X112555337Y-68689152D01*
X112555251Y-68690097D01*
X112541181Y-68796547D01*
X112526299Y-68898851D01*
X112518417Y-68998911D01*
X112525285Y-69099098D01*
X112554656Y-69201785D01*
X112614279Y-69309342D01*
X112644809Y-69345243D01*
X112704914Y-69415922D01*
X112707663Y-69424445D01*
X112704274Y-69431775D01*
X112611775Y-69524274D01*
X112603502Y-69527701D01*
X112595922Y-69524914D01*
X112536854Y-69474683D01*
X112489342Y-69434279D01*
X112381785Y-69374656D01*
X112365780Y-69370078D01*
X112279689Y-69345454D01*
X112279098Y-69345285D01*
X112278486Y-69345243D01*
X112179338Y-69338446D01*
X112179334Y-69338446D01*
X112178911Y-69338417D01*
X112078851Y-69346299D01*
X112078654Y-69346328D01*
X112078651Y-69346328D01*
X112056939Y-69349486D01*
X111976571Y-69361178D01*
X111976525Y-69361184D01*
X111870097Y-69375251D01*
X111869163Y-69375336D01*
X111756511Y-69380903D01*
X111754932Y-69380874D01*
X111633417Y-69370402D01*
X111631516Y-69370078D01*
X111506077Y-69337903D01*
X111498915Y-69332528D01*
X111497286Y-69326799D01*
X111494854Y-69202362D01*
X111480194Y-68452456D01*
X111477396Y-68309323D01*
X111480661Y-68300984D01*
X111489323Y-68297396D01*
X112086323Y-68309066D01*
G37*
%TD.AperFunction*%
%TD*%
%TA.AperFunction,Conductor*%
%TO.N,/D6*%
G36*
X123474103Y-79947750D02*
G01*
X123478099Y-79951758D01*
X123504591Y-79996002D01*
X123505226Y-79997220D01*
X123525722Y-80043057D01*
X123526206Y-80044139D01*
X123526654Y-80045305D01*
X123540921Y-80089282D01*
X123541154Y-80090101D01*
X123551545Y-80132398D01*
X123551602Y-80132639D01*
X123560900Y-80174278D01*
X123571869Y-80215912D01*
X123587345Y-80258453D01*
X123587514Y-80258781D01*
X123587517Y-80258789D01*
X123601876Y-80286739D01*
X123610184Y-80302910D01*
X123643244Y-80350295D01*
X123643479Y-80350556D01*
X123643481Y-80350559D01*
X123681965Y-80393369D01*
X123684947Y-80401813D01*
X123681537Y-80409464D01*
X123589262Y-80501739D01*
X123580989Y-80505166D01*
X123573396Y-80502367D01*
X123546024Y-80479017D01*
X123538998Y-80473023D01*
X123499066Y-80450809D01*
X123498404Y-80450625D01*
X123498401Y-80450624D01*
X123461546Y-80440394D01*
X123461545Y-80440394D01*
X123460897Y-80440214D01*
X123423565Y-80438708D01*
X123411087Y-80440394D01*
X123386431Y-80443725D01*
X123386424Y-80443726D01*
X123386145Y-80443764D01*
X123385861Y-80443831D01*
X123385862Y-80443831D01*
X123347760Y-80452843D01*
X123347744Y-80452847D01*
X123347710Y-80452855D01*
X123347685Y-80452861D01*
X123347663Y-80452867D01*
X123307544Y-80463398D01*
X123307104Y-80463504D01*
X123264610Y-80472914D01*
X123263567Y-80473096D01*
X123217805Y-80478961D01*
X123216307Y-80479056D01*
X123174089Y-80479017D01*
X123165819Y-80475583D01*
X123162862Y-80470571D01*
X123044862Y-80063035D01*
X123045852Y-80054135D01*
X123053288Y-80048424D01*
X123465249Y-79946412D01*
X123474103Y-79947750D01*
G37*
%TD.AperFunction*%
%TD*%
%TA.AperFunction,Conductor*%
%TO.N,/D6*%
G36*
X126164078Y-82875086D02*
G01*
X126223453Y-82925578D01*
X126270657Y-82965720D01*
X126378214Y-83025343D01*
X126378849Y-83025525D01*
X126378850Y-83025525D01*
X126425290Y-83038808D01*
X126480901Y-83054714D01*
X126481513Y-83054756D01*
X126580661Y-83061553D01*
X126580665Y-83061553D01*
X126581088Y-83061582D01*
X126681148Y-83053700D01*
X126681345Y-83053671D01*
X126681348Y-83053671D01*
X126703060Y-83050513D01*
X126783428Y-83038821D01*
X126783474Y-83038815D01*
X126889902Y-83024748D01*
X126890836Y-83024663D01*
X127003488Y-83019096D01*
X127005067Y-83019125D01*
X127126582Y-83029597D01*
X127128483Y-83029921D01*
X127253923Y-83062097D01*
X127261085Y-83067472D01*
X127262714Y-83073200D01*
X127265158Y-83198214D01*
X127282604Y-84090677D01*
X127279339Y-84099016D01*
X127270677Y-84102604D01*
X126673677Y-84090934D01*
X126253201Y-84082714D01*
X126244997Y-84079126D01*
X126242097Y-84073923D01*
X126209921Y-83948483D01*
X126209597Y-83946581D01*
X126199125Y-83825068D01*
X126199096Y-83823486D01*
X126204662Y-83710847D01*
X126204749Y-83709891D01*
X126218808Y-83603525D01*
X126218829Y-83603374D01*
X126233671Y-83501348D01*
X126233671Y-83501345D01*
X126233700Y-83501148D01*
X126241582Y-83401088D01*
X126234714Y-83300901D01*
X126205343Y-83198214D01*
X126145720Y-83090657D01*
X126084889Y-83019125D01*
X126055086Y-82984078D01*
X126052337Y-82975555D01*
X126055726Y-82968225D01*
X126148225Y-82875726D01*
X126156498Y-82872299D01*
X126164078Y-82875086D01*
G37*
%TD.AperFunction*%
%TD*%
%TA.AperFunction,Conductor*%
%TO.N,/A6*%
G36*
X115246223Y-70814427D02*
G01*
X115284796Y-70848162D01*
X115285194Y-70848410D01*
X115285197Y-70848412D01*
X115327968Y-70875045D01*
X115327971Y-70875047D01*
X115328436Y-70875336D01*
X115369899Y-70891463D01*
X115410176Y-70899256D01*
X115410566Y-70899277D01*
X115410573Y-70899278D01*
X115449450Y-70901387D01*
X115450261Y-70901431D01*
X115491145Y-70900705D01*
X115533491Y-70899799D01*
X115534129Y-70899803D01*
X115559507Y-70900705D01*
X115578686Y-70901387D01*
X115579885Y-70901492D01*
X115599947Y-70904287D01*
X115627776Y-70908165D01*
X115629247Y-70908468D01*
X115674100Y-70920777D01*
X115681172Y-70926271D01*
X115682702Y-70931830D01*
X115684132Y-71004968D01*
X115690995Y-71356068D01*
X115687730Y-71364407D01*
X115679068Y-71367995D01*
X115438004Y-71363283D01*
X115254831Y-71359702D01*
X115246627Y-71356114D01*
X115243777Y-71351100D01*
X115231469Y-71306252D01*
X115231164Y-71304771D01*
X115224492Y-71256885D01*
X115224387Y-71255686D01*
X115222803Y-71211142D01*
X115222799Y-71210476D01*
X115223705Y-71168145D01*
X115223705Y-71168117D01*
X115223706Y-71168075D01*
X115224427Y-71127469D01*
X115224431Y-71127261D01*
X115222256Y-71087176D01*
X115214463Y-71046899D01*
X115198336Y-71005436D01*
X115171162Y-70961796D01*
X115137427Y-70923223D01*
X115134560Y-70914740D01*
X115137961Y-70907248D01*
X115230248Y-70814961D01*
X115238521Y-70811534D01*
X115246223Y-70814427D01*
G37*
%TD.AperFunction*%
%TD*%
%TA.AperFunction,Conductor*%
%TO.N,/A6*%
G36*
X112086323Y-65769066D02*
G01*
X112506799Y-65777286D01*
X112515003Y-65780874D01*
X112517903Y-65786077D01*
X112550078Y-65911516D01*
X112550402Y-65913418D01*
X112560874Y-66034931D01*
X112560903Y-66036513D01*
X112555337Y-66149152D01*
X112555251Y-66150097D01*
X112541181Y-66256547D01*
X112526299Y-66358851D01*
X112518417Y-66458911D01*
X112525285Y-66559098D01*
X112554656Y-66661785D01*
X112614279Y-66769342D01*
X112644809Y-66805243D01*
X112704914Y-66875922D01*
X112707663Y-66884445D01*
X112704274Y-66891775D01*
X112611775Y-66984274D01*
X112603502Y-66987701D01*
X112595922Y-66984914D01*
X112536854Y-66934683D01*
X112489342Y-66894279D01*
X112381785Y-66834656D01*
X112365780Y-66830078D01*
X112279689Y-66805454D01*
X112279098Y-66805285D01*
X112278486Y-66805243D01*
X112179338Y-66798446D01*
X112179334Y-66798446D01*
X112178911Y-66798417D01*
X112078851Y-66806299D01*
X112078654Y-66806328D01*
X112078651Y-66806328D01*
X112056939Y-66809486D01*
X111976571Y-66821178D01*
X111976525Y-66821184D01*
X111870097Y-66835251D01*
X111869163Y-66835336D01*
X111756511Y-66840903D01*
X111754932Y-66840874D01*
X111633417Y-66830402D01*
X111631516Y-66830078D01*
X111506077Y-66797903D01*
X111498915Y-66792528D01*
X111497286Y-66786799D01*
X111494854Y-66662362D01*
X111480194Y-65912456D01*
X111477396Y-65769323D01*
X111480661Y-65760984D01*
X111489323Y-65757396D01*
X112086323Y-65769066D01*
G37*
%TD.AperFunction*%
%TD*%
%TA.AperFunction,Conductor*%
%TO.N,/D5*%
G36*
X126164078Y-85415086D02*
G01*
X126223453Y-85465578D01*
X126270657Y-85505720D01*
X126378214Y-85565343D01*
X126378849Y-85565525D01*
X126378850Y-85565525D01*
X126425290Y-85578808D01*
X126480901Y-85594714D01*
X126481513Y-85594756D01*
X126580661Y-85601553D01*
X126580665Y-85601553D01*
X126581088Y-85601582D01*
X126681148Y-85593700D01*
X126681345Y-85593671D01*
X126681348Y-85593671D01*
X126703060Y-85590513D01*
X126783428Y-85578821D01*
X126783474Y-85578815D01*
X126889902Y-85564748D01*
X126890836Y-85564663D01*
X127003488Y-85559096D01*
X127005067Y-85559125D01*
X127126582Y-85569597D01*
X127128483Y-85569921D01*
X127253923Y-85602097D01*
X127261085Y-85607472D01*
X127262714Y-85613200D01*
X127265158Y-85738214D01*
X127282604Y-86630677D01*
X127279339Y-86639016D01*
X127270677Y-86642604D01*
X126673677Y-86630934D01*
X126253201Y-86622714D01*
X126244997Y-86619126D01*
X126242097Y-86613923D01*
X126209921Y-86488483D01*
X126209597Y-86486581D01*
X126199125Y-86365068D01*
X126199096Y-86363486D01*
X126204662Y-86250847D01*
X126204749Y-86249891D01*
X126218808Y-86143525D01*
X126218829Y-86143374D01*
X126233671Y-86041348D01*
X126233671Y-86041345D01*
X126233700Y-86041148D01*
X126241582Y-85941088D01*
X126234714Y-85840901D01*
X126205343Y-85738214D01*
X126145720Y-85630657D01*
X126084889Y-85559125D01*
X126055086Y-85524078D01*
X126052337Y-85515555D01*
X126055726Y-85508225D01*
X126148225Y-85415726D01*
X126156498Y-85412299D01*
X126164078Y-85415086D01*
G37*
%TD.AperFunction*%
%TD*%
%TA.AperFunction,Conductor*%
%TO.N,/D5*%
G36*
X123321996Y-81290717D02*
G01*
X123505169Y-81294298D01*
X123513373Y-81297886D01*
X123516223Y-81302900D01*
X123528530Y-81347747D01*
X123528835Y-81349228D01*
X123535507Y-81397114D01*
X123535612Y-81398313D01*
X123537196Y-81442857D01*
X123537200Y-81443508D01*
X123536294Y-81485854D01*
X123535568Y-81526738D01*
X123537743Y-81566823D01*
X123545536Y-81607100D01*
X123561663Y-81648563D01*
X123588837Y-81692203D01*
X123615045Y-81722169D01*
X123622573Y-81730777D01*
X123625440Y-81739260D01*
X123622039Y-81746752D01*
X123529752Y-81839039D01*
X123521479Y-81842466D01*
X123513777Y-81839573D01*
X123509665Y-81835977D01*
X123475203Y-81805837D01*
X123474802Y-81805587D01*
X123432031Y-81778954D01*
X123432028Y-81778952D01*
X123431563Y-81778663D01*
X123390100Y-81762536D01*
X123349823Y-81754743D01*
X123349433Y-81754722D01*
X123349426Y-81754721D01*
X123309941Y-81752579D01*
X123309738Y-81752568D01*
X123268854Y-81753294D01*
X123226508Y-81754200D01*
X123225870Y-81754196D01*
X123199417Y-81753256D01*
X123181313Y-81752612D01*
X123180114Y-81752507D01*
X123160052Y-81749712D01*
X123132223Y-81745834D01*
X123130752Y-81745531D01*
X123085899Y-81733222D01*
X123078828Y-81727729D01*
X123077298Y-81722169D01*
X123076705Y-81691802D01*
X123072679Y-81485882D01*
X123069005Y-81297932D01*
X123072270Y-81289593D01*
X123080932Y-81286005D01*
X123321996Y-81290717D01*
G37*
%TD.AperFunction*%
%TD*%
%TA.AperFunction,Conductor*%
%TO.N,/A7*%
G36*
X112086323Y-63229066D02*
G01*
X112506799Y-63237286D01*
X112515003Y-63240874D01*
X112517903Y-63246077D01*
X112550078Y-63371516D01*
X112550402Y-63373418D01*
X112560874Y-63494931D01*
X112560903Y-63496513D01*
X112555337Y-63609152D01*
X112555251Y-63610097D01*
X112541181Y-63716547D01*
X112526299Y-63818851D01*
X112518417Y-63918911D01*
X112525285Y-64019098D01*
X112554656Y-64121785D01*
X112614279Y-64229342D01*
X112644809Y-64265243D01*
X112704914Y-64335922D01*
X112707663Y-64344445D01*
X112704274Y-64351775D01*
X112611775Y-64444274D01*
X112603502Y-64447701D01*
X112595922Y-64444914D01*
X112536854Y-64394683D01*
X112489342Y-64354279D01*
X112381785Y-64294656D01*
X112365780Y-64290078D01*
X112279689Y-64265454D01*
X112279098Y-64265285D01*
X112278486Y-64265243D01*
X112179338Y-64258446D01*
X112179334Y-64258446D01*
X112178911Y-64258417D01*
X112078851Y-64266299D01*
X112078654Y-64266328D01*
X112078651Y-64266328D01*
X112056939Y-64269486D01*
X111976571Y-64281178D01*
X111976525Y-64281184D01*
X111870097Y-64295251D01*
X111869163Y-64295336D01*
X111756511Y-64300903D01*
X111754932Y-64300874D01*
X111633417Y-64290402D01*
X111631516Y-64290078D01*
X111506077Y-64257903D01*
X111498915Y-64252528D01*
X111497286Y-64246799D01*
X111494854Y-64122362D01*
X111480194Y-63372456D01*
X111477396Y-63229323D01*
X111480661Y-63220984D01*
X111489323Y-63217396D01*
X112086323Y-63229066D01*
G37*
%TD.AperFunction*%
%TD*%
%TA.AperFunction,Conductor*%
%TO.N,/A7*%
G36*
X115246223Y-69544427D02*
G01*
X115284796Y-69578162D01*
X115285194Y-69578410D01*
X115285197Y-69578412D01*
X115327968Y-69605045D01*
X115327971Y-69605047D01*
X115328436Y-69605336D01*
X115369899Y-69621463D01*
X115410176Y-69629256D01*
X115410566Y-69629277D01*
X115410573Y-69629278D01*
X115449450Y-69631387D01*
X115450261Y-69631431D01*
X115491145Y-69630705D01*
X115533491Y-69629799D01*
X115534129Y-69629803D01*
X115559507Y-69630705D01*
X115578686Y-69631387D01*
X115579885Y-69631492D01*
X115599947Y-69634287D01*
X115627776Y-69638165D01*
X115629247Y-69638468D01*
X115674100Y-69650777D01*
X115681172Y-69656271D01*
X115682702Y-69661830D01*
X115684132Y-69734968D01*
X115690995Y-70086068D01*
X115687730Y-70094407D01*
X115679068Y-70097995D01*
X115438004Y-70093283D01*
X115254831Y-70089702D01*
X115246627Y-70086114D01*
X115243777Y-70081100D01*
X115231469Y-70036252D01*
X115231164Y-70034771D01*
X115224492Y-69986885D01*
X115224387Y-69985686D01*
X115222803Y-69941142D01*
X115222799Y-69940476D01*
X115223705Y-69898145D01*
X115223705Y-69898117D01*
X115223706Y-69898075D01*
X115224427Y-69857469D01*
X115224431Y-69857261D01*
X115222256Y-69817176D01*
X115214463Y-69776899D01*
X115198336Y-69735436D01*
X115171162Y-69691796D01*
X115137427Y-69653223D01*
X115134560Y-69644740D01*
X115137961Y-69637248D01*
X115230248Y-69544961D01*
X115238521Y-69541534D01*
X115246223Y-69544427D01*
G37*
%TD.AperFunction*%
%TD*%
%TA.AperFunction,Conductor*%
%TO.N,/D4*%
G36*
X123198433Y-82514319D02*
G01*
X123492550Y-82820164D01*
X123495815Y-82828503D01*
X123494285Y-82834062D01*
X123471270Y-82874486D01*
X123470446Y-82875738D01*
X123441292Y-82914331D01*
X123440531Y-82915237D01*
X123424733Y-82932202D01*
X123410153Y-82947856D01*
X123409685Y-82948330D01*
X123379109Y-82977625D01*
X123349686Y-83006021D01*
X123349550Y-83006173D01*
X123349539Y-83006184D01*
X123335451Y-83021890D01*
X123322880Y-83035904D01*
X123299910Y-83069895D01*
X123281994Y-83110617D01*
X123270351Y-83160691D01*
X123270320Y-83161161D01*
X123270319Y-83161165D01*
X123266930Y-83211821D01*
X123262958Y-83219847D01*
X123255256Y-83222740D01*
X123124743Y-83222740D01*
X123116470Y-83219313D01*
X123113069Y-83211821D01*
X123109680Y-83161165D01*
X123109679Y-83161162D01*
X123109648Y-83160691D01*
X123098005Y-83110617D01*
X123080089Y-83069895D01*
X123057119Y-83035904D01*
X123044548Y-83021890D01*
X123030460Y-83006184D01*
X123030449Y-83006173D01*
X123030313Y-83006021D01*
X123000890Y-82977625D01*
X122970314Y-82948330D01*
X122969846Y-82947856D01*
X122955266Y-82932202D01*
X122939468Y-82915237D01*
X122938707Y-82914331D01*
X122909558Y-82875743D01*
X122908726Y-82874480D01*
X122885715Y-82834063D01*
X122884600Y-82825178D01*
X122887450Y-82820164D01*
X123181567Y-82514319D01*
X123189771Y-82510731D01*
X123198433Y-82514319D01*
G37*
%TD.AperFunction*%
%TD*%
%TA.AperFunction,Conductor*%
%TO.N,/D4*%
G36*
X126164078Y-87955086D02*
G01*
X126223453Y-88005578D01*
X126270657Y-88045720D01*
X126378214Y-88105343D01*
X126378849Y-88105525D01*
X126378850Y-88105525D01*
X126425290Y-88118808D01*
X126480901Y-88134714D01*
X126481513Y-88134756D01*
X126580661Y-88141553D01*
X126580665Y-88141553D01*
X126581088Y-88141582D01*
X126681148Y-88133700D01*
X126681345Y-88133671D01*
X126681348Y-88133671D01*
X126703060Y-88130513D01*
X126783428Y-88118821D01*
X126783474Y-88118815D01*
X126889902Y-88104748D01*
X126890836Y-88104663D01*
X127003488Y-88099096D01*
X127005067Y-88099125D01*
X127126582Y-88109597D01*
X127128483Y-88109921D01*
X127253923Y-88142097D01*
X127261085Y-88147472D01*
X127262714Y-88153200D01*
X127265158Y-88278214D01*
X127282604Y-89170677D01*
X127279339Y-89179016D01*
X127270677Y-89182604D01*
X126673677Y-89170934D01*
X126253201Y-89162714D01*
X126244997Y-89159126D01*
X126242097Y-89153923D01*
X126209921Y-89028483D01*
X126209597Y-89026581D01*
X126199125Y-88905068D01*
X126199096Y-88903486D01*
X126204662Y-88790847D01*
X126204749Y-88789891D01*
X126218808Y-88683525D01*
X126218829Y-88683374D01*
X126233671Y-88581348D01*
X126233671Y-88581345D01*
X126233700Y-88581148D01*
X126241582Y-88481088D01*
X126234714Y-88380901D01*
X126205343Y-88278214D01*
X126145720Y-88170657D01*
X126084889Y-88099125D01*
X126055086Y-88064078D01*
X126052337Y-88055555D01*
X126055726Y-88048225D01*
X126148225Y-87955726D01*
X126156498Y-87952299D01*
X126164078Y-87955086D01*
G37*
%TD.AperFunction*%
%TD*%
%TA.AperFunction,Conductor*%
%TO.N,/A12*%
G36*
X115643529Y-68164687D02*
G01*
X115646930Y-68172179D01*
X115650351Y-68223308D01*
X115661994Y-68273382D01*
X115679910Y-68314104D01*
X115702880Y-68348095D01*
X115715451Y-68362109D01*
X115729539Y-68377815D01*
X115729550Y-68377826D01*
X115729686Y-68377978D01*
X115759109Y-68406374D01*
X115789685Y-68435669D01*
X115790153Y-68436143D01*
X115804733Y-68451797D01*
X115820531Y-68468762D01*
X115821292Y-68469668D01*
X115850446Y-68508261D01*
X115851270Y-68509513D01*
X115874285Y-68549937D01*
X115875400Y-68558822D01*
X115872550Y-68563836D01*
X115578433Y-68869681D01*
X115570229Y-68873269D01*
X115561567Y-68869681D01*
X115267450Y-68563836D01*
X115264185Y-68555497D01*
X115265715Y-68549937D01*
X115288726Y-68509519D01*
X115289558Y-68508256D01*
X115301812Y-68492033D01*
X115318707Y-68469668D01*
X115319468Y-68468762D01*
X115335266Y-68451797D01*
X115349846Y-68436143D01*
X115350314Y-68435669D01*
X115380890Y-68406374D01*
X115410313Y-68377978D01*
X115410449Y-68377826D01*
X115410460Y-68377815D01*
X115424548Y-68362109D01*
X115437119Y-68348095D01*
X115460089Y-68314104D01*
X115478005Y-68273382D01*
X115489648Y-68223308D01*
X115493069Y-68172178D01*
X115497041Y-68164153D01*
X115504743Y-68161260D01*
X115635256Y-68161260D01*
X115643529Y-68164687D01*
G37*
%TD.AperFunction*%
%TD*%
%TA.AperFunction,Conductor*%
%TO.N,/A12*%
G36*
X112086323Y-60689066D02*
G01*
X112506799Y-60697286D01*
X112515003Y-60700874D01*
X112517903Y-60706077D01*
X112550078Y-60831516D01*
X112550402Y-60833418D01*
X112560874Y-60954931D01*
X112560903Y-60956513D01*
X112555337Y-61069152D01*
X112555251Y-61070097D01*
X112541181Y-61176547D01*
X112526299Y-61278851D01*
X112518417Y-61378911D01*
X112525285Y-61479098D01*
X112554656Y-61581785D01*
X112614279Y-61689342D01*
X112644809Y-61725243D01*
X112704914Y-61795922D01*
X112707663Y-61804445D01*
X112704274Y-61811775D01*
X112611775Y-61904274D01*
X112603502Y-61907701D01*
X112595922Y-61904914D01*
X112536854Y-61854683D01*
X112489342Y-61814279D01*
X112381785Y-61754656D01*
X112365780Y-61750078D01*
X112279689Y-61725454D01*
X112279098Y-61725285D01*
X112278486Y-61725243D01*
X112179338Y-61718446D01*
X112179334Y-61718446D01*
X112178911Y-61718417D01*
X112078851Y-61726299D01*
X112078654Y-61726328D01*
X112078651Y-61726328D01*
X112056939Y-61729486D01*
X111976571Y-61741178D01*
X111976525Y-61741184D01*
X111870097Y-61755251D01*
X111869163Y-61755336D01*
X111756511Y-61760903D01*
X111754932Y-61760874D01*
X111633417Y-61750402D01*
X111631516Y-61750078D01*
X111506077Y-61717903D01*
X111498915Y-61712528D01*
X111497286Y-61706799D01*
X111494854Y-61582362D01*
X111480194Y-60832456D01*
X111477396Y-60689323D01*
X111480661Y-60680984D01*
X111489323Y-60677396D01*
X112086323Y-60689066D01*
G37*
%TD.AperFunction*%
%TD*%
%TA.AperFunction,Conductor*%
%TO.N,/CE2*%
G36*
X126657701Y-62786166D02*
G01*
X127320762Y-63423800D01*
X127391231Y-63491567D01*
X127394819Y-63499771D01*
X127391231Y-63508433D01*
X126657701Y-64213834D01*
X126649362Y-64217099D01*
X126643633Y-64215470D01*
X126532177Y-64149519D01*
X126530611Y-64148409D01*
X126437277Y-64069885D01*
X126436141Y-64068790D01*
X126360435Y-63985211D01*
X126359820Y-63984474D01*
X126294535Y-63899305D01*
X126294443Y-63899183D01*
X126232798Y-63816550D01*
X126232681Y-63816393D01*
X126167502Y-63740067D01*
X126091802Y-63674080D01*
X126091266Y-63673783D01*
X126091264Y-63673781D01*
X126046349Y-63648845D01*
X125998423Y-63622238D01*
X125880208Y-63588343D01*
X125879638Y-63588297D01*
X125879633Y-63588296D01*
X125800593Y-63581907D01*
X125740756Y-63577070D01*
X125732787Y-63572988D01*
X125730000Y-63565408D01*
X125730000Y-63434592D01*
X125733427Y-63426319D01*
X125740756Y-63422930D01*
X125799802Y-63418157D01*
X125879632Y-63411703D01*
X125879636Y-63411702D01*
X125880208Y-63411656D01*
X125998423Y-63377761D01*
X126046349Y-63351154D01*
X126091264Y-63326218D01*
X126091266Y-63326216D01*
X126091802Y-63325919D01*
X126167502Y-63259932D01*
X126232681Y-63183606D01*
X126294443Y-63100816D01*
X126294535Y-63100694D01*
X126359820Y-63015525D01*
X126360435Y-63014788D01*
X126436141Y-62931209D01*
X126437280Y-62930111D01*
X126530611Y-62851590D01*
X126532177Y-62850480D01*
X126643633Y-62784530D01*
X126652498Y-62783266D01*
X126657701Y-62786166D01*
G37*
%TD.AperFunction*%
%TD*%
%TA.AperFunction,Conductor*%
%TO.N,/CE2*%
G36*
X123956996Y-62189917D02*
G01*
X124140169Y-62193498D01*
X124148373Y-62197086D01*
X124151223Y-62202100D01*
X124163530Y-62246947D01*
X124163835Y-62248428D01*
X124170507Y-62296314D01*
X124170612Y-62297513D01*
X124172196Y-62342057D01*
X124172200Y-62342708D01*
X124171294Y-62385054D01*
X124170568Y-62425938D01*
X124172743Y-62466023D01*
X124180536Y-62506300D01*
X124196663Y-62547763D01*
X124223837Y-62591403D01*
X124250045Y-62621369D01*
X124257573Y-62629977D01*
X124260440Y-62638460D01*
X124257039Y-62645952D01*
X124164752Y-62738239D01*
X124156479Y-62741666D01*
X124148777Y-62738773D01*
X124144665Y-62735177D01*
X124110203Y-62705037D01*
X124109802Y-62704787D01*
X124067031Y-62678154D01*
X124067028Y-62678152D01*
X124066563Y-62677863D01*
X124025100Y-62661736D01*
X123984823Y-62653943D01*
X123984433Y-62653922D01*
X123984426Y-62653921D01*
X123944941Y-62651779D01*
X123944738Y-62651768D01*
X123903854Y-62652494D01*
X123861508Y-62653400D01*
X123860870Y-62653396D01*
X123834417Y-62652456D01*
X123816313Y-62651812D01*
X123815114Y-62651707D01*
X123795052Y-62648912D01*
X123767223Y-62645034D01*
X123765752Y-62644731D01*
X123720899Y-62632422D01*
X123713828Y-62626929D01*
X123712298Y-62621369D01*
X123711705Y-62591002D01*
X123707679Y-62385082D01*
X123704005Y-62197132D01*
X123707270Y-62188793D01*
X123715932Y-62185205D01*
X123956996Y-62189917D01*
G37*
%TD.AperFunction*%
%TD*%
%TA.AperFunction,Conductor*%
%TO.N,/~{CE1}*%
G36*
X120908996Y-61732717D02*
G01*
X121092169Y-61736298D01*
X121100373Y-61739886D01*
X121103223Y-61744900D01*
X121115530Y-61789747D01*
X121115835Y-61791228D01*
X121122507Y-61839114D01*
X121122612Y-61840313D01*
X121124196Y-61884857D01*
X121124200Y-61885508D01*
X121123294Y-61927854D01*
X121122568Y-61968738D01*
X121124743Y-62008823D01*
X121132536Y-62049100D01*
X121148663Y-62090563D01*
X121175837Y-62134203D01*
X121202045Y-62164169D01*
X121209573Y-62172777D01*
X121212440Y-62181260D01*
X121209039Y-62188752D01*
X121116752Y-62281039D01*
X121108479Y-62284466D01*
X121100777Y-62281573D01*
X121096665Y-62277977D01*
X121062203Y-62247837D01*
X121061802Y-62247587D01*
X121019031Y-62220954D01*
X121019028Y-62220952D01*
X121018563Y-62220663D01*
X120977100Y-62204536D01*
X120936823Y-62196743D01*
X120936433Y-62196722D01*
X120936426Y-62196721D01*
X120896941Y-62194579D01*
X120896738Y-62194568D01*
X120855854Y-62195294D01*
X120813508Y-62196200D01*
X120812870Y-62196196D01*
X120786417Y-62195256D01*
X120768313Y-62194612D01*
X120767114Y-62194507D01*
X120747052Y-62191712D01*
X120719223Y-62187834D01*
X120717752Y-62187531D01*
X120672899Y-62175222D01*
X120665828Y-62169729D01*
X120664298Y-62164169D01*
X120663705Y-62133802D01*
X120659679Y-61927882D01*
X120656005Y-61739932D01*
X120659270Y-61731593D01*
X120667932Y-61728005D01*
X120908996Y-61732717D01*
G37*
%TD.AperFunction*%
%TD*%
%TA.AperFunction,Conductor*%
%TO.N,/~{CE1}*%
G36*
X126164078Y-77795086D02*
G01*
X126223453Y-77845578D01*
X126270657Y-77885720D01*
X126378214Y-77945343D01*
X126378849Y-77945525D01*
X126378850Y-77945525D01*
X126425290Y-77958808D01*
X126480901Y-77974714D01*
X126481513Y-77974756D01*
X126580661Y-77981553D01*
X126580665Y-77981553D01*
X126581088Y-77981582D01*
X126681148Y-77973700D01*
X126681345Y-77973671D01*
X126681348Y-77973671D01*
X126703060Y-77970513D01*
X126783428Y-77958821D01*
X126783474Y-77958815D01*
X126889902Y-77944748D01*
X126890836Y-77944663D01*
X127003488Y-77939096D01*
X127005067Y-77939125D01*
X127126582Y-77949597D01*
X127128483Y-77949921D01*
X127253923Y-77982097D01*
X127261085Y-77987472D01*
X127262714Y-77993200D01*
X127265158Y-78118214D01*
X127282604Y-79010677D01*
X127279339Y-79019016D01*
X127270677Y-79022604D01*
X126673677Y-79010934D01*
X126253201Y-79002714D01*
X126244997Y-78999126D01*
X126242097Y-78993923D01*
X126209921Y-78868483D01*
X126209597Y-78866581D01*
X126199125Y-78745068D01*
X126199096Y-78743486D01*
X126204662Y-78630847D01*
X126204749Y-78629891D01*
X126218808Y-78523525D01*
X126218829Y-78523374D01*
X126233671Y-78421348D01*
X126233671Y-78421345D01*
X126233700Y-78421148D01*
X126241582Y-78321088D01*
X126234714Y-78220901D01*
X126205343Y-78118214D01*
X126145720Y-78010657D01*
X126084889Y-77939125D01*
X126055086Y-77904078D01*
X126052337Y-77895555D01*
X126055726Y-77888225D01*
X126148225Y-77795726D01*
X126156498Y-77792299D01*
X126164078Y-77795086D01*
G37*
%TD.AperFunction*%
%TD*%
%TA.AperFunction,Conductor*%
%TO.N,/~{WE}*%
G36*
X124112833Y-63642119D02*
G01*
X124406950Y-63947964D01*
X124410215Y-63956303D01*
X124408685Y-63961862D01*
X124385670Y-64002286D01*
X124384846Y-64003538D01*
X124355692Y-64042131D01*
X124354931Y-64043037D01*
X124339133Y-64060002D01*
X124324553Y-64075656D01*
X124324085Y-64076130D01*
X124293509Y-64105425D01*
X124264086Y-64133821D01*
X124263950Y-64133973D01*
X124263939Y-64133984D01*
X124249851Y-64149690D01*
X124237280Y-64163704D01*
X124214310Y-64197695D01*
X124196394Y-64238417D01*
X124184751Y-64288491D01*
X124184720Y-64288961D01*
X124184719Y-64288965D01*
X124181330Y-64339621D01*
X124177358Y-64347647D01*
X124169656Y-64350540D01*
X124039143Y-64350540D01*
X124030870Y-64347113D01*
X124027469Y-64339621D01*
X124024080Y-64288965D01*
X124024079Y-64288962D01*
X124024048Y-64288491D01*
X124012405Y-64238417D01*
X123994489Y-64197695D01*
X123971519Y-64163704D01*
X123958948Y-64149690D01*
X123944860Y-64133984D01*
X123944849Y-64133973D01*
X123944713Y-64133821D01*
X123915290Y-64105425D01*
X123884714Y-64076130D01*
X123884246Y-64075656D01*
X123869666Y-64060002D01*
X123853868Y-64043037D01*
X123853107Y-64042131D01*
X123823958Y-64003543D01*
X123823126Y-64002280D01*
X123800115Y-63961863D01*
X123799000Y-63952978D01*
X123801850Y-63947964D01*
X124095967Y-63642119D01*
X124104171Y-63638531D01*
X124112833Y-63642119D01*
G37*
%TD.AperFunction*%
%TD*%
%TA.AperFunction,Conductor*%
%TO.N,/~{WE}*%
G36*
X123529752Y-68274961D02*
G01*
X123622038Y-68367247D01*
X123625465Y-68375520D01*
X123622572Y-68383222D01*
X123589148Y-68421439D01*
X123589141Y-68421448D01*
X123588837Y-68421796D01*
X123561663Y-68465436D01*
X123545536Y-68506899D01*
X123537743Y-68547176D01*
X123535568Y-68587261D01*
X123535572Y-68587469D01*
X123536293Y-68628075D01*
X123536294Y-68628117D01*
X123536294Y-68628145D01*
X123537200Y-68670476D01*
X123537196Y-68671142D01*
X123535612Y-68715686D01*
X123535507Y-68716885D01*
X123528835Y-68764771D01*
X123528530Y-68766252D01*
X123516223Y-68811100D01*
X123510729Y-68818172D01*
X123505170Y-68819702D01*
X123321996Y-68823283D01*
X123080932Y-68827995D01*
X123072593Y-68824730D01*
X123069005Y-68816068D01*
X123075868Y-68464968D01*
X123077298Y-68391831D01*
X123080886Y-68383627D01*
X123085897Y-68380778D01*
X123130755Y-68368467D01*
X123132223Y-68368165D01*
X123160052Y-68364287D01*
X123180114Y-68361492D01*
X123181313Y-68361387D01*
X123200492Y-68360705D01*
X123225870Y-68359803D01*
X123226508Y-68359799D01*
X123268854Y-68360705D01*
X123309738Y-68361431D01*
X123310549Y-68361387D01*
X123349426Y-68359278D01*
X123349433Y-68359277D01*
X123349823Y-68359256D01*
X123390100Y-68351463D01*
X123431563Y-68335336D01*
X123432028Y-68335047D01*
X123432031Y-68335045D01*
X123474802Y-68308412D01*
X123474805Y-68308410D01*
X123475203Y-68308162D01*
X123513777Y-68274427D01*
X123522260Y-68271560D01*
X123529752Y-68274961D01*
G37*
%TD.AperFunction*%
%TD*%
%TA.AperFunction,Conductor*%
%TO.N,/~{CE_STK}*%
G36*
X122866223Y-77164427D02*
G01*
X122904796Y-77198162D01*
X122905194Y-77198410D01*
X122905197Y-77198412D01*
X122947968Y-77225045D01*
X122947971Y-77225047D01*
X122948436Y-77225336D01*
X122989899Y-77241463D01*
X123030176Y-77249256D01*
X123030566Y-77249277D01*
X123030573Y-77249278D01*
X123069450Y-77251387D01*
X123070261Y-77251431D01*
X123111145Y-77250705D01*
X123153491Y-77249799D01*
X123154129Y-77249803D01*
X123179507Y-77250705D01*
X123198686Y-77251387D01*
X123199885Y-77251492D01*
X123219947Y-77254287D01*
X123247776Y-77258165D01*
X123249247Y-77258468D01*
X123294100Y-77270777D01*
X123301172Y-77276271D01*
X123302702Y-77281830D01*
X123304132Y-77354968D01*
X123310995Y-77706068D01*
X123307730Y-77714407D01*
X123299068Y-77717995D01*
X123058004Y-77713283D01*
X122874831Y-77709702D01*
X122866627Y-77706114D01*
X122863777Y-77701100D01*
X122851469Y-77656252D01*
X122851164Y-77654771D01*
X122844492Y-77606885D01*
X122844387Y-77605686D01*
X122842803Y-77561142D01*
X122842799Y-77560476D01*
X122843705Y-77518145D01*
X122843705Y-77518117D01*
X122843706Y-77518075D01*
X122844427Y-77477469D01*
X122844431Y-77477261D01*
X122842256Y-77437176D01*
X122834463Y-77396899D01*
X122818336Y-77355436D01*
X122791162Y-77311796D01*
X122757427Y-77273223D01*
X122754560Y-77264740D01*
X122757961Y-77257248D01*
X122850248Y-77164961D01*
X122858521Y-77161534D01*
X122866223Y-77164427D01*
G37*
%TD.AperFunction*%
%TD*%
%TA.AperFunction,Conductor*%
%TO.N,/~{CE_STK}*%
G36*
X120908996Y-62621717D02*
G01*
X121092169Y-62625298D01*
X121100373Y-62628886D01*
X121103223Y-62633900D01*
X121115530Y-62678747D01*
X121115835Y-62680228D01*
X121122507Y-62728114D01*
X121122612Y-62729313D01*
X121124196Y-62773857D01*
X121124200Y-62774508D01*
X121123294Y-62816854D01*
X121122568Y-62857738D01*
X121124743Y-62897823D01*
X121132536Y-62938100D01*
X121148663Y-62979563D01*
X121175837Y-63023203D01*
X121202045Y-63053169D01*
X121209573Y-63061777D01*
X121212440Y-63070260D01*
X121209039Y-63077752D01*
X121116752Y-63170039D01*
X121108479Y-63173466D01*
X121100777Y-63170573D01*
X121096665Y-63166977D01*
X121062203Y-63136837D01*
X121061802Y-63136587D01*
X121019031Y-63109954D01*
X121019028Y-63109952D01*
X121018563Y-63109663D01*
X120977100Y-63093536D01*
X120936823Y-63085743D01*
X120936433Y-63085722D01*
X120936426Y-63085721D01*
X120896941Y-63083579D01*
X120896738Y-63083568D01*
X120855854Y-63084294D01*
X120813508Y-63085200D01*
X120812870Y-63085196D01*
X120786417Y-63084256D01*
X120768313Y-63083612D01*
X120767114Y-63083507D01*
X120747052Y-63080712D01*
X120719223Y-63076834D01*
X120717752Y-63076531D01*
X120672899Y-63064222D01*
X120665828Y-63058729D01*
X120664298Y-63053169D01*
X120663705Y-63022802D01*
X120659679Y-62816882D01*
X120656005Y-62628932D01*
X120659270Y-62620593D01*
X120667932Y-62617005D01*
X120908996Y-62621717D01*
G37*
%TD.AperFunction*%
%TD*%
%TA.AperFunction,Conductor*%
%TO.N,+5V*%
G36*
X126393024Y-57472893D02*
G01*
X126418744Y-57517442D01*
X126409811Y-57568100D01*
X126391806Y-57589106D01*
X126279714Y-57679230D01*
X126274478Y-57684356D01*
X126149547Y-57833245D01*
X126145409Y-57839288D01*
X126051777Y-58009604D01*
X126048890Y-58016340D01*
X125990122Y-58201600D01*
X125988599Y-58208765D01*
X125983477Y-58254421D01*
X125986020Y-58264930D01*
X125989641Y-58267600D01*
X127077200Y-58267600D01*
X127125538Y-58285193D01*
X127151258Y-58329742D01*
X127152400Y-58342800D01*
X127152400Y-59426700D01*
X127156097Y-59436857D01*
X127160403Y-59439343D01*
X127175810Y-59438157D01*
X127183021Y-59436886D01*
X127370222Y-59384618D01*
X127377055Y-59381967D01*
X127550534Y-59294337D01*
X127556717Y-59290413D01*
X127709877Y-59170752D01*
X127715179Y-59165702D01*
X127832574Y-59029698D01*
X127877477Y-59004602D01*
X127928006Y-59014241D01*
X127960517Y-59054104D01*
X127964700Y-59078835D01*
X127964700Y-60303336D01*
X127947107Y-60351674D01*
X127902558Y-60377394D01*
X127851900Y-60368461D01*
X127831224Y-60350865D01*
X127736075Y-60234201D01*
X127736074Y-60234200D01*
X127733752Y-60231353D01*
X127730921Y-60229011D01*
X127730917Y-60229007D01*
X127647569Y-60160056D01*
X127578250Y-60102710D01*
X127567731Y-60097022D01*
X127519963Y-60071194D01*
X127400722Y-60006721D01*
X127352458Y-59991781D01*
X127211443Y-59948129D01*
X127211439Y-59948128D01*
X127207930Y-59947042D01*
X127069763Y-59932520D01*
X127010874Y-59926330D01*
X127010872Y-59926330D01*
X127007219Y-59925946D01*
X126806233Y-59944237D01*
X126612627Y-60001219D01*
X126433776Y-60094720D01*
X126430917Y-60097019D01*
X126430912Y-60097022D01*
X126279364Y-60218870D01*
X126279360Y-60218874D01*
X126276493Y-60221179D01*
X126274125Y-60224001D01*
X126274124Y-60224002D01*
X126149131Y-60372961D01*
X126149128Y-60372965D01*
X126146767Y-60375779D01*
X126144996Y-60379001D01*
X126144995Y-60379002D01*
X126051315Y-60549406D01*
X126049541Y-60552633D01*
X125988518Y-60745003D01*
X125966022Y-60945562D01*
X125966330Y-60949230D01*
X125966330Y-60949233D01*
X125977370Y-61080706D01*
X125982909Y-61146671D01*
X126038538Y-61340670D01*
X126040220Y-61343942D01*
X126040220Y-61343943D01*
X126044544Y-61352357D01*
X126130788Y-61520169D01*
X126256146Y-61678332D01*
X126409837Y-61809133D01*
X126413038Y-61810922D01*
X126413041Y-61810924D01*
X126455691Y-61834760D01*
X126586007Y-61907591D01*
X126777947Y-61969956D01*
X126870925Y-61981043D01*
X126974686Y-61993416D01*
X126974688Y-61993416D01*
X126978344Y-61993852D01*
X127179566Y-61978369D01*
X127344203Y-61932401D01*
X127370410Y-61925084D01*
X127370411Y-61925083D01*
X127373948Y-61924096D01*
X127377222Y-61922442D01*
X127377225Y-61922441D01*
X127468098Y-61876538D01*
X127554087Y-61833102D01*
X127556985Y-61830838D01*
X127556988Y-61830836D01*
X127710223Y-61711116D01*
X127710228Y-61711111D01*
X127713121Y-61708851D01*
X127832575Y-61570463D01*
X127877477Y-61545367D01*
X127928006Y-61555006D01*
X127960517Y-61594869D01*
X127964700Y-61619600D01*
X127964700Y-62843336D01*
X127947107Y-62891674D01*
X127902558Y-62917394D01*
X127851900Y-62908461D01*
X127831224Y-62890865D01*
X127828476Y-62887495D01*
X127804342Y-62857905D01*
X127736075Y-62774201D01*
X127736074Y-62774200D01*
X127733752Y-62771353D01*
X127730921Y-62769011D01*
X127730917Y-62769007D01*
X127613653Y-62671998D01*
X127578250Y-62642710D01*
X127567731Y-62637022D01*
X127478320Y-62588678D01*
X127400722Y-62546721D01*
X127352458Y-62531781D01*
X127211443Y-62488129D01*
X127211439Y-62488128D01*
X127207930Y-62487042D01*
X127069763Y-62472520D01*
X127010874Y-62466330D01*
X127010872Y-62466330D01*
X127007219Y-62465946D01*
X126806233Y-62484237D01*
X126751813Y-62500254D01*
X126616156Y-62540180D01*
X126616153Y-62540181D01*
X126612627Y-62541219D01*
X126554161Y-62571784D01*
X126544265Y-62576083D01*
X126524419Y-62583058D01*
X126464105Y-62618747D01*
X126460649Y-62620671D01*
X126437034Y-62633016D01*
X126437028Y-62633020D01*
X126433776Y-62634720D01*
X126430913Y-62637022D01*
X126430910Y-62637024D01*
X126428679Y-62638818D01*
X126419853Y-62644931D01*
X126412963Y-62649008D01*
X126396802Y-62659492D01*
X126395236Y-62660602D01*
X126394652Y-62661053D01*
X126394639Y-62661063D01*
X126380492Y-62671998D01*
X126379901Y-62672455D01*
X126286570Y-62750976D01*
X126274808Y-62761572D01*
X126273669Y-62762670D01*
X126273255Y-62763097D01*
X126273246Y-62763106D01*
X126267525Y-62769007D01*
X126262637Y-62774049D01*
X126262231Y-62774497D01*
X126262219Y-62774510D01*
X126187165Y-62857369D01*
X126187138Y-62857400D01*
X126186931Y-62857628D01*
X126186698Y-62857896D01*
X126186690Y-62857905D01*
X126181276Y-62864132D01*
X126180694Y-62864801D01*
X126180079Y-62865538D01*
X126174025Y-62873107D01*
X126173788Y-62873416D01*
X126173785Y-62873420D01*
X126164944Y-62884954D01*
X126108740Y-62958276D01*
X126106897Y-62960712D01*
X126054928Y-63030375D01*
X126051141Y-63035451D01*
X126048052Y-63039319D01*
X126004273Y-63090585D01*
X125996501Y-63098437D01*
X125962565Y-63128019D01*
X125949656Y-63137077D01*
X125924137Y-63151245D01*
X125915698Y-63155930D01*
X125899925Y-63162469D01*
X125864335Y-63172674D01*
X125845299Y-63178132D01*
X125830635Y-63180800D01*
X125777351Y-63185107D01*
X125725204Y-63189323D01*
X125725201Y-63189323D01*
X125721892Y-63189591D01*
X125718680Y-63190435D01*
X125718679Y-63190435D01*
X125711839Y-63192232D01*
X125692732Y-63194700D01*
X125176407Y-63194700D01*
X125128069Y-63177107D01*
X125123233Y-63172674D01*
X124793896Y-62843336D01*
X124450814Y-62500254D01*
X124438814Y-62484594D01*
X124435636Y-62479073D01*
X124435634Y-62479070D01*
X124433788Y-62475863D01*
X124431355Y-62473081D01*
X124431350Y-62473074D01*
X124423512Y-62464112D01*
X124404930Y-62413274D01*
X124405346Y-62389818D01*
X124405351Y-62389542D01*
X124406241Y-62347943D01*
X124406246Y-62347715D01*
X124406296Y-62341270D01*
X124406292Y-62340619D01*
X124406148Y-62333738D01*
X124404834Y-62296780D01*
X124404584Y-62289744D01*
X124404582Y-62289710D01*
X124404564Y-62289194D01*
X124403819Y-62277090D01*
X124403714Y-62275891D01*
X124402367Y-62264009D01*
X124395695Y-62216123D01*
X124393123Y-62201208D01*
X124393007Y-62200643D01*
X124393001Y-62200613D01*
X124392939Y-62200313D01*
X124392935Y-62200295D01*
X124392818Y-62199727D01*
X124389284Y-62184995D01*
X124383425Y-62163645D01*
X124383332Y-62163300D01*
X124382921Y-62161765D01*
X124382277Y-62156878D01*
X124380391Y-62152325D01*
X124379411Y-62148670D01*
X124378933Y-62147275D01*
X124377597Y-62142406D01*
X124377595Y-62142399D01*
X124376977Y-62140148D01*
X124360470Y-62100256D01*
X124355638Y-62088580D01*
X124355636Y-62088575D01*
X124354743Y-62086418D01*
X124351893Y-62081404D01*
X124352018Y-62081333D01*
X124347091Y-62071930D01*
X124326525Y-62022281D01*
X124324641Y-62017732D01*
X124240997Y-61908726D01*
X124235953Y-61902152D01*
X124232955Y-61898245D01*
X124213634Y-61883419D01*
X124117375Y-61809557D01*
X124113468Y-61806559D01*
X124043895Y-61777741D01*
X123978871Y-61750807D01*
X123978869Y-61750807D01*
X123974322Y-61748923D01*
X123969444Y-61748281D01*
X123969441Y-61748280D01*
X123829884Y-61729907D01*
X123825000Y-61729264D01*
X123820116Y-61729907D01*
X123680559Y-61748280D01*
X123680556Y-61748281D01*
X123675678Y-61748923D01*
X123671131Y-61750807D01*
X123671129Y-61750807D01*
X123606105Y-61777741D01*
X123536532Y-61806559D01*
X123532625Y-61809557D01*
X123436367Y-61883419D01*
X123417045Y-61898245D01*
X123414047Y-61902152D01*
X123409003Y-61908726D01*
X123325359Y-62017732D01*
X123323475Y-62022281D01*
X123271701Y-62147275D01*
X123267723Y-62156878D01*
X123267081Y-62161756D01*
X123267080Y-62161759D01*
X123249736Y-62293500D01*
X123248064Y-62306200D01*
X123248707Y-62311084D01*
X123266016Y-62442554D01*
X123267723Y-62455522D01*
X123269607Y-62460069D01*
X123269607Y-62460071D01*
X123296541Y-62525095D01*
X123325359Y-62594668D01*
X123417045Y-62714155D01*
X123536532Y-62805841D01*
X123637629Y-62847717D01*
X123642484Y-62849935D01*
X123658946Y-62858175D01*
X123666065Y-62860128D01*
X123667474Y-62860612D01*
X123671123Y-62861590D01*
X123675678Y-62863477D01*
X123680566Y-62864121D01*
X123682318Y-62864590D01*
X123682656Y-62864682D01*
X123703799Y-62870484D01*
X123704386Y-62870625D01*
X123704406Y-62870630D01*
X123717893Y-62873866D01*
X123717903Y-62873868D01*
X123718523Y-62874017D01*
X123719132Y-62874143D01*
X123719139Y-62874144D01*
X123719211Y-62874159D01*
X123719994Y-62874320D01*
X123720555Y-62874417D01*
X123720572Y-62874420D01*
X123732198Y-62876425D01*
X123734916Y-62876894D01*
X123763986Y-62880944D01*
X123782310Y-62883498D01*
X123782330Y-62883501D01*
X123782807Y-62883567D01*
X123783250Y-62883617D01*
X123783272Y-62883620D01*
X123793101Y-62884734D01*
X123794691Y-62884914D01*
X123795890Y-62885019D01*
X123800829Y-62885323D01*
X123807490Y-62885733D01*
X123807501Y-62885734D01*
X123807996Y-62885764D01*
X123828786Y-62886503D01*
X123852374Y-62887342D01*
X123852419Y-62887343D01*
X123852553Y-62887348D01*
X123852713Y-62887351D01*
X123852737Y-62887352D01*
X123854419Y-62887387D01*
X123859402Y-62887491D01*
X123859726Y-62887493D01*
X123859830Y-62887494D01*
X123859867Y-62887494D01*
X123860040Y-62887495D01*
X123862606Y-62887476D01*
X123866305Y-62887448D01*
X123866366Y-62887447D01*
X123866515Y-62887446D01*
X123866656Y-62887443D01*
X123866725Y-62887442D01*
X123908310Y-62886552D01*
X123908583Y-62886547D01*
X123932072Y-62886130D01*
X123982912Y-62904712D01*
X123992116Y-62912761D01*
X123992119Y-62912764D01*
X123994663Y-62914988D01*
X123997561Y-62916721D01*
X123997565Y-62916724D01*
X124004993Y-62921166D01*
X124019572Y-62932532D01*
X124190172Y-63103132D01*
X124211912Y-63149752D01*
X124198598Y-63199439D01*
X124156461Y-63228944D01*
X124127183Y-63230863D01*
X124109286Y-63228507D01*
X124109284Y-63228507D01*
X124104400Y-63227864D01*
X124099516Y-63228507D01*
X123959959Y-63246880D01*
X123959956Y-63246881D01*
X123955078Y-63247523D01*
X123950531Y-63249407D01*
X123950529Y-63249407D01*
X123893803Y-63272904D01*
X123815932Y-63305159D01*
X123696445Y-63396845D01*
X123604759Y-63516332D01*
X123602875Y-63520881D01*
X123553059Y-63641148D01*
X123547123Y-63655478D01*
X123546481Y-63660356D01*
X123546480Y-63660359D01*
X123538372Y-63721948D01*
X123527464Y-63804800D01*
X123528107Y-63809684D01*
X123540204Y-63901565D01*
X123547123Y-63954122D01*
X123549007Y-63958671D01*
X123549008Y-63958674D01*
X123567373Y-64003012D01*
X123569616Y-64054403D01*
X123538301Y-64095212D01*
X123488081Y-64106346D01*
X123444723Y-64084963D01*
X121402814Y-62043054D01*
X121390812Y-62027392D01*
X121387631Y-62021865D01*
X121387631Y-62021864D01*
X121385788Y-62018663D01*
X121383358Y-62015885D01*
X121383352Y-62015876D01*
X121375512Y-62006912D01*
X121356930Y-61956074D01*
X121357346Y-61932618D01*
X121357351Y-61932342D01*
X121357997Y-61902152D01*
X121358246Y-61890515D01*
X121358296Y-61884070D01*
X121358292Y-61883419D01*
X121358148Y-61876538D01*
X121356995Y-61844116D01*
X121356584Y-61832544D01*
X121356582Y-61832510D01*
X121356564Y-61831994D01*
X121355819Y-61819890D01*
X121355714Y-61818691D01*
X121354367Y-61806809D01*
X121347695Y-61758923D01*
X121345123Y-61744008D01*
X121345007Y-61743443D01*
X121345001Y-61743413D01*
X121344939Y-61743113D01*
X121344935Y-61743095D01*
X121344818Y-61742527D01*
X121341284Y-61727795D01*
X121335425Y-61706445D01*
X121335332Y-61706100D01*
X121334921Y-61704565D01*
X121334277Y-61699678D01*
X121332391Y-61695125D01*
X121331411Y-61691470D01*
X121330933Y-61690075D01*
X121329597Y-61685206D01*
X121329595Y-61685199D01*
X121328977Y-61682948D01*
X121314304Y-61647488D01*
X121307638Y-61631380D01*
X121307636Y-61631375D01*
X121306743Y-61629218D01*
X121303893Y-61624204D01*
X121304018Y-61624133D01*
X121299091Y-61614730D01*
X121290864Y-61594869D01*
X121276641Y-61560532D01*
X121184955Y-61441045D01*
X121065468Y-61349359D01*
X120952280Y-61302475D01*
X120930871Y-61293607D01*
X120930869Y-61293607D01*
X120926322Y-61291723D01*
X120921444Y-61291081D01*
X120921441Y-61291080D01*
X120781884Y-61272707D01*
X120777000Y-61272064D01*
X120772116Y-61272707D01*
X120632559Y-61291080D01*
X120632556Y-61291081D01*
X120627678Y-61291723D01*
X120623131Y-61293607D01*
X120623129Y-61293607D01*
X120601720Y-61302475D01*
X120488532Y-61349359D01*
X120369045Y-61441045D01*
X120277359Y-61560532D01*
X120263136Y-61594869D01*
X120223701Y-61690075D01*
X120219723Y-61699678D01*
X120219081Y-61704556D01*
X120219080Y-61704559D01*
X120202157Y-61833102D01*
X120200064Y-61849000D01*
X120200707Y-61853884D01*
X120218516Y-61989151D01*
X120219723Y-61998322D01*
X120221607Y-62002869D01*
X120221607Y-62002871D01*
X120248541Y-62067895D01*
X120277359Y-62137468D01*
X120280357Y-62141375D01*
X120361959Y-62247721D01*
X120377427Y-62296780D01*
X120361959Y-62339279D01*
X120355486Y-62347715D01*
X120277359Y-62449532D01*
X120261981Y-62486658D01*
X120238677Y-62542920D01*
X120219723Y-62588678D01*
X120219081Y-62593556D01*
X120219080Y-62593559D01*
X120211780Y-62649008D01*
X120200064Y-62738000D01*
X120200707Y-62742884D01*
X120218337Y-62876792D01*
X120219723Y-62887322D01*
X120221607Y-62891869D01*
X120221607Y-62891871D01*
X120248541Y-62956895D01*
X120277359Y-63026468D01*
X120369045Y-63145955D01*
X120488532Y-63237641D01*
X120589629Y-63279517D01*
X120594484Y-63281735D01*
X120610946Y-63289975D01*
X120618065Y-63291928D01*
X120619474Y-63292412D01*
X120623123Y-63293390D01*
X120627678Y-63295277D01*
X120632566Y-63295921D01*
X120634318Y-63296390D01*
X120634656Y-63296482D01*
X120655799Y-63302284D01*
X120656386Y-63302425D01*
X120656406Y-63302430D01*
X120669893Y-63305666D01*
X120669903Y-63305668D01*
X120670523Y-63305817D01*
X120671132Y-63305943D01*
X120671139Y-63305944D01*
X120671211Y-63305959D01*
X120671994Y-63306120D01*
X120672555Y-63306217D01*
X120672572Y-63306220D01*
X120683803Y-63308157D01*
X120686916Y-63308694D01*
X120714970Y-63312603D01*
X120734310Y-63315298D01*
X120734330Y-63315301D01*
X120734807Y-63315367D01*
X120735250Y-63315417D01*
X120735272Y-63315420D01*
X120745101Y-63316534D01*
X120746691Y-63316714D01*
X120747890Y-63316819D01*
X120752829Y-63317123D01*
X120759490Y-63317533D01*
X120759501Y-63317534D01*
X120759996Y-63317564D01*
X120780786Y-63318303D01*
X120804374Y-63319142D01*
X120804419Y-63319143D01*
X120804553Y-63319148D01*
X120804713Y-63319151D01*
X120804737Y-63319152D01*
X120806419Y-63319187D01*
X120811402Y-63319291D01*
X120811726Y-63319293D01*
X120811830Y-63319294D01*
X120811867Y-63319294D01*
X120812040Y-63319295D01*
X120814606Y-63319276D01*
X120818305Y-63319248D01*
X120818366Y-63319247D01*
X120818515Y-63319246D01*
X120818656Y-63319243D01*
X120818725Y-63319242D01*
X120860310Y-63318352D01*
X120860583Y-63318347D01*
X120884072Y-63317930D01*
X120934912Y-63336512D01*
X120944111Y-63344557D01*
X120944117Y-63344561D01*
X120946663Y-63346788D01*
X120949562Y-63348522D01*
X120949564Y-63348523D01*
X120956996Y-63352967D01*
X120971575Y-63364334D01*
X122989674Y-65382433D01*
X123011414Y-65429053D01*
X123011700Y-65435607D01*
X123011700Y-66771393D01*
X122994107Y-66819731D01*
X122989674Y-66824567D01*
X122515487Y-67298753D01*
X122048622Y-67765618D01*
X122038579Y-67774046D01*
X122027142Y-67782053D01*
X122027140Y-67782055D01*
X122021754Y-67785826D01*
X122017981Y-67791214D01*
X122017980Y-67791215D01*
X122007104Y-67806746D01*
X122002226Y-67810161D01*
X122003596Y-67811286D01*
X121956537Y-67868624D01*
X121954794Y-67871885D01*
X121914251Y-67947729D01*
X121906957Y-67961373D01*
X121905886Y-67964903D01*
X121879063Y-68053312D01*
X121876423Y-68062012D01*
X121876061Y-68065682D01*
X121876061Y-68065684D01*
X121873905Y-68087569D01*
X121872135Y-68097974D01*
X121871293Y-68101433D01*
X121869327Y-68106362D01*
X121868700Y-68112757D01*
X121868700Y-68133389D01*
X121867557Y-68146452D01*
X121863990Y-68166674D01*
X121865132Y-68173152D01*
X121865132Y-68173154D01*
X121867558Y-68186915D01*
X121868700Y-68199970D01*
X121868700Y-76453030D01*
X121867558Y-76466085D01*
X121863990Y-76486326D01*
X121868407Y-76511366D01*
X121867373Y-76517233D01*
X121869139Y-76517059D01*
X121876423Y-76590987D01*
X121906956Y-76691625D01*
X121956535Y-76784374D01*
X121958879Y-76787230D01*
X121972789Y-76804178D01*
X121978896Y-76812787D01*
X121980768Y-76815862D01*
X121982861Y-76820734D01*
X121986940Y-76825699D01*
X122001540Y-76840299D01*
X122009959Y-76850331D01*
X122021752Y-76867172D01*
X122027144Y-76870947D01*
X122038578Y-76878953D01*
X122048621Y-76887380D01*
X122564185Y-77402944D01*
X122576187Y-77418607D01*
X122579368Y-77424134D01*
X122579371Y-77424138D01*
X122581212Y-77427337D01*
X122591489Y-77439088D01*
X122610069Y-77489924D01*
X122609649Y-77513603D01*
X122608753Y-77555470D01*
X122608703Y-77561882D01*
X122608707Y-77562548D01*
X122608851Y-77569461D01*
X122608865Y-77569849D01*
X122608865Y-77569856D01*
X122609657Y-77592116D01*
X122610435Y-77614005D01*
X122611180Y-77626109D01*
X122611285Y-77627308D01*
X122612632Y-77639190D01*
X122619304Y-77687076D01*
X122621876Y-77701991D01*
X122621992Y-77702556D01*
X122621998Y-77702586D01*
X122622045Y-77702810D01*
X122622181Y-77703472D01*
X122625716Y-77718207D01*
X122630669Y-77736256D01*
X122631536Y-77739415D01*
X122631651Y-77739840D01*
X122632080Y-77741439D01*
X122632723Y-77746322D01*
X122634608Y-77750871D01*
X122635591Y-77754536D01*
X122636068Y-77755925D01*
X122638024Y-77763055D01*
X122638922Y-77765225D01*
X122647368Y-77785634D01*
X122660257Y-77816782D01*
X122661412Y-77818814D01*
X122661413Y-77818816D01*
X122663107Y-77821796D01*
X122662982Y-77821867D01*
X122667909Y-77831270D01*
X122690359Y-77885468D01*
X122782045Y-78004955D01*
X122901532Y-78096641D01*
X122928301Y-78107729D01*
X123036129Y-78152393D01*
X123036131Y-78152393D01*
X123040678Y-78154277D01*
X123045556Y-78154919D01*
X123045559Y-78154920D01*
X123185116Y-78173293D01*
X123190000Y-78173936D01*
X123194884Y-78173293D01*
X123334441Y-78154920D01*
X123334444Y-78154919D01*
X123339322Y-78154277D01*
X123343869Y-78152393D01*
X123343871Y-78152393D01*
X123451699Y-78107729D01*
X123478468Y-78096641D01*
X123597955Y-78004955D01*
X123689641Y-77885468D01*
X123730543Y-77786721D01*
X123745393Y-77750871D01*
X123745393Y-77750869D01*
X123747277Y-77746322D01*
X123747962Y-77741124D01*
X123766293Y-77601884D01*
X123766936Y-77597000D01*
X123762372Y-77562334D01*
X123747920Y-77452559D01*
X123747919Y-77452556D01*
X123747277Y-77447678D01*
X123735236Y-77418607D01*
X123691525Y-77313081D01*
X123689641Y-77308532D01*
X123597955Y-77189045D01*
X123478468Y-77097359D01*
X123473923Y-77095476D01*
X123473917Y-77095473D01*
X123377391Y-77055492D01*
X123372502Y-77053259D01*
X123359352Y-77046675D01*
X123359347Y-77046673D01*
X123356053Y-77045024D01*
X123348923Y-77043067D01*
X123347510Y-77042583D01*
X123343879Y-77041610D01*
X123339322Y-77039723D01*
X123334438Y-77039080D01*
X123332907Y-77038670D01*
X123332469Y-77038551D01*
X123311819Y-77032884D01*
X123311769Y-77032871D01*
X123311200Y-77032715D01*
X123310610Y-77032574D01*
X123310585Y-77032567D01*
X123297106Y-77029333D01*
X123297096Y-77029331D01*
X123296476Y-77029182D01*
X123295867Y-77029056D01*
X123295860Y-77029055D01*
X123295788Y-77029040D01*
X123295005Y-77028879D01*
X123294444Y-77028782D01*
X123294427Y-77028779D01*
X123280674Y-77026407D01*
X123280677Y-77026407D01*
X123280083Y-77026305D01*
X123251013Y-77022255D01*
X123232689Y-77019701D01*
X123232669Y-77019698D01*
X123232192Y-77019632D01*
X123231749Y-77019582D01*
X123231727Y-77019579D01*
X123220740Y-77018334D01*
X123220743Y-77018334D01*
X123220308Y-77018285D01*
X123219109Y-77018180D01*
X123214170Y-77017876D01*
X123207509Y-77017466D01*
X123207498Y-77017465D01*
X123207003Y-77017435D01*
X123184978Y-77016652D01*
X123162625Y-77015857D01*
X123162580Y-77015856D01*
X123162446Y-77015851D01*
X123162286Y-77015848D01*
X123162262Y-77015847D01*
X123160580Y-77015812D01*
X123155597Y-77015708D01*
X123155273Y-77015706D01*
X123155169Y-77015705D01*
X123155132Y-77015705D01*
X123154959Y-77015704D01*
X123152393Y-77015723D01*
X123148694Y-77015751D01*
X123148633Y-77015752D01*
X123148484Y-77015753D01*
X123148343Y-77015756D01*
X123148274Y-77015757D01*
X123106689Y-77016647D01*
X123106416Y-77016652D01*
X123082926Y-77017069D01*
X123032088Y-76998489D01*
X123020337Y-76988212D01*
X123017443Y-76986481D01*
X123017437Y-76986477D01*
X123010007Y-76982034D01*
X122995428Y-76970668D01*
X122501326Y-76476566D01*
X122479586Y-76429946D01*
X122479300Y-76423392D01*
X122479300Y-74832607D01*
X122496893Y-74784269D01*
X122541442Y-74758549D01*
X122592100Y-74767482D01*
X122607674Y-74779433D01*
X124251632Y-76423392D01*
X125860248Y-78032008D01*
X125872762Y-78048574D01*
X125876751Y-78055733D01*
X125879141Y-78058543D01*
X125879142Y-78058545D01*
X125947427Y-78138843D01*
X125955908Y-78151096D01*
X125983463Y-78200803D01*
X125989990Y-78216577D01*
X126000669Y-78253918D01*
X126003392Y-78269451D01*
X126006472Y-78314368D01*
X126006416Y-78325417D01*
X126001124Y-78392601D01*
X126000574Y-78397510D01*
X125987167Y-78489674D01*
X125987148Y-78489813D01*
X125986760Y-78492606D01*
X125986748Y-78492696D01*
X125972668Y-78599213D01*
X125971612Y-78608675D01*
X125971525Y-78609631D01*
X125970847Y-78619293D01*
X125965281Y-78731932D01*
X125965035Y-78747777D01*
X125965064Y-78749359D01*
X125965890Y-78765168D01*
X125976362Y-78886681D01*
X125978821Y-78905893D01*
X125979145Y-78907795D01*
X125979309Y-78908564D01*
X125982741Y-78924673D01*
X125982685Y-78924685D01*
X125982765Y-78924958D01*
X125982909Y-78926671D01*
X125985085Y-78934258D01*
X125985621Y-78936231D01*
X126015338Y-79052088D01*
X126025899Y-79078543D01*
X126026485Y-79080012D01*
X126028931Y-79087165D01*
X126038538Y-79120670D01*
X126130788Y-79300169D01*
X126256146Y-79458332D01*
X126409837Y-79589133D01*
X126413038Y-79590922D01*
X126413041Y-79590924D01*
X126455691Y-79614760D01*
X126586007Y-79687591D01*
X126777947Y-79749956D01*
X126888480Y-79763136D01*
X126974686Y-79773416D01*
X126974688Y-79773416D01*
X126978344Y-79773852D01*
X127179566Y-79758369D01*
X127330738Y-79716161D01*
X127370410Y-79705084D01*
X127370411Y-79705083D01*
X127373948Y-79704096D01*
X127377222Y-79702442D01*
X127377225Y-79702441D01*
X127506066Y-79637359D01*
X127554087Y-79613102D01*
X127556985Y-79610838D01*
X127556988Y-79610836D01*
X127710223Y-79491116D01*
X127710228Y-79491111D01*
X127713121Y-79488851D01*
X127832575Y-79350463D01*
X127877477Y-79325367D01*
X127928006Y-79335006D01*
X127960517Y-79374869D01*
X127964700Y-79399600D01*
X127964700Y-80623336D01*
X127947107Y-80671674D01*
X127902558Y-80697394D01*
X127851900Y-80688461D01*
X127831224Y-80670865D01*
X127736075Y-80554201D01*
X127736074Y-80554200D01*
X127733752Y-80551353D01*
X127730921Y-80549011D01*
X127730917Y-80549007D01*
X127647569Y-80480056D01*
X127578250Y-80422710D01*
X127567731Y-80417022D01*
X127519963Y-80391194D01*
X127400722Y-80326721D01*
X127352458Y-80311781D01*
X127211443Y-80268129D01*
X127211439Y-80268128D01*
X127207930Y-80267042D01*
X127069763Y-80252520D01*
X127010874Y-80246330D01*
X127010872Y-80246330D01*
X127007219Y-80245946D01*
X126806233Y-80264237D01*
X126612627Y-80321219D01*
X126433776Y-80414720D01*
X126430917Y-80417019D01*
X126430912Y-80417022D01*
X126279364Y-80538870D01*
X126279360Y-80538874D01*
X126276493Y-80541179D01*
X126274125Y-80544001D01*
X126274124Y-80544002D01*
X126149131Y-80692961D01*
X126149128Y-80692965D01*
X126146767Y-80695779D01*
X126144996Y-80699001D01*
X126144995Y-80699002D01*
X126064318Y-80845753D01*
X126049541Y-80872633D01*
X126041236Y-80898814D01*
X125991946Y-81054198D01*
X125988518Y-81065003D01*
X125966022Y-81265562D01*
X125966330Y-81269230D01*
X125966330Y-81269233D01*
X125980211Y-81434538D01*
X125982909Y-81466671D01*
X126038538Y-81660670D01*
X126130788Y-81840169D01*
X126256146Y-81998332D01*
X126409837Y-82129133D01*
X126413038Y-82130922D01*
X126413041Y-82130924D01*
X126455691Y-82154760D01*
X126586007Y-82227591D01*
X126777947Y-82289956D01*
X126888480Y-82303136D01*
X126974686Y-82313416D01*
X126974688Y-82313416D01*
X126978344Y-82313852D01*
X127179566Y-82298369D01*
X127330738Y-82256161D01*
X127370410Y-82245084D01*
X127370411Y-82245083D01*
X127373948Y-82244096D01*
X127377222Y-82242442D01*
X127377225Y-82242441D01*
X127506066Y-82177359D01*
X127554087Y-82153102D01*
X127556985Y-82150838D01*
X127556988Y-82150836D01*
X127710223Y-82031116D01*
X127710228Y-82031111D01*
X127713121Y-82028851D01*
X127832575Y-81890463D01*
X127877477Y-81865367D01*
X127928006Y-81875006D01*
X127960517Y-81914869D01*
X127964700Y-81939600D01*
X127964700Y-83163336D01*
X127947107Y-83211674D01*
X127902558Y-83237394D01*
X127851900Y-83228461D01*
X127831224Y-83210865D01*
X127736075Y-83094201D01*
X127736074Y-83094200D01*
X127733752Y-83091353D01*
X127730921Y-83089011D01*
X127730917Y-83089007D01*
X127635746Y-83010275D01*
X127578250Y-82962710D01*
X127573971Y-82960396D01*
X127498790Y-82919746D01*
X127400722Y-82866721D01*
X127379594Y-82860181D01*
X127340550Y-82848095D01*
X127330250Y-82844054D01*
X127315424Y-82836939D01*
X127315423Y-82836939D01*
X127312088Y-82835338D01*
X127277305Y-82826416D01*
X127239489Y-82816716D01*
X127235936Y-82815711D01*
X127211441Y-82808128D01*
X127211433Y-82808126D01*
X127207930Y-82807042D01*
X127202984Y-82806522D01*
X127192163Y-82804577D01*
X127189965Y-82804013D01*
X127187359Y-82803344D01*
X127187342Y-82803340D01*
X127186648Y-82803162D01*
X127167815Y-82799149D01*
X127165914Y-82798825D01*
X127146682Y-82796361D01*
X127082989Y-82790872D01*
X127025833Y-82785946D01*
X127025810Y-82785944D01*
X127025167Y-82785889D01*
X127024521Y-82785855D01*
X127024517Y-82785855D01*
X127009999Y-82785097D01*
X127009996Y-82785097D01*
X127009366Y-82785064D01*
X127008716Y-82785052D01*
X127008714Y-82785052D01*
X127008443Y-82785047D01*
X127008440Y-82785047D01*
X127007787Y-82785035D01*
X127007142Y-82785045D01*
X126992569Y-82785271D01*
X126992561Y-82785271D01*
X126991933Y-82785281D01*
X126980318Y-82785855D01*
X126879661Y-82790829D01*
X126879639Y-82790830D01*
X126879281Y-82790848D01*
X126878950Y-82790871D01*
X126878937Y-82790872D01*
X126871699Y-82791380D01*
X126869619Y-82791526D01*
X126869336Y-82791552D01*
X126869308Y-82791554D01*
X126869178Y-82791566D01*
X126868685Y-82791611D01*
X126868254Y-82791659D01*
X126868235Y-82791661D01*
X126859646Y-82792619D01*
X126859621Y-82792622D01*
X126859227Y-82792666D01*
X126771683Y-82804237D01*
X126753359Y-82806659D01*
X126752799Y-82806733D01*
X126749775Y-82807153D01*
X126657510Y-82820575D01*
X126652618Y-82821123D01*
X126588529Y-82826171D01*
X126585418Y-82826416D01*
X126574369Y-82826472D01*
X126529451Y-82823392D01*
X126513918Y-82820669D01*
X126476577Y-82809990D01*
X126460803Y-82803463D01*
X126411096Y-82775908D01*
X126398843Y-82767427D01*
X126318253Y-82698894D01*
X126315733Y-82696751D01*
X126312884Y-82695087D01*
X126312878Y-82695083D01*
X126306755Y-82691508D01*
X126291504Y-82679744D01*
X123873604Y-80261844D01*
X123862119Y-80247066D01*
X123857949Y-80240044D01*
X123856062Y-80236866D01*
X123830077Y-80207960D01*
X123824330Y-80200715D01*
X123814102Y-80186055D01*
X123808889Y-80177397D01*
X123804462Y-80168779D01*
X123800690Y-80160140D01*
X123796692Y-80149151D01*
X123794645Y-80142608D01*
X123788774Y-80120329D01*
X123788098Y-80117553D01*
X123780128Y-80081857D01*
X123780075Y-80081620D01*
X123779417Y-80078757D01*
X123779360Y-80078516D01*
X123778885Y-80076548D01*
X123768494Y-80034251D01*
X123766319Y-80026043D01*
X123766086Y-80025224D01*
X123763596Y-80017042D01*
X123749329Y-79973065D01*
X123745179Y-79961343D01*
X123744731Y-79960177D01*
X123739914Y-79948579D01*
X123718934Y-79901660D01*
X123712809Y-79888997D01*
X123712174Y-79887779D01*
X123705439Y-79875740D01*
X123698375Y-79863942D01*
X123691731Y-79852846D01*
X123691728Y-79852842D01*
X123690748Y-79851205D01*
X123689641Y-79848532D01*
X123687395Y-79845605D01*
X123678947Y-79831496D01*
X123676810Y-79828751D01*
X123645291Y-79788283D01*
X123645289Y-79788280D01*
X123643881Y-79786473D01*
X123639885Y-79782465D01*
X123640032Y-79782319D01*
X123633004Y-79774722D01*
X123632337Y-79773852D01*
X123597955Y-79729045D01*
X123478468Y-79637359D01*
X123356299Y-79586755D01*
X123343871Y-79581607D01*
X123343869Y-79581607D01*
X123339322Y-79579723D01*
X123334444Y-79579081D01*
X123334441Y-79579080D01*
X123194884Y-79560707D01*
X123190000Y-79560064D01*
X123185116Y-79560707D01*
X123045559Y-79579080D01*
X123045556Y-79579081D01*
X123040678Y-79579723D01*
X123036131Y-79581607D01*
X123036129Y-79581607D01*
X123023701Y-79586755D01*
X122901532Y-79637359D01*
X122782045Y-79729045D01*
X122690359Y-79848532D01*
X122673399Y-79889477D01*
X122643454Y-79961772D01*
X122632723Y-79987678D01*
X122632081Y-79992556D01*
X122632080Y-79992559D01*
X122627716Y-80025708D01*
X122613064Y-80137000D01*
X122613707Y-80141884D01*
X122630328Y-80268129D01*
X122632723Y-80286322D01*
X122634607Y-80290869D01*
X122634607Y-80290871D01*
X122649457Y-80326721D01*
X122690359Y-80425468D01*
X122782045Y-80544955D01*
X122901532Y-80636641D01*
X122928301Y-80647729D01*
X123036129Y-80692393D01*
X123036131Y-80692393D01*
X123040678Y-80694277D01*
X123045556Y-80694919D01*
X123045559Y-80694920D01*
X123064725Y-80697443D01*
X123110353Y-80721196D01*
X123130037Y-80768720D01*
X123114569Y-80817779D01*
X123071185Y-80845418D01*
X123064725Y-80846557D01*
X123045559Y-80849080D01*
X123045556Y-80849081D01*
X123040678Y-80849723D01*
X123036131Y-80851607D01*
X123036129Y-80851607D01*
X122997760Y-80867500D01*
X122901532Y-80907359D01*
X122782045Y-80999045D01*
X122690359Y-81118532D01*
X122688475Y-81123081D01*
X122636701Y-81248075D01*
X122632723Y-81257678D01*
X122632081Y-81262556D01*
X122632080Y-81262559D01*
X122613707Y-81402116D01*
X122613064Y-81407000D01*
X122613707Y-81411884D01*
X122631016Y-81543354D01*
X122632723Y-81556322D01*
X122634607Y-81560869D01*
X122634607Y-81560871D01*
X122661541Y-81625895D01*
X122690359Y-81695468D01*
X122782045Y-81814955D01*
X122901532Y-81906641D01*
X123002629Y-81948517D01*
X123007484Y-81950735D01*
X123023946Y-81958975D01*
X123031065Y-81960928D01*
X123032474Y-81961412D01*
X123036123Y-81962390D01*
X123040678Y-81964277D01*
X123045566Y-81964921D01*
X123047318Y-81965390D01*
X123047751Y-81965508D01*
X123066307Y-81970600D01*
X123108266Y-82000358D01*
X123121280Y-82050124D01*
X123099260Y-82096613D01*
X123056225Y-82117675D01*
X123045565Y-82119079D01*
X123045561Y-82119080D01*
X123040678Y-82119723D01*
X123036131Y-82121607D01*
X123036129Y-82121607D01*
X123017960Y-82129133D01*
X122901532Y-82177359D01*
X122782045Y-82269045D01*
X122690359Y-82388532D01*
X122632723Y-82527678D01*
X122632081Y-82532556D01*
X122632080Y-82532559D01*
X122614172Y-82668587D01*
X122613064Y-82677000D01*
X122613707Y-82681884D01*
X122632039Y-82821124D01*
X122632723Y-82826322D01*
X122634607Y-82830871D01*
X122634608Y-82830874D01*
X122674592Y-82927405D01*
X122676470Y-82932440D01*
X122682276Y-82949889D01*
X122685931Y-82956308D01*
X122686584Y-82957643D01*
X122688473Y-82960915D01*
X122690359Y-82965468D01*
X122693358Y-82969376D01*
X122694198Y-82970832D01*
X122694422Y-82971223D01*
X122702201Y-82984885D01*
X122705287Y-82990306D01*
X122713232Y-83003262D01*
X122714064Y-83004525D01*
X122714389Y-83004986D01*
X122714401Y-83005003D01*
X122718123Y-83010275D01*
X122722762Y-83016847D01*
X122723102Y-83017297D01*
X122723118Y-83017319D01*
X122742261Y-83042660D01*
X122751911Y-83055435D01*
X122759452Y-83064898D01*
X122760213Y-83065804D01*
X122768154Y-83074781D01*
X122768499Y-83075151D01*
X122768514Y-83075168D01*
X122783587Y-83091353D01*
X122798532Y-83107400D01*
X122803261Y-83112332D01*
X122803729Y-83112806D01*
X122803806Y-83112882D01*
X122803840Y-83112916D01*
X122805893Y-83114938D01*
X122808359Y-83117367D01*
X122838706Y-83146442D01*
X122855640Y-83162786D01*
X122878449Y-83211875D01*
X122879491Y-83227449D01*
X122880316Y-83230727D01*
X122880316Y-83230729D01*
X122882427Y-83239119D01*
X122884700Y-83257466D01*
X122884700Y-84962030D01*
X122883558Y-84975085D01*
X122879990Y-84995326D01*
X122881133Y-85001804D01*
X122884421Y-85020446D01*
X122883387Y-85026314D01*
X122885154Y-85026140D01*
X122887250Y-85047408D01*
X122892430Y-85099986D01*
X122922962Y-85200623D01*
X122972541Y-85293370D01*
X122984078Y-85307427D01*
X122988767Y-85313140D01*
X122994876Y-85321752D01*
X122996766Y-85324858D01*
X122998861Y-85329734D01*
X123002940Y-85334699D01*
X123017536Y-85349295D01*
X123025960Y-85359333D01*
X123033977Y-85370781D01*
X123037752Y-85376172D01*
X123043142Y-85379946D01*
X123043143Y-85379947D01*
X123054578Y-85387953D01*
X123064621Y-85396380D01*
X125860248Y-88192008D01*
X125872762Y-88208574D01*
X125876751Y-88215733D01*
X125879141Y-88218543D01*
X125879142Y-88218545D01*
X125947427Y-88298843D01*
X125955908Y-88311096D01*
X125983463Y-88360803D01*
X125989990Y-88376577D01*
X126000669Y-88413918D01*
X126003392Y-88429451D01*
X126006472Y-88474368D01*
X126006416Y-88485417D01*
X126001654Y-88545875D01*
X126001124Y-88552601D01*
X126000574Y-88557510D01*
X125987167Y-88649674D01*
X125987148Y-88649813D01*
X125986760Y-88652606D01*
X125986748Y-88652696D01*
X125972668Y-88759213D01*
X125972625Y-88759600D01*
X125971652Y-88768313D01*
X125971648Y-88768349D01*
X125971612Y-88768675D01*
X125971525Y-88769631D01*
X125970847Y-88779293D01*
X125965281Y-88891932D01*
X125965035Y-88907777D01*
X125965064Y-88909359D01*
X125965890Y-88925168D01*
X125976362Y-89046681D01*
X125978821Y-89065893D01*
X125979145Y-89067795D01*
X125979309Y-89068564D01*
X125982741Y-89084673D01*
X125982685Y-89084685D01*
X125982765Y-89084958D01*
X125982909Y-89086671D01*
X125985085Y-89094258D01*
X125985621Y-89096231D01*
X126015338Y-89212088D01*
X126024164Y-89234197D01*
X126026485Y-89240012D01*
X126028931Y-89247165D01*
X126038538Y-89280670D01*
X126130788Y-89460169D01*
X126256146Y-89618332D01*
X126409837Y-89749133D01*
X126413038Y-89750922D01*
X126413041Y-89750924D01*
X126455691Y-89774760D01*
X126586007Y-89847591D01*
X126777947Y-89909956D01*
X126888480Y-89923136D01*
X126974686Y-89933416D01*
X126974688Y-89933416D01*
X126978344Y-89933852D01*
X127179566Y-89918369D01*
X127330738Y-89876161D01*
X127370410Y-89865084D01*
X127370411Y-89865083D01*
X127373948Y-89864096D01*
X127377222Y-89862442D01*
X127377225Y-89862441D01*
X127460007Y-89820625D01*
X127554087Y-89773102D01*
X127556985Y-89770838D01*
X127556988Y-89770836D01*
X127710223Y-89651116D01*
X127710228Y-89651111D01*
X127713121Y-89648851D01*
X127832575Y-89510463D01*
X127877477Y-89485367D01*
X127928006Y-89495006D01*
X127960517Y-89534869D01*
X127964700Y-89559600D01*
X127964700Y-90783336D01*
X127947107Y-90831674D01*
X127902558Y-90857394D01*
X127851900Y-90848461D01*
X127831224Y-90830865D01*
X127736075Y-90714201D01*
X127736074Y-90714200D01*
X127733752Y-90711353D01*
X127730921Y-90709011D01*
X127730917Y-90709007D01*
X127600262Y-90600920D01*
X127578250Y-90582710D01*
X127567731Y-90577022D01*
X127498599Y-90539643D01*
X127400722Y-90486721D01*
X127306964Y-90457698D01*
X127211443Y-90428129D01*
X127211439Y-90428128D01*
X127207930Y-90427042D01*
X127069763Y-90412520D01*
X127010874Y-90406330D01*
X127010872Y-90406330D01*
X127007219Y-90405946D01*
X126806233Y-90424237D01*
X126612627Y-90481219D01*
X126433776Y-90574720D01*
X126430917Y-90577019D01*
X126430912Y-90577022D01*
X126279364Y-90698870D01*
X126279360Y-90698874D01*
X126276493Y-90701179D01*
X126274125Y-90704001D01*
X126274124Y-90704002D01*
X126149131Y-90852961D01*
X126149128Y-90852965D01*
X126146767Y-90855779D01*
X126144996Y-90859001D01*
X126144995Y-90859002D01*
X126051315Y-91029406D01*
X126049541Y-91032633D01*
X125988518Y-91225003D01*
X125966022Y-91425562D01*
X125966330Y-91429230D01*
X125966330Y-91429233D01*
X125969482Y-91466770D01*
X125982909Y-91626671D01*
X126038538Y-91820670D01*
X126130788Y-92000169D01*
X126256146Y-92158332D01*
X126258940Y-92160709D01*
X126258941Y-92160711D01*
X126389978Y-92272232D01*
X126415386Y-92316959D01*
X126406100Y-92367554D01*
X126366465Y-92400343D01*
X126341239Y-92404700D01*
X112415243Y-92404700D01*
X112366905Y-92387107D01*
X112341185Y-92342558D01*
X112350118Y-92291900D01*
X112368945Y-92270242D01*
X112470223Y-92191116D01*
X112470228Y-92191111D01*
X112473121Y-92188851D01*
X112604992Y-92036077D01*
X112606808Y-92032880D01*
X112606811Y-92032876D01*
X112702862Y-91863795D01*
X112702863Y-91863794D01*
X112704678Y-91860598D01*
X112768381Y-91669099D01*
X112774205Y-91623003D01*
X112793412Y-91470963D01*
X112793412Y-91470962D01*
X112793676Y-91468873D01*
X112794079Y-91440000D01*
X112793874Y-91437907D01*
X112774745Y-91242813D01*
X112774744Y-91242809D01*
X112774385Y-91239146D01*
X112716054Y-91045943D01*
X112621306Y-90867749D01*
X112611544Y-90855779D01*
X112496075Y-90714201D01*
X112496074Y-90714200D01*
X112493752Y-90711353D01*
X112490921Y-90709011D01*
X112490917Y-90709007D01*
X112360262Y-90600920D01*
X112338250Y-90582710D01*
X112327731Y-90577022D01*
X112258599Y-90539643D01*
X112160722Y-90486721D01*
X112066964Y-90457698D01*
X111971443Y-90428129D01*
X111971439Y-90428128D01*
X111967930Y-90427042D01*
X111829763Y-90412520D01*
X111770874Y-90406330D01*
X111770872Y-90406330D01*
X111767219Y-90405946D01*
X111566233Y-90424237D01*
X111372627Y-90481219D01*
X111193776Y-90574720D01*
X111190917Y-90577019D01*
X111190912Y-90577022D01*
X111039364Y-90698870D01*
X111039360Y-90698874D01*
X111036493Y-90701179D01*
X111034125Y-90704001D01*
X111034124Y-90704002D01*
X110928106Y-90830348D01*
X110883558Y-90856068D01*
X110832900Y-90847135D01*
X110799835Y-90807729D01*
X110795300Y-90782010D01*
X110795300Y-90043000D01*
X120200064Y-90043000D01*
X120219723Y-90192322D01*
X120277359Y-90331468D01*
X120369045Y-90450955D01*
X120488532Y-90542641D01*
X120513966Y-90553176D01*
X120623129Y-90598393D01*
X120623131Y-90598393D01*
X120627678Y-90600277D01*
X120632556Y-90600919D01*
X120632559Y-90600920D01*
X120772116Y-90619293D01*
X120777000Y-90619936D01*
X120781884Y-90619293D01*
X120921441Y-90600920D01*
X120921444Y-90600919D01*
X120926322Y-90600277D01*
X120930869Y-90598393D01*
X120930871Y-90598393D01*
X121040034Y-90553176D01*
X121065468Y-90542641D01*
X121174242Y-90459176D01*
X121176421Y-90457698D01*
X121179391Y-90455508D01*
X121182568Y-90453615D01*
X121200328Y-90437606D01*
X121206959Y-90432279D01*
X121213458Y-90427637D01*
X121220506Y-90423172D01*
X121226861Y-90419625D01*
X121232720Y-90416683D01*
X121246447Y-90410525D01*
X121249489Y-90409240D01*
X121275142Y-90399060D01*
X121275142Y-90399059D01*
X121275294Y-90398999D01*
X121277256Y-90398210D01*
X121309612Y-90385029D01*
X121315725Y-90382437D01*
X121316342Y-90382165D01*
X121322578Y-90379306D01*
X121355775Y-90363494D01*
X121365317Y-90358678D01*
X121365815Y-90358412D01*
X121365899Y-90358368D01*
X121365934Y-90358349D01*
X121366254Y-90358178D01*
X121375454Y-90353000D01*
X121375772Y-90352811D01*
X121375797Y-90352797D01*
X121410100Y-90332454D01*
X121410101Y-90332453D01*
X121410476Y-90332231D01*
X121420744Y-90325776D01*
X121421757Y-90325102D01*
X121422121Y-90324846D01*
X121422153Y-90324824D01*
X121431358Y-90318346D01*
X121431368Y-90318339D01*
X121431767Y-90318058D01*
X121443827Y-90309090D01*
X121449601Y-90305198D01*
X121452901Y-90303189D01*
X121457779Y-90301094D01*
X121462744Y-90297015D01*
X121464046Y-90295713D01*
X121465154Y-90294708D01*
X121512778Y-90275265D01*
X121561757Y-90290982D01*
X121586091Y-90324011D01*
X121632438Y-90447641D01*
X121635648Y-90451924D01*
X121635649Y-90451926D01*
X121711531Y-90553176D01*
X121714741Y-90557459D01*
X121719024Y-90560669D01*
X121820274Y-90636551D01*
X121820276Y-90636552D01*
X121824559Y-90639762D01*
X121829571Y-90641641D01*
X121829573Y-90641642D01*
X121948646Y-90686281D01*
X121948650Y-90686282D01*
X121953062Y-90687936D01*
X121957748Y-90688445D01*
X121957752Y-90688446D01*
X122009617Y-90694080D01*
X122009623Y-90694080D01*
X122011645Y-90694300D01*
X122681835Y-90694300D01*
X123352354Y-90694299D01*
X123354375Y-90694079D01*
X123354384Y-90694079D01*
X123386939Y-90690543D01*
X123410938Y-90687936D01*
X123415353Y-90686281D01*
X123534427Y-90641642D01*
X123534429Y-90641641D01*
X123539441Y-90639762D01*
X123543724Y-90636552D01*
X123543726Y-90636551D01*
X123644976Y-90560669D01*
X123649259Y-90557459D01*
X123652469Y-90553176D01*
X123728351Y-90451926D01*
X123728352Y-90451924D01*
X123731562Y-90447641D01*
X123738877Y-90428129D01*
X123778081Y-90323554D01*
X123778082Y-90323550D01*
X123779736Y-90319138D01*
X123780245Y-90314452D01*
X123780246Y-90314448D01*
X123785880Y-90262583D01*
X123785880Y-90262577D01*
X123786100Y-90260555D01*
X123786099Y-89469846D01*
X123785385Y-89463265D01*
X123780245Y-89415951D01*
X123779736Y-89411262D01*
X123778081Y-89406846D01*
X123733442Y-89287773D01*
X123733441Y-89287771D01*
X123731562Y-89282759D01*
X123702158Y-89243524D01*
X123652469Y-89177224D01*
X123649259Y-89172941D01*
X123630049Y-89158544D01*
X123543726Y-89093849D01*
X123543724Y-89093848D01*
X123539441Y-89090638D01*
X123534429Y-89088759D01*
X123534427Y-89088758D01*
X123415354Y-89044119D01*
X123415350Y-89044118D01*
X123410938Y-89042464D01*
X123406252Y-89041955D01*
X123406248Y-89041954D01*
X123354383Y-89036320D01*
X123354377Y-89036320D01*
X123352355Y-89036100D01*
X122682165Y-89036100D01*
X122011646Y-89036101D01*
X122009625Y-89036321D01*
X122009616Y-89036321D01*
X121977061Y-89039857D01*
X121953062Y-89042464D01*
X121948648Y-89044119D01*
X121948647Y-89044119D01*
X121829573Y-89088758D01*
X121829571Y-89088759D01*
X121824559Y-89090638D01*
X121820276Y-89093848D01*
X121820274Y-89093849D01*
X121733951Y-89158544D01*
X121714741Y-89172941D01*
X121711531Y-89177224D01*
X121661843Y-89243524D01*
X121632438Y-89282759D01*
X121630559Y-89287771D01*
X121630558Y-89287773D01*
X121617053Y-89323799D01*
X121584264Y-89411262D01*
X121583755Y-89415948D01*
X121583754Y-89415952D01*
X121578120Y-89467816D01*
X121577900Y-89469845D01*
X121577900Y-89482897D01*
X121560307Y-89531235D01*
X121515758Y-89556955D01*
X121505521Y-89558044D01*
X121457499Y-89559847D01*
X121454678Y-89559900D01*
X121434407Y-89559900D01*
X121430997Y-89560535D01*
X121427553Y-89560853D01*
X121427537Y-89560676D01*
X121423417Y-89561126D01*
X121401457Y-89561950D01*
X121401454Y-89561951D01*
X121394518Y-89562211D01*
X121388139Y-89564952D01*
X121388137Y-89564952D01*
X121381177Y-89567942D01*
X121365265Y-89572776D01*
X121357816Y-89574164D01*
X121357814Y-89574165D01*
X121350989Y-89575436D01*
X121345080Y-89579078D01*
X121345078Y-89579079D01*
X121326366Y-89590613D01*
X121316590Y-89595691D01*
X121294903Y-89605008D01*
X121294900Y-89605010D01*
X121290021Y-89607106D01*
X121285056Y-89611185D01*
X121279105Y-89617136D01*
X121232485Y-89638876D01*
X121182798Y-89625562D01*
X121170899Y-89615211D01*
X121168467Y-89612599D01*
X121166340Y-89610380D01*
X121163883Y-89607818D01*
X121163869Y-89607804D01*
X121163738Y-89607667D01*
X121163270Y-89607193D01*
X121163182Y-89607106D01*
X121163159Y-89607083D01*
X121161052Y-89605008D01*
X121158640Y-89602632D01*
X121128398Y-89573658D01*
X121128246Y-89573511D01*
X121111360Y-89557214D01*
X121088550Y-89508124D01*
X121087734Y-89495925D01*
X121087734Y-89495922D01*
X121087508Y-89492551D01*
X121084573Y-89480884D01*
X121082300Y-89462538D01*
X121082300Y-88590729D01*
X121084890Y-88571164D01*
X121086547Y-88565014D01*
X121087508Y-88561449D01*
X121087771Y-88557530D01*
X121088550Y-88545875D01*
X121111359Y-88496786D01*
X121128293Y-88480442D01*
X121158640Y-88451367D01*
X121161106Y-88448938D01*
X121163159Y-88446916D01*
X121163193Y-88446882D01*
X121163270Y-88446806D01*
X121163738Y-88446332D01*
X121168467Y-88441400D01*
X121198845Y-88408781D01*
X121206786Y-88399804D01*
X121207547Y-88398898D01*
X121215085Y-88389438D01*
X121244239Y-88350845D01*
X121252994Y-88338438D01*
X121253818Y-88337186D01*
X121255357Y-88334675D01*
X121261397Y-88324820D01*
X121261406Y-88324805D01*
X121261708Y-88324312D01*
X121262036Y-88323737D01*
X121272490Y-88305375D01*
X121272713Y-88304987D01*
X121273644Y-88303375D01*
X121276641Y-88299468D01*
X121278526Y-88294917D01*
X121280404Y-88291664D01*
X121281071Y-88290302D01*
X121284723Y-88283888D01*
X121306992Y-88230183D01*
X121308522Y-88224624D01*
X121308661Y-88224662D01*
X121311827Y-88214522D01*
X121332391Y-88164877D01*
X121332392Y-88164872D01*
X121334277Y-88160322D01*
X121343107Y-88093258D01*
X121353293Y-88015884D01*
X121353936Y-88011000D01*
X121351760Y-87994470D01*
X121334920Y-87866559D01*
X121334919Y-87866556D01*
X121334277Y-87861678D01*
X121316452Y-87818645D01*
X121574311Y-87818645D01*
X121574524Y-87822712D01*
X121574524Y-87822715D01*
X121578035Y-87889704D01*
X121583739Y-87998539D01*
X121584821Y-88002466D01*
X121584821Y-88002468D01*
X121595906Y-88042710D01*
X121631577Y-88172212D01*
X121715592Y-88331561D01*
X121718221Y-88334672D01*
X121718223Y-88334675D01*
X121780628Y-88408521D01*
X121831865Y-88469151D01*
X121835097Y-88471622D01*
X121835098Y-88471623D01*
X121956876Y-88564729D01*
X121974971Y-88578564D01*
X122106934Y-88640099D01*
X122134207Y-88652817D01*
X122138234Y-88654695D01*
X122142205Y-88655583D01*
X122142206Y-88655583D01*
X122311029Y-88693320D01*
X122311031Y-88693320D01*
X122314036Y-88693992D01*
X122317111Y-88694164D01*
X122317112Y-88694164D01*
X122317328Y-88694176D01*
X122319546Y-88694300D01*
X123002004Y-88694300D01*
X123004027Y-88694080D01*
X123004031Y-88694080D01*
X123070633Y-88686845D01*
X123136087Y-88679734D01*
X123139950Y-88678434D01*
X123302960Y-88623575D01*
X123302965Y-88623573D01*
X123306818Y-88622276D01*
X123310304Y-88620181D01*
X123310307Y-88620180D01*
X123457743Y-88531592D01*
X123457746Y-88531590D01*
X123461229Y-88529497D01*
X123592115Y-88405725D01*
X123597029Y-88398495D01*
X123673533Y-88285922D01*
X123693369Y-88256734D01*
X123710253Y-88214522D01*
X123731931Y-88160322D01*
X123760267Y-88089476D01*
X123789689Y-87911755D01*
X123789223Y-87902850D01*
X123782614Y-87776751D01*
X123780261Y-87731861D01*
X123778945Y-87727081D01*
X123733505Y-87562117D01*
X123732423Y-87558188D01*
X123648408Y-87398839D01*
X123645779Y-87395728D01*
X123645777Y-87395725D01*
X123534762Y-87264358D01*
X123532135Y-87261249D01*
X123495321Y-87233102D01*
X123392261Y-87154307D01*
X123389029Y-87151836D01*
X123225766Y-87075705D01*
X123221795Y-87074817D01*
X123221794Y-87074817D01*
X123052971Y-87037080D01*
X123052969Y-87037080D01*
X123049964Y-87036408D01*
X123046889Y-87036236D01*
X123046888Y-87036236D01*
X123046672Y-87036224D01*
X123044454Y-87036100D01*
X122361996Y-87036100D01*
X122359973Y-87036320D01*
X122359969Y-87036320D01*
X122293367Y-87043555D01*
X122227913Y-87050666D01*
X122224050Y-87051966D01*
X122061040Y-87106825D01*
X122061035Y-87106827D01*
X122057182Y-87108124D01*
X122053696Y-87110219D01*
X122053693Y-87110220D01*
X121906257Y-87198808D01*
X121906254Y-87198810D01*
X121902771Y-87200903D01*
X121771885Y-87324675D01*
X121670631Y-87473666D01*
X121669119Y-87477445D01*
X121669119Y-87477446D01*
X121655555Y-87511359D01*
X121603733Y-87640924D01*
X121574311Y-87818645D01*
X121316452Y-87818645D01*
X121276641Y-87722532D01*
X121184955Y-87603045D01*
X121065468Y-87511359D01*
X120966338Y-87470298D01*
X120930871Y-87455607D01*
X120930869Y-87455607D01*
X120926322Y-87453723D01*
X120921444Y-87453081D01*
X120921441Y-87453080D01*
X120781884Y-87434707D01*
X120777000Y-87434064D01*
X120772116Y-87434707D01*
X120632559Y-87453080D01*
X120632556Y-87453081D01*
X120627678Y-87453723D01*
X120623131Y-87455607D01*
X120623129Y-87455607D01*
X120587662Y-87470298D01*
X120488532Y-87511359D01*
X120369045Y-87603045D01*
X120277359Y-87722532D01*
X120219723Y-87861678D01*
X120219081Y-87866556D01*
X120219080Y-87866559D01*
X120202240Y-87994470D01*
X120200064Y-88011000D01*
X120200707Y-88015884D01*
X120210894Y-88093258D01*
X120219723Y-88160322D01*
X120221607Y-88164871D01*
X120221608Y-88164874D01*
X120261592Y-88261405D01*
X120263470Y-88266440D01*
X120269276Y-88283889D01*
X120272931Y-88290308D01*
X120273584Y-88291643D01*
X120275473Y-88294915D01*
X120277359Y-88299468D01*
X120280358Y-88303376D01*
X120281198Y-88304832D01*
X120281422Y-88305223D01*
X120292287Y-88324306D01*
X120296736Y-88331561D01*
X120298646Y-88334675D01*
X120300232Y-88337262D01*
X120301064Y-88338525D01*
X120309762Y-88350847D01*
X120310102Y-88351297D01*
X120310118Y-88351319D01*
X120322957Y-88368315D01*
X120338911Y-88389435D01*
X120346452Y-88398898D01*
X120347213Y-88399804D01*
X120355154Y-88408781D01*
X120385532Y-88441400D01*
X120390261Y-88446332D01*
X120390729Y-88446806D01*
X120390806Y-88446882D01*
X120390840Y-88446916D01*
X120392893Y-88448938D01*
X120395359Y-88451367D01*
X120425706Y-88480442D01*
X120442640Y-88496786D01*
X120465449Y-88545875D01*
X120466065Y-88555077D01*
X120466491Y-88561449D01*
X120467316Y-88564727D01*
X120467316Y-88564729D01*
X120469427Y-88573119D01*
X120471700Y-88591466D01*
X120471700Y-89463265D01*
X120469110Y-89482830D01*
X120466491Y-89492550D01*
X120466244Y-89496240D01*
X120466244Y-89496241D01*
X120465449Y-89508124D01*
X120442639Y-89557214D01*
X120425753Y-89573511D01*
X120425601Y-89573658D01*
X120395359Y-89602632D01*
X120392947Y-89605008D01*
X120390840Y-89607083D01*
X120390817Y-89607106D01*
X120390729Y-89607193D01*
X120390261Y-89607667D01*
X120390130Y-89607804D01*
X120390116Y-89607818D01*
X120387660Y-89610380D01*
X120385532Y-89612599D01*
X120385341Y-89612804D01*
X120385312Y-89612835D01*
X120373460Y-89625562D01*
X120355154Y-89645218D01*
X120347213Y-89654195D01*
X120346452Y-89655101D01*
X120338911Y-89664564D01*
X120338630Y-89664936D01*
X120310118Y-89702680D01*
X120310102Y-89702702D01*
X120309762Y-89703152D01*
X120301064Y-89715474D01*
X120300232Y-89716737D01*
X120292286Y-89729696D01*
X120291989Y-89730218D01*
X120281375Y-89748861D01*
X120281150Y-89749254D01*
X120280363Y-89750617D01*
X120277359Y-89754532D01*
X120275470Y-89759094D01*
X120273580Y-89762367D01*
X120272933Y-89763689D01*
X120269275Y-89770114D01*
X120247005Y-89823826D01*
X120245475Y-89829386D01*
X120245338Y-89829348D01*
X120242171Y-89839482D01*
X120221608Y-89889126D01*
X120221607Y-89889130D01*
X120219723Y-89893678D01*
X120219081Y-89898556D01*
X120219080Y-89898559D01*
X120216472Y-89918369D01*
X120200064Y-90043000D01*
X110795300Y-90043000D01*
X110795300Y-89555638D01*
X110812893Y-89507300D01*
X110857442Y-89481580D01*
X110908100Y-89490513D01*
X110929433Y-89508927D01*
X111016146Y-89618332D01*
X111169837Y-89749133D01*
X111173038Y-89750922D01*
X111173041Y-89750924D01*
X111215691Y-89774760D01*
X111346007Y-89847591D01*
X111537947Y-89909956D01*
X111648480Y-89923136D01*
X111734686Y-89933416D01*
X111734688Y-89933416D01*
X111738344Y-89933852D01*
X111939566Y-89918369D01*
X112090738Y-89876161D01*
X112130410Y-89865084D01*
X112130411Y-89865083D01*
X112133948Y-89864096D01*
X112137222Y-89862442D01*
X112137225Y-89862441D01*
X112220007Y-89820625D01*
X112314087Y-89773102D01*
X112316985Y-89770838D01*
X112316988Y-89770836D01*
X112470223Y-89651116D01*
X112470228Y-89651111D01*
X112473121Y-89648851D01*
X112604992Y-89496077D01*
X112606808Y-89492880D01*
X112606811Y-89492876D01*
X112702860Y-89323799D01*
X112702862Y-89323796D01*
X112704678Y-89320598D01*
X112730497Y-89242983D01*
X112734045Y-89234208D01*
X112744662Y-89212086D01*
X112757099Y-89163597D01*
X112758580Y-89158561D01*
X112768381Y-89129099D01*
X112770150Y-89115095D01*
X112771915Y-89105836D01*
X112776650Y-89087378D01*
X112776658Y-89087344D01*
X112776837Y-89086646D01*
X112778333Y-89079627D01*
X112780700Y-89068520D01*
X112780704Y-89068497D01*
X112780854Y-89067795D01*
X112781178Y-89065893D01*
X112783637Y-89046681D01*
X112794109Y-88925168D01*
X112794935Y-88909359D01*
X112794964Y-88907777D01*
X112794718Y-88891932D01*
X112789152Y-88779293D01*
X112788474Y-88769631D01*
X112788430Y-88769148D01*
X112788418Y-88769012D01*
X112788415Y-88768984D01*
X112788387Y-88768675D01*
X112787331Y-88759215D01*
X112778622Y-88693320D01*
X112773293Y-88653006D01*
X112773287Y-88652964D01*
X112773272Y-88652849D01*
X112773239Y-88652606D01*
X112772878Y-88650008D01*
X112772831Y-88649674D01*
X112759428Y-88557530D01*
X112758877Y-88552612D01*
X112753583Y-88485418D01*
X112753527Y-88474368D01*
X112756607Y-88429451D01*
X112759330Y-88413916D01*
X112770009Y-88376578D01*
X112776539Y-88360798D01*
X112781783Y-88351338D01*
X112804092Y-88311095D01*
X112812572Y-88298844D01*
X112818670Y-88291674D01*
X112842299Y-88263888D01*
X112881101Y-88218261D01*
X112881106Y-88218254D01*
X112883249Y-88215734D01*
X112888494Y-88206752D01*
X112900256Y-88191504D01*
X115695379Y-85396381D01*
X115705422Y-85387954D01*
X115716856Y-85379948D01*
X115716858Y-85379946D01*
X115722248Y-85376172D01*
X115726023Y-85370782D01*
X115726024Y-85370781D01*
X115736943Y-85355189D01*
X115741820Y-85351774D01*
X115740449Y-85350649D01*
X115755208Y-85332666D01*
X115787459Y-85293370D01*
X115837038Y-85200623D01*
X115867570Y-85099986D01*
X115870083Y-85074480D01*
X115871853Y-85064077D01*
X115872708Y-85060563D01*
X115874673Y-85055638D01*
X115875300Y-85049243D01*
X115875300Y-85028611D01*
X115876443Y-85015548D01*
X115878867Y-85001804D01*
X115880010Y-84995326D01*
X115876442Y-84975085D01*
X115875300Y-84962030D01*
X115875300Y-83256729D01*
X115877890Y-83237164D01*
X115880508Y-83227449D01*
X115881550Y-83211875D01*
X115904359Y-83162786D01*
X115921293Y-83146442D01*
X115951640Y-83117367D01*
X115954106Y-83114938D01*
X115956159Y-83112916D01*
X115956193Y-83112882D01*
X115956270Y-83112806D01*
X115956738Y-83112332D01*
X115961467Y-83107400D01*
X115976412Y-83091353D01*
X115991485Y-83075168D01*
X115991500Y-83075151D01*
X115991845Y-83074781D01*
X115999786Y-83065804D01*
X116000547Y-83064898D01*
X116008085Y-83055438D01*
X116037239Y-83016845D01*
X116045994Y-83004438D01*
X116046818Y-83003186D01*
X116047122Y-83002690D01*
X116054397Y-82990820D01*
X116054406Y-82990805D01*
X116054708Y-82990312D01*
X116055036Y-82989737D01*
X116065490Y-82971375D01*
X116065713Y-82970987D01*
X116066644Y-82969375D01*
X116069641Y-82965468D01*
X116071526Y-82960917D01*
X116073404Y-82957664D01*
X116074071Y-82956302D01*
X116077723Y-82949888D01*
X116088339Y-82924286D01*
X116099093Y-82898352D01*
X116099095Y-82898347D01*
X116099992Y-82896183D01*
X116101522Y-82890624D01*
X116101661Y-82890662D01*
X116104827Y-82880522D01*
X116125391Y-82830877D01*
X116125392Y-82830872D01*
X116127277Y-82826322D01*
X116127962Y-82821124D01*
X116146293Y-82681884D01*
X116146936Y-82677000D01*
X116145828Y-82668587D01*
X116127920Y-82532559D01*
X116127919Y-82532556D01*
X116127277Y-82527678D01*
X116069641Y-82388532D01*
X115977955Y-82269045D01*
X115858468Y-82177359D01*
X115739906Y-82128249D01*
X115701982Y-82093498D01*
X115695267Y-82042498D01*
X115722906Y-81999114D01*
X115736244Y-81990931D01*
X115740437Y-81988926D01*
X115758078Y-81980491D01*
X115761560Y-81978790D01*
X115761937Y-81978602D01*
X115766225Y-81976409D01*
X115804421Y-81956370D01*
X115807593Y-81954628D01*
X115811871Y-81952279D01*
X115811904Y-81952261D01*
X115812229Y-81952082D01*
X115812526Y-81951911D01*
X115812550Y-81951898D01*
X115812680Y-81951823D01*
X115812957Y-81951664D01*
X115813211Y-81951512D01*
X115813242Y-81951494D01*
X115819726Y-81947617D01*
X115820029Y-81947436D01*
X115859324Y-81922996D01*
X115859644Y-81922787D01*
X115867907Y-81917384D01*
X115867943Y-81917360D01*
X115868244Y-81917163D01*
X115869113Y-81916566D01*
X115871464Y-81914869D01*
X115877613Y-81910429D01*
X115877983Y-81910162D01*
X115919673Y-81878556D01*
X115928282Y-81871705D01*
X115929112Y-81871012D01*
X115933217Y-81867418D01*
X115937045Y-81864068D01*
X115937074Y-81864042D01*
X115937347Y-81863803D01*
X115976558Y-81827824D01*
X115978055Y-81826067D01*
X115979654Y-81824408D01*
X115979808Y-81824556D01*
X115982927Y-81821593D01*
X115982775Y-81821441D01*
X115986263Y-81817953D01*
X115990170Y-81814955D01*
X116081856Y-81695468D01*
X116110674Y-81625895D01*
X116137608Y-81560871D01*
X116137608Y-81560869D01*
X116139492Y-81556322D01*
X116141200Y-81543354D01*
X116158508Y-81411884D01*
X116159151Y-81407000D01*
X116158508Y-81402116D01*
X116140135Y-81262559D01*
X116140134Y-81262556D01*
X116139492Y-81257678D01*
X116135515Y-81248075D01*
X116083740Y-81123081D01*
X116081856Y-81118532D01*
X115990170Y-80999045D01*
X115870683Y-80907359D01*
X115774455Y-80867500D01*
X115736086Y-80851607D01*
X115736084Y-80851607D01*
X115731537Y-80849723D01*
X115726659Y-80849081D01*
X115726656Y-80849080D01*
X115701382Y-80845753D01*
X115655755Y-80822000D01*
X115636070Y-80774476D01*
X115651538Y-80725417D01*
X115694922Y-80697779D01*
X115701382Y-80696639D01*
X115714441Y-80694920D01*
X115714444Y-80694919D01*
X115719322Y-80694277D01*
X115723869Y-80692393D01*
X115723871Y-80692393D01*
X115831699Y-80647729D01*
X115858468Y-80636641D01*
X115977955Y-80544955D01*
X116069641Y-80425468D01*
X116110543Y-80326721D01*
X116125393Y-80290871D01*
X116125393Y-80290869D01*
X116127277Y-80286322D01*
X116129673Y-80268129D01*
X116146293Y-80141884D01*
X116146936Y-80137000D01*
X116132284Y-80025708D01*
X116127920Y-79992559D01*
X116127919Y-79992556D01*
X116127277Y-79987678D01*
X116116547Y-79961772D01*
X116086601Y-79889477D01*
X116069641Y-79848532D01*
X115977955Y-79729045D01*
X115858468Y-79637359D01*
X115736299Y-79586755D01*
X115723871Y-79581607D01*
X115723869Y-79581607D01*
X115719322Y-79579723D01*
X115714444Y-79579081D01*
X115714441Y-79579080D01*
X115574884Y-79560707D01*
X115570000Y-79560064D01*
X115565116Y-79560707D01*
X115425559Y-79579080D01*
X115425556Y-79579081D01*
X115420678Y-79579723D01*
X115416131Y-79581607D01*
X115416129Y-79581607D01*
X115403701Y-79586755D01*
X115281532Y-79637359D01*
X115162045Y-79729045D01*
X115159047Y-79732952D01*
X115098496Y-79811864D01*
X115094573Y-79816567D01*
X115083537Y-79828751D01*
X115083535Y-79828754D01*
X115081054Y-79831493D01*
X115072600Y-79845612D01*
X115070359Y-79848532D01*
X115069385Y-79850885D01*
X115069113Y-79851113D01*
X115069255Y-79851198D01*
X115054561Y-79875737D01*
X115047754Y-79887913D01*
X115047120Y-79889131D01*
X115046902Y-79889582D01*
X115046895Y-79889596D01*
X115041310Y-79901152D01*
X115041297Y-79901179D01*
X115041065Y-79901660D01*
X115020085Y-79948579D01*
X115015268Y-79960177D01*
X115014820Y-79961343D01*
X115010670Y-79973065D01*
X114996403Y-80017042D01*
X114993913Y-80025224D01*
X114993680Y-80026043D01*
X114991505Y-80034251D01*
X114981114Y-80076548D01*
X114980639Y-80078516D01*
X114980582Y-80078757D01*
X114979924Y-80081621D01*
X114979871Y-80081857D01*
X114971901Y-80117553D01*
X114971225Y-80120329D01*
X114965354Y-80142608D01*
X114963307Y-80149151D01*
X114959309Y-80160140D01*
X114955537Y-80168779D01*
X114951110Y-80177397D01*
X114945897Y-80186055D01*
X114935669Y-80200715D01*
X114929922Y-80207960D01*
X114903936Y-80236868D01*
X114902140Y-80239803D01*
X114902139Y-80239804D01*
X114896863Y-80248425D01*
X114885896Y-80262344D01*
X112467994Y-82680246D01*
X112451425Y-82692762D01*
X112444270Y-82696749D01*
X112441456Y-82699142D01*
X112361156Y-82767427D01*
X112348903Y-82775908D01*
X112299196Y-82803463D01*
X112283422Y-82809990D01*
X112246081Y-82820669D01*
X112230548Y-82823392D01*
X112185631Y-82826472D01*
X112174582Y-82826416D01*
X112163034Y-82825506D01*
X112107390Y-82821123D01*
X112102491Y-82820574D01*
X112010272Y-82807159D01*
X112007246Y-82806739D01*
X111900772Y-82792666D01*
X111900378Y-82792622D01*
X111900353Y-82792619D01*
X111891764Y-82791661D01*
X111891745Y-82791659D01*
X111891314Y-82791611D01*
X111890821Y-82791566D01*
X111890691Y-82791554D01*
X111890663Y-82791552D01*
X111890380Y-82791526D01*
X111888300Y-82791380D01*
X111881062Y-82790872D01*
X111881049Y-82790871D01*
X111880718Y-82790848D01*
X111880360Y-82790830D01*
X111880338Y-82790829D01*
X111779681Y-82785855D01*
X111768066Y-82785281D01*
X111767438Y-82785271D01*
X111767430Y-82785271D01*
X111752857Y-82785045D01*
X111752212Y-82785035D01*
X111751559Y-82785047D01*
X111751556Y-82785047D01*
X111751285Y-82785052D01*
X111751283Y-82785052D01*
X111750633Y-82785064D01*
X111750003Y-82785097D01*
X111750000Y-82785097D01*
X111735482Y-82785855D01*
X111735478Y-82785855D01*
X111734832Y-82785889D01*
X111734189Y-82785944D01*
X111734166Y-82785946D01*
X111677010Y-82790872D01*
X111613317Y-82796361D01*
X111594085Y-82798825D01*
X111592184Y-82799149D01*
X111573351Y-82803162D01*
X111573002Y-82803251D01*
X111570284Y-82803830D01*
X111569900Y-82803903D01*
X111566233Y-82804237D01*
X111562704Y-82805276D01*
X111562702Y-82805276D01*
X111547658Y-82809704D01*
X111545110Y-82810406D01*
X111447912Y-82835338D01*
X111445674Y-82836231D01*
X111445675Y-82836231D01*
X111415667Y-82848209D01*
X111409022Y-82850507D01*
X111376153Y-82860181D01*
X111376151Y-82860182D01*
X111372627Y-82861219D01*
X111369374Y-82862919D01*
X111369373Y-82862920D01*
X111307908Y-82895053D01*
X111193776Y-82954720D01*
X111190917Y-82957019D01*
X111190912Y-82957022D01*
X111039364Y-83078870D01*
X111039360Y-83078874D01*
X111036493Y-83081179D01*
X111034125Y-83084001D01*
X111034124Y-83084002D01*
X110928106Y-83210348D01*
X110883558Y-83236068D01*
X110832900Y-83227135D01*
X110799835Y-83187729D01*
X110795300Y-83162010D01*
X110795300Y-81935638D01*
X110812893Y-81887300D01*
X110857442Y-81861580D01*
X110908100Y-81870513D01*
X110929433Y-81888927D01*
X111016146Y-81998332D01*
X111169837Y-82129133D01*
X111173038Y-82130922D01*
X111173041Y-82130924D01*
X111215691Y-82154760D01*
X111346007Y-82227591D01*
X111537947Y-82289956D01*
X111648480Y-82303136D01*
X111734686Y-82313416D01*
X111734688Y-82313416D01*
X111738344Y-82313852D01*
X111939566Y-82298369D01*
X112090738Y-82256161D01*
X112130410Y-82245084D01*
X112130411Y-82245083D01*
X112133948Y-82244096D01*
X112137222Y-82242442D01*
X112137225Y-82242441D01*
X112266066Y-82177359D01*
X112314087Y-82153102D01*
X112316985Y-82150838D01*
X112316988Y-82150836D01*
X112470223Y-82031116D01*
X112470228Y-82031111D01*
X112473121Y-82028851D01*
X112604992Y-81876077D01*
X112606808Y-81872880D01*
X112606811Y-81872876D01*
X112702862Y-81703795D01*
X112702863Y-81703794D01*
X112704678Y-81700598D01*
X112768381Y-81509099D01*
X112768866Y-81505264D01*
X112793412Y-81310963D01*
X112793412Y-81310962D01*
X112793676Y-81308873D01*
X112794079Y-81280000D01*
X112793874Y-81277907D01*
X112774745Y-81082813D01*
X112774744Y-81082809D01*
X112774385Y-81079146D01*
X112716054Y-80885943D01*
X112621306Y-80707749D01*
X112618461Y-80704260D01*
X112496075Y-80554201D01*
X112496074Y-80554200D01*
X112493752Y-80551353D01*
X112490921Y-80549011D01*
X112490917Y-80549007D01*
X112407569Y-80480056D01*
X112338250Y-80422710D01*
X112327731Y-80417022D01*
X112279963Y-80391194D01*
X112160722Y-80326721D01*
X112112458Y-80311781D01*
X111971443Y-80268129D01*
X111971439Y-80268128D01*
X111967930Y-80267042D01*
X111829763Y-80252520D01*
X111770874Y-80246330D01*
X111770872Y-80246330D01*
X111767219Y-80245946D01*
X111566233Y-80264237D01*
X111372627Y-80321219D01*
X111193776Y-80414720D01*
X111190917Y-80417019D01*
X111190912Y-80417022D01*
X111039364Y-80538870D01*
X111039360Y-80538874D01*
X111036493Y-80541179D01*
X111034125Y-80544001D01*
X111034124Y-80544002D01*
X110928106Y-80670348D01*
X110883558Y-80696068D01*
X110832900Y-80687135D01*
X110799835Y-80647729D01*
X110795300Y-80622010D01*
X110795300Y-79395638D01*
X110812893Y-79347300D01*
X110857442Y-79321580D01*
X110908100Y-79330513D01*
X110929433Y-79348927D01*
X111016146Y-79458332D01*
X111169837Y-79589133D01*
X111173038Y-79590922D01*
X111173041Y-79590924D01*
X111215691Y-79614760D01*
X111346007Y-79687591D01*
X111537947Y-79749956D01*
X111648480Y-79763136D01*
X111734686Y-79773416D01*
X111734688Y-79773416D01*
X111738344Y-79773852D01*
X111939566Y-79758369D01*
X112090738Y-79716161D01*
X112130410Y-79705084D01*
X112130411Y-79705083D01*
X112133948Y-79704096D01*
X112137222Y-79702442D01*
X112137225Y-79702441D01*
X112266066Y-79637359D01*
X112314087Y-79613102D01*
X112316985Y-79610838D01*
X112316988Y-79610836D01*
X112470223Y-79491116D01*
X112470228Y-79491111D01*
X112473121Y-79488851D01*
X112604992Y-79336077D01*
X112606808Y-79332880D01*
X112606811Y-79332876D01*
X112702862Y-79163795D01*
X112702863Y-79163794D01*
X112704678Y-79160598D01*
X112768381Y-78969099D01*
X112773994Y-78924673D01*
X112793412Y-78770963D01*
X112793412Y-78770962D01*
X112793676Y-78768873D01*
X112793961Y-78748435D01*
X112794050Y-78742099D01*
X112794050Y-78742094D01*
X112794079Y-78740000D01*
X112793224Y-78731281D01*
X112774745Y-78542813D01*
X112774744Y-78542809D01*
X112774385Y-78539146D01*
X112716054Y-78345943D01*
X112621306Y-78167749D01*
X112611544Y-78155779D01*
X112496075Y-78014201D01*
X112496074Y-78014200D01*
X112493752Y-78011353D01*
X112490921Y-78009011D01*
X112490917Y-78009007D01*
X112407569Y-77940056D01*
X112338250Y-77882710D01*
X112327731Y-77877022D01*
X112279963Y-77851194D01*
X112160722Y-77786721D01*
X112087497Y-77764054D01*
X111971443Y-77728129D01*
X111971439Y-77728128D01*
X111967930Y-77727042D01*
X111821117Y-77711611D01*
X111770874Y-77706330D01*
X111770872Y-77706330D01*
X111767219Y-77705946D01*
X111624262Y-77718956D01*
X111576046Y-77723344D01*
X111566233Y-77724237D01*
X111372627Y-77781219D01*
X111193776Y-77874720D01*
X111190917Y-77877019D01*
X111190912Y-77877022D01*
X111039364Y-77998870D01*
X111039360Y-77998874D01*
X111036493Y-78001179D01*
X111034125Y-78004001D01*
X111034124Y-78004002D01*
X110928106Y-78130348D01*
X110883558Y-78156068D01*
X110832900Y-78147135D01*
X110799835Y-78107729D01*
X110795300Y-78082010D01*
X110795300Y-76855638D01*
X110812893Y-76807300D01*
X110857442Y-76781580D01*
X110908100Y-76790513D01*
X110929433Y-76808927D01*
X111016146Y-76918332D01*
X111169837Y-77049133D01*
X111173038Y-77050922D01*
X111173041Y-77050924D01*
X111215691Y-77074760D01*
X111346007Y-77147591D01*
X111537947Y-77209956D01*
X111648480Y-77223136D01*
X111734686Y-77233416D01*
X111734688Y-77233416D01*
X111738344Y-77233852D01*
X111939566Y-77218369D01*
X112090738Y-77176161D01*
X112130410Y-77165084D01*
X112130411Y-77165083D01*
X112133948Y-77164096D01*
X112137222Y-77162442D01*
X112137225Y-77162441D01*
X112266066Y-77097359D01*
X112314087Y-77073102D01*
X112316985Y-77070838D01*
X112316988Y-77070836D01*
X112470223Y-76951116D01*
X112470228Y-76951111D01*
X112473121Y-76948851D01*
X112604992Y-76796077D01*
X112606808Y-76792880D01*
X112606811Y-76792876D01*
X112702862Y-76623795D01*
X112702863Y-76623794D01*
X112704678Y-76620598D01*
X112768381Y-76429099D01*
X112774205Y-76383003D01*
X112793412Y-76230963D01*
X112793412Y-76230962D01*
X112793676Y-76228873D01*
X112794079Y-76200000D01*
X112793874Y-76197907D01*
X112774745Y-76002813D01*
X112774744Y-76002809D01*
X112774385Y-75999146D01*
X112716054Y-75805943D01*
X112621306Y-75627749D01*
X112611544Y-75615779D01*
X112496075Y-75474201D01*
X112496074Y-75474200D01*
X112493752Y-75471353D01*
X112490921Y-75469011D01*
X112490917Y-75469007D01*
X112407569Y-75400056D01*
X112338250Y-75342710D01*
X112327731Y-75337022D01*
X112279963Y-75311194D01*
X112160722Y-75246721D01*
X112112458Y-75231781D01*
X111971443Y-75188129D01*
X111971439Y-75188128D01*
X111967930Y-75187042D01*
X111829763Y-75172520D01*
X111770874Y-75166330D01*
X111770872Y-75166330D01*
X111767219Y-75165946D01*
X111566233Y-75184237D01*
X111372627Y-75241219D01*
X111193776Y-75334720D01*
X111190917Y-75337019D01*
X111190912Y-75337022D01*
X111039364Y-75458870D01*
X111039360Y-75458874D01*
X111036493Y-75461179D01*
X111034125Y-75464001D01*
X111034124Y-75464002D01*
X110928106Y-75590348D01*
X110883558Y-75616068D01*
X110832900Y-75607135D01*
X110799835Y-75567729D01*
X110795300Y-75542010D01*
X110795300Y-74315638D01*
X110812893Y-74267300D01*
X110857442Y-74241580D01*
X110908100Y-74250513D01*
X110929433Y-74268927D01*
X111016146Y-74378332D01*
X111169837Y-74509133D01*
X111173038Y-74510922D01*
X111173041Y-74510924D01*
X111215691Y-74534760D01*
X111346007Y-74607591D01*
X111537947Y-74669956D01*
X111648480Y-74683136D01*
X111734686Y-74693416D01*
X111734688Y-74693416D01*
X111738344Y-74693852D01*
X111939566Y-74678369D01*
X112090738Y-74636161D01*
X112130410Y-74625084D01*
X112130411Y-74625083D01*
X112133948Y-74624096D01*
X112137222Y-74622442D01*
X112137225Y-74622441D01*
X112220007Y-74580625D01*
X112314087Y-74533102D01*
X112316985Y-74530838D01*
X112316988Y-74530836D01*
X112470223Y-74411116D01*
X112470228Y-74411111D01*
X112473121Y-74408851D01*
X112604992Y-74256077D01*
X112606808Y-74252880D01*
X112606811Y-74252876D01*
X112702862Y-74083795D01*
X112702863Y-74083794D01*
X112704678Y-74080598D01*
X112768381Y-73889099D01*
X112774205Y-73843003D01*
X112793412Y-73690963D01*
X112793412Y-73690962D01*
X112793676Y-73688873D01*
X112794079Y-73660000D01*
X112793162Y-73650645D01*
X112774745Y-73462813D01*
X112774744Y-73462809D01*
X112774385Y-73459146D01*
X112716054Y-73265943D01*
X112621306Y-73087749D01*
X112611544Y-73075779D01*
X112496075Y-72934201D01*
X112496074Y-72934200D01*
X112493752Y-72931353D01*
X112490921Y-72929011D01*
X112490917Y-72929007D01*
X112407569Y-72860056D01*
X112338250Y-72802710D01*
X112327731Y-72797022D01*
X112279963Y-72771194D01*
X112160722Y-72706721D01*
X112084140Y-72683015D01*
X111971443Y-72648129D01*
X111971439Y-72648128D01*
X111967930Y-72647042D01*
X111829763Y-72632520D01*
X111770874Y-72626330D01*
X111770872Y-72626330D01*
X111767219Y-72625946D01*
X111566233Y-72644237D01*
X111372627Y-72701219D01*
X111193776Y-72794720D01*
X111190917Y-72797019D01*
X111190912Y-72797022D01*
X111039364Y-72918870D01*
X111039360Y-72918874D01*
X111036493Y-72921179D01*
X111034125Y-72924001D01*
X111034124Y-72924002D01*
X110928106Y-73050348D01*
X110883558Y-73076068D01*
X110832900Y-73067135D01*
X110799835Y-73027729D01*
X110795300Y-73002010D01*
X110795300Y-71775638D01*
X110812893Y-71727300D01*
X110857442Y-71701580D01*
X110908100Y-71710513D01*
X110929433Y-71728927D01*
X111016146Y-71838332D01*
X111169837Y-71969133D01*
X111173038Y-71970922D01*
X111173041Y-71970924D01*
X111227339Y-72001270D01*
X111346007Y-72067591D01*
X111537947Y-72129956D01*
X111648480Y-72143136D01*
X111734686Y-72153416D01*
X111734688Y-72153416D01*
X111738344Y-72153852D01*
X111939566Y-72138369D01*
X112090738Y-72096161D01*
X112130410Y-72085084D01*
X112130411Y-72085083D01*
X112133948Y-72084096D01*
X112137222Y-72082442D01*
X112137225Y-72082441D01*
X112215101Y-72043103D01*
X112221104Y-72040394D01*
X112240665Y-72032578D01*
X112244096Y-72031207D01*
X112247193Y-72029193D01*
X112247196Y-72029192D01*
X112259638Y-72021103D01*
X112266718Y-72017029D01*
X112314087Y-71993102D01*
X112377700Y-71943402D01*
X112470223Y-71871116D01*
X112470228Y-71871111D01*
X112473121Y-71868851D01*
X112604992Y-71716077D01*
X112606808Y-71712880D01*
X112606811Y-71712876D01*
X112702861Y-71543797D01*
X112702862Y-71543795D01*
X112704678Y-71540598D01*
X112705617Y-71537776D01*
X112711877Y-71526569D01*
X112728116Y-71502831D01*
X112769930Y-71472869D01*
X112821219Y-71476793D01*
X112843357Y-71492116D01*
X114944185Y-73592944D01*
X114956187Y-73608607D01*
X114959368Y-73614134D01*
X114959371Y-73614138D01*
X114961212Y-73617337D01*
X114971489Y-73629088D01*
X114990069Y-73679923D01*
X114989649Y-73703603D01*
X114988753Y-73745470D01*
X114988703Y-73751882D01*
X114988707Y-73752548D01*
X114988851Y-73759461D01*
X114988865Y-73759849D01*
X114988865Y-73759856D01*
X114989657Y-73782116D01*
X114990435Y-73804005D01*
X114991180Y-73816109D01*
X114991285Y-73817308D01*
X114992632Y-73829190D01*
X114999304Y-73877076D01*
X115001876Y-73891991D01*
X115001992Y-73892556D01*
X115001998Y-73892586D01*
X115002045Y-73892810D01*
X115002181Y-73893472D01*
X115005716Y-73908207D01*
X115011528Y-73929385D01*
X115011536Y-73929415D01*
X115011651Y-73929840D01*
X115012080Y-73931439D01*
X115012723Y-73936322D01*
X115014608Y-73940871D01*
X115015591Y-73944536D01*
X115016068Y-73945925D01*
X115018024Y-73953055D01*
X115040257Y-74006782D01*
X115041412Y-74008814D01*
X115041413Y-74008816D01*
X115043107Y-74011796D01*
X115042982Y-74011867D01*
X115047909Y-74021270D01*
X115070359Y-74075468D01*
X115162045Y-74194955D01*
X115281532Y-74286641D01*
X115351105Y-74315459D01*
X115416129Y-74342393D01*
X115416131Y-74342393D01*
X115420678Y-74344277D01*
X115425556Y-74344919D01*
X115425559Y-74344920D01*
X115565116Y-74363293D01*
X115570000Y-74363936D01*
X115574884Y-74363293D01*
X115714441Y-74344920D01*
X115714444Y-74344919D01*
X115719322Y-74344277D01*
X115723869Y-74342393D01*
X115723871Y-74342393D01*
X115788895Y-74315459D01*
X115858468Y-74286641D01*
X115977955Y-74194955D01*
X116069641Y-74075468D01*
X116112537Y-73971907D01*
X116125393Y-73940871D01*
X116125393Y-73940869D01*
X116127277Y-73936322D01*
X116128131Y-73929840D01*
X116146293Y-73791884D01*
X116146936Y-73787000D01*
X116142372Y-73752334D01*
X116127920Y-73642559D01*
X116127919Y-73642556D01*
X116127277Y-73637678D01*
X116115236Y-73608607D01*
X116071525Y-73503081D01*
X116069641Y-73498532D01*
X115977955Y-73379045D01*
X115858468Y-73287359D01*
X115853923Y-73285476D01*
X115853917Y-73285473D01*
X115757391Y-73245492D01*
X115752502Y-73243259D01*
X115739352Y-73236675D01*
X115739347Y-73236673D01*
X115736053Y-73235024D01*
X115728923Y-73233067D01*
X115727510Y-73232583D01*
X115723879Y-73231610D01*
X115719322Y-73229723D01*
X115714438Y-73229080D01*
X115712907Y-73228670D01*
X115712468Y-73228551D01*
X115693694Y-73223399D01*
X115651736Y-73193641D01*
X115638722Y-73143874D01*
X115660742Y-73097386D01*
X115703781Y-73076323D01*
X115714440Y-73074920D01*
X115714442Y-73074919D01*
X115719322Y-73074277D01*
X115723869Y-73072393D01*
X115723871Y-73072393D01*
X115831699Y-73027729D01*
X115858468Y-73016641D01*
X115977955Y-72924955D01*
X116069641Y-72805468D01*
X116110543Y-72706721D01*
X116125393Y-72670871D01*
X116125393Y-72670869D01*
X116127277Y-72666322D01*
X116127942Y-72661275D01*
X116146293Y-72521884D01*
X116146936Y-72517000D01*
X116141443Y-72475275D01*
X116127920Y-72372559D01*
X116127919Y-72372556D01*
X116127277Y-72367678D01*
X116117660Y-72344459D01*
X116071525Y-72233081D01*
X116069641Y-72228532D01*
X115977955Y-72109045D01*
X115895135Y-72045494D01*
X115890443Y-72041580D01*
X115889134Y-72040394D01*
X115880503Y-72032578D01*
X115878249Y-72030537D01*
X115878248Y-72030536D01*
X115875509Y-72028056D01*
X115861392Y-72019603D01*
X115858468Y-72017359D01*
X115856115Y-72016384D01*
X115855884Y-72016109D01*
X115855798Y-72016253D01*
X115831762Y-72001860D01*
X115831752Y-72001854D01*
X115831264Y-72001562D01*
X115819086Y-71994754D01*
X115817868Y-71994120D01*
X115817417Y-71993902D01*
X115817403Y-71993895D01*
X115805847Y-71988310D01*
X115805820Y-71988297D01*
X115805339Y-71988065D01*
X115804826Y-71987835D01*
X115804801Y-71987824D01*
X115767005Y-71970924D01*
X115758420Y-71967085D01*
X115757625Y-71966755D01*
X115747295Y-71962464D01*
X115747267Y-71962453D01*
X115746822Y-71962268D01*
X115745656Y-71961820D01*
X115745227Y-71961668D01*
X115734350Y-71957817D01*
X115734328Y-71957809D01*
X115733931Y-71957669D01*
X115733522Y-71957536D01*
X115733465Y-71957517D01*
X115708935Y-71949560D01*
X115668385Y-71917910D01*
X115657666Y-71867599D01*
X115681794Y-71822169D01*
X115712675Y-71805393D01*
X115714442Y-71804919D01*
X115719322Y-71804277D01*
X115858468Y-71746641D01*
X115977955Y-71654955D01*
X116069641Y-71535468D01*
X116124223Y-71403696D01*
X116125393Y-71400871D01*
X116125393Y-71400869D01*
X116127277Y-71396322D01*
X116130979Y-71368207D01*
X116146293Y-71251884D01*
X116146936Y-71247000D01*
X116143310Y-71219461D01*
X116127920Y-71102559D01*
X116127919Y-71102556D01*
X116127277Y-71097678D01*
X116115236Y-71068607D01*
X116085260Y-70996240D01*
X116069641Y-70958532D01*
X115977955Y-70839045D01*
X115858468Y-70747359D01*
X115853923Y-70745476D01*
X115853917Y-70745473D01*
X115761773Y-70707307D01*
X115757389Y-70705491D01*
X115752502Y-70703259D01*
X115739352Y-70696675D01*
X115739347Y-70696673D01*
X115736053Y-70695024D01*
X115728923Y-70693067D01*
X115727510Y-70692583D01*
X115723879Y-70691610D01*
X115719322Y-70689723D01*
X115714438Y-70689080D01*
X115712907Y-70688670D01*
X115712468Y-70688551D01*
X115693694Y-70683399D01*
X115651736Y-70653641D01*
X115638722Y-70603874D01*
X115660742Y-70557386D01*
X115703781Y-70536323D01*
X115714440Y-70534920D01*
X115714442Y-70534919D01*
X115719322Y-70534277D01*
X115723869Y-70532393D01*
X115723871Y-70532393D01*
X115831699Y-70487729D01*
X115858468Y-70476641D01*
X115969278Y-70391613D01*
X115974048Y-70387953D01*
X115977955Y-70384955D01*
X116069641Y-70265468D01*
X116110543Y-70166721D01*
X116125393Y-70130871D01*
X116125393Y-70130869D01*
X116127277Y-70126322D01*
X116129673Y-70108129D01*
X116146293Y-69981884D01*
X116146936Y-69977000D01*
X116142372Y-69942334D01*
X116127920Y-69832559D01*
X116127919Y-69832556D01*
X116127277Y-69827678D01*
X116115236Y-69798607D01*
X116079502Y-69712339D01*
X116069641Y-69688532D01*
X115985847Y-69579330D01*
X115980953Y-69572952D01*
X115977955Y-69569045D01*
X115858468Y-69477359D01*
X115853923Y-69475476D01*
X115853917Y-69475473D01*
X115757391Y-69435492D01*
X115752502Y-69433259D01*
X115739352Y-69426675D01*
X115739347Y-69426673D01*
X115736053Y-69425024D01*
X115728923Y-69423067D01*
X115727510Y-69422583D01*
X115723879Y-69421610D01*
X115719322Y-69419723D01*
X115714438Y-69419080D01*
X115712907Y-69418670D01*
X115712468Y-69418551D01*
X115693694Y-69413399D01*
X115651736Y-69383641D01*
X115638722Y-69333874D01*
X115660742Y-69287386D01*
X115703781Y-69266323D01*
X115714440Y-69264920D01*
X115714442Y-69264919D01*
X115719322Y-69264277D01*
X115723869Y-69262393D01*
X115723871Y-69262393D01*
X115811265Y-69226193D01*
X115858468Y-69206641D01*
X115966238Y-69123946D01*
X115974048Y-69117953D01*
X115977955Y-69114955D01*
X116069641Y-68995468D01*
X116123133Y-68866326D01*
X116125393Y-68860871D01*
X116125393Y-68860869D01*
X116127277Y-68856322D01*
X116127942Y-68851275D01*
X116146293Y-68711884D01*
X116146936Y-68707000D01*
X116142372Y-68672334D01*
X116127920Y-68562559D01*
X116127919Y-68562556D01*
X116127277Y-68557678D01*
X116123276Y-68548017D01*
X116085404Y-68456587D01*
X116083526Y-68451551D01*
X116078888Y-68437612D01*
X116078888Y-68437611D01*
X116077723Y-68434111D01*
X116074070Y-68427695D01*
X116073414Y-68426354D01*
X116071526Y-68423084D01*
X116069641Y-68418532D01*
X116066641Y-68414622D01*
X116065715Y-68413018D01*
X116065598Y-68412813D01*
X116054708Y-68393687D01*
X116046818Y-68380813D01*
X116046446Y-68380247D01*
X116046346Y-68380096D01*
X116045994Y-68379561D01*
X116037239Y-68367154D01*
X116008085Y-68328561D01*
X116000547Y-68319101D01*
X115999786Y-68318195D01*
X115991845Y-68309218D01*
X115961467Y-68276599D01*
X115956738Y-68271667D01*
X115956270Y-68271193D01*
X115956203Y-68271127D01*
X115956159Y-68271083D01*
X115952939Y-68267912D01*
X115951640Y-68266632D01*
X115921398Y-68237658D01*
X115921246Y-68237511D01*
X115904360Y-68221214D01*
X115881550Y-68172124D01*
X115880734Y-68159925D01*
X115880734Y-68159922D01*
X115880508Y-68156551D01*
X115877573Y-68144884D01*
X115875300Y-68126538D01*
X115875300Y-64897970D01*
X115876442Y-64884915D01*
X115878868Y-64871154D01*
X115878868Y-64871152D01*
X115880010Y-64864674D01*
X115875579Y-64839554D01*
X115876613Y-64833686D01*
X115874846Y-64833860D01*
X115867932Y-64763687D01*
X115867932Y-64763686D01*
X115867570Y-64760014D01*
X115837038Y-64659377D01*
X115787459Y-64566630D01*
X115771233Y-64546860D01*
X115765124Y-64538248D01*
X115763234Y-64535142D01*
X115761139Y-64530266D01*
X115757060Y-64525301D01*
X115742464Y-64510705D01*
X115734040Y-64500667D01*
X115726023Y-64489218D01*
X115726021Y-64489216D01*
X115722248Y-64483828D01*
X115716858Y-64480054D01*
X115716857Y-64480053D01*
X115705422Y-64472047D01*
X115695379Y-64463620D01*
X112899752Y-61667992D01*
X112887238Y-61651426D01*
X112883249Y-61644267D01*
X112870452Y-61629218D01*
X112812572Y-61561156D01*
X112804089Y-61548900D01*
X112776536Y-61499196D01*
X112770009Y-61483422D01*
X112759330Y-61446081D01*
X112756607Y-61430548D01*
X112753527Y-61385630D01*
X112753583Y-61374581D01*
X112758875Y-61307396D01*
X112759426Y-61302475D01*
X112763757Y-61272707D01*
X112772843Y-61210246D01*
X112773263Y-61207222D01*
X112787333Y-61100772D01*
X112788388Y-61091314D01*
X112788474Y-61090369D01*
X112789152Y-61080706D01*
X112794718Y-60968067D01*
X112794964Y-60952222D01*
X112794935Y-60950640D01*
X112794862Y-60949233D01*
X112794141Y-60935444D01*
X112794109Y-60934831D01*
X112783637Y-60813318D01*
X112781178Y-60794106D01*
X112780854Y-60792204D01*
X112776837Y-60773352D01*
X112776554Y-60772247D01*
X112776531Y-60772117D01*
X112776471Y-60771861D01*
X112776485Y-60771858D01*
X112775524Y-60766403D01*
X112775459Y-60766416D01*
X112774744Y-60762808D01*
X112774385Y-60759146D01*
X112766915Y-60734405D01*
X112766071Y-60731381D01*
X112745265Y-60650263D01*
X112745264Y-60650260D01*
X112744662Y-60647913D01*
X112730018Y-60611224D01*
X112727877Y-60605102D01*
X112717117Y-60569462D01*
X112717115Y-60569457D01*
X112716054Y-60565943D01*
X112621306Y-60387749D01*
X112611544Y-60375779D01*
X112496075Y-60234201D01*
X112496074Y-60234200D01*
X112493752Y-60231353D01*
X112490921Y-60229011D01*
X112490917Y-60229007D01*
X112407569Y-60160056D01*
X112338250Y-60102710D01*
X112327731Y-60097022D01*
X112279963Y-60071194D01*
X112160722Y-60006721D01*
X112112458Y-59991781D01*
X111971443Y-59948129D01*
X111971439Y-59948128D01*
X111967930Y-59947042D01*
X111829763Y-59932520D01*
X111770874Y-59926330D01*
X111770872Y-59926330D01*
X111767219Y-59925946D01*
X111566233Y-59944237D01*
X111372627Y-60001219D01*
X111193776Y-60094720D01*
X111190917Y-60097019D01*
X111190912Y-60097022D01*
X111039364Y-60218870D01*
X111039360Y-60218874D01*
X111036493Y-60221179D01*
X111034125Y-60224001D01*
X111034124Y-60224002D01*
X110928106Y-60350348D01*
X110883558Y-60376068D01*
X110832900Y-60367135D01*
X110799835Y-60327729D01*
X110795300Y-60302010D01*
X110795300Y-59512458D01*
X110812893Y-59464120D01*
X110857442Y-59438400D01*
X110885169Y-59438703D01*
X110937438Y-59449100D01*
X112582562Y-59449100D01*
X112649390Y-59435807D01*
X112725172Y-59385172D01*
X112775807Y-59309390D01*
X112789100Y-59242562D01*
X112789100Y-58580318D01*
X125981198Y-58580318D01*
X125983095Y-58602912D01*
X125984417Y-58610116D01*
X126037990Y-58796949D01*
X126040686Y-58803758D01*
X126129529Y-58976625D01*
X126133495Y-58982780D01*
X126254226Y-59135105D01*
X126259302Y-59140361D01*
X126407330Y-59266343D01*
X126413328Y-59270512D01*
X126582997Y-59365336D01*
X126589710Y-59368269D01*
X126774557Y-59428329D01*
X126781705Y-59429901D01*
X126834435Y-59436189D01*
X126844956Y-59433721D01*
X126847600Y-59430187D01*
X126847600Y-58585659D01*
X126843903Y-58575502D01*
X126838531Y-58572400D01*
X125993792Y-58572400D01*
X125983635Y-58576097D01*
X125981198Y-58580318D01*
X112789100Y-58580318D01*
X112789100Y-57597438D01*
X112778703Y-57545170D01*
X112786528Y-57494330D01*
X112825202Y-57460413D01*
X112852458Y-57455300D01*
X126344686Y-57455300D01*
X126393024Y-57472893D01*
G37*
%TD.AperFunction*%
%TD*%
M02*
