%TF.GenerationSoftware,KiCad,Pcbnew,(6.0.8)*%
%TF.CreationDate,2022-10-29T15:55:06-04:00*%
%TF.ProjectId,HP3457A_NVSRAM_MOD,48503334-3537-4415-9f4e-565352414d5f,rev?*%
%TF.SameCoordinates,Original*%
%TF.FileFunction,Legend,Top*%
%TF.FilePolarity,Positive*%
%FSLAX46Y46*%
G04 Gerber Fmt 4.6, Leading zero omitted, Abs format (unit mm)*
G04 Created by KiCad (PCBNEW (6.0.8)) date 2022-10-29 15:55:06*
%MOMM*%
%LPD*%
G01*
G04 APERTURE LIST*
%ADD10C,0.127000*%
%ADD11C,0.120000*%
G04 APERTURE END LIST*
D10*
X115951000Y-88138000D02*
X115951000Y-85598000D01*
X115951000Y-85598000D02*
X113030000Y-85598000D01*
X112979502Y-58141809D02*
X112979502Y-57633809D01*
X113148835Y-57996666D01*
X113318169Y-57633809D01*
X113318169Y-58141809D01*
X113560073Y-58093428D02*
X113584264Y-58117619D01*
X113560073Y-58141809D01*
X113535883Y-58117619D01*
X113560073Y-58093428D01*
X113560073Y-58141809D01*
X113777788Y-57996666D02*
X114019692Y-57996666D01*
X113729407Y-58141809D02*
X113898740Y-57633809D01*
X114068073Y-58141809D01*
X114237407Y-58093428D02*
X114261597Y-58117619D01*
X114237407Y-58141809D01*
X114213216Y-58117619D01*
X114237407Y-58093428D01*
X114237407Y-58141809D01*
X114842169Y-58117619D02*
X114914740Y-58141809D01*
X115035692Y-58141809D01*
X115084073Y-58117619D01*
X115108264Y-58093428D01*
X115132454Y-58045047D01*
X115132454Y-57996666D01*
X115108264Y-57948285D01*
X115084073Y-57924095D01*
X115035692Y-57899904D01*
X114938930Y-57875714D01*
X114890550Y-57851523D01*
X114866359Y-57827333D01*
X114842169Y-57778952D01*
X114842169Y-57730571D01*
X114866359Y-57682190D01*
X114890550Y-57658000D01*
X114938930Y-57633809D01*
X115059883Y-57633809D01*
X115132454Y-57658000D01*
X115301788Y-57633809D02*
X115422740Y-58141809D01*
X115519502Y-57778952D01*
X115616264Y-58141809D01*
X115737216Y-57633809D01*
X115906550Y-57996666D02*
X116148454Y-57996666D01*
X115858169Y-58141809D02*
X116027502Y-57633809D01*
X116196835Y-58141809D01*
X116535502Y-57875714D02*
X116608073Y-57899904D01*
X116632264Y-57924095D01*
X116656454Y-57972476D01*
X116656454Y-58045047D01*
X116632264Y-58093428D01*
X116608073Y-58117619D01*
X116559692Y-58141809D01*
X116366169Y-58141809D01*
X116366169Y-57633809D01*
X116535502Y-57633809D01*
X116583883Y-57658000D01*
X116608073Y-57682190D01*
X116632264Y-57730571D01*
X116632264Y-57778952D01*
X116608073Y-57827333D01*
X116583883Y-57851523D01*
X116535502Y-57875714D01*
X116366169Y-57875714D01*
X116874169Y-57875714D02*
X117043502Y-57875714D01*
X117116073Y-58141809D02*
X116874169Y-58141809D01*
X116874169Y-57633809D01*
X117116073Y-57633809D01*
X117430550Y-57899904D02*
X117430550Y-58141809D01*
X117261216Y-57633809D02*
X117430550Y-57899904D01*
X117599883Y-57633809D01*
X118107883Y-57633809D02*
X118446550Y-58141809D01*
X118446550Y-57633809D02*
X118107883Y-58141809D01*
X118591692Y-57633809D02*
X118930359Y-58141809D01*
X118930359Y-57633809D02*
X118591692Y-58141809D01*
X119341597Y-57633809D02*
X119244835Y-57633809D01*
X119196454Y-57658000D01*
X119172264Y-57682190D01*
X119123883Y-57754761D01*
X119099692Y-57851523D01*
X119099692Y-58045047D01*
X119123883Y-58093428D01*
X119148073Y-58117619D01*
X119196454Y-58141809D01*
X119293216Y-58141809D01*
X119341597Y-58117619D01*
X119365788Y-58093428D01*
X119389978Y-58045047D01*
X119389978Y-57924095D01*
X119365788Y-57875714D01*
X119341597Y-57851523D01*
X119293216Y-57827333D01*
X119196454Y-57827333D01*
X119148073Y-57851523D01*
X119123883Y-57875714D01*
X119099692Y-57924095D01*
X119583502Y-57682190D02*
X119607692Y-57658000D01*
X119656073Y-57633809D01*
X119777026Y-57633809D01*
X119825407Y-57658000D01*
X119849597Y-57682190D01*
X119873788Y-57730571D01*
X119873788Y-57778952D01*
X119849597Y-57851523D01*
X119559311Y-58141809D01*
X119873788Y-58141809D01*
X120478550Y-58141809D02*
X120478550Y-57633809D01*
X120768835Y-58141809D01*
X120768835Y-57633809D01*
X120938169Y-57633809D02*
X121107502Y-58141809D01*
X121276835Y-57633809D01*
X121421978Y-58117619D02*
X121494550Y-58141809D01*
X121615502Y-58141809D01*
X121663883Y-58117619D01*
X121688073Y-58093428D01*
X121712264Y-58045047D01*
X121712264Y-57996666D01*
X121688073Y-57948285D01*
X121663883Y-57924095D01*
X121615502Y-57899904D01*
X121518740Y-57875714D01*
X121470359Y-57851523D01*
X121446169Y-57827333D01*
X121421978Y-57778952D01*
X121421978Y-57730571D01*
X121446169Y-57682190D01*
X121470359Y-57658000D01*
X121518740Y-57633809D01*
X121639692Y-57633809D01*
X121712264Y-57658000D01*
X122220264Y-58141809D02*
X122050930Y-57899904D01*
X121929978Y-58141809D02*
X121929978Y-57633809D01*
X122123502Y-57633809D01*
X122171883Y-57658000D01*
X122196073Y-57682190D01*
X122220264Y-57730571D01*
X122220264Y-57803142D01*
X122196073Y-57851523D01*
X122171883Y-57875714D01*
X122123502Y-57899904D01*
X121929978Y-57899904D01*
X122413788Y-57996666D02*
X122655692Y-57996666D01*
X122365407Y-58141809D02*
X122534740Y-57633809D01*
X122704073Y-58141809D01*
X122873407Y-58141809D02*
X122873407Y-57633809D01*
X123042740Y-57996666D01*
X123212073Y-57633809D01*
X123212073Y-58141809D01*
X125064761Y-57633809D02*
X125234095Y-58141809D01*
X125403428Y-57633809D01*
X125838857Y-58141809D02*
X125548571Y-58141809D01*
X125693714Y-58141809D02*
X125693714Y-57633809D01*
X125645333Y-57706380D01*
X125596952Y-57754761D01*
X125548571Y-57778952D01*
%TO.C,U3*%
X118992952Y-65634809D02*
X118992952Y-66046047D01*
X119017142Y-66094428D01*
X119041333Y-66118619D01*
X119089714Y-66142809D01*
X119186476Y-66142809D01*
X119234857Y-66118619D01*
X119259047Y-66094428D01*
X119283238Y-66046047D01*
X119283238Y-65634809D01*
X119476761Y-65634809D02*
X119791238Y-65634809D01*
X119621904Y-65828333D01*
X119694476Y-65828333D01*
X119742857Y-65852523D01*
X119767047Y-65876714D01*
X119791238Y-65925095D01*
X119791238Y-66046047D01*
X119767047Y-66094428D01*
X119742857Y-66118619D01*
X119694476Y-66142809D01*
X119549333Y-66142809D01*
X119500952Y-66118619D01*
X119476761Y-66094428D01*
%TO.C,U2*%
X117976952Y-59977831D02*
X117976952Y-60389069D01*
X118001142Y-60437450D01*
X118025333Y-60461641D01*
X118073714Y-60485831D01*
X118170476Y-60485831D01*
X118218857Y-60461641D01*
X118243047Y-60437450D01*
X118267238Y-60389069D01*
X118267238Y-59977831D01*
X118484952Y-60026212D02*
X118509142Y-60002022D01*
X118557523Y-59977831D01*
X118678476Y-59977831D01*
X118726857Y-60002022D01*
X118751047Y-60026212D01*
X118775238Y-60074593D01*
X118775238Y-60122974D01*
X118751047Y-60195545D01*
X118460761Y-60485831D01*
X118775238Y-60485831D01*
%TO.C,R1*%
X124054809Y-61044666D02*
X123812904Y-61214000D01*
X124054809Y-61334952D02*
X123546809Y-61334952D01*
X123546809Y-61141428D01*
X123571000Y-61093047D01*
X123595190Y-61068857D01*
X123643571Y-61044666D01*
X123716142Y-61044666D01*
X123764523Y-61068857D01*
X123788714Y-61093047D01*
X123812904Y-61141428D01*
X123812904Y-61334952D01*
X124054809Y-60560857D02*
X124054809Y-60851142D01*
X124054809Y-60706000D02*
X123546809Y-60706000D01*
X123619380Y-60754380D01*
X123667761Y-60802761D01*
X123691952Y-60851142D01*
%TO.C,R2*%
X115545809Y-87587666D02*
X115303904Y-87757000D01*
X115545809Y-87877952D02*
X115037809Y-87877952D01*
X115037809Y-87684428D01*
X115062000Y-87636047D01*
X115086190Y-87611857D01*
X115134571Y-87587666D01*
X115207142Y-87587666D01*
X115255523Y-87611857D01*
X115279714Y-87636047D01*
X115303904Y-87684428D01*
X115303904Y-87877952D01*
X115086190Y-87394142D02*
X115062000Y-87369952D01*
X115037809Y-87321571D01*
X115037809Y-87200619D01*
X115062000Y-87152238D01*
X115086190Y-87128047D01*
X115134571Y-87103857D01*
X115182952Y-87103857D01*
X115255523Y-87128047D01*
X115545809Y-87418333D01*
X115545809Y-87103857D01*
%TO.C,J1*%
X125052666Y-84938809D02*
X125052666Y-85301666D01*
X125028476Y-85374238D01*
X124980095Y-85422619D01*
X124907523Y-85446809D01*
X124859142Y-85446809D01*
X125560666Y-85446809D02*
X125270380Y-85446809D01*
X125415523Y-85446809D02*
X125415523Y-84938809D01*
X125367142Y-85011380D01*
X125318761Y-85059761D01*
X125270380Y-85083952D01*
%TO.C,C1*%
X120057333Y-59675450D02*
X120033142Y-59699641D01*
X119960571Y-59723831D01*
X119912190Y-59723831D01*
X119839619Y-59699641D01*
X119791238Y-59651260D01*
X119767047Y-59602879D01*
X119742857Y-59506117D01*
X119742857Y-59433545D01*
X119767047Y-59336783D01*
X119791238Y-59288402D01*
X119839619Y-59240022D01*
X119912190Y-59215831D01*
X119960571Y-59215831D01*
X120033142Y-59240022D01*
X120057333Y-59264212D01*
X120541142Y-59723831D02*
X120250857Y-59723831D01*
X120396000Y-59723831D02*
X120396000Y-59215831D01*
X120347619Y-59288402D01*
X120299238Y-59336783D01*
X120250857Y-59360974D01*
%TO.C,R3*%
X115545809Y-86444666D02*
X115303904Y-86614000D01*
X115545809Y-86734952D02*
X115037809Y-86734952D01*
X115037809Y-86541428D01*
X115062000Y-86493047D01*
X115086190Y-86468857D01*
X115134571Y-86444666D01*
X115207142Y-86444666D01*
X115255523Y-86468857D01*
X115279714Y-86493047D01*
X115303904Y-86541428D01*
X115303904Y-86734952D01*
X115037809Y-86275333D02*
X115037809Y-85960857D01*
X115231333Y-86130190D01*
X115231333Y-86057619D01*
X115255523Y-86009238D01*
X115279714Y-85985047D01*
X115328095Y-85960857D01*
X115449047Y-85960857D01*
X115497428Y-85985047D01*
X115521619Y-86009238D01*
X115545809Y-86057619D01*
X115545809Y-86202761D01*
X115521619Y-86251142D01*
X115497428Y-86275333D01*
%TO.C,U1*%
X113386809Y-91827047D02*
X113798047Y-91827047D01*
X113846428Y-91802857D01*
X113870619Y-91778666D01*
X113894809Y-91730285D01*
X113894809Y-91633523D01*
X113870619Y-91585142D01*
X113846428Y-91560952D01*
X113798047Y-91536761D01*
X113386809Y-91536761D01*
X113894809Y-91028761D02*
X113894809Y-91319047D01*
X113894809Y-91173904D02*
X113386809Y-91173904D01*
X113459380Y-91222285D01*
X113507761Y-91270666D01*
X113531952Y-91319047D01*
%TO.C,R4*%
X114656809Y-86444666D02*
X114414904Y-86614000D01*
X114656809Y-86734952D02*
X114148809Y-86734952D01*
X114148809Y-86541428D01*
X114173000Y-86493047D01*
X114197190Y-86468857D01*
X114245571Y-86444666D01*
X114318142Y-86444666D01*
X114366523Y-86468857D01*
X114390714Y-86493047D01*
X114414904Y-86541428D01*
X114414904Y-86734952D01*
X114318142Y-86009238D02*
X114656809Y-86009238D01*
X114124619Y-86130190D02*
X114487476Y-86251142D01*
X114487476Y-85936666D01*
%TO.C,C6*%
X116628333Y-63173428D02*
X116604142Y-63197619D01*
X116531571Y-63221809D01*
X116483190Y-63221809D01*
X116410619Y-63197619D01*
X116362238Y-63149238D01*
X116338047Y-63100857D01*
X116313857Y-63004095D01*
X116313857Y-62931523D01*
X116338047Y-62834761D01*
X116362238Y-62786380D01*
X116410619Y-62738000D01*
X116483190Y-62713809D01*
X116531571Y-62713809D01*
X116604142Y-62738000D01*
X116628333Y-62762190D01*
X117063761Y-62713809D02*
X116967000Y-62713809D01*
X116918619Y-62738000D01*
X116894428Y-62762190D01*
X116846047Y-62834761D01*
X116821857Y-62931523D01*
X116821857Y-63125047D01*
X116846047Y-63173428D01*
X116870238Y-63197619D01*
X116918619Y-63221809D01*
X117015380Y-63221809D01*
X117063761Y-63197619D01*
X117087952Y-63173428D01*
X117112142Y-63125047D01*
X117112142Y-63004095D01*
X117087952Y-62955714D01*
X117063761Y-62931523D01*
X117015380Y-62907333D01*
X116918619Y-62907333D01*
X116870238Y-62931523D01*
X116846047Y-62955714D01*
X116821857Y-63004095D01*
%TO.C,C2*%
X116628333Y-65078428D02*
X116604142Y-65102619D01*
X116531571Y-65126809D01*
X116483190Y-65126809D01*
X116410619Y-65102619D01*
X116362238Y-65054238D01*
X116338047Y-65005857D01*
X116313857Y-64909095D01*
X116313857Y-64836523D01*
X116338047Y-64739761D01*
X116362238Y-64691380D01*
X116410619Y-64643000D01*
X116483190Y-64618809D01*
X116531571Y-64618809D01*
X116604142Y-64643000D01*
X116628333Y-64667190D01*
X116821857Y-64667190D02*
X116846047Y-64643000D01*
X116894428Y-64618809D01*
X117015380Y-64618809D01*
X117063761Y-64643000D01*
X117087952Y-64667190D01*
X117112142Y-64715571D01*
X117112142Y-64763952D01*
X117087952Y-64836523D01*
X116797666Y-65126809D01*
X117112142Y-65126809D01*
%TO.C,C5*%
X116628333Y-61395428D02*
X116604142Y-61419619D01*
X116531571Y-61443809D01*
X116483190Y-61443809D01*
X116410619Y-61419619D01*
X116362238Y-61371238D01*
X116338047Y-61322857D01*
X116313857Y-61226095D01*
X116313857Y-61153523D01*
X116338047Y-61056761D01*
X116362238Y-61008380D01*
X116410619Y-60960000D01*
X116483190Y-60935809D01*
X116531571Y-60935809D01*
X116604142Y-60960000D01*
X116628333Y-60984190D01*
X117087952Y-60935809D02*
X116846047Y-60935809D01*
X116821857Y-61177714D01*
X116846047Y-61153523D01*
X116894428Y-61129333D01*
X117015380Y-61129333D01*
X117063761Y-61153523D01*
X117087952Y-61177714D01*
X117112142Y-61226095D01*
X117112142Y-61347047D01*
X117087952Y-61395428D01*
X117063761Y-61419619D01*
X117015380Y-61443809D01*
X116894428Y-61443809D01*
X116846047Y-61419619D01*
X116821857Y-61395428D01*
%TO.C,C3*%
X121327333Y-65586428D02*
X121303142Y-65610619D01*
X121230571Y-65634809D01*
X121182190Y-65634809D01*
X121109619Y-65610619D01*
X121061238Y-65562238D01*
X121037047Y-65513857D01*
X121012857Y-65417095D01*
X121012857Y-65344523D01*
X121037047Y-65247761D01*
X121061238Y-65199380D01*
X121109619Y-65151000D01*
X121182190Y-65126809D01*
X121230571Y-65126809D01*
X121303142Y-65151000D01*
X121327333Y-65175190D01*
X121496666Y-65126809D02*
X121811142Y-65126809D01*
X121641809Y-65320333D01*
X121714380Y-65320333D01*
X121762761Y-65344523D01*
X121786952Y-65368714D01*
X121811142Y-65417095D01*
X121811142Y-65538047D01*
X121786952Y-65586428D01*
X121762761Y-65610619D01*
X121714380Y-65634809D01*
X121569238Y-65634809D01*
X121520857Y-65610619D01*
X121496666Y-65586428D01*
%TO.C,C7*%
X116628333Y-59617428D02*
X116604142Y-59641619D01*
X116531571Y-59665809D01*
X116483190Y-59665809D01*
X116410619Y-59641619D01*
X116362238Y-59593238D01*
X116338047Y-59544857D01*
X116313857Y-59448095D01*
X116313857Y-59375523D01*
X116338047Y-59278761D01*
X116362238Y-59230380D01*
X116410619Y-59182000D01*
X116483190Y-59157809D01*
X116531571Y-59157809D01*
X116604142Y-59182000D01*
X116628333Y-59206190D01*
X116797666Y-59157809D02*
X117136333Y-59157809D01*
X116918619Y-59665809D01*
%TO.C,R6*%
X113767809Y-86444666D02*
X113525904Y-86614000D01*
X113767809Y-86734952D02*
X113259809Y-86734952D01*
X113259809Y-86541428D01*
X113284000Y-86493047D01*
X113308190Y-86468857D01*
X113356571Y-86444666D01*
X113429142Y-86444666D01*
X113477523Y-86468857D01*
X113501714Y-86493047D01*
X113525904Y-86541428D01*
X113525904Y-86734952D01*
X113259809Y-86009238D02*
X113259809Y-86106000D01*
X113284000Y-86154380D01*
X113308190Y-86178571D01*
X113380761Y-86226952D01*
X113477523Y-86251142D01*
X113671047Y-86251142D01*
X113719428Y-86226952D01*
X113743619Y-86202761D01*
X113767809Y-86154380D01*
X113767809Y-86057619D01*
X113743619Y-86009238D01*
X113719428Y-85985047D01*
X113671047Y-85960857D01*
X113550095Y-85960857D01*
X113501714Y-85985047D01*
X113477523Y-86009238D01*
X113453333Y-86057619D01*
X113453333Y-86154380D01*
X113477523Y-86202761D01*
X113501714Y-86226952D01*
X113550095Y-86251142D01*
%TO.C,C4*%
X114481428Y-87587666D02*
X114505619Y-87611857D01*
X114529809Y-87684428D01*
X114529809Y-87732809D01*
X114505619Y-87805380D01*
X114457238Y-87853761D01*
X114408857Y-87877952D01*
X114312095Y-87902142D01*
X114239523Y-87902142D01*
X114142761Y-87877952D01*
X114094380Y-87853761D01*
X114046000Y-87805380D01*
X114021809Y-87732809D01*
X114021809Y-87684428D01*
X114046000Y-87611857D01*
X114070190Y-87587666D01*
X114191142Y-87152238D02*
X114529809Y-87152238D01*
X113997619Y-87273190D02*
X114360476Y-87394142D01*
X114360476Y-87079666D01*
%TO.C,R5*%
X125705809Y-63076666D02*
X125463904Y-63246000D01*
X125705809Y-63366952D02*
X125197809Y-63366952D01*
X125197809Y-63173428D01*
X125222000Y-63125047D01*
X125246190Y-63100857D01*
X125294571Y-63076666D01*
X125367142Y-63076666D01*
X125415523Y-63100857D01*
X125439714Y-63125047D01*
X125463904Y-63173428D01*
X125463904Y-63366952D01*
X125197809Y-62617047D02*
X125197809Y-62858952D01*
X125439714Y-62883142D01*
X125415523Y-62858952D01*
X125391333Y-62810571D01*
X125391333Y-62689619D01*
X125415523Y-62641238D01*
X125439714Y-62617047D01*
X125488095Y-62592857D01*
X125609047Y-62592857D01*
X125657428Y-62617047D01*
X125681619Y-62641238D01*
X125705809Y-62689619D01*
X125705809Y-62810571D01*
X125681619Y-62858952D01*
X125657428Y-62883142D01*
%TO.C,U3*%
X123833250Y-66387250D02*
X123833250Y-66877000D01*
X114926750Y-66877000D02*
X112930000Y-66877000D01*
X114926750Y-66387250D02*
X114926750Y-66877000D01*
X119380000Y-84996750D02*
X123833250Y-84996750D01*
X119380000Y-66387250D02*
X114926750Y-66387250D01*
X123833250Y-84996750D02*
X123833250Y-84507000D01*
X114926750Y-84996750D02*
X114926750Y-84507000D01*
X119380000Y-84996750D02*
X114926750Y-84996750D01*
X119380000Y-66387250D02*
X123833250Y-66387250D01*
%TO.C,U2*%
X119025000Y-60788022D02*
X117950000Y-60788022D01*
X122275000Y-63913022D02*
X122275000Y-63688022D01*
X122275000Y-60663022D02*
X122275000Y-60888022D01*
X119025000Y-60663022D02*
X119025000Y-60788022D01*
X119025000Y-63913022D02*
X119025000Y-63688022D01*
X119025000Y-63913022D02*
X122275000Y-63913022D01*
X119025000Y-60663022D02*
X122275000Y-60663022D01*
D11*
%TO.C,R1*%
X124334000Y-60182779D02*
X124334000Y-60518021D01*
X125094000Y-60182779D02*
X125094000Y-60518021D01*
%TO.C,R2*%
X119428866Y-90845621D02*
X119428866Y-90510379D01*
X120188866Y-90845621D02*
X120188866Y-90510379D01*
D10*
%TO.C,J1*%
X125592000Y-85805200D02*
X120872000Y-85805200D01*
X124482000Y-88765200D02*
X124982000Y-88765200D01*
X120872000Y-91925200D02*
X125592000Y-91925200D01*
X121482000Y-91315200D02*
X124982000Y-91315200D01*
X124982000Y-86415200D02*
X121482000Y-86415200D01*
X120572000Y-92225200D02*
X121822000Y-92225200D01*
X124982000Y-88965200D02*
X124482000Y-88965200D01*
X120872000Y-85805200D02*
X120872000Y-91925200D01*
X121482000Y-86415200D02*
X121482000Y-88365200D01*
X121482000Y-89365200D02*
X121482000Y-91315200D01*
X123482000Y-85805200D02*
X123482000Y-86415200D01*
X122182000Y-85805200D02*
X122182000Y-86415200D01*
X120872000Y-89365200D02*
X121482000Y-89365200D01*
X121482000Y-88365200D02*
X120872000Y-88365200D01*
X120572000Y-90975200D02*
X120572000Y-92225200D01*
X120772000Y-90165200D02*
X120772000Y-90465200D01*
X125592000Y-91925200D02*
X125592000Y-85805200D01*
X120672000Y-90465200D02*
X120872000Y-90465200D01*
X120872000Y-90165200D02*
X120672000Y-90165200D01*
X122182000Y-91925200D02*
X122182000Y-91315200D01*
X124982000Y-88865200D02*
X124482000Y-88865200D01*
X120672000Y-90165200D02*
X120672000Y-90465200D01*
X123482000Y-91925200D02*
X123482000Y-91315200D01*
X124482000Y-88965200D02*
X124482000Y-88765200D01*
X124982000Y-91315200D02*
X124982000Y-86415200D01*
%TO.C,C1*%
X122187580Y-58984022D02*
X121906420Y-58984022D01*
X122187580Y-60004022D02*
X121906420Y-60004022D01*
D11*
%TO.C,R3*%
X120188866Y-87543621D02*
X120188866Y-87208379D01*
X119428866Y-87543621D02*
X119428866Y-87208379D01*
D10*
%TO.C,U1*%
X115062000Y-91984000D02*
X116737000Y-91984000D01*
X115062000Y-88864000D02*
X114412000Y-88864000D01*
X115062000Y-88864000D02*
X115712000Y-88864000D01*
X115062000Y-91984000D02*
X114412000Y-91984000D01*
D11*
%TO.C,R4*%
X117984000Y-87543621D02*
X117984000Y-87208379D01*
X118744000Y-87543621D02*
X118744000Y-87208379D01*
%TO.C,C6*%
X114667420Y-63502000D02*
X114948580Y-63502000D01*
X114667420Y-62482000D02*
X114948580Y-62482000D01*
%TO.C,C2*%
X114667420Y-65407000D02*
X114948580Y-65407000D01*
X114667420Y-64387000D02*
X114948580Y-64387000D01*
%TO.C,C5*%
X114667420Y-60704000D02*
X114948580Y-60704000D01*
X114667420Y-61724000D02*
X114948580Y-61724000D01*
D10*
%TO.C,C3*%
X123457580Y-65915000D02*
X123176420Y-65915000D01*
X123457580Y-64895000D02*
X123176420Y-64895000D01*
D11*
%TO.C,C7*%
X114667420Y-58926000D02*
X114948580Y-58926000D01*
X114667420Y-59946000D02*
X114948580Y-59946000D01*
%TO.C,R6*%
X117347000Y-87543621D02*
X117347000Y-87208379D01*
X116587000Y-87543621D02*
X116587000Y-87208379D01*
D10*
%TO.C,C4*%
X118620000Y-90818580D02*
X118620000Y-90537420D01*
X117600000Y-90818580D02*
X117600000Y-90537420D01*
D11*
%TO.C,R5*%
X125856000Y-64475379D02*
X125856000Y-64810621D01*
X125096000Y-64475379D02*
X125096000Y-64810621D01*
%TD*%
M02*
