%TF.GenerationSoftware,KiCad,Pcbnew,(6.0.9)*%
%TF.CreationDate,2022-12-20T15:33:04-05:00*%
%TF.ProjectId,6264_NVSRAM_MOD,36323634-5f4e-4565-9352-414d5f4d4f44,rev?*%
%TF.SameCoordinates,Original*%
%TF.FileFunction,Copper,L2,Bot*%
%TF.FilePolarity,Positive*%
%FSLAX46Y46*%
G04 Gerber Fmt 4.6, Leading zero omitted, Abs format (unit mm)*
G04 Created by KiCad (PCBNEW (6.0.9)) date 2022-12-20 15:33:04*
%MOMM*%
%LPD*%
G01*
G04 APERTURE LIST*
G04 Aperture macros list*
%AMRoundRect*
0 Rectangle with rounded corners*
0 $1 Rounding radius*
0 $2 $3 $4 $5 $6 $7 $8 $9 X,Y pos of 4 corners*
0 Add a 4 corners polygon primitive as box body*
4,1,4,$2,$3,$4,$5,$6,$7,$8,$9,$2,$3,0*
0 Add four circle primitives for the rounded corners*
1,1,$1+$1,$2,$3*
1,1,$1+$1,$4,$5*
1,1,$1+$1,$6,$7*
1,1,$1+$1,$8,$9*
0 Add four rect primitives between the rounded corners*
20,1,$1+$1,$2,$3,$4,$5,0*
20,1,$1+$1,$4,$5,$6,$7,0*
20,1,$1+$1,$6,$7,$8,$9,0*
20,1,$1+$1,$8,$9,$2,$3,0*%
G04 Aperture macros list end*
%TA.AperFunction,ComponentPad*%
%ADD10RoundRect,0.250000X0.625000X-0.350000X0.625000X0.350000X-0.625000X0.350000X-0.625000X-0.350000X0*%
%TD*%
%TA.AperFunction,ComponentPad*%
%ADD11O,1.750000X1.200000*%
%TD*%
%TA.AperFunction,ComponentPad*%
%ADD12R,1.600000X1.600000*%
%TD*%
%TA.AperFunction,ComponentPad*%
%ADD13O,1.600000X1.600000*%
%TD*%
%TA.AperFunction,ViaPad*%
%ADD14C,0.685800*%
%TD*%
%TA.AperFunction,Conductor*%
%ADD15C,0.152400*%
%TD*%
%TA.AperFunction,Conductor*%
%ADD16C,0.914400*%
%TD*%
G04 APERTURE END LIST*
D10*
%TO.P,J1,1,Pin_1*%
%TO.N,/BATT_FAKE*%
X122682000Y-89865200D03*
D11*
%TO.P,J1,2,Pin_2*%
%TO.N,GND*%
X122682000Y-87865200D03*
%TD*%
D12*
%TO.P,U10,1,NC*%
%TO.N,unconnected-(U10-Pad1)*%
X111760000Y-58420000D03*
D13*
%TO.P,U10,2,A12*%
%TO.N,/A12*%
X111760000Y-60960000D03*
%TO.P,U10,3,A7*%
%TO.N,/A7*%
X111760000Y-63500000D03*
%TO.P,U10,4,A6*%
%TO.N,/A6*%
X111760000Y-66040000D03*
%TO.P,U10,5,A5*%
%TO.N,/A5*%
X111760000Y-68580000D03*
%TO.P,U10,6,A4*%
%TO.N,/A4*%
X111760000Y-71120000D03*
%TO.P,U10,7,A3*%
%TO.N,/A3*%
X111760000Y-73660000D03*
%TO.P,U10,8,A2*%
%TO.N,/A2*%
X111760000Y-76200000D03*
%TO.P,U10,9,A1*%
%TO.N,/A1*%
X111760000Y-78740000D03*
%TO.P,U10,10,A0*%
%TO.N,/A0*%
X111760000Y-81280000D03*
%TO.P,U10,11,D0*%
%TO.N,/D0*%
X111760000Y-83820000D03*
%TO.P,U10,12,D1*%
%TO.N,/D1*%
X111760000Y-86360000D03*
%TO.P,U10,13,D2*%
%TO.N,/D2*%
X111760000Y-88900000D03*
%TO.P,U10,14,GND*%
%TO.N,GND*%
X111760000Y-91440000D03*
%TO.P,U10,15,D3*%
%TO.N,/D3*%
X127000000Y-91440000D03*
%TO.P,U10,16,D4*%
%TO.N,/D4*%
X127000000Y-88900000D03*
%TO.P,U10,17,D5*%
%TO.N,/D5*%
X127000000Y-86360000D03*
%TO.P,U10,18,D6*%
%TO.N,/D6*%
X127000000Y-83820000D03*
%TO.P,U10,19,D7*%
%TO.N,/D7*%
X127000000Y-81280000D03*
%TO.P,U10,20,~{CE1}*%
%TO.N,/~{CE1}*%
X127000000Y-78740000D03*
%TO.P,U10,21,A10*%
%TO.N,/A10*%
X127000000Y-76200000D03*
%TO.P,U10,22,~{OE}*%
%TO.N,/~{OE}*%
X127000000Y-73660000D03*
%TO.P,U10,23,A11*%
%TO.N,/A11*%
X127000000Y-71120000D03*
%TO.P,U10,24,A9*%
%TO.N,/A9*%
X127000000Y-68580000D03*
%TO.P,U10,25,A8*%
%TO.N,/A8*%
X127000000Y-66040000D03*
%TO.P,U10,26,CE2*%
%TO.N,/CE2*%
X127000000Y-63500000D03*
%TO.P,U10,27,~{WE}*%
%TO.N,/~{WE}*%
X127000000Y-60960000D03*
%TO.P,U10,28,VCC*%
%TO.N,VCC*%
X127000000Y-58420000D03*
%TD*%
D14*
%TO.N,/D2*%
X115570000Y-82677000D03*
%TO.N,/D1*%
X115582215Y-81407000D03*
%TO.N,/A8*%
X123190000Y-71247000D03*
%TO.N,/D0*%
X115570000Y-80137000D03*
%TO.N,/A9*%
X123190000Y-72517000D03*
%TO.N,/A11*%
X123190000Y-73787000D03*
%TO.N,/A4*%
X115570000Y-73787000D03*
%TO.N,/A5*%
X115570000Y-72517000D03*
%TO.N,/D6*%
X123190000Y-80137000D03*
%TO.N,/A6*%
X115570000Y-71247000D03*
%TO.N,/D5*%
X123190000Y-81407000D03*
%TO.N,/A7*%
X115570000Y-69977000D03*
%TO.N,/D4*%
X123190000Y-82677000D03*
%TO.N,/A12*%
X115570000Y-68707000D03*
%TO.N,/CE2*%
X123825000Y-62618222D03*
%TO.N,/~{CE1}*%
X120777000Y-61849000D03*
%TO.N,/~{WE}*%
X123190000Y-68707000D03*
X124104400Y-63881000D03*
X124714000Y-61849000D03*
%TO.N,VCC*%
X125476000Y-59752900D03*
X120799466Y-91313000D03*
X122809000Y-60510022D03*
%TO.N,/BATT_FAKE*%
X120777000Y-90043000D03*
X120777000Y-88011000D03*
%TO.N,/~{CE_STK}*%
X123190000Y-77597000D03*
X120777000Y-62738000D03*
%TO.N,Net-(R5-Pad2)*%
X125476000Y-66548000D03*
X123190000Y-69977000D03*
%TD*%
D15*
%TO.N,/D1*%
X115582215Y-81554096D02*
X115582215Y-81407000D01*
X114046000Y-83979311D02*
X114046000Y-83279689D01*
X115582207Y-81554096D02*
G75*
G02*
X115515260Y-81715740I-228607J-4D01*
G01*
X111760000Y-86360000D02*
X113979045Y-84140955D01*
X114112961Y-83118049D02*
G75*
G03*
X114046000Y-83279689I161639J-161651D01*
G01*
X114046007Y-83979311D02*
G75*
G02*
X113979045Y-84140955I-228607J11D01*
G01*
X114112956Y-83118044D02*
X115515260Y-81715740D01*
%TO.N,/D2*%
X111760000Y-88900000D02*
X115503045Y-85156955D01*
X115570000Y-84995311D02*
X115570000Y-82677000D01*
X115503040Y-85156950D02*
G75*
G03*
X115570000Y-84995311I-161640J161650D01*
G01*
%TO.N,/A8*%
X125476000Y-67658689D02*
X125476000Y-68866311D01*
X125409044Y-69027956D02*
X123190000Y-71247000D01*
X127000000Y-66040000D02*
X125542955Y-67497045D01*
X125475993Y-67658689D02*
G75*
G02*
X125542955Y-67497045I228607J-11D01*
G01*
X125409039Y-69027951D02*
G75*
G03*
X125476000Y-68866311I-161639J161651D01*
G01*
%TO.N,/D0*%
X115537689Y-80137000D02*
X115570000Y-80137000D01*
X111760000Y-83820000D02*
X115376045Y-80203955D01*
X115537689Y-80136993D02*
G75*
G03*
X115376045Y-80203955I11J-228607D01*
G01*
%TO.N,/A9*%
X123190000Y-72484689D02*
X123190000Y-72517000D01*
X127000000Y-68580000D02*
X123256955Y-72323045D01*
X123256960Y-72323050D02*
G75*
G03*
X123190000Y-72484689I161640J-161650D01*
G01*
%TO.N,/A11*%
X125790044Y-71186956D02*
X123190000Y-73787000D01*
X127000000Y-71120000D02*
X125951689Y-71120000D01*
X125790049Y-71186961D02*
G75*
G02*
X125951689Y-71120000I161651J-161639D01*
G01*
%TO.N,/A4*%
X112969956Y-71186956D02*
X115570000Y-73787000D01*
X111760000Y-71120000D02*
X112808311Y-71120000D01*
X112969951Y-71186961D02*
G75*
G03*
X112808311Y-71120000I-161651J-161639D01*
G01*
%TO.N,/A5*%
X115570000Y-72484689D02*
X115570000Y-72517000D01*
X111760000Y-68580000D02*
X115503045Y-72323045D01*
X115503040Y-72323050D02*
G75*
G02*
X115570000Y-72484689I-161640J-161650D01*
G01*
%TO.N,/D6*%
X123222311Y-80137000D02*
X123190000Y-80137000D01*
X127000000Y-83820000D02*
X123383955Y-80203955D01*
X123383950Y-80203960D02*
G75*
G03*
X123222311Y-80137000I-161650J-161640D01*
G01*
%TO.N,/A6*%
X113223956Y-68900956D02*
X115570000Y-71247000D01*
X111760000Y-66040000D02*
X113090045Y-67370045D01*
X113157000Y-67531689D02*
X113157000Y-68739311D01*
X113090040Y-67370050D02*
G75*
G02*
X113157000Y-67531689I-161640J-161650D01*
G01*
X113223961Y-68900951D02*
G75*
G02*
X113157000Y-68739311I161639J161651D01*
G01*
%TO.N,/D5*%
X125095000Y-84360311D02*
X125095000Y-83406689D01*
X127000000Y-86360000D02*
X125161955Y-84521955D01*
X125028044Y-83245044D02*
X123190000Y-81407000D01*
X125028039Y-83245049D02*
G75*
G02*
X125095000Y-83406689I-161639J-161651D01*
G01*
X125161960Y-84521950D02*
G75*
G02*
X125095000Y-84360311I161640J161650D01*
G01*
%TO.N,/A7*%
X111760000Y-63500000D02*
X113775855Y-65515855D01*
X113909766Y-68316766D02*
X115570000Y-69977000D01*
X113842810Y-65677499D02*
X113842810Y-68155121D01*
X113842793Y-68155121D02*
G75*
G03*
X113909766Y-68316766I228607J21D01*
G01*
X113842807Y-65677499D02*
G75*
G03*
X113775855Y-65515855I-228607J-1D01*
G01*
%TO.N,/D4*%
X123190000Y-84995311D02*
X123190000Y-82677000D01*
X127000000Y-88900000D02*
X123256955Y-85156955D01*
X123256960Y-85156950D02*
G75*
G02*
X123190000Y-84995311I161640J161650D01*
G01*
%TO.N,/A12*%
X115570000Y-64864689D02*
X115570000Y-68707000D01*
X111760000Y-60960000D02*
X115503045Y-64703045D01*
X115503040Y-64703050D02*
G75*
G02*
X115570000Y-64864689I-161640J-161650D01*
G01*
%TO.N,/CE2*%
X124706778Y-63500000D02*
X127000000Y-63500000D01*
X123825000Y-62618222D02*
X124706778Y-63500000D01*
%TO.N,/~{CE1}*%
X123698000Y-67088311D02*
X123698000Y-64864689D01*
X122621956Y-68259044D02*
X123631045Y-67249955D01*
X123631044Y-64703044D02*
X120777000Y-61849000D01*
X127000000Y-78740000D02*
X122621955Y-74361955D01*
X122555000Y-74200311D02*
X122555000Y-68420689D01*
X123698007Y-64864689D02*
G75*
G03*
X123631044Y-64703044I-228607J-11D01*
G01*
X122554993Y-68420689D02*
G75*
G02*
X122621956Y-68259044I228607J-11D01*
G01*
X123631040Y-67249950D02*
G75*
G03*
X123698000Y-67088311I-161640J161650D01*
G01*
X122554993Y-74200311D02*
G75*
G03*
X122621955Y-74361955I228607J11D01*
G01*
%TO.N,/~{WE}*%
X124104400Y-63881000D02*
X124104400Y-67697911D01*
X126111000Y-61849000D02*
X124714000Y-61849000D01*
X127000000Y-60960000D02*
X126111000Y-61849000D01*
X124037445Y-67859555D02*
X123190000Y-68707000D01*
X124037440Y-67859550D02*
G75*
G03*
X124104400Y-67697911I-161640J161650D01*
G01*
D16*
%TO.N,VCC*%
X127000000Y-58420000D02*
X125857000Y-58420000D01*
D15*
%TO.N,/BATT_FAKE*%
X121412000Y-90043000D02*
X121589800Y-89865200D01*
X120777000Y-88011000D02*
X120777000Y-90043000D01*
X120777000Y-90043000D02*
X121412000Y-90043000D01*
X121589800Y-89865200D02*
X122682000Y-89865200D01*
%TO.N,/~{CE_STK}*%
X122240956Y-68005044D02*
X123250045Y-66995955D01*
X123190000Y-77597000D02*
X122240955Y-76647955D01*
X123250044Y-65211044D02*
X120777000Y-62738000D01*
X123317000Y-66834311D02*
X123317000Y-65372689D01*
X122174000Y-76486311D02*
X122174000Y-68166689D01*
X123317007Y-65372689D02*
G75*
G03*
X123250044Y-65211044I-228607J-11D01*
G01*
X123317007Y-66834311D02*
G75*
G02*
X123250045Y-66995955I-228607J11D01*
G01*
X122173993Y-76486311D02*
G75*
G03*
X122240955Y-76647955I228607J11D01*
G01*
X122173993Y-68166689D02*
G75*
G02*
X122240956Y-68005044I228607J-11D01*
G01*
%TO.N,Net-(R5-Pad2)*%
X125171200Y-66852800D02*
X125171200Y-67995800D01*
X125476000Y-66548000D02*
X125171200Y-66852800D01*
X125171200Y-67995800D02*
X123190000Y-69977000D01*
%TD*%
%TA.AperFunction,Conductor*%
%TO.N,Net-(R5-Pad2)*%
G36*
X125591147Y-66431899D02*
G01*
X125596553Y-66439037D01*
X125596931Y-66442223D01*
X125588707Y-66862889D01*
X125585119Y-66871093D01*
X125579763Y-66874032D01*
X125570103Y-66876370D01*
X125548349Y-66881636D01*
X125546537Y-66881926D01*
X125505737Y-66885218D01*
X125504531Y-66885253D01*
X125462963Y-66884312D01*
X125462335Y-66884281D01*
X125421148Y-66881127D01*
X125421082Y-66881122D01*
X125403829Y-66879703D01*
X125381531Y-66877869D01*
X125345079Y-66876701D01*
X125344713Y-66876736D01*
X125344706Y-66876736D01*
X125326609Y-66878458D01*
X125312816Y-66879770D01*
X125312147Y-66880005D01*
X125312145Y-66880005D01*
X125306876Y-66881852D01*
X125285828Y-66889230D01*
X125265204Y-66907234D01*
X125252032Y-66935935D01*
X125251929Y-66936862D01*
X125248560Y-66967083D01*
X125244238Y-66974926D01*
X125236932Y-66977487D01*
X125106892Y-66977487D01*
X125098619Y-66974060D01*
X125095194Y-66965596D01*
X125095883Y-66923347D01*
X125095897Y-66922927D01*
X125096659Y-66908362D01*
X125098308Y-66876808D01*
X125098339Y-66876370D01*
X125101938Y-66836460D01*
X125101983Y-66836048D01*
X125106431Y-66800754D01*
X125106475Y-66800441D01*
X125111447Y-66768074D01*
X125111470Y-66767929D01*
X125116640Y-66736872D01*
X125116642Y-66736857D01*
X125121629Y-66705771D01*
X125121633Y-66705744D01*
X125121649Y-66705644D01*
X125126144Y-66672726D01*
X125129779Y-66636535D01*
X125132212Y-66595488D01*
X125132934Y-66556860D01*
X125136515Y-66548654D01*
X125141674Y-66545760D01*
X125538061Y-66442223D01*
X125582276Y-66430674D01*
X125591147Y-66431899D01*
G37*
%TD.AperFunction*%
%TD*%
%TA.AperFunction,Conductor*%
%TO.N,/D1*%
G36*
X112611833Y-85415784D02*
G01*
X112704215Y-85508166D01*
X112707642Y-85516439D01*
X112704796Y-85524087D01*
X112650168Y-85587329D01*
X112621467Y-85620555D01*
X112621204Y-85620999D01*
X112621200Y-85621004D01*
X112581160Y-85688507D01*
X112563019Y-85719090D01*
X112530738Y-85813243D01*
X112518800Y-85904796D01*
X112521383Y-85995531D01*
X112532662Y-86087229D01*
X112532667Y-86087263D01*
X112532670Y-86087285D01*
X112546784Y-86181463D01*
X112546839Y-86181881D01*
X112557958Y-86280124D01*
X112558029Y-86281170D01*
X112560429Y-86385165D01*
X112560365Y-86386683D01*
X112548375Y-86498411D01*
X112548053Y-86500152D01*
X112517949Y-86614007D01*
X112512523Y-86621128D01*
X112506870Y-86622712D01*
X111776866Y-86636983D01*
X111489323Y-86642604D01*
X111480984Y-86639339D01*
X111477396Y-86630677D01*
X111488018Y-86087285D01*
X111497288Y-85613131D01*
X111500875Y-85604928D01*
X111505992Y-85602051D01*
X111619847Y-85571946D01*
X111621586Y-85571624D01*
X111642996Y-85569327D01*
X111733316Y-85559634D01*
X111734834Y-85559570D01*
X111838829Y-85561970D01*
X111839875Y-85562041D01*
X111863388Y-85564702D01*
X111938143Y-85573163D01*
X111938510Y-85573212D01*
X111989878Y-85580909D01*
X112032714Y-85587329D01*
X112032736Y-85587332D01*
X112032770Y-85587337D01*
X112032833Y-85587345D01*
X112032850Y-85587347D01*
X112092834Y-85594725D01*
X112124468Y-85598616D01*
X112183376Y-85600293D01*
X112214741Y-85601186D01*
X112214743Y-85601186D01*
X112215203Y-85601199D01*
X112215653Y-85601140D01*
X112215659Y-85601140D01*
X112275344Y-85593357D01*
X112306756Y-85589261D01*
X112307303Y-85589073D01*
X112307305Y-85589073D01*
X112358197Y-85571624D01*
X112400909Y-85556980D01*
X112456362Y-85524087D01*
X112498995Y-85498799D01*
X112499000Y-85498795D01*
X112499444Y-85498532D01*
X112595914Y-85415202D01*
X112604413Y-85412388D01*
X112611833Y-85415784D01*
G37*
%TD.AperFunction*%
%TD*%
%TA.AperFunction,Conductor*%
%TO.N,/D1*%
G36*
X115633890Y-81252612D02*
G01*
X115634337Y-81253453D01*
X115775212Y-81546544D01*
X115820937Y-81641676D01*
X115821433Y-81650618D01*
X115818337Y-81655333D01*
X115795398Y-81676549D01*
X115783058Y-81687962D01*
X115782301Y-81688604D01*
X115744055Y-81718379D01*
X115743242Y-81718958D01*
X115707139Y-81742414D01*
X115706414Y-81742848D01*
X115671523Y-81762042D01*
X115671033Y-81762297D01*
X115636414Y-81779264D01*
X115636289Y-81779324D01*
X115614499Y-81789686D01*
X115601273Y-81795975D01*
X115565191Y-81814257D01*
X115527346Y-81836133D01*
X115486952Y-81863609D01*
X115486791Y-81863738D01*
X115486779Y-81863747D01*
X115443392Y-81898556D01*
X115443224Y-81898691D01*
X115403641Y-81935666D01*
X115395257Y-81938809D01*
X115387382Y-81935389D01*
X115295222Y-81843229D01*
X115291795Y-81834956D01*
X115294558Y-81827405D01*
X115316425Y-81801522D01*
X115316831Y-81801042D01*
X115334080Y-81768487D01*
X115341142Y-81737354D01*
X115340470Y-81722191D01*
X115339826Y-81707659D01*
X115339825Y-81707655D01*
X115339798Y-81707037D01*
X115331829Y-81676932D01*
X115319014Y-81646434D01*
X115303135Y-81614940D01*
X115286067Y-81582026D01*
X115285874Y-81581635D01*
X115269508Y-81546969D01*
X115269142Y-81546107D01*
X115255157Y-81509065D01*
X115254753Y-81507768D01*
X115246704Y-81475408D01*
X115248033Y-81466552D01*
X115252147Y-81462487D01*
X115617883Y-81248424D01*
X115626753Y-81247203D01*
X115633890Y-81252612D01*
G37*
%TD.AperFunction*%
%TD*%
%TA.AperFunction,Conductor*%
%TO.N,/D2*%
G36*
X112611833Y-87955784D02*
G01*
X112704215Y-88048166D01*
X112707642Y-88056439D01*
X112704796Y-88064087D01*
X112650168Y-88127329D01*
X112621467Y-88160555D01*
X112621204Y-88160999D01*
X112621200Y-88161004D01*
X112581160Y-88228507D01*
X112563019Y-88259090D01*
X112530738Y-88353243D01*
X112518800Y-88444796D01*
X112521383Y-88535531D01*
X112532662Y-88627229D01*
X112532667Y-88627263D01*
X112532670Y-88627285D01*
X112546784Y-88721463D01*
X112546839Y-88721881D01*
X112557958Y-88820124D01*
X112558029Y-88821170D01*
X112560429Y-88925165D01*
X112560365Y-88926683D01*
X112548375Y-89038411D01*
X112548053Y-89040152D01*
X112517949Y-89154007D01*
X112512523Y-89161128D01*
X112506870Y-89162712D01*
X111776866Y-89176983D01*
X111489323Y-89182604D01*
X111480984Y-89179339D01*
X111477396Y-89170677D01*
X111488018Y-88627285D01*
X111497288Y-88153131D01*
X111500875Y-88144928D01*
X111505992Y-88142051D01*
X111619847Y-88111946D01*
X111621586Y-88111624D01*
X111642996Y-88109327D01*
X111733316Y-88099634D01*
X111734834Y-88099570D01*
X111838829Y-88101970D01*
X111839875Y-88102041D01*
X111863388Y-88104702D01*
X111938143Y-88113163D01*
X111938510Y-88113212D01*
X111989878Y-88120909D01*
X112032714Y-88127329D01*
X112032736Y-88127332D01*
X112032770Y-88127337D01*
X112032833Y-88127345D01*
X112032850Y-88127347D01*
X112092834Y-88134725D01*
X112124468Y-88138616D01*
X112183376Y-88140293D01*
X112214741Y-88141186D01*
X112214743Y-88141186D01*
X112215203Y-88141199D01*
X112215653Y-88141140D01*
X112215659Y-88141140D01*
X112275344Y-88133357D01*
X112306756Y-88129261D01*
X112307303Y-88129073D01*
X112307305Y-88129073D01*
X112358197Y-88111624D01*
X112400909Y-88096980D01*
X112456362Y-88064087D01*
X112498995Y-88038799D01*
X112499000Y-88038795D01*
X112499444Y-88038532D01*
X112595914Y-87955202D01*
X112604413Y-87952388D01*
X112611833Y-87955784D01*
G37*
%TD.AperFunction*%
%TD*%
%TA.AperFunction,Conductor*%
%TO.N,/D2*%
G36*
X115578433Y-82514319D02*
G01*
X115872587Y-82820203D01*
X115875852Y-82828542D01*
X115874355Y-82834042D01*
X115853874Y-82870511D01*
X115853122Y-82871682D01*
X115826838Y-82907675D01*
X115826105Y-82908580D01*
X115798671Y-82939218D01*
X115798147Y-82939766D01*
X115770310Y-82967067D01*
X115770170Y-82967202D01*
X115742809Y-82993087D01*
X115742754Y-82993143D01*
X115717292Y-83019070D01*
X115717287Y-83019076D01*
X115717103Y-83019263D01*
X115694019Y-83047651D01*
X115674471Y-83080223D01*
X115659375Y-83118949D01*
X115649646Y-83165797D01*
X115649621Y-83166208D01*
X115649621Y-83166209D01*
X115646865Y-83211747D01*
X115642944Y-83219798D01*
X115635186Y-83222740D01*
X115504814Y-83222740D01*
X115496541Y-83219313D01*
X115493135Y-83211747D01*
X115490378Y-83166209D01*
X115490378Y-83166208D01*
X115490353Y-83165797D01*
X115480624Y-83118949D01*
X115465528Y-83080223D01*
X115445980Y-83047651D01*
X115422896Y-83019263D01*
X115422712Y-83019076D01*
X115422707Y-83019070D01*
X115397245Y-82993143D01*
X115397190Y-82993087D01*
X115369829Y-82967202D01*
X115369689Y-82967067D01*
X115341852Y-82939766D01*
X115341328Y-82939218D01*
X115313894Y-82908580D01*
X115313161Y-82907675D01*
X115286877Y-82871683D01*
X115286131Y-82870523D01*
X115265644Y-82834041D01*
X115264582Y-82825150D01*
X115267413Y-82820203D01*
X115561567Y-82514319D01*
X115569771Y-82510731D01*
X115578433Y-82514319D01*
G37*
%TD.AperFunction*%
%TD*%
%TA.AperFunction,Conductor*%
%TO.N,/A8*%
G36*
X123529801Y-70815010D02*
G01*
X123621989Y-70907198D01*
X123625416Y-70915471D01*
X123622474Y-70923229D01*
X123614902Y-70931777D01*
X123591950Y-70957686D01*
X123565702Y-70997693D01*
X123548994Y-71035750D01*
X123539784Y-71072605D01*
X123536034Y-71109001D01*
X123535702Y-71145686D01*
X123535703Y-71145729D01*
X123535704Y-71145794D01*
X123536746Y-71183352D01*
X123536750Y-71183562D01*
X123537128Y-71222520D01*
X123537111Y-71223279D01*
X123534845Y-71264346D01*
X123534723Y-71265503D01*
X123527860Y-71309525D01*
X123527565Y-71310885D01*
X123516258Y-71351165D01*
X123510722Y-71358204D01*
X123505223Y-71359701D01*
X123298386Y-71363744D01*
X123080932Y-71367995D01*
X123072593Y-71364730D01*
X123069005Y-71356068D01*
X123073119Y-71145632D01*
X123077299Y-70931777D01*
X123080887Y-70923573D01*
X123085832Y-70920743D01*
X123126114Y-70909434D01*
X123127462Y-70909141D01*
X123171495Y-70902276D01*
X123172653Y-70902154D01*
X123213720Y-70899888D01*
X123214479Y-70899871D01*
X123228838Y-70900010D01*
X123253488Y-70900250D01*
X123253647Y-70900253D01*
X123291205Y-70901295D01*
X123291270Y-70901296D01*
X123291313Y-70901297D01*
X123291367Y-70901297D01*
X123311611Y-70901113D01*
X123327998Y-70900965D01*
X123364394Y-70897215D01*
X123364788Y-70897116D01*
X123364791Y-70897116D01*
X123400769Y-70888125D01*
X123400770Y-70888125D01*
X123401249Y-70888005D01*
X123401700Y-70887807D01*
X123401703Y-70887806D01*
X123418957Y-70880231D01*
X123439306Y-70871297D01*
X123439710Y-70871032D01*
X123478966Y-70845277D01*
X123478969Y-70845275D01*
X123479313Y-70845049D01*
X123513772Y-70814524D01*
X123522235Y-70811604D01*
X123529801Y-70815010D01*
G37*
%TD.AperFunction*%
%TD*%
%TA.AperFunction,Conductor*%
%TO.N,/A8*%
G36*
X127279016Y-65760661D02*
G01*
X127282604Y-65769323D01*
X127277834Y-66013316D01*
X127262867Y-66778995D01*
X127262713Y-66786868D01*
X127259125Y-66795072D01*
X127254008Y-66797949D01*
X127144953Y-66826784D01*
X127140154Y-66828053D01*
X127138413Y-66828375D01*
X127117003Y-66830672D01*
X127026683Y-66840365D01*
X127025165Y-66840429D01*
X126921170Y-66838029D01*
X126920124Y-66837958D01*
X126896611Y-66835297D01*
X126821856Y-66826836D01*
X126821489Y-66826787D01*
X126770121Y-66819090D01*
X126727285Y-66812670D01*
X126727263Y-66812667D01*
X126727229Y-66812662D01*
X126727166Y-66812654D01*
X126727149Y-66812652D01*
X126667165Y-66805274D01*
X126635531Y-66801383D01*
X126576623Y-66799706D01*
X126545258Y-66798813D01*
X126545256Y-66798813D01*
X126544796Y-66798800D01*
X126544346Y-66798859D01*
X126544340Y-66798859D01*
X126484655Y-66806642D01*
X126453243Y-66810738D01*
X126452696Y-66810926D01*
X126452694Y-66810926D01*
X126415482Y-66823685D01*
X126359090Y-66843019D01*
X126328507Y-66861160D01*
X126261004Y-66901200D01*
X126260999Y-66901204D01*
X126260555Y-66901467D01*
X126260158Y-66901810D01*
X126164087Y-66984796D01*
X126155586Y-66987611D01*
X126148166Y-66984215D01*
X126055784Y-66891833D01*
X126052357Y-66883560D01*
X126055202Y-66875914D01*
X126138532Y-66779444D01*
X126138795Y-66779000D01*
X126138799Y-66778995D01*
X126196676Y-66681421D01*
X126196980Y-66680909D01*
X126229261Y-66586756D01*
X126241199Y-66495203D01*
X126238616Y-66404468D01*
X126227337Y-66312770D01*
X126213212Y-66218510D01*
X126213160Y-66218118D01*
X126202041Y-66119875D01*
X126201970Y-66118829D01*
X126199570Y-66014834D01*
X126199634Y-66013316D01*
X126211624Y-65901588D01*
X126211946Y-65899845D01*
X126242050Y-65785994D01*
X126247478Y-65778872D01*
X126253130Y-65777288D01*
X126983134Y-65763017D01*
X127270677Y-65757396D01*
X127279016Y-65760661D01*
G37*
%TD.AperFunction*%
%TD*%
%TA.AperFunction,Conductor*%
%TO.N,/D0*%
G36*
X115294705Y-79946401D02*
G01*
X115706712Y-80048424D01*
X115713919Y-80053739D01*
X115715138Y-80063035D01*
X115710900Y-80077673D01*
X115601871Y-80454228D01*
X115597123Y-80470625D01*
X115591531Y-80477619D01*
X115585969Y-80479070D01*
X115555656Y-80479284D01*
X115548129Y-80479337D01*
X115546737Y-80479263D01*
X115504672Y-80474522D01*
X115503636Y-80474358D01*
X115464428Y-80466332D01*
X115463866Y-80466203D01*
X115426698Y-80456667D01*
X115415176Y-80453712D01*
X115391143Y-80447548D01*
X115390998Y-80447520D01*
X115390991Y-80447518D01*
X115357124Y-80440882D01*
X115357118Y-80440881D01*
X115356775Y-80440814D01*
X115322897Y-80438363D01*
X115322368Y-80438421D01*
X115322365Y-80438421D01*
X115300750Y-80440788D01*
X115288814Y-80442095D01*
X115288218Y-80442296D01*
X115288215Y-80442297D01*
X115272757Y-80447518D01*
X115253831Y-80453910D01*
X115217252Y-80475706D01*
X115216862Y-80476044D01*
X115216859Y-80476046D01*
X115186613Y-80502250D01*
X115178116Y-80505077D01*
X115170679Y-80501680D01*
X115078502Y-80409503D01*
X115075075Y-80401230D01*
X115078113Y-80393365D01*
X115112921Y-80355029D01*
X115112924Y-80355025D01*
X115113144Y-80354783D01*
X115144648Y-80311278D01*
X115167276Y-80270345D01*
X115183174Y-80231224D01*
X115194489Y-80193155D01*
X115203368Y-80155380D01*
X115211908Y-80117359D01*
X115212013Y-80116929D01*
X115222290Y-80078099D01*
X115222553Y-80077242D01*
X115227506Y-80063035D01*
X115236657Y-80036782D01*
X115237099Y-80035692D01*
X115257185Y-79992600D01*
X115257783Y-79991481D01*
X115281886Y-79951696D01*
X115289104Y-79946395D01*
X115294705Y-79946401D01*
G37*
%TD.AperFunction*%
%TD*%
%TA.AperFunction,Conductor*%
%TO.N,/D0*%
G36*
X112611833Y-82875784D02*
G01*
X112704215Y-82968166D01*
X112707642Y-82976439D01*
X112704796Y-82984087D01*
X112650168Y-83047329D01*
X112621467Y-83080555D01*
X112621204Y-83080999D01*
X112621200Y-83081004D01*
X112581160Y-83148507D01*
X112563019Y-83179090D01*
X112530738Y-83273243D01*
X112518800Y-83364796D01*
X112521383Y-83455531D01*
X112532662Y-83547229D01*
X112532667Y-83547263D01*
X112532670Y-83547285D01*
X112546784Y-83641463D01*
X112546839Y-83641881D01*
X112557958Y-83740124D01*
X112558029Y-83741170D01*
X112560429Y-83845165D01*
X112560365Y-83846683D01*
X112548375Y-83958411D01*
X112548053Y-83960152D01*
X112517949Y-84074007D01*
X112512523Y-84081128D01*
X112506870Y-84082712D01*
X111776866Y-84096983D01*
X111489323Y-84102604D01*
X111480984Y-84099339D01*
X111477396Y-84090677D01*
X111488018Y-83547285D01*
X111497288Y-83073131D01*
X111500875Y-83064928D01*
X111505992Y-83062051D01*
X111619847Y-83031946D01*
X111621586Y-83031624D01*
X111642996Y-83029327D01*
X111733316Y-83019634D01*
X111734834Y-83019570D01*
X111838829Y-83021970D01*
X111839875Y-83022041D01*
X111863388Y-83024702D01*
X111938143Y-83033163D01*
X111938510Y-83033212D01*
X111989878Y-83040909D01*
X112032714Y-83047329D01*
X112032736Y-83047332D01*
X112032770Y-83047337D01*
X112032833Y-83047345D01*
X112032850Y-83047347D01*
X112092834Y-83054725D01*
X112124468Y-83058616D01*
X112183376Y-83060293D01*
X112214741Y-83061186D01*
X112214743Y-83061186D01*
X112215203Y-83061199D01*
X112215653Y-83061140D01*
X112215659Y-83061140D01*
X112275344Y-83053357D01*
X112306756Y-83049261D01*
X112307303Y-83049073D01*
X112307305Y-83049073D01*
X112358197Y-83031624D01*
X112400909Y-83016980D01*
X112456362Y-82984087D01*
X112498995Y-82958799D01*
X112499000Y-82958795D01*
X112499444Y-82958532D01*
X112595914Y-82875202D01*
X112604413Y-82872388D01*
X112611833Y-82875784D01*
G37*
%TD.AperFunction*%
%TD*%
%TA.AperFunction,Conductor*%
%TO.N,/A9*%
G36*
X123462503Y-72025502D02*
G01*
X123554680Y-72117679D01*
X123558107Y-72125952D01*
X123555250Y-72133613D01*
X123533245Y-72159013D01*
X123528706Y-72164252D01*
X123506910Y-72200831D01*
X123506712Y-72201418D01*
X123496096Y-72232851D01*
X123495095Y-72235814D01*
X123491363Y-72269897D01*
X123493814Y-72303775D01*
X123500548Y-72338143D01*
X123500586Y-72338291D01*
X123500588Y-72338300D01*
X123509667Y-72373698D01*
X123519202Y-72410862D01*
X123519331Y-72411423D01*
X123527358Y-72450636D01*
X123527522Y-72451672D01*
X123532263Y-72493737D01*
X123532337Y-72495129D01*
X123532071Y-72532967D01*
X123528586Y-72541216D01*
X123523627Y-72544122D01*
X123116035Y-72662138D01*
X123107135Y-72661148D01*
X123101424Y-72653712D01*
X122999401Y-72241705D01*
X123000739Y-72232851D01*
X123004696Y-72228886D01*
X123044486Y-72204780D01*
X123045594Y-72204188D01*
X123088693Y-72184099D01*
X123089784Y-72183656D01*
X123130248Y-72169551D01*
X123131093Y-72169292D01*
X123151619Y-72163859D01*
X123169929Y-72159013D01*
X123170359Y-72158908D01*
X123208380Y-72150368D01*
X123246155Y-72141489D01*
X123252502Y-72139602D01*
X123283943Y-72130258D01*
X123283952Y-72130255D01*
X123284224Y-72130174D01*
X123296019Y-72125381D01*
X123323020Y-72114408D01*
X123323019Y-72114408D01*
X123323345Y-72114276D01*
X123364278Y-72091648D01*
X123407783Y-72060144D01*
X123408029Y-72059921D01*
X123446365Y-72025113D01*
X123454794Y-72022089D01*
X123462503Y-72025502D01*
G37*
%TD.AperFunction*%
%TD*%
%TA.AperFunction,Conductor*%
%TO.N,/A9*%
G36*
X127279016Y-68300661D02*
G01*
X127282604Y-68309323D01*
X127277834Y-68553316D01*
X127262867Y-69318995D01*
X127262713Y-69326868D01*
X127259125Y-69335072D01*
X127254008Y-69337949D01*
X127144953Y-69366784D01*
X127140154Y-69368053D01*
X127138413Y-69368375D01*
X127117003Y-69370672D01*
X127026683Y-69380365D01*
X127025165Y-69380429D01*
X126921170Y-69378029D01*
X126920124Y-69377958D01*
X126896611Y-69375297D01*
X126821856Y-69366836D01*
X126821489Y-69366787D01*
X126770121Y-69359090D01*
X126727285Y-69352670D01*
X126727263Y-69352667D01*
X126727229Y-69352662D01*
X126727166Y-69352654D01*
X126727149Y-69352652D01*
X126667165Y-69345274D01*
X126635531Y-69341383D01*
X126576623Y-69339706D01*
X126545258Y-69338813D01*
X126545256Y-69338813D01*
X126544796Y-69338800D01*
X126544346Y-69338859D01*
X126544340Y-69338859D01*
X126484655Y-69346642D01*
X126453243Y-69350738D01*
X126452696Y-69350926D01*
X126452694Y-69350926D01*
X126415482Y-69363685D01*
X126359090Y-69383019D01*
X126328507Y-69401160D01*
X126261004Y-69441200D01*
X126260999Y-69441204D01*
X126260555Y-69441467D01*
X126260158Y-69441810D01*
X126164087Y-69524796D01*
X126155586Y-69527611D01*
X126148166Y-69524215D01*
X126055784Y-69431833D01*
X126052357Y-69423560D01*
X126055202Y-69415914D01*
X126138532Y-69319444D01*
X126138795Y-69319000D01*
X126138799Y-69318995D01*
X126196676Y-69221421D01*
X126196980Y-69220909D01*
X126229261Y-69126756D01*
X126241199Y-69035203D01*
X126238616Y-68944468D01*
X126227337Y-68852770D01*
X126213212Y-68758510D01*
X126213160Y-68758118D01*
X126202041Y-68659875D01*
X126201970Y-68658829D01*
X126199570Y-68554834D01*
X126199634Y-68553316D01*
X126211624Y-68441588D01*
X126211946Y-68439845D01*
X126242050Y-68325994D01*
X126247478Y-68318872D01*
X126253130Y-68317288D01*
X126983134Y-68303017D01*
X127270677Y-68297396D01*
X127279016Y-68300661D01*
G37*
%TD.AperFunction*%
%TD*%
%TA.AperFunction,Conductor*%
%TO.N,/A11*%
G36*
X123529801Y-73355010D02*
G01*
X123621989Y-73447198D01*
X123625416Y-73455471D01*
X123622474Y-73463229D01*
X123614902Y-73471777D01*
X123591950Y-73497686D01*
X123565702Y-73537693D01*
X123548994Y-73575750D01*
X123539784Y-73612605D01*
X123536034Y-73649001D01*
X123535702Y-73685686D01*
X123535703Y-73685729D01*
X123535704Y-73685794D01*
X123536746Y-73723352D01*
X123536750Y-73723562D01*
X123537128Y-73762520D01*
X123537111Y-73763279D01*
X123534845Y-73804346D01*
X123534723Y-73805503D01*
X123527860Y-73849525D01*
X123527565Y-73850885D01*
X123516258Y-73891165D01*
X123510722Y-73898204D01*
X123505223Y-73899701D01*
X123298386Y-73903744D01*
X123080932Y-73907995D01*
X123072593Y-73904730D01*
X123069005Y-73896068D01*
X123073119Y-73685632D01*
X123077299Y-73471777D01*
X123080887Y-73463573D01*
X123085832Y-73460743D01*
X123126114Y-73449434D01*
X123127462Y-73449141D01*
X123171495Y-73442276D01*
X123172653Y-73442154D01*
X123213720Y-73439888D01*
X123214479Y-73439871D01*
X123228838Y-73440010D01*
X123253488Y-73440250D01*
X123253647Y-73440253D01*
X123291205Y-73441295D01*
X123291270Y-73441296D01*
X123291313Y-73441297D01*
X123291367Y-73441297D01*
X123311611Y-73441113D01*
X123327998Y-73440965D01*
X123364394Y-73437215D01*
X123364788Y-73437116D01*
X123364791Y-73437116D01*
X123400769Y-73428125D01*
X123400770Y-73428125D01*
X123401249Y-73428005D01*
X123401700Y-73427807D01*
X123401703Y-73427806D01*
X123418957Y-73420231D01*
X123439306Y-73411297D01*
X123439710Y-73411032D01*
X123478966Y-73385277D01*
X123478969Y-73385275D01*
X123479313Y-73385049D01*
X123513772Y-73354524D01*
X123522235Y-73351604D01*
X123529801Y-73355010D01*
G37*
%TD.AperFunction*%
%TD*%
%TA.AperFunction,Conductor*%
%TO.N,/A11*%
G36*
X126441966Y-70558797D02*
G01*
X127386662Y-71112187D01*
X127392068Y-71119325D01*
X127390843Y-71128196D01*
X127388859Y-71130714D01*
X126657913Y-71833630D01*
X126649576Y-71836894D01*
X126643531Y-71835071D01*
X126549132Y-71775093D01*
X126547395Y-71773744D01*
X126459104Y-71690605D01*
X126458085Y-71689514D01*
X126379927Y-71594381D01*
X126379409Y-71593702D01*
X126308820Y-71493726D01*
X126308671Y-71493510D01*
X126243144Y-71396126D01*
X126243138Y-71396117D01*
X126243100Y-71396061D01*
X126179997Y-71308643D01*
X126116704Y-71238622D01*
X126116140Y-71238235D01*
X126116137Y-71238233D01*
X126051498Y-71193948D01*
X126051497Y-71193948D01*
X126050492Y-71193259D01*
X126049294Y-71193035D01*
X126049292Y-71193034D01*
X125980064Y-71180080D01*
X125978632Y-71179812D01*
X125898394Y-71205543D01*
X125815216Y-71271260D01*
X125806601Y-71273700D01*
X125799691Y-71270353D01*
X125707697Y-71178359D01*
X125704270Y-71170086D01*
X125707833Y-71161679D01*
X125785873Y-71086140D01*
X125786181Y-71085853D01*
X125862480Y-71017145D01*
X125862816Y-71016853D01*
X125931088Y-70959920D01*
X125931414Y-70959658D01*
X125993690Y-70911398D01*
X125993946Y-70911205D01*
X126052345Y-70868452D01*
X126052461Y-70868368D01*
X126109009Y-70828028D01*
X126109012Y-70828026D01*
X126109058Y-70827993D01*
X126165792Y-70786957D01*
X126165825Y-70786932D01*
X126165852Y-70786912D01*
X126224608Y-70742214D01*
X126224610Y-70742213D01*
X126224650Y-70742182D01*
X126287666Y-70690558D01*
X126294127Y-70684809D01*
X126356808Y-70629033D01*
X126356820Y-70629022D01*
X126356876Y-70628972D01*
X126427931Y-70560469D01*
X126436266Y-70557194D01*
X126441966Y-70558797D01*
G37*
%TD.AperFunction*%
%TD*%
%TA.AperFunction,Conductor*%
%TO.N,Net-(R5-Pad2)*%
G36*
X123529801Y-69545010D02*
G01*
X123621989Y-69637198D01*
X123625416Y-69645471D01*
X123622474Y-69653229D01*
X123614902Y-69661777D01*
X123591950Y-69687686D01*
X123565702Y-69727693D01*
X123548994Y-69765750D01*
X123539784Y-69802605D01*
X123536034Y-69839001D01*
X123535702Y-69875686D01*
X123535703Y-69875729D01*
X123535704Y-69875794D01*
X123536746Y-69913352D01*
X123536750Y-69913562D01*
X123537128Y-69952520D01*
X123537111Y-69953279D01*
X123534845Y-69994346D01*
X123534723Y-69995503D01*
X123527860Y-70039525D01*
X123527565Y-70040885D01*
X123516258Y-70081165D01*
X123510722Y-70088204D01*
X123505223Y-70089701D01*
X123298386Y-70093744D01*
X123080932Y-70097995D01*
X123072593Y-70094730D01*
X123069005Y-70086068D01*
X123073119Y-69875632D01*
X123077299Y-69661777D01*
X123080887Y-69653573D01*
X123085832Y-69650743D01*
X123126114Y-69639434D01*
X123127462Y-69639141D01*
X123171495Y-69632276D01*
X123172653Y-69632154D01*
X123213720Y-69629888D01*
X123214479Y-69629871D01*
X123228838Y-69630010D01*
X123253488Y-69630250D01*
X123253647Y-69630253D01*
X123291205Y-69631295D01*
X123291270Y-69631296D01*
X123291313Y-69631297D01*
X123291367Y-69631297D01*
X123311611Y-69631113D01*
X123327998Y-69630965D01*
X123364394Y-69627215D01*
X123364788Y-69627116D01*
X123364791Y-69627116D01*
X123400769Y-69618125D01*
X123400770Y-69618125D01*
X123401249Y-69618005D01*
X123401700Y-69617807D01*
X123401703Y-69617806D01*
X123418957Y-69610231D01*
X123439306Y-69601297D01*
X123439710Y-69601032D01*
X123478966Y-69575277D01*
X123478969Y-69575275D01*
X123479313Y-69575049D01*
X123513772Y-69544524D01*
X123522235Y-69541604D01*
X123529801Y-69545010D01*
G37*
%TD.AperFunction*%
%TD*%
%TA.AperFunction,Conductor*%
%TO.N,/A4*%
G36*
X115246229Y-73354526D02*
G01*
X115280373Y-73384772D01*
X115280686Y-73385049D01*
X115281030Y-73385275D01*
X115281033Y-73385277D01*
X115320289Y-73411032D01*
X115320693Y-73411297D01*
X115341042Y-73420231D01*
X115358296Y-73427806D01*
X115358299Y-73427807D01*
X115358750Y-73428005D01*
X115359229Y-73428125D01*
X115359230Y-73428125D01*
X115395208Y-73437116D01*
X115395211Y-73437116D01*
X115395605Y-73437215D01*
X115432001Y-73440965D01*
X115448388Y-73441113D01*
X115468632Y-73441297D01*
X115468686Y-73441297D01*
X115468729Y-73441296D01*
X115468794Y-73441295D01*
X115506352Y-73440253D01*
X115506511Y-73440250D01*
X115531161Y-73440010D01*
X115545520Y-73439871D01*
X115546279Y-73439888D01*
X115587346Y-73442154D01*
X115588503Y-73442276D01*
X115632533Y-73449140D01*
X115633878Y-73449432D01*
X115674167Y-73460743D01*
X115681204Y-73466277D01*
X115682701Y-73471776D01*
X115686881Y-73685632D01*
X115690995Y-73896068D01*
X115687730Y-73904407D01*
X115679068Y-73907995D01*
X115472581Y-73903959D01*
X115254777Y-73899701D01*
X115246573Y-73896113D01*
X115243743Y-73891169D01*
X115232432Y-73850878D01*
X115232140Y-73849533D01*
X115225276Y-73805503D01*
X115225154Y-73804346D01*
X115222888Y-73763279D01*
X115222871Y-73762520D01*
X115223249Y-73723562D01*
X115223253Y-73723352D01*
X115224295Y-73685794D01*
X115224296Y-73685729D01*
X115224297Y-73685686D01*
X115223965Y-73649001D01*
X115220215Y-73612605D01*
X115211005Y-73575750D01*
X115194297Y-73537693D01*
X115168049Y-73497686D01*
X115167772Y-73497373D01*
X115137526Y-73463229D01*
X115134605Y-73454764D01*
X115138011Y-73447198D01*
X115230198Y-73355011D01*
X115238471Y-73351584D01*
X115246229Y-73354526D01*
G37*
%TD.AperFunction*%
%TD*%
%TA.AperFunction,Conductor*%
%TO.N,/A4*%
G36*
X112332069Y-70560469D02*
G01*
X112403123Y-70628972D01*
X112472333Y-70690558D01*
X112535349Y-70742182D01*
X112535389Y-70742213D01*
X112535391Y-70742214D01*
X112594147Y-70786912D01*
X112594174Y-70786932D01*
X112594207Y-70786957D01*
X112650941Y-70827993D01*
X112650987Y-70828026D01*
X112650990Y-70828028D01*
X112707538Y-70868368D01*
X112707654Y-70868452D01*
X112766053Y-70911205D01*
X112766309Y-70911398D01*
X112828585Y-70959658D01*
X112828911Y-70959920D01*
X112897183Y-71016853D01*
X112897519Y-71017145D01*
X112973818Y-71085853D01*
X112974115Y-71086129D01*
X113020177Y-71130715D01*
X113052167Y-71161679D01*
X113055728Y-71169895D01*
X113052303Y-71178359D01*
X112960309Y-71270353D01*
X112952036Y-71273780D01*
X112944784Y-71271260D01*
X112861605Y-71205543D01*
X112781367Y-71179812D01*
X112779935Y-71180080D01*
X112710707Y-71193034D01*
X112710705Y-71193035D01*
X112709507Y-71193259D01*
X112708502Y-71193948D01*
X112708501Y-71193948D01*
X112643862Y-71238233D01*
X112643859Y-71238235D01*
X112643295Y-71238622D01*
X112580002Y-71308643D01*
X112516899Y-71396061D01*
X112516861Y-71396117D01*
X112516855Y-71396126D01*
X112451328Y-71493510D01*
X112451179Y-71493726D01*
X112380590Y-71593702D01*
X112380072Y-71594381D01*
X112301914Y-71689514D01*
X112300895Y-71690605D01*
X112212604Y-71773744D01*
X112210867Y-71775093D01*
X112116469Y-71835071D01*
X112107649Y-71836616D01*
X112102087Y-71833630D01*
X111371142Y-71130715D01*
X111367554Y-71122511D01*
X111370819Y-71114172D01*
X111373338Y-71112187D01*
X111789563Y-70868368D01*
X112318034Y-70558797D01*
X112326904Y-70557572D01*
X112332069Y-70560469D01*
G37*
%TD.AperFunction*%
%TD*%
%TA.AperFunction,Conductor*%
%TO.N,/A5*%
G36*
X115313635Y-72025113D02*
G01*
X115351970Y-72059921D01*
X115352216Y-72060144D01*
X115395721Y-72091648D01*
X115436654Y-72114276D01*
X115436980Y-72114408D01*
X115436979Y-72114408D01*
X115463981Y-72125381D01*
X115475775Y-72130174D01*
X115476047Y-72130255D01*
X115476056Y-72130258D01*
X115507497Y-72139602D01*
X115513844Y-72141489D01*
X115551619Y-72150368D01*
X115589640Y-72158908D01*
X115590070Y-72159013D01*
X115608380Y-72163859D01*
X115628906Y-72169292D01*
X115629751Y-72169551D01*
X115670215Y-72183656D01*
X115671306Y-72184099D01*
X115714405Y-72204188D01*
X115715513Y-72204780D01*
X115755304Y-72228886D01*
X115760605Y-72236104D01*
X115760599Y-72241705D01*
X115658576Y-72653712D01*
X115653261Y-72660919D01*
X115643965Y-72662138D01*
X115236374Y-72544122D01*
X115229381Y-72538531D01*
X115227929Y-72532968D01*
X115227662Y-72495130D01*
X115227736Y-72493737D01*
X115232477Y-72451672D01*
X115232641Y-72450636D01*
X115240667Y-72411428D01*
X115240796Y-72410866D01*
X115250332Y-72373698D01*
X115259451Y-72338143D01*
X115266185Y-72303775D01*
X115268636Y-72269897D01*
X115264904Y-72235814D01*
X115253089Y-72200831D01*
X115231293Y-72164252D01*
X115226755Y-72159013D01*
X115204750Y-72133613D01*
X115201923Y-72125116D01*
X115205320Y-72117679D01*
X115297497Y-72025502D01*
X115305770Y-72022075D01*
X115313635Y-72025113D01*
G37*
%TD.AperFunction*%
%TD*%
%TA.AperFunction,Conductor*%
%TO.N,/A5*%
G36*
X111776866Y-68303017D02*
G01*
X112506869Y-68317288D01*
X112515072Y-68320875D01*
X112517949Y-68325992D01*
X112548053Y-68439845D01*
X112548375Y-68441588D01*
X112560365Y-68553316D01*
X112560429Y-68554834D01*
X112558029Y-68658829D01*
X112557958Y-68659875D01*
X112546839Y-68758118D01*
X112546787Y-68758510D01*
X112532662Y-68852770D01*
X112521383Y-68944468D01*
X112518800Y-69035203D01*
X112530738Y-69126756D01*
X112563019Y-69220909D01*
X112563323Y-69221421D01*
X112621200Y-69318995D01*
X112621204Y-69319000D01*
X112621467Y-69319444D01*
X112621810Y-69319841D01*
X112704796Y-69415913D01*
X112707611Y-69424414D01*
X112704215Y-69431834D01*
X112611834Y-69524215D01*
X112603561Y-69527642D01*
X112595913Y-69524796D01*
X112499841Y-69441810D01*
X112499842Y-69441810D01*
X112499444Y-69441467D01*
X112499000Y-69441204D01*
X112498995Y-69441200D01*
X112431492Y-69401160D01*
X112400909Y-69383019D01*
X112344517Y-69363685D01*
X112307305Y-69350926D01*
X112307303Y-69350926D01*
X112306756Y-69350738D01*
X112275344Y-69346642D01*
X112215659Y-69338859D01*
X112215653Y-69338859D01*
X112215203Y-69338800D01*
X112214743Y-69338813D01*
X112214741Y-69338813D01*
X112183376Y-69339706D01*
X112124468Y-69341383D01*
X112092834Y-69345274D01*
X112032850Y-69352652D01*
X112032833Y-69352654D01*
X112032770Y-69352662D01*
X112032736Y-69352667D01*
X112032714Y-69352670D01*
X111989878Y-69359090D01*
X111938510Y-69366787D01*
X111938143Y-69366836D01*
X111863388Y-69375297D01*
X111839875Y-69377958D01*
X111838829Y-69378029D01*
X111734834Y-69380429D01*
X111733316Y-69380365D01*
X111642996Y-69370672D01*
X111621586Y-69368375D01*
X111619845Y-69368053D01*
X111615046Y-69366784D01*
X111505993Y-69337949D01*
X111498872Y-69332522D01*
X111497287Y-69326868D01*
X111497134Y-69318995D01*
X111482166Y-68553316D01*
X111477396Y-68309323D01*
X111480661Y-68300984D01*
X111489323Y-68297396D01*
X111776866Y-68303017D01*
G37*
%TD.AperFunction*%
%TD*%
%TA.AperFunction,Conductor*%
%TO.N,/D6*%
G36*
X123474148Y-79947739D02*
G01*
X123478113Y-79951696D01*
X123502216Y-79991481D01*
X123502814Y-79992600D01*
X123522900Y-80035692D01*
X123523342Y-80036782D01*
X123532494Y-80063035D01*
X123537446Y-80077242D01*
X123537709Y-80078099D01*
X123547986Y-80116929D01*
X123548091Y-80117359D01*
X123556631Y-80155380D01*
X123565510Y-80193155D01*
X123576825Y-80231224D01*
X123592723Y-80270345D01*
X123615351Y-80311278D01*
X123646855Y-80354783D01*
X123647075Y-80355025D01*
X123647078Y-80355029D01*
X123681887Y-80393365D01*
X123684911Y-80401794D01*
X123681498Y-80409503D01*
X123589321Y-80501680D01*
X123581048Y-80505107D01*
X123573387Y-80502250D01*
X123543140Y-80476046D01*
X123543137Y-80476044D01*
X123542747Y-80475706D01*
X123506168Y-80453910D01*
X123487242Y-80447518D01*
X123471784Y-80442297D01*
X123471781Y-80442296D01*
X123471185Y-80442095D01*
X123459249Y-80440788D01*
X123437634Y-80438421D01*
X123437631Y-80438421D01*
X123437102Y-80438363D01*
X123403224Y-80440814D01*
X123402881Y-80440881D01*
X123402875Y-80440882D01*
X123369007Y-80447518D01*
X123368994Y-80447521D01*
X123368856Y-80447548D01*
X123368708Y-80447586D01*
X123368699Y-80447588D01*
X123333301Y-80456667D01*
X123296137Y-80466202D01*
X123295576Y-80466331D01*
X123256363Y-80474358D01*
X123255328Y-80474522D01*
X123244822Y-80475706D01*
X123213262Y-80479263D01*
X123211870Y-80479337D01*
X123204332Y-80479284D01*
X123174032Y-80479070D01*
X123165784Y-80475586D01*
X123162877Y-80470625D01*
X123161597Y-80466202D01*
X123049100Y-80077673D01*
X123044862Y-80063035D01*
X123045852Y-80054135D01*
X123053288Y-80048424D01*
X123465294Y-79946401D01*
X123474148Y-79947739D01*
G37*
%TD.AperFunction*%
%TD*%
%TA.AperFunction,Conductor*%
%TO.N,/D6*%
G36*
X126164086Y-82875202D02*
G01*
X126260555Y-82958532D01*
X126260999Y-82958795D01*
X126261004Y-82958799D01*
X126328507Y-82998839D01*
X126359090Y-83016980D01*
X126401802Y-83031624D01*
X126452694Y-83049073D01*
X126452696Y-83049073D01*
X126453243Y-83049261D01*
X126484655Y-83053357D01*
X126544340Y-83061140D01*
X126544346Y-83061140D01*
X126544796Y-83061199D01*
X126545256Y-83061186D01*
X126545258Y-83061186D01*
X126576623Y-83060293D01*
X126635531Y-83058616D01*
X126667165Y-83054725D01*
X126727149Y-83047347D01*
X126727166Y-83047345D01*
X126727229Y-83047337D01*
X126727263Y-83047332D01*
X126727285Y-83047329D01*
X126770121Y-83040909D01*
X126821489Y-83033212D01*
X126821856Y-83033163D01*
X126896611Y-83024702D01*
X126920124Y-83022041D01*
X126921170Y-83021970D01*
X127025165Y-83019570D01*
X127026683Y-83019634D01*
X127117003Y-83029327D01*
X127138413Y-83031624D01*
X127140152Y-83031946D01*
X127254007Y-83062051D01*
X127261128Y-83067478D01*
X127262712Y-83073130D01*
X127271982Y-83547285D01*
X127282604Y-84090677D01*
X127279339Y-84099016D01*
X127270677Y-84102604D01*
X126983134Y-84096983D01*
X126253131Y-84082712D01*
X126244928Y-84079125D01*
X126242050Y-84074006D01*
X126211946Y-83960154D01*
X126211624Y-83958411D01*
X126199634Y-83846683D01*
X126199570Y-83845165D01*
X126201970Y-83741170D01*
X126202041Y-83740124D01*
X126213160Y-83641881D01*
X126213215Y-83641463D01*
X126227329Y-83547285D01*
X126227332Y-83547263D01*
X126227337Y-83547229D01*
X126238616Y-83455531D01*
X126241199Y-83364796D01*
X126229261Y-83273243D01*
X126196980Y-83179090D01*
X126178839Y-83148507D01*
X126138799Y-83081004D01*
X126138795Y-83080999D01*
X126138532Y-83080555D01*
X126055202Y-82984086D01*
X126052388Y-82975587D01*
X126055784Y-82968167D01*
X126148167Y-82875784D01*
X126156440Y-82872357D01*
X126164086Y-82875202D01*
G37*
%TD.AperFunction*%
%TD*%
%TA.AperFunction,Conductor*%
%TO.N,/A6*%
G36*
X115246229Y-70814526D02*
G01*
X115280373Y-70844772D01*
X115280686Y-70845049D01*
X115281030Y-70845275D01*
X115281033Y-70845277D01*
X115320289Y-70871032D01*
X115320693Y-70871297D01*
X115341042Y-70880231D01*
X115358296Y-70887806D01*
X115358299Y-70887807D01*
X115358750Y-70888005D01*
X115359229Y-70888125D01*
X115359230Y-70888125D01*
X115395208Y-70897116D01*
X115395211Y-70897116D01*
X115395605Y-70897215D01*
X115432001Y-70900965D01*
X115448388Y-70901113D01*
X115468632Y-70901297D01*
X115468686Y-70901297D01*
X115468729Y-70901296D01*
X115468794Y-70901295D01*
X115506352Y-70900253D01*
X115506511Y-70900250D01*
X115531161Y-70900010D01*
X115545520Y-70899871D01*
X115546279Y-70899888D01*
X115587346Y-70902154D01*
X115588503Y-70902276D01*
X115632533Y-70909140D01*
X115633878Y-70909432D01*
X115674167Y-70920743D01*
X115681204Y-70926277D01*
X115682701Y-70931776D01*
X115686881Y-71145632D01*
X115690995Y-71356068D01*
X115687730Y-71364407D01*
X115679068Y-71367995D01*
X115472581Y-71363959D01*
X115254777Y-71359701D01*
X115246573Y-71356113D01*
X115243743Y-71351169D01*
X115232432Y-71310878D01*
X115232140Y-71309533D01*
X115225276Y-71265503D01*
X115225154Y-71264346D01*
X115222888Y-71223279D01*
X115222871Y-71222520D01*
X115223249Y-71183562D01*
X115223253Y-71183352D01*
X115224295Y-71145794D01*
X115224296Y-71145729D01*
X115224297Y-71145686D01*
X115223965Y-71109001D01*
X115220215Y-71072605D01*
X115211005Y-71035750D01*
X115194297Y-70997693D01*
X115168049Y-70957686D01*
X115167772Y-70957373D01*
X115137526Y-70923229D01*
X115134605Y-70914764D01*
X115138011Y-70907198D01*
X115230198Y-70815011D01*
X115238471Y-70811584D01*
X115246229Y-70814526D01*
G37*
%TD.AperFunction*%
%TD*%
%TA.AperFunction,Conductor*%
%TO.N,/A6*%
G36*
X111776866Y-65763017D02*
G01*
X112506869Y-65777288D01*
X112515072Y-65780875D01*
X112517949Y-65785992D01*
X112548053Y-65899845D01*
X112548375Y-65901588D01*
X112560365Y-66013316D01*
X112560429Y-66014834D01*
X112558029Y-66118829D01*
X112557958Y-66119875D01*
X112546839Y-66218118D01*
X112546787Y-66218510D01*
X112532662Y-66312770D01*
X112521383Y-66404468D01*
X112518800Y-66495203D01*
X112530738Y-66586756D01*
X112563019Y-66680909D01*
X112563323Y-66681421D01*
X112621200Y-66778995D01*
X112621204Y-66779000D01*
X112621467Y-66779444D01*
X112621810Y-66779841D01*
X112704796Y-66875913D01*
X112707611Y-66884414D01*
X112704215Y-66891834D01*
X112611834Y-66984215D01*
X112603561Y-66987642D01*
X112595913Y-66984796D01*
X112499841Y-66901810D01*
X112499842Y-66901810D01*
X112499444Y-66901467D01*
X112499000Y-66901204D01*
X112498995Y-66901200D01*
X112431492Y-66861160D01*
X112400909Y-66843019D01*
X112344517Y-66823685D01*
X112307305Y-66810926D01*
X112307303Y-66810926D01*
X112306756Y-66810738D01*
X112275344Y-66806642D01*
X112215659Y-66798859D01*
X112215653Y-66798859D01*
X112215203Y-66798800D01*
X112214743Y-66798813D01*
X112214741Y-66798813D01*
X112183376Y-66799706D01*
X112124468Y-66801383D01*
X112092834Y-66805274D01*
X112032850Y-66812652D01*
X112032833Y-66812654D01*
X112032770Y-66812662D01*
X112032736Y-66812667D01*
X112032714Y-66812670D01*
X111989878Y-66819090D01*
X111938510Y-66826787D01*
X111938143Y-66826836D01*
X111863388Y-66835297D01*
X111839875Y-66837958D01*
X111838829Y-66838029D01*
X111734834Y-66840429D01*
X111733316Y-66840365D01*
X111642996Y-66830672D01*
X111621586Y-66828375D01*
X111619845Y-66828053D01*
X111615046Y-66826784D01*
X111505993Y-66797949D01*
X111498872Y-66792522D01*
X111497287Y-66786868D01*
X111497134Y-66778995D01*
X111482166Y-66013316D01*
X111477396Y-65769323D01*
X111480661Y-65760984D01*
X111489323Y-65757396D01*
X111776866Y-65763017D01*
G37*
%TD.AperFunction*%
%TD*%
%TA.AperFunction,Conductor*%
%TO.N,/D5*%
G36*
X126164086Y-85415202D02*
G01*
X126260555Y-85498532D01*
X126260999Y-85498795D01*
X126261004Y-85498799D01*
X126328507Y-85538839D01*
X126359090Y-85556980D01*
X126401802Y-85571624D01*
X126452694Y-85589073D01*
X126452696Y-85589073D01*
X126453243Y-85589261D01*
X126484655Y-85593357D01*
X126544340Y-85601140D01*
X126544346Y-85601140D01*
X126544796Y-85601199D01*
X126545256Y-85601186D01*
X126545258Y-85601186D01*
X126576623Y-85600293D01*
X126635531Y-85598616D01*
X126667165Y-85594725D01*
X126727149Y-85587347D01*
X126727166Y-85587345D01*
X126727229Y-85587337D01*
X126727263Y-85587332D01*
X126727285Y-85587329D01*
X126770121Y-85580909D01*
X126821489Y-85573212D01*
X126821856Y-85573163D01*
X126896611Y-85564702D01*
X126920124Y-85562041D01*
X126921170Y-85561970D01*
X127025165Y-85559570D01*
X127026683Y-85559634D01*
X127117003Y-85569327D01*
X127138413Y-85571624D01*
X127140152Y-85571946D01*
X127254007Y-85602051D01*
X127261128Y-85607478D01*
X127262712Y-85613130D01*
X127271982Y-86087285D01*
X127282604Y-86630677D01*
X127279339Y-86639016D01*
X127270677Y-86642604D01*
X126983134Y-86636983D01*
X126253131Y-86622712D01*
X126244928Y-86619125D01*
X126242050Y-86614006D01*
X126211946Y-86500154D01*
X126211624Y-86498411D01*
X126199634Y-86386683D01*
X126199570Y-86385165D01*
X126201970Y-86281170D01*
X126202041Y-86280124D01*
X126213160Y-86181881D01*
X126213215Y-86181463D01*
X126227329Y-86087285D01*
X126227332Y-86087263D01*
X126227337Y-86087229D01*
X126238616Y-85995531D01*
X126241199Y-85904796D01*
X126229261Y-85813243D01*
X126196980Y-85719090D01*
X126178839Y-85688507D01*
X126138799Y-85621004D01*
X126138795Y-85620999D01*
X126138532Y-85620555D01*
X126055202Y-85524086D01*
X126052388Y-85515587D01*
X126055784Y-85508167D01*
X126148167Y-85415784D01*
X126156440Y-85412357D01*
X126164086Y-85415202D01*
G37*
%TD.AperFunction*%
%TD*%
%TA.AperFunction,Conductor*%
%TO.N,/D5*%
G36*
X123298386Y-81290256D02*
G01*
X123505222Y-81294299D01*
X123513426Y-81297887D01*
X123516258Y-81302835D01*
X123527565Y-81343114D01*
X123527860Y-81344474D01*
X123534723Y-81388496D01*
X123534845Y-81389653D01*
X123537111Y-81430720D01*
X123537128Y-81431479D01*
X123536750Y-81470437D01*
X123536746Y-81470647D01*
X123535704Y-81508205D01*
X123535703Y-81508270D01*
X123535702Y-81508313D01*
X123536034Y-81544998D01*
X123539784Y-81581394D01*
X123548994Y-81618249D01*
X123565702Y-81656306D01*
X123591950Y-81696313D01*
X123592225Y-81696624D01*
X123592227Y-81696626D01*
X123622474Y-81730771D01*
X123625395Y-81739236D01*
X123621989Y-81746802D01*
X123529802Y-81838989D01*
X123521529Y-81842416D01*
X123513771Y-81839474D01*
X123479626Y-81809227D01*
X123479624Y-81809225D01*
X123479313Y-81808950D01*
X123478969Y-81808724D01*
X123478966Y-81808722D01*
X123439710Y-81782967D01*
X123439709Y-81782967D01*
X123439306Y-81782702D01*
X123418957Y-81773768D01*
X123401703Y-81766193D01*
X123401700Y-81766192D01*
X123401249Y-81765994D01*
X123400769Y-81765874D01*
X123364791Y-81756883D01*
X123364788Y-81756883D01*
X123364394Y-81756784D01*
X123327998Y-81753034D01*
X123311611Y-81752886D01*
X123291367Y-81752702D01*
X123291313Y-81752702D01*
X123291270Y-81752703D01*
X123291205Y-81752704D01*
X123253647Y-81753746D01*
X123253488Y-81753749D01*
X123228838Y-81753989D01*
X123214479Y-81754128D01*
X123213720Y-81754111D01*
X123172653Y-81751845D01*
X123171496Y-81751723D01*
X123127474Y-81744860D01*
X123126114Y-81744565D01*
X123107914Y-81739456D01*
X123085834Y-81733257D01*
X123078796Y-81727722D01*
X123077299Y-81722222D01*
X123076011Y-81656306D01*
X123072377Y-81470437D01*
X123069005Y-81297932D01*
X123072270Y-81289593D01*
X123080932Y-81286005D01*
X123298386Y-81290256D01*
G37*
%TD.AperFunction*%
%TD*%
%TA.AperFunction,Conductor*%
%TO.N,/A7*%
G36*
X111776866Y-63223017D02*
G01*
X112506869Y-63237288D01*
X112515072Y-63240875D01*
X112517949Y-63245992D01*
X112548053Y-63359845D01*
X112548375Y-63361588D01*
X112560365Y-63473316D01*
X112560429Y-63474834D01*
X112558029Y-63578829D01*
X112557958Y-63579875D01*
X112546839Y-63678118D01*
X112546787Y-63678510D01*
X112532662Y-63772770D01*
X112521383Y-63864468D01*
X112518800Y-63955203D01*
X112530738Y-64046756D01*
X112563019Y-64140909D01*
X112563323Y-64141421D01*
X112621200Y-64238995D01*
X112621204Y-64239000D01*
X112621467Y-64239444D01*
X112621810Y-64239841D01*
X112704796Y-64335913D01*
X112707611Y-64344414D01*
X112704215Y-64351834D01*
X112611834Y-64444215D01*
X112603561Y-64447642D01*
X112595913Y-64444796D01*
X112499841Y-64361810D01*
X112499842Y-64361810D01*
X112499444Y-64361467D01*
X112499000Y-64361204D01*
X112498995Y-64361200D01*
X112431492Y-64321160D01*
X112400909Y-64303019D01*
X112344517Y-64283685D01*
X112307305Y-64270926D01*
X112307303Y-64270926D01*
X112306756Y-64270738D01*
X112275344Y-64266642D01*
X112215659Y-64258859D01*
X112215653Y-64258859D01*
X112215203Y-64258800D01*
X112214743Y-64258813D01*
X112214741Y-64258813D01*
X112183376Y-64259706D01*
X112124468Y-64261383D01*
X112092834Y-64265274D01*
X112032850Y-64272652D01*
X112032833Y-64272654D01*
X112032770Y-64272662D01*
X112032736Y-64272667D01*
X112032714Y-64272670D01*
X111989878Y-64279090D01*
X111938510Y-64286787D01*
X111938143Y-64286836D01*
X111863388Y-64295297D01*
X111839875Y-64297958D01*
X111838829Y-64298029D01*
X111734834Y-64300429D01*
X111733316Y-64300365D01*
X111642996Y-64290672D01*
X111621586Y-64288375D01*
X111619845Y-64288053D01*
X111615046Y-64286784D01*
X111505993Y-64257949D01*
X111498872Y-64252522D01*
X111497287Y-64246868D01*
X111497134Y-64238995D01*
X111482166Y-63473316D01*
X111477396Y-63229323D01*
X111480661Y-63220984D01*
X111489323Y-63217396D01*
X111776866Y-63223017D01*
G37*
%TD.AperFunction*%
%TD*%
%TA.AperFunction,Conductor*%
%TO.N,/A7*%
G36*
X115246229Y-69544526D02*
G01*
X115280373Y-69574772D01*
X115280686Y-69575049D01*
X115281030Y-69575275D01*
X115281033Y-69575277D01*
X115320289Y-69601032D01*
X115320693Y-69601297D01*
X115341042Y-69610231D01*
X115358296Y-69617806D01*
X115358299Y-69617807D01*
X115358750Y-69618005D01*
X115359229Y-69618125D01*
X115359230Y-69618125D01*
X115395208Y-69627116D01*
X115395211Y-69627116D01*
X115395605Y-69627215D01*
X115432001Y-69630965D01*
X115448388Y-69631113D01*
X115468632Y-69631297D01*
X115468686Y-69631297D01*
X115468729Y-69631296D01*
X115468794Y-69631295D01*
X115506352Y-69630253D01*
X115506511Y-69630250D01*
X115531161Y-69630010D01*
X115545520Y-69629871D01*
X115546279Y-69629888D01*
X115587346Y-69632154D01*
X115588503Y-69632276D01*
X115632533Y-69639140D01*
X115633878Y-69639432D01*
X115674167Y-69650743D01*
X115681204Y-69656277D01*
X115682701Y-69661776D01*
X115686881Y-69875632D01*
X115690995Y-70086068D01*
X115687730Y-70094407D01*
X115679068Y-70097995D01*
X115472581Y-70093959D01*
X115254777Y-70089701D01*
X115246573Y-70086113D01*
X115243743Y-70081169D01*
X115232432Y-70040878D01*
X115232140Y-70039533D01*
X115225276Y-69995503D01*
X115225154Y-69994346D01*
X115222888Y-69953279D01*
X115222871Y-69952520D01*
X115223249Y-69913562D01*
X115223253Y-69913352D01*
X115224295Y-69875794D01*
X115224296Y-69875729D01*
X115224297Y-69875686D01*
X115223965Y-69839001D01*
X115220215Y-69802605D01*
X115211005Y-69765750D01*
X115194297Y-69727693D01*
X115168049Y-69687686D01*
X115167772Y-69687373D01*
X115137526Y-69653229D01*
X115134605Y-69644764D01*
X115138011Y-69637198D01*
X115230198Y-69545011D01*
X115238471Y-69541584D01*
X115246229Y-69544526D01*
G37*
%TD.AperFunction*%
%TD*%
%TA.AperFunction,Conductor*%
%TO.N,/D4*%
G36*
X123198433Y-82514319D02*
G01*
X123492587Y-82820203D01*
X123495852Y-82828542D01*
X123494355Y-82834042D01*
X123473874Y-82870511D01*
X123473122Y-82871682D01*
X123446838Y-82907675D01*
X123446105Y-82908580D01*
X123418671Y-82939218D01*
X123418147Y-82939766D01*
X123390310Y-82967067D01*
X123390170Y-82967202D01*
X123362809Y-82993087D01*
X123362754Y-82993143D01*
X123337292Y-83019070D01*
X123337287Y-83019076D01*
X123337103Y-83019263D01*
X123314019Y-83047651D01*
X123294471Y-83080223D01*
X123279375Y-83118949D01*
X123269646Y-83165797D01*
X123269621Y-83166208D01*
X123269621Y-83166209D01*
X123266865Y-83211747D01*
X123262944Y-83219798D01*
X123255186Y-83222740D01*
X123124814Y-83222740D01*
X123116541Y-83219313D01*
X123113135Y-83211747D01*
X123110378Y-83166209D01*
X123110378Y-83166208D01*
X123110353Y-83165797D01*
X123100624Y-83118949D01*
X123085528Y-83080223D01*
X123065980Y-83047651D01*
X123042896Y-83019263D01*
X123042712Y-83019076D01*
X123042707Y-83019070D01*
X123017245Y-82993143D01*
X123017190Y-82993087D01*
X122989829Y-82967202D01*
X122989689Y-82967067D01*
X122961852Y-82939766D01*
X122961328Y-82939218D01*
X122933894Y-82908580D01*
X122933161Y-82907675D01*
X122906877Y-82871683D01*
X122906131Y-82870523D01*
X122885644Y-82834041D01*
X122884582Y-82825150D01*
X122887413Y-82820203D01*
X123181567Y-82514319D01*
X123189771Y-82510731D01*
X123198433Y-82514319D01*
G37*
%TD.AperFunction*%
%TD*%
%TA.AperFunction,Conductor*%
%TO.N,/D4*%
G36*
X126164086Y-87955202D02*
G01*
X126260555Y-88038532D01*
X126260999Y-88038795D01*
X126261004Y-88038799D01*
X126328507Y-88078839D01*
X126359090Y-88096980D01*
X126401802Y-88111624D01*
X126452694Y-88129073D01*
X126452696Y-88129073D01*
X126453243Y-88129261D01*
X126484655Y-88133357D01*
X126544340Y-88141140D01*
X126544346Y-88141140D01*
X126544796Y-88141199D01*
X126545256Y-88141186D01*
X126545258Y-88141186D01*
X126576623Y-88140293D01*
X126635531Y-88138616D01*
X126667165Y-88134725D01*
X126727149Y-88127347D01*
X126727166Y-88127345D01*
X126727229Y-88127337D01*
X126727263Y-88127332D01*
X126727285Y-88127329D01*
X126770121Y-88120909D01*
X126821489Y-88113212D01*
X126821856Y-88113163D01*
X126896611Y-88104702D01*
X126920124Y-88102041D01*
X126921170Y-88101970D01*
X127025165Y-88099570D01*
X127026683Y-88099634D01*
X127117003Y-88109327D01*
X127138413Y-88111624D01*
X127140152Y-88111946D01*
X127254007Y-88142051D01*
X127261128Y-88147478D01*
X127262712Y-88153130D01*
X127271982Y-88627285D01*
X127282604Y-89170677D01*
X127279339Y-89179016D01*
X127270677Y-89182604D01*
X126983134Y-89176983D01*
X126253131Y-89162712D01*
X126244928Y-89159125D01*
X126242050Y-89154006D01*
X126211946Y-89040154D01*
X126211624Y-89038411D01*
X126199634Y-88926683D01*
X126199570Y-88925165D01*
X126201970Y-88821170D01*
X126202041Y-88820124D01*
X126213160Y-88721881D01*
X126213215Y-88721463D01*
X126227329Y-88627285D01*
X126227332Y-88627263D01*
X126227337Y-88627229D01*
X126238616Y-88535531D01*
X126241199Y-88444796D01*
X126229261Y-88353243D01*
X126196980Y-88259090D01*
X126178839Y-88228507D01*
X126138799Y-88161004D01*
X126138795Y-88160999D01*
X126138532Y-88160555D01*
X126055202Y-88064086D01*
X126052388Y-88055587D01*
X126055784Y-88048167D01*
X126148167Y-87955784D01*
X126156440Y-87952357D01*
X126164086Y-87955202D01*
G37*
%TD.AperFunction*%
%TD*%
%TA.AperFunction,Conductor*%
%TO.N,/A12*%
G36*
X115643459Y-68164687D02*
G01*
X115646865Y-68172253D01*
X115649646Y-68218202D01*
X115659375Y-68265050D01*
X115674471Y-68303776D01*
X115694019Y-68336348D01*
X115717103Y-68364736D01*
X115717287Y-68364923D01*
X115717292Y-68364929D01*
X115742754Y-68390856D01*
X115742809Y-68390912D01*
X115742863Y-68390963D01*
X115742869Y-68390969D01*
X115770159Y-68416786D01*
X115770310Y-68416932D01*
X115798147Y-68444233D01*
X115798671Y-68444781D01*
X115826105Y-68475419D01*
X115826838Y-68476324D01*
X115853122Y-68512316D01*
X115853874Y-68513487D01*
X115874355Y-68549958D01*
X115875418Y-68558850D01*
X115872587Y-68563797D01*
X115578433Y-68869681D01*
X115570229Y-68873269D01*
X115561567Y-68869681D01*
X115267413Y-68563797D01*
X115264148Y-68555458D01*
X115265644Y-68549958D01*
X115286128Y-68513481D01*
X115286881Y-68512310D01*
X115313161Y-68476324D01*
X115313894Y-68475419D01*
X115341328Y-68444781D01*
X115341852Y-68444233D01*
X115369689Y-68416932D01*
X115369840Y-68416786D01*
X115397130Y-68390969D01*
X115397136Y-68390963D01*
X115397190Y-68390912D01*
X115397245Y-68390856D01*
X115422707Y-68364929D01*
X115422712Y-68364923D01*
X115422896Y-68364736D01*
X115445980Y-68336348D01*
X115465528Y-68303776D01*
X115480624Y-68265050D01*
X115490353Y-68218202D01*
X115493135Y-68172253D01*
X115497056Y-68164202D01*
X115504814Y-68161260D01*
X115635186Y-68161260D01*
X115643459Y-68164687D01*
G37*
%TD.AperFunction*%
%TD*%
%TA.AperFunction,Conductor*%
%TO.N,/A12*%
G36*
X111776866Y-60683017D02*
G01*
X112506869Y-60697288D01*
X112515072Y-60700875D01*
X112517949Y-60705992D01*
X112548053Y-60819845D01*
X112548375Y-60821588D01*
X112560365Y-60933316D01*
X112560429Y-60934834D01*
X112558029Y-61038829D01*
X112557958Y-61039875D01*
X112546839Y-61138118D01*
X112546787Y-61138510D01*
X112532662Y-61232770D01*
X112521383Y-61324468D01*
X112518800Y-61415203D01*
X112530738Y-61506756D01*
X112563019Y-61600909D01*
X112563323Y-61601421D01*
X112621200Y-61698995D01*
X112621204Y-61699000D01*
X112621467Y-61699444D01*
X112621810Y-61699841D01*
X112704796Y-61795913D01*
X112707611Y-61804414D01*
X112704215Y-61811834D01*
X112611834Y-61904215D01*
X112603561Y-61907642D01*
X112595913Y-61904796D01*
X112499841Y-61821810D01*
X112499842Y-61821810D01*
X112499444Y-61821467D01*
X112499000Y-61821204D01*
X112498995Y-61821200D01*
X112431492Y-61781160D01*
X112400909Y-61763019D01*
X112344517Y-61743685D01*
X112307305Y-61730926D01*
X112307303Y-61730926D01*
X112306756Y-61730738D01*
X112275344Y-61726642D01*
X112215659Y-61718859D01*
X112215653Y-61718859D01*
X112215203Y-61718800D01*
X112214743Y-61718813D01*
X112214741Y-61718813D01*
X112183376Y-61719706D01*
X112124468Y-61721383D01*
X112092834Y-61725274D01*
X112032850Y-61732652D01*
X112032833Y-61732654D01*
X112032770Y-61732662D01*
X112032736Y-61732667D01*
X112032714Y-61732670D01*
X111989878Y-61739090D01*
X111938510Y-61746787D01*
X111938143Y-61746836D01*
X111863388Y-61755297D01*
X111839875Y-61757958D01*
X111838829Y-61758029D01*
X111734834Y-61760429D01*
X111733316Y-61760365D01*
X111642996Y-61750672D01*
X111621586Y-61748375D01*
X111619845Y-61748053D01*
X111615046Y-61746784D01*
X111505993Y-61717949D01*
X111498872Y-61712522D01*
X111497287Y-61706868D01*
X111497134Y-61698995D01*
X111482166Y-60933316D01*
X111477396Y-60689323D01*
X111480661Y-60680984D01*
X111489323Y-60677396D01*
X111776866Y-60683017D01*
G37*
%TD.AperFunction*%
%TD*%
%TA.AperFunction,Conductor*%
%TO.N,/CE2*%
G36*
X126657652Y-62786119D02*
G01*
X127320762Y-63423800D01*
X127391231Y-63491567D01*
X127394819Y-63499771D01*
X127391231Y-63508433D01*
X126871565Y-64008171D01*
X126657652Y-64213881D01*
X126649313Y-64217146D01*
X126643660Y-64215561D01*
X126541869Y-64156343D01*
X126540410Y-64155339D01*
X126452922Y-64084811D01*
X126451803Y-64083782D01*
X126379963Y-64008548D01*
X126379274Y-64007758D01*
X126317681Y-63930442D01*
X126317424Y-63930108D01*
X126260801Y-63853525D01*
X126260766Y-63853477D01*
X126203901Y-63780661D01*
X126141568Y-63714675D01*
X126141199Y-63714391D01*
X126068855Y-63658737D01*
X126068852Y-63658735D01*
X126068389Y-63658379D01*
X126067868Y-63658124D01*
X126067863Y-63658121D01*
X126008958Y-63629296D01*
X125978987Y-63614629D01*
X125900772Y-63594656D01*
X125868481Y-63586410D01*
X125868479Y-63586410D01*
X125867983Y-63586283D01*
X125740846Y-63576993D01*
X125732846Y-63572972D01*
X125730000Y-63565324D01*
X125730000Y-63434676D01*
X125733427Y-63426403D01*
X125740846Y-63423007D01*
X125867983Y-63413716D01*
X125868479Y-63413589D01*
X125868481Y-63413589D01*
X125900772Y-63405343D01*
X125978987Y-63385370D01*
X126008958Y-63370703D01*
X126067863Y-63341878D01*
X126067868Y-63341875D01*
X126068389Y-63341620D01*
X126068852Y-63341264D01*
X126068855Y-63341262D01*
X126141199Y-63285608D01*
X126141200Y-63285607D01*
X126141568Y-63285324D01*
X126203901Y-63219338D01*
X126260766Y-63146522D01*
X126317429Y-63069885D01*
X126317681Y-63069557D01*
X126379274Y-62992241D01*
X126379963Y-62991451D01*
X126451803Y-62916217D01*
X126452922Y-62915188D01*
X126540410Y-62844660D01*
X126541870Y-62843656D01*
X126643659Y-62784439D01*
X126652533Y-62783241D01*
X126657652Y-62786119D01*
G37*
%TD.AperFunction*%
%TD*%
%TA.AperFunction,Conductor*%
%TO.N,/CE2*%
G36*
X123933386Y-62501478D02*
G01*
X124140222Y-62505521D01*
X124148426Y-62509109D01*
X124151258Y-62514057D01*
X124162565Y-62554336D01*
X124162860Y-62555696D01*
X124169723Y-62599718D01*
X124169845Y-62600875D01*
X124172111Y-62641942D01*
X124172128Y-62642701D01*
X124171750Y-62681659D01*
X124171746Y-62681869D01*
X124170704Y-62719427D01*
X124170703Y-62719492D01*
X124170702Y-62719535D01*
X124171034Y-62756220D01*
X124174784Y-62792616D01*
X124183994Y-62829471D01*
X124200702Y-62867528D01*
X124226950Y-62907535D01*
X124227225Y-62907846D01*
X124227227Y-62907848D01*
X124257474Y-62941993D01*
X124260395Y-62950458D01*
X124256989Y-62958024D01*
X124164802Y-63050211D01*
X124156529Y-63053638D01*
X124148771Y-63050696D01*
X124114626Y-63020449D01*
X124114624Y-63020447D01*
X124114313Y-63020172D01*
X124113969Y-63019946D01*
X124113966Y-63019944D01*
X124074710Y-62994189D01*
X124074709Y-62994189D01*
X124074306Y-62993924D01*
X124053957Y-62984990D01*
X124036703Y-62977415D01*
X124036700Y-62977414D01*
X124036249Y-62977216D01*
X124035769Y-62977096D01*
X123999791Y-62968105D01*
X123999788Y-62968105D01*
X123999394Y-62968006D01*
X123962998Y-62964256D01*
X123946611Y-62964108D01*
X123926367Y-62963924D01*
X123926313Y-62963924D01*
X123926270Y-62963925D01*
X123926205Y-62963926D01*
X123888647Y-62964968D01*
X123888488Y-62964971D01*
X123863838Y-62965211D01*
X123849479Y-62965350D01*
X123848720Y-62965333D01*
X123807653Y-62963067D01*
X123806496Y-62962945D01*
X123762474Y-62956082D01*
X123761114Y-62955787D01*
X123742914Y-62950678D01*
X123720834Y-62944479D01*
X123713796Y-62938944D01*
X123712299Y-62933444D01*
X123711011Y-62867528D01*
X123707377Y-62681659D01*
X123704005Y-62509154D01*
X123707270Y-62500815D01*
X123715932Y-62497227D01*
X123933386Y-62501478D01*
G37*
%TD.AperFunction*%
%TD*%
%TA.AperFunction,Conductor*%
%TO.N,/~{CE1}*%
G36*
X120885386Y-61732256D02*
G01*
X121092222Y-61736299D01*
X121100426Y-61739887D01*
X121103258Y-61744835D01*
X121114565Y-61785114D01*
X121114860Y-61786474D01*
X121121723Y-61830496D01*
X121121845Y-61831653D01*
X121124111Y-61872720D01*
X121124128Y-61873479D01*
X121123750Y-61912437D01*
X121123746Y-61912647D01*
X121122704Y-61950205D01*
X121122703Y-61950270D01*
X121122702Y-61950313D01*
X121123034Y-61986998D01*
X121126784Y-62023394D01*
X121135994Y-62060249D01*
X121152702Y-62098306D01*
X121178950Y-62138313D01*
X121179225Y-62138624D01*
X121179227Y-62138626D01*
X121209474Y-62172771D01*
X121212395Y-62181236D01*
X121208989Y-62188802D01*
X121116802Y-62280989D01*
X121108529Y-62284416D01*
X121100771Y-62281474D01*
X121066626Y-62251227D01*
X121066624Y-62251225D01*
X121066313Y-62250950D01*
X121065969Y-62250724D01*
X121065966Y-62250722D01*
X121026710Y-62224967D01*
X121026709Y-62224967D01*
X121026306Y-62224702D01*
X121005957Y-62215768D01*
X120988703Y-62208193D01*
X120988700Y-62208192D01*
X120988249Y-62207994D01*
X120987769Y-62207874D01*
X120951791Y-62198883D01*
X120951788Y-62198883D01*
X120951394Y-62198784D01*
X120914998Y-62195034D01*
X120898611Y-62194886D01*
X120878367Y-62194702D01*
X120878313Y-62194702D01*
X120878270Y-62194703D01*
X120878205Y-62194704D01*
X120840647Y-62195746D01*
X120840488Y-62195749D01*
X120815838Y-62195989D01*
X120801479Y-62196128D01*
X120800720Y-62196111D01*
X120759653Y-62193845D01*
X120758496Y-62193723D01*
X120714474Y-62186860D01*
X120713114Y-62186565D01*
X120694914Y-62181456D01*
X120672834Y-62175257D01*
X120665796Y-62169722D01*
X120664299Y-62164222D01*
X120663011Y-62098306D01*
X120659377Y-61912437D01*
X120656005Y-61739932D01*
X120659270Y-61731593D01*
X120667932Y-61728005D01*
X120885386Y-61732256D01*
G37*
%TD.AperFunction*%
%TD*%
%TA.AperFunction,Conductor*%
%TO.N,/~{CE1}*%
G36*
X126164086Y-77795202D02*
G01*
X126260555Y-77878532D01*
X126260999Y-77878795D01*
X126261004Y-77878799D01*
X126328507Y-77918839D01*
X126359090Y-77936980D01*
X126401802Y-77951624D01*
X126452694Y-77969073D01*
X126452696Y-77969073D01*
X126453243Y-77969261D01*
X126484655Y-77973357D01*
X126544340Y-77981140D01*
X126544346Y-77981140D01*
X126544796Y-77981199D01*
X126545256Y-77981186D01*
X126545258Y-77981186D01*
X126576623Y-77980293D01*
X126635531Y-77978616D01*
X126667165Y-77974725D01*
X126727149Y-77967347D01*
X126727166Y-77967345D01*
X126727229Y-77967337D01*
X126727263Y-77967332D01*
X126727285Y-77967329D01*
X126770121Y-77960909D01*
X126821489Y-77953212D01*
X126821856Y-77953163D01*
X126896611Y-77944702D01*
X126920124Y-77942041D01*
X126921170Y-77941970D01*
X127025165Y-77939570D01*
X127026683Y-77939634D01*
X127117003Y-77949327D01*
X127138413Y-77951624D01*
X127140152Y-77951946D01*
X127254007Y-77982051D01*
X127261128Y-77987478D01*
X127262712Y-77993130D01*
X127271982Y-78467285D01*
X127282604Y-79010677D01*
X127279339Y-79019016D01*
X127270677Y-79022604D01*
X126983134Y-79016983D01*
X126253131Y-79002712D01*
X126244928Y-78999125D01*
X126242050Y-78994006D01*
X126211946Y-78880154D01*
X126211624Y-78878411D01*
X126199634Y-78766683D01*
X126199570Y-78765165D01*
X126201970Y-78661170D01*
X126202041Y-78660124D01*
X126213160Y-78561881D01*
X126213215Y-78561463D01*
X126227329Y-78467285D01*
X126227332Y-78467263D01*
X126227337Y-78467229D01*
X126238616Y-78375531D01*
X126241199Y-78284796D01*
X126229261Y-78193243D01*
X126196980Y-78099090D01*
X126178839Y-78068507D01*
X126138799Y-78001004D01*
X126138795Y-78000999D01*
X126138532Y-78000555D01*
X126055202Y-77904086D01*
X126052388Y-77895587D01*
X126055784Y-77888167D01*
X126148167Y-77795784D01*
X126156440Y-77792357D01*
X126164086Y-77795202D01*
G37*
%TD.AperFunction*%
%TD*%
%TA.AperFunction,Conductor*%
%TO.N,/~{WE}*%
G36*
X124112833Y-63718319D02*
G01*
X124406987Y-64024203D01*
X124410252Y-64032542D01*
X124408755Y-64038042D01*
X124388274Y-64074511D01*
X124387522Y-64075682D01*
X124361238Y-64111675D01*
X124360505Y-64112580D01*
X124333071Y-64143218D01*
X124332547Y-64143766D01*
X124304710Y-64171067D01*
X124304570Y-64171202D01*
X124277209Y-64197087D01*
X124277154Y-64197143D01*
X124251692Y-64223070D01*
X124251687Y-64223076D01*
X124251503Y-64223263D01*
X124228419Y-64251651D01*
X124208871Y-64284223D01*
X124193775Y-64322949D01*
X124184046Y-64369797D01*
X124184021Y-64370208D01*
X124184021Y-64370209D01*
X124181265Y-64415747D01*
X124177344Y-64423798D01*
X124169586Y-64426740D01*
X124039214Y-64426740D01*
X124030941Y-64423313D01*
X124027535Y-64415747D01*
X124024778Y-64370209D01*
X124024778Y-64370208D01*
X124024753Y-64369797D01*
X124015024Y-64322949D01*
X123999928Y-64284223D01*
X123980380Y-64251651D01*
X123957296Y-64223263D01*
X123957112Y-64223076D01*
X123957107Y-64223070D01*
X123931645Y-64197143D01*
X123931590Y-64197087D01*
X123904229Y-64171202D01*
X123904089Y-64171067D01*
X123876252Y-64143766D01*
X123875728Y-64143218D01*
X123848294Y-64112580D01*
X123847561Y-64111675D01*
X123821277Y-64075683D01*
X123820531Y-64074523D01*
X123800044Y-64038041D01*
X123798982Y-64029150D01*
X123801813Y-64024203D01*
X124095967Y-63718319D01*
X124104171Y-63714731D01*
X124112833Y-63718319D01*
G37*
%TD.AperFunction*%
%TD*%
%TA.AperFunction,Conductor*%
%TO.N,/~{WE}*%
G36*
X124871040Y-61544644D02*
G01*
X124907523Y-61565131D01*
X124908683Y-61565877D01*
X124944675Y-61592161D01*
X124945580Y-61592894D01*
X124976218Y-61620328D01*
X124976766Y-61620852D01*
X125004067Y-61648689D01*
X125004202Y-61648829D01*
X125030087Y-61676190D01*
X125030143Y-61676245D01*
X125056070Y-61701707D01*
X125056076Y-61701712D01*
X125056263Y-61701896D01*
X125084651Y-61724980D01*
X125117223Y-61744528D01*
X125117686Y-61744708D01*
X125117689Y-61744710D01*
X125141951Y-61754167D01*
X125155949Y-61759624D01*
X125156418Y-61759721D01*
X125156420Y-61759722D01*
X125186287Y-61765924D01*
X125202797Y-61769353D01*
X125203208Y-61769378D01*
X125203209Y-61769378D01*
X125248747Y-61772135D01*
X125256798Y-61776056D01*
X125259740Y-61783814D01*
X125259740Y-61914186D01*
X125256313Y-61922459D01*
X125248747Y-61925865D01*
X125203209Y-61928621D01*
X125203208Y-61928621D01*
X125202797Y-61928646D01*
X125202392Y-61928730D01*
X125202393Y-61928730D01*
X125156420Y-61938277D01*
X125156418Y-61938278D01*
X125155949Y-61938375D01*
X125155498Y-61938551D01*
X125117689Y-61953289D01*
X125117686Y-61953291D01*
X125117223Y-61953471D01*
X125084651Y-61973019D01*
X125056263Y-61996103D01*
X125056076Y-61996287D01*
X125056070Y-61996292D01*
X125030143Y-62021754D01*
X125030087Y-62021809D01*
X125030036Y-62021863D01*
X125030030Y-62021869D01*
X125004213Y-62049159D01*
X125004067Y-62049310D01*
X124976766Y-62077147D01*
X124976218Y-62077671D01*
X124945580Y-62105105D01*
X124944675Y-62105838D01*
X124908682Y-62132122D01*
X124907511Y-62132874D01*
X124871042Y-62153355D01*
X124862151Y-62154419D01*
X124857203Y-62151587D01*
X124651187Y-61953471D01*
X124551319Y-61857433D01*
X124547731Y-61849229D01*
X124551319Y-61840567D01*
X124621789Y-61772800D01*
X124738965Y-61660116D01*
X124857203Y-61546413D01*
X124865542Y-61543148D01*
X124871040Y-61544644D01*
G37*
%TD.AperFunction*%
%TD*%
%TA.AperFunction,Conductor*%
%TO.N,/~{WE}*%
G36*
X127275725Y-60680725D02*
G01*
X127279313Y-60688929D01*
X127278935Y-60692115D01*
X127002197Y-61751587D01*
X126996791Y-61758725D01*
X126991311Y-61760322D01*
X126934844Y-61762418D01*
X126896322Y-61763847D01*
X126853884Y-61768897D01*
X126807891Y-61774369D01*
X126807884Y-61774370D01*
X126807658Y-61774397D01*
X126807438Y-61774442D01*
X126807431Y-61774443D01*
X126730582Y-61790120D01*
X126730571Y-61790123D01*
X126730388Y-61790160D01*
X126730212Y-61790209D01*
X126730201Y-61790212D01*
X126663050Y-61809042D01*
X126660895Y-61809646D01*
X126595560Y-61831367D01*
X126595543Y-61831373D01*
X126530897Y-61853786D01*
X126530630Y-61853875D01*
X126463198Y-61875454D01*
X126462590Y-61875631D01*
X126388720Y-61894934D01*
X126387898Y-61895117D01*
X126303880Y-61910718D01*
X126302986Y-61910849D01*
X126205040Y-61921306D01*
X126204185Y-61921366D01*
X126100323Y-61924800D01*
X126091941Y-61921648D01*
X126088236Y-61913106D01*
X126088236Y-61783175D01*
X126091663Y-61774902D01*
X126098536Y-61771559D01*
X126205092Y-61758725D01*
X126209642Y-61758177D01*
X126210754Y-61758043D01*
X126287350Y-61716121D01*
X126288153Y-61714763D01*
X126325472Y-61651638D01*
X126325473Y-61651635D01*
X126326111Y-61650556D01*
X126335121Y-61564869D01*
X126322464Y-61462581D01*
X126322399Y-61462295D01*
X126296243Y-61347283D01*
X126296236Y-61347255D01*
X126296227Y-61347215D01*
X126264539Y-61222469D01*
X126264458Y-61222130D01*
X126235454Y-61091799D01*
X126235285Y-61090861D01*
X126216993Y-60958668D01*
X126216883Y-60957038D01*
X126217169Y-60826607D01*
X126217424Y-60824205D01*
X126242379Y-60706548D01*
X126247447Y-60699166D01*
X126253593Y-60697278D01*
X127267386Y-60677460D01*
X127275725Y-60680725D01*
G37*
%TD.AperFunction*%
%TD*%
%TA.AperFunction,Conductor*%
%TO.N,/~{WE}*%
G36*
X123529801Y-68275010D02*
G01*
X123621989Y-68367198D01*
X123625416Y-68375471D01*
X123622474Y-68383229D01*
X123614902Y-68391777D01*
X123591950Y-68417686D01*
X123565702Y-68457693D01*
X123548994Y-68495750D01*
X123539784Y-68532605D01*
X123536034Y-68569001D01*
X123535702Y-68605686D01*
X123535703Y-68605729D01*
X123535704Y-68605794D01*
X123536746Y-68643352D01*
X123536750Y-68643562D01*
X123537128Y-68682520D01*
X123537111Y-68683279D01*
X123534845Y-68724346D01*
X123534723Y-68725503D01*
X123527860Y-68769525D01*
X123527565Y-68770885D01*
X123516258Y-68811165D01*
X123510722Y-68818204D01*
X123505223Y-68819701D01*
X123298386Y-68823744D01*
X123080932Y-68827995D01*
X123072593Y-68824730D01*
X123069005Y-68816068D01*
X123073119Y-68605632D01*
X123077299Y-68391777D01*
X123080887Y-68383573D01*
X123085832Y-68380743D01*
X123126114Y-68369434D01*
X123127462Y-68369141D01*
X123171495Y-68362276D01*
X123172653Y-68362154D01*
X123213720Y-68359888D01*
X123214479Y-68359871D01*
X123228838Y-68360010D01*
X123253488Y-68360250D01*
X123253647Y-68360253D01*
X123291205Y-68361295D01*
X123291270Y-68361296D01*
X123291313Y-68361297D01*
X123291367Y-68361297D01*
X123311611Y-68361113D01*
X123327998Y-68360965D01*
X123364394Y-68357215D01*
X123364788Y-68357116D01*
X123364791Y-68357116D01*
X123400769Y-68348125D01*
X123400770Y-68348125D01*
X123401249Y-68348005D01*
X123401700Y-68347807D01*
X123401703Y-68347806D01*
X123418957Y-68340231D01*
X123439306Y-68331297D01*
X123439710Y-68331032D01*
X123478966Y-68305277D01*
X123478969Y-68305275D01*
X123479313Y-68305049D01*
X123513772Y-68274524D01*
X123522235Y-68271604D01*
X123529801Y-68275010D01*
G37*
%TD.AperFunction*%
%TD*%
%TA.AperFunction,Conductor*%
%TO.N,VCC*%
G36*
X126533518Y-57780022D02*
G01*
X126778456Y-57960931D01*
X127387258Y-58410589D01*
X127391877Y-58418260D01*
X127389718Y-58426951D01*
X127387258Y-58429411D01*
X126533518Y-59059978D01*
X126524827Y-59062137D01*
X126519830Y-59060132D01*
X126519611Y-59059978D01*
X126484951Y-59035565D01*
X126441750Y-59008040D01*
X126396387Y-58982605D01*
X126392260Y-58980625D01*
X126348303Y-58959538D01*
X126348295Y-58959535D01*
X126348123Y-58959452D01*
X126296220Y-58938769D01*
X126296030Y-58938708D01*
X126296024Y-58938706D01*
X126272181Y-58931072D01*
X126239938Y-58920748D01*
X126195479Y-58909762D01*
X126178739Y-58905626D01*
X126178734Y-58905625D01*
X126178540Y-58905577D01*
X126178344Y-58905542D01*
X126178341Y-58905541D01*
X126111443Y-58893475D01*
X126111427Y-58893473D01*
X126111285Y-58893447D01*
X126111141Y-58893430D01*
X126111130Y-58893428D01*
X126082860Y-58890021D01*
X126037436Y-58884547D01*
X125956254Y-58879068D01*
X125956096Y-58879065D01*
X125956081Y-58879064D01*
X125909876Y-58878097D01*
X125878454Y-58877440D01*
X125870256Y-58873841D01*
X125867000Y-58865743D01*
X125867000Y-57974257D01*
X125870427Y-57965984D01*
X125878455Y-57962560D01*
X125898297Y-57962145D01*
X125956081Y-57960935D01*
X125956096Y-57960934D01*
X125956254Y-57960931D01*
X126037436Y-57955452D01*
X126082860Y-57949978D01*
X126111130Y-57946571D01*
X126111141Y-57946569D01*
X126111285Y-57946552D01*
X126111427Y-57946526D01*
X126111443Y-57946524D01*
X126178341Y-57934458D01*
X126178344Y-57934457D01*
X126178540Y-57934422D01*
X126178734Y-57934374D01*
X126178739Y-57934373D01*
X126195479Y-57930237D01*
X126239938Y-57919251D01*
X126272181Y-57908927D01*
X126296024Y-57901293D01*
X126296030Y-57901291D01*
X126296220Y-57901230D01*
X126348123Y-57880547D01*
X126348295Y-57880464D01*
X126348303Y-57880461D01*
X126396216Y-57857476D01*
X126396215Y-57857476D01*
X126396387Y-57857394D01*
X126441750Y-57831959D01*
X126451824Y-57825541D01*
X126484831Y-57804511D01*
X126484847Y-57804500D01*
X126484951Y-57804434D01*
X126519831Y-57779867D01*
X126528568Y-57777905D01*
X126533518Y-57780022D01*
G37*
%TD.AperFunction*%
%TD*%
%TA.AperFunction,Conductor*%
%TO.N,/BATT_FAKE*%
G36*
X120850459Y-89500687D02*
G01*
X120853865Y-89508253D01*
X120856646Y-89554202D01*
X120866375Y-89601050D01*
X120881471Y-89639776D01*
X120901019Y-89672348D01*
X120924103Y-89700736D01*
X120924287Y-89700923D01*
X120924292Y-89700929D01*
X120949754Y-89726856D01*
X120949809Y-89726912D01*
X120949863Y-89726963D01*
X120949869Y-89726969D01*
X120977159Y-89752786D01*
X120977310Y-89752932D01*
X121005147Y-89780233D01*
X121005667Y-89780776D01*
X121033496Y-89811856D01*
X121060531Y-89848876D01*
X121085610Y-89893534D01*
X120780285Y-90211034D01*
X120779617Y-90211729D01*
X120776761Y-90210611D01*
X120774834Y-90210649D01*
X120770667Y-90207864D01*
X120693026Y-90127127D01*
X120692951Y-90127049D01*
X120692945Y-90127043D01*
X120608966Y-90039715D01*
X120474413Y-89899797D01*
X120471148Y-89891458D01*
X120472644Y-89885958D01*
X120481533Y-89870130D01*
X120493130Y-89849478D01*
X120493881Y-89848310D01*
X120520161Y-89812324D01*
X120520894Y-89811419D01*
X120532289Y-89798694D01*
X120548332Y-89780776D01*
X120548852Y-89780233D01*
X120576689Y-89752932D01*
X120576840Y-89752786D01*
X120604130Y-89726969D01*
X120604136Y-89726963D01*
X120604190Y-89726912D01*
X120604245Y-89726856D01*
X120629707Y-89700929D01*
X120629712Y-89700923D01*
X120629896Y-89700736D01*
X120652980Y-89672348D01*
X120672528Y-89639776D01*
X120687624Y-89601050D01*
X120697353Y-89554202D01*
X120700135Y-89508253D01*
X120704056Y-89500202D01*
X120711814Y-89497260D01*
X120842186Y-89497260D01*
X120850459Y-89500687D01*
G37*
%TD.AperFunction*%
%TD*%
%TA.AperFunction,Conductor*%
%TO.N,/BATT_FAKE*%
G36*
X120785433Y-87848319D02*
G01*
X121079587Y-88154203D01*
X121082852Y-88162542D01*
X121081355Y-88168042D01*
X121060874Y-88204511D01*
X121060122Y-88205682D01*
X121033838Y-88241675D01*
X121033105Y-88242580D01*
X121005671Y-88273218D01*
X121005147Y-88273766D01*
X120977310Y-88301067D01*
X120977170Y-88301202D01*
X120949809Y-88327087D01*
X120949754Y-88327143D01*
X120924292Y-88353070D01*
X120924287Y-88353076D01*
X120924103Y-88353263D01*
X120901019Y-88381651D01*
X120881471Y-88414223D01*
X120866375Y-88452949D01*
X120856646Y-88499797D01*
X120856621Y-88500208D01*
X120856621Y-88500209D01*
X120853865Y-88545747D01*
X120849944Y-88553798D01*
X120842186Y-88556740D01*
X120711814Y-88556740D01*
X120703541Y-88553313D01*
X120700135Y-88545747D01*
X120697378Y-88500209D01*
X120697378Y-88500208D01*
X120697353Y-88499797D01*
X120687624Y-88452949D01*
X120672528Y-88414223D01*
X120652980Y-88381651D01*
X120629896Y-88353263D01*
X120629712Y-88353076D01*
X120629707Y-88353070D01*
X120604245Y-88327143D01*
X120604190Y-88327087D01*
X120576829Y-88301202D01*
X120576689Y-88301067D01*
X120548852Y-88273766D01*
X120548328Y-88273218D01*
X120520894Y-88242580D01*
X120520161Y-88241675D01*
X120493877Y-88205683D01*
X120493131Y-88204523D01*
X120472644Y-88168041D01*
X120471582Y-88159150D01*
X120474413Y-88154203D01*
X120768567Y-87848319D01*
X120776771Y-87844731D01*
X120785433Y-87848319D01*
G37*
%TD.AperFunction*%
%TD*%
%TA.AperFunction,Conductor*%
%TO.N,/BATT_FAKE*%
G36*
X120971123Y-89759468D02*
G01*
X121008143Y-89786503D01*
X121021519Y-89798480D01*
X121021758Y-89798694D01*
X121039218Y-89814328D01*
X121039766Y-89814852D01*
X121067067Y-89842689D01*
X121067202Y-89842829D01*
X121093087Y-89870190D01*
X121093143Y-89870245D01*
X121119070Y-89895707D01*
X121119076Y-89895712D01*
X121119263Y-89895896D01*
X121147651Y-89918980D01*
X121180223Y-89938528D01*
X121180686Y-89938708D01*
X121180689Y-89938710D01*
X121204951Y-89948167D01*
X121218949Y-89953624D01*
X121219418Y-89953721D01*
X121219420Y-89953722D01*
X121249287Y-89959924D01*
X121265797Y-89963353D01*
X121266208Y-89963378D01*
X121266209Y-89963378D01*
X121311747Y-89966135D01*
X121319798Y-89970056D01*
X121322740Y-89977814D01*
X121322740Y-90108186D01*
X121319313Y-90116459D01*
X121311747Y-90119865D01*
X121266209Y-90122621D01*
X121266208Y-90122621D01*
X121265797Y-90122646D01*
X121265392Y-90122730D01*
X121265393Y-90122730D01*
X121219420Y-90132277D01*
X121219418Y-90132278D01*
X121218949Y-90132375D01*
X121218498Y-90132551D01*
X121180689Y-90147289D01*
X121180686Y-90147291D01*
X121180223Y-90147471D01*
X121147651Y-90167019D01*
X121119263Y-90190103D01*
X121119076Y-90190287D01*
X121119070Y-90190292D01*
X121101177Y-90207864D01*
X121093087Y-90215809D01*
X121093036Y-90215863D01*
X121093030Y-90215869D01*
X121067213Y-90243159D01*
X121067067Y-90243310D01*
X121039766Y-90271147D01*
X121039218Y-90271671D01*
X121008580Y-90299105D01*
X121007675Y-90299838D01*
X120971682Y-90326122D01*
X120970511Y-90326874D01*
X120934042Y-90347355D01*
X120925151Y-90348419D01*
X120920203Y-90345587D01*
X120813691Y-90243159D01*
X120780285Y-90211034D01*
X120688346Y-90122621D01*
X120612136Y-90049333D01*
X120609877Y-90044168D01*
X120609769Y-90044210D01*
X120608688Y-90041450D01*
X120608548Y-90041129D01*
X120608553Y-90041104D01*
X120608271Y-90040383D01*
X120926466Y-89734390D01*
X120971123Y-89759468D01*
G37*
%TD.AperFunction*%
%TD*%
%TA.AperFunction,Conductor*%
%TO.N,/BATT_FAKE*%
G36*
X122426809Y-89331299D02*
G01*
X122469792Y-89372634D01*
X122914102Y-89799905D01*
X122973231Y-89856767D01*
X122976819Y-89864971D01*
X122973231Y-89873633D01*
X122750499Y-90087824D01*
X122426809Y-90399101D01*
X122418470Y-90402366D01*
X122412848Y-90400800D01*
X122339968Y-90358714D01*
X122338569Y-90357765D01*
X122273932Y-90306729D01*
X122272861Y-90305769D01*
X122219338Y-90251549D01*
X122218674Y-90250818D01*
X122172342Y-90195191D01*
X122172105Y-90194897D01*
X122129230Y-90139908D01*
X122129179Y-90139842D01*
X122085987Y-90087603D01*
X122085793Y-90087409D01*
X122085785Y-90087400D01*
X122039085Y-90040663D01*
X122038765Y-90040343D01*
X122038403Y-90040079D01*
X122038400Y-90040076D01*
X121984093Y-90000412D01*
X121984089Y-90000410D01*
X121983635Y-90000078D01*
X121916717Y-89968822D01*
X121896762Y-89963934D01*
X121834611Y-89948708D01*
X121834604Y-89948707D01*
X121834131Y-89948591D01*
X121833641Y-89948557D01*
X121833638Y-89948556D01*
X121763495Y-89943618D01*
X121742878Y-89942166D01*
X121734866Y-89938167D01*
X121732000Y-89930495D01*
X121732000Y-89799905D01*
X121735427Y-89791632D01*
X121742878Y-89788234D01*
X121833638Y-89781843D01*
X121833641Y-89781842D01*
X121834131Y-89781808D01*
X121834604Y-89781692D01*
X121834611Y-89781691D01*
X121896762Y-89766465D01*
X121916717Y-89761577D01*
X121983635Y-89730321D01*
X121984089Y-89729989D01*
X121984093Y-89729987D01*
X122038400Y-89690323D01*
X122038403Y-89690320D01*
X122038765Y-89690056D01*
X122039085Y-89689736D01*
X122085785Y-89642999D01*
X122085793Y-89642990D01*
X122085987Y-89642796D01*
X122129179Y-89590557D01*
X122172105Y-89535502D01*
X122172342Y-89535208D01*
X122218674Y-89479581D01*
X122219338Y-89478850D01*
X122272861Y-89424630D01*
X122273932Y-89423670D01*
X122338570Y-89372634D01*
X122339968Y-89371685D01*
X122412848Y-89329600D01*
X122421726Y-89328430D01*
X122426809Y-89331299D01*
G37*
%TD.AperFunction*%
%TD*%
%TA.AperFunction,Conductor*%
%TO.N,/~{CE_STK}*%
G36*
X122866229Y-77164526D02*
G01*
X122900373Y-77194772D01*
X122900686Y-77195049D01*
X122901030Y-77195275D01*
X122901033Y-77195277D01*
X122940289Y-77221032D01*
X122940693Y-77221297D01*
X122961042Y-77230231D01*
X122978296Y-77237806D01*
X122978299Y-77237807D01*
X122978750Y-77238005D01*
X122979229Y-77238125D01*
X122979230Y-77238125D01*
X123015208Y-77247116D01*
X123015211Y-77247116D01*
X123015605Y-77247215D01*
X123052001Y-77250965D01*
X123068388Y-77251113D01*
X123088632Y-77251297D01*
X123088686Y-77251297D01*
X123088729Y-77251296D01*
X123088794Y-77251295D01*
X123126352Y-77250253D01*
X123126511Y-77250250D01*
X123151161Y-77250010D01*
X123165520Y-77249871D01*
X123166279Y-77249888D01*
X123207346Y-77252154D01*
X123208503Y-77252276D01*
X123252533Y-77259140D01*
X123253878Y-77259432D01*
X123294167Y-77270743D01*
X123301204Y-77276277D01*
X123302701Y-77281776D01*
X123306881Y-77495632D01*
X123310995Y-77706068D01*
X123307730Y-77714407D01*
X123299068Y-77717995D01*
X123092581Y-77713959D01*
X122874777Y-77709701D01*
X122866573Y-77706113D01*
X122863743Y-77701169D01*
X122852432Y-77660878D01*
X122852140Y-77659533D01*
X122845276Y-77615503D01*
X122845154Y-77614346D01*
X122842888Y-77573279D01*
X122842871Y-77572520D01*
X122843249Y-77533562D01*
X122843253Y-77533352D01*
X122844295Y-77495794D01*
X122844296Y-77495729D01*
X122844297Y-77495686D01*
X122843965Y-77459001D01*
X122840215Y-77422605D01*
X122831005Y-77385750D01*
X122814297Y-77347693D01*
X122788049Y-77307686D01*
X122787772Y-77307373D01*
X122757526Y-77273229D01*
X122754605Y-77264764D01*
X122758011Y-77257198D01*
X122850198Y-77165011D01*
X122858471Y-77161584D01*
X122866229Y-77164526D01*
G37*
%TD.AperFunction*%
%TD*%
%TA.AperFunction,Conductor*%
%TO.N,/~{CE_STK}*%
G36*
X120885386Y-62621256D02*
G01*
X121092222Y-62625299D01*
X121100426Y-62628887D01*
X121103258Y-62633835D01*
X121114565Y-62674114D01*
X121114860Y-62675474D01*
X121121723Y-62719496D01*
X121121845Y-62720653D01*
X121124111Y-62761720D01*
X121124128Y-62762479D01*
X121123750Y-62801437D01*
X121123746Y-62801647D01*
X121122704Y-62839205D01*
X121122703Y-62839270D01*
X121122702Y-62839313D01*
X121123034Y-62875998D01*
X121126784Y-62912394D01*
X121135994Y-62949249D01*
X121152702Y-62987306D01*
X121178950Y-63027313D01*
X121179225Y-63027624D01*
X121179227Y-63027626D01*
X121209474Y-63061771D01*
X121212395Y-63070236D01*
X121208989Y-63077802D01*
X121116802Y-63169989D01*
X121108529Y-63173416D01*
X121100771Y-63170474D01*
X121066626Y-63140227D01*
X121066624Y-63140225D01*
X121066313Y-63139950D01*
X121065969Y-63139724D01*
X121065966Y-63139722D01*
X121026710Y-63113967D01*
X121026709Y-63113967D01*
X121026306Y-63113702D01*
X121005957Y-63104768D01*
X120988703Y-63097193D01*
X120988700Y-63097192D01*
X120988249Y-63096994D01*
X120987769Y-63096874D01*
X120951791Y-63087883D01*
X120951788Y-63087883D01*
X120951394Y-63087784D01*
X120914998Y-63084034D01*
X120898611Y-63083886D01*
X120878367Y-63083702D01*
X120878313Y-63083702D01*
X120878270Y-63083703D01*
X120878205Y-63083704D01*
X120840647Y-63084746D01*
X120840488Y-63084749D01*
X120815838Y-63084989D01*
X120801479Y-63085128D01*
X120800720Y-63085111D01*
X120759653Y-63082845D01*
X120758496Y-63082723D01*
X120714474Y-63075860D01*
X120713114Y-63075565D01*
X120694914Y-63070456D01*
X120672834Y-63064257D01*
X120665796Y-63058722D01*
X120664299Y-63053222D01*
X120663011Y-62987306D01*
X120659377Y-62801437D01*
X120656005Y-62628932D01*
X120659270Y-62620593D01*
X120667932Y-62617005D01*
X120885386Y-62621256D01*
G37*
%TD.AperFunction*%
%TD*%
%TA.AperFunction,Conductor*%
%TO.N,VCC*%
G36*
X125252284Y-57531643D02*
G01*
X125395361Y-57550480D01*
X125414323Y-57555561D01*
X125543055Y-57608883D01*
X125560055Y-57618699D01*
X125670600Y-57703523D01*
X125684479Y-57717402D01*
X125769301Y-57827944D01*
X125779117Y-57844945D01*
X125832439Y-57973677D01*
X125837520Y-57992639D01*
X125856357Y-58135716D01*
X125857000Y-58145532D01*
X125857000Y-61468500D01*
X125839407Y-61516838D01*
X125794858Y-61542558D01*
X125781800Y-61543700D01*
X125292544Y-61543700D01*
X125273442Y-61541233D01*
X125266471Y-61539402D01*
X125266467Y-61539401D01*
X125262894Y-61538463D01*
X125256137Y-61538054D01*
X125249466Y-61537650D01*
X125201316Y-61516237D01*
X125198169Y-61513146D01*
X125196237Y-61511177D01*
X125174380Y-61488074D01*
X125174259Y-61487946D01*
X125174191Y-61487875D01*
X125174144Y-61487826D01*
X125171344Y-61484919D01*
X125144063Y-61457100D01*
X125144060Y-61457097D01*
X125143908Y-61456942D01*
X125138553Y-61451655D01*
X125138005Y-61451131D01*
X125137827Y-61450967D01*
X125137781Y-61450923D01*
X125132699Y-61446221D01*
X125132682Y-61446206D01*
X125132381Y-61445927D01*
X125101743Y-61418493D01*
X125101397Y-61418198D01*
X125093250Y-61411257D01*
X125093230Y-61411241D01*
X125092922Y-61410978D01*
X125092017Y-61410245D01*
X125091696Y-61409998D01*
X125091663Y-61409972D01*
X125083119Y-61403400D01*
X125082737Y-61403106D01*
X125046745Y-61376822D01*
X125040269Y-61372380D01*
X125035766Y-61369292D01*
X125035747Y-61369279D01*
X125035309Y-61368979D01*
X125034149Y-61368233D01*
X125022146Y-61361012D01*
X125005397Y-61351607D01*
X125002468Y-61349359D01*
X124998376Y-61347664D01*
X124995516Y-61346058D01*
X124987690Y-61341663D01*
X124987687Y-61341661D01*
X124985663Y-61340525D01*
X124964784Y-61331975D01*
X124934649Y-61319635D01*
X124934644Y-61319633D01*
X124932504Y-61318757D01*
X124927006Y-61317261D01*
X124927052Y-61317090D01*
X124917052Y-61313978D01*
X124867873Y-61293608D01*
X124867872Y-61293608D01*
X124863322Y-61291723D01*
X124858444Y-61291081D01*
X124858441Y-61291080D01*
X124718884Y-61272707D01*
X124714000Y-61272064D01*
X124709116Y-61272707D01*
X124569559Y-61291080D01*
X124569556Y-61291081D01*
X124564678Y-61291723D01*
X124560131Y-61293607D01*
X124560129Y-61293607D01*
X124504262Y-61316748D01*
X124425532Y-61349359D01*
X124306045Y-61441045D01*
X124303047Y-61444952D01*
X124284978Y-61468500D01*
X124214359Y-61560532D01*
X124212475Y-61565081D01*
X124164226Y-61681565D01*
X124156723Y-61699678D01*
X124156081Y-61704556D01*
X124156080Y-61704559D01*
X124144181Y-61794943D01*
X124137064Y-61849000D01*
X124156723Y-61998322D01*
X124158609Y-62002876D01*
X124159651Y-62006764D01*
X124155167Y-62058008D01*
X124118794Y-62094381D01*
X124067550Y-62098865D01*
X124058235Y-62095703D01*
X124055044Y-62094381D01*
X123974322Y-62060945D01*
X123969444Y-62060303D01*
X123969441Y-62060302D01*
X123829884Y-62041929D01*
X123825000Y-62041286D01*
X123820116Y-62041929D01*
X123680559Y-62060302D01*
X123680556Y-62060303D01*
X123675678Y-62060945D01*
X123671131Y-62062829D01*
X123671129Y-62062829D01*
X123637311Y-62076837D01*
X123536532Y-62118581D01*
X123417045Y-62210267D01*
X123414047Y-62214174D01*
X123388960Y-62246868D01*
X123325359Y-62329754D01*
X123310542Y-62365526D01*
X123275226Y-62450787D01*
X123267723Y-62468900D01*
X123267081Y-62473778D01*
X123267080Y-62473781D01*
X123252109Y-62587494D01*
X123248064Y-62618222D01*
X123248707Y-62623106D01*
X123266012Y-62754546D01*
X123267723Y-62767544D01*
X123269607Y-62772091D01*
X123269607Y-62772093D01*
X123277003Y-62789949D01*
X123325359Y-62906690D01*
X123417045Y-63026177D01*
X123536532Y-63117863D01*
X123556527Y-63126145D01*
X123634925Y-63158619D01*
X123640206Y-63161050D01*
X123654130Y-63168123D01*
X123657560Y-63169866D01*
X123661109Y-63170862D01*
X123661113Y-63170864D01*
X123670172Y-63173407D01*
X123670173Y-63173407D01*
X123671583Y-63173803D01*
X123675678Y-63175499D01*
X123679010Y-63175938D01*
X123679300Y-63176141D01*
X123679345Y-63175982D01*
X123697840Y-63181174D01*
X123698370Y-63181306D01*
X123698386Y-63181310D01*
X123710976Y-63184440D01*
X123711008Y-63184447D01*
X123711489Y-63184567D01*
X123712849Y-63184862D01*
X123713402Y-63184965D01*
X123713412Y-63184967D01*
X123717197Y-63185672D01*
X123726414Y-63187388D01*
X123755638Y-63191944D01*
X123769915Y-63194170D01*
X123769932Y-63194172D01*
X123770436Y-63194251D01*
X123781947Y-63195754D01*
X123782384Y-63195800D01*
X123782417Y-63195804D01*
X123782581Y-63195821D01*
X123782593Y-63195822D01*
X123783104Y-63195876D01*
X123783587Y-63195915D01*
X123783611Y-63195917D01*
X123789656Y-63196402D01*
X123794755Y-63196811D01*
X123828410Y-63198668D01*
X123835531Y-63199061D01*
X123835537Y-63199061D01*
X123835822Y-63199077D01*
X123843478Y-63199374D01*
X123843785Y-63199381D01*
X123843795Y-63199381D01*
X123844237Y-63199391D01*
X123844613Y-63199393D01*
X123844653Y-63199394D01*
X123851380Y-63199437D01*
X123851422Y-63199437D01*
X123851753Y-63199439D01*
X123876940Y-63199194D01*
X123925445Y-63216316D01*
X123951597Y-63260612D01*
X123943158Y-63311355D01*
X123906448Y-63343866D01*
X123815932Y-63381359D01*
X123696445Y-63473045D01*
X123604759Y-63592532D01*
X123599097Y-63606202D01*
X123554776Y-63713203D01*
X123547123Y-63731678D01*
X123546481Y-63736556D01*
X123546480Y-63736559D01*
X123535726Y-63818247D01*
X123527464Y-63881000D01*
X123528107Y-63885884D01*
X123542017Y-63991536D01*
X123530883Y-64041757D01*
X123490073Y-64073071D01*
X123438683Y-64070828D01*
X123414286Y-64054526D01*
X121401971Y-62042211D01*
X121390209Y-62026962D01*
X121386572Y-62020734D01*
X121386570Y-62020732D01*
X121384708Y-62017543D01*
X121375791Y-62007477D01*
X121356884Y-61958308D01*
X121356854Y-61955075D01*
X121356843Y-61953848D01*
X121356869Y-61951101D01*
X121357760Y-61918911D01*
X121357761Y-61918844D01*
X121357839Y-61914708D01*
X121357842Y-61914447D01*
X121358213Y-61876122D01*
X121358217Y-61875750D01*
X121358169Y-61868237D01*
X121358152Y-61867478D01*
X121357855Y-61859822D01*
X121355589Y-61818755D01*
X121354654Y-61807104D01*
X121354532Y-61805947D01*
X121353029Y-61794436D01*
X121346166Y-61750414D01*
X121343640Y-61736849D01*
X121343345Y-61735489D01*
X121343225Y-61735008D01*
X121343218Y-61734976D01*
X121340090Y-61722396D01*
X121339953Y-61721844D01*
X121334760Y-61703343D01*
X121334277Y-61699678D01*
X121332582Y-61695585D01*
X121328646Y-61681565D01*
X121306433Y-61628547D01*
X121303601Y-61623599D01*
X121303758Y-61623509D01*
X121298893Y-61614253D01*
X121278527Y-61565083D01*
X121278524Y-61565077D01*
X121276641Y-61560532D01*
X121206022Y-61468500D01*
X121187953Y-61444952D01*
X121184955Y-61441045D01*
X121065468Y-61349359D01*
X120986738Y-61316748D01*
X120930871Y-61293607D01*
X120930869Y-61293607D01*
X120926322Y-61291723D01*
X120921444Y-61291081D01*
X120921441Y-61291080D01*
X120781884Y-61272707D01*
X120777000Y-61272064D01*
X120772116Y-61272707D01*
X120632559Y-61291080D01*
X120632556Y-61291081D01*
X120627678Y-61291723D01*
X120623131Y-61293607D01*
X120623129Y-61293607D01*
X120567262Y-61316748D01*
X120488532Y-61349359D01*
X120369045Y-61441045D01*
X120366047Y-61444952D01*
X120347978Y-61468500D01*
X120277359Y-61560532D01*
X120275475Y-61565081D01*
X120227226Y-61681565D01*
X120219723Y-61699678D01*
X120219081Y-61704556D01*
X120219080Y-61704559D01*
X120207181Y-61794943D01*
X120200064Y-61849000D01*
X120200707Y-61853884D01*
X120219080Y-61993436D01*
X120219723Y-61998322D01*
X120221607Y-62002869D01*
X120221607Y-62002871D01*
X120237902Y-62042211D01*
X120277359Y-62137468D01*
X120280357Y-62141375D01*
X120361959Y-62247721D01*
X120377427Y-62296780D01*
X120361959Y-62339279D01*
X120295958Y-62425293D01*
X120277359Y-62449532D01*
X120254716Y-62504198D01*
X120222465Y-62582059D01*
X120219723Y-62588678D01*
X120219081Y-62593556D01*
X120219080Y-62593559D01*
X120206638Y-62688066D01*
X120200064Y-62738000D01*
X120200707Y-62742884D01*
X120216227Y-62860765D01*
X120219723Y-62887322D01*
X120221607Y-62891869D01*
X120221607Y-62891871D01*
X120227745Y-62906690D01*
X120277359Y-63026468D01*
X120369045Y-63145955D01*
X120488532Y-63237641D01*
X120521242Y-63251190D01*
X120586925Y-63278397D01*
X120592206Y-63280828D01*
X120606130Y-63287901D01*
X120609560Y-63289644D01*
X120613109Y-63290640D01*
X120613113Y-63290642D01*
X120622172Y-63293185D01*
X120622173Y-63293185D01*
X120623583Y-63293581D01*
X120627678Y-63295277D01*
X120631010Y-63295716D01*
X120631300Y-63295919D01*
X120631345Y-63295760D01*
X120649840Y-63300952D01*
X120650370Y-63301084D01*
X120650386Y-63301088D01*
X120662976Y-63304218D01*
X120663008Y-63304225D01*
X120663489Y-63304345D01*
X120664849Y-63304640D01*
X120665402Y-63304743D01*
X120665412Y-63304745D01*
X120669197Y-63305450D01*
X120678414Y-63307166D01*
X120705284Y-63311355D01*
X120721915Y-63313948D01*
X120721932Y-63313950D01*
X120722436Y-63314029D01*
X120733947Y-63315532D01*
X120734384Y-63315578D01*
X120734417Y-63315582D01*
X120734581Y-63315599D01*
X120734593Y-63315600D01*
X120735104Y-63315654D01*
X120735587Y-63315693D01*
X120735611Y-63315695D01*
X120741656Y-63316180D01*
X120746755Y-63316589D01*
X120780410Y-63318446D01*
X120787531Y-63318839D01*
X120787537Y-63318839D01*
X120787822Y-63318855D01*
X120795478Y-63319152D01*
X120795785Y-63319159D01*
X120795795Y-63319159D01*
X120796237Y-63319169D01*
X120796613Y-63319171D01*
X120796653Y-63319172D01*
X120803380Y-63319215D01*
X120803422Y-63319215D01*
X120803753Y-63319217D01*
X120842762Y-63318838D01*
X120844432Y-63318807D01*
X120846785Y-63318763D01*
X120846853Y-63318761D01*
X120846972Y-63318759D01*
X120879017Y-63317871D01*
X120881737Y-63317845D01*
X120886296Y-63317886D01*
X120935482Y-63336795D01*
X120942989Y-63343446D01*
X120942992Y-63343448D01*
X120945543Y-63345708D01*
X120956458Y-63352306D01*
X120970725Y-63363484D01*
X122989674Y-65382433D01*
X123011414Y-65429053D01*
X123011700Y-65435607D01*
X123011700Y-66771393D01*
X122994107Y-66819731D01*
X122989674Y-66824567D01*
X122510657Y-67303583D01*
X122048622Y-67765618D01*
X122038579Y-67774046D01*
X122027142Y-67782053D01*
X122027140Y-67782055D01*
X122021754Y-67785826D01*
X122017981Y-67791214D01*
X122017980Y-67791215D01*
X122007104Y-67806746D01*
X122002226Y-67810161D01*
X122003596Y-67811286D01*
X121956537Y-67868624D01*
X121906957Y-67961373D01*
X121905886Y-67964903D01*
X121877702Y-68057798D01*
X121876423Y-68062012D01*
X121874541Y-68081117D01*
X121873905Y-68087569D01*
X121872135Y-68097974D01*
X121871293Y-68101433D01*
X121869327Y-68106362D01*
X121868700Y-68112757D01*
X121868700Y-68133389D01*
X121867557Y-68146452D01*
X121863990Y-68166674D01*
X121865132Y-68173152D01*
X121865132Y-68173154D01*
X121867558Y-68186915D01*
X121868700Y-68199970D01*
X121868700Y-76453030D01*
X121867558Y-76466085D01*
X121863990Y-76486326D01*
X121868407Y-76511366D01*
X121867373Y-76517233D01*
X121869139Y-76517059D01*
X121876423Y-76590987D01*
X121906956Y-76691625D01*
X121956535Y-76784374D01*
X121958879Y-76787230D01*
X121972789Y-76804178D01*
X121978896Y-76812787D01*
X121980768Y-76815862D01*
X121982861Y-76820734D01*
X121986940Y-76825699D01*
X122001540Y-76840299D01*
X122009959Y-76850331D01*
X122021752Y-76867172D01*
X122027144Y-76870947D01*
X122038578Y-76878953D01*
X122048621Y-76887380D01*
X122565025Y-77403784D01*
X122576787Y-77419033D01*
X122580429Y-77425270D01*
X122580432Y-77425275D01*
X122582291Y-77428457D01*
X122584736Y-77431217D01*
X122591210Y-77438526D01*
X122610115Y-77487693D01*
X122610156Y-77492151D01*
X122610130Y-77494873D01*
X122609239Y-77527087D01*
X122609160Y-77531291D01*
X122608782Y-77570249D01*
X122608830Y-77577762D01*
X122608847Y-77578521D01*
X122609144Y-77586177D01*
X122611410Y-77627244D01*
X122612345Y-77638895D01*
X122612467Y-77640052D01*
X122613970Y-77651562D01*
X122620834Y-77695592D01*
X122620932Y-77696116D01*
X122623235Y-77708478D01*
X122623369Y-77709199D01*
X122623661Y-77710544D01*
X122623791Y-77711067D01*
X122623792Y-77711071D01*
X122626435Y-77721697D01*
X122627045Y-77724151D01*
X122632241Y-77742659D01*
X122632723Y-77746322D01*
X122634418Y-77750413D01*
X122638356Y-77764442D01*
X122660573Y-77817466D01*
X122661723Y-77819476D01*
X122661724Y-77819477D01*
X122663403Y-77822410D01*
X122663248Y-77822499D01*
X122668109Y-77831753D01*
X122690359Y-77885468D01*
X122782045Y-78004955D01*
X122901532Y-78096641D01*
X122971105Y-78125459D01*
X123036129Y-78152393D01*
X123036131Y-78152393D01*
X123040678Y-78154277D01*
X123045556Y-78154919D01*
X123045559Y-78154920D01*
X123185116Y-78173293D01*
X123190000Y-78173936D01*
X123194884Y-78173293D01*
X123334441Y-78154920D01*
X123334444Y-78154919D01*
X123339322Y-78154277D01*
X123343869Y-78152393D01*
X123343871Y-78152393D01*
X123408895Y-78125459D01*
X123478468Y-78096641D01*
X123597955Y-78004955D01*
X123689641Y-77885468D01*
X123738890Y-77766571D01*
X123745393Y-77750871D01*
X123745393Y-77750869D01*
X123747277Y-77746322D01*
X123750554Y-77721437D01*
X123766293Y-77601884D01*
X123766936Y-77597000D01*
X123763365Y-77569877D01*
X123747920Y-77452559D01*
X123747919Y-77452556D01*
X123747277Y-77447678D01*
X123739316Y-77428457D01*
X123691525Y-77313081D01*
X123689641Y-77308532D01*
X123597955Y-77189045D01*
X123478468Y-77097359D01*
X123446035Y-77083925D01*
X123380082Y-77056606D01*
X123374801Y-77054175D01*
X123360736Y-77047030D01*
X123357443Y-77045357D01*
X123353890Y-77044360D01*
X123353889Y-77044359D01*
X123349267Y-77043061D01*
X123343417Y-77041419D01*
X123339322Y-77039723D01*
X123335987Y-77039284D01*
X123335700Y-77039083D01*
X123335656Y-77039240D01*
X123317693Y-77034197D01*
X123317674Y-77034192D01*
X123317154Y-77034046D01*
X123303544Y-77030661D01*
X123302990Y-77030541D01*
X123302753Y-77030489D01*
X123302735Y-77030485D01*
X123302199Y-77030369D01*
X123301670Y-77030271D01*
X123301648Y-77030266D01*
X123295642Y-77029147D01*
X123288592Y-77027834D01*
X123244562Y-77020970D01*
X123233052Y-77019467D01*
X123232565Y-77019416D01*
X123232551Y-77019414D01*
X123232418Y-77019400D01*
X123232406Y-77019399D01*
X123231895Y-77019345D01*
X123231412Y-77019306D01*
X123231388Y-77019304D01*
X123225343Y-77018819D01*
X123220244Y-77018410D01*
X123181044Y-77016247D01*
X123179468Y-77016160D01*
X123179462Y-77016160D01*
X123179177Y-77016144D01*
X123171521Y-77015847D01*
X123171214Y-77015840D01*
X123171204Y-77015840D01*
X123170762Y-77015830D01*
X123170386Y-77015828D01*
X123170346Y-77015827D01*
X123163619Y-77015784D01*
X123163577Y-77015784D01*
X123163246Y-77015782D01*
X123124237Y-77016161D01*
X123122567Y-77016192D01*
X123120214Y-77016236D01*
X123120146Y-77016238D01*
X123120027Y-77016240D01*
X123087982Y-77017128D01*
X123085262Y-77017154D01*
X123080705Y-77017113D01*
X123031521Y-76998206D01*
X123024006Y-76991549D01*
X123021457Y-76989291D01*
X123012195Y-76983692D01*
X123010546Y-76982695D01*
X122996273Y-76971513D01*
X122501326Y-76476566D01*
X122479586Y-76429946D01*
X122479300Y-76423392D01*
X122479300Y-74832607D01*
X122496893Y-74784269D01*
X122541442Y-74758549D01*
X122592100Y-74767482D01*
X122607674Y-74779433D01*
X125834974Y-78006734D01*
X125856714Y-78053354D01*
X125857000Y-78059908D01*
X125857000Y-82063693D01*
X125839407Y-82112031D01*
X125794858Y-82137751D01*
X125744200Y-82128818D01*
X125728626Y-82116867D01*
X125045882Y-81434122D01*
X123872932Y-80261172D01*
X123861639Y-80246715D01*
X123857105Y-80239165D01*
X123857103Y-80239162D01*
X123855202Y-80235997D01*
X123831662Y-80210071D01*
X123826430Y-80203627D01*
X123816016Y-80189246D01*
X123811109Y-80181521D01*
X123806517Y-80173214D01*
X123802665Y-80165146D01*
X123799358Y-80157009D01*
X123796944Y-80150130D01*
X123792463Y-80135055D01*
X123791342Y-80130837D01*
X123784888Y-80103376D01*
X123784721Y-80102653D01*
X123776500Y-80066056D01*
X123776471Y-80065930D01*
X123775509Y-80061827D01*
X123775420Y-80061464D01*
X123775404Y-80061397D01*
X123774294Y-80057033D01*
X123764017Y-80018203D01*
X123761508Y-80009419D01*
X123761245Y-80008562D01*
X123758500Y-80000184D01*
X123744396Y-79959724D01*
X123740284Y-79948811D01*
X123739842Y-79947721D01*
X123735082Y-79936790D01*
X123714996Y-79893698D01*
X123709281Y-79882263D01*
X123708683Y-79881144D01*
X123702438Y-79870180D01*
X123690328Y-79850192D01*
X123689641Y-79848532D01*
X123688130Y-79846563D01*
X123678335Y-79830395D01*
X123643479Y-79785995D01*
X123639514Y-79782038D01*
X123639687Y-79781864D01*
X123632745Y-79774384D01*
X123597955Y-79729045D01*
X123478468Y-79637359D01*
X123408895Y-79608541D01*
X123343871Y-79581607D01*
X123343869Y-79581607D01*
X123339322Y-79579723D01*
X123334444Y-79579081D01*
X123334441Y-79579080D01*
X123194884Y-79560707D01*
X123190000Y-79560064D01*
X123185116Y-79560707D01*
X123045559Y-79579080D01*
X123045556Y-79579081D01*
X123040678Y-79579723D01*
X123036131Y-79581607D01*
X123036129Y-79581607D01*
X122971105Y-79608541D01*
X122901532Y-79637359D01*
X122782045Y-79729045D01*
X122690359Y-79848532D01*
X122632723Y-79987678D01*
X122632081Y-79992556D01*
X122632080Y-79992559D01*
X122622961Y-80061827D01*
X122613064Y-80137000D01*
X122613707Y-80141884D01*
X122627509Y-80246715D01*
X122632723Y-80286322D01*
X122690359Y-80425468D01*
X122782045Y-80544955D01*
X122901532Y-80636641D01*
X122971105Y-80665459D01*
X123036129Y-80692393D01*
X123036131Y-80692393D01*
X123040678Y-80694277D01*
X123045556Y-80694919D01*
X123045559Y-80694920D01*
X123064726Y-80697443D01*
X123110353Y-80721196D01*
X123130038Y-80768720D01*
X123114570Y-80817779D01*
X123071186Y-80845417D01*
X123064726Y-80846557D01*
X123045559Y-80849080D01*
X123045556Y-80849081D01*
X123040678Y-80849723D01*
X123036131Y-80851607D01*
X123036129Y-80851607D01*
X123012026Y-80861591D01*
X122901532Y-80907359D01*
X122782045Y-80999045D01*
X122690359Y-81118532D01*
X122688475Y-81123081D01*
X122640226Y-81239565D01*
X122632723Y-81257678D01*
X122632081Y-81262556D01*
X122632080Y-81262559D01*
X122620181Y-81352943D01*
X122613064Y-81407000D01*
X122613707Y-81411884D01*
X122631743Y-81548875D01*
X122632723Y-81556322D01*
X122634607Y-81560869D01*
X122634607Y-81560871D01*
X122641221Y-81576839D01*
X122690359Y-81695468D01*
X122782045Y-81814955D01*
X122785952Y-81817953D01*
X122840139Y-81859532D01*
X122901532Y-81906641D01*
X122922799Y-81915450D01*
X122999925Y-81947397D01*
X123005206Y-81949828D01*
X123019130Y-81956901D01*
X123022560Y-81958644D01*
X123026109Y-81959640D01*
X123026113Y-81959642D01*
X123035172Y-81962185D01*
X123035173Y-81962185D01*
X123036583Y-81962581D01*
X123040678Y-81964277D01*
X123044010Y-81964716D01*
X123044300Y-81964919D01*
X123044345Y-81964760D01*
X123062840Y-81969952D01*
X123063376Y-81970085D01*
X123063409Y-81970094D01*
X123063913Y-81970219D01*
X123063933Y-81970233D01*
X123063946Y-81970236D01*
X123063945Y-81970240D01*
X123106584Y-81998946D01*
X123120806Y-82048380D01*
X123099925Y-82095392D01*
X123055602Y-82117757D01*
X123045566Y-82119079D01*
X123045563Y-82119080D01*
X123040678Y-82119723D01*
X123036131Y-82121607D01*
X123036129Y-82121607D01*
X122997154Y-82137751D01*
X122901532Y-82177359D01*
X122782045Y-82269045D01*
X122690359Y-82388532D01*
X122632723Y-82527678D01*
X122632081Y-82532556D01*
X122632080Y-82532559D01*
X122614172Y-82668587D01*
X122613064Y-82677000D01*
X122613707Y-82681884D01*
X122631282Y-82815375D01*
X122632723Y-82826322D01*
X122634607Y-82830870D01*
X122634608Y-82830874D01*
X122673476Y-82924711D01*
X122675492Y-82930164D01*
X122681527Y-82948666D01*
X122688663Y-82961373D01*
X122690359Y-82965468D01*
X122692406Y-82968137D01*
X122692467Y-82968481D01*
X122692609Y-82968401D01*
X122702014Y-82985148D01*
X122702283Y-82985596D01*
X122702298Y-82985621D01*
X122707527Y-82994314D01*
X122709233Y-82997149D01*
X122709979Y-82998309D01*
X122717822Y-83009745D01*
X122744106Y-83045737D01*
X122744400Y-83046119D01*
X122750972Y-83054663D01*
X122750981Y-83054674D01*
X122751245Y-83055017D01*
X122751978Y-83055922D01*
X122759493Y-83064743D01*
X122786927Y-83095381D01*
X122787206Y-83095682D01*
X122787221Y-83095699D01*
X122791923Y-83100781D01*
X122791967Y-83100827D01*
X122792131Y-83101005D01*
X122792307Y-83101189D01*
X122792322Y-83101205D01*
X122792463Y-83101353D01*
X122792505Y-83101396D01*
X122792655Y-83101553D01*
X122797935Y-83106901D01*
X122825772Y-83134202D01*
X122828797Y-83137116D01*
X122852194Y-83159253D01*
X122854154Y-83161177D01*
X122857245Y-83164325D01*
X122878650Y-83212466D01*
X122879240Y-83222204D01*
X122879463Y-83225894D01*
X122880278Y-83229199D01*
X122880278Y-83229200D01*
X122882514Y-83238270D01*
X122884700Y-83256271D01*
X122884700Y-84962030D01*
X122883558Y-84975085D01*
X122879990Y-84995326D01*
X122881133Y-85001804D01*
X122884421Y-85020446D01*
X122883387Y-85026314D01*
X122885154Y-85026140D01*
X122887250Y-85047408D01*
X122892430Y-85099986D01*
X122922962Y-85200623D01*
X122972541Y-85293370D01*
X122984377Y-85307791D01*
X122988767Y-85313140D01*
X122994876Y-85321752D01*
X122996766Y-85324858D01*
X122998861Y-85329734D01*
X123002940Y-85334699D01*
X123017536Y-85349295D01*
X123025960Y-85359333D01*
X123033977Y-85370781D01*
X123037752Y-85376172D01*
X123043142Y-85379946D01*
X123043143Y-85379947D01*
X123054578Y-85387953D01*
X123064621Y-85396380D01*
X125834974Y-88166734D01*
X125856714Y-88213354D01*
X125857000Y-88219908D01*
X125857000Y-91714468D01*
X125856357Y-91724284D01*
X125837520Y-91867361D01*
X125832439Y-91886323D01*
X125779117Y-92015055D01*
X125769301Y-92032056D01*
X125684479Y-92142598D01*
X125670600Y-92156477D01*
X125560056Y-92241301D01*
X125543055Y-92251117D01*
X125414323Y-92304439D01*
X125395361Y-92309520D01*
X125252284Y-92328357D01*
X125242468Y-92329000D01*
X113517532Y-92329000D01*
X113507716Y-92328357D01*
X113364639Y-92309520D01*
X113345677Y-92304439D01*
X113216945Y-92251117D01*
X113199944Y-92241301D01*
X113089400Y-92156477D01*
X113075521Y-92142598D01*
X112990699Y-92032056D01*
X112980883Y-92015055D01*
X112927561Y-91886323D01*
X112922480Y-91867361D01*
X112903643Y-91724284D01*
X112903000Y-91714468D01*
X112903000Y-90043000D01*
X120200064Y-90043000D01*
X120219723Y-90192322D01*
X120277359Y-90331468D01*
X120280357Y-90335375D01*
X120365073Y-90445778D01*
X120369045Y-90450955D01*
X120488532Y-90542641D01*
X120529296Y-90559526D01*
X120623129Y-90598393D01*
X120623131Y-90598393D01*
X120627678Y-90600277D01*
X120632556Y-90600919D01*
X120632559Y-90600920D01*
X120772116Y-90619293D01*
X120777000Y-90619936D01*
X120781884Y-90619293D01*
X120921441Y-90600920D01*
X120921444Y-90600919D01*
X120926322Y-90600277D01*
X121024707Y-90559525D01*
X121030151Y-90557512D01*
X121034656Y-90556043D01*
X121045165Y-90552614D01*
X121045168Y-90552612D01*
X121048673Y-90551469D01*
X121061369Y-90544339D01*
X121065468Y-90542641D01*
X121068140Y-90540591D01*
X121068484Y-90540530D01*
X121068404Y-90540388D01*
X121084659Y-90531259D01*
X121085142Y-90530988D01*
X121097009Y-90523854D01*
X121098180Y-90523102D01*
X121109741Y-90515179D01*
X121110166Y-90514869D01*
X121145361Y-90489168D01*
X121145391Y-90489146D01*
X121145734Y-90488895D01*
X121155017Y-90481754D01*
X121155922Y-90481021D01*
X121156230Y-90480758D01*
X121156250Y-90480742D01*
X121164397Y-90473801D01*
X121164407Y-90473792D01*
X121164743Y-90473506D01*
X121195381Y-90446072D01*
X121195699Y-90445778D01*
X121200781Y-90441076D01*
X121200827Y-90441032D01*
X121201005Y-90440868D01*
X121201553Y-90440344D01*
X121206907Y-90435057D01*
X121234354Y-90407069D01*
X121237272Y-90404040D01*
X121259254Y-90380803D01*
X121261180Y-90378842D01*
X121264325Y-90375754D01*
X121312469Y-90354349D01*
X121322492Y-90353743D01*
X121322497Y-90353742D01*
X121325889Y-90353537D01*
X121338265Y-90350486D01*
X121356265Y-90348300D01*
X121356560Y-90348300D01*
X121362119Y-90348708D01*
X121366628Y-90350256D01*
X121417316Y-90348353D01*
X121420136Y-90348300D01*
X121440393Y-90348300D01*
X121443797Y-90347666D01*
X121447249Y-90347347D01*
X121447265Y-90347519D01*
X121451383Y-90347074D01*
X121473343Y-90346250D01*
X121473346Y-90346249D01*
X121480282Y-90345989D01*
X121486661Y-90343248D01*
X121486663Y-90343248D01*
X121493623Y-90340258D01*
X121509535Y-90335424D01*
X121523058Y-90332905D01*
X121573800Y-90341349D01*
X121607244Y-90380436D01*
X121632438Y-90447641D01*
X121635648Y-90451924D01*
X121635649Y-90451926D01*
X121710252Y-90551469D01*
X121714741Y-90557459D01*
X121719024Y-90560669D01*
X121820274Y-90636551D01*
X121820276Y-90636552D01*
X121824559Y-90639762D01*
X121829571Y-90641641D01*
X121829573Y-90641642D01*
X121948646Y-90686281D01*
X121948650Y-90686282D01*
X121953062Y-90687936D01*
X121957748Y-90688445D01*
X121957752Y-90688446D01*
X122009617Y-90694080D01*
X122009623Y-90694080D01*
X122011645Y-90694300D01*
X122681835Y-90694300D01*
X123352354Y-90694299D01*
X123354375Y-90694079D01*
X123354384Y-90694079D01*
X123386939Y-90690543D01*
X123410938Y-90687936D01*
X123415353Y-90686281D01*
X123534427Y-90641642D01*
X123534429Y-90641641D01*
X123539441Y-90639762D01*
X123543724Y-90636552D01*
X123543726Y-90636551D01*
X123644976Y-90560669D01*
X123649259Y-90557459D01*
X123653748Y-90551469D01*
X123728351Y-90451926D01*
X123728352Y-90451924D01*
X123731562Y-90447641D01*
X123736280Y-90435057D01*
X123778081Y-90323554D01*
X123778082Y-90323550D01*
X123779736Y-90319138D01*
X123780245Y-90314452D01*
X123780246Y-90314448D01*
X123785880Y-90262583D01*
X123785880Y-90262577D01*
X123786100Y-90260555D01*
X123786099Y-89469846D01*
X123785514Y-89464455D01*
X123780245Y-89415951D01*
X123779736Y-89411262D01*
X123770470Y-89386546D01*
X123733442Y-89287773D01*
X123733441Y-89287771D01*
X123731562Y-89282759D01*
X123721051Y-89268733D01*
X123652469Y-89177224D01*
X123649259Y-89172941D01*
X123551924Y-89099993D01*
X123543726Y-89093849D01*
X123543724Y-89093848D01*
X123539441Y-89090638D01*
X123534429Y-89088759D01*
X123534427Y-89088758D01*
X123415354Y-89044119D01*
X123415350Y-89044118D01*
X123410938Y-89042464D01*
X123406252Y-89041955D01*
X123406248Y-89041954D01*
X123354383Y-89036320D01*
X123354377Y-89036320D01*
X123352355Y-89036100D01*
X122682165Y-89036100D01*
X122011646Y-89036101D01*
X122009625Y-89036321D01*
X122009616Y-89036321D01*
X121977061Y-89039857D01*
X121953062Y-89042464D01*
X121948648Y-89044119D01*
X121948647Y-89044119D01*
X121829573Y-89088758D01*
X121829571Y-89088759D01*
X121824559Y-89090638D01*
X121820276Y-89093848D01*
X121820274Y-89093849D01*
X121812076Y-89099993D01*
X121714741Y-89172941D01*
X121711531Y-89177224D01*
X121642950Y-89268733D01*
X121632438Y-89282759D01*
X121630559Y-89287771D01*
X121630558Y-89287773D01*
X121588905Y-89398883D01*
X121584264Y-89411262D01*
X121583755Y-89415948D01*
X121583754Y-89415952D01*
X121578120Y-89467816D01*
X121577900Y-89469845D01*
X121577900Y-89490669D01*
X121560307Y-89539007D01*
X121522260Y-89562183D01*
X121521518Y-89562211D01*
X121515143Y-89564950D01*
X121515138Y-89564951D01*
X121508177Y-89567942D01*
X121492265Y-89572776D01*
X121484816Y-89574164D01*
X121484814Y-89574165D01*
X121477989Y-89575436D01*
X121472080Y-89579078D01*
X121472078Y-89579079D01*
X121453366Y-89590613D01*
X121443590Y-89595691D01*
X121421903Y-89605008D01*
X121421900Y-89605010D01*
X121417021Y-89607106D01*
X121412056Y-89611185D01*
X121405525Y-89617716D01*
X121391811Y-89628557D01*
X121390095Y-89629615D01*
X121381172Y-89635115D01*
X121376972Y-89640638D01*
X121362183Y-89660086D01*
X121355498Y-89667741D01*
X121342482Y-89680757D01*
X121295862Y-89702497D01*
X121246175Y-89689183D01*
X121235161Y-89679766D01*
X121234471Y-89679050D01*
X121234344Y-89678919D01*
X121207063Y-89651100D01*
X121207060Y-89651097D01*
X121206908Y-89650942D01*
X121201553Y-89645655D01*
X121201328Y-89645440D01*
X121201263Y-89645377D01*
X121201221Y-89645338D01*
X121201005Y-89645131D01*
X121198933Y-89643214D01*
X121195605Y-89640134D01*
X121195590Y-89640120D01*
X121195380Y-89639926D01*
X121195217Y-89639780D01*
X121195149Y-89639718D01*
X121190399Y-89635465D01*
X121184549Y-89629615D01*
X121180293Y-89624863D01*
X121180071Y-89624615D01*
X121174743Y-89618862D01*
X121174517Y-89618626D01*
X121174501Y-89618609D01*
X121174438Y-89618544D01*
X121174223Y-89618319D01*
X121169057Y-89613092D01*
X121141069Y-89585645D01*
X121138040Y-89582727D01*
X121114803Y-89560745D01*
X121112842Y-89558819D01*
X121109754Y-89555674D01*
X121088349Y-89507530D01*
X121087743Y-89497507D01*
X121087742Y-89497502D01*
X121087537Y-89494110D01*
X121084486Y-89481734D01*
X121082300Y-89463734D01*
X121082300Y-88589542D01*
X121084767Y-88570440D01*
X121086598Y-88563468D01*
X121086599Y-88563459D01*
X121087537Y-88559889D01*
X121088349Y-88546469D01*
X121109762Y-88498316D01*
X121112853Y-88495169D01*
X121114822Y-88493237D01*
X121137925Y-88471380D01*
X121138053Y-88471259D01*
X121138131Y-88471184D01*
X121138173Y-88471144D01*
X121141080Y-88468344D01*
X121141111Y-88468314D01*
X121168899Y-88441063D01*
X121168905Y-88441057D01*
X121169057Y-88440908D01*
X121174344Y-88435553D01*
X121174868Y-88435005D01*
X121175032Y-88434827D01*
X121175076Y-88434781D01*
X121179778Y-88429699D01*
X121179793Y-88429682D01*
X121180072Y-88429381D01*
X121207506Y-88398743D01*
X121215021Y-88389922D01*
X121215754Y-88389017D01*
X121222895Y-88379734D01*
X121223146Y-88379391D01*
X121223168Y-88379361D01*
X121248869Y-88344166D01*
X121248880Y-88344151D01*
X121249179Y-88343741D01*
X121257102Y-88332180D01*
X121257854Y-88331009D01*
X121264988Y-88319142D01*
X121274388Y-88302404D01*
X121276641Y-88299468D01*
X121278339Y-88295369D01*
X121285469Y-88282673D01*
X121307237Y-88229523D01*
X121308734Y-88224023D01*
X121308901Y-88224069D01*
X121312019Y-88214057D01*
X121332393Y-88164870D01*
X121334277Y-88160322D01*
X121335827Y-88148555D01*
X121353293Y-88015884D01*
X121353936Y-88011000D01*
X121347391Y-87961286D01*
X121334920Y-87866559D01*
X121334919Y-87866556D01*
X121334277Y-87861678D01*
X121316452Y-87818645D01*
X121574311Y-87818645D01*
X121574524Y-87822712D01*
X121574524Y-87822715D01*
X121576328Y-87857129D01*
X121583739Y-87998539D01*
X121584821Y-88002466D01*
X121584821Y-88002468D01*
X121593809Y-88035099D01*
X121631577Y-88172212D01*
X121715592Y-88331561D01*
X121718221Y-88334672D01*
X121718223Y-88334675D01*
X121775419Y-88402357D01*
X121831865Y-88469151D01*
X121835097Y-88471622D01*
X121835098Y-88471623D01*
X121945725Y-88556204D01*
X121974971Y-88578564D01*
X122138234Y-88654695D01*
X122142205Y-88655583D01*
X122142206Y-88655583D01*
X122311029Y-88693320D01*
X122311031Y-88693320D01*
X122314036Y-88693992D01*
X122317111Y-88694164D01*
X122317112Y-88694164D01*
X122317328Y-88694176D01*
X122319546Y-88694300D01*
X123002004Y-88694300D01*
X123004027Y-88694080D01*
X123004031Y-88694080D01*
X123071347Y-88686767D01*
X123136087Y-88679734D01*
X123139950Y-88678434D01*
X123302960Y-88623575D01*
X123302965Y-88623573D01*
X123306818Y-88622276D01*
X123310304Y-88620181D01*
X123310307Y-88620180D01*
X123457743Y-88531592D01*
X123457746Y-88531590D01*
X123461229Y-88529497D01*
X123592115Y-88405725D01*
X123603246Y-88389347D01*
X123664327Y-88299468D01*
X123693369Y-88256734D01*
X123760267Y-88089476D01*
X123789689Y-87911755D01*
X123789423Y-87906666D01*
X123780474Y-87735930D01*
X123780261Y-87731861D01*
X123778945Y-87727081D01*
X123733505Y-87562117D01*
X123732423Y-87558188D01*
X123648408Y-87398839D01*
X123645779Y-87395728D01*
X123645777Y-87395725D01*
X123534762Y-87264358D01*
X123532135Y-87261249D01*
X123476361Y-87218606D01*
X123392261Y-87154307D01*
X123389029Y-87151836D01*
X123225766Y-87075705D01*
X123221795Y-87074817D01*
X123221794Y-87074817D01*
X123052971Y-87037080D01*
X123052969Y-87037080D01*
X123049964Y-87036408D01*
X123046889Y-87036236D01*
X123046888Y-87036236D01*
X123046672Y-87036224D01*
X123044454Y-87036100D01*
X122361996Y-87036100D01*
X122359973Y-87036320D01*
X122359969Y-87036320D01*
X122293367Y-87043555D01*
X122227913Y-87050666D01*
X122224050Y-87051966D01*
X122061040Y-87106825D01*
X122061035Y-87106827D01*
X122057182Y-87108124D01*
X122053696Y-87110219D01*
X122053693Y-87110220D01*
X121906257Y-87198808D01*
X121906254Y-87198810D01*
X121902771Y-87200903D01*
X121771885Y-87324675D01*
X121670631Y-87473666D01*
X121669119Y-87477445D01*
X121669119Y-87477446D01*
X121655555Y-87511359D01*
X121603733Y-87640924D01*
X121574311Y-87818645D01*
X121316452Y-87818645D01*
X121276641Y-87722532D01*
X121184955Y-87603045D01*
X121065468Y-87511359D01*
X120966338Y-87470298D01*
X120930871Y-87455607D01*
X120930869Y-87455607D01*
X120926322Y-87453723D01*
X120921444Y-87453081D01*
X120921441Y-87453080D01*
X120781884Y-87434707D01*
X120777000Y-87434064D01*
X120772116Y-87434707D01*
X120632559Y-87453080D01*
X120632556Y-87453081D01*
X120627678Y-87453723D01*
X120623131Y-87455607D01*
X120623129Y-87455607D01*
X120587662Y-87470298D01*
X120488532Y-87511359D01*
X120369045Y-87603045D01*
X120277359Y-87722532D01*
X120219723Y-87861678D01*
X120219081Y-87866556D01*
X120219080Y-87866559D01*
X120206609Y-87961286D01*
X120200064Y-88011000D01*
X120200707Y-88015884D01*
X120218174Y-88148555D01*
X120219723Y-88160322D01*
X120221607Y-88164870D01*
X120221608Y-88164874D01*
X120260476Y-88258711D01*
X120262492Y-88264164D01*
X120268527Y-88282666D01*
X120275663Y-88295373D01*
X120277359Y-88299468D01*
X120279406Y-88302137D01*
X120279467Y-88302481D01*
X120279609Y-88302401D01*
X120289014Y-88319148D01*
X120289283Y-88319596D01*
X120289298Y-88319621D01*
X120294312Y-88327956D01*
X120296233Y-88331149D01*
X120296979Y-88332309D01*
X120297279Y-88332747D01*
X120297292Y-88332766D01*
X120300380Y-88337269D01*
X120304822Y-88343745D01*
X120331106Y-88379737D01*
X120331400Y-88380119D01*
X120337972Y-88388663D01*
X120337981Y-88388674D01*
X120338245Y-88389017D01*
X120338978Y-88389922D01*
X120346493Y-88398743D01*
X120373927Y-88429381D01*
X120374206Y-88429682D01*
X120374221Y-88429699D01*
X120378923Y-88434781D01*
X120378967Y-88434827D01*
X120379131Y-88435005D01*
X120379307Y-88435189D01*
X120379322Y-88435205D01*
X120379463Y-88435353D01*
X120379505Y-88435396D01*
X120379655Y-88435553D01*
X120384935Y-88440901D01*
X120412772Y-88468202D01*
X120415797Y-88471116D01*
X120439194Y-88493253D01*
X120441154Y-88495177D01*
X120444245Y-88498325D01*
X120465650Y-88546466D01*
X120466240Y-88556204D01*
X120466463Y-88559894D01*
X120467278Y-88563199D01*
X120467278Y-88563200D01*
X120469514Y-88572270D01*
X120471700Y-88590271D01*
X120471700Y-89464455D01*
X120469233Y-89483557D01*
X120466463Y-89494105D01*
X120466240Y-89497790D01*
X120465650Y-89507533D01*
X120444245Y-89555674D01*
X120441157Y-89558819D01*
X120439196Y-89560745D01*
X120415959Y-89582727D01*
X120412930Y-89585645D01*
X120384942Y-89613092D01*
X120379776Y-89618319D01*
X120379256Y-89618862D01*
X120373929Y-89624614D01*
X120346491Y-89655257D01*
X120338978Y-89664077D01*
X120338245Y-89664982D01*
X120331107Y-89674261D01*
X120304827Y-89710247D01*
X120296972Y-89721702D01*
X120296221Y-89722870D01*
X120289013Y-89734852D01*
X120279605Y-89751605D01*
X120277359Y-89754532D01*
X120275666Y-89758620D01*
X120268527Y-89771332D01*
X120267653Y-89773468D01*
X120267649Y-89773475D01*
X120253513Y-89807999D01*
X120246751Y-89824515D01*
X120245255Y-89830015D01*
X120245082Y-89829968D01*
X120241975Y-89839957D01*
X120219723Y-89893678D01*
X120200064Y-90043000D01*
X112903000Y-90043000D01*
X112903000Y-88219907D01*
X112920593Y-88171569D01*
X112925026Y-88166733D01*
X115695379Y-85396381D01*
X115705422Y-85387954D01*
X115716856Y-85379948D01*
X115716858Y-85379946D01*
X115722248Y-85376172D01*
X115726023Y-85370782D01*
X115726024Y-85370781D01*
X115736943Y-85355189D01*
X115741820Y-85351774D01*
X115740449Y-85350649D01*
X115759965Y-85326870D01*
X115787459Y-85293370D01*
X115837038Y-85200623D01*
X115867570Y-85099986D01*
X115870083Y-85074480D01*
X115871853Y-85064077D01*
X115872708Y-85060563D01*
X115874673Y-85055638D01*
X115875300Y-85049243D01*
X115875300Y-85028611D01*
X115876443Y-85015548D01*
X115878867Y-85001804D01*
X115880010Y-84995326D01*
X115876442Y-84975085D01*
X115875300Y-84962030D01*
X115875300Y-83255542D01*
X115877767Y-83236440D01*
X115879598Y-83229468D01*
X115879599Y-83229459D01*
X115880537Y-83225889D01*
X115881349Y-83212469D01*
X115902762Y-83164316D01*
X115905853Y-83161169D01*
X115907822Y-83159237D01*
X115930925Y-83137380D01*
X115931053Y-83137259D01*
X115931131Y-83137184D01*
X115931173Y-83137144D01*
X115934080Y-83134344D01*
X115934111Y-83134314D01*
X115961899Y-83107063D01*
X115961905Y-83107057D01*
X115962057Y-83106908D01*
X115967344Y-83101553D01*
X115967868Y-83101005D01*
X115968032Y-83100827D01*
X115968076Y-83100781D01*
X115972778Y-83095699D01*
X115972793Y-83095682D01*
X115973072Y-83095381D01*
X116000506Y-83064743D01*
X116008021Y-83055922D01*
X116008754Y-83055017D01*
X116015895Y-83045734D01*
X116016146Y-83045391D01*
X116016168Y-83045361D01*
X116041869Y-83010166D01*
X116041880Y-83010151D01*
X116042179Y-83009741D01*
X116050102Y-82998180D01*
X116050854Y-82997009D01*
X116057988Y-82985142D01*
X116067388Y-82968404D01*
X116069641Y-82965468D01*
X116071339Y-82961369D01*
X116078469Y-82948673D01*
X116089295Y-82922241D01*
X116099359Y-82897667D01*
X116099359Y-82897666D01*
X116100237Y-82895523D01*
X116101734Y-82890023D01*
X116101901Y-82890069D01*
X116105019Y-82880057D01*
X116125393Y-82830870D01*
X116127277Y-82826322D01*
X116128719Y-82815375D01*
X116146293Y-82681884D01*
X116146936Y-82677000D01*
X116145828Y-82668587D01*
X116127920Y-82532559D01*
X116127919Y-82532556D01*
X116127277Y-82527678D01*
X116069641Y-82388532D01*
X115977955Y-82269045D01*
X115858468Y-82177359D01*
X115762846Y-82137751D01*
X115740000Y-82128288D01*
X115702075Y-82093536D01*
X115695361Y-82042536D01*
X115722999Y-81999152D01*
X115736439Y-81990921D01*
X115736592Y-81990848D01*
X115736751Y-81990772D01*
X115736822Y-81990738D01*
X115736982Y-81990661D01*
X115739234Y-81989574D01*
X115739381Y-81989502D01*
X115740041Y-81989179D01*
X115752590Y-81983029D01*
X115773851Y-81972610D01*
X115773908Y-81972581D01*
X115774052Y-81972511D01*
X115774250Y-81972411D01*
X115778998Y-81970013D01*
X115779044Y-81969989D01*
X115779102Y-81969960D01*
X115779592Y-81969705D01*
X115784358Y-81967154D01*
X115819249Y-81947960D01*
X115826654Y-81943709D01*
X115826888Y-81943569D01*
X115826922Y-81943549D01*
X115827117Y-81943432D01*
X115827129Y-81943424D01*
X115827379Y-81943275D01*
X115834679Y-81938721D01*
X115870782Y-81915265D01*
X115871051Y-81915082D01*
X115871078Y-81915064D01*
X115878734Y-81909853D01*
X115879043Y-81909643D01*
X115879856Y-81909064D01*
X115883110Y-81906641D01*
X115887536Y-81903345D01*
X115887564Y-81903323D01*
X115887863Y-81903101D01*
X115888165Y-81902866D01*
X115925808Y-81873561D01*
X115925842Y-81873534D01*
X115926109Y-81873326D01*
X115933717Y-81867143D01*
X115934474Y-81866501D01*
X115942011Y-81859825D01*
X115977290Y-81827196D01*
X115978767Y-81825451D01*
X115980355Y-81823793D01*
X115980553Y-81823982D01*
X115982991Y-81821659D01*
X115982774Y-81821442D01*
X115986263Y-81817953D01*
X115990170Y-81814955D01*
X116081856Y-81695468D01*
X116130994Y-81576839D01*
X116137608Y-81560871D01*
X116137608Y-81560869D01*
X116139492Y-81556322D01*
X116140473Y-81548875D01*
X116158508Y-81411884D01*
X116159151Y-81407000D01*
X116152034Y-81352943D01*
X116140135Y-81262559D01*
X116140134Y-81262556D01*
X116139492Y-81257678D01*
X116131990Y-81239565D01*
X116083740Y-81123081D01*
X116081856Y-81118532D01*
X115990170Y-80999045D01*
X115870683Y-80907359D01*
X115760189Y-80861591D01*
X115736086Y-80851607D01*
X115736084Y-80851607D01*
X115731537Y-80849723D01*
X115726659Y-80849081D01*
X115726656Y-80849080D01*
X115701382Y-80845753D01*
X115655755Y-80822000D01*
X115636070Y-80774476D01*
X115651538Y-80725417D01*
X115694922Y-80697779D01*
X115701382Y-80696639D01*
X115714441Y-80694920D01*
X115714444Y-80694919D01*
X115719322Y-80694277D01*
X115723869Y-80692393D01*
X115723871Y-80692393D01*
X115788895Y-80665459D01*
X115858468Y-80636641D01*
X115977955Y-80544955D01*
X116069641Y-80425468D01*
X116127277Y-80286322D01*
X116132492Y-80246715D01*
X116146293Y-80141884D01*
X116146936Y-80137000D01*
X116137039Y-80061827D01*
X116127920Y-79992559D01*
X116127919Y-79992556D01*
X116127277Y-79987678D01*
X116069641Y-79848532D01*
X115977955Y-79729045D01*
X115858468Y-79637359D01*
X115788895Y-79608541D01*
X115723871Y-79581607D01*
X115723869Y-79581607D01*
X115719322Y-79579723D01*
X115714444Y-79579081D01*
X115714441Y-79579080D01*
X115574884Y-79560707D01*
X115570000Y-79560064D01*
X115565116Y-79560707D01*
X115425559Y-79579080D01*
X115425556Y-79579081D01*
X115420678Y-79579723D01*
X115416131Y-79581607D01*
X115416129Y-79581607D01*
X115351105Y-79608541D01*
X115281532Y-79637359D01*
X115162045Y-79729045D01*
X115159049Y-79732950D01*
X115159047Y-79732952D01*
X115099834Y-79810120D01*
X115095663Y-79815095D01*
X115081664Y-79830395D01*
X115071865Y-79846569D01*
X115070359Y-79848532D01*
X115069808Y-79849863D01*
X115069528Y-79850098D01*
X115069674Y-79850187D01*
X115057561Y-79870180D01*
X115051316Y-79881144D01*
X115050718Y-79882263D01*
X115045003Y-79893698D01*
X115024917Y-79936790D01*
X115020157Y-79947721D01*
X115019715Y-79948811D01*
X115015603Y-79959724D01*
X115001499Y-80000184D01*
X114998754Y-80008562D01*
X114998491Y-80009419D01*
X114995982Y-80018203D01*
X114985705Y-80057033D01*
X114984595Y-80061397D01*
X114984579Y-80061464D01*
X114984490Y-80061827D01*
X114983528Y-80065930D01*
X114983499Y-80066056D01*
X114975278Y-80102653D01*
X114975111Y-80103376D01*
X114968657Y-80130837D01*
X114967536Y-80135055D01*
X114963055Y-80150130D01*
X114960641Y-80157009D01*
X114957334Y-80165146D01*
X114953486Y-80173207D01*
X114948890Y-80181521D01*
X114943987Y-80189240D01*
X114933566Y-80203631D01*
X114928338Y-80210071D01*
X114904796Y-80235999D01*
X114902978Y-80238945D01*
X114897405Y-80247975D01*
X114886585Y-80261655D01*
X113031374Y-82116866D01*
X112984754Y-82138606D01*
X112935067Y-82125292D01*
X112905562Y-82083155D01*
X112903000Y-82063692D01*
X112903000Y-71733307D01*
X112920593Y-71684969D01*
X112965142Y-71659249D01*
X113015800Y-71668182D01*
X113031374Y-71680133D01*
X114945025Y-73593784D01*
X114956787Y-73609033D01*
X114960429Y-73615270D01*
X114960432Y-73615275D01*
X114962291Y-73618457D01*
X114964736Y-73621217D01*
X114971210Y-73628526D01*
X114990115Y-73677693D01*
X114990156Y-73682151D01*
X114990130Y-73684873D01*
X114989239Y-73717087D01*
X114989160Y-73721291D01*
X114988782Y-73760249D01*
X114988830Y-73767762D01*
X114988847Y-73768521D01*
X114989144Y-73776177D01*
X114991410Y-73817244D01*
X114992345Y-73828895D01*
X114992467Y-73830052D01*
X114993970Y-73841562D01*
X115000834Y-73885592D01*
X115003369Y-73899199D01*
X115003661Y-73900544D01*
X115007045Y-73914151D01*
X115012241Y-73932659D01*
X115012723Y-73936322D01*
X115014418Y-73940413D01*
X115018356Y-73954442D01*
X115040573Y-74007466D01*
X115041723Y-74009476D01*
X115041724Y-74009477D01*
X115043403Y-74012410D01*
X115043248Y-74012499D01*
X115048109Y-74021753D01*
X115070359Y-74075468D01*
X115162045Y-74194955D01*
X115281532Y-74286641D01*
X115351105Y-74315459D01*
X115416129Y-74342393D01*
X115416131Y-74342393D01*
X115420678Y-74344277D01*
X115425556Y-74344919D01*
X115425559Y-74344920D01*
X115565116Y-74363293D01*
X115570000Y-74363936D01*
X115574884Y-74363293D01*
X115714441Y-74344920D01*
X115714444Y-74344919D01*
X115719322Y-74344277D01*
X115723869Y-74342393D01*
X115723871Y-74342393D01*
X115788895Y-74315459D01*
X115858468Y-74286641D01*
X115977955Y-74194955D01*
X116069641Y-74075468D01*
X116118890Y-73956571D01*
X116125393Y-73940871D01*
X116125393Y-73940869D01*
X116127277Y-73936322D01*
X116131988Y-73900544D01*
X116146293Y-73791884D01*
X116146936Y-73787000D01*
X116143365Y-73759877D01*
X116127920Y-73642559D01*
X116127919Y-73642556D01*
X116127277Y-73637678D01*
X116119316Y-73618457D01*
X116071525Y-73503081D01*
X116069641Y-73498532D01*
X115977955Y-73379045D01*
X115858468Y-73287359D01*
X115801386Y-73263715D01*
X115760082Y-73246606D01*
X115754801Y-73244175D01*
X115740736Y-73237030D01*
X115737443Y-73235357D01*
X115733890Y-73234360D01*
X115733889Y-73234359D01*
X115729267Y-73233061D01*
X115723417Y-73231419D01*
X115719322Y-73229723D01*
X115715987Y-73229284D01*
X115715700Y-73229083D01*
X115715656Y-73229240D01*
X115697693Y-73224197D01*
X115697673Y-73224192D01*
X115697154Y-73224046D01*
X115696656Y-73223922D01*
X115696614Y-73223911D01*
X115696195Y-73223807D01*
X115696104Y-73223785D01*
X115696083Y-73223771D01*
X115696053Y-73223763D01*
X115696056Y-73223753D01*
X115653427Y-73195067D01*
X115639193Y-73145636D01*
X115660064Y-73098620D01*
X115704398Y-73076243D01*
X115714435Y-73074921D01*
X115714439Y-73074920D01*
X115719322Y-73074277D01*
X115723869Y-73072393D01*
X115723871Y-73072393D01*
X115806784Y-73038049D01*
X115858468Y-73016641D01*
X115977955Y-72924955D01*
X116069641Y-72805468D01*
X116127277Y-72666322D01*
X116128128Y-72659863D01*
X116146293Y-72521884D01*
X116146936Y-72517000D01*
X116142422Y-72482711D01*
X116127920Y-72372559D01*
X116127919Y-72372556D01*
X116127277Y-72367678D01*
X116123783Y-72359241D01*
X116093818Y-72286900D01*
X116069641Y-72228532D01*
X115977955Y-72109045D01*
X115928047Y-72070749D01*
X115896881Y-72046834D01*
X115891898Y-72042656D01*
X115879326Y-72031153D01*
X115879323Y-72031151D01*
X115876603Y-72028662D01*
X115860428Y-72018863D01*
X115858468Y-72017359D01*
X115857135Y-72016807D01*
X115856903Y-72016531D01*
X115856816Y-72016675D01*
X115837258Y-72004826D01*
X115837247Y-72004820D01*
X115836812Y-72004556D01*
X115825832Y-71998304D01*
X115825376Y-71998060D01*
X115825350Y-71998046D01*
X115825254Y-71997995D01*
X115824724Y-71997712D01*
X115813306Y-71992006D01*
X115770207Y-71971917D01*
X115759379Y-71967198D01*
X115758961Y-71967028D01*
X115758920Y-71967011D01*
X115758761Y-71966947D01*
X115758757Y-71966945D01*
X115758288Y-71966755D01*
X115747271Y-71962601D01*
X115707938Y-71948890D01*
X115668087Y-71916368D01*
X115658463Y-71865837D01*
X115683572Y-71820941D01*
X115713227Y-71805245D01*
X115714441Y-71804920D01*
X115719322Y-71804277D01*
X115858468Y-71746641D01*
X115977955Y-71654955D01*
X116069641Y-71535468D01*
X116109931Y-71438199D01*
X116125393Y-71400871D01*
X116125393Y-71400869D01*
X116127277Y-71396322D01*
X116131988Y-71360544D01*
X116146293Y-71251884D01*
X116146936Y-71247000D01*
X116140280Y-71196440D01*
X116127920Y-71102559D01*
X116127919Y-71102556D01*
X116127277Y-71097678D01*
X116119316Y-71078457D01*
X116095055Y-71019886D01*
X116069641Y-70958532D01*
X115981131Y-70843184D01*
X115980953Y-70842952D01*
X115977955Y-70839045D01*
X115858468Y-70747359D01*
X115807762Y-70726356D01*
X115760082Y-70706606D01*
X115754801Y-70704175D01*
X115740736Y-70697030D01*
X115737443Y-70695357D01*
X115733890Y-70694360D01*
X115733889Y-70694359D01*
X115729267Y-70693061D01*
X115723417Y-70691419D01*
X115719322Y-70689723D01*
X115715987Y-70689284D01*
X115715700Y-70689083D01*
X115715656Y-70689240D01*
X115697693Y-70684197D01*
X115697673Y-70684192D01*
X115697154Y-70684046D01*
X115696656Y-70683922D01*
X115696614Y-70683911D01*
X115696195Y-70683807D01*
X115696104Y-70683785D01*
X115696083Y-70683771D01*
X115696053Y-70683763D01*
X115696056Y-70683753D01*
X115653427Y-70655067D01*
X115639193Y-70605636D01*
X115660064Y-70558620D01*
X115704398Y-70536243D01*
X115714435Y-70534921D01*
X115714439Y-70534920D01*
X115719322Y-70534277D01*
X115723869Y-70532393D01*
X115723871Y-70532393D01*
X115806784Y-70498049D01*
X115858468Y-70476641D01*
X115977955Y-70384955D01*
X116069641Y-70265468D01*
X116111513Y-70164379D01*
X116125393Y-70130871D01*
X116125393Y-70130869D01*
X116127277Y-70126322D01*
X116128823Y-70114583D01*
X116146293Y-69981884D01*
X116146936Y-69977000D01*
X116143365Y-69949877D01*
X116127920Y-69832559D01*
X116127919Y-69832556D01*
X116127277Y-69827678D01*
X116119316Y-69808457D01*
X116075201Y-69701955D01*
X116069641Y-69688532D01*
X115999139Y-69596652D01*
X115980953Y-69572952D01*
X115977955Y-69569045D01*
X115858468Y-69477359D01*
X115801386Y-69453715D01*
X115760082Y-69436606D01*
X115754801Y-69434175D01*
X115740736Y-69427030D01*
X115737443Y-69425357D01*
X115733890Y-69424360D01*
X115733889Y-69424359D01*
X115729267Y-69423061D01*
X115723417Y-69421419D01*
X115719322Y-69419723D01*
X115715987Y-69419284D01*
X115715700Y-69419083D01*
X115715656Y-69419240D01*
X115697693Y-69414197D01*
X115697673Y-69414192D01*
X115697154Y-69414046D01*
X115696656Y-69413922D01*
X115696614Y-69413911D01*
X115696195Y-69413807D01*
X115696104Y-69413785D01*
X115696083Y-69413771D01*
X115696053Y-69413763D01*
X115696056Y-69413753D01*
X115653427Y-69385067D01*
X115639193Y-69335636D01*
X115660064Y-69288620D01*
X115704398Y-69266243D01*
X115714435Y-69264921D01*
X115714439Y-69264920D01*
X115719322Y-69264277D01*
X115723869Y-69262393D01*
X115723871Y-69262393D01*
X115811265Y-69226193D01*
X115858468Y-69206641D01*
X115968517Y-69122197D01*
X115974048Y-69117953D01*
X115977955Y-69114955D01*
X116069641Y-68995468D01*
X116123133Y-68866326D01*
X116125393Y-68860871D01*
X116125393Y-68860869D01*
X116127277Y-68856322D01*
X116127942Y-68851275D01*
X116146293Y-68711884D01*
X116146936Y-68707000D01*
X116132547Y-68597707D01*
X116127920Y-68562561D01*
X116127920Y-68562560D01*
X116127277Y-68557678D01*
X116123174Y-68547771D01*
X116086528Y-68459299D01*
X116084513Y-68453847D01*
X116079619Y-68438846D01*
X116079617Y-68438841D01*
X116078472Y-68435332D01*
X116074254Y-68427821D01*
X116072066Y-68423924D01*
X116072063Y-68423919D01*
X116071337Y-68422627D01*
X116069641Y-68418532D01*
X116067595Y-68415866D01*
X116067534Y-68415519D01*
X116067391Y-68415600D01*
X116058256Y-68399333D01*
X116058255Y-68399331D01*
X116057991Y-68398861D01*
X116050854Y-68386989D01*
X116050102Y-68385818D01*
X116042177Y-68374254D01*
X116041849Y-68373804D01*
X116041830Y-68373778D01*
X116029062Y-68356295D01*
X116015893Y-68338262D01*
X116014522Y-68336480D01*
X116009027Y-68329336D01*
X116009001Y-68329303D01*
X116008754Y-68328982D01*
X116008021Y-68328077D01*
X116000506Y-68319256D01*
X115973072Y-68288618D01*
X115972778Y-68288300D01*
X115968076Y-68283218D01*
X115968032Y-68283172D01*
X115967868Y-68282994D01*
X115967344Y-68282446D01*
X115962057Y-68277092D01*
X115950901Y-68266151D01*
X115934161Y-68249735D01*
X115934145Y-68249719D01*
X115934069Y-68249645D01*
X115931040Y-68246727D01*
X115907803Y-68224745D01*
X115905842Y-68222819D01*
X115902754Y-68219674D01*
X115881349Y-68171530D01*
X115880743Y-68161507D01*
X115880742Y-68161502D01*
X115880537Y-68158110D01*
X115877486Y-68145734D01*
X115875300Y-68127734D01*
X115875300Y-64897970D01*
X115876442Y-64884915D01*
X115878868Y-64871154D01*
X115878868Y-64871152D01*
X115880010Y-64864674D01*
X115875579Y-64839554D01*
X115876613Y-64833686D01*
X115874846Y-64833860D01*
X115867932Y-64763687D01*
X115867932Y-64763686D01*
X115867570Y-64760014D01*
X115837038Y-64659377D01*
X115787459Y-64566630D01*
X115771233Y-64546860D01*
X115765124Y-64538248D01*
X115763234Y-64535142D01*
X115761139Y-64530266D01*
X115757060Y-64525301D01*
X115742464Y-64510705D01*
X115734040Y-64500667D01*
X115726023Y-64489218D01*
X115726021Y-64489216D01*
X115722248Y-64483828D01*
X115716858Y-64480054D01*
X115716857Y-64480053D01*
X115705422Y-64472047D01*
X115695379Y-64463620D01*
X112925026Y-61693266D01*
X112903286Y-61646646D01*
X112903000Y-61640092D01*
X112903000Y-58145532D01*
X112903643Y-58135716D01*
X112922480Y-57992639D01*
X112927561Y-57973677D01*
X112980883Y-57844945D01*
X112990699Y-57827944D01*
X113075521Y-57717402D01*
X113089400Y-57703523D01*
X113199945Y-57618699D01*
X113216945Y-57608883D01*
X113345677Y-57555561D01*
X113364639Y-57550480D01*
X113507716Y-57531643D01*
X113517532Y-57531000D01*
X125242468Y-57531000D01*
X125252284Y-57531643D01*
G37*
%TD.AperFunction*%
%TD*%
M02*
