M48
; DRILL file {KiCad (6.0.9)} date Tue Dec 20 15:33:08 2022
; FORMAT={-:-/ absolute / metric / decimal}
; #@! TF.CreationDate,2022-12-20T15:33:08-05:00
; #@! TF.GenerationSoftware,Kicad,Pcbnew,(6.0.9)
; #@! TF.FileFunction,MixedPlating,1,2
FMAT,2
METRIC
; #@! TA.AperFunction,Plated,PTH,ViaDrill
T1C0.330
; #@! TA.AperFunction,Plated,PTH,ComponentDrill
T2C0.750
; #@! TA.AperFunction,Plated,PTH,ComponentDrill
T3C0.800
%
G90
G05
T1
X115.57Y-68.707
X115.57Y-69.977
X115.57Y-71.247
X115.57Y-72.517
X115.57Y-73.787
X115.57Y-80.137
X115.57Y-82.677
X115.582Y-81.407
X120.777Y-61.849
X120.777Y-62.738
X120.777Y-88.011
X120.777Y-90.043
X120.799Y-91.313
X122.809Y-60.51
X123.19Y-68.707
X123.19Y-69.977
X123.19Y-71.247
X123.19Y-72.517
X123.19Y-73.787
X123.19Y-77.597
X123.19Y-80.137
X123.19Y-81.407
X123.19Y-82.677
X123.825Y-62.618
X124.104Y-63.881
X124.714Y-61.849
X125.476Y-59.753
X125.476Y-66.548
T2
X122.682Y-87.865
X122.682Y-89.865
T3
X111.76Y-58.42
X111.76Y-60.96
X111.76Y-63.5
X111.76Y-66.04
X111.76Y-68.58
X111.76Y-71.12
X111.76Y-73.66
X111.76Y-76.2
X111.76Y-78.74
X111.76Y-81.28
X111.76Y-83.82
X111.76Y-86.36
X111.76Y-88.9
X111.76Y-91.44
X127.0Y-58.42
X127.0Y-60.96
X127.0Y-63.5
X127.0Y-66.04
X127.0Y-68.58
X127.0Y-71.12
X127.0Y-73.66
X127.0Y-76.2
X127.0Y-78.74
X127.0Y-81.28
X127.0Y-83.82
X127.0Y-86.36
X127.0Y-88.9
X127.0Y-91.44
T0
M30
